G04 EAGLE Gerber RS-274X export*
G75*
%MOMM*%
%FSLAX34Y34*%
%LPD*%
%INTop Copper*%
%IPPOS*%
%AMOC8*
5,1,8,0,0,1.08239X$1,22.5*%
G01*
%ADD10C,0.100000*%
%ADD11C,0.635000*%
%ADD12C,1.879600*%
%ADD13C,0.096000*%
%ADD14C,0.102000*%
%ADD15C,0.300000*%
%ADD16C,0.254000*%
%ADD17C,0.554000*%
%ADD18C,0.406400*%
%ADD19C,0.304800*%

G36*
X53303Y3054D02*
X53303Y3054D01*
X53343Y3051D01*
X53461Y3074D01*
X53579Y3089D01*
X53617Y3103D01*
X53656Y3111D01*
X53764Y3162D01*
X53875Y3206D01*
X53907Y3229D01*
X53943Y3246D01*
X54036Y3322D01*
X54133Y3392D01*
X54158Y3423D01*
X54189Y3448D01*
X54259Y3545D01*
X54335Y3637D01*
X54352Y3673D01*
X54376Y3706D01*
X54420Y3817D01*
X54471Y3925D01*
X54478Y3964D01*
X54493Y4001D01*
X54508Y4120D01*
X54531Y4237D01*
X54528Y4277D01*
X54533Y4317D01*
X54518Y4435D01*
X54511Y4555D01*
X54499Y4593D01*
X54494Y4632D01*
X54450Y4743D01*
X54413Y4857D01*
X54392Y4891D01*
X54377Y4928D01*
X54291Y5064D01*
X53289Y6443D01*
X52436Y8117D01*
X51855Y9904D01*
X51815Y10161D01*
X62230Y10161D01*
X62348Y10176D01*
X62467Y10183D01*
X62505Y10196D01*
X62545Y10201D01*
X62656Y10244D01*
X62769Y10281D01*
X62803Y10303D01*
X62841Y10318D01*
X62937Y10388D01*
X63038Y10451D01*
X63066Y10481D01*
X63098Y10504D01*
X63174Y10596D01*
X63256Y10683D01*
X63275Y10718D01*
X63301Y10749D01*
X63352Y10857D01*
X63409Y10961D01*
X63420Y11001D01*
X63437Y11037D01*
X63459Y11154D01*
X63489Y11269D01*
X63493Y11330D01*
X63497Y11350D01*
X63495Y11370D01*
X63499Y11430D01*
X63499Y12701D01*
X64770Y12701D01*
X64888Y12716D01*
X65007Y12723D01*
X65045Y12736D01*
X65085Y12741D01*
X65196Y12785D01*
X65309Y12821D01*
X65344Y12843D01*
X65381Y12858D01*
X65477Y12928D01*
X65578Y12991D01*
X65606Y13021D01*
X65639Y13045D01*
X65714Y13136D01*
X65796Y13223D01*
X65816Y13258D01*
X65841Y13290D01*
X65892Y13397D01*
X65950Y13502D01*
X65960Y13541D01*
X65977Y13577D01*
X65999Y13694D01*
X66029Y13809D01*
X66033Y13870D01*
X66037Y13890D01*
X66035Y13910D01*
X66039Y13970D01*
X66039Y24385D01*
X66296Y24345D01*
X68083Y23764D01*
X69757Y22911D01*
X71278Y21806D01*
X72606Y20478D01*
X73711Y18957D01*
X74564Y17283D01*
X75154Y15466D01*
X75180Y15380D01*
X75210Y15254D01*
X75224Y15227D01*
X75232Y15198D01*
X75298Y15087D01*
X75358Y14973D01*
X75379Y14950D01*
X75394Y14924D01*
X75485Y14833D01*
X75572Y14737D01*
X75597Y14721D01*
X75619Y14699D01*
X75730Y14634D01*
X75838Y14563D01*
X75867Y14553D01*
X75892Y14537D01*
X76016Y14501D01*
X76139Y14459D01*
X76169Y14457D01*
X76198Y14449D01*
X76327Y14444D01*
X76456Y14434D01*
X76486Y14439D01*
X76516Y14438D01*
X76642Y14466D01*
X76769Y14489D01*
X76797Y14501D01*
X76826Y14508D01*
X76941Y14566D01*
X77059Y14619D01*
X77083Y14638D01*
X77110Y14652D01*
X77207Y14737D01*
X77308Y14818D01*
X77326Y14842D01*
X77348Y14862D01*
X77421Y14969D01*
X77499Y15072D01*
X77518Y15111D01*
X77527Y15125D01*
X77535Y15145D01*
X77570Y15216D01*
X79209Y19175D01*
X82425Y22391D01*
X84052Y23064D01*
X84077Y23079D01*
X84105Y23088D01*
X84215Y23158D01*
X84328Y23222D01*
X84349Y23242D01*
X84374Y23258D01*
X84463Y23353D01*
X84556Y23443D01*
X84572Y23468D01*
X84592Y23490D01*
X84655Y23603D01*
X84723Y23714D01*
X84731Y23742D01*
X84746Y23768D01*
X84778Y23894D01*
X84816Y24018D01*
X84818Y24048D01*
X84825Y24076D01*
X84835Y24237D01*
X84835Y48591D01*
X84823Y48689D01*
X84820Y48788D01*
X84807Y48832D01*
X84807Y57942D01*
X84806Y57952D01*
X84807Y57961D01*
X84786Y58110D01*
X84767Y58258D01*
X84764Y58267D01*
X84763Y58276D01*
X84710Y58428D01*
X84069Y59976D01*
X84069Y61887D01*
X84800Y63652D01*
X86151Y65003D01*
X86464Y65133D01*
X86507Y65158D01*
X86554Y65174D01*
X86645Y65236D01*
X86741Y65291D01*
X86776Y65325D01*
X86817Y65353D01*
X86890Y65436D01*
X86969Y65512D01*
X86995Y65554D01*
X87028Y65591D01*
X87078Y65689D01*
X87135Y65783D01*
X87150Y65830D01*
X87172Y65875D01*
X87196Y65982D01*
X87229Y66087D01*
X87231Y66137D01*
X87242Y66185D01*
X87239Y66295D01*
X87244Y66405D01*
X87234Y66453D01*
X87232Y66503D01*
X87202Y66609D01*
X87180Y66716D01*
X87158Y66761D01*
X87144Y66808D01*
X87088Y66903D01*
X87040Y67002D01*
X87008Y67040D01*
X86982Y67082D01*
X86876Y67203D01*
X75437Y78642D01*
X75437Y95896D01*
X75425Y95994D01*
X75422Y96093D01*
X75405Y96152D01*
X75397Y96212D01*
X75361Y96304D01*
X75333Y96399D01*
X75303Y96451D01*
X75280Y96507D01*
X75222Y96587D01*
X75172Y96673D01*
X75106Y96748D01*
X75094Y96765D01*
X75084Y96773D01*
X75066Y96794D01*
X73934Y97926D01*
X73855Y97986D01*
X73783Y98054D01*
X73730Y98083D01*
X73682Y98120D01*
X73591Y98160D01*
X73505Y98208D01*
X73446Y98223D01*
X73391Y98247D01*
X73293Y98262D01*
X73197Y98287D01*
X73097Y98293D01*
X73076Y98297D01*
X73064Y98295D01*
X73036Y98297D01*
X40542Y98297D01*
X34797Y104042D01*
X34797Y119478D01*
X40622Y125303D01*
X41251Y125303D01*
X41349Y125315D01*
X41448Y125318D01*
X41506Y125335D01*
X41567Y125343D01*
X41659Y125379D01*
X41754Y125407D01*
X41806Y125437D01*
X41862Y125460D01*
X41942Y125518D01*
X42028Y125568D01*
X42103Y125634D01*
X42120Y125646D01*
X42127Y125656D01*
X42149Y125674D01*
X42577Y126103D01*
X42650Y126197D01*
X42728Y126286D01*
X42747Y126322D01*
X42771Y126354D01*
X42819Y126463D01*
X42873Y126569D01*
X42882Y126608D01*
X42898Y126646D01*
X42917Y126763D01*
X42943Y126879D01*
X42941Y126920D01*
X42948Y126960D01*
X42937Y127078D01*
X42933Y127197D01*
X42922Y127236D01*
X42918Y127276D01*
X42878Y127388D01*
X42844Y127503D01*
X42824Y127538D01*
X42810Y127576D01*
X42743Y127674D01*
X42683Y127777D01*
X42643Y127822D01*
X42632Y127839D01*
X42616Y127852D01*
X42577Y127898D01*
X42017Y128457D01*
X42017Y135543D01*
X42217Y135743D01*
X42290Y135837D01*
X42369Y135927D01*
X42387Y135963D01*
X42412Y135995D01*
X42460Y136104D01*
X42514Y136210D01*
X42523Y136249D01*
X42539Y136286D01*
X42557Y136404D01*
X42583Y136520D01*
X42582Y136560D01*
X42588Y136601D01*
X42577Y136719D01*
X42574Y136838D01*
X42562Y136877D01*
X42559Y136917D01*
X42518Y137029D01*
X42485Y137144D01*
X42465Y137178D01*
X42451Y137216D01*
X42384Y137315D01*
X42324Y137418D01*
X42284Y137463D01*
X42272Y137480D01*
X42257Y137493D01*
X42217Y137538D01*
X42119Y137637D01*
X41717Y138332D01*
X41509Y139108D01*
X41509Y140501D01*
X50570Y140501D01*
X50688Y140516D01*
X50807Y140523D01*
X50845Y140535D01*
X50885Y140541D01*
X50996Y140584D01*
X51109Y140621D01*
X51143Y140643D01*
X51181Y140658D01*
X51277Y140727D01*
X51378Y140791D01*
X51406Y140821D01*
X51438Y140844D01*
X51514Y140936D01*
X51596Y141023D01*
X51615Y141058D01*
X51641Y141089D01*
X51661Y141133D01*
X51737Y141188D01*
X51838Y141251D01*
X51866Y141281D01*
X51899Y141305D01*
X51975Y141396D01*
X52056Y141483D01*
X52076Y141518D01*
X52101Y141550D01*
X52152Y141657D01*
X52210Y141762D01*
X52220Y141801D01*
X52237Y141837D01*
X52259Y141954D01*
X52289Y142070D01*
X52293Y142130D01*
X52297Y142150D01*
X52295Y142170D01*
X52299Y142230D01*
X52299Y147541D01*
X57442Y147541D01*
X58218Y147333D01*
X58913Y146931D01*
X59481Y146363D01*
X59909Y145623D01*
X59997Y145506D01*
X60082Y145389D01*
X60093Y145380D01*
X60101Y145369D01*
X60215Y145279D01*
X60327Y145186D01*
X60340Y145180D01*
X60350Y145172D01*
X60483Y145112D01*
X60615Y145050D01*
X60628Y145048D01*
X60641Y145042D01*
X60785Y145018D01*
X60928Y144990D01*
X60941Y144991D01*
X60954Y144989D01*
X61100Y145001D01*
X61245Y145010D01*
X61258Y145014D01*
X61271Y145015D01*
X61409Y145063D01*
X61547Y145108D01*
X61559Y145115D01*
X61572Y145120D01*
X61693Y145200D01*
X61816Y145278D01*
X61825Y145288D01*
X61837Y145296D01*
X61934Y145404D01*
X62034Y145510D01*
X62041Y145522D01*
X62050Y145532D01*
X62117Y145661D01*
X62188Y145788D01*
X62191Y145801D01*
X62197Y145813D01*
X62231Y145956D01*
X62267Y146096D01*
X62268Y146115D01*
X62270Y146123D01*
X62270Y146140D01*
X62277Y146257D01*
X62277Y216710D01*
X62274Y216739D01*
X62276Y216769D01*
X62254Y216896D01*
X62237Y217025D01*
X62227Y217053D01*
X62222Y217082D01*
X62168Y217201D01*
X62120Y217321D01*
X62103Y217345D01*
X62091Y217372D01*
X62010Y217474D01*
X61934Y217579D01*
X61911Y217597D01*
X61892Y217620D01*
X61789Y217699D01*
X61689Y217781D01*
X61662Y217794D01*
X61638Y217812D01*
X61494Y217883D01*
X60779Y218178D01*
X59428Y219529D01*
X58697Y221295D01*
X58697Y223205D01*
X59428Y224971D01*
X60779Y226322D01*
X62545Y227053D01*
X64455Y227053D01*
X66221Y226322D01*
X66921Y225622D01*
X67030Y225537D01*
X67137Y225448D01*
X67156Y225439D01*
X67172Y225427D01*
X67300Y225371D01*
X67425Y225312D01*
X67445Y225308D01*
X67464Y225300D01*
X67602Y225278D01*
X67738Y225252D01*
X67758Y225254D01*
X67778Y225250D01*
X67917Y225264D01*
X68055Y225272D01*
X68074Y225278D01*
X68094Y225280D01*
X68225Y225327D01*
X68357Y225370D01*
X68375Y225381D01*
X68394Y225388D01*
X68508Y225466D01*
X68626Y225540D01*
X68640Y225555D01*
X68657Y225566D01*
X68749Y225670D01*
X68844Y225772D01*
X68854Y225790D01*
X68867Y225805D01*
X68930Y225929D01*
X68998Y226050D01*
X69003Y226070D01*
X69012Y226088D01*
X69042Y226224D01*
X69077Y226358D01*
X69079Y226386D01*
X69082Y226398D01*
X69081Y226419D01*
X69087Y226519D01*
X69087Y229342D01*
X69081Y229392D01*
X69083Y229441D01*
X69061Y229549D01*
X69047Y229658D01*
X69029Y229704D01*
X69019Y229753D01*
X68971Y229851D01*
X68930Y229953D01*
X68901Y229994D01*
X68879Y230038D01*
X68808Y230122D01*
X68744Y230211D01*
X68705Y230243D01*
X68673Y230280D01*
X68583Y230343D01*
X68499Y230414D01*
X68454Y230435D01*
X68413Y230463D01*
X68310Y230502D01*
X68211Y230549D01*
X68162Y230558D01*
X68116Y230576D01*
X68006Y230588D01*
X67899Y230609D01*
X67849Y230606D01*
X67800Y230611D01*
X67691Y230596D01*
X67581Y230589D01*
X67534Y230574D01*
X67485Y230567D01*
X67332Y230515D01*
X65774Y229869D01*
X61226Y229869D01*
X57025Y231609D01*
X53809Y234825D01*
X52069Y239026D01*
X52069Y243574D01*
X53809Y247775D01*
X54819Y248785D01*
X54904Y248894D01*
X54993Y249001D01*
X55002Y249020D01*
X55014Y249036D01*
X55069Y249163D01*
X55128Y249289D01*
X55132Y249309D01*
X55140Y249328D01*
X55162Y249466D01*
X55188Y249602D01*
X55187Y249622D01*
X55190Y249642D01*
X55177Y249781D01*
X55168Y249919D01*
X55162Y249938D01*
X55160Y249958D01*
X55113Y250090D01*
X55070Y250221D01*
X55060Y250239D01*
X55053Y250258D01*
X54975Y250373D01*
X54900Y250490D01*
X54886Y250504D01*
X54874Y250521D01*
X54770Y250613D01*
X54669Y250708D01*
X54651Y250718D01*
X54636Y250731D01*
X54512Y250794D01*
X54390Y250862D01*
X54371Y250867D01*
X54353Y250876D01*
X54217Y250906D01*
X54082Y250941D01*
X54054Y250943D01*
X54042Y250946D01*
X54022Y250945D01*
X53922Y250951D01*
X34316Y250951D01*
X34219Y250939D01*
X34122Y250936D01*
X34062Y250919D01*
X34000Y250911D01*
X33910Y250876D01*
X33816Y250849D01*
X33762Y250817D01*
X33704Y250794D01*
X33626Y250737D01*
X33542Y250688D01*
X33498Y250644D01*
X33447Y250608D01*
X33385Y250532D01*
X33316Y250464D01*
X33284Y250411D01*
X33244Y250363D01*
X33203Y250275D01*
X33153Y250191D01*
X33135Y250131D01*
X33109Y250075D01*
X33091Y249979D01*
X33063Y249886D01*
X33061Y249824D01*
X33049Y249763D01*
X33055Y249665D01*
X33052Y249568D01*
X33065Y249507D01*
X33069Y249445D01*
X33099Y249352D01*
X33120Y249257D01*
X33148Y249202D01*
X33167Y249143D01*
X33219Y249060D01*
X33263Y248973D01*
X33304Y248927D01*
X33337Y248874D01*
X33408Y248807D01*
X33472Y248734D01*
X33523Y248699D01*
X33569Y248656D01*
X33654Y248609D01*
X33734Y248554D01*
X33830Y248512D01*
X33847Y248502D01*
X33858Y248500D01*
X33882Y248489D01*
X36362Y247587D01*
X42195Y242692D01*
X46002Y236098D01*
X47324Y228600D01*
X46002Y221102D01*
X42195Y214508D01*
X36362Y209613D01*
X29207Y207009D01*
X21593Y207009D01*
X14438Y209613D01*
X8605Y214508D01*
X5417Y220030D01*
X5329Y220146D01*
X5244Y220264D01*
X5233Y220272D01*
X5225Y220283D01*
X5111Y220373D01*
X4999Y220467D01*
X4986Y220472D01*
X4976Y220481D01*
X4842Y220540D01*
X4711Y220602D01*
X4698Y220605D01*
X4685Y220610D01*
X4541Y220635D01*
X4398Y220662D01*
X4385Y220661D01*
X4372Y220663D01*
X4226Y220651D01*
X4081Y220642D01*
X4068Y220638D01*
X4055Y220637D01*
X3917Y220589D01*
X3779Y220544D01*
X3767Y220537D01*
X3754Y220532D01*
X3633Y220452D01*
X3510Y220374D01*
X3501Y220364D01*
X3489Y220357D01*
X3392Y220249D01*
X3292Y220142D01*
X3285Y220131D01*
X3276Y220120D01*
X3209Y219991D01*
X3138Y219864D01*
X3135Y219851D01*
X3129Y219839D01*
X3095Y219697D01*
X3059Y219556D01*
X3058Y219538D01*
X3056Y219529D01*
X3056Y219512D01*
X3049Y219395D01*
X3049Y164302D01*
X3064Y164184D01*
X3071Y164065D01*
X3084Y164027D01*
X3089Y163986D01*
X3132Y163876D01*
X3169Y163763D01*
X3191Y163728D01*
X3206Y163691D01*
X3275Y163595D01*
X3339Y163494D01*
X3369Y163466D01*
X3392Y163433D01*
X3484Y163357D01*
X3571Y163276D01*
X3606Y163256D01*
X3637Y163231D01*
X3745Y163180D01*
X3849Y163122D01*
X3889Y163112D01*
X3925Y163095D01*
X4042Y163073D01*
X4157Y163043D01*
X4217Y163039D01*
X4237Y163035D01*
X4258Y163037D01*
X4318Y163033D01*
X24611Y163033D01*
X26083Y161561D01*
X26083Y148439D01*
X24611Y146967D01*
X4318Y146967D01*
X4200Y146952D01*
X4081Y146945D01*
X4043Y146932D01*
X4002Y146927D01*
X3892Y146884D01*
X3779Y146847D01*
X3744Y146825D01*
X3707Y146810D01*
X3611Y146741D01*
X3510Y146677D01*
X3482Y146647D01*
X3449Y146624D01*
X3373Y146532D01*
X3292Y146445D01*
X3272Y146410D01*
X3247Y146379D01*
X3196Y146271D01*
X3138Y146167D01*
X3128Y146127D01*
X3111Y146091D01*
X3089Y145974D01*
X3059Y145859D01*
X3055Y145799D01*
X3051Y145779D01*
X3053Y145758D01*
X3049Y145698D01*
X3049Y108302D01*
X3064Y108184D01*
X3071Y108065D01*
X3084Y108027D01*
X3089Y107986D01*
X3132Y107876D01*
X3169Y107763D01*
X3191Y107728D01*
X3206Y107691D01*
X3275Y107595D01*
X3339Y107494D01*
X3369Y107466D01*
X3392Y107433D01*
X3484Y107357D01*
X3571Y107276D01*
X3606Y107256D01*
X3637Y107231D01*
X3745Y107180D01*
X3849Y107122D01*
X3889Y107112D01*
X3925Y107095D01*
X4042Y107073D01*
X4157Y107043D01*
X4217Y107039D01*
X4237Y107035D01*
X4258Y107037D01*
X4318Y107033D01*
X24611Y107033D01*
X26083Y105561D01*
X26083Y92439D01*
X24611Y90967D01*
X4318Y90967D01*
X4200Y90952D01*
X4081Y90945D01*
X4043Y90932D01*
X4002Y90927D01*
X3892Y90884D01*
X3779Y90847D01*
X3744Y90825D01*
X3707Y90810D01*
X3611Y90741D01*
X3510Y90677D01*
X3482Y90647D01*
X3449Y90624D01*
X3373Y90532D01*
X3292Y90445D01*
X3272Y90410D01*
X3247Y90379D01*
X3196Y90271D01*
X3138Y90167D01*
X3128Y90127D01*
X3111Y90091D01*
X3089Y89974D01*
X3059Y89859D01*
X3055Y89799D01*
X3051Y89779D01*
X3053Y89758D01*
X3049Y89698D01*
X3049Y34605D01*
X3067Y34460D01*
X3082Y34315D01*
X3087Y34303D01*
X3089Y34289D01*
X3142Y34154D01*
X3193Y34017D01*
X3201Y34006D01*
X3206Y33994D01*
X3291Y33876D01*
X3374Y33756D01*
X3385Y33747D01*
X3392Y33736D01*
X3505Y33643D01*
X3615Y33548D01*
X3627Y33542D01*
X3637Y33533D01*
X3769Y33472D01*
X3900Y33406D01*
X3913Y33404D01*
X3925Y33398D01*
X4067Y33371D01*
X4211Y33340D01*
X4224Y33341D01*
X4237Y33338D01*
X4382Y33347D01*
X4528Y33353D01*
X4541Y33357D01*
X4555Y33358D01*
X4693Y33403D01*
X4833Y33445D01*
X4845Y33452D01*
X4857Y33456D01*
X4980Y33534D01*
X5105Y33609D01*
X5115Y33619D01*
X5126Y33626D01*
X5226Y33732D01*
X5328Y33836D01*
X5338Y33851D01*
X5344Y33858D01*
X5352Y33873D01*
X5417Y33970D01*
X8605Y39492D01*
X14438Y44387D01*
X21593Y46991D01*
X29207Y46991D01*
X36362Y44387D01*
X42195Y39492D01*
X46002Y32898D01*
X47324Y25400D01*
X46002Y17902D01*
X42195Y11308D01*
X36362Y6413D01*
X33882Y5511D01*
X33795Y5466D01*
X33704Y5430D01*
X33654Y5394D01*
X33599Y5365D01*
X33526Y5301D01*
X33447Y5244D01*
X33407Y5196D01*
X33361Y5154D01*
X33306Y5074D01*
X33244Y4999D01*
X33218Y4942D01*
X33183Y4891D01*
X33150Y4799D01*
X33109Y4711D01*
X33097Y4650D01*
X33076Y4591D01*
X33067Y4494D01*
X33049Y4398D01*
X33053Y4336D01*
X33047Y4274D01*
X33063Y4178D01*
X33069Y4081D01*
X33088Y4022D01*
X33098Y3960D01*
X33137Y3871D01*
X33167Y3779D01*
X33200Y3726D01*
X33225Y3669D01*
X33285Y3592D01*
X33337Y3510D01*
X33382Y3467D01*
X33421Y3418D01*
X33498Y3359D01*
X33569Y3292D01*
X33623Y3262D01*
X33672Y3224D01*
X33762Y3185D01*
X33847Y3138D01*
X33907Y3123D01*
X33965Y3098D01*
X34061Y3083D01*
X34155Y3059D01*
X34259Y3052D01*
X34279Y3049D01*
X34290Y3050D01*
X34316Y3049D01*
X53264Y3049D01*
X53303Y3054D01*
G37*
G36*
X155660Y3066D02*
X155660Y3066D01*
X155798Y3079D01*
X155817Y3086D01*
X155837Y3089D01*
X155966Y3140D01*
X156097Y3187D01*
X156114Y3198D01*
X156133Y3206D01*
X156245Y3287D01*
X156360Y3365D01*
X156374Y3381D01*
X156390Y3392D01*
X156479Y3500D01*
X156571Y3604D01*
X156580Y3622D01*
X156593Y3637D01*
X156652Y3763D01*
X156715Y3887D01*
X156720Y3907D01*
X156728Y3925D01*
X156755Y4062D01*
X156785Y4197D01*
X156784Y4218D01*
X156788Y4237D01*
X156780Y4376D01*
X156775Y4515D01*
X156770Y4535D01*
X156768Y4555D01*
X156726Y4687D01*
X156687Y4821D01*
X156677Y4838D01*
X156670Y4857D01*
X156596Y4975D01*
X156525Y5095D01*
X156507Y5116D01*
X156500Y5126D01*
X156485Y5140D01*
X156419Y5215D01*
X155409Y6225D01*
X153669Y10426D01*
X153669Y14974D01*
X155409Y19175D01*
X158625Y22391D01*
X160570Y23196D01*
X160613Y23221D01*
X160660Y23238D01*
X160751Y23299D01*
X160846Y23354D01*
X160882Y23388D01*
X160923Y23416D01*
X160996Y23498D01*
X161075Y23575D01*
X161101Y23617D01*
X161134Y23655D01*
X161183Y23752D01*
X161241Y23846D01*
X161255Y23894D01*
X161278Y23938D01*
X161302Y24045D01*
X161334Y24150D01*
X161337Y24200D01*
X161348Y24248D01*
X161344Y24358D01*
X161350Y24468D01*
X161340Y24516D01*
X161338Y24566D01*
X161308Y24672D01*
X161285Y24779D01*
X161263Y24824D01*
X161250Y24872D01*
X161194Y24966D01*
X161146Y25065D01*
X161113Y25103D01*
X161088Y25146D01*
X161033Y25208D01*
X160297Y26985D01*
X160297Y28895D01*
X161028Y30661D01*
X162379Y32012D01*
X164145Y32743D01*
X166055Y32743D01*
X167821Y32012D01*
X169172Y30661D01*
X169903Y28895D01*
X169903Y26985D01*
X169167Y25208D01*
X169151Y25194D01*
X169091Y25102D01*
X169023Y25015D01*
X169004Y24969D01*
X168976Y24928D01*
X168941Y24824D01*
X168897Y24723D01*
X168889Y24674D01*
X168873Y24627D01*
X168864Y24517D01*
X168847Y24409D01*
X168852Y24360D01*
X168848Y24310D01*
X168867Y24202D01*
X168877Y24093D01*
X168894Y24046D01*
X168902Y23997D01*
X168947Y23897D01*
X168985Y23793D01*
X169012Y23752D01*
X169033Y23707D01*
X169101Y23621D01*
X169163Y23530D01*
X169200Y23497D01*
X169231Y23458D01*
X169319Y23392D01*
X169401Y23320D01*
X169446Y23297D01*
X169486Y23267D01*
X169630Y23196D01*
X171575Y22391D01*
X174791Y19175D01*
X176531Y14974D01*
X176531Y10426D01*
X174791Y6225D01*
X173781Y5215D01*
X173696Y5106D01*
X173607Y4999D01*
X173598Y4980D01*
X173586Y4964D01*
X173531Y4837D01*
X173472Y4711D01*
X173468Y4691D01*
X173460Y4672D01*
X173438Y4534D01*
X173412Y4398D01*
X173413Y4378D01*
X173410Y4358D01*
X173423Y4219D01*
X173432Y4081D01*
X173438Y4062D01*
X173440Y4042D01*
X173487Y3910D01*
X173530Y3779D01*
X173540Y3761D01*
X173547Y3742D01*
X173625Y3627D01*
X173700Y3510D01*
X173714Y3496D01*
X173726Y3479D01*
X173830Y3387D01*
X173931Y3292D01*
X173949Y3282D01*
X173964Y3269D01*
X174088Y3206D01*
X174210Y3138D01*
X174229Y3133D01*
X174247Y3124D01*
X174383Y3094D01*
X174518Y3059D01*
X174546Y3057D01*
X174558Y3054D01*
X174578Y3055D01*
X174678Y3049D01*
X180922Y3049D01*
X181060Y3066D01*
X181198Y3079D01*
X181217Y3086D01*
X181237Y3089D01*
X181366Y3140D01*
X181497Y3187D01*
X181514Y3198D01*
X181533Y3206D01*
X181645Y3287D01*
X181760Y3365D01*
X181774Y3381D01*
X181790Y3392D01*
X181879Y3500D01*
X181971Y3604D01*
X181980Y3622D01*
X181993Y3637D01*
X182052Y3763D01*
X182115Y3887D01*
X182120Y3907D01*
X182128Y3925D01*
X182155Y4062D01*
X182185Y4197D01*
X182184Y4218D01*
X182188Y4237D01*
X182180Y4376D01*
X182175Y4515D01*
X182170Y4535D01*
X182168Y4555D01*
X182126Y4687D01*
X182087Y4821D01*
X182077Y4838D01*
X182070Y4857D01*
X181996Y4975D01*
X181925Y5095D01*
X181907Y5116D01*
X181900Y5126D01*
X181885Y5140D01*
X181819Y5215D01*
X180809Y6225D01*
X179069Y10426D01*
X179069Y14974D01*
X180809Y19175D01*
X183016Y21381D01*
X183076Y21459D01*
X183144Y21531D01*
X183173Y21584D01*
X183210Y21632D01*
X183250Y21723D01*
X183298Y21810D01*
X183313Y21868D01*
X183337Y21924D01*
X183352Y22022D01*
X183377Y22118D01*
X183383Y22218D01*
X183387Y22238D01*
X183385Y22251D01*
X183387Y22279D01*
X183387Y46785D01*
X183375Y46883D01*
X183372Y46982D01*
X183355Y47040D01*
X183347Y47100D01*
X183311Y47193D01*
X183283Y47288D01*
X183253Y47340D01*
X183230Y47396D01*
X183172Y47476D01*
X183122Y47562D01*
X183056Y47637D01*
X183044Y47653D01*
X183034Y47661D01*
X183016Y47682D01*
X182618Y48079D01*
X181887Y49845D01*
X181887Y51755D01*
X182618Y53521D01*
X183969Y54872D01*
X185735Y55603D01*
X187645Y55603D01*
X189411Y54872D01*
X190762Y53521D01*
X191493Y51755D01*
X191493Y49845D01*
X190762Y48079D01*
X190364Y47682D01*
X190304Y47604D01*
X190236Y47532D01*
X190207Y47479D01*
X190170Y47431D01*
X190130Y47340D01*
X190082Y47254D01*
X190067Y47195D01*
X190043Y47139D01*
X190028Y47041D01*
X190003Y46946D01*
X189997Y46846D01*
X189993Y46825D01*
X189995Y46813D01*
X189993Y46785D01*
X189993Y25400D01*
X190008Y25282D01*
X190015Y25163D01*
X190028Y25125D01*
X190033Y25084D01*
X190076Y24974D01*
X190113Y24861D01*
X190135Y24826D01*
X190150Y24789D01*
X190219Y24693D01*
X190283Y24592D01*
X190313Y24564D01*
X190336Y24531D01*
X190428Y24455D01*
X190515Y24374D01*
X190550Y24354D01*
X190581Y24329D01*
X190689Y24278D01*
X190793Y24220D01*
X190833Y24210D01*
X190869Y24193D01*
X190986Y24171D01*
X191101Y24141D01*
X191161Y24137D01*
X191181Y24133D01*
X191202Y24135D01*
X191262Y24131D01*
X192774Y24131D01*
X196975Y22391D01*
X200191Y19175D01*
X201931Y14974D01*
X201931Y10426D01*
X200191Y6225D01*
X199181Y5215D01*
X199096Y5106D01*
X199007Y4999D01*
X198998Y4980D01*
X198986Y4964D01*
X198931Y4837D01*
X198872Y4711D01*
X198868Y4691D01*
X198860Y4672D01*
X198838Y4534D01*
X198812Y4398D01*
X198813Y4378D01*
X198810Y4358D01*
X198823Y4219D01*
X198832Y4081D01*
X198838Y4062D01*
X198840Y4042D01*
X198887Y3910D01*
X198930Y3779D01*
X198940Y3761D01*
X198947Y3742D01*
X199025Y3627D01*
X199100Y3510D01*
X199114Y3496D01*
X199126Y3479D01*
X199230Y3387D01*
X199331Y3292D01*
X199349Y3282D01*
X199364Y3269D01*
X199488Y3206D01*
X199610Y3138D01*
X199629Y3133D01*
X199647Y3124D01*
X199783Y3094D01*
X199918Y3059D01*
X199946Y3057D01*
X199958Y3054D01*
X199978Y3055D01*
X200078Y3049D01*
X219684Y3049D01*
X219781Y3061D01*
X219878Y3064D01*
X219938Y3081D01*
X220000Y3089D01*
X220090Y3124D01*
X220184Y3151D01*
X220238Y3183D01*
X220296Y3206D01*
X220374Y3263D01*
X220458Y3312D01*
X220502Y3356D01*
X220553Y3392D01*
X220615Y3468D01*
X220684Y3536D01*
X220716Y3589D01*
X220756Y3637D01*
X220797Y3725D01*
X220847Y3809D01*
X220865Y3869D01*
X220891Y3925D01*
X220909Y4021D01*
X220937Y4114D01*
X220939Y4176D01*
X220951Y4237D01*
X220945Y4335D01*
X220948Y4432D01*
X220935Y4493D01*
X220931Y4555D01*
X220901Y4648D01*
X220880Y4743D01*
X220852Y4798D01*
X220833Y4857D01*
X220781Y4940D01*
X220737Y5027D01*
X220696Y5073D01*
X220663Y5126D01*
X220592Y5193D01*
X220528Y5266D01*
X220477Y5301D01*
X220431Y5344D01*
X220346Y5391D01*
X220266Y5446D01*
X220170Y5488D01*
X220153Y5498D01*
X220142Y5500D01*
X220118Y5511D01*
X217638Y6413D01*
X211805Y11308D01*
X207998Y17902D01*
X206676Y25400D01*
X207998Y32898D01*
X211805Y39492D01*
X217638Y44387D01*
X224793Y46991D01*
X232407Y46991D01*
X239562Y44387D01*
X245395Y39492D01*
X248583Y33970D01*
X248671Y33854D01*
X248756Y33736D01*
X248767Y33728D01*
X248775Y33717D01*
X248889Y33627D01*
X249001Y33533D01*
X249014Y33528D01*
X249024Y33519D01*
X249158Y33460D01*
X249289Y33398D01*
X249302Y33395D01*
X249315Y33390D01*
X249459Y33365D01*
X249602Y33338D01*
X249615Y33339D01*
X249628Y33337D01*
X249774Y33349D01*
X249919Y33358D01*
X249932Y33362D01*
X249945Y33363D01*
X250083Y33411D01*
X250221Y33456D01*
X250233Y33463D01*
X250246Y33468D01*
X250367Y33548D01*
X250490Y33626D01*
X250499Y33636D01*
X250511Y33643D01*
X250608Y33751D01*
X250708Y33858D01*
X250715Y33870D01*
X250724Y33880D01*
X250791Y34008D01*
X250862Y34136D01*
X250865Y34149D01*
X250871Y34161D01*
X250905Y34303D01*
X250941Y34444D01*
X250942Y34462D01*
X250944Y34471D01*
X250944Y34488D01*
X250951Y34605D01*
X250951Y89698D01*
X250936Y89816D01*
X250929Y89935D01*
X250916Y89973D01*
X250911Y90014D01*
X250868Y90124D01*
X250831Y90237D01*
X250809Y90272D01*
X250794Y90309D01*
X250725Y90405D01*
X250661Y90506D01*
X250631Y90534D01*
X250608Y90567D01*
X250516Y90643D01*
X250429Y90724D01*
X250394Y90744D01*
X250363Y90769D01*
X250255Y90820D01*
X250151Y90878D01*
X250111Y90888D01*
X250075Y90905D01*
X249958Y90927D01*
X249843Y90957D01*
X249783Y90961D01*
X249763Y90965D01*
X249742Y90963D01*
X249682Y90967D01*
X229135Y90967D01*
X227663Y92439D01*
X227663Y105561D01*
X229135Y107033D01*
X249682Y107033D01*
X249800Y107048D01*
X249919Y107055D01*
X249957Y107068D01*
X249998Y107073D01*
X250108Y107116D01*
X250221Y107153D01*
X250256Y107175D01*
X250293Y107190D01*
X250389Y107259D01*
X250490Y107323D01*
X250518Y107353D01*
X250551Y107376D01*
X250627Y107468D01*
X250708Y107555D01*
X250728Y107590D01*
X250753Y107621D01*
X250804Y107729D01*
X250862Y107833D01*
X250872Y107873D01*
X250889Y107909D01*
X250911Y108026D01*
X250941Y108141D01*
X250945Y108201D01*
X250949Y108221D01*
X250947Y108242D01*
X250951Y108302D01*
X250951Y145698D01*
X250936Y145816D01*
X250929Y145935D01*
X250916Y145973D01*
X250911Y146014D01*
X250868Y146124D01*
X250831Y146237D01*
X250809Y146272D01*
X250794Y146309D01*
X250725Y146405D01*
X250661Y146506D01*
X250631Y146534D01*
X250608Y146567D01*
X250516Y146643D01*
X250429Y146724D01*
X250394Y146744D01*
X250363Y146769D01*
X250255Y146820D01*
X250151Y146878D01*
X250111Y146888D01*
X250075Y146905D01*
X249958Y146927D01*
X249843Y146957D01*
X249783Y146961D01*
X249763Y146965D01*
X249742Y146963D01*
X249682Y146967D01*
X229135Y146967D01*
X227663Y148439D01*
X227663Y161561D01*
X227735Y161632D01*
X227820Y161742D01*
X227909Y161849D01*
X227918Y161868D01*
X227930Y161884D01*
X227985Y162011D01*
X228044Y162137D01*
X228048Y162157D01*
X228056Y162176D01*
X228078Y162313D01*
X228104Y162450D01*
X228103Y162470D01*
X228106Y162490D01*
X228093Y162629D01*
X228084Y162767D01*
X228078Y162786D01*
X228076Y162806D01*
X228029Y162938D01*
X227986Y163069D01*
X227976Y163086D01*
X227969Y163106D01*
X227891Y163221D01*
X227816Y163338D01*
X227802Y163352D01*
X227790Y163369D01*
X227686Y163461D01*
X227585Y163556D01*
X227567Y163566D01*
X227552Y163579D01*
X227428Y163643D01*
X227306Y163710D01*
X227287Y163715D01*
X227269Y163724D01*
X227132Y163754D01*
X226998Y163789D01*
X226970Y163791D01*
X226958Y163794D01*
X226938Y163793D01*
X226838Y163799D01*
X222543Y163799D01*
X221059Y165283D01*
X221059Y177381D01*
X222613Y178934D01*
X222686Y179029D01*
X222764Y179118D01*
X222783Y179154D01*
X222808Y179186D01*
X222855Y179295D01*
X222909Y179401D01*
X222918Y179440D01*
X222934Y179478D01*
X222953Y179595D01*
X222979Y179711D01*
X222977Y179752D01*
X222984Y179792D01*
X222973Y179910D01*
X222969Y180029D01*
X222958Y180068D01*
X222954Y180108D01*
X222914Y180221D01*
X222881Y180335D01*
X222860Y180369D01*
X222846Y180408D01*
X222780Y180506D01*
X222719Y180609D01*
X222679Y180654D01*
X222668Y180671D01*
X222653Y180684D01*
X222613Y180729D01*
X221059Y182283D01*
X221059Y182998D01*
X221044Y183116D01*
X221037Y183235D01*
X221024Y183273D01*
X221019Y183314D01*
X220976Y183424D01*
X220939Y183537D01*
X220917Y183572D01*
X220902Y183609D01*
X220833Y183705D01*
X220769Y183806D01*
X220739Y183834D01*
X220716Y183867D01*
X220624Y183943D01*
X220537Y184024D01*
X220502Y184044D01*
X220471Y184069D01*
X220363Y184120D01*
X220259Y184178D01*
X220219Y184188D01*
X220183Y184205D01*
X220066Y184227D01*
X219951Y184257D01*
X219891Y184261D01*
X219871Y184265D01*
X219850Y184263D01*
X219790Y184267D01*
X215941Y184267D01*
X215843Y184255D01*
X215744Y184252D01*
X215686Y184235D01*
X215626Y184227D01*
X215534Y184191D01*
X215439Y184163D01*
X215387Y184133D01*
X215330Y184110D01*
X215250Y184052D01*
X215165Y184002D01*
X215089Y183936D01*
X215073Y183924D01*
X215065Y183914D01*
X215044Y183896D01*
X204131Y172982D01*
X204058Y172888D01*
X203979Y172799D01*
X203961Y172763D01*
X203936Y172731D01*
X203889Y172622D01*
X203835Y172516D01*
X203826Y172477D01*
X203810Y172439D01*
X203791Y172322D01*
X203765Y172206D01*
X203766Y172165D01*
X203760Y172125D01*
X203771Y172007D01*
X203775Y171888D01*
X203786Y171849D01*
X203790Y171809D01*
X203830Y171696D01*
X203863Y171582D01*
X203883Y171547D01*
X203897Y171509D01*
X203964Y171411D01*
X204025Y171308D01*
X204064Y171263D01*
X204076Y171246D01*
X204091Y171233D01*
X204131Y171187D01*
X218695Y156624D01*
X218695Y156151D01*
X218696Y156142D01*
X218695Y156133D01*
X218716Y155984D01*
X218735Y155836D01*
X218738Y155827D01*
X218739Y155818D01*
X218791Y155666D01*
X219433Y154117D01*
X219433Y152207D01*
X218702Y150441D01*
X217351Y149090D01*
X215585Y148359D01*
X213675Y148359D01*
X211909Y149090D01*
X210558Y150441D01*
X209827Y152207D01*
X209827Y153469D01*
X209815Y153567D01*
X209812Y153666D01*
X209795Y153724D01*
X209787Y153784D01*
X209751Y153876D01*
X209723Y153971D01*
X209693Y154023D01*
X209670Y154080D01*
X209612Y154160D01*
X209562Y154245D01*
X209496Y154321D01*
X209484Y154337D01*
X209474Y154345D01*
X209456Y154366D01*
X198383Y165439D01*
X198288Y165512D01*
X198199Y165591D01*
X198163Y165609D01*
X198131Y165634D01*
X198022Y165681D01*
X197916Y165735D01*
X197877Y165744D01*
X197839Y165760D01*
X197722Y165779D01*
X197606Y165805D01*
X197565Y165804D01*
X197525Y165810D01*
X197407Y165799D01*
X197288Y165795D01*
X197249Y165784D01*
X197209Y165780D01*
X197096Y165740D01*
X196982Y165707D01*
X196948Y165687D01*
X196909Y165673D01*
X196811Y165606D01*
X196708Y165546D01*
X196663Y165506D01*
X196646Y165494D01*
X196633Y165479D01*
X196588Y165439D01*
X192184Y161035D01*
X180095Y161035D01*
X179957Y161018D01*
X179818Y161005D01*
X179799Y160998D01*
X179779Y160995D01*
X179650Y160944D01*
X179519Y160897D01*
X179502Y160886D01*
X179484Y160878D01*
X179371Y160797D01*
X179256Y160719D01*
X179243Y160703D01*
X179226Y160692D01*
X179137Y160584D01*
X179046Y160480D01*
X179036Y160462D01*
X179023Y160447D01*
X178964Y160321D01*
X178901Y160197D01*
X178896Y160177D01*
X178888Y160159D01*
X178862Y160022D01*
X178831Y159887D01*
X178832Y159866D01*
X178828Y159847D01*
X178837Y159708D01*
X178841Y159569D01*
X178847Y159549D01*
X178848Y159529D01*
X178891Y159397D01*
X178929Y159263D01*
X178940Y159246D01*
X178946Y159227D01*
X179020Y159109D01*
X179091Y158989D01*
X179109Y158968D01*
X179116Y158958D01*
X179131Y158944D01*
X179197Y158869D01*
X179753Y158313D01*
X179753Y146215D01*
X178199Y144661D01*
X178126Y144567D01*
X178048Y144478D01*
X178029Y144442D01*
X178004Y144410D01*
X177957Y144301D01*
X177903Y144195D01*
X177894Y144156D01*
X177878Y144118D01*
X177859Y144001D01*
X177833Y143885D01*
X177835Y143844D01*
X177828Y143804D01*
X177839Y143686D01*
X177843Y143567D01*
X177854Y143528D01*
X177858Y143488D01*
X177898Y143376D01*
X177931Y143261D01*
X177952Y143226D01*
X177966Y143188D01*
X178033Y143090D01*
X178093Y142987D01*
X178133Y142942D01*
X178144Y142925D01*
X178159Y142912D01*
X178199Y142866D01*
X179753Y141313D01*
X179753Y140841D01*
X179770Y140703D01*
X179783Y140565D01*
X179790Y140546D01*
X179793Y140526D01*
X179844Y140396D01*
X179891Y140265D01*
X179902Y140249D01*
X179910Y140230D01*
X179991Y140118D01*
X180069Y140002D01*
X180085Y139989D01*
X180096Y139972D01*
X180203Y139884D01*
X180308Y139792D01*
X180326Y139783D01*
X180341Y139770D01*
X180467Y139711D01*
X180591Y139647D01*
X180611Y139643D01*
X180629Y139634D01*
X180765Y139608D01*
X180901Y139578D01*
X180922Y139578D01*
X180941Y139574D01*
X181080Y139583D01*
X181219Y139587D01*
X181239Y139593D01*
X181259Y139594D01*
X181391Y139637D01*
X181525Y139676D01*
X181542Y139686D01*
X181561Y139692D01*
X181679Y139766D01*
X181799Y139837D01*
X181820Y139856D01*
X181830Y139862D01*
X181844Y139877D01*
X181920Y139944D01*
X182192Y140216D01*
X183957Y140947D01*
X185867Y140947D01*
X187633Y140216D01*
X188984Y138865D01*
X189715Y137099D01*
X189715Y136572D01*
X189730Y136454D01*
X189737Y136335D01*
X189750Y136297D01*
X189755Y136256D01*
X189798Y136146D01*
X189835Y136033D01*
X189857Y135998D01*
X189872Y135961D01*
X189941Y135865D01*
X190005Y135764D01*
X190035Y135736D01*
X190058Y135703D01*
X190150Y135627D01*
X190237Y135546D01*
X190272Y135526D01*
X190303Y135501D01*
X190411Y135450D01*
X190515Y135392D01*
X190555Y135382D01*
X190591Y135365D01*
X190708Y135343D01*
X190823Y135313D01*
X190883Y135309D01*
X190903Y135305D01*
X190924Y135307D01*
X190984Y135303D01*
X193397Y135303D01*
X193495Y135315D01*
X193594Y135318D01*
X193652Y135335D01*
X193713Y135343D01*
X193805Y135379D01*
X193900Y135407D01*
X193952Y135437D01*
X194008Y135460D01*
X194088Y135518D01*
X194174Y135568D01*
X194249Y135634D01*
X194266Y135646D01*
X194273Y135656D01*
X194294Y135674D01*
X194723Y136102D01*
X194796Y136197D01*
X194874Y136286D01*
X194893Y136322D01*
X194917Y136354D01*
X194965Y136463D01*
X195019Y136569D01*
X195028Y136609D01*
X195044Y136646D01*
X195062Y136763D01*
X195089Y136879D01*
X195087Y136920D01*
X195094Y136960D01*
X195083Y137078D01*
X195079Y137197D01*
X195068Y137236D01*
X195064Y137276D01*
X195024Y137389D01*
X194990Y137503D01*
X194970Y137537D01*
X194956Y137576D01*
X194889Y137674D01*
X194829Y137777D01*
X194789Y137822D01*
X194778Y137839D01*
X194762Y137852D01*
X194723Y137897D01*
X194163Y138457D01*
X194163Y145543D01*
X195653Y147033D01*
X210239Y147033D01*
X211597Y145674D01*
X211676Y145614D01*
X211748Y145546D01*
X211801Y145517D01*
X211849Y145480D01*
X211940Y145440D01*
X212026Y145392D01*
X212085Y145377D01*
X212141Y145353D01*
X212239Y145338D01*
X212334Y145313D01*
X212434Y145307D01*
X212455Y145303D01*
X212467Y145305D01*
X212495Y145303D01*
X216238Y145303D01*
X224791Y136750D01*
X224791Y94390D01*
X194408Y64007D01*
X143002Y64007D01*
X142884Y63992D01*
X142765Y63985D01*
X142727Y63972D01*
X142686Y63967D01*
X142576Y63924D01*
X142463Y63887D01*
X142428Y63865D01*
X142391Y63850D01*
X142295Y63781D01*
X142194Y63717D01*
X142166Y63687D01*
X142133Y63664D01*
X142057Y63572D01*
X141976Y63485D01*
X141956Y63450D01*
X141931Y63419D01*
X141880Y63311D01*
X141822Y63207D01*
X141812Y63167D01*
X141795Y63131D01*
X141773Y63014D01*
X141743Y62899D01*
X141739Y62839D01*
X141735Y62819D01*
X141737Y62798D01*
X141736Y62787D01*
X141735Y62784D01*
X141735Y62781D01*
X141733Y62738D01*
X141733Y25079D01*
X141736Y25049D01*
X141734Y25020D01*
X141756Y24892D01*
X141773Y24763D01*
X141783Y24736D01*
X141788Y24707D01*
X141842Y24588D01*
X141890Y24467D01*
X141907Y24444D01*
X141919Y24417D01*
X142000Y24315D01*
X142076Y24210D01*
X142099Y24191D01*
X142118Y24168D01*
X142221Y24090D01*
X142321Y24007D01*
X142348Y23995D01*
X142372Y23977D01*
X142516Y23906D01*
X146175Y22391D01*
X149391Y19175D01*
X151131Y14974D01*
X151131Y10426D01*
X149391Y6225D01*
X148381Y5215D01*
X148296Y5106D01*
X148207Y4999D01*
X148198Y4980D01*
X148186Y4964D01*
X148131Y4837D01*
X148072Y4711D01*
X148068Y4691D01*
X148060Y4672D01*
X148038Y4534D01*
X148012Y4398D01*
X148013Y4378D01*
X148010Y4358D01*
X148023Y4219D01*
X148032Y4081D01*
X148038Y4062D01*
X148040Y4042D01*
X148087Y3910D01*
X148130Y3779D01*
X148140Y3761D01*
X148147Y3742D01*
X148225Y3627D01*
X148300Y3510D01*
X148314Y3496D01*
X148326Y3479D01*
X148430Y3387D01*
X148531Y3292D01*
X148549Y3282D01*
X148564Y3269D01*
X148688Y3206D01*
X148810Y3138D01*
X148829Y3133D01*
X148847Y3124D01*
X148983Y3094D01*
X149118Y3059D01*
X149146Y3057D01*
X149158Y3054D01*
X149178Y3055D01*
X149278Y3049D01*
X155522Y3049D01*
X155660Y3066D01*
G37*
G36*
X88233Y136077D02*
X88233Y136077D01*
X88332Y136080D01*
X88390Y136097D01*
X88450Y136105D01*
X88542Y136141D01*
X88637Y136169D01*
X88689Y136199D01*
X88746Y136222D01*
X88826Y136280D01*
X88911Y136330D01*
X88987Y136396D01*
X89003Y136408D01*
X89011Y136418D01*
X89032Y136436D01*
X89243Y136647D01*
X89303Y136725D01*
X89371Y136797D01*
X89400Y136850D01*
X89437Y136898D01*
X89477Y136989D01*
X89525Y137076D01*
X89540Y137134D01*
X89564Y137190D01*
X89579Y137288D01*
X89604Y137384D01*
X89610Y137484D01*
X89614Y137504D01*
X89612Y137516D01*
X89614Y137544D01*
X89614Y143599D01*
X90918Y144903D01*
X90996Y145003D01*
X91078Y145098D01*
X91093Y145128D01*
X91113Y145155D01*
X91163Y145270D01*
X91219Y145382D01*
X91226Y145415D01*
X91240Y145446D01*
X91259Y145571D01*
X91286Y145693D01*
X91284Y145727D01*
X91290Y145760D01*
X91278Y145886D01*
X91273Y146011D01*
X91263Y146044D01*
X91260Y146077D01*
X91217Y146195D01*
X91181Y146316D01*
X91164Y146345D01*
X91152Y146376D01*
X91082Y146480D01*
X91017Y146588D01*
X90993Y146612D01*
X90974Y146639D01*
X90879Y146723D01*
X90790Y146811D01*
X90749Y146838D01*
X90735Y146850D01*
X90716Y146860D01*
X90656Y146900D01*
X90280Y147117D01*
X89714Y147683D01*
X89313Y148376D01*
X89106Y149150D01*
X89106Y152051D01*
X95417Y152051D01*
X95535Y152066D01*
X95654Y152073D01*
X95692Y152085D01*
X95732Y152091D01*
X95843Y152134D01*
X95956Y152171D01*
X95990Y152193D01*
X96028Y152208D01*
X96124Y152277D01*
X96225Y152341D01*
X96253Y152371D01*
X96285Y152394D01*
X96361Y152486D01*
X96443Y152573D01*
X96462Y152608D01*
X96488Y152639D01*
X96539Y152747D01*
X96596Y152851D01*
X96606Y152891D01*
X96624Y152927D01*
X96644Y153034D01*
X96648Y153004D01*
X96692Y152894D01*
X96728Y152781D01*
X96750Y152746D01*
X96765Y152709D01*
X96835Y152612D01*
X96898Y152512D01*
X96928Y152484D01*
X96952Y152451D01*
X97043Y152375D01*
X97130Y152294D01*
X97165Y152274D01*
X97197Y152249D01*
X97304Y152198D01*
X97409Y152140D01*
X97448Y152130D01*
X97484Y152113D01*
X97601Y152091D01*
X97717Y152061D01*
X97777Y152057D01*
X97797Y152053D01*
X97817Y152055D01*
X97877Y152051D01*
X104188Y152051D01*
X104188Y149150D01*
X103981Y148376D01*
X103580Y147683D01*
X103014Y147117D01*
X102638Y146900D01*
X102538Y146824D01*
X102434Y146753D01*
X102412Y146728D01*
X102385Y146708D01*
X102307Y146609D01*
X102224Y146515D01*
X102208Y146485D01*
X102188Y146458D01*
X102136Y146343D01*
X102079Y146232D01*
X102072Y146199D01*
X102058Y146168D01*
X102037Y146044D01*
X102010Y145921D01*
X102011Y145888D01*
X102005Y145854D01*
X102015Y145729D01*
X102019Y145603D01*
X102029Y145571D01*
X102031Y145538D01*
X102073Y145419D01*
X102108Y145298D01*
X102125Y145269D01*
X102136Y145237D01*
X102205Y145132D01*
X102269Y145024D01*
X102301Y144987D01*
X102312Y144972D01*
X102328Y144958D01*
X102376Y144903D01*
X103680Y143599D01*
X103680Y139834D01*
X103695Y139716D01*
X103702Y139597D01*
X103715Y139559D01*
X103720Y139518D01*
X103763Y139408D01*
X103800Y139295D01*
X103822Y139260D01*
X103837Y139223D01*
X103906Y139127D01*
X103970Y139026D01*
X104000Y138998D01*
X104023Y138965D01*
X104115Y138889D01*
X104202Y138808D01*
X104237Y138788D01*
X104268Y138763D01*
X104376Y138712D01*
X104480Y138654D01*
X104520Y138644D01*
X104556Y138627D01*
X104673Y138605D01*
X104788Y138575D01*
X104848Y138571D01*
X104868Y138567D01*
X104889Y138569D01*
X104949Y138565D01*
X116791Y138565D01*
X116902Y138579D01*
X117014Y138585D01*
X117059Y138599D01*
X117106Y138605D01*
X117211Y138646D01*
X117318Y138679D01*
X117358Y138704D01*
X117402Y138722D01*
X117493Y138788D01*
X117588Y138847D01*
X117621Y138881D01*
X117659Y138908D01*
X117731Y138995D01*
X117809Y139076D01*
X117832Y139117D01*
X117862Y139153D01*
X117910Y139255D01*
X117965Y139353D01*
X117988Y139422D01*
X117997Y139441D01*
X118001Y139459D01*
X118017Y139505D01*
X118167Y140068D01*
X118569Y140763D01*
X119137Y141331D01*
X119832Y141733D01*
X120608Y141941D01*
X120731Y141941D01*
X120731Y140584D01*
X120732Y140573D01*
X120731Y140561D01*
X120752Y140416D01*
X120770Y140269D01*
X120775Y140258D01*
X120776Y140247D01*
X120833Y140110D01*
X120887Y139973D01*
X120894Y139964D01*
X120899Y139953D01*
X120988Y139834D01*
X121074Y139716D01*
X121083Y139708D01*
X121090Y139699D01*
X121206Y139607D01*
X121319Y139513D01*
X121330Y139508D01*
X121339Y139501D01*
X121474Y139440D01*
X121607Y139377D01*
X121618Y139375D01*
X121629Y139370D01*
X121775Y139345D01*
X121919Y139317D01*
X121931Y139318D01*
X121942Y139316D01*
X122090Y139328D01*
X122237Y139337D01*
X122248Y139341D01*
X122259Y139342D01*
X122400Y139390D01*
X122539Y139435D01*
X122549Y139441D01*
X122560Y139445D01*
X122683Y139526D01*
X122808Y139605D01*
X122816Y139614D01*
X122825Y139620D01*
X122924Y139729D01*
X123026Y139837D01*
X123031Y139847D01*
X123039Y139855D01*
X123123Y139993D01*
X123123Y139994D01*
X123147Y140057D01*
X123177Y140111D01*
X123180Y140116D01*
X123203Y140205D01*
X123235Y140291D01*
X123242Y140359D01*
X123259Y140424D01*
X123269Y140585D01*
X123269Y141941D01*
X123392Y141941D01*
X124171Y141732D01*
X124263Y141719D01*
X124353Y141697D01*
X124420Y141698D01*
X124487Y141689D01*
X124578Y141699D01*
X124671Y141700D01*
X124785Y141723D01*
X124802Y141725D01*
X124810Y141728D01*
X124829Y141732D01*
X125608Y141941D01*
X126666Y141941D01*
X126784Y141956D01*
X126903Y141963D01*
X126941Y141976D01*
X126982Y141981D01*
X127092Y142024D01*
X127205Y142061D01*
X127240Y142083D01*
X127277Y142098D01*
X127373Y142167D01*
X127474Y142231D01*
X127502Y142261D01*
X127535Y142284D01*
X127611Y142376D01*
X127692Y142463D01*
X127712Y142498D01*
X127737Y142529D01*
X127788Y142637D01*
X127846Y142741D01*
X127856Y142781D01*
X127873Y142817D01*
X127895Y142934D01*
X127925Y143049D01*
X127929Y143109D01*
X127933Y143129D01*
X127931Y143150D01*
X127935Y143210D01*
X127935Y143844D01*
X129129Y145037D01*
X129202Y145131D01*
X129281Y145221D01*
X129299Y145257D01*
X129324Y145289D01*
X129371Y145398D01*
X129425Y145504D01*
X129434Y145543D01*
X129450Y145580D01*
X129469Y145698D01*
X129495Y145814D01*
X129494Y145854D01*
X129500Y145895D01*
X129489Y146013D01*
X129485Y146132D01*
X129474Y146171D01*
X129470Y146211D01*
X129430Y146323D01*
X129397Y146438D01*
X129376Y146472D01*
X129363Y146510D01*
X129296Y146609D01*
X129235Y146711D01*
X129195Y146757D01*
X129184Y146774D01*
X129169Y146787D01*
X129129Y146832D01*
X128528Y147433D01*
X128428Y147511D01*
X128333Y147593D01*
X128303Y147608D01*
X128276Y147628D01*
X128161Y147678D01*
X128049Y147734D01*
X128016Y147741D01*
X127985Y147755D01*
X127860Y147774D01*
X127738Y147801D01*
X127704Y147799D01*
X127671Y147805D01*
X127545Y147793D01*
X127420Y147788D01*
X127387Y147778D01*
X127354Y147775D01*
X127236Y147732D01*
X127115Y147696D01*
X127086Y147679D01*
X127055Y147667D01*
X126951Y147597D01*
X126843Y147532D01*
X126819Y147508D01*
X126792Y147489D01*
X126708Y147394D01*
X126620Y147305D01*
X126593Y147264D01*
X126581Y147250D01*
X126571Y147231D01*
X126531Y147171D01*
X126314Y146795D01*
X125748Y146229D01*
X125055Y145828D01*
X124281Y145621D01*
X121380Y145621D01*
X121380Y151932D01*
X121365Y152050D01*
X121358Y152169D01*
X121345Y152207D01*
X121340Y152247D01*
X121297Y152358D01*
X121260Y152471D01*
X121238Y152505D01*
X121223Y152543D01*
X121154Y152639D01*
X121090Y152740D01*
X121060Y152768D01*
X121037Y152800D01*
X120945Y152876D01*
X120858Y152958D01*
X120823Y152977D01*
X120792Y153003D01*
X120684Y153054D01*
X120580Y153111D01*
X120540Y153121D01*
X120504Y153139D01*
X120397Y153159D01*
X120427Y153163D01*
X120537Y153207D01*
X120650Y153243D01*
X120685Y153265D01*
X120722Y153280D01*
X120818Y153350D01*
X120919Y153413D01*
X120947Y153443D01*
X120980Y153467D01*
X121056Y153558D01*
X121137Y153645D01*
X121157Y153680D01*
X121182Y153712D01*
X121233Y153819D01*
X121291Y153924D01*
X121301Y153963D01*
X121318Y153999D01*
X121340Y154116D01*
X121370Y154232D01*
X121374Y154292D01*
X121378Y154312D01*
X121376Y154332D01*
X121380Y154392D01*
X121380Y160703D01*
X124281Y160703D01*
X125055Y160496D01*
X125748Y160095D01*
X126314Y159529D01*
X126531Y159153D01*
X126607Y159053D01*
X126678Y158949D01*
X126703Y158927D01*
X126723Y158900D01*
X126822Y158822D01*
X126916Y158739D01*
X126946Y158723D01*
X126973Y158703D01*
X127088Y158651D01*
X127199Y158594D01*
X127232Y158587D01*
X127263Y158573D01*
X127387Y158552D01*
X127510Y158525D01*
X127543Y158526D01*
X127577Y158520D01*
X127702Y158530D01*
X127828Y158534D01*
X127860Y158544D01*
X127893Y158546D01*
X128012Y158588D01*
X128133Y158623D01*
X128162Y158640D01*
X128194Y158651D01*
X128299Y158720D01*
X128407Y158784D01*
X128444Y158816D01*
X128459Y158827D01*
X128473Y158843D01*
X128528Y158891D01*
X129832Y160195D01*
X130547Y160195D01*
X130665Y160210D01*
X130784Y160217D01*
X130822Y160230D01*
X130863Y160235D01*
X130973Y160278D01*
X131086Y160315D01*
X131121Y160337D01*
X131158Y160352D01*
X131254Y160421D01*
X131355Y160485D01*
X131383Y160515D01*
X131416Y160538D01*
X131492Y160630D01*
X131573Y160717D01*
X131593Y160752D01*
X131618Y160783D01*
X131669Y160891D01*
X131727Y160995D01*
X131737Y161035D01*
X131754Y161071D01*
X131776Y161188D01*
X131806Y161303D01*
X131810Y161363D01*
X131814Y161383D01*
X131812Y161404D01*
X131816Y161464D01*
X131816Y162132D01*
X131815Y162141D01*
X131816Y162151D01*
X131795Y162299D01*
X131776Y162448D01*
X131773Y162456D01*
X131772Y162466D01*
X131720Y162618D01*
X131087Y164145D01*
X131087Y166055D01*
X131818Y167821D01*
X133169Y169172D01*
X134935Y169903D01*
X136845Y169903D01*
X138611Y169172D01*
X139962Y167821D01*
X140693Y166055D01*
X140693Y164145D01*
X140042Y162575D01*
X140040Y162566D01*
X140035Y162557D01*
X139998Y162412D01*
X139958Y162268D01*
X139958Y162258D01*
X139956Y162249D01*
X139946Y162089D01*
X139946Y161464D01*
X139961Y161346D01*
X139968Y161227D01*
X139981Y161189D01*
X139986Y161148D01*
X140030Y161037D01*
X140066Y160925D01*
X140088Y160890D01*
X140103Y160853D01*
X140173Y160756D01*
X140236Y160656D01*
X140266Y160628D01*
X140289Y160595D01*
X140381Y160519D01*
X140468Y160438D01*
X140503Y160418D01*
X140534Y160393D01*
X140642Y160342D01*
X140746Y160284D01*
X140786Y160274D01*
X140822Y160257D01*
X140939Y160235D01*
X141054Y160205D01*
X141114Y160201D01*
X141134Y160197D01*
X141155Y160199D01*
X141215Y160195D01*
X141930Y160195D01*
X143414Y158711D01*
X143414Y147613D01*
X141930Y146129D01*
X141215Y146129D01*
X141097Y146114D01*
X140978Y146107D01*
X140940Y146094D01*
X140899Y146089D01*
X140789Y146046D01*
X140676Y146009D01*
X140641Y145987D01*
X140604Y145972D01*
X140508Y145903D01*
X140407Y145839D01*
X140379Y145809D01*
X140346Y145786D01*
X140270Y145694D01*
X140189Y145607D01*
X140169Y145572D01*
X140144Y145541D01*
X140093Y145433D01*
X140035Y145329D01*
X140025Y145289D01*
X140008Y145253D01*
X139986Y145136D01*
X139956Y145021D01*
X139952Y144961D01*
X139948Y144941D01*
X139950Y144920D01*
X139946Y144860D01*
X139946Y144357D01*
X136436Y140848D01*
X136376Y140770D01*
X136308Y140698D01*
X136279Y140645D01*
X136242Y140597D01*
X136202Y140506D01*
X136154Y140419D01*
X136139Y140361D01*
X136115Y140305D01*
X136100Y140207D01*
X136075Y140111D01*
X136069Y140011D01*
X136065Y139991D01*
X136067Y139979D01*
X136065Y139951D01*
X136065Y139302D01*
X136080Y139184D01*
X136087Y139065D01*
X136100Y139027D01*
X136105Y138986D01*
X136148Y138876D01*
X136185Y138763D01*
X136207Y138728D01*
X136222Y138691D01*
X136291Y138595D01*
X136355Y138494D01*
X136385Y138466D01*
X136408Y138433D01*
X136500Y138357D01*
X136587Y138276D01*
X136622Y138256D01*
X136653Y138231D01*
X136761Y138180D01*
X136865Y138122D01*
X136905Y138112D01*
X136941Y138095D01*
X137058Y138073D01*
X137173Y138043D01*
X137233Y138039D01*
X137253Y138035D01*
X137274Y138037D01*
X137334Y138033D01*
X141601Y138033D01*
X141630Y138017D01*
X141678Y137980D01*
X141769Y137940D01*
X141855Y137892D01*
X141914Y137877D01*
X141970Y137853D01*
X142068Y137838D01*
X142163Y137813D01*
X142263Y137807D01*
X142284Y137803D01*
X142296Y137805D01*
X142324Y137803D01*
X145306Y137803D01*
X145404Y137815D01*
X145503Y137818D01*
X145562Y137835D01*
X145622Y137843D01*
X145714Y137879D01*
X145809Y137907D01*
X145861Y137937D01*
X145917Y137960D01*
X145997Y138018D01*
X146083Y138068D01*
X146158Y138134D01*
X146175Y138146D01*
X146183Y138156D01*
X146204Y138174D01*
X151266Y143236D01*
X151326Y143315D01*
X151394Y143387D01*
X151423Y143440D01*
X151460Y143488D01*
X151500Y143579D01*
X151548Y143665D01*
X151563Y143724D01*
X151587Y143779D01*
X151602Y143877D01*
X151627Y143973D01*
X151633Y144073D01*
X151637Y144094D01*
X151635Y144106D01*
X151637Y144134D01*
X151637Y183526D01*
X151625Y183624D01*
X151622Y183723D01*
X151605Y183782D01*
X151597Y183842D01*
X151561Y183934D01*
X151533Y184029D01*
X151503Y184081D01*
X151480Y184137D01*
X151422Y184217D01*
X151372Y184303D01*
X151306Y184378D01*
X151294Y184395D01*
X151284Y184403D01*
X151266Y184424D01*
X147594Y188096D01*
X147515Y188156D01*
X147443Y188224D01*
X147390Y188253D01*
X147342Y188290D01*
X147251Y188330D01*
X147165Y188378D01*
X147106Y188393D01*
X147051Y188417D01*
X146953Y188432D01*
X146857Y188457D01*
X146757Y188463D01*
X146736Y188467D01*
X146724Y188465D01*
X146696Y188467D01*
X114202Y188467D01*
X85597Y217072D01*
X85597Y229447D01*
X85594Y229477D01*
X85596Y229506D01*
X85574Y229634D01*
X85557Y229763D01*
X85547Y229790D01*
X85542Y229819D01*
X85488Y229938D01*
X85440Y230059D01*
X85423Y230083D01*
X85411Y230109D01*
X85330Y230211D01*
X85254Y230316D01*
X85231Y230335D01*
X85212Y230358D01*
X85109Y230436D01*
X85009Y230519D01*
X84982Y230531D01*
X84958Y230549D01*
X84814Y230620D01*
X82425Y231609D01*
X79209Y234825D01*
X77469Y239026D01*
X77469Y243574D01*
X79209Y247775D01*
X80219Y248785D01*
X80304Y248894D01*
X80393Y249001D01*
X80402Y249020D01*
X80414Y249036D01*
X80469Y249163D01*
X80528Y249289D01*
X80532Y249309D01*
X80540Y249328D01*
X80562Y249466D01*
X80588Y249602D01*
X80587Y249622D01*
X80590Y249642D01*
X80577Y249781D01*
X80568Y249919D01*
X80562Y249938D01*
X80560Y249958D01*
X80513Y250090D01*
X80470Y250221D01*
X80460Y250239D01*
X80453Y250258D01*
X80375Y250373D01*
X80300Y250490D01*
X80286Y250504D01*
X80274Y250521D01*
X80170Y250613D01*
X80069Y250708D01*
X80051Y250718D01*
X80036Y250731D01*
X79912Y250794D01*
X79790Y250862D01*
X79771Y250867D01*
X79753Y250876D01*
X79617Y250906D01*
X79482Y250941D01*
X79454Y250943D01*
X79442Y250946D01*
X79422Y250945D01*
X79322Y250951D01*
X73078Y250951D01*
X72940Y250934D01*
X72802Y250921D01*
X72783Y250914D01*
X72763Y250911D01*
X72634Y250860D01*
X72503Y250813D01*
X72486Y250802D01*
X72467Y250794D01*
X72355Y250713D01*
X72240Y250635D01*
X72226Y250619D01*
X72210Y250608D01*
X72121Y250500D01*
X72029Y250396D01*
X72020Y250378D01*
X72007Y250363D01*
X71948Y250237D01*
X71885Y250113D01*
X71880Y250093D01*
X71872Y250075D01*
X71845Y249938D01*
X71815Y249803D01*
X71816Y249782D01*
X71812Y249763D01*
X71820Y249624D01*
X71825Y249485D01*
X71830Y249465D01*
X71832Y249445D01*
X71874Y249313D01*
X71913Y249179D01*
X71923Y249162D01*
X71930Y249143D01*
X72004Y249025D01*
X72075Y248905D01*
X72093Y248884D01*
X72100Y248874D01*
X72115Y248860D01*
X72181Y248785D01*
X73191Y247775D01*
X74931Y243574D01*
X74931Y239026D01*
X73941Y236638D01*
X73934Y236609D01*
X73920Y236583D01*
X73892Y236456D01*
X73857Y236331D01*
X73857Y236301D01*
X73850Y236273D01*
X73854Y236143D01*
X73852Y236013D01*
X73859Y235984D01*
X73860Y235955D01*
X73896Y235830D01*
X73926Y235704D01*
X73940Y235677D01*
X73948Y235649D01*
X74014Y235537D01*
X74075Y235422D01*
X74095Y235401D01*
X74110Y235375D01*
X74216Y235254D01*
X75693Y233778D01*
X75693Y166547D01*
X75710Y166409D01*
X75723Y166271D01*
X75730Y166252D01*
X75733Y166232D01*
X75784Y166103D01*
X75831Y165972D01*
X75842Y165955D01*
X75850Y165936D01*
X75931Y165824D01*
X76009Y165709D01*
X76025Y165695D01*
X76036Y165679D01*
X76144Y165590D01*
X76248Y165498D01*
X76266Y165489D01*
X76281Y165476D01*
X76407Y165417D01*
X76531Y165354D01*
X76551Y165349D01*
X76569Y165340D01*
X76706Y165314D01*
X76841Y165284D01*
X76862Y165284D01*
X76881Y165281D01*
X77020Y165289D01*
X77159Y165294D01*
X77179Y165299D01*
X77199Y165300D01*
X77331Y165343D01*
X77465Y165382D01*
X77482Y165392D01*
X77501Y165398D01*
X77619Y165473D01*
X77739Y165543D01*
X77760Y165562D01*
X77770Y165569D01*
X77784Y165584D01*
X77859Y165650D01*
X78698Y166488D01*
X81374Y169165D01*
X87181Y169165D01*
X87190Y169166D01*
X87199Y169165D01*
X87348Y169186D01*
X87496Y169205D01*
X87505Y169208D01*
X87514Y169209D01*
X87666Y169261D01*
X89215Y169903D01*
X91125Y169903D01*
X92891Y169172D01*
X94242Y167821D01*
X94973Y166055D01*
X94973Y164145D01*
X94244Y162386D01*
X94242Y162377D01*
X94237Y162369D01*
X94200Y162224D01*
X94160Y162079D01*
X94160Y162070D01*
X94158Y162061D01*
X94148Y161900D01*
X94148Y157049D01*
X89106Y157049D01*
X89106Y159494D01*
X89103Y159523D01*
X89105Y159553D01*
X89083Y159681D01*
X89066Y159810D01*
X89056Y159837D01*
X89051Y159866D01*
X88997Y159985D01*
X88949Y160105D01*
X88932Y160129D01*
X88920Y160156D01*
X88839Y160257D01*
X88763Y160363D01*
X88740Y160382D01*
X88721Y160405D01*
X88618Y160483D01*
X88518Y160565D01*
X88491Y160578D01*
X88467Y160596D01*
X88323Y160667D01*
X87666Y160939D01*
X87657Y160941D01*
X87649Y160946D01*
X87504Y160983D01*
X87359Y161023D01*
X87350Y161023D01*
X87341Y161025D01*
X87181Y161035D01*
X85344Y161035D01*
X85226Y161020D01*
X85107Y161013D01*
X85069Y161000D01*
X85028Y160995D01*
X84918Y160952D01*
X84805Y160915D01*
X84770Y160893D01*
X84733Y160878D01*
X84637Y160809D01*
X84536Y160745D01*
X84508Y160715D01*
X84475Y160692D01*
X84399Y160600D01*
X84318Y160513D01*
X84298Y160478D01*
X84273Y160447D01*
X84222Y160339D01*
X84164Y160235D01*
X84154Y160195D01*
X84137Y160159D01*
X84115Y160042D01*
X84085Y159927D01*
X84081Y159867D01*
X84077Y159847D01*
X84079Y159826D01*
X84075Y159766D01*
X84075Y137334D01*
X84090Y137216D01*
X84097Y137097D01*
X84110Y137059D01*
X84115Y137018D01*
X84158Y136908D01*
X84195Y136795D01*
X84217Y136760D01*
X84232Y136723D01*
X84301Y136627D01*
X84365Y136526D01*
X84395Y136498D01*
X84418Y136465D01*
X84510Y136389D01*
X84597Y136308D01*
X84632Y136288D01*
X84663Y136263D01*
X84771Y136212D01*
X84875Y136154D01*
X84915Y136144D01*
X84951Y136127D01*
X85068Y136105D01*
X85183Y136075D01*
X85243Y136071D01*
X85263Y136067D01*
X85284Y136069D01*
X85344Y136065D01*
X88135Y136065D01*
X88233Y136077D01*
G37*
G36*
X174988Y178829D02*
X174988Y178829D01*
X175087Y178832D01*
X175146Y178849D01*
X175206Y178857D01*
X175298Y178893D01*
X175393Y178921D01*
X175445Y178951D01*
X175501Y178974D01*
X175581Y179032D01*
X175667Y179082D01*
X175742Y179148D01*
X175759Y179160D01*
X175767Y179170D01*
X175788Y179188D01*
X186826Y190226D01*
X186886Y190305D01*
X186954Y190377D01*
X186983Y190430D01*
X187020Y190478D01*
X187060Y190569D01*
X187108Y190655D01*
X187123Y190714D01*
X187147Y190769D01*
X187162Y190867D01*
X187187Y190963D01*
X187193Y191063D01*
X187197Y191084D01*
X187195Y191096D01*
X187197Y191124D01*
X187197Y229447D01*
X187194Y229477D01*
X187196Y229506D01*
X187174Y229634D01*
X187157Y229763D01*
X187147Y229790D01*
X187142Y229819D01*
X187088Y229938D01*
X187040Y230059D01*
X187023Y230083D01*
X187011Y230109D01*
X186930Y230211D01*
X186854Y230316D01*
X186831Y230335D01*
X186812Y230358D01*
X186709Y230436D01*
X186609Y230519D01*
X186582Y230531D01*
X186558Y230549D01*
X186414Y230620D01*
X184025Y231609D01*
X180809Y234825D01*
X179069Y239026D01*
X179069Y243574D01*
X180809Y247775D01*
X181819Y248785D01*
X181904Y248894D01*
X181993Y249001D01*
X182002Y249020D01*
X182014Y249036D01*
X182069Y249163D01*
X182128Y249289D01*
X182132Y249309D01*
X182140Y249328D01*
X182162Y249466D01*
X182188Y249602D01*
X182187Y249622D01*
X182190Y249642D01*
X182177Y249781D01*
X182168Y249919D01*
X182162Y249938D01*
X182160Y249958D01*
X182113Y250090D01*
X182070Y250221D01*
X182060Y250239D01*
X182053Y250258D01*
X181975Y250373D01*
X181900Y250490D01*
X181886Y250504D01*
X181874Y250521D01*
X181770Y250613D01*
X181669Y250708D01*
X181651Y250718D01*
X181636Y250731D01*
X181512Y250794D01*
X181390Y250862D01*
X181371Y250867D01*
X181353Y250876D01*
X181217Y250906D01*
X181082Y250941D01*
X181054Y250943D01*
X181042Y250946D01*
X181022Y250945D01*
X180922Y250951D01*
X174678Y250951D01*
X174540Y250934D01*
X174402Y250921D01*
X174383Y250914D01*
X174363Y250911D01*
X174234Y250860D01*
X174103Y250813D01*
X174086Y250802D01*
X174067Y250794D01*
X173955Y250713D01*
X173840Y250635D01*
X173826Y250619D01*
X173810Y250608D01*
X173721Y250500D01*
X173629Y250396D01*
X173620Y250378D01*
X173607Y250363D01*
X173548Y250237D01*
X173485Y250113D01*
X173480Y250093D01*
X173472Y250075D01*
X173445Y249938D01*
X173415Y249803D01*
X173416Y249782D01*
X173412Y249763D01*
X173420Y249624D01*
X173425Y249485D01*
X173430Y249465D01*
X173432Y249445D01*
X173474Y249313D01*
X173513Y249179D01*
X173523Y249162D01*
X173530Y249143D01*
X173604Y249025D01*
X173675Y248905D01*
X173693Y248884D01*
X173700Y248874D01*
X173715Y248860D01*
X173781Y248785D01*
X174791Y247775D01*
X176531Y243574D01*
X176531Y239026D01*
X174791Y234825D01*
X171575Y231609D01*
X167374Y229869D01*
X162826Y229869D01*
X158625Y231609D01*
X155409Y234825D01*
X153669Y239026D01*
X153669Y243574D01*
X155409Y247775D01*
X156419Y248785D01*
X156504Y248894D01*
X156593Y249001D01*
X156602Y249020D01*
X156614Y249036D01*
X156669Y249163D01*
X156728Y249289D01*
X156732Y249309D01*
X156740Y249328D01*
X156762Y249466D01*
X156788Y249602D01*
X156787Y249622D01*
X156790Y249642D01*
X156777Y249781D01*
X156768Y249919D01*
X156762Y249938D01*
X156760Y249958D01*
X156713Y250090D01*
X156670Y250221D01*
X156660Y250239D01*
X156653Y250258D01*
X156575Y250373D01*
X156500Y250490D01*
X156486Y250504D01*
X156474Y250521D01*
X156370Y250613D01*
X156269Y250708D01*
X156251Y250718D01*
X156236Y250731D01*
X156112Y250794D01*
X155990Y250862D01*
X155971Y250867D01*
X155953Y250876D01*
X155817Y250906D01*
X155682Y250941D01*
X155654Y250943D01*
X155642Y250946D01*
X155622Y250945D01*
X155522Y250951D01*
X149278Y250951D01*
X149140Y250934D01*
X149002Y250921D01*
X148983Y250914D01*
X148963Y250911D01*
X148834Y250860D01*
X148703Y250813D01*
X148686Y250802D01*
X148667Y250794D01*
X148555Y250713D01*
X148440Y250635D01*
X148426Y250619D01*
X148410Y250608D01*
X148321Y250500D01*
X148229Y250396D01*
X148220Y250378D01*
X148207Y250363D01*
X148148Y250237D01*
X148085Y250113D01*
X148080Y250093D01*
X148072Y250075D01*
X148045Y249938D01*
X148015Y249803D01*
X148016Y249782D01*
X148012Y249763D01*
X148020Y249624D01*
X148025Y249485D01*
X148030Y249465D01*
X148032Y249445D01*
X148074Y249313D01*
X148113Y249179D01*
X148123Y249162D01*
X148130Y249143D01*
X148204Y249025D01*
X148275Y248905D01*
X148293Y248884D01*
X148300Y248874D01*
X148315Y248860D01*
X148381Y248785D01*
X149391Y247775D01*
X151131Y243574D01*
X151131Y239026D01*
X149391Y234825D01*
X146175Y231609D01*
X141974Y229869D01*
X137426Y229869D01*
X133225Y231609D01*
X130009Y234825D01*
X128269Y239026D01*
X128269Y243574D01*
X130009Y247775D01*
X131019Y248785D01*
X131104Y248894D01*
X131193Y249001D01*
X131202Y249020D01*
X131214Y249036D01*
X131269Y249163D01*
X131328Y249289D01*
X131332Y249309D01*
X131340Y249328D01*
X131362Y249466D01*
X131388Y249602D01*
X131387Y249622D01*
X131390Y249642D01*
X131377Y249781D01*
X131368Y249919D01*
X131362Y249938D01*
X131360Y249958D01*
X131313Y250090D01*
X131270Y250221D01*
X131260Y250239D01*
X131253Y250258D01*
X131175Y250373D01*
X131100Y250490D01*
X131086Y250504D01*
X131074Y250521D01*
X130970Y250613D01*
X130869Y250708D01*
X130851Y250718D01*
X130836Y250731D01*
X130712Y250794D01*
X130590Y250862D01*
X130571Y250867D01*
X130553Y250876D01*
X130417Y250906D01*
X130282Y250941D01*
X130254Y250943D01*
X130242Y250946D01*
X130222Y250945D01*
X130122Y250951D01*
X123878Y250951D01*
X123740Y250934D01*
X123602Y250921D01*
X123583Y250914D01*
X123563Y250911D01*
X123434Y250860D01*
X123303Y250813D01*
X123286Y250802D01*
X123267Y250794D01*
X123155Y250713D01*
X123040Y250635D01*
X123026Y250619D01*
X123010Y250608D01*
X122921Y250500D01*
X122829Y250396D01*
X122820Y250378D01*
X122807Y250363D01*
X122748Y250237D01*
X122685Y250113D01*
X122680Y250093D01*
X122672Y250075D01*
X122645Y249938D01*
X122615Y249803D01*
X122616Y249782D01*
X122612Y249763D01*
X122620Y249624D01*
X122625Y249485D01*
X122630Y249465D01*
X122632Y249445D01*
X122674Y249313D01*
X122713Y249179D01*
X122723Y249162D01*
X122730Y249143D01*
X122804Y249025D01*
X122875Y248905D01*
X122893Y248884D01*
X122900Y248874D01*
X122915Y248860D01*
X122981Y248785D01*
X123991Y247775D01*
X125731Y243574D01*
X125731Y239026D01*
X123991Y234825D01*
X120775Y231609D01*
X116574Y229869D01*
X112026Y229869D01*
X107825Y231609D01*
X104609Y234825D01*
X102869Y239026D01*
X102869Y243574D01*
X104609Y247775D01*
X105619Y248785D01*
X105704Y248894D01*
X105793Y249001D01*
X105802Y249020D01*
X105814Y249036D01*
X105869Y249163D01*
X105928Y249289D01*
X105932Y249309D01*
X105940Y249328D01*
X105962Y249466D01*
X105988Y249602D01*
X105987Y249622D01*
X105990Y249642D01*
X105977Y249781D01*
X105968Y249919D01*
X105962Y249938D01*
X105960Y249958D01*
X105913Y250090D01*
X105870Y250221D01*
X105860Y250239D01*
X105853Y250258D01*
X105775Y250373D01*
X105700Y250490D01*
X105686Y250504D01*
X105674Y250521D01*
X105570Y250613D01*
X105469Y250708D01*
X105451Y250718D01*
X105436Y250731D01*
X105312Y250794D01*
X105190Y250862D01*
X105171Y250867D01*
X105153Y250876D01*
X105017Y250906D01*
X104882Y250941D01*
X104854Y250943D01*
X104842Y250946D01*
X104822Y250945D01*
X104722Y250951D01*
X98478Y250951D01*
X98340Y250934D01*
X98202Y250921D01*
X98183Y250914D01*
X98163Y250911D01*
X98034Y250860D01*
X97903Y250813D01*
X97886Y250802D01*
X97867Y250794D01*
X97755Y250713D01*
X97640Y250635D01*
X97626Y250619D01*
X97610Y250608D01*
X97521Y250500D01*
X97429Y250396D01*
X97420Y250378D01*
X97407Y250363D01*
X97348Y250237D01*
X97285Y250113D01*
X97280Y250093D01*
X97272Y250075D01*
X97245Y249938D01*
X97215Y249803D01*
X97216Y249782D01*
X97212Y249763D01*
X97220Y249624D01*
X97225Y249485D01*
X97230Y249465D01*
X97232Y249445D01*
X97274Y249313D01*
X97313Y249179D01*
X97323Y249162D01*
X97330Y249143D01*
X97404Y249025D01*
X97475Y248905D01*
X97493Y248884D01*
X97500Y248874D01*
X97515Y248860D01*
X97581Y248785D01*
X98591Y247775D01*
X100331Y243574D01*
X100331Y239026D01*
X98591Y234825D01*
X95375Y231609D01*
X92986Y230620D01*
X92961Y230605D01*
X92933Y230596D01*
X92823Y230527D01*
X92710Y230463D01*
X92689Y230442D01*
X92664Y230426D01*
X92575Y230332D01*
X92482Y230241D01*
X92466Y230216D01*
X92446Y230195D01*
X92383Y230081D01*
X92315Y229970D01*
X92307Y229942D01*
X92292Y229916D01*
X92260Y229790D01*
X92222Y229666D01*
X92220Y229637D01*
X92213Y229608D01*
X92203Y229447D01*
X92203Y220334D01*
X92215Y220236D01*
X92218Y220137D01*
X92235Y220078D01*
X92243Y220018D01*
X92279Y219926D01*
X92307Y219831D01*
X92337Y219779D01*
X92360Y219723D01*
X92418Y219643D01*
X92468Y219557D01*
X92534Y219482D01*
X92546Y219465D01*
X92556Y219457D01*
X92574Y219436D01*
X116566Y195444D01*
X116645Y195384D01*
X116717Y195316D01*
X116770Y195287D01*
X116818Y195250D01*
X116909Y195210D01*
X116995Y195162D01*
X117054Y195147D01*
X117109Y195123D01*
X117207Y195108D01*
X117303Y195083D01*
X117403Y195077D01*
X117424Y195073D01*
X117436Y195075D01*
X117464Y195073D01*
X149958Y195073D01*
X152264Y192766D01*
X153789Y191242D01*
X153877Y191174D01*
X153912Y191141D01*
X153930Y191131D01*
X154005Y191068D01*
X154024Y191060D01*
X154040Y191047D01*
X154167Y190992D01*
X154293Y190933D01*
X154313Y190929D01*
X154332Y190921D01*
X154470Y190899D01*
X154606Y190873D01*
X154626Y190874D01*
X154646Y190871D01*
X154785Y190884D01*
X154923Y190893D01*
X154942Y190899D01*
X154962Y190901D01*
X155094Y190948D01*
X155225Y190991D01*
X155243Y191002D01*
X155262Y191009D01*
X155377Y191087D01*
X155494Y191161D01*
X155508Y191176D01*
X155525Y191187D01*
X155617Y191291D01*
X155712Y191393D01*
X155722Y191410D01*
X155735Y191426D01*
X155799Y191550D01*
X155866Y191671D01*
X155871Y191691D01*
X155880Y191709D01*
X155910Y191845D01*
X155945Y191979D01*
X155947Y192007D01*
X155950Y192019D01*
X155949Y192040D01*
X155951Y192080D01*
X155953Y192086D01*
X155952Y192093D01*
X155955Y192140D01*
X155955Y192935D01*
X155943Y193033D01*
X155940Y193132D01*
X155923Y193190D01*
X155915Y193250D01*
X155879Y193342D01*
X155851Y193438D01*
X155821Y193490D01*
X155798Y193546D01*
X155740Y193626D01*
X155690Y193711D01*
X155624Y193787D01*
X155612Y193803D01*
X155602Y193811D01*
X155584Y193832D01*
X148620Y200796D01*
X148542Y200856D01*
X148470Y200924D01*
X148417Y200953D01*
X148369Y200990D01*
X148278Y201030D01*
X148191Y201078D01*
X148133Y201093D01*
X148077Y201117D01*
X147979Y201132D01*
X147884Y201157D01*
X147783Y201163D01*
X147763Y201167D01*
X147751Y201165D01*
X147723Y201167D01*
X138635Y201167D01*
X138537Y201155D01*
X138438Y201152D01*
X138380Y201135D01*
X138320Y201127D01*
X138227Y201091D01*
X138132Y201063D01*
X138080Y201033D01*
X138024Y201010D01*
X137944Y200952D01*
X137858Y200902D01*
X137783Y200836D01*
X137767Y200824D01*
X137759Y200814D01*
X137738Y200796D01*
X137341Y200398D01*
X135575Y199667D01*
X133665Y199667D01*
X131899Y200398D01*
X130548Y201749D01*
X129817Y203515D01*
X129817Y205425D01*
X130548Y207191D01*
X131899Y208542D01*
X133665Y209273D01*
X135575Y209273D01*
X137341Y208542D01*
X137738Y208144D01*
X137816Y208084D01*
X137888Y208016D01*
X137941Y207987D01*
X137989Y207950D01*
X138080Y207910D01*
X138166Y207862D01*
X138225Y207847D01*
X138281Y207823D01*
X138379Y207808D01*
X138474Y207783D01*
X138574Y207777D01*
X138595Y207773D01*
X138607Y207775D01*
X138635Y207773D01*
X150985Y207773D01*
X159636Y199122D01*
X159730Y199049D01*
X159819Y198970D01*
X159855Y198951D01*
X159887Y198927D01*
X159997Y198879D01*
X160102Y198825D01*
X160142Y198816D01*
X160179Y198800D01*
X160297Y198782D01*
X160413Y198756D01*
X160453Y198757D01*
X160493Y198750D01*
X160612Y198762D01*
X160731Y198765D01*
X160769Y198776D01*
X160810Y198780D01*
X160922Y198821D01*
X161036Y198854D01*
X161071Y198874D01*
X161109Y198888D01*
X161208Y198955D01*
X161310Y199015D01*
X161355Y199055D01*
X161372Y199066D01*
X161386Y199082D01*
X161431Y199122D01*
X162834Y200524D01*
X165006Y202696D01*
X165066Y202775D01*
X165134Y202847D01*
X165155Y202884D01*
X165176Y202910D01*
X165183Y202925D01*
X165200Y202948D01*
X165240Y203039D01*
X165288Y203125D01*
X165300Y203173D01*
X165311Y203197D01*
X165314Y203209D01*
X165327Y203239D01*
X165342Y203337D01*
X165367Y203433D01*
X165373Y203533D01*
X165377Y203554D01*
X165375Y203566D01*
X165377Y203594D01*
X165377Y204155D01*
X166108Y205921D01*
X167459Y207272D01*
X169225Y208003D01*
X171135Y208003D01*
X172901Y207272D01*
X174252Y205921D01*
X174983Y204155D01*
X174983Y202245D01*
X174252Y200479D01*
X172901Y199128D01*
X171135Y198397D01*
X170574Y198397D01*
X170476Y198385D01*
X170377Y198382D01*
X170318Y198365D01*
X170258Y198357D01*
X170166Y198321D01*
X170071Y198293D01*
X170019Y198263D01*
X169963Y198240D01*
X169882Y198182D01*
X169797Y198132D01*
X169722Y198066D01*
X169705Y198054D01*
X169697Y198044D01*
X169676Y198026D01*
X167504Y195854D01*
X167444Y195775D01*
X167376Y195703D01*
X167347Y195650D01*
X167310Y195602D01*
X167270Y195511D01*
X167222Y195425D01*
X167207Y195366D01*
X167183Y195311D01*
X167168Y195213D01*
X167143Y195117D01*
X167137Y195017D01*
X167133Y194996D01*
X167135Y194984D01*
X167133Y194956D01*
X167133Y181350D01*
X167139Y181300D01*
X167137Y181251D01*
X167159Y181143D01*
X167173Y181034D01*
X167191Y180988D01*
X167201Y180939D01*
X167249Y180841D01*
X167290Y180739D01*
X167319Y180698D01*
X167341Y180654D01*
X167412Y180570D01*
X167476Y180481D01*
X167515Y180449D01*
X167547Y180412D01*
X167637Y180348D01*
X167721Y180278D01*
X167766Y180257D01*
X167807Y180229D01*
X167910Y180190D01*
X168009Y180143D01*
X168058Y180134D01*
X168104Y180116D01*
X168214Y180104D01*
X168321Y180083D01*
X168371Y180086D01*
X168420Y180081D01*
X168529Y180096D01*
X168639Y180103D01*
X168686Y180118D01*
X168735Y180125D01*
X168888Y180177D01*
X169225Y180317D01*
X171135Y180317D01*
X172900Y179586D01*
X173298Y179189D01*
X173376Y179128D01*
X173448Y179060D01*
X173501Y179031D01*
X173549Y178994D01*
X173640Y178954D01*
X173726Y178906D01*
X173785Y178891D01*
X173841Y178867D01*
X173939Y178852D01*
X174034Y178827D01*
X174134Y178821D01*
X174155Y178817D01*
X174167Y178819D01*
X174195Y178817D01*
X174890Y178817D01*
X174988Y178829D01*
G37*
G36*
X191244Y70625D02*
X191244Y70625D01*
X191343Y70628D01*
X191402Y70645D01*
X191462Y70653D01*
X191554Y70689D01*
X191649Y70717D01*
X191701Y70747D01*
X191757Y70770D01*
X191837Y70828D01*
X191923Y70878D01*
X191998Y70944D01*
X192015Y70956D01*
X192023Y70966D01*
X192044Y70984D01*
X217814Y96754D01*
X217874Y96833D01*
X217942Y96905D01*
X217971Y96958D01*
X218008Y97006D01*
X218048Y97097D01*
X218096Y97183D01*
X218111Y97242D01*
X218135Y97297D01*
X218150Y97395D01*
X218175Y97491D01*
X218181Y97591D01*
X218185Y97612D01*
X218183Y97624D01*
X218185Y97652D01*
X218185Y116295D01*
X218179Y116344D01*
X218181Y116394D01*
X218159Y116501D01*
X218145Y116610D01*
X218127Y116656D01*
X218117Y116705D01*
X218069Y116804D01*
X218028Y116906D01*
X217999Y116946D01*
X217977Y116991D01*
X217906Y117074D01*
X217842Y117163D01*
X217803Y117195D01*
X217771Y117233D01*
X217681Y117296D01*
X217597Y117366D01*
X217552Y117387D01*
X217511Y117416D01*
X217408Y117455D01*
X217309Y117502D01*
X217260Y117511D01*
X217214Y117529D01*
X217104Y117541D01*
X216997Y117561D01*
X216947Y117558D01*
X216898Y117564D01*
X216789Y117548D01*
X216679Y117542D01*
X216632Y117526D01*
X216583Y117519D01*
X216430Y117467D01*
X215585Y117117D01*
X213661Y117117D01*
X213659Y117119D01*
X213557Y117137D01*
X213458Y117164D01*
X213401Y117165D01*
X213346Y117175D01*
X213243Y117168D01*
X213140Y117169D01*
X213085Y117156D01*
X213028Y117152D01*
X212931Y117119D01*
X212830Y117095D01*
X212780Y117069D01*
X212727Y117051D01*
X212640Y116995D01*
X212549Y116946D01*
X212507Y116908D01*
X212460Y116878D01*
X212390Y116802D01*
X212314Y116732D01*
X212283Y116685D01*
X212245Y116644D01*
X212196Y116553D01*
X212139Y116467D01*
X212121Y116413D01*
X212094Y116364D01*
X212069Y116263D01*
X212036Y116166D01*
X212031Y116110D01*
X212018Y116055D01*
X212019Y115952D01*
X212011Y115849D01*
X212020Y115793D01*
X212021Y115737D01*
X212053Y115579D01*
X212237Y114892D01*
X212237Y113499D01*
X203176Y113499D01*
X203058Y113484D01*
X202939Y113477D01*
X202932Y113475D01*
X202876Y113489D01*
X202816Y113493D01*
X202796Y113497D01*
X202776Y113495D01*
X202716Y113499D01*
X193655Y113499D01*
X193655Y114892D01*
X193863Y115668D01*
X194265Y116363D01*
X194363Y116462D01*
X194436Y116556D01*
X194515Y116645D01*
X194533Y116681D01*
X194558Y116713D01*
X194605Y116822D01*
X194660Y116928D01*
X194669Y116968D01*
X194685Y117005D01*
X194703Y117122D01*
X194729Y117239D01*
X194728Y117279D01*
X194734Y117319D01*
X194723Y117437D01*
X194720Y117556D01*
X194708Y117595D01*
X194705Y117635D01*
X194664Y117747D01*
X194631Y117862D01*
X194611Y117897D01*
X194597Y117935D01*
X194530Y118033D01*
X194470Y118136D01*
X194430Y118181D01*
X194418Y118198D01*
X194403Y118211D01*
X194363Y118257D01*
X194163Y118457D01*
X194163Y125543D01*
X194723Y126102D01*
X194795Y126196D01*
X194874Y126286D01*
X194893Y126322D01*
X194917Y126354D01*
X194965Y126463D01*
X195019Y126569D01*
X195028Y126608D01*
X195044Y126646D01*
X195063Y126763D01*
X195089Y126879D01*
X195087Y126920D01*
X195094Y126960D01*
X195083Y127078D01*
X195079Y127197D01*
X195068Y127236D01*
X195064Y127276D01*
X195024Y127389D01*
X194990Y127503D01*
X194970Y127537D01*
X194956Y127576D01*
X194889Y127674D01*
X194829Y127777D01*
X194789Y127822D01*
X194778Y127839D01*
X194762Y127852D01*
X194723Y127897D01*
X194295Y128326D01*
X194216Y128386D01*
X194144Y128454D01*
X194091Y128483D01*
X194043Y128520D01*
X193952Y128560D01*
X193866Y128608D01*
X193807Y128623D01*
X193751Y128647D01*
X193653Y128662D01*
X193558Y128687D01*
X193458Y128693D01*
X193437Y128697D01*
X193425Y128695D01*
X193397Y128697D01*
X192314Y128697D01*
X192216Y128685D01*
X192117Y128682D01*
X192058Y128665D01*
X191998Y128657D01*
X191906Y128621D01*
X191811Y128593D01*
X191759Y128563D01*
X191703Y128540D01*
X191623Y128482D01*
X191537Y128432D01*
X191462Y128366D01*
X191445Y128354D01*
X191437Y128344D01*
X191416Y128326D01*
X174088Y110997D01*
X164454Y110997D01*
X164356Y110985D01*
X164257Y110982D01*
X164198Y110965D01*
X164138Y110957D01*
X164046Y110921D01*
X163951Y110893D01*
X163899Y110863D01*
X163843Y110840D01*
X163763Y110782D01*
X163677Y110732D01*
X163602Y110666D01*
X163585Y110654D01*
X163577Y110644D01*
X163556Y110626D01*
X158848Y105917D01*
X155685Y105917D01*
X155567Y105902D01*
X155449Y105895D01*
X155410Y105882D01*
X155370Y105877D01*
X155259Y105834D01*
X155146Y105797D01*
X155112Y105775D01*
X155074Y105760D01*
X154978Y105691D01*
X154877Y105627D01*
X154850Y105597D01*
X154817Y105574D01*
X154741Y105482D01*
X154659Y105395D01*
X154640Y105360D01*
X154614Y105329D01*
X154563Y105221D01*
X154506Y105117D01*
X154496Y105077D01*
X154479Y105041D01*
X154456Y104924D01*
X154426Y104809D01*
X154423Y104749D01*
X154419Y104729D01*
X154420Y104708D01*
X154416Y104648D01*
X154416Y104512D01*
X154431Y104394D01*
X154439Y104275D01*
X154451Y104237D01*
X154456Y104196D01*
X154500Y104086D01*
X154537Y103973D01*
X154558Y103938D01*
X154573Y103901D01*
X154643Y103805D01*
X154707Y103704D01*
X154736Y103676D01*
X154760Y103643D01*
X154852Y103567D01*
X154938Y103486D01*
X154974Y103466D01*
X155005Y103441D01*
X155113Y103390D01*
X155217Y103332D01*
X155256Y103322D01*
X155293Y103305D01*
X155383Y103288D01*
X163323Y95348D01*
X163323Y77651D01*
X163335Y77553D01*
X163338Y77454D01*
X163355Y77396D01*
X163363Y77336D01*
X163399Y77243D01*
X163427Y77148D01*
X163457Y77096D01*
X163480Y77040D01*
X163538Y76960D01*
X163588Y76874D01*
X163654Y76799D01*
X163666Y76783D01*
X163676Y76775D01*
X163694Y76754D01*
X164092Y76357D01*
X164256Y75960D01*
X164294Y75894D01*
X164322Y75823D01*
X164335Y75807D01*
X164337Y75791D01*
X164389Y75639D01*
X164823Y74591D01*
X164823Y72681D01*
X164693Y72368D01*
X164680Y72320D01*
X164659Y72275D01*
X164638Y72167D01*
X164609Y72061D01*
X164608Y72011D01*
X164599Y71962D01*
X164606Y71853D01*
X164604Y71743D01*
X164616Y71695D01*
X164619Y71645D01*
X164653Y71541D01*
X164678Y71434D01*
X164701Y71390D01*
X164717Y71343D01*
X164776Y71250D01*
X164827Y71153D01*
X164860Y71116D01*
X164887Y71074D01*
X164967Y70999D01*
X165041Y70917D01*
X165082Y70890D01*
X165119Y70856D01*
X165215Y70803D01*
X165307Y70743D01*
X165354Y70726D01*
X165397Y70702D01*
X165503Y70675D01*
X165607Y70639D01*
X165657Y70635D01*
X165705Y70623D01*
X165866Y70613D01*
X191146Y70613D01*
X191244Y70625D01*
G37*
G36*
X188389Y169177D02*
X188389Y169177D01*
X188488Y169180D01*
X188546Y169197D01*
X188606Y169205D01*
X188698Y169241D01*
X188793Y169269D01*
X188845Y169299D01*
X188902Y169322D01*
X188982Y169380D01*
X189067Y169430D01*
X189143Y169496D01*
X189159Y169508D01*
X189167Y169518D01*
X189188Y169536D01*
X212048Y192397D01*
X219790Y192397D01*
X219908Y192412D01*
X220027Y192419D01*
X220065Y192432D01*
X220106Y192437D01*
X220216Y192480D01*
X220329Y192517D01*
X220364Y192539D01*
X220401Y192554D01*
X220497Y192623D01*
X220598Y192687D01*
X220626Y192717D01*
X220659Y192740D01*
X220735Y192832D01*
X220816Y192919D01*
X220836Y192954D01*
X220861Y192985D01*
X220912Y193093D01*
X220970Y193197D01*
X220980Y193237D01*
X220997Y193273D01*
X221019Y193390D01*
X221049Y193505D01*
X221053Y193565D01*
X221057Y193585D01*
X221055Y193606D01*
X221059Y193666D01*
X221059Y194381D01*
X222543Y195865D01*
X233641Y195865D01*
X235125Y194381D01*
X235125Y194185D01*
X235142Y194047D01*
X235155Y193909D01*
X235162Y193890D01*
X235165Y193869D01*
X235216Y193740D01*
X235263Y193609D01*
X235274Y193592D01*
X235282Y193574D01*
X235363Y193461D01*
X235441Y193346D01*
X235457Y193333D01*
X235468Y193316D01*
X235576Y193228D01*
X235680Y193136D01*
X235698Y193127D01*
X235713Y193114D01*
X235839Y193054D01*
X235963Y192991D01*
X235983Y192987D01*
X236001Y192978D01*
X236138Y192952D01*
X236273Y192921D01*
X236294Y192922D01*
X236313Y192918D01*
X236452Y192927D01*
X236591Y192931D01*
X236611Y192937D01*
X236631Y192938D01*
X236763Y192981D01*
X236897Y193020D01*
X236914Y193030D01*
X236933Y193036D01*
X237051Y193111D01*
X237171Y193181D01*
X237192Y193200D01*
X237202Y193206D01*
X237216Y193221D01*
X237291Y193287D01*
X238688Y194684D01*
X238761Y194779D01*
X238840Y194868D01*
X238859Y194904D01*
X238883Y194936D01*
X238931Y195045D01*
X238985Y195151D01*
X238994Y195191D01*
X239010Y195228D01*
X239028Y195345D01*
X239054Y195461D01*
X239053Y195502D01*
X239060Y195542D01*
X239048Y195660D01*
X239045Y195779D01*
X239034Y195818D01*
X239030Y195858D01*
X238990Y195970D01*
X238956Y196085D01*
X238936Y196120D01*
X238922Y196158D01*
X238855Y196256D01*
X238795Y196359D01*
X238755Y196404D01*
X238744Y196421D01*
X238728Y196434D01*
X238688Y196480D01*
X238498Y196670D01*
X237767Y198435D01*
X237767Y200345D01*
X238498Y202111D01*
X239849Y203462D01*
X241615Y204193D01*
X243525Y204193D01*
X245291Y203462D01*
X246642Y202111D01*
X247373Y200345D01*
X247373Y198435D01*
X246729Y196882D01*
X246716Y196834D01*
X246695Y196789D01*
X246675Y196681D01*
X246646Y196575D01*
X246645Y196525D01*
X246635Y196476D01*
X246642Y196367D01*
X246640Y196257D01*
X246652Y196208D01*
X246655Y196159D01*
X246689Y196055D01*
X246715Y195948D01*
X246738Y195904D01*
X246753Y195857D01*
X246812Y195764D01*
X246863Y195667D01*
X246897Y195630D01*
X246923Y195588D01*
X247003Y195513D01*
X247077Y195431D01*
X247119Y195404D01*
X247155Y195370D01*
X247251Y195317D01*
X247343Y195257D01*
X247390Y195240D01*
X247433Y195216D01*
X247540Y195189D01*
X247644Y195153D01*
X247693Y195149D01*
X247741Y195137D01*
X247902Y195127D01*
X249211Y195127D01*
X249289Y195090D01*
X249309Y195086D01*
X249327Y195078D01*
X249465Y195056D01*
X249602Y195030D01*
X249622Y195032D01*
X249642Y195028D01*
X249780Y195041D01*
X249919Y195050D01*
X249938Y195056D01*
X249958Y195058D01*
X250089Y195105D01*
X250221Y195148D01*
X250238Y195159D01*
X250257Y195166D01*
X250373Y195244D01*
X250490Y195318D01*
X250504Y195333D01*
X250521Y195344D01*
X250613Y195449D01*
X250708Y195550D01*
X250718Y195568D01*
X250731Y195583D01*
X250794Y195707D01*
X250862Y195828D01*
X250867Y195848D01*
X250876Y195866D01*
X250906Y196002D01*
X250941Y196136D01*
X250943Y196164D01*
X250945Y196176D01*
X250945Y196196D01*
X250951Y196297D01*
X250951Y219395D01*
X250933Y219540D01*
X250918Y219685D01*
X250913Y219697D01*
X250911Y219711D01*
X250858Y219846D01*
X250807Y219983D01*
X250799Y219994D01*
X250794Y220006D01*
X250709Y220124D01*
X250626Y220244D01*
X250615Y220253D01*
X250608Y220264D01*
X250496Y220357D01*
X250385Y220452D01*
X250373Y220458D01*
X250363Y220467D01*
X250231Y220528D01*
X250100Y220594D01*
X250087Y220596D01*
X250075Y220602D01*
X249933Y220629D01*
X249789Y220660D01*
X249776Y220659D01*
X249763Y220662D01*
X249618Y220653D01*
X249472Y220647D01*
X249459Y220643D01*
X249445Y220642D01*
X249307Y220597D01*
X249167Y220555D01*
X249155Y220548D01*
X249143Y220544D01*
X249020Y220466D01*
X248895Y220391D01*
X248885Y220381D01*
X248874Y220374D01*
X248774Y220268D01*
X248672Y220164D01*
X248662Y220149D01*
X248656Y220142D01*
X248648Y220127D01*
X248583Y220030D01*
X245395Y214508D01*
X239562Y209613D01*
X232407Y207009D01*
X224793Y207009D01*
X217638Y209613D01*
X211805Y214508D01*
X207998Y221102D01*
X206676Y228600D01*
X207998Y236098D01*
X211805Y242692D01*
X217638Y247587D01*
X220118Y248489D01*
X220205Y248534D01*
X220296Y248570D01*
X220346Y248606D01*
X220401Y248635D01*
X220474Y248699D01*
X220553Y248756D01*
X220593Y248804D01*
X220639Y248846D01*
X220694Y248926D01*
X220756Y249001D01*
X220782Y249058D01*
X220817Y249109D01*
X220850Y249201D01*
X220891Y249289D01*
X220903Y249350D01*
X220924Y249409D01*
X220933Y249506D01*
X220951Y249602D01*
X220947Y249664D01*
X220953Y249726D01*
X220937Y249822D01*
X220931Y249919D01*
X220912Y249978D01*
X220902Y250040D01*
X220863Y250129D01*
X220833Y250221D01*
X220800Y250274D01*
X220775Y250331D01*
X220715Y250408D01*
X220663Y250490D01*
X220618Y250533D01*
X220579Y250582D01*
X220502Y250641D01*
X220431Y250708D01*
X220377Y250738D01*
X220328Y250776D01*
X220238Y250815D01*
X220153Y250862D01*
X220093Y250877D01*
X220035Y250902D01*
X219939Y250917D01*
X219845Y250941D01*
X219741Y250948D01*
X219721Y250951D01*
X219710Y250950D01*
X219684Y250951D01*
X200078Y250951D01*
X199940Y250934D01*
X199802Y250921D01*
X199783Y250914D01*
X199763Y250911D01*
X199634Y250860D01*
X199503Y250813D01*
X199486Y250802D01*
X199467Y250794D01*
X199355Y250713D01*
X199240Y250635D01*
X199226Y250619D01*
X199210Y250608D01*
X199121Y250500D01*
X199029Y250396D01*
X199020Y250378D01*
X199007Y250363D01*
X198948Y250237D01*
X198885Y250113D01*
X198880Y250093D01*
X198872Y250075D01*
X198845Y249938D01*
X198815Y249803D01*
X198816Y249782D01*
X198812Y249763D01*
X198820Y249624D01*
X198825Y249485D01*
X198830Y249465D01*
X198832Y249445D01*
X198874Y249313D01*
X198913Y249179D01*
X198923Y249162D01*
X198930Y249143D01*
X199004Y249025D01*
X199075Y248905D01*
X199093Y248884D01*
X199100Y248874D01*
X199115Y248860D01*
X199181Y248785D01*
X200191Y247775D01*
X201931Y243574D01*
X201931Y239026D01*
X200191Y234825D01*
X196975Y231609D01*
X194586Y230620D01*
X194561Y230605D01*
X194533Y230596D01*
X194423Y230527D01*
X194310Y230463D01*
X194289Y230442D01*
X194264Y230426D01*
X194175Y230332D01*
X194082Y230241D01*
X194066Y230216D01*
X194046Y230195D01*
X193983Y230081D01*
X193915Y229970D01*
X193907Y229942D01*
X193892Y229916D01*
X193860Y229790D01*
X193822Y229666D01*
X193820Y229637D01*
X193813Y229608D01*
X193803Y229447D01*
X193803Y187862D01*
X178152Y172211D01*
X174483Y172211D01*
X174414Y172203D01*
X174344Y172204D01*
X174256Y172183D01*
X174167Y172171D01*
X174102Y172146D01*
X174035Y172129D01*
X173955Y172087D01*
X173872Y172054D01*
X173815Y172013D01*
X173754Y171981D01*
X173687Y171920D01*
X173614Y171868D01*
X173570Y171814D01*
X173518Y171767D01*
X173469Y171692D01*
X173412Y171623D01*
X173382Y171559D01*
X173343Y171501D01*
X173314Y171416D01*
X173276Y171335D01*
X173263Y171266D01*
X173240Y171200D01*
X173233Y171111D01*
X173216Y171023D01*
X173221Y170953D01*
X173215Y170883D01*
X173230Y170795D01*
X173236Y170705D01*
X173257Y170639D01*
X173269Y170570D01*
X173306Y170488D01*
X173334Y170403D01*
X173371Y170344D01*
X173400Y170280D01*
X173456Y170210D01*
X173504Y170134D01*
X173555Y170086D01*
X173599Y170032D01*
X173670Y169977D01*
X173736Y169916D01*
X173797Y169882D01*
X173853Y169840D01*
X173997Y169769D01*
X175224Y169261D01*
X175233Y169259D01*
X175241Y169254D01*
X175386Y169217D01*
X175531Y169177D01*
X175540Y169177D01*
X175549Y169175D01*
X175709Y169165D01*
X188291Y169165D01*
X188389Y169177D01*
G37*
G36*
X104860Y3066D02*
X104860Y3066D01*
X104998Y3079D01*
X105017Y3086D01*
X105037Y3089D01*
X105166Y3140D01*
X105297Y3187D01*
X105314Y3198D01*
X105333Y3206D01*
X105445Y3287D01*
X105560Y3365D01*
X105574Y3381D01*
X105590Y3392D01*
X105679Y3500D01*
X105771Y3604D01*
X105780Y3622D01*
X105793Y3637D01*
X105852Y3763D01*
X105915Y3887D01*
X105920Y3907D01*
X105928Y3925D01*
X105955Y4062D01*
X105985Y4197D01*
X105984Y4218D01*
X105988Y4237D01*
X105980Y4376D01*
X105975Y4515D01*
X105970Y4535D01*
X105968Y4555D01*
X105926Y4687D01*
X105887Y4821D01*
X105877Y4838D01*
X105870Y4857D01*
X105796Y4975D01*
X105725Y5095D01*
X105707Y5116D01*
X105700Y5126D01*
X105685Y5140D01*
X105619Y5215D01*
X104609Y6225D01*
X102869Y10426D01*
X102869Y14974D01*
X104609Y19175D01*
X107825Y22391D01*
X110214Y23380D01*
X110239Y23395D01*
X110267Y23404D01*
X110377Y23473D01*
X110490Y23537D01*
X110511Y23558D01*
X110536Y23574D01*
X110625Y23668D01*
X110718Y23759D01*
X110734Y23784D01*
X110754Y23805D01*
X110817Y23919D01*
X110885Y24030D01*
X110893Y24058D01*
X110908Y24084D01*
X110940Y24210D01*
X110978Y24334D01*
X110980Y24363D01*
X110987Y24392D01*
X110997Y24553D01*
X110997Y57150D01*
X110982Y57268D01*
X110975Y57387D01*
X110962Y57425D01*
X110957Y57466D01*
X110914Y57576D01*
X110877Y57689D01*
X110855Y57724D01*
X110840Y57761D01*
X110771Y57857D01*
X110707Y57958D01*
X110677Y57986D01*
X110654Y58019D01*
X110562Y58095D01*
X110475Y58176D01*
X110440Y58196D01*
X110409Y58221D01*
X110301Y58272D01*
X110197Y58330D01*
X110157Y58340D01*
X110121Y58357D01*
X110004Y58379D01*
X109889Y58409D01*
X109829Y58413D01*
X109809Y58417D01*
X109788Y58415D01*
X109728Y58419D01*
X95660Y58419D01*
X95143Y58936D01*
X95104Y58966D01*
X95071Y59003D01*
X94979Y59064D01*
X94892Y59131D01*
X94846Y59151D01*
X94805Y59178D01*
X94701Y59214D01*
X94600Y59257D01*
X94551Y59265D01*
X94504Y59281D01*
X94395Y59290D01*
X94286Y59307D01*
X94236Y59303D01*
X94187Y59306D01*
X94079Y59288D01*
X93969Y59277D01*
X93923Y59261D01*
X93874Y59252D01*
X93773Y59207D01*
X93670Y59170D01*
X93629Y59142D01*
X93584Y59122D01*
X93498Y59053D01*
X93407Y58991D01*
X93374Y58954D01*
X93335Y58923D01*
X93269Y58835D01*
X93196Y58753D01*
X93174Y58709D01*
X93144Y58669D01*
X93073Y58524D01*
X93033Y58428D01*
X93031Y58419D01*
X93026Y58411D01*
X92989Y58266D01*
X92949Y58121D01*
X92949Y58112D01*
X92947Y58103D01*
X92937Y57942D01*
X92937Y53038D01*
X92949Y52939D01*
X92952Y52840D01*
X92965Y52796D01*
X92965Y24237D01*
X92968Y24208D01*
X92966Y24178D01*
X92988Y24050D01*
X93005Y23921D01*
X93015Y23894D01*
X93020Y23865D01*
X93074Y23746D01*
X93122Y23626D01*
X93139Y23602D01*
X93151Y23575D01*
X93232Y23474D01*
X93308Y23368D01*
X93331Y23350D01*
X93350Y23327D01*
X93453Y23249D01*
X93553Y23166D01*
X93580Y23153D01*
X93604Y23135D01*
X93748Y23064D01*
X95375Y22391D01*
X98591Y19175D01*
X100331Y14974D01*
X100331Y10426D01*
X98591Y6225D01*
X97581Y5215D01*
X97496Y5106D01*
X97407Y4999D01*
X97398Y4980D01*
X97386Y4964D01*
X97331Y4837D01*
X97272Y4711D01*
X97268Y4691D01*
X97260Y4672D01*
X97238Y4534D01*
X97212Y4398D01*
X97213Y4378D01*
X97210Y4358D01*
X97223Y4219D01*
X97232Y4081D01*
X97238Y4062D01*
X97240Y4042D01*
X97287Y3910D01*
X97330Y3779D01*
X97340Y3761D01*
X97347Y3742D01*
X97425Y3627D01*
X97500Y3510D01*
X97514Y3496D01*
X97526Y3479D01*
X97630Y3387D01*
X97731Y3292D01*
X97749Y3282D01*
X97764Y3269D01*
X97888Y3206D01*
X98010Y3138D01*
X98029Y3133D01*
X98047Y3124D01*
X98183Y3094D01*
X98318Y3059D01*
X98346Y3057D01*
X98358Y3054D01*
X98378Y3055D01*
X98478Y3049D01*
X104722Y3049D01*
X104860Y3066D01*
G37*
G36*
X130260Y3066D02*
X130260Y3066D01*
X130398Y3079D01*
X130417Y3086D01*
X130437Y3089D01*
X130566Y3140D01*
X130697Y3187D01*
X130714Y3198D01*
X130733Y3206D01*
X130845Y3287D01*
X130960Y3365D01*
X130974Y3381D01*
X130990Y3392D01*
X131079Y3500D01*
X131171Y3604D01*
X131180Y3622D01*
X131193Y3637D01*
X131252Y3763D01*
X131315Y3887D01*
X131320Y3907D01*
X131328Y3925D01*
X131355Y4062D01*
X131385Y4197D01*
X131384Y4218D01*
X131388Y4237D01*
X131380Y4376D01*
X131375Y4515D01*
X131370Y4535D01*
X131368Y4555D01*
X131326Y4687D01*
X131287Y4821D01*
X131277Y4838D01*
X131270Y4857D01*
X131196Y4975D01*
X131125Y5095D01*
X131107Y5116D01*
X131100Y5126D01*
X131085Y5140D01*
X131019Y5215D01*
X130009Y6225D01*
X128269Y10426D01*
X128269Y14974D01*
X130009Y19175D01*
X133225Y22391D01*
X134344Y22854D01*
X134369Y22869D01*
X134397Y22878D01*
X134507Y22947D01*
X134620Y23011D01*
X134641Y23032D01*
X134666Y23048D01*
X134755Y23142D01*
X134848Y23233D01*
X134864Y23258D01*
X134884Y23279D01*
X134947Y23393D01*
X135015Y23504D01*
X135023Y23532D01*
X135038Y23558D01*
X135070Y23684D01*
X135108Y23808D01*
X135110Y23837D01*
X135117Y23866D01*
X135127Y24027D01*
X135127Y56097D01*
X135121Y56146D01*
X135123Y56196D01*
X135101Y56303D01*
X135087Y56412D01*
X135069Y56458D01*
X135059Y56507D01*
X135011Y56606D01*
X134970Y56708D01*
X134941Y56748D01*
X134919Y56793D01*
X134848Y56876D01*
X134784Y56965D01*
X134745Y56997D01*
X134713Y57035D01*
X134623Y57098D01*
X134539Y57168D01*
X134494Y57189D01*
X134453Y57218D01*
X134350Y57257D01*
X134251Y57304D01*
X134202Y57313D01*
X134156Y57331D01*
X134046Y57343D01*
X133939Y57363D01*
X133889Y57360D01*
X133840Y57366D01*
X133731Y57350D01*
X133621Y57344D01*
X133574Y57328D01*
X133525Y57321D01*
X133372Y57269D01*
X132527Y56919D01*
X130617Y56919D01*
X128851Y57650D01*
X128454Y58048D01*
X128376Y58108D01*
X128304Y58176D01*
X128251Y58205D01*
X128203Y58242D01*
X128112Y58282D01*
X128026Y58330D01*
X127967Y58345D01*
X127911Y58369D01*
X127813Y58384D01*
X127718Y58409D01*
X127618Y58415D01*
X127597Y58419D01*
X127585Y58417D01*
X127557Y58419D01*
X118872Y58419D01*
X118754Y58404D01*
X118635Y58397D01*
X118597Y58384D01*
X118556Y58379D01*
X118446Y58336D01*
X118333Y58299D01*
X118298Y58277D01*
X118261Y58262D01*
X118165Y58193D01*
X118064Y58129D01*
X118036Y58099D01*
X118003Y58076D01*
X117927Y57984D01*
X117846Y57897D01*
X117826Y57862D01*
X117801Y57831D01*
X117750Y57723D01*
X117692Y57619D01*
X117682Y57579D01*
X117665Y57543D01*
X117643Y57426D01*
X117613Y57311D01*
X117609Y57251D01*
X117605Y57231D01*
X117607Y57210D01*
X117603Y57150D01*
X117603Y24553D01*
X117606Y24523D01*
X117604Y24494D01*
X117626Y24365D01*
X117643Y24237D01*
X117653Y24210D01*
X117658Y24181D01*
X117712Y24062D01*
X117760Y23941D01*
X117777Y23917D01*
X117789Y23891D01*
X117870Y23789D01*
X117946Y23684D01*
X117969Y23665D01*
X117988Y23642D01*
X118091Y23564D01*
X118191Y23481D01*
X118218Y23469D01*
X118242Y23451D01*
X118386Y23380D01*
X120775Y22391D01*
X123991Y19175D01*
X125731Y14974D01*
X125731Y10426D01*
X123991Y6225D01*
X122981Y5215D01*
X122896Y5106D01*
X122807Y4999D01*
X122798Y4980D01*
X122786Y4964D01*
X122731Y4837D01*
X122672Y4711D01*
X122668Y4691D01*
X122660Y4672D01*
X122638Y4534D01*
X122612Y4398D01*
X122613Y4378D01*
X122610Y4358D01*
X122623Y4219D01*
X122632Y4081D01*
X122638Y4062D01*
X122640Y4042D01*
X122687Y3910D01*
X122730Y3779D01*
X122740Y3761D01*
X122747Y3742D01*
X122825Y3627D01*
X122900Y3510D01*
X122914Y3496D01*
X122926Y3479D01*
X123030Y3387D01*
X123131Y3292D01*
X123149Y3282D01*
X123164Y3269D01*
X123288Y3206D01*
X123410Y3138D01*
X123429Y3133D01*
X123447Y3124D01*
X123583Y3094D01*
X123718Y3059D01*
X123746Y3057D01*
X123758Y3054D01*
X123778Y3055D01*
X123878Y3049D01*
X130122Y3049D01*
X130260Y3066D01*
G37*
%LPC*%
G36*
X74991Y25169D02*
X74991Y25169D01*
X73225Y25900D01*
X71874Y27251D01*
X71143Y29017D01*
X71143Y29578D01*
X71131Y29676D01*
X71128Y29775D01*
X71111Y29834D01*
X71103Y29894D01*
X71067Y29986D01*
X71039Y30081D01*
X71009Y30133D01*
X70986Y30189D01*
X70928Y30269D01*
X70878Y30355D01*
X70812Y30430D01*
X70800Y30447D01*
X70790Y30455D01*
X70772Y30476D01*
X63753Y37494D01*
X63753Y86409D01*
X63741Y86507D01*
X63738Y86606D01*
X63721Y86664D01*
X63713Y86724D01*
X63677Y86817D01*
X63649Y86912D01*
X63619Y86964D01*
X63596Y87020D01*
X63538Y87100D01*
X63488Y87186D01*
X63422Y87261D01*
X63410Y87277D01*
X63400Y87285D01*
X63382Y87306D01*
X62984Y87703D01*
X62253Y89469D01*
X62253Y91379D01*
X62984Y93145D01*
X64335Y94496D01*
X66101Y95227D01*
X68011Y95227D01*
X69777Y94496D01*
X71128Y93145D01*
X71859Y91379D01*
X71859Y89469D01*
X71128Y87703D01*
X70730Y87306D01*
X70670Y87228D01*
X70602Y87156D01*
X70573Y87103D01*
X70536Y87055D01*
X70496Y86964D01*
X70448Y86878D01*
X70433Y86819D01*
X70409Y86763D01*
X70394Y86665D01*
X70369Y86570D01*
X70363Y86470D01*
X70359Y86449D01*
X70361Y86437D01*
X70359Y86409D01*
X70359Y40756D01*
X70371Y40658D01*
X70374Y40559D01*
X70391Y40500D01*
X70399Y40440D01*
X70435Y40348D01*
X70463Y40253D01*
X70493Y40201D01*
X70516Y40145D01*
X70574Y40065D01*
X70624Y39979D01*
X70690Y39904D01*
X70702Y39887D01*
X70712Y39879D01*
X70730Y39858D01*
X75442Y35146D01*
X75521Y35086D01*
X75593Y35018D01*
X75646Y34989D01*
X75694Y34952D01*
X75785Y34912D01*
X75871Y34864D01*
X75930Y34849D01*
X75985Y34825D01*
X76083Y34810D01*
X76179Y34785D01*
X76279Y34779D01*
X76300Y34775D01*
X76312Y34777D01*
X76340Y34775D01*
X76901Y34775D01*
X78667Y34044D01*
X80018Y32693D01*
X80749Y30927D01*
X80749Y29017D01*
X80018Y27251D01*
X78667Y25900D01*
X76901Y25169D01*
X74991Y25169D01*
G37*
%LPD*%
%LPC*%
G36*
X141563Y171219D02*
X141563Y171219D01*
X139797Y171950D01*
X138892Y172856D01*
X138814Y172916D01*
X138742Y172984D01*
X138689Y173013D01*
X138641Y173050D01*
X138550Y173090D01*
X138464Y173138D01*
X138405Y173153D01*
X138349Y173177D01*
X138251Y173192D01*
X138156Y173217D01*
X138056Y173223D01*
X138035Y173227D01*
X138023Y173225D01*
X137995Y173227D01*
X88851Y173227D01*
X88753Y173215D01*
X88654Y173212D01*
X88596Y173195D01*
X88536Y173187D01*
X88443Y173151D01*
X88348Y173123D01*
X88296Y173093D01*
X88240Y173070D01*
X88160Y173012D01*
X88074Y172962D01*
X87999Y172896D01*
X87983Y172884D01*
X87975Y172874D01*
X87954Y172856D01*
X87557Y172458D01*
X85791Y171727D01*
X83881Y171727D01*
X82115Y172458D01*
X80764Y173809D01*
X80033Y175575D01*
X80033Y177485D01*
X80764Y179251D01*
X82115Y180602D01*
X83881Y181333D01*
X85791Y181333D01*
X87557Y180602D01*
X87954Y180204D01*
X88032Y180144D01*
X88104Y180076D01*
X88157Y180047D01*
X88205Y180010D01*
X88296Y179970D01*
X88382Y179922D01*
X88441Y179907D01*
X88497Y179883D01*
X88595Y179868D01*
X88690Y179843D01*
X88790Y179837D01*
X88811Y179833D01*
X88823Y179835D01*
X88851Y179833D01*
X139011Y179833D01*
X139109Y179845D01*
X139208Y179848D01*
X139266Y179865D01*
X139326Y179873D01*
X139419Y179909D01*
X139514Y179937D01*
X139566Y179967D01*
X139622Y179990D01*
X139702Y180048D01*
X139738Y180069D01*
X141563Y180825D01*
X143473Y180825D01*
X145239Y180094D01*
X146590Y178743D01*
X147321Y176977D01*
X147321Y175067D01*
X146590Y173301D01*
X145239Y171950D01*
X143473Y171219D01*
X141563Y171219D01*
G37*
%LPD*%
%LPC*%
G36*
X173989Y84486D02*
X173989Y84486D01*
X173945Y84596D01*
X173909Y84709D01*
X173887Y84744D01*
X173872Y84781D01*
X173802Y84877D01*
X173739Y84978D01*
X173709Y85006D01*
X173685Y85039D01*
X173594Y85115D01*
X173507Y85196D01*
X173472Y85216D01*
X173440Y85241D01*
X173333Y85292D01*
X173228Y85350D01*
X173189Y85360D01*
X173153Y85377D01*
X173036Y85399D01*
X172920Y85429D01*
X172860Y85433D01*
X172840Y85437D01*
X172820Y85435D01*
X172760Y85439D01*
X166449Y85439D01*
X166449Y88340D01*
X166656Y89114D01*
X167057Y89807D01*
X167623Y90373D01*
X167999Y90590D01*
X168099Y90666D01*
X168203Y90737D01*
X168225Y90762D01*
X168252Y90782D01*
X168330Y90881D01*
X168413Y90975D01*
X168429Y91005D01*
X168449Y91032D01*
X168501Y91147D01*
X168558Y91258D01*
X168565Y91291D01*
X168579Y91322D01*
X168600Y91446D01*
X168627Y91569D01*
X168626Y91602D01*
X168632Y91636D01*
X168622Y91761D01*
X168618Y91887D01*
X168608Y91919D01*
X168606Y91952D01*
X168564Y92071D01*
X168529Y92192D01*
X168512Y92221D01*
X168501Y92253D01*
X168432Y92358D01*
X168368Y92466D01*
X168336Y92503D01*
X168325Y92518D01*
X168309Y92532D01*
X168261Y92587D01*
X166957Y93891D01*
X166957Y105989D01*
X168441Y107473D01*
X179539Y107473D01*
X180767Y106245D01*
X180790Y106227D01*
X180809Y106205D01*
X180915Y106130D01*
X181018Y106050D01*
X181045Y106038D01*
X181069Y106021D01*
X181190Y105975D01*
X181310Y105924D01*
X181339Y105919D01*
X181367Y105909D01*
X181496Y105894D01*
X181624Y105874D01*
X181653Y105877D01*
X181683Y105873D01*
X181811Y105892D01*
X181941Y105904D01*
X181968Y105914D01*
X181998Y105918D01*
X182150Y105970D01*
X183195Y106403D01*
X185105Y106403D01*
X186871Y105672D01*
X188222Y104321D01*
X188953Y102555D01*
X188953Y100645D01*
X188222Y98879D01*
X186871Y97528D01*
X185105Y96797D01*
X183195Y96797D01*
X182778Y96970D01*
X182730Y96983D01*
X182685Y97004D01*
X182577Y97025D01*
X182471Y97054D01*
X182421Y97055D01*
X182372Y97064D01*
X182263Y97057D01*
X182153Y97059D01*
X182105Y97047D01*
X182055Y97044D01*
X181951Y97010D01*
X181844Y96985D01*
X181800Y96962D01*
X181753Y96946D01*
X181660Y96887D01*
X181563Y96836D01*
X181526Y96803D01*
X181484Y96776D01*
X181409Y96696D01*
X181327Y96622D01*
X181300Y96581D01*
X181266Y96544D01*
X181213Y96448D01*
X181153Y96356D01*
X181136Y96309D01*
X181112Y96266D01*
X181085Y96160D01*
X181049Y96056D01*
X181045Y96006D01*
X181033Y95958D01*
X181023Y95797D01*
X181023Y93891D01*
X179719Y92587D01*
X179641Y92487D01*
X179559Y92392D01*
X179544Y92362D01*
X179524Y92335D01*
X179474Y92220D01*
X179418Y92108D01*
X179411Y92075D01*
X179397Y92044D01*
X179378Y91919D01*
X179351Y91797D01*
X179353Y91763D01*
X179347Y91730D01*
X179359Y91604D01*
X179364Y91479D01*
X179374Y91446D01*
X179377Y91413D01*
X179420Y91295D01*
X179456Y91174D01*
X179473Y91145D01*
X179485Y91114D01*
X179555Y91010D01*
X179620Y90902D01*
X179644Y90878D01*
X179663Y90851D01*
X179758Y90767D01*
X179847Y90679D01*
X179888Y90652D01*
X179902Y90640D01*
X179921Y90630D01*
X179981Y90590D01*
X180357Y90373D01*
X180923Y89807D01*
X181324Y89114D01*
X181531Y88340D01*
X181531Y85439D01*
X175220Y85439D01*
X175102Y85424D01*
X174983Y85417D01*
X174945Y85404D01*
X174905Y85399D01*
X174794Y85356D01*
X174681Y85319D01*
X174647Y85297D01*
X174609Y85282D01*
X174513Y85213D01*
X174412Y85149D01*
X174384Y85119D01*
X174352Y85096D01*
X174276Y85004D01*
X174194Y84917D01*
X174175Y84882D01*
X174149Y84851D01*
X174098Y84743D01*
X174041Y84639D01*
X174031Y84599D01*
X174013Y84563D01*
X173993Y84456D01*
X173989Y84486D01*
G37*
%LPD*%
G36*
X92153Y99823D02*
X92153Y99823D01*
X92272Y99827D01*
X92311Y99838D01*
X92351Y99842D01*
X92464Y99882D01*
X92578Y99915D01*
X92612Y99936D01*
X92651Y99950D01*
X92749Y100016D01*
X92852Y100077D01*
X92897Y100117D01*
X92914Y100128D01*
X92927Y100143D01*
X92972Y100183D01*
X96422Y103633D01*
X99140Y103633D01*
X99258Y103648D01*
X99377Y103655D01*
X99415Y103668D01*
X99456Y103673D01*
X99566Y103716D01*
X99679Y103753D01*
X99714Y103775D01*
X99751Y103790D01*
X99847Y103859D01*
X99948Y103923D01*
X99976Y103953D01*
X100009Y103976D01*
X100085Y104068D01*
X100166Y104155D01*
X100186Y104190D01*
X100211Y104221D01*
X100262Y104329D01*
X100320Y104433D01*
X100330Y104473D01*
X100347Y104509D01*
X100369Y104626D01*
X100399Y104741D01*
X100403Y104801D01*
X100407Y104821D01*
X100405Y104842D01*
X100409Y104902D01*
X100409Y106116D01*
X101893Y107600D01*
X102870Y107600D01*
X102988Y107615D01*
X103107Y107622D01*
X103145Y107635D01*
X103186Y107640D01*
X103296Y107683D01*
X103409Y107720D01*
X103444Y107742D01*
X103481Y107757D01*
X103577Y107826D01*
X103678Y107890D01*
X103706Y107920D01*
X103739Y107943D01*
X103815Y108035D01*
X103896Y108122D01*
X103916Y108157D01*
X103941Y108188D01*
X103992Y108296D01*
X104050Y108400D01*
X104060Y108440D01*
X104077Y108476D01*
X104099Y108593D01*
X104129Y108708D01*
X104133Y108768D01*
X104137Y108788D01*
X104136Y108806D01*
X104184Y108854D01*
X104269Y108964D01*
X104358Y109071D01*
X104366Y109090D01*
X104379Y109106D01*
X104434Y109233D01*
X104493Y109359D01*
X104497Y109379D01*
X104505Y109398D01*
X104527Y109535D01*
X104553Y109672D01*
X104552Y109692D01*
X104555Y109712D01*
X104542Y109851D01*
X104533Y109989D01*
X104527Y110008D01*
X104525Y110028D01*
X104478Y110160D01*
X104435Y110291D01*
X104424Y110308D01*
X104418Y110328D01*
X104339Y110443D01*
X104265Y110560D01*
X104250Y110574D01*
X104239Y110591D01*
X104135Y110683D01*
X104033Y110778D01*
X104016Y110788D01*
X104001Y110801D01*
X103876Y110865D01*
X103755Y110932D01*
X103735Y110937D01*
X103717Y110946D01*
X103581Y110976D01*
X103447Y111011D01*
X103419Y111013D01*
X103407Y111016D01*
X103386Y111015D01*
X103286Y111021D01*
X90605Y111021D01*
X90507Y111009D01*
X90408Y111006D01*
X90350Y110989D01*
X90290Y110981D01*
X90197Y110945D01*
X90102Y110917D01*
X90050Y110887D01*
X89994Y110864D01*
X89914Y110806D01*
X89828Y110756D01*
X89753Y110690D01*
X89737Y110678D01*
X89729Y110668D01*
X89708Y110650D01*
X89081Y110022D01*
X87315Y109291D01*
X85301Y109291D01*
X85300Y109292D01*
X85230Y109293D01*
X85161Y109304D01*
X85071Y109295D01*
X84982Y109297D01*
X84914Y109280D01*
X84844Y109274D01*
X84760Y109243D01*
X84672Y109223D01*
X84611Y109190D01*
X84545Y109166D01*
X84471Y109116D01*
X84391Y109074D01*
X84340Y109027D01*
X84282Y108988D01*
X84222Y108920D01*
X84156Y108860D01*
X84118Y108802D01*
X84071Y108749D01*
X84031Y108669D01*
X83981Y108594D01*
X83959Y108528D01*
X83927Y108466D01*
X83907Y108379D01*
X83878Y108293D01*
X83872Y108224D01*
X83857Y108156D01*
X83860Y108066D01*
X83853Y107976D01*
X83865Y107908D01*
X83867Y107838D01*
X83892Y107751D01*
X83907Y107663D01*
X83936Y107599D01*
X83955Y107532D01*
X84001Y107455D01*
X84038Y107373D01*
X84081Y107319D01*
X84117Y107258D01*
X84223Y107138D01*
X91177Y100183D01*
X91272Y100110D01*
X91361Y100032D01*
X91397Y100013D01*
X91429Y99988D01*
X91538Y99941D01*
X91644Y99887D01*
X91683Y99878D01*
X91721Y99862D01*
X91838Y99843D01*
X91954Y99817D01*
X91995Y99818D01*
X92035Y99812D01*
X92153Y99823D01*
G37*
%LPC*%
G36*
X40874Y190372D02*
X40874Y190372D01*
X38960Y191165D01*
X37495Y192630D01*
X36702Y194544D01*
X36702Y196616D01*
X37495Y198530D01*
X38960Y199995D01*
X40874Y200788D01*
X42946Y200788D01*
X44860Y199995D01*
X46325Y198530D01*
X47118Y196616D01*
X47118Y194544D01*
X46325Y192630D01*
X44860Y191165D01*
X42946Y190372D01*
X40874Y190372D01*
G37*
%LPD*%
%LPC*%
G36*
X211308Y50672D02*
X211308Y50672D01*
X209394Y51465D01*
X207929Y52930D01*
X207136Y54844D01*
X207136Y56916D01*
X207929Y58830D01*
X209394Y60295D01*
X211308Y61088D01*
X213380Y61088D01*
X215294Y60295D01*
X216759Y58830D01*
X217552Y56916D01*
X217552Y54844D01*
X216759Y52930D01*
X215294Y51465D01*
X213380Y50672D01*
X211308Y50672D01*
G37*
%LPD*%
%LPC*%
G36*
X51815Y15239D02*
X51815Y15239D01*
X51855Y15496D01*
X52436Y17283D01*
X53289Y18957D01*
X54394Y20478D01*
X55722Y21806D01*
X57243Y22911D01*
X58917Y23764D01*
X60704Y24345D01*
X60961Y24385D01*
X60961Y15239D01*
X51815Y15239D01*
G37*
%LPD*%
%LPC*%
G36*
X41509Y143499D02*
X41509Y143499D01*
X41509Y144892D01*
X41717Y145668D01*
X42119Y146363D01*
X42687Y146931D01*
X43382Y147333D01*
X44158Y147541D01*
X49301Y147541D01*
X49301Y143499D01*
X41509Y143499D01*
G37*
%LPD*%
%LPC*%
G36*
X204445Y110501D02*
X204445Y110501D01*
X212237Y110501D01*
X212237Y109108D01*
X212029Y108332D01*
X211627Y107637D01*
X211059Y107069D01*
X210364Y106667D01*
X209588Y106459D01*
X204445Y106459D01*
X204445Y110501D01*
G37*
%LPD*%
%LPC*%
G36*
X196304Y106459D02*
X196304Y106459D01*
X195528Y106667D01*
X194833Y107069D01*
X194265Y107637D01*
X193863Y108332D01*
X193655Y109108D01*
X193655Y110501D01*
X201447Y110501D01*
X201447Y106459D01*
X196304Y106459D01*
G37*
%LPD*%
%LPC*%
G36*
X99146Y157049D02*
X99146Y157049D01*
X99146Y162591D01*
X101547Y162591D01*
X102321Y162384D01*
X103014Y161983D01*
X103580Y161417D01*
X103981Y160724D01*
X104188Y159950D01*
X104188Y157049D01*
X99146Y157049D01*
G37*
%LPD*%
%LPC*%
G36*
X110840Y155661D02*
X110840Y155661D01*
X110840Y158062D01*
X111047Y158836D01*
X111448Y159529D01*
X112014Y160095D01*
X112707Y160496D01*
X113481Y160703D01*
X116382Y160703D01*
X116382Y155661D01*
X110840Y155661D01*
G37*
%LPD*%
%LPC*%
G36*
X176489Y74899D02*
X176489Y74899D01*
X176489Y80441D01*
X181531Y80441D01*
X181531Y77540D01*
X181324Y76766D01*
X180923Y76073D01*
X180357Y75507D01*
X179664Y75106D01*
X178890Y74899D01*
X176489Y74899D01*
G37*
%LPD*%
%LPC*%
G36*
X113481Y145621D02*
X113481Y145621D01*
X112707Y145828D01*
X112014Y146229D01*
X111448Y146795D01*
X111047Y147488D01*
X110840Y148262D01*
X110840Y150663D01*
X116382Y150663D01*
X116382Y145621D01*
X113481Y145621D01*
G37*
%LPD*%
%LPC*%
G36*
X169090Y74899D02*
X169090Y74899D01*
X168316Y75106D01*
X167623Y75507D01*
X167057Y76073D01*
X166661Y76759D01*
X166656Y76765D01*
X166654Y76775D01*
X166449Y77540D01*
X166449Y80441D01*
X171491Y80441D01*
X171491Y74899D01*
X169090Y74899D01*
G37*
%LPD*%
D10*
X101147Y142550D02*
X101147Y132550D01*
X92147Y132550D01*
X92147Y142550D01*
X101147Y142550D01*
X101147Y133500D02*
X92147Y133500D01*
X92147Y134450D02*
X101147Y134450D01*
X101147Y135400D02*
X92147Y135400D01*
X92147Y136350D02*
X101147Y136350D01*
X101147Y137300D02*
X92147Y137300D01*
X92147Y138250D02*
X101147Y138250D01*
X101147Y139200D02*
X92147Y139200D01*
X92147Y140150D02*
X101147Y140150D01*
X101147Y141100D02*
X92147Y141100D01*
X92147Y142050D02*
X101147Y142050D01*
X101147Y149550D02*
X101147Y159550D01*
X101147Y149550D02*
X92147Y149550D01*
X92147Y159550D01*
X101147Y159550D01*
X101147Y150500D02*
X92147Y150500D01*
X92147Y151450D02*
X101147Y151450D01*
X101147Y152400D02*
X92147Y152400D01*
X92147Y153350D02*
X101147Y153350D01*
X101147Y154300D02*
X92147Y154300D01*
X92147Y155250D02*
X101147Y155250D01*
X101147Y156200D02*
X92147Y156200D01*
X92147Y157150D02*
X101147Y157150D01*
X101147Y158100D02*
X92147Y158100D01*
X92147Y159050D02*
X101147Y159050D01*
X130881Y157662D02*
X140881Y157662D01*
X140881Y148662D01*
X130881Y148662D01*
X130881Y157662D01*
X130881Y149612D02*
X140881Y149612D01*
X140881Y150562D02*
X130881Y150562D01*
X130881Y151512D02*
X140881Y151512D01*
X140881Y152462D02*
X130881Y152462D01*
X130881Y153412D02*
X140881Y153412D01*
X140881Y154362D02*
X130881Y154362D01*
X130881Y155312D02*
X140881Y155312D01*
X140881Y156262D02*
X130881Y156262D01*
X130881Y157212D02*
X140881Y157212D01*
X123881Y157662D02*
X113881Y157662D01*
X123881Y157662D02*
X123881Y148662D01*
X113881Y148662D01*
X113881Y157662D01*
X113881Y149612D02*
X123881Y149612D01*
X123881Y150562D02*
X113881Y150562D01*
X113881Y151512D02*
X123881Y151512D01*
X123881Y152462D02*
X113881Y152462D01*
X113881Y153412D02*
X123881Y153412D01*
X123881Y154362D02*
X113881Y154362D01*
X113881Y155312D02*
X123881Y155312D01*
X123881Y156262D02*
X113881Y156262D01*
X113881Y157212D02*
X123881Y157212D01*
X122945Y104940D02*
X122945Y94940D01*
X122945Y104940D02*
X131945Y104940D01*
X131945Y94940D01*
X122945Y94940D01*
X122945Y95890D02*
X131945Y95890D01*
X131945Y96840D02*
X122945Y96840D01*
X122945Y97790D02*
X131945Y97790D01*
X131945Y98740D02*
X122945Y98740D01*
X122945Y99690D02*
X131945Y99690D01*
X131945Y100640D02*
X122945Y100640D01*
X122945Y101590D02*
X131945Y101590D01*
X131945Y102540D02*
X122945Y102540D01*
X122945Y103490D02*
X131945Y103490D01*
X131945Y104440D02*
X122945Y104440D01*
X122945Y87940D02*
X122945Y77940D01*
X122945Y87940D02*
X131945Y87940D01*
X131945Y77940D01*
X122945Y77940D01*
X122945Y78890D02*
X131945Y78890D01*
X131945Y79840D02*
X122945Y79840D01*
X122945Y80790D02*
X131945Y80790D01*
X131945Y81740D02*
X122945Y81740D01*
X122945Y82690D02*
X131945Y82690D01*
X131945Y83640D02*
X122945Y83640D01*
X122945Y84590D02*
X131945Y84590D01*
X131945Y85540D02*
X122945Y85540D01*
X122945Y86490D02*
X131945Y86490D01*
X131945Y87440D02*
X122945Y87440D01*
X142884Y94940D02*
X142884Y104940D01*
X151884Y104940D01*
X151884Y94940D01*
X142884Y94940D01*
X142884Y95890D02*
X151884Y95890D01*
X151884Y96840D02*
X142884Y96840D01*
X142884Y97790D02*
X151884Y97790D01*
X151884Y98740D02*
X142884Y98740D01*
X142884Y99690D02*
X151884Y99690D01*
X151884Y100640D02*
X142884Y100640D01*
X142884Y101590D02*
X151884Y101590D01*
X151884Y102540D02*
X142884Y102540D01*
X142884Y103490D02*
X151884Y103490D01*
X151884Y104440D02*
X142884Y104440D01*
X142884Y87940D02*
X142884Y77940D01*
X142884Y87940D02*
X151884Y87940D01*
X151884Y77940D01*
X142884Y77940D01*
X142884Y78890D02*
X151884Y78890D01*
X151884Y79840D02*
X142884Y79840D01*
X142884Y80790D02*
X151884Y80790D01*
X151884Y81740D02*
X142884Y81740D01*
X142884Y82690D02*
X151884Y82690D01*
X151884Y83640D02*
X142884Y83640D01*
X142884Y84590D02*
X151884Y84590D01*
X151884Y85540D02*
X142884Y85540D01*
X142884Y86490D02*
X151884Y86490D01*
X151884Y87440D02*
X142884Y87440D01*
D11*
X41910Y195580D03*
X212344Y55880D03*
D10*
X102942Y95067D02*
X102942Y105067D01*
X111942Y105067D01*
X111942Y95067D01*
X102942Y95067D01*
X102942Y96017D02*
X111942Y96017D01*
X111942Y96967D02*
X102942Y96967D01*
X102942Y97917D02*
X111942Y97917D01*
X111942Y98867D02*
X102942Y98867D01*
X102942Y99817D02*
X111942Y99817D01*
X111942Y100767D02*
X102942Y100767D01*
X102942Y101717D02*
X111942Y101717D01*
X111942Y102667D02*
X102942Y102667D01*
X102942Y103617D02*
X111942Y103617D01*
X111942Y104567D02*
X102942Y104567D01*
X102942Y88067D02*
X102942Y78067D01*
X102942Y88067D02*
X111942Y88067D01*
X111942Y78067D01*
X102942Y78067D01*
X102942Y79017D02*
X111942Y79017D01*
X111942Y79967D02*
X102942Y79967D01*
X102942Y80917D02*
X111942Y80917D01*
X111942Y81867D02*
X102942Y81867D01*
X102942Y82817D02*
X111942Y82817D01*
X111942Y83767D02*
X102942Y83767D01*
X102942Y84717D02*
X111942Y84717D01*
X111942Y85667D02*
X102942Y85667D01*
X102942Y86617D02*
X111942Y86617D01*
X111942Y87567D02*
X102942Y87567D01*
D12*
X190500Y12700D03*
X165100Y12700D03*
X139700Y12700D03*
X114300Y12700D03*
X88900Y12700D03*
X63500Y12700D03*
X63500Y241300D03*
X88900Y241300D03*
X114300Y241300D03*
X139700Y241300D03*
X165100Y241300D03*
X190500Y241300D03*
D13*
X249216Y104520D02*
X249216Y93480D01*
X230176Y93480D01*
X230176Y104520D01*
X249216Y104520D01*
X249216Y94392D02*
X230176Y94392D01*
X230176Y95304D02*
X249216Y95304D01*
X249216Y96216D02*
X230176Y96216D01*
X230176Y97128D02*
X249216Y97128D01*
X249216Y98040D02*
X230176Y98040D01*
X230176Y98952D02*
X249216Y98952D01*
X249216Y99864D02*
X230176Y99864D01*
X230176Y100776D02*
X249216Y100776D01*
X249216Y101688D02*
X230176Y101688D01*
X230176Y102600D02*
X249216Y102600D01*
X249216Y103512D02*
X230176Y103512D01*
X230176Y104424D02*
X249216Y104424D01*
X249216Y149480D02*
X249216Y160520D01*
X249216Y149480D02*
X230176Y149480D01*
X230176Y160520D01*
X249216Y160520D01*
X249216Y150392D02*
X230176Y150392D01*
X230176Y151304D02*
X249216Y151304D01*
X249216Y152216D02*
X230176Y152216D01*
X230176Y153128D02*
X249216Y153128D01*
X249216Y154040D02*
X230176Y154040D01*
X230176Y154952D02*
X249216Y154952D01*
X249216Y155864D02*
X230176Y155864D01*
X230176Y156776D02*
X249216Y156776D01*
X249216Y157688D02*
X230176Y157688D01*
X230176Y158600D02*
X249216Y158600D01*
X249216Y159512D02*
X230176Y159512D01*
X230176Y160424D02*
X249216Y160424D01*
D14*
X209186Y114490D02*
X209186Y109510D01*
X196706Y109510D01*
X196706Y114490D01*
X209186Y114490D01*
X209186Y110479D02*
X196706Y110479D01*
X196706Y111448D02*
X209186Y111448D01*
X209186Y112417D02*
X196706Y112417D01*
X196706Y113386D02*
X209186Y113386D01*
X209186Y114355D02*
X196706Y114355D01*
X209186Y119510D02*
X209186Y124490D01*
X209186Y119510D02*
X196706Y119510D01*
X196706Y124490D01*
X209186Y124490D01*
X209186Y120479D02*
X196706Y120479D01*
X196706Y121448D02*
X209186Y121448D01*
X209186Y122417D02*
X196706Y122417D01*
X196706Y123386D02*
X209186Y123386D01*
X209186Y124355D02*
X196706Y124355D01*
X209186Y129510D02*
X209186Y134490D01*
X209186Y129510D02*
X196706Y129510D01*
X196706Y134490D01*
X209186Y134490D01*
X209186Y130479D02*
X196706Y130479D01*
X196706Y131448D02*
X209186Y131448D01*
X209186Y132417D02*
X196706Y132417D01*
X196706Y133386D02*
X209186Y133386D01*
X209186Y134355D02*
X196706Y134355D01*
X209186Y139510D02*
X209186Y144490D01*
X209186Y139510D02*
X196706Y139510D01*
X196706Y144490D01*
X209186Y144490D01*
X209186Y140479D02*
X196706Y140479D01*
X196706Y141448D02*
X209186Y141448D01*
X209186Y142417D02*
X196706Y142417D01*
X196706Y143386D02*
X209186Y143386D01*
X209186Y144355D02*
X196706Y144355D01*
D13*
X4530Y149480D02*
X4530Y160520D01*
X23570Y160520D01*
X23570Y149480D01*
X4530Y149480D01*
X4530Y150392D02*
X23570Y150392D01*
X23570Y151304D02*
X4530Y151304D01*
X4530Y152216D02*
X23570Y152216D01*
X23570Y153128D02*
X4530Y153128D01*
X4530Y154040D02*
X23570Y154040D01*
X23570Y154952D02*
X4530Y154952D01*
X4530Y155864D02*
X23570Y155864D01*
X23570Y156776D02*
X4530Y156776D01*
X4530Y157688D02*
X23570Y157688D01*
X23570Y158600D02*
X4530Y158600D01*
X4530Y159512D02*
X23570Y159512D01*
X23570Y160424D02*
X4530Y160424D01*
X4530Y104520D02*
X4530Y93480D01*
X4530Y104520D02*
X23570Y104520D01*
X23570Y93480D01*
X4530Y93480D01*
X4530Y94392D02*
X23570Y94392D01*
X23570Y95304D02*
X4530Y95304D01*
X4530Y96216D02*
X23570Y96216D01*
X23570Y97128D02*
X4530Y97128D01*
X4530Y98040D02*
X23570Y98040D01*
X23570Y98952D02*
X4530Y98952D01*
X4530Y99864D02*
X23570Y99864D01*
X23570Y100776D02*
X4530Y100776D01*
X4530Y101688D02*
X23570Y101688D01*
X23570Y102600D02*
X4530Y102600D01*
X4530Y103512D02*
X23570Y103512D01*
X23570Y104424D02*
X4530Y104424D01*
D14*
X44560Y139510D02*
X44560Y144490D01*
X57040Y144490D01*
X57040Y139510D01*
X44560Y139510D01*
X44560Y140479D02*
X57040Y140479D01*
X57040Y141448D02*
X44560Y141448D01*
X44560Y142417D02*
X57040Y142417D01*
X57040Y143386D02*
X44560Y143386D01*
X44560Y144355D02*
X57040Y144355D01*
X44560Y134490D02*
X44560Y129510D01*
X44560Y134490D02*
X57040Y134490D01*
X57040Y129510D01*
X44560Y129510D01*
X44560Y130479D02*
X57040Y130479D01*
X57040Y131448D02*
X44560Y131448D01*
X44560Y132417D02*
X57040Y132417D01*
X57040Y133386D02*
X44560Y133386D01*
X44560Y134355D02*
X57040Y134355D01*
X44560Y124490D02*
X44560Y119510D01*
X44560Y124490D02*
X57040Y124490D01*
X57040Y119510D01*
X44560Y119510D01*
X44560Y120479D02*
X57040Y120479D01*
X57040Y121448D02*
X44560Y121448D01*
X44560Y122417D02*
X57040Y122417D01*
X57040Y123386D02*
X44560Y123386D01*
X44560Y124355D02*
X57040Y124355D01*
X44560Y114490D02*
X44560Y109510D01*
X44560Y114490D02*
X57040Y114490D01*
X57040Y109510D01*
X44560Y109510D01*
X44560Y110479D02*
X57040Y110479D01*
X57040Y111448D02*
X44560Y111448D01*
X44560Y112417D02*
X57040Y112417D01*
X57040Y113386D02*
X44560Y113386D01*
X44560Y114355D02*
X57040Y114355D01*
D15*
X240594Y184594D02*
X247594Y184594D01*
X240594Y184594D02*
X240594Y191594D01*
X247594Y191594D01*
X247594Y184594D01*
X247594Y187444D02*
X240594Y187444D01*
X240594Y190294D02*
X247594Y190294D01*
X247594Y167054D02*
X240594Y167054D01*
X240594Y174054D01*
X247594Y174054D01*
X247594Y167054D01*
X247594Y169904D02*
X240594Y169904D01*
X240594Y172754D02*
X247594Y172754D01*
D10*
X232592Y176332D02*
X232592Y166332D01*
X223592Y166332D01*
X223592Y176332D01*
X232592Y176332D01*
X232592Y167282D02*
X223592Y167282D01*
X223592Y168232D02*
X232592Y168232D01*
X232592Y169182D02*
X223592Y169182D01*
X223592Y170132D02*
X232592Y170132D01*
X232592Y171082D02*
X223592Y171082D01*
X223592Y172032D02*
X232592Y172032D01*
X232592Y172982D02*
X223592Y172982D01*
X223592Y173932D02*
X232592Y173932D01*
X232592Y174882D02*
X223592Y174882D01*
X223592Y175832D02*
X232592Y175832D01*
X232592Y183332D02*
X232592Y193332D01*
X232592Y183332D02*
X223592Y183332D01*
X223592Y193332D01*
X232592Y193332D01*
X232592Y184282D02*
X223592Y184282D01*
X223592Y185232D02*
X232592Y185232D01*
X232592Y186182D02*
X223592Y186182D01*
X223592Y187132D02*
X232592Y187132D01*
X232592Y188082D02*
X223592Y188082D01*
X223592Y189032D02*
X232592Y189032D01*
X232592Y189982D02*
X223592Y189982D01*
X223592Y190932D02*
X232592Y190932D01*
X232592Y191882D02*
X223592Y191882D01*
X223592Y192832D02*
X232592Y192832D01*
X177220Y140264D02*
X177220Y130264D01*
X168220Y130264D01*
X168220Y140264D01*
X177220Y140264D01*
X177220Y131214D02*
X168220Y131214D01*
X168220Y132164D02*
X177220Y132164D01*
X177220Y133114D02*
X168220Y133114D01*
X168220Y134064D02*
X177220Y134064D01*
X177220Y135014D02*
X168220Y135014D01*
X168220Y135964D02*
X177220Y135964D01*
X177220Y136914D02*
X168220Y136914D01*
X168220Y137864D02*
X177220Y137864D01*
X177220Y138814D02*
X168220Y138814D01*
X168220Y139764D02*
X177220Y139764D01*
X177220Y147264D02*
X177220Y157264D01*
X177220Y147264D02*
X168220Y147264D01*
X168220Y157264D01*
X177220Y157264D01*
X177220Y148214D02*
X168220Y148214D01*
X168220Y149164D02*
X177220Y149164D01*
X177220Y150114D02*
X168220Y150114D01*
X168220Y151064D02*
X177220Y151064D01*
X177220Y152014D02*
X168220Y152014D01*
X168220Y152964D02*
X177220Y152964D01*
X177220Y153914D02*
X168220Y153914D01*
X168220Y154864D02*
X177220Y154864D01*
X177220Y155814D02*
X168220Y155814D01*
X168220Y156764D02*
X177220Y156764D01*
D14*
X140515Y120490D02*
X136735Y120490D01*
X140515Y120490D02*
X140515Y118510D01*
X136735Y118510D01*
X136735Y120490D01*
X136735Y119479D02*
X140515Y119479D01*
X140515Y120448D02*
X136735Y120448D01*
X136735Y125490D02*
X140515Y125490D01*
X140515Y123510D01*
X136735Y123510D01*
X136735Y125490D01*
X136735Y124479D02*
X140515Y124479D01*
X140515Y125448D02*
X136735Y125448D01*
X136735Y130490D02*
X140515Y130490D01*
X140515Y128510D01*
X136735Y128510D01*
X136735Y130490D01*
X136735Y129479D02*
X140515Y129479D01*
X140515Y130448D02*
X136735Y130448D01*
X136735Y135490D02*
X140515Y135490D01*
X140515Y133510D01*
X136735Y133510D01*
X136735Y135490D01*
X136735Y134479D02*
X140515Y134479D01*
X140515Y135448D02*
X136735Y135448D01*
X117265Y133510D02*
X113485Y133510D01*
X113485Y135490D01*
X117265Y135490D01*
X117265Y133510D01*
X117265Y134479D02*
X113485Y134479D01*
X113485Y135448D02*
X117265Y135448D01*
X117265Y128510D02*
X113485Y128510D01*
X113485Y130490D01*
X117265Y130490D01*
X117265Y128510D01*
X117265Y129479D02*
X113485Y129479D01*
X113485Y130448D02*
X117265Y130448D01*
X117265Y123510D02*
X113485Y123510D01*
X113485Y125490D01*
X117265Y125490D01*
X117265Y123510D01*
X117265Y124479D02*
X113485Y124479D01*
X113485Y125448D02*
X117265Y125448D01*
X117265Y118510D02*
X113485Y118510D01*
X113485Y120490D01*
X117265Y120490D01*
X117265Y118510D01*
X117265Y119479D02*
X113485Y119479D01*
X113485Y120448D02*
X117265Y120448D01*
X131010Y138890D02*
X132990Y138890D01*
X132990Y135110D01*
X131010Y135110D01*
X131010Y138890D01*
X131010Y136079D02*
X132990Y136079D01*
X132990Y137048D02*
X131010Y137048D01*
X131010Y138017D02*
X132990Y138017D01*
X127990Y138890D02*
X126010Y138890D01*
X127990Y138890D02*
X127990Y135110D01*
X126010Y135110D01*
X126010Y138890D01*
X126010Y136079D02*
X127990Y136079D01*
X127990Y137048D02*
X126010Y137048D01*
X126010Y138017D02*
X127990Y138017D01*
X122990Y138890D02*
X121010Y138890D01*
X122990Y138890D02*
X122990Y135110D01*
X121010Y135110D01*
X121010Y138890D01*
X121010Y136079D02*
X122990Y136079D01*
X122990Y137048D02*
X121010Y137048D01*
X121010Y138017D02*
X122990Y138017D01*
X122990Y115110D02*
X121010Y115110D01*
X121010Y118890D01*
X122990Y118890D01*
X122990Y115110D01*
X122990Y116079D02*
X121010Y116079D01*
X121010Y117048D02*
X122990Y117048D01*
X122990Y118017D02*
X121010Y118017D01*
X126010Y115110D02*
X127990Y115110D01*
X126010Y115110D02*
X126010Y118890D01*
X127990Y118890D01*
X127990Y115110D01*
X127990Y116079D02*
X126010Y116079D01*
X126010Y117048D02*
X127990Y117048D01*
X127990Y118017D02*
X126010Y118017D01*
X131010Y115110D02*
X132990Y115110D01*
X131010Y115110D02*
X131010Y118890D01*
X132990Y118890D01*
X132990Y115110D01*
X132990Y116079D02*
X131010Y116079D01*
X131010Y117048D02*
X132990Y117048D01*
X132990Y118017D02*
X131010Y118017D01*
D10*
X178490Y87940D02*
X178490Y77940D01*
X169490Y77940D01*
X169490Y87940D01*
X178490Y87940D01*
X178490Y78890D02*
X169490Y78890D01*
X169490Y79840D02*
X178490Y79840D01*
X178490Y80790D02*
X169490Y80790D01*
X169490Y81740D02*
X178490Y81740D01*
X178490Y82690D02*
X169490Y82690D01*
X169490Y83640D02*
X178490Y83640D01*
X178490Y84590D02*
X169490Y84590D01*
X169490Y85540D02*
X178490Y85540D01*
X178490Y86490D02*
X169490Y86490D01*
X169490Y87440D02*
X178490Y87440D01*
X178490Y94940D02*
X178490Y104940D01*
X178490Y94940D02*
X169490Y94940D01*
X169490Y104940D01*
X178490Y104940D01*
X178490Y95890D02*
X169490Y95890D01*
X169490Y96840D02*
X178490Y96840D01*
X178490Y97790D02*
X169490Y97790D01*
X169490Y98740D02*
X178490Y98740D01*
X178490Y99690D02*
X169490Y99690D01*
X169490Y100640D02*
X178490Y100640D01*
X178490Y101590D02*
X169490Y101590D01*
X169490Y102540D02*
X178490Y102540D01*
X178490Y103490D02*
X169490Y103490D01*
X169490Y104440D02*
X178490Y104440D01*
D16*
X127000Y137000D02*
X127000Y139700D01*
X123825Y142875D01*
X122000Y141050D02*
X122000Y137000D01*
X122000Y141050D02*
X123825Y142875D01*
D17*
X173990Y73152D03*
X107950Y153670D03*
X94742Y170942D03*
X130302Y170942D03*
X173990Y182626D03*
X36830Y141986D03*
X55118Y91694D03*
X82042Y66294D03*
X91694Y104902D03*
X126238Y54102D03*
X184658Y111760D03*
X144526Y142240D03*
X127254Y199136D03*
X196850Y224028D03*
X196850Y191516D03*
X185166Y173228D03*
X189738Y143764D03*
X158242Y36576D03*
X179578Y53340D03*
X102870Y54102D03*
X208534Y173736D03*
X215646Y111506D03*
D16*
X123825Y142875D02*
X118881Y147819D01*
X118881Y153162D01*
D17*
X80518Y215646D03*
D16*
X127445Y102840D02*
X127445Y99940D01*
X127445Y102840D02*
X127000Y103284D01*
X127000Y117000D01*
X202946Y142000D02*
X214870Y142000D01*
X221488Y135382D01*
X221488Y95758D01*
X127445Y99940D02*
X120260Y99940D01*
X118110Y97790D01*
X118110Y73660D01*
X115570Y71120D01*
X87630Y81280D02*
X87630Y99060D01*
X74690Y112000D02*
X50800Y112000D01*
X97790Y71120D02*
X115570Y71120D01*
X87630Y99060D02*
X74690Y112000D01*
X87630Y81280D02*
X97790Y71120D01*
X127445Y99940D02*
X136280Y99940D01*
X138430Y97790D01*
X193040Y67310D02*
X221488Y95758D01*
X193040Y67310D02*
X138430Y67310D01*
X138430Y13970D02*
X139700Y12700D01*
X138430Y67310D02*
X138430Y97790D01*
X138430Y67310D02*
X138430Y13970D01*
X147384Y99940D02*
X146522Y100802D01*
X190420Y132000D02*
X202946Y132000D01*
X190420Y132000D02*
X172720Y114300D01*
X162560Y114300D01*
X50800Y122000D02*
X41990Y122000D01*
X38100Y118110D01*
X38100Y105410D01*
X41910Y101600D02*
X74930Y101600D01*
X78740Y97790D01*
X41910Y101600D02*
X38100Y105410D01*
X147384Y99940D02*
X154060Y99940D01*
X78740Y97790D02*
X78740Y80010D01*
X154060Y99940D02*
X160020Y93980D01*
D17*
X160020Y73636D03*
D16*
X97028Y61722D02*
X78740Y80010D01*
X160020Y73636D02*
X160020Y93980D01*
X132000Y113110D02*
X132000Y117000D01*
X132000Y113110D02*
X135890Y109220D01*
X148590Y109220D01*
X157480Y109220D01*
X162560Y114300D01*
X148590Y109220D02*
X148590Y102870D01*
X146522Y100802D01*
X114300Y61722D02*
X97028Y61722D01*
X114300Y61722D02*
X114300Y12700D01*
D17*
X131572Y61722D03*
D16*
X114300Y61722D01*
X122000Y111840D02*
X122000Y117000D01*
X122000Y111840D02*
X120650Y110490D01*
X107442Y107442D02*
X107442Y100330D01*
X107442Y100067D01*
X110490Y110490D02*
X120650Y110490D01*
X110490Y110490D02*
X107442Y107442D01*
D17*
X93980Y95250D03*
D16*
X93980Y96520D02*
X97790Y100330D01*
X93980Y96520D02*
X93980Y95250D01*
X97790Y100330D02*
X107442Y100330D01*
X165100Y27940D02*
X165100Y12700D01*
D17*
X165100Y27940D03*
X75946Y29972D03*
X67056Y90424D03*
D16*
X67056Y38862D01*
X75946Y29972D01*
X138625Y119500D02*
X153846Y119500D01*
X160048Y125702D01*
D17*
X160048Y125702D03*
X186690Y50800D03*
D16*
X186690Y16510D02*
X190500Y12700D01*
X186690Y16510D02*
X186690Y50800D01*
X149900Y124500D02*
X138625Y124500D01*
X163830Y196850D02*
X170180Y203200D01*
D17*
X170180Y203200D03*
D16*
X163830Y138430D02*
X149900Y124500D01*
X163830Y138430D02*
X163830Y196850D01*
X159258Y194829D02*
X159258Y140451D01*
X148307Y129500D01*
X138625Y129500D01*
D17*
X134620Y204470D03*
D16*
X149617Y204470D02*
X159258Y194829D01*
X149617Y204470D02*
X134620Y204470D01*
X138625Y134500D02*
X147200Y134500D01*
X154940Y142240D02*
X154940Y185420D01*
X148590Y191770D01*
X88900Y218440D02*
X88900Y241300D01*
X154940Y142240D02*
X147200Y134500D01*
X148590Y191770D02*
X115570Y191770D01*
X88900Y218440D01*
X114300Y129500D02*
X115375Y129500D01*
X114300Y129500D02*
X109260Y129500D01*
D17*
X72390Y125730D03*
X72390Y138580D03*
D16*
X72390Y232410D01*
X63500Y241300D01*
X72390Y125730D02*
X101600Y125730D01*
X105370Y129500D02*
X109260Y129500D01*
X105370Y129500D02*
X101600Y125730D01*
D18*
X80010Y132000D02*
X50800Y132000D01*
X80010Y132000D02*
X90344Y132000D01*
X95894Y137550D02*
X96647Y137550D01*
X95894Y137550D02*
X90344Y132000D01*
X99697Y134500D02*
X115375Y134500D01*
X99697Y134500D02*
X96647Y137550D01*
X132000Y137000D02*
X132000Y142160D01*
X135881Y146041D02*
X135881Y153162D01*
X135881Y146041D02*
X132000Y142160D01*
X88900Y50800D02*
X88900Y12700D01*
X135881Y153162D02*
X135881Y165091D01*
X135890Y165100D01*
D17*
X135890Y165100D03*
X172720Y165100D03*
D18*
X172720Y152264D01*
X172720Y165100D02*
X190500Y165100D01*
X213732Y188332D02*
X228092Y188332D01*
X197485Y172085D02*
X190500Y165100D01*
X197485Y172085D02*
X213732Y188332D01*
D17*
X90170Y165100D03*
D18*
X83058Y165100D01*
X80010Y162052D01*
X80010Y132000D01*
X88872Y50828D02*
X88900Y50800D01*
X88872Y50828D02*
X88872Y60932D01*
D17*
X88872Y60932D03*
X96520Y81280D03*
D18*
X105655Y81280D02*
X107442Y83067D01*
X105655Y81280D02*
X96520Y81280D01*
X202946Y122000D02*
X214550Y122000D01*
X214630Y121920D01*
D17*
X214630Y121920D03*
X214630Y153162D03*
D18*
X214630Y154940D01*
X197485Y172085D01*
D17*
X65468Y124676D03*
D16*
X65468Y121166D02*
X67230Y119404D01*
X65468Y121166D02*
X65468Y124676D01*
D17*
X65580Y139700D03*
D16*
X65580Y220170D01*
X63500Y222250D01*
D17*
X63500Y222250D03*
D16*
X67230Y119404D02*
X100662Y119404D01*
X105758Y124500D02*
X115375Y124500D01*
X105758Y124500D02*
X100662Y119404D01*
X127445Y82940D02*
X127445Y73597D01*
X127000Y73152D01*
D17*
X127000Y73152D03*
D16*
X147384Y72938D02*
X147384Y82940D01*
X147384Y72938D02*
X147320Y72874D01*
D17*
X147320Y72874D03*
D19*
X228870Y170554D02*
X244094Y170554D01*
X228870Y170554D02*
X228092Y171332D01*
D17*
X242570Y199390D03*
D16*
X242570Y189618D02*
X244094Y188094D01*
X242570Y189618D02*
X242570Y199390D01*
X184032Y135264D02*
X172720Y135264D01*
X184032Y135264D02*
X184912Y136144D01*
D17*
X184912Y136144D03*
X86360Y114094D03*
D16*
X107416Y119500D02*
X115375Y119500D01*
X107416Y119500D02*
X102240Y114324D01*
X86590Y114324D02*
X86360Y114094D01*
X86590Y114324D02*
X102240Y114324D01*
D17*
X84836Y176530D03*
D16*
X142010Y176530D02*
X142518Y176022D01*
X142010Y176530D02*
X84836Y176530D01*
D17*
X142518Y176022D03*
X170180Y175514D03*
D16*
X176784Y175514D01*
X190500Y189230D02*
X190500Y241300D01*
X190500Y189230D02*
X176784Y175514D01*
D17*
X184150Y101600D03*
D16*
X177800Y101600D01*
X175650Y101600D02*
X173990Y99940D01*
X175650Y101600D02*
X177800Y101600D01*
M02*
