G04 EAGLE Gerber RS-274X export*
G75*
%MOMM*%
%FSLAX34Y34*%
%LPD*%
%INSoldermask Bottom*%
%IPPOS*%
%AMOC8*
5,1,8,0,0,1.08239X$1,22.5*%
G01*
%ADD10C,0.228344*%
%ADD11C,3.175000*%
%ADD12C,2.006600*%
%ADD13C,0.762000*%

G36*
X175642Y129552D02*
X175642Y129552D01*
X175708Y129554D01*
X175752Y129572D01*
X175798Y129580D01*
X175855Y129614D01*
X175916Y129639D01*
X175951Y129670D01*
X175992Y129695D01*
X176033Y129746D01*
X176082Y129790D01*
X176103Y129832D01*
X176133Y129869D01*
X176154Y129931D01*
X176184Y129990D01*
X176192Y130044D01*
X176205Y130081D01*
X176204Y130121D01*
X176212Y130175D01*
X176212Y133985D01*
X176200Y134050D01*
X176198Y134116D01*
X176180Y134159D01*
X176172Y134206D01*
X176139Y134263D01*
X176114Y134323D01*
X176082Y134358D01*
X176058Y134399D01*
X176007Y134441D01*
X175962Y134489D01*
X175920Y134511D01*
X175884Y134540D01*
X175822Y134561D01*
X175763Y134592D01*
X175708Y134600D01*
X175671Y134612D01*
X175632Y134611D01*
X175578Y134619D01*
X173038Y134619D01*
X172973Y134608D01*
X172907Y134606D01*
X172863Y134588D01*
X172817Y134580D01*
X172760Y134546D01*
X172699Y134521D01*
X172664Y134490D01*
X172623Y134465D01*
X172582Y134414D01*
X172533Y134370D01*
X172512Y134328D01*
X172482Y134291D01*
X172461Y134229D01*
X172431Y134170D01*
X172423Y134116D01*
X172410Y134079D01*
X172410Y134075D01*
X172410Y134074D01*
X172411Y134039D01*
X172403Y133985D01*
X172403Y130175D01*
X172415Y130110D01*
X172417Y130044D01*
X172435Y130001D01*
X172443Y129954D01*
X172476Y129897D01*
X172501Y129837D01*
X172533Y129802D01*
X172557Y129761D01*
X172608Y129720D01*
X172653Y129671D01*
X172695Y129649D01*
X172731Y129620D01*
X172794Y129599D01*
X172852Y129568D01*
X172907Y129560D01*
X172944Y129548D01*
X172983Y129549D01*
X173038Y129541D01*
X175578Y129541D01*
X175642Y129552D01*
G37*
G36*
X141670Y217563D02*
X141670Y217563D01*
X141736Y217565D01*
X141779Y217583D01*
X141826Y217591D01*
X141883Y217625D01*
X141943Y217650D01*
X141978Y217681D01*
X142019Y217706D01*
X142061Y217757D01*
X142109Y217801D01*
X142131Y217843D01*
X142160Y217880D01*
X142181Y217942D01*
X142212Y218001D01*
X142220Y218055D01*
X142232Y218092D01*
X142231Y218132D01*
X142239Y218186D01*
X142239Y220726D01*
X142228Y220791D01*
X142226Y220857D01*
X142208Y220900D01*
X142200Y220947D01*
X142166Y221004D01*
X142141Y221064D01*
X142110Y221099D01*
X142085Y221140D01*
X142034Y221182D01*
X141990Y221230D01*
X141948Y221252D01*
X141911Y221281D01*
X141849Y221302D01*
X141790Y221333D01*
X141736Y221341D01*
X141699Y221353D01*
X141659Y221352D01*
X141605Y221360D01*
X137795Y221360D01*
X137730Y221349D01*
X137664Y221347D01*
X137621Y221329D01*
X137574Y221321D01*
X137517Y221287D01*
X137457Y221262D01*
X137422Y221231D01*
X137381Y221206D01*
X137340Y221155D01*
X137291Y221111D01*
X137269Y221069D01*
X137240Y221032D01*
X137219Y220970D01*
X137188Y220911D01*
X137180Y220857D01*
X137168Y220820D01*
X137168Y220817D01*
X137169Y220780D01*
X137161Y220726D01*
X137161Y218186D01*
X137172Y218121D01*
X137174Y218055D01*
X137192Y218012D01*
X137200Y217965D01*
X137234Y217908D01*
X137259Y217848D01*
X137290Y217813D01*
X137315Y217772D01*
X137366Y217731D01*
X137410Y217682D01*
X137452Y217660D01*
X137489Y217631D01*
X137551Y217610D01*
X137610Y217579D01*
X137664Y217571D01*
X137701Y217559D01*
X137741Y217560D01*
X137795Y217552D01*
X141605Y217552D01*
X141670Y217563D01*
G37*
G36*
X166816Y217309D02*
X166816Y217309D01*
X166882Y217311D01*
X166925Y217329D01*
X166972Y217337D01*
X167029Y217371D01*
X167089Y217396D01*
X167124Y217427D01*
X167165Y217452D01*
X167207Y217503D01*
X167255Y217547D01*
X167277Y217589D01*
X167306Y217626D01*
X167327Y217688D01*
X167358Y217747D01*
X167366Y217801D01*
X167378Y217838D01*
X167377Y217878D01*
X167385Y217932D01*
X167385Y220472D01*
X167374Y220537D01*
X167372Y220603D01*
X167354Y220646D01*
X167346Y220693D01*
X167312Y220750D01*
X167287Y220810D01*
X167256Y220845D01*
X167231Y220886D01*
X167180Y220928D01*
X167136Y220976D01*
X167094Y220998D01*
X167057Y221027D01*
X166995Y221048D01*
X166936Y221079D01*
X166882Y221087D01*
X166845Y221099D01*
X166805Y221098D01*
X166751Y221106D01*
X162941Y221106D01*
X162876Y221095D01*
X162810Y221093D01*
X162767Y221075D01*
X162720Y221067D01*
X162663Y221033D01*
X162603Y221008D01*
X162568Y220977D01*
X162527Y220952D01*
X162486Y220901D01*
X162437Y220857D01*
X162415Y220815D01*
X162386Y220778D01*
X162365Y220716D01*
X162334Y220657D01*
X162326Y220603D01*
X162314Y220566D01*
X162314Y220563D01*
X162315Y220526D01*
X162307Y220472D01*
X162307Y217932D01*
X162318Y217867D01*
X162320Y217801D01*
X162338Y217758D01*
X162346Y217711D01*
X162380Y217654D01*
X162405Y217594D01*
X162436Y217559D01*
X162461Y217518D01*
X162512Y217477D01*
X162556Y217428D01*
X162598Y217406D01*
X162635Y217377D01*
X162697Y217356D01*
X162756Y217325D01*
X162810Y217317D01*
X162847Y217305D01*
X162887Y217306D01*
X162941Y217298D01*
X166751Y217298D01*
X166816Y217309D01*
G37*
G36*
X238952Y183527D02*
X238952Y183527D01*
X239018Y183529D01*
X239061Y183547D01*
X239108Y183555D01*
X239165Y183589D01*
X239225Y183614D01*
X239260Y183645D01*
X239301Y183670D01*
X239343Y183721D01*
X239391Y183765D01*
X239413Y183807D01*
X239442Y183844D01*
X239463Y183906D01*
X239494Y183965D01*
X239502Y184019D01*
X239514Y184056D01*
X239513Y184096D01*
X239521Y184150D01*
X239521Y186690D01*
X239510Y186755D01*
X239508Y186821D01*
X239490Y186864D01*
X239482Y186911D01*
X239448Y186968D01*
X239423Y187028D01*
X239392Y187063D01*
X239367Y187104D01*
X239316Y187146D01*
X239272Y187194D01*
X239230Y187216D01*
X239193Y187245D01*
X239131Y187266D01*
X239072Y187297D01*
X239018Y187305D01*
X238981Y187317D01*
X238941Y187316D01*
X238887Y187324D01*
X235077Y187324D01*
X235012Y187313D01*
X234946Y187311D01*
X234903Y187293D01*
X234856Y187285D01*
X234799Y187251D01*
X234739Y187226D01*
X234704Y187195D01*
X234663Y187170D01*
X234622Y187119D01*
X234573Y187075D01*
X234551Y187033D01*
X234522Y186996D01*
X234501Y186934D01*
X234470Y186875D01*
X234462Y186821D01*
X234450Y186784D01*
X234450Y186781D01*
X234451Y186744D01*
X234443Y186690D01*
X234443Y184150D01*
X234454Y184085D01*
X234456Y184019D01*
X234474Y183976D01*
X234482Y183929D01*
X234516Y183872D01*
X234541Y183812D01*
X234572Y183777D01*
X234597Y183736D01*
X234648Y183695D01*
X234692Y183646D01*
X234734Y183624D01*
X234771Y183595D01*
X234833Y183574D01*
X234892Y183543D01*
X234946Y183535D01*
X234983Y183523D01*
X235023Y183524D01*
X235077Y183516D01*
X238887Y183516D01*
X238952Y183527D01*
G37*
G36*
X124906Y98247D02*
X124906Y98247D01*
X124972Y98249D01*
X125015Y98267D01*
X125062Y98275D01*
X125119Y98308D01*
X125179Y98333D01*
X125214Y98365D01*
X125255Y98389D01*
X125297Y98440D01*
X125345Y98485D01*
X125367Y98527D01*
X125396Y98563D01*
X125417Y98626D01*
X125448Y98684D01*
X125456Y98739D01*
X125468Y98776D01*
X125467Y98815D01*
X125475Y98870D01*
X125475Y101410D01*
X125464Y101474D01*
X125462Y101540D01*
X125444Y101584D01*
X125436Y101630D01*
X125402Y101687D01*
X125377Y101748D01*
X125346Y101783D01*
X125321Y101824D01*
X125270Y101865D01*
X125226Y101914D01*
X125184Y101935D01*
X125147Y101965D01*
X125085Y101986D01*
X125026Y102016D01*
X124972Y102024D01*
X124935Y102037D01*
X124895Y102036D01*
X124841Y102044D01*
X121031Y102044D01*
X120966Y102032D01*
X120900Y102030D01*
X120857Y102012D01*
X120810Y102004D01*
X120753Y101971D01*
X120693Y101946D01*
X120658Y101914D01*
X120617Y101890D01*
X120576Y101839D01*
X120527Y101794D01*
X120505Y101752D01*
X120476Y101716D01*
X120455Y101654D01*
X120424Y101595D01*
X120416Y101540D01*
X120404Y101503D01*
X120404Y101500D01*
X120405Y101463D01*
X120397Y101410D01*
X120397Y98870D01*
X120408Y98805D01*
X120410Y98739D01*
X120428Y98695D01*
X120436Y98649D01*
X120470Y98592D01*
X120495Y98531D01*
X120526Y98496D01*
X120551Y98455D01*
X120602Y98414D01*
X120646Y98365D01*
X120688Y98344D01*
X120725Y98314D01*
X120787Y98293D01*
X120846Y98263D01*
X120900Y98255D01*
X120937Y98242D01*
X120977Y98243D01*
X121031Y98235D01*
X124841Y98235D01*
X124906Y98247D01*
G37*
G36*
X135066Y98247D02*
X135066Y98247D01*
X135132Y98249D01*
X135175Y98267D01*
X135222Y98275D01*
X135279Y98308D01*
X135339Y98333D01*
X135374Y98365D01*
X135415Y98389D01*
X135457Y98440D01*
X135505Y98485D01*
X135527Y98527D01*
X135556Y98563D01*
X135577Y98626D01*
X135608Y98684D01*
X135616Y98739D01*
X135628Y98776D01*
X135627Y98815D01*
X135635Y98870D01*
X135635Y101410D01*
X135624Y101474D01*
X135622Y101540D01*
X135604Y101584D01*
X135596Y101630D01*
X135562Y101687D01*
X135537Y101748D01*
X135506Y101783D01*
X135481Y101824D01*
X135430Y101865D01*
X135386Y101914D01*
X135344Y101935D01*
X135307Y101965D01*
X135245Y101986D01*
X135186Y102016D01*
X135132Y102024D01*
X135095Y102037D01*
X135055Y102036D01*
X135001Y102044D01*
X131191Y102044D01*
X131126Y102032D01*
X131060Y102030D01*
X131017Y102012D01*
X130970Y102004D01*
X130913Y101971D01*
X130853Y101946D01*
X130818Y101914D01*
X130777Y101890D01*
X130736Y101839D01*
X130687Y101794D01*
X130665Y101752D01*
X130636Y101716D01*
X130615Y101654D01*
X130584Y101595D01*
X130576Y101540D01*
X130564Y101503D01*
X130564Y101500D01*
X130565Y101463D01*
X130557Y101410D01*
X130557Y98870D01*
X130568Y98805D01*
X130570Y98739D01*
X130588Y98695D01*
X130596Y98649D01*
X130630Y98592D01*
X130655Y98531D01*
X130686Y98496D01*
X130711Y98455D01*
X130762Y98414D01*
X130806Y98365D01*
X130848Y98344D01*
X130885Y98314D01*
X130947Y98293D01*
X131006Y98263D01*
X131060Y98255D01*
X131097Y98242D01*
X131137Y98243D01*
X131191Y98235D01*
X135001Y98235D01*
X135066Y98247D01*
G37*
D10*
X180152Y119382D02*
X180152Y113790D01*
X168464Y113790D01*
X168464Y119382D01*
X180152Y119382D01*
X180152Y115959D02*
X168464Y115959D01*
X168464Y118128D02*
X180152Y118128D01*
X180152Y124204D02*
X180152Y129796D01*
X180152Y124204D02*
X168464Y124204D01*
X168464Y129796D01*
X180152Y129796D01*
X180152Y126373D02*
X168464Y126373D01*
X168464Y128542D02*
X180152Y128542D01*
X180152Y134618D02*
X180152Y140210D01*
X180152Y134618D02*
X168464Y134618D01*
X168464Y140210D01*
X180152Y140210D01*
X180152Y136787D02*
X168464Y136787D01*
X168464Y138956D02*
X180152Y138956D01*
D11*
X25400Y228600D03*
X25400Y25400D03*
X228600Y25400D03*
D10*
X120398Y94296D02*
X114806Y94296D01*
X114806Y105984D01*
X120398Y105984D01*
X120398Y94296D01*
X120398Y96465D02*
X114806Y96465D01*
X114806Y98634D02*
X120398Y98634D01*
X120398Y100803D02*
X114806Y100803D01*
X114806Y102972D02*
X120398Y102972D01*
X120398Y105141D02*
X114806Y105141D01*
X125220Y94296D02*
X130812Y94296D01*
X125220Y94296D02*
X125220Y105984D01*
X130812Y105984D01*
X130812Y94296D01*
X130812Y96465D02*
X125220Y96465D01*
X125220Y98634D02*
X130812Y98634D01*
X130812Y100803D02*
X125220Y100803D01*
X125220Y102972D02*
X130812Y102972D01*
X130812Y105141D02*
X125220Y105141D01*
X135634Y94296D02*
X141226Y94296D01*
X135634Y94296D02*
X135634Y105984D01*
X141226Y105984D01*
X141226Y94296D01*
X141226Y96465D02*
X135634Y96465D01*
X135634Y98634D02*
X141226Y98634D01*
X141226Y100803D02*
X135634Y100803D01*
X135634Y102972D02*
X141226Y102972D01*
X141226Y105141D02*
X135634Y105141D01*
D12*
X190500Y12700D03*
X165100Y12700D03*
X139700Y12700D03*
X114300Y12700D03*
X88900Y12700D03*
X63500Y12700D03*
D10*
X156843Y213358D02*
X162435Y213358D01*
X156843Y213358D02*
X156843Y225046D01*
X162435Y225046D01*
X162435Y213358D01*
X162435Y215527D02*
X156843Y215527D01*
X156843Y217696D02*
X162435Y217696D01*
X162435Y219865D02*
X156843Y219865D01*
X156843Y222034D02*
X162435Y222034D01*
X162435Y224203D02*
X156843Y224203D01*
X167257Y213358D02*
X172849Y213358D01*
X167257Y213358D02*
X167257Y225046D01*
X172849Y225046D01*
X172849Y213358D01*
X172849Y215527D02*
X167257Y215527D01*
X167257Y217696D02*
X172849Y217696D01*
X172849Y219865D02*
X167257Y219865D01*
X167257Y222034D02*
X172849Y222034D01*
X172849Y224203D02*
X167257Y224203D01*
X147703Y225300D02*
X142111Y225300D01*
X147703Y225300D02*
X147703Y213612D01*
X142111Y213612D01*
X142111Y225300D01*
X142111Y215781D02*
X147703Y215781D01*
X147703Y217950D02*
X142111Y217950D01*
X142111Y220119D02*
X147703Y220119D01*
X147703Y222288D02*
X142111Y222288D01*
X142111Y224457D02*
X147703Y224457D01*
X137289Y225300D02*
X131697Y225300D01*
X137289Y225300D02*
X137289Y213612D01*
X131697Y213612D01*
X131697Y225300D01*
X131697Y215781D02*
X137289Y215781D01*
X137289Y217950D02*
X131697Y217950D01*
X131697Y220119D02*
X137289Y220119D01*
X137289Y222288D02*
X131697Y222288D01*
X131697Y224457D02*
X137289Y224457D01*
D12*
X63500Y241300D03*
X88900Y241300D03*
X114300Y241300D03*
X139700Y241300D03*
X165100Y241300D03*
X190500Y241300D03*
D13*
X41910Y195580D03*
X212344Y55880D03*
D10*
X228979Y179576D02*
X234571Y179576D01*
X228979Y179576D02*
X228979Y191264D01*
X234571Y191264D01*
X234571Y179576D01*
X234571Y181745D02*
X228979Y181745D01*
X228979Y183914D02*
X234571Y183914D01*
X234571Y186083D02*
X228979Y186083D01*
X228979Y188252D02*
X234571Y188252D01*
X234571Y190421D02*
X228979Y190421D01*
X239393Y179576D02*
X244985Y179576D01*
X239393Y179576D02*
X239393Y191264D01*
X244985Y191264D01*
X244985Y179576D01*
X244985Y181745D02*
X239393Y181745D01*
X239393Y183914D02*
X244985Y183914D01*
X244985Y186083D02*
X239393Y186083D01*
X239393Y188252D02*
X244985Y188252D01*
X244985Y190421D02*
X239393Y190421D01*
D11*
X228600Y228600D03*
M02*
