M48
;GenerationSoftware,Autodesk,EAGLE,9.6.2*%
;CreationDate,2022-04-08T18:10:38Z*%
FMAT,2
ICI,OFF
METRIC,TZ,000.000
T3C0.300
T2C1.016
T1C3.048
%
G90
M71
T1
X2540Y22860
X2540Y2540
X22860Y2540
X22860Y22860
T2
X19050Y24130
X11430Y1270
X19050Y1270
X16510Y1270
X13970Y1270
X8890Y1270
X6350Y1270
X6350Y24130
X8890Y24130
X11430Y24130
X13970Y24130
X16510Y24130
T3
X18974Y14376
X15824Y3658
X17958Y5334
X10287Y5410
X20853Y17374
X21565Y11151
X8052Y21565
X16002Y7364
X13157Y6172
X9398Y9525
X16510Y2794
X7595Y2997
X6706Y9042
X16005Y12570
X18669Y5080
X17018Y20320
X13462Y20447
X7239Y12573
X7239Y13858
X9169Y10490
X17272Y16510
X9017Y16510
X8887Y6093
X9652Y8128
X21463Y12192
X21463Y15316
X6547Y12468
X6558Y13970
X6350Y22225
X12700Y7315
X14732Y7287
X24257Y19939
X18491Y13614
X8636Y11409
X8484Y17653
X14252Y17602
X17018Y17551
X17399Y7315
X10795Y15367
X9474Y17094
X13030Y17094
X17399Y18263
X3683Y14199
X5512Y9169
X8204Y6629
X13589Y16510
X12624Y5410
X18466Y11176
X14453Y14224
X12725Y19914
X19685Y22403
X19685Y19152
X18517Y17323
X18415Y10160
M30