G04 EAGLE Gerber RS-274X export*
G75*
%MOMM*%
%FSLAX34Y34*%
%LPD*%
%INSilkscreen Top*%
%IPPOS*%
%AMOC8*
5,1,8,0,0,1.08239X$1,22.5*%
G01*
%ADD10C,0.254000*%
%ADD11C,0.203200*%
%ADD12C,0.560987*%

G36*
X190704Y177626D02*
X190704Y177626D01*
X190707Y177623D01*
X192107Y177823D01*
X192112Y177828D01*
X192116Y177825D01*
X192715Y178025D01*
X193414Y178225D01*
X193418Y178230D01*
X193422Y178228D01*
X194022Y178528D01*
X194025Y178535D01*
X194031Y178534D01*
X195031Y179334D01*
X195032Y179338D01*
X195035Y179337D01*
X196035Y180337D01*
X196036Y180349D01*
X196044Y180350D01*
X196944Y182150D01*
X196943Y182157D01*
X196947Y182158D01*
X197147Y182858D01*
X197146Y182863D01*
X197149Y182865D01*
X197249Y183564D01*
X197349Y184164D01*
X197346Y184169D01*
X197349Y184172D01*
X197349Y234372D01*
X197313Y234419D01*
X197310Y234417D01*
X197308Y234421D01*
X196708Y234521D01*
X196703Y234518D01*
X196700Y234521D01*
X183800Y234521D01*
X183753Y234485D01*
X183754Y234483D01*
X183752Y234482D01*
X183652Y233982D01*
X183653Y233979D01*
X183653Y233978D01*
X183655Y233975D01*
X183651Y233972D01*
X183651Y184372D01*
X183654Y184367D01*
X183651Y184364D01*
X183751Y183764D01*
X183851Y183065D01*
X183951Y182365D01*
X183959Y182357D01*
X183956Y182350D01*
X184856Y180550D01*
X184863Y180547D01*
X184862Y180541D01*
X185262Y180041D01*
X185266Y180040D01*
X185265Y180037D01*
X186265Y179037D01*
X186272Y179036D01*
X186273Y179031D01*
X186873Y178631D01*
X186877Y178631D01*
X186878Y178628D01*
X188078Y178028D01*
X188083Y178029D01*
X188084Y178025D01*
X188684Y177825D01*
X188691Y177827D01*
X188693Y177823D01*
X190093Y177623D01*
X190098Y177626D01*
X190100Y177623D01*
X190700Y177623D01*
X190704Y177626D01*
G37*
G36*
X165304Y177118D02*
X165304Y177118D01*
X165307Y177115D01*
X166707Y177315D01*
X166712Y177320D01*
X166716Y177317D01*
X167315Y177517D01*
X168014Y177717D01*
X168018Y177722D01*
X168022Y177720D01*
X168622Y178020D01*
X168625Y178027D01*
X168631Y178026D01*
X169631Y178826D01*
X169632Y178830D01*
X169635Y178829D01*
X170635Y179829D01*
X170636Y179841D01*
X170644Y179842D01*
X171544Y181642D01*
X171543Y181649D01*
X171547Y181650D01*
X171747Y182350D01*
X171746Y182355D01*
X171749Y182357D01*
X171849Y183056D01*
X171949Y183656D01*
X171946Y183661D01*
X171949Y183664D01*
X171949Y233864D01*
X171913Y233911D01*
X171910Y233909D01*
X171908Y233913D01*
X171308Y234013D01*
X171303Y234010D01*
X171300Y234013D01*
X158400Y234013D01*
X158353Y233977D01*
X158354Y233975D01*
X158352Y233974D01*
X158252Y233474D01*
X158253Y233471D01*
X158253Y233470D01*
X158255Y233467D01*
X158251Y233464D01*
X158251Y183864D01*
X158254Y183859D01*
X158251Y183856D01*
X158351Y183256D01*
X158451Y182557D01*
X158551Y181857D01*
X158559Y181849D01*
X158556Y181842D01*
X159456Y180042D01*
X159463Y180039D01*
X159462Y180033D01*
X159862Y179533D01*
X159866Y179532D01*
X159865Y179529D01*
X160865Y178529D01*
X160872Y178528D01*
X160873Y178523D01*
X161473Y178123D01*
X161477Y178123D01*
X161478Y178120D01*
X162678Y177520D01*
X162683Y177521D01*
X162684Y177517D01*
X163284Y177317D01*
X163291Y177319D01*
X163293Y177315D01*
X164693Y177115D01*
X164698Y177118D01*
X164700Y177115D01*
X165300Y177115D01*
X165304Y177118D01*
G37*
G36*
X171847Y21051D02*
X171847Y21051D01*
X171845Y21054D01*
X171849Y21056D01*
X171949Y21656D01*
X171946Y21661D01*
X171949Y21664D01*
X171949Y60364D01*
X171946Y60369D01*
X171949Y60372D01*
X171849Y60972D01*
X171845Y60975D01*
X171847Y60978D01*
X171647Y61678D01*
X171646Y61679D01*
X171647Y61680D01*
X171447Y62279D01*
X171247Y62978D01*
X171236Y62986D01*
X171238Y62995D01*
X170840Y63493D01*
X170441Y64091D01*
X170438Y64092D01*
X170438Y64095D01*
X170038Y64595D01*
X170034Y64596D01*
X170035Y64599D01*
X169535Y65099D01*
X169528Y65100D01*
X169527Y65105D01*
X168927Y65505D01*
X168926Y65505D01*
X168925Y65506D01*
X168425Y65806D01*
X168422Y65806D01*
X168422Y65808D01*
X167822Y66108D01*
X167820Y66108D01*
X167819Y66109D01*
X167119Y66409D01*
X167111Y66407D01*
X167108Y66413D01*
X166508Y66513D01*
X166507Y66512D01*
X166507Y66513D01*
X165107Y66713D01*
X165102Y66710D01*
X165100Y66713D01*
X164500Y66713D01*
X164496Y66710D01*
X164493Y66713D01*
X163793Y66613D01*
X163789Y66609D01*
X163786Y66611D01*
X163086Y66411D01*
X163085Y66410D01*
X163084Y66411D01*
X162484Y66211D01*
X162481Y66206D01*
X162478Y66208D01*
X161878Y65908D01*
X161876Y65904D01*
X161873Y65905D01*
X161273Y65505D01*
X161272Y65502D01*
X161269Y65502D01*
X160769Y65102D01*
X160768Y65098D01*
X160765Y65099D01*
X159765Y64099D01*
X159765Y64095D01*
X159762Y64095D01*
X159362Y63595D01*
X159361Y63587D01*
X159356Y63586D01*
X158756Y62386D01*
X158757Y62379D01*
X158753Y62378D01*
X158553Y61679D01*
X158353Y61080D01*
X158355Y61073D01*
X158351Y61071D01*
X158251Y60371D01*
X158254Y60366D01*
X158251Y60364D01*
X158251Y21164D01*
X158287Y21117D01*
X158290Y21119D01*
X158292Y21115D01*
X158892Y21015D01*
X158897Y21018D01*
X158900Y21015D01*
X171800Y21015D01*
X171847Y21051D01*
G37*
G36*
X70036Y188253D02*
X70036Y188253D01*
X70087Y188270D01*
X70081Y188287D01*
X70095Y188298D01*
X70095Y233598D01*
X70059Y233645D01*
X70052Y233640D01*
X70046Y233647D01*
X56446Y233647D01*
X56399Y233611D01*
X56404Y233604D01*
X56397Y233598D01*
X56397Y188598D01*
X56413Y188577D01*
X56411Y188563D01*
X56711Y188263D01*
X56766Y188256D01*
X56769Y188254D01*
X62761Y191350D01*
X63438Y191447D01*
X69424Y188454D01*
X69429Y188455D01*
X69430Y188451D01*
X70030Y188251D01*
X70032Y188252D01*
X70033Y188251D01*
X70036Y188253D01*
G37*
G36*
X81953Y190931D02*
X81953Y190931D01*
X81968Y190924D01*
X88646Y194213D01*
X89224Y193924D01*
X95224Y190924D01*
X95282Y190935D01*
X95280Y190947D01*
X95292Y190950D01*
X95492Y191450D01*
X95488Y191463D01*
X95495Y191468D01*
X95495Y233368D01*
X95459Y233415D01*
X95456Y233413D01*
X95454Y233417D01*
X94854Y233517D01*
X94849Y233514D01*
X94846Y233517D01*
X81946Y233517D01*
X81899Y233481D01*
X81901Y233478D01*
X81897Y233476D01*
X81797Y232876D01*
X81800Y232871D01*
X81797Y232868D01*
X81797Y191468D01*
X81801Y191462D01*
X81798Y191458D01*
X81898Y190958D01*
X81942Y190919D01*
X81953Y190931D01*
G37*
G36*
X120826Y20794D02*
X120826Y20794D01*
X120839Y20794D01*
X121139Y21194D01*
X121139Y21202D01*
X121143Y21205D01*
X121139Y21209D01*
X121139Y21216D01*
X121149Y21224D01*
X121149Y55024D01*
X121146Y55028D01*
X121149Y55031D01*
X120949Y56431D01*
X120948Y56432D01*
X120949Y56432D01*
X120849Y57032D01*
X120841Y57039D01*
X120844Y57046D01*
X120545Y57645D01*
X120245Y58343D01*
X120241Y58346D01*
X120242Y58349D01*
X119942Y58849D01*
X119941Y58850D01*
X119941Y58851D01*
X119541Y59451D01*
X119534Y59454D01*
X119535Y59459D01*
X119035Y59959D01*
X119031Y59959D01*
X119031Y59962D01*
X118031Y60762D01*
X118023Y60763D01*
X118022Y60768D01*
X116822Y61368D01*
X116815Y61367D01*
X116814Y61371D01*
X116115Y61571D01*
X115516Y61771D01*
X115509Y61769D01*
X115507Y61773D01*
X114807Y61873D01*
X114802Y61870D01*
X114800Y61873D01*
X114100Y61873D01*
X114096Y61870D01*
X114093Y61873D01*
X113393Y61773D01*
X113392Y61772D01*
X113392Y61773D01*
X112792Y61673D01*
X112789Y61669D01*
X112786Y61671D01*
X112086Y61471D01*
X112085Y61470D01*
X112084Y61471D01*
X111484Y61271D01*
X111481Y61266D01*
X111478Y61268D01*
X110878Y60968D01*
X110876Y60964D01*
X110873Y60965D01*
X110273Y60565D01*
X110272Y60562D01*
X110269Y60562D01*
X109769Y60162D01*
X109768Y60158D01*
X109765Y60159D01*
X109265Y59659D01*
X109265Y59655D01*
X109262Y59655D01*
X108862Y59155D01*
X108861Y59151D01*
X108859Y59151D01*
X108459Y58551D01*
X108459Y58547D01*
X108456Y58546D01*
X107856Y57346D01*
X107857Y57341D01*
X107853Y57340D01*
X107653Y56740D01*
X107655Y56733D01*
X107651Y56731D01*
X107451Y55331D01*
X107454Y55326D01*
X107451Y55324D01*
X107451Y21124D01*
X107470Y21098D01*
X107470Y21085D01*
X107870Y20785D01*
X107892Y20785D01*
X107900Y20775D01*
X120800Y20775D01*
X120826Y20794D01*
G37*
G36*
X114304Y193246D02*
X114304Y193246D01*
X114307Y193243D01*
X115707Y193443D01*
X115708Y193444D01*
X115708Y193443D01*
X116308Y193543D01*
X116314Y193550D01*
X116319Y193547D01*
X117019Y193847D01*
X117021Y193849D01*
X117022Y193848D01*
X118222Y194448D01*
X118225Y194455D01*
X118231Y194454D01*
X118731Y194854D01*
X118732Y194858D01*
X118735Y194857D01*
X119235Y195357D01*
X119235Y195361D01*
X119238Y195361D01*
X119638Y195861D01*
X119639Y195865D01*
X119641Y195865D01*
X120441Y197065D01*
X120441Y197070D01*
X120442Y197071D01*
X120440Y197073D01*
X120440Y197074D01*
X120447Y197076D01*
X120847Y198276D01*
X120846Y198278D01*
X120847Y198278D01*
X121047Y198978D01*
X121046Y198982D01*
X121049Y198984D01*
X121149Y199584D01*
X121146Y199589D01*
X121149Y199592D01*
X121149Y233492D01*
X121146Y233497D01*
X121149Y233500D01*
X121049Y234100D01*
X121005Y234141D01*
X121003Y234138D01*
X121000Y234141D01*
X108100Y234141D01*
X108095Y234138D01*
X108092Y234141D01*
X107492Y234041D01*
X107451Y233997D01*
X107454Y233995D01*
X107451Y233992D01*
X107451Y199592D01*
X107454Y199588D01*
X107451Y199585D01*
X107551Y198885D01*
X107556Y198880D01*
X107553Y198876D01*
X107753Y198277D01*
X107953Y197578D01*
X107958Y197574D01*
X107956Y197570D01*
X108556Y196370D01*
X108563Y196367D01*
X108562Y196361D01*
X108962Y195861D01*
X108966Y195860D01*
X108965Y195857D01*
X109965Y194857D01*
X109969Y194857D01*
X109969Y194854D01*
X110469Y194454D01*
X110473Y194453D01*
X110473Y194451D01*
X111073Y194051D01*
X111077Y194051D01*
X111078Y194048D01*
X111678Y193748D01*
X111683Y193749D01*
X111684Y193745D01*
X112284Y193545D01*
X112286Y193546D01*
X112286Y193545D01*
X112986Y193345D01*
X112991Y193347D01*
X112993Y193343D01*
X113693Y193243D01*
X113698Y193246D01*
X113700Y193243D01*
X114300Y193243D01*
X114304Y193246D01*
G37*
G36*
X140713Y192838D02*
X140713Y192838D01*
X140716Y192835D01*
X141316Y192935D01*
X141319Y192939D01*
X141322Y192937D01*
X142022Y193137D01*
X142023Y193138D01*
X142024Y193137D01*
X143224Y193537D01*
X143229Y193545D01*
X143235Y193543D01*
X144435Y194343D01*
X144436Y194346D01*
X144439Y194346D01*
X144939Y194746D01*
X144940Y194750D01*
X144943Y194749D01*
X145443Y195249D01*
X145443Y195253D01*
X145446Y195253D01*
X145846Y195753D01*
X145847Y195761D01*
X145852Y195762D01*
X146452Y196962D01*
X146452Y196964D01*
X146453Y196965D01*
X146753Y197665D01*
X146751Y197673D01*
X146757Y197676D01*
X146857Y198276D01*
X146856Y198277D01*
X146857Y198277D01*
X147057Y199677D01*
X147054Y199682D01*
X147057Y199684D01*
X147057Y233484D01*
X147021Y233531D01*
X147014Y233526D01*
X147008Y233533D01*
X133508Y233533D01*
X133461Y233497D01*
X133464Y233493D01*
X133459Y233491D01*
X133359Y232791D01*
X133362Y232786D01*
X133359Y232784D01*
X133359Y199384D01*
X133362Y199379D01*
X133359Y199376D01*
X133459Y198776D01*
X133559Y198077D01*
X133563Y198073D01*
X133561Y198070D01*
X133761Y197370D01*
X133766Y197366D01*
X133764Y197362D01*
X134364Y196162D01*
X134371Y196159D01*
X134370Y196153D01*
X134768Y195655D01*
X135167Y195057D01*
X135177Y195053D01*
X135177Y195046D01*
X135675Y194647D01*
X136173Y194149D01*
X136185Y194148D01*
X136186Y194140D01*
X136783Y193841D01*
X137381Y193443D01*
X137390Y193444D01*
X137392Y193437D01*
X138592Y193037D01*
X138599Y193039D01*
X138601Y193035D01*
X140001Y192835D01*
X140006Y192838D01*
X140008Y192835D01*
X140708Y192835D01*
X140713Y192838D01*
G37*
G36*
X70501Y20965D02*
X70501Y20965D01*
X70499Y20968D01*
X70503Y20970D01*
X70603Y21570D01*
X70600Y21575D01*
X70603Y21578D01*
X70603Y58778D01*
X70567Y58825D01*
X70560Y58820D01*
X70554Y58827D01*
X57054Y58827D01*
X57007Y58791D01*
X57009Y58788D01*
X57005Y58786D01*
X56905Y58186D01*
X56908Y58181D01*
X56905Y58178D01*
X56905Y24378D01*
X56910Y24371D01*
X56907Y24362D01*
X56920Y24358D01*
X56941Y24331D01*
X56960Y24345D01*
X56962Y24344D01*
X56925Y24318D01*
X56920Y24301D01*
X56907Y24291D01*
X56912Y24284D01*
X56905Y24278D01*
X56905Y20978D01*
X56941Y20931D01*
X56948Y20936D01*
X56954Y20929D01*
X70454Y20929D01*
X70501Y20965D01*
G37*
G36*
X95538Y21004D02*
X95538Y21004D01*
X95546Y21006D01*
X95746Y21506D01*
X95742Y21519D01*
X95749Y21524D01*
X95749Y58124D01*
X95713Y58171D01*
X95710Y58169D01*
X95708Y58173D01*
X95108Y58273D01*
X95103Y58270D01*
X95100Y58273D01*
X82200Y58273D01*
X82153Y58237D01*
X82155Y58234D01*
X82151Y58232D01*
X82051Y57632D01*
X82054Y57627D01*
X82051Y57624D01*
X82051Y21224D01*
X82080Y21186D01*
X82082Y21178D01*
X82582Y20978D01*
X82595Y20982D01*
X82600Y20975D01*
X95500Y20975D01*
X95538Y21004D01*
G37*
G36*
X146701Y20687D02*
X146701Y20687D01*
X146698Y20691D01*
X146703Y20693D01*
X146803Y21393D01*
X146800Y21398D01*
X146803Y21400D01*
X146803Y52500D01*
X146800Y52504D01*
X146803Y52507D01*
X146703Y53207D01*
X146699Y53211D01*
X146701Y53214D01*
X146501Y53914D01*
X146500Y53915D01*
X146501Y53916D01*
X146101Y55116D01*
X146093Y55121D01*
X146095Y55127D01*
X145295Y56327D01*
X145292Y56328D01*
X145292Y56331D01*
X144892Y56831D01*
X144885Y56833D01*
X144885Y56838D01*
X144385Y57238D01*
X143786Y57738D01*
X143780Y57738D01*
X143779Y57742D01*
X143279Y58042D01*
X143276Y58042D01*
X143276Y58044D01*
X142676Y58344D01*
X142669Y58343D01*
X142668Y58347D01*
X141969Y58547D01*
X141370Y58747D01*
X141363Y58745D01*
X141361Y58749D01*
X139961Y58949D01*
X139952Y58944D01*
X139947Y58949D01*
X139247Y58849D01*
X139246Y58848D01*
X139246Y58849D01*
X138646Y58749D01*
X137947Y58649D01*
X137939Y58641D01*
X137932Y58644D01*
X136132Y57744D01*
X136129Y57737D01*
X136123Y57738D01*
X135623Y57338D01*
X135622Y57334D01*
X135619Y57335D01*
X134619Y56335D01*
X134619Y56331D01*
X134616Y56331D01*
X134216Y55831D01*
X134215Y55823D01*
X134210Y55822D01*
X133610Y54622D01*
X133611Y54615D01*
X133607Y54614D01*
X133407Y53915D01*
X133207Y53316D01*
X133209Y53309D01*
X133205Y53307D01*
X133105Y52607D01*
X133108Y52602D01*
X133105Y52600D01*
X133105Y20800D01*
X133141Y20753D01*
X133144Y20755D01*
X133146Y20751D01*
X133746Y20651D01*
X133751Y20654D01*
X133754Y20651D01*
X146654Y20651D01*
X146701Y20687D01*
G37*
G36*
X219580Y76900D02*
X219580Y76900D01*
X219602Y76903D01*
X219610Y76920D01*
X219619Y76925D01*
X219617Y76935D01*
X219624Y76950D01*
X219636Y77366D01*
X219636Y77367D01*
X219636Y80546D01*
X219630Y80555D01*
X219633Y80566D01*
X219613Y80582D01*
X219600Y80603D01*
X219589Y80601D01*
X219580Y80608D01*
X219537Y80594D01*
X219532Y80593D01*
X219532Y80592D01*
X219531Y80592D01*
X219214Y80294D01*
X218803Y79979D01*
X218338Y79757D01*
X217835Y79637D01*
X217318Y79603D01*
X216800Y79651D01*
X216295Y79769D01*
X215811Y79954D01*
X215362Y80211D01*
X214976Y80556D01*
X214651Y80960D01*
X214386Y81406D01*
X214179Y81882D01*
X214054Y82388D01*
X213981Y82906D01*
X213945Y83427D01*
X213985Y83948D01*
X214068Y84464D01*
X214200Y84968D01*
X214416Y85440D01*
X214698Y85875D01*
X215040Y86263D01*
X215440Y86590D01*
X215893Y86842D01*
X216386Y87001D01*
X216898Y87089D01*
X217417Y87122D01*
X217932Y87066D01*
X218427Y86917D01*
X218885Y86680D01*
X219290Y86351D01*
X219291Y86350D01*
X219292Y86349D01*
X219536Y86164D01*
X219544Y86164D01*
X219548Y86157D01*
X219576Y86161D01*
X219604Y86159D01*
X219607Y86166D01*
X219615Y86167D01*
X219636Y86214D01*
X219636Y86819D01*
X219647Y87045D01*
X221947Y87045D01*
X221943Y86799D01*
X221951Y86787D01*
X221971Y77141D01*
X221971Y77140D01*
X221971Y77138D01*
X221980Y76948D01*
X221992Y76931D01*
X221995Y76910D01*
X222013Y76902D01*
X222020Y76893D01*
X222029Y76895D01*
X222043Y76889D01*
X244621Y76891D01*
X244623Y76892D01*
X244627Y76891D01*
X245681Y76997D01*
X245684Y76999D01*
X245688Y76998D01*
X246203Y77110D01*
X246206Y77112D01*
X246210Y77111D01*
X247215Y77440D01*
X247219Y77444D01*
X247226Y77445D01*
X248157Y77950D01*
X248159Y77954D01*
X248166Y77956D01*
X248995Y78612D01*
X248996Y78615D01*
X249000Y78617D01*
X249377Y78985D01*
X249378Y78988D01*
X249382Y78990D01*
X250049Y79813D01*
X250049Y79818D01*
X250055Y79822D01*
X250561Y80753D01*
X250560Y80758D01*
X250564Y80762D01*
X250748Y81256D01*
X250747Y81258D01*
X250749Y81260D01*
X250906Y81765D01*
X250905Y81767D01*
X250907Y81769D01*
X251031Y82282D01*
X251029Y82286D01*
X251032Y82290D01*
X251139Y83344D01*
X251136Y83349D01*
X251139Y83356D01*
X251049Y84410D01*
X251048Y84412D01*
X251049Y84416D01*
X250958Y84935D01*
X250956Y84938D01*
X250956Y84943D01*
X250642Y85955D01*
X250638Y85958D01*
X250638Y85966D01*
X250137Y86899D01*
X250134Y86900D01*
X250133Y86905D01*
X249830Y87337D01*
X249828Y87338D01*
X249827Y87341D01*
X249490Y87750D01*
X249489Y87750D01*
X249488Y87752D01*
X249458Y87786D01*
X249401Y87848D01*
X249401Y87849D01*
X249344Y87911D01*
X249287Y87974D01*
X249174Y88099D01*
X249174Y88100D01*
X249134Y88143D01*
X249130Y88144D01*
X249127Y88150D01*
X248310Y88824D01*
X248305Y88824D01*
X248301Y88830D01*
X247376Y89345D01*
X247373Y89345D01*
X247369Y89348D01*
X246883Y89550D01*
X246880Y89550D01*
X246876Y89553D01*
X245862Y89854D01*
X245857Y89853D01*
X245851Y89856D01*
X244796Y89963D01*
X244607Y89982D01*
X244604Y89980D01*
X244601Y89982D01*
X217585Y89982D01*
X217583Y89980D01*
X217579Y89982D01*
X216525Y89877D01*
X216522Y89875D01*
X216519Y89876D01*
X216002Y89772D01*
X216000Y89770D01*
X215995Y89771D01*
X214987Y89448D01*
X214983Y89444D01*
X214976Y89444D01*
X214045Y88938D01*
X214043Y88935D01*
X214037Y88934D01*
X213613Y88620D01*
X213612Y88619D01*
X213610Y88618D01*
X213201Y88281D01*
X213201Y88279D01*
X213198Y88278D01*
X212816Y87915D01*
X212815Y87911D01*
X212811Y87909D01*
X212138Y87091D01*
X212138Y87086D01*
X212132Y87081D01*
X211626Y86150D01*
X211626Y86146D01*
X211623Y86142D01*
X211433Y85651D01*
X211433Y85649D01*
X211431Y85646D01*
X211274Y85141D01*
X211275Y85139D01*
X211273Y85138D01*
X211142Y84626D01*
X211144Y84622D01*
X211141Y84617D01*
X211034Y83563D01*
X211036Y83559D01*
X211034Y83553D01*
X211063Y83026D01*
X211064Y83025D01*
X211063Y83023D01*
X211116Y82496D01*
X211117Y82495D01*
X211117Y82493D01*
X211200Y81972D01*
X211203Y81969D01*
X211202Y81963D01*
X211516Y80951D01*
X211520Y80948D01*
X211521Y80941D01*
X212015Y80005D01*
X212018Y80003D01*
X212018Y79999D01*
X212315Y79563D01*
X212318Y79562D01*
X212319Y79557D01*
X212436Y79420D01*
X212490Y79357D01*
X212543Y79295D01*
X212704Y79106D01*
X212757Y79044D01*
X212811Y78981D01*
X212864Y78918D01*
X213006Y78752D01*
X213010Y78751D01*
X213013Y78745D01*
X213831Y78070D01*
X213835Y78070D01*
X213840Y78064D01*
X214761Y77544D01*
X214764Y77544D01*
X214767Y77541D01*
X215251Y77332D01*
X215254Y77332D01*
X215257Y77329D01*
X216270Y77020D01*
X216275Y77022D01*
X216282Y77018D01*
X217336Y76912D01*
X217338Y76913D01*
X217340Y76912D01*
X217868Y76889D01*
X217869Y76889D01*
X217871Y76889D01*
X219562Y76889D01*
X219580Y76900D01*
G37*
G36*
X197501Y20515D02*
X197501Y20515D01*
X197498Y20519D01*
X197503Y20521D01*
X197603Y21221D01*
X197600Y21226D01*
X197603Y21228D01*
X197603Y46228D01*
X197589Y46246D01*
X197592Y46259D01*
X197192Y46759D01*
X197178Y46763D01*
X197176Y46772D01*
X191076Y49772D01*
X191060Y49769D01*
X191054Y49777D01*
X190454Y49777D01*
X190441Y49768D01*
X190432Y49772D01*
X184432Y46772D01*
X184429Y46765D01*
X184423Y46766D01*
X183923Y46366D01*
X183919Y46351D01*
X183915Y46348D01*
X183918Y46345D01*
X183916Y46336D01*
X183905Y46328D01*
X183905Y20628D01*
X183941Y20581D01*
X183945Y20584D01*
X183947Y20579D01*
X184647Y20479D01*
X184652Y20482D01*
X184654Y20479D01*
X197454Y20479D01*
X197501Y20515D01*
G37*
G36*
X223711Y46411D02*
X223711Y46411D01*
X223773Y46413D01*
X223795Y46426D01*
X223821Y46430D01*
X223892Y46478D01*
X223925Y46496D01*
X223931Y46504D01*
X223941Y46511D01*
X224441Y47011D01*
X224460Y47042D01*
X224498Y47084D01*
X224774Y47544D01*
X225241Y48011D01*
X225249Y48024D01*
X225264Y48037D01*
X225753Y48623D01*
X226941Y49811D01*
X226948Y49822D01*
X226961Y49833D01*
X228151Y51222D01*
X229108Y52178D01*
X230006Y52717D01*
X230503Y52800D01*
X232372Y52800D01*
X232398Y52806D01*
X232435Y52805D01*
X233635Y53005D01*
X233650Y53012D01*
X233672Y53013D01*
X234772Y53313D01*
X234789Y53322D01*
X234813Y53327D01*
X235813Y53727D01*
X235835Y53742D01*
X235868Y53754D01*
X236868Y54354D01*
X236888Y54374D01*
X236922Y54394D01*
X237722Y55094D01*
X237729Y55103D01*
X237741Y55111D01*
X238541Y55911D01*
X238552Y55929D01*
X238572Y55947D01*
X239272Y56847D01*
X239283Y56870D01*
X239304Y56895D01*
X240304Y58695D01*
X240315Y58731D01*
X240340Y58783D01*
X240840Y60683D01*
X240841Y60715D01*
X240852Y60758D01*
X240952Y62458D01*
X240945Y62494D01*
X240946Y62550D01*
X240646Y64150D01*
X240637Y64171D01*
X240633Y64200D01*
X240133Y65700D01*
X240114Y65731D01*
X240093Y65784D01*
X239393Y66884D01*
X239374Y66903D01*
X239356Y66933D01*
X239131Y67186D01*
X238793Y67566D01*
X238556Y67833D01*
X238524Y67855D01*
X238474Y67902D01*
X237674Y68402D01*
X237644Y68413D01*
X237624Y68427D01*
X237589Y68433D01*
X237544Y68453D01*
X237527Y68453D01*
X237510Y68458D01*
X237478Y68454D01*
X237472Y68454D01*
X237464Y68452D01*
X237441Y68449D01*
X237371Y68447D01*
X237356Y68438D01*
X237338Y68436D01*
X237308Y68416D01*
X237303Y68415D01*
X237289Y68403D01*
X237280Y68397D01*
X237219Y68364D01*
X237209Y68349D01*
X237194Y68339D01*
X237178Y68311D01*
X237170Y68305D01*
X237156Y68274D01*
X237119Y68222D01*
X237116Y68203D01*
X237108Y68189D01*
X237106Y68163D01*
X237099Y68146D01*
X237100Y68121D01*
X237092Y68080D01*
X237092Y67242D01*
X237020Y67026D01*
X236960Y66905D01*
X236767Y66712D01*
X236610Y66660D01*
X236419Y66660D01*
X235705Y66839D01*
X235363Y67010D01*
X235092Y67191D01*
X234722Y67468D01*
X234168Y68022D01*
X233825Y68536D01*
X233752Y68827D01*
X233752Y69318D01*
X233824Y69534D01*
X233902Y69689D01*
X234052Y69915D01*
X234373Y70155D01*
X234696Y70317D01*
X235147Y70407D01*
X235154Y70411D01*
X235164Y70411D01*
X235519Y70500D01*
X235982Y70500D01*
X236102Y70440D01*
X236117Y70436D01*
X236130Y70427D01*
X236264Y70401D01*
X236271Y70400D01*
X236272Y70400D01*
X236372Y70400D01*
X236397Y70406D01*
X236423Y70403D01*
X236481Y70425D01*
X236541Y70439D01*
X236561Y70456D01*
X236585Y70465D01*
X236627Y70510D01*
X236674Y70549D01*
X236685Y70573D01*
X236702Y70592D01*
X236720Y70651D01*
X236745Y70708D01*
X236744Y70733D01*
X236752Y70758D01*
X236741Y70819D01*
X236739Y70881D01*
X236726Y70903D01*
X236722Y70929D01*
X236674Y71000D01*
X236656Y71033D01*
X236648Y71039D01*
X236641Y71049D01*
X236541Y71149D01*
X236521Y71161D01*
X236500Y71184D01*
X236100Y71484D01*
X236074Y71496D01*
X236042Y71520D01*
X234642Y72220D01*
X234630Y72223D01*
X234621Y72229D01*
X234592Y72235D01*
X234555Y72251D01*
X233655Y72451D01*
X233621Y72451D01*
X233572Y72460D01*
X232572Y72460D01*
X232544Y72454D01*
X232504Y72454D01*
X231404Y72254D01*
X231369Y72239D01*
X231312Y72221D01*
X231297Y72217D01*
X231294Y72215D01*
X231290Y72214D01*
X230190Y71614D01*
X230170Y71596D01*
X230139Y71580D01*
X229239Y70880D01*
X229219Y70856D01*
X229150Y70782D01*
X228650Y69982D01*
X228638Y69948D01*
X228611Y69900D01*
X228311Y69000D01*
X228308Y68963D01*
X228292Y68880D01*
X228292Y68080D01*
X228299Y68047D01*
X228301Y67998D01*
X228501Y67098D01*
X228518Y67062D01*
X228540Y66995D01*
X229040Y66095D01*
X229062Y66071D01*
X229086Y66030D01*
X229786Y65230D01*
X229787Y65229D01*
X229788Y65227D01*
X230588Y64327D01*
X230596Y64322D01*
X230603Y64311D01*
X231245Y63669D01*
X231492Y63011D01*
X231492Y62442D01*
X231333Y61965D01*
X231012Y61564D01*
X230516Y61233D01*
X229825Y61060D01*
X229110Y61060D01*
X228681Y61146D01*
X228286Y61304D01*
X227768Y61822D01*
X227617Y62049D01*
X227552Y62242D01*
X227552Y62518D01*
X227604Y62675D01*
X228077Y63148D01*
X228292Y63219D01*
X228312Y63232D01*
X228342Y63240D01*
X228742Y63440D01*
X228771Y63464D01*
X228841Y63511D01*
X228941Y63611D01*
X228954Y63632D01*
X228973Y63648D01*
X228999Y63705D01*
X229032Y63758D01*
X229035Y63783D01*
X229045Y63806D01*
X229043Y63869D01*
X229049Y63931D01*
X229040Y63954D01*
X229039Y63979D01*
X229009Y64034D01*
X228987Y64093D01*
X228969Y64110D01*
X228957Y64132D01*
X228887Y64186D01*
X228860Y64210D01*
X228851Y64213D01*
X228842Y64220D01*
X228442Y64420D01*
X228427Y64424D01*
X228414Y64433D01*
X228280Y64459D01*
X228274Y64460D01*
X228273Y64460D01*
X228272Y64460D01*
X227072Y64460D01*
X227046Y64454D01*
X227010Y64455D01*
X226410Y64355D01*
X226404Y64353D01*
X226397Y64353D01*
X225897Y64253D01*
X225871Y64241D01*
X225831Y64233D01*
X225331Y64033D01*
X225300Y64011D01*
X225244Y63984D01*
X224844Y63684D01*
X224840Y63680D01*
X224834Y63677D01*
X224334Y63277D01*
X224317Y63254D01*
X224246Y63176D01*
X223646Y62176D01*
X223634Y62140D01*
X223606Y62084D01*
X223406Y61384D01*
X223405Y61359D01*
X223395Y61327D01*
X223295Y60527D01*
X223297Y60506D01*
X223292Y60480D01*
X223292Y46780D01*
X223298Y46755D01*
X223295Y46729D01*
X223317Y46672D01*
X223331Y46611D01*
X223348Y46591D01*
X223357Y46567D01*
X223402Y46525D01*
X223441Y46478D01*
X223465Y46467D01*
X223484Y46450D01*
X223543Y46432D01*
X223600Y46407D01*
X223625Y46408D01*
X223650Y46400D01*
X223711Y46411D01*
G37*
%LPC*%
G36*
X190303Y194221D02*
X190303Y194221D01*
X188911Y194420D01*
X188322Y194617D01*
X187727Y195013D01*
X187723Y195013D01*
X187722Y195016D01*
X187129Y195313D01*
X186638Y195803D01*
X186243Y196397D01*
X185946Y196991D01*
X185549Y198180D01*
X185549Y199268D01*
X185648Y199861D01*
X185846Y200554D01*
X186142Y201145D01*
X186538Y201641D01*
X186539Y201645D01*
X186541Y201645D01*
X186936Y202237D01*
X187527Y202631D01*
X187528Y202634D01*
X187531Y202634D01*
X188027Y203030D01*
X188615Y203324D01*
X189307Y203423D01*
X189308Y203424D01*
X189308Y203423D01*
X189904Y203523D01*
X190600Y203523D01*
X190647Y203559D01*
X190644Y203563D01*
X190647Y203564D01*
X190641Y203571D01*
X190649Y203579D01*
X190349Y205679D01*
X190306Y205721D01*
X190303Y205717D01*
X190300Y205721D01*
X189604Y205721D01*
X189012Y205820D01*
X188420Y206017D01*
X187728Y206413D01*
X187233Y206809D01*
X186837Y207205D01*
X186342Y207799D01*
X186044Y208394D01*
X185748Y208987D01*
X185649Y209679D01*
X185648Y209680D01*
X185649Y209680D01*
X185549Y210276D01*
X185549Y210969D01*
X185648Y211662D01*
X185846Y212352D01*
X186142Y212846D01*
X186535Y213435D01*
X187025Y213730D01*
X187033Y213748D01*
X187047Y213759D01*
X187041Y213768D01*
X187042Y213772D01*
X187049Y213778D01*
X187045Y213805D01*
X187577Y213628D01*
X188260Y213140D01*
X188448Y212670D01*
X188254Y212091D01*
X187956Y211494D01*
X187957Y211489D01*
X187953Y211488D01*
X187753Y210888D01*
X187755Y210882D01*
X187753Y210880D01*
X187756Y210876D01*
X187751Y210872D01*
X187751Y210172D01*
X187757Y210164D01*
X187753Y210158D01*
X187953Y209458D01*
X187958Y209454D01*
X187956Y209450D01*
X188256Y208850D01*
X188266Y208845D01*
X188265Y208837D01*
X188765Y208337D01*
X188777Y208336D01*
X188778Y208328D01*
X189378Y208028D01*
X189389Y208030D01*
X189392Y208023D01*
X189992Y207923D01*
X189997Y207926D01*
X190000Y207923D01*
X190800Y207923D01*
X190805Y207926D01*
X190808Y207923D01*
X191408Y208023D01*
X191418Y208034D01*
X191427Y208031D01*
X192027Y208431D01*
X192031Y208441D01*
X192038Y208441D01*
X192438Y208941D01*
X192439Y208945D01*
X192441Y208945D01*
X192841Y209545D01*
X192840Y209560D01*
X192849Y209565D01*
X192949Y210265D01*
X192946Y210270D01*
X192949Y210272D01*
X192949Y210872D01*
X192943Y210880D01*
X192947Y210886D01*
X192747Y211586D01*
X192742Y211590D01*
X192744Y211594D01*
X192254Y212574D01*
X192441Y213042D01*
X193024Y213528D01*
X193596Y213719D01*
X194166Y213434D01*
X194558Y212846D01*
X194854Y212352D01*
X195052Y211662D01*
X195151Y210969D01*
X195151Y210375D01*
X195051Y209679D01*
X194952Y208987D01*
X194656Y208394D01*
X194358Y207799D01*
X193963Y207305D01*
X193467Y206809D01*
X192974Y206415D01*
X192282Y206118D01*
X191684Y205919D01*
X191092Y205721D01*
X190400Y205721D01*
X190353Y205685D01*
X190361Y205675D01*
X190351Y205665D01*
X190651Y203565D01*
X190690Y203526D01*
X190692Y203523D01*
X191292Y203423D01*
X191293Y203424D01*
X191293Y203423D01*
X191985Y203324D01*
X192578Y203028D01*
X193173Y202730D01*
X193667Y202335D01*
X194162Y201841D01*
X194557Y201247D01*
X194854Y200653D01*
X195052Y200061D01*
X195151Y199369D01*
X195151Y198079D01*
X194954Y197390D01*
X194656Y196794D01*
X194359Y196201D01*
X193371Y195213D01*
X192181Y194618D01*
X190992Y194221D01*
X190303Y194221D01*
G37*
%LPD*%
%LPC*%
G36*
X164308Y34313D02*
X164308Y34313D01*
X164306Y34312D01*
X164300Y34312D01*
X164283Y34299D01*
X164255Y34285D01*
X164258Y34280D01*
X164252Y34276D01*
X164255Y34273D01*
X164251Y34272D01*
X164248Y34252D01*
X164249Y34259D01*
X164218Y34310D01*
X164212Y34306D01*
X164208Y34313D01*
X163612Y34412D01*
X163018Y34610D01*
X162326Y34907D01*
X161833Y35301D01*
X161337Y35797D01*
X160940Y36293D01*
X160545Y36886D01*
X160347Y37479D01*
X160149Y38171D01*
X160149Y39161D01*
X160248Y39853D01*
X160447Y40448D01*
X160645Y41042D01*
X161038Y41633D01*
X162033Y42627D01*
X162524Y43020D01*
X163115Y43217D01*
X163811Y43416D01*
X164408Y43515D01*
X165107Y43615D01*
X165146Y43655D01*
X165151Y43562D01*
X165189Y43516D01*
X165195Y43521D01*
X165200Y43515D01*
X165793Y43515D01*
X166485Y43317D01*
X167081Y43118D01*
X167671Y42823D01*
X168663Y41831D01*
X169060Y41335D01*
X169455Y40742D01*
X169652Y40153D01*
X169751Y39461D01*
X169751Y38171D01*
X169553Y37479D01*
X169355Y36886D01*
X168960Y36293D01*
X168563Y35797D01*
X168069Y35302D01*
X167475Y34907D01*
X166881Y34610D01*
X166289Y34412D01*
X165593Y34313D01*
X164901Y34214D01*
X164308Y34313D01*
G37*
%LPD*%
%LPC*%
G36*
X164503Y208313D02*
X164503Y208313D01*
X163811Y208412D01*
X163218Y208610D01*
X162522Y208908D01*
X162031Y209203D01*
X161037Y210197D01*
X160644Y210688D01*
X160447Y211279D01*
X160248Y211974D01*
X160149Y212667D01*
X160149Y213657D01*
X160347Y214349D01*
X160544Y214940D01*
X160938Y215433D01*
X160939Y215437D01*
X160941Y215437D01*
X161338Y216033D01*
X161831Y216526D01*
X162426Y216922D01*
X162920Y217218D01*
X163614Y217417D01*
X163615Y217418D01*
X163616Y217417D01*
X164208Y217615D01*
X165593Y217615D01*
X166285Y217417D01*
X166881Y217218D01*
X167475Y216921D01*
X168071Y216524D01*
X168563Y216130D01*
X168959Y215537D01*
X168962Y215536D01*
X168962Y215533D01*
X169355Y215041D01*
X169553Y214350D01*
X169554Y214349D01*
X169553Y214348D01*
X169751Y213756D01*
X169751Y212368D01*
X169652Y211775D01*
X169455Y211087D01*
X169062Y210595D01*
X169061Y210591D01*
X169059Y210591D01*
X168662Y209995D01*
X168167Y209501D01*
X167671Y209104D01*
X167078Y208709D01*
X166484Y208511D01*
X165892Y208313D01*
X164503Y208313D01*
G37*
%LPD*%
G36*
X64560Y165942D02*
X64560Y165942D01*
X64563Y165939D01*
X65263Y166039D01*
X65268Y166044D01*
X65272Y166041D01*
X65872Y166241D01*
X65875Y166246D01*
X65878Y166244D01*
X67078Y166844D01*
X67083Y166854D01*
X67091Y166853D01*
X67591Y167353D01*
X67591Y167357D01*
X67594Y167357D01*
X67994Y167857D01*
X67995Y167861D01*
X67997Y167861D01*
X68397Y168461D01*
X68397Y168465D01*
X68400Y168466D01*
X68700Y169066D01*
X68699Y169071D01*
X68703Y169072D01*
X68903Y169672D01*
X68899Y169683D01*
X68905Y169688D01*
X68905Y170385D01*
X69005Y171081D01*
X69000Y171090D01*
X69005Y171095D01*
X68905Y171795D01*
X68901Y171799D01*
X68903Y171802D01*
X68703Y172502D01*
X68696Y172507D01*
X68698Y172513D01*
X68398Y173013D01*
X68397Y173014D01*
X68397Y173015D01*
X67997Y173615D01*
X67994Y173616D01*
X67994Y173619D01*
X67594Y174119D01*
X67587Y174121D01*
X67588Y174126D01*
X66988Y174626D01*
X66982Y174626D01*
X66981Y174630D01*
X66481Y174930D01*
X66478Y174930D01*
X66478Y174932D01*
X65878Y175232D01*
X65871Y175231D01*
X65870Y175235D01*
X65170Y175435D01*
X65166Y175434D01*
X65164Y175437D01*
X64564Y175537D01*
X64559Y175534D01*
X64556Y175537D01*
X61256Y175537D01*
X61238Y175524D01*
X61226Y175527D01*
X60826Y175227D01*
X60822Y175211D01*
X60821Y175207D01*
X60809Y175204D01*
X60609Y174604D01*
X60613Y174593D01*
X60607Y174588D01*
X60607Y167088D01*
X60610Y167084D01*
X60607Y167081D01*
X60707Y166381D01*
X60723Y166366D01*
X60721Y166353D01*
X61021Y166053D01*
X61044Y166050D01*
X61050Y166039D01*
X61850Y165939D01*
X61854Y165941D01*
X61856Y165939D01*
X64556Y165939D01*
X64560Y165942D01*
G37*
%LPC*%
G36*
X186749Y216078D02*
X186749Y216078D01*
X186709Y216119D01*
X186708Y216121D01*
X186128Y216217D01*
X185847Y216591D01*
X185750Y217368D01*
X185942Y218040D01*
X186414Y218323D01*
X193800Y218323D01*
X193847Y218359D01*
X193843Y218365D01*
X193849Y218369D01*
X193949Y220069D01*
X193927Y220103D01*
X193925Y220114D01*
X193429Y220412D01*
X192832Y220910D01*
X190333Y223109D01*
X190273Y223113D01*
X190273Y223108D01*
X190268Y223109D01*
X187171Y220412D01*
X186694Y220126D01*
X186129Y220314D01*
X185643Y220898D01*
X185452Y221374D01*
X185643Y221945D01*
X186133Y222436D01*
X188232Y224235D01*
X188233Y224237D01*
X188235Y224237D01*
X188635Y224637D01*
X188643Y224696D01*
X188632Y224698D01*
X188633Y224708D01*
X186134Y227008D01*
X185642Y227500D01*
X185452Y227974D01*
X185643Y228545D01*
X186224Y229127D01*
X186690Y229220D01*
X187270Y228833D01*
X189867Y226636D01*
X190265Y226237D01*
X190289Y226234D01*
X190290Y226233D01*
X190299Y226233D01*
X190324Y226229D01*
X190325Y226237D01*
X190333Y226236D01*
X192832Y228534D01*
X193327Y228930D01*
X193902Y229218D01*
X194372Y229030D01*
X194958Y228444D01*
X195148Y227970D01*
X194958Y227400D01*
X191868Y224709D01*
X191856Y224651D01*
X191870Y224648D01*
X191869Y224634D01*
X192369Y224234D01*
X194367Y222435D01*
X194369Y222435D01*
X194368Y222434D01*
X194959Y221942D01*
X195148Y221470D01*
X194957Y220899D01*
X194371Y220313D01*
X193978Y220116D01*
X193967Y220094D01*
X193961Y220090D01*
X193963Y220087D01*
X193961Y220082D01*
X193951Y220075D01*
X193851Y218375D01*
X193884Y218325D01*
X193893Y218332D01*
X193900Y218323D01*
X194488Y218323D01*
X195055Y218039D01*
X195151Y217369D01*
X195151Y216592D01*
X194776Y216218D01*
X194196Y216121D01*
X186800Y216121D01*
X186753Y216085D01*
X186760Y216076D01*
X186751Y216068D01*
X186753Y216050D01*
X186749Y216078D01*
G37*
%LPD*%
G36*
X21861Y165942D02*
X21861Y165942D01*
X21864Y165939D01*
X22464Y166039D01*
X22485Y166061D01*
X22498Y166063D01*
X22798Y166563D01*
X22798Y166566D01*
X22796Y166581D01*
X22805Y166588D01*
X22805Y171308D01*
X22924Y171249D01*
X24717Y168858D01*
X24725Y168856D01*
X24725Y168850D01*
X25225Y168450D01*
X25244Y168449D01*
X25249Y168439D01*
X25949Y168339D01*
X25972Y168352D01*
X25973Y168352D01*
X25974Y168353D01*
X25987Y168350D01*
X26487Y168750D01*
X26488Y168754D01*
X26491Y168753D01*
X26891Y169153D01*
X26892Y169160D01*
X26896Y169160D01*
X28407Y171331D01*
X28407Y166688D01*
X28418Y166673D01*
X28414Y166663D01*
X28714Y166163D01*
X28736Y166154D01*
X28740Y166141D01*
X29340Y165941D01*
X29351Y165945D01*
X29356Y165939D01*
X30156Y165939D01*
X30174Y165952D01*
X30186Y165949D01*
X30586Y166249D01*
X30590Y166265D01*
X30597Y166270D01*
X30596Y166272D01*
X30603Y166274D01*
X30803Y166974D01*
X30800Y166984D01*
X30805Y166988D01*
X30805Y174488D01*
X30802Y174493D01*
X30805Y174496D01*
X30705Y175096D01*
X30686Y175114D01*
X30686Y175127D01*
X30286Y175427D01*
X30267Y175427D01*
X30261Y175437D01*
X29361Y175537D01*
X29348Y175529D01*
X29340Y175535D01*
X28740Y175335D01*
X28729Y175319D01*
X28718Y175319D01*
X27418Y173719D01*
X27418Y173718D01*
X27417Y173718D01*
X25925Y171729D01*
X25473Y171548D01*
X23095Y174718D01*
X23094Y174718D01*
X23094Y174719D01*
X22694Y175219D01*
X22680Y175222D01*
X22678Y175232D01*
X22078Y175532D01*
X22062Y175529D01*
X22056Y175537D01*
X21256Y175537D01*
X21241Y175526D01*
X21231Y175530D01*
X20731Y175230D01*
X20722Y175208D01*
X20709Y175204D01*
X20509Y174604D01*
X20513Y174593D01*
X20507Y174588D01*
X20507Y166488D01*
X20523Y166467D01*
X20521Y166453D01*
X21021Y165953D01*
X21048Y165950D01*
X21056Y165939D01*
X21856Y165939D01*
X21861Y165942D01*
G37*
G36*
X55465Y165946D02*
X55465Y165946D01*
X55472Y165941D01*
X56072Y166141D01*
X56075Y166146D01*
X56078Y166144D01*
X56678Y166444D01*
X56681Y166451D01*
X56687Y166450D01*
X57187Y166850D01*
X57189Y166857D01*
X57194Y166857D01*
X57594Y167357D01*
X57595Y167362D01*
X57598Y167363D01*
X57898Y167863D01*
X57897Y167871D01*
X57903Y167872D01*
X58103Y168472D01*
X58102Y168474D01*
X58103Y168474D01*
X58303Y169174D01*
X58303Y169175D01*
X58304Y169176D01*
X58302Y169178D01*
X58302Y169179D01*
X58305Y169181D01*
X58505Y170581D01*
X58502Y170586D01*
X58505Y170588D01*
X58505Y171388D01*
X58502Y171393D01*
X58505Y171396D01*
X58405Y171996D01*
X58305Y172695D01*
X58301Y172699D01*
X58303Y172702D01*
X58103Y173402D01*
X58098Y173406D01*
X58100Y173410D01*
X57500Y174610D01*
X57487Y174617D01*
X57487Y174626D01*
X56987Y175026D01*
X56388Y175526D01*
X56374Y175526D01*
X56372Y175535D01*
X55772Y175735D01*
X55766Y175733D01*
X55764Y175737D01*
X55164Y175837D01*
X55159Y175834D01*
X55156Y175837D01*
X54356Y175837D01*
X54351Y175834D01*
X54348Y175837D01*
X53748Y175737D01*
X53741Y175729D01*
X53734Y175732D01*
X52534Y175132D01*
X52527Y175118D01*
X52517Y175118D01*
X52217Y174718D01*
X52217Y174714D01*
X52214Y174713D01*
X51914Y174213D01*
X51914Y174210D01*
X51912Y174210D01*
X51612Y173610D01*
X51613Y173603D01*
X51609Y173602D01*
X51409Y172903D01*
X51209Y172304D01*
X51211Y172297D01*
X51207Y172295D01*
X51107Y171595D01*
X51110Y171590D01*
X51107Y171588D01*
X51107Y170088D01*
X51110Y170084D01*
X51107Y170081D01*
X51207Y169381D01*
X51208Y169380D01*
X51207Y169380D01*
X51307Y168780D01*
X51312Y168776D01*
X51309Y168772D01*
X51509Y168172D01*
X51512Y168171D01*
X51511Y168169D01*
X51811Y167469D01*
X51819Y167464D01*
X51818Y167457D01*
X52218Y166957D01*
X52225Y166955D01*
X52225Y166950D01*
X52725Y166550D01*
X52729Y166549D01*
X52729Y166547D01*
X53329Y166147D01*
X53338Y166148D01*
X53340Y166141D01*
X53940Y165941D01*
X53951Y165945D01*
X53956Y165939D01*
X55456Y165939D01*
X55465Y165946D01*
G37*
%LPC*%
G36*
X165049Y45666D02*
X165049Y45666D01*
X165011Y45712D01*
X165005Y45707D01*
X165000Y45713D01*
X164304Y45713D01*
X163711Y45812D01*
X163021Y46009D01*
X162427Y46405D01*
X162426Y46405D01*
X162425Y46406D01*
X161931Y46703D01*
X161437Y47197D01*
X161040Y47693D01*
X160645Y48285D01*
X160447Y48978D01*
X160446Y48979D01*
X160447Y48980D01*
X160248Y49575D01*
X160149Y50267D01*
X160149Y50861D01*
X160248Y51554D01*
X160447Y52249D01*
X160645Y52842D01*
X161037Y53430D01*
X161531Y53826D01*
X161535Y53842D01*
X161547Y53851D01*
X161541Y53860D01*
X161549Y53866D01*
X161449Y56066D01*
X161411Y56112D01*
X161409Y56110D01*
X161408Y56113D01*
X160820Y56211D01*
X160447Y56491D01*
X160350Y57360D01*
X160543Y58035D01*
X160916Y58315D01*
X169091Y58315D01*
X169561Y58127D01*
X169751Y57556D01*
X169751Y56678D01*
X169470Y56209D01*
X168896Y56113D01*
X161500Y56113D01*
X161453Y56077D01*
X161459Y56069D01*
X161451Y56062D01*
X161551Y53862D01*
X161589Y53816D01*
X161591Y53818D01*
X161592Y53815D01*
X162179Y53718D01*
X162762Y53231D01*
X163048Y52754D01*
X162953Y52182D01*
X162559Y51591D01*
X162560Y51582D01*
X162553Y51580D01*
X162353Y50980D01*
X162355Y50974D01*
X162353Y50972D01*
X162356Y50968D01*
X162351Y50964D01*
X162351Y50264D01*
X162357Y50256D01*
X162353Y50250D01*
X162553Y49550D01*
X162558Y49546D01*
X162556Y49542D01*
X162856Y48942D01*
X162863Y48939D01*
X162862Y48933D01*
X163262Y48433D01*
X163276Y48430D01*
X163278Y48420D01*
X163878Y48120D01*
X163885Y48121D01*
X163886Y48117D01*
X164586Y47917D01*
X164596Y47920D01*
X164600Y47915D01*
X165300Y47915D01*
X165305Y47918D01*
X165308Y47915D01*
X165908Y48015D01*
X165918Y48026D01*
X165927Y48023D01*
X166527Y48423D01*
X166530Y48430D01*
X166535Y48429D01*
X167035Y48929D01*
X167036Y48941D01*
X167044Y48942D01*
X167344Y49542D01*
X167343Y49547D01*
X167347Y49548D01*
X167547Y50148D01*
X167544Y50155D01*
X167547Y50157D01*
X167545Y50161D01*
X167549Y50164D01*
X167549Y50864D01*
X167546Y50869D01*
X167549Y50872D01*
X167449Y51472D01*
X167441Y51479D01*
X167444Y51486D01*
X167244Y51886D01*
X167242Y51887D01*
X167243Y51888D01*
X166853Y52571D01*
X166944Y52936D01*
X167526Y53422D01*
X168202Y53711D01*
X168768Y53523D01*
X169156Y52941D01*
X169354Y52446D01*
X169355Y52445D01*
X169652Y51751D01*
X169751Y51061D01*
X169751Y49771D01*
X169554Y49082D01*
X169256Y48486D01*
X168958Y47891D01*
X168563Y47397D01*
X168067Y46901D01*
X167571Y46504D01*
X166978Y46109D01*
X166389Y45912D01*
X165693Y45813D01*
X165692Y45812D01*
X165692Y45813D01*
X165092Y45713D01*
X165051Y45669D01*
X165055Y45665D01*
X165051Y45662D01*
X165079Y45080D01*
X165049Y45666D01*
G37*
%LPD*%
%LPC*%
G36*
X59958Y35327D02*
X59958Y35327D01*
X59383Y35423D01*
X59003Y35993D01*
X59003Y36670D01*
X59196Y37249D01*
X59785Y37739D01*
X63484Y40539D01*
X64284Y41139D01*
X64285Y41144D01*
X64289Y41143D01*
X64489Y41343D01*
X64490Y41354D01*
X64491Y41354D01*
X64490Y41355D01*
X64491Y41357D01*
X64501Y41365D01*
X64493Y41375D01*
X64497Y41402D01*
X64470Y41406D01*
X64454Y41427D01*
X59674Y41427D01*
X59003Y42098D01*
X59003Y42864D01*
X59288Y43338D01*
X59766Y43530D01*
X60557Y43629D01*
X67254Y43629D01*
X67301Y43665D01*
X67299Y43667D01*
X67302Y43669D01*
X67299Y43673D01*
X67303Y43676D01*
X67305Y43707D01*
X67305Y43678D01*
X67341Y43631D01*
X67344Y43633D01*
X67346Y43629D01*
X67930Y43532D01*
X68307Y43155D01*
X68405Y42375D01*
X68405Y41798D01*
X67822Y41215D01*
X63024Y37617D01*
X63020Y37601D01*
X63007Y37591D01*
X63014Y37581D01*
X63008Y37560D01*
X63036Y37552D01*
X63054Y37529D01*
X67740Y37529D01*
X68213Y37245D01*
X68405Y36670D01*
X68405Y35798D01*
X68030Y35424D01*
X67450Y35327D01*
X59958Y35327D01*
G37*
%LPD*%
%LPC*%
G36*
X59255Y199947D02*
X59255Y199947D01*
X58782Y200137D01*
X58495Y200710D01*
X58495Y201384D01*
X58785Y201868D01*
X59378Y202461D01*
X62074Y204458D01*
X63873Y205657D01*
X63893Y205713D01*
X63888Y205715D01*
X63890Y205720D01*
X63790Y205920D01*
X63753Y205939D01*
X63746Y205947D01*
X58966Y205947D01*
X58689Y206225D01*
X58495Y206806D01*
X58495Y207481D01*
X58875Y207956D01*
X59454Y208149D01*
X66942Y208149D01*
X67522Y208052D01*
X67897Y207678D01*
X67897Y206802D01*
X67800Y206222D01*
X67214Y205635D01*
X62816Y202337D01*
X62815Y202332D01*
X62811Y202333D01*
X62611Y202133D01*
X62609Y202119D01*
X62599Y202111D01*
X62607Y202101D01*
X62603Y202074D01*
X62630Y202070D01*
X62646Y202049D01*
X67332Y202049D01*
X67801Y201768D01*
X67896Y201097D01*
X67799Y200225D01*
X67430Y199947D01*
X59255Y199947D01*
G37*
%LPD*%
%LPC*%
G36*
X225559Y79695D02*
X225559Y79695D01*
X225198Y79700D01*
X222610Y86818D01*
X222609Y86820D01*
X222611Y86854D01*
X222539Y87045D01*
X224875Y87045D01*
X224932Y86849D01*
X226281Y82276D01*
X226295Y82264D01*
X226301Y82246D01*
X226324Y82239D01*
X226333Y82232D01*
X226340Y82235D01*
X226350Y82232D01*
X226499Y82253D01*
X226507Y82260D01*
X226517Y82259D01*
X226549Y82297D01*
X226550Y82298D01*
X227890Y87036D01*
X228187Y87045D01*
X229775Y87045D01*
X230177Y87047D01*
X231527Y82440D01*
X231624Y82084D01*
X231638Y82072D01*
X231643Y82054D01*
X231661Y82051D01*
X231675Y82039D01*
X231692Y82046D01*
X231711Y82044D01*
X231726Y82061D01*
X231737Y82066D01*
X231739Y82075D01*
X231745Y82083D01*
X233145Y86706D01*
X233247Y87045D01*
X235321Y87045D01*
X235505Y87039D01*
X235415Y86777D01*
X232855Y79702D01*
X232526Y79695D01*
X230940Y79695D01*
X230474Y79718D01*
X229082Y84231D01*
X229069Y84242D01*
X229066Y84258D01*
X229046Y84262D01*
X229030Y84275D01*
X229015Y84268D01*
X228999Y84271D01*
X228979Y84251D01*
X228969Y84246D01*
X228968Y84239D01*
X228963Y84234D01*
X228806Y83797D01*
X228806Y83796D01*
X228805Y83795D01*
X227532Y79714D01*
X227146Y79695D01*
X225559Y79695D01*
G37*
%LPD*%
%LPC*%
G36*
X84850Y202617D02*
X84850Y202617D01*
X84273Y202714D01*
X83895Y203185D01*
X83895Y203960D01*
X84089Y204541D01*
X84578Y205030D01*
X88375Y207728D01*
X88375Y207729D01*
X88376Y207729D01*
X89176Y208329D01*
X89177Y208334D01*
X89181Y208333D01*
X89381Y208533D01*
X89383Y208547D01*
X89393Y208555D01*
X89385Y208565D01*
X89389Y208592D01*
X89362Y208596D01*
X89346Y208617D01*
X84568Y208617D01*
X83895Y209387D01*
X83895Y210056D01*
X84182Y210629D01*
X84655Y210819D01*
X92143Y210819D01*
X92827Y210721D01*
X93200Y210441D01*
X93297Y209665D01*
X93297Y208991D01*
X92714Y208506D01*
X88016Y204807D01*
X88011Y204791D01*
X87999Y204781D01*
X88006Y204771D01*
X88001Y204749D01*
X88029Y204742D01*
X88046Y204719D01*
X92637Y204719D01*
X93107Y204531D01*
X93297Y203960D01*
X93297Y203088D01*
X92922Y202714D01*
X92342Y202617D01*
X84850Y202617D01*
G37*
%LPD*%
G36*
X72365Y165946D02*
X72365Y165946D01*
X72372Y165941D01*
X72972Y166141D01*
X72985Y166161D01*
X72998Y166163D01*
X73298Y166663D01*
X73296Y166681D01*
X73305Y166688D01*
X73305Y169368D01*
X73676Y169739D01*
X76336Y169739D01*
X76707Y169368D01*
X76707Y166688D01*
X76715Y166677D01*
X76710Y166670D01*
X76910Y166170D01*
X76938Y166153D01*
X76942Y166141D01*
X77642Y165941D01*
X77652Y165944D01*
X77656Y165939D01*
X78456Y165939D01*
X78477Y165955D01*
X78491Y165953D01*
X78891Y166353D01*
X78892Y166365D01*
X78897Y166369D01*
X78896Y166370D01*
X78903Y166372D01*
X79103Y166972D01*
X79099Y166983D01*
X79105Y166988D01*
X79105Y174588D01*
X79098Y174597D01*
X79103Y174604D01*
X78903Y175204D01*
X78881Y175219D01*
X78878Y175232D01*
X78278Y175532D01*
X78262Y175529D01*
X78256Y175537D01*
X77556Y175537D01*
X77547Y175530D01*
X77540Y175535D01*
X76940Y175335D01*
X76922Y175308D01*
X76909Y175304D01*
X76709Y174704D01*
X76713Y174693D01*
X76707Y174688D01*
X76707Y171913D01*
X76340Y171637D01*
X73581Y171637D01*
X73305Y172004D01*
X73305Y174688D01*
X73298Y174697D01*
X73303Y174704D01*
X73103Y175304D01*
X73074Y175323D01*
X73070Y175335D01*
X72370Y175535D01*
X72360Y175532D01*
X72356Y175537D01*
X71556Y175537D01*
X71541Y175526D01*
X71531Y175530D01*
X71031Y175230D01*
X71019Y175202D01*
X71007Y175195D01*
X70907Y174495D01*
X70910Y174490D01*
X70907Y174488D01*
X70907Y166988D01*
X70910Y166983D01*
X70907Y166980D01*
X71007Y166380D01*
X71023Y166365D01*
X71021Y166353D01*
X71421Y165953D01*
X71448Y165950D01*
X71456Y165939D01*
X72356Y165939D01*
X72365Y165946D01*
G37*
G36*
X98863Y165949D02*
X98863Y165949D01*
X98874Y165942D01*
X99374Y166142D01*
X99382Y166154D01*
X99391Y166153D01*
X99991Y166753D01*
X99993Y166767D01*
X100002Y166770D01*
X100202Y167270D01*
X100194Y167298D01*
X100200Y167310D01*
X99900Y167910D01*
X99890Y167915D01*
X99891Y167923D01*
X99392Y168422D01*
X97123Y170888D01*
X99892Y173854D01*
X99893Y173865D01*
X99900Y173866D01*
X100200Y174466D01*
X100195Y174492D01*
X100203Y174504D01*
X100003Y175104D01*
X99987Y175114D01*
X99988Y175126D01*
X99388Y175626D01*
X99376Y175626D01*
X99374Y175634D01*
X98874Y175834D01*
X98851Y175827D01*
X98840Y175835D01*
X98240Y175635D01*
X98230Y175619D01*
X98218Y175620D01*
X97718Y175020D01*
X95919Y173021D01*
X95919Y173019D01*
X95918Y173019D01*
X95555Y172566D01*
X93394Y175120D01*
X93387Y175121D01*
X93388Y175126D01*
X92788Y175626D01*
X92776Y175626D01*
X92774Y175634D01*
X92274Y175834D01*
X92251Y175827D01*
X92240Y175835D01*
X91640Y175635D01*
X91631Y175621D01*
X91621Y175623D01*
X91021Y175023D01*
X91018Y175003D01*
X91008Y174998D01*
X90908Y174498D01*
X90918Y174477D01*
X90912Y174466D01*
X91212Y173866D01*
X91221Y173862D01*
X91220Y173855D01*
X93518Y171356D01*
X93891Y170890D01*
X91620Y168421D01*
X91620Y168419D01*
X91618Y168420D01*
X91118Y167820D01*
X91118Y167806D01*
X91109Y167804D01*
X90909Y167204D01*
X90916Y167184D01*
X90916Y167183D01*
X90916Y167182D01*
X90917Y167181D01*
X90910Y167170D01*
X91110Y166670D01*
X91125Y166661D01*
X91124Y166650D01*
X91724Y166150D01*
X91738Y166150D01*
X91740Y166141D01*
X92340Y165941D01*
X92363Y165949D01*
X92374Y165942D01*
X92874Y166142D01*
X92883Y166157D01*
X92894Y166156D01*
X93393Y166756D01*
X95192Y168855D01*
X95554Y169216D01*
X98219Y166156D01*
X98237Y166152D01*
X98240Y166141D01*
X98840Y165941D01*
X98863Y165949D01*
G37*
G36*
X19017Y58761D02*
X19017Y58761D01*
X19028Y58754D01*
X19528Y58954D01*
X19536Y58966D01*
X19545Y58965D01*
X20145Y59565D01*
X20147Y59579D01*
X20156Y59582D01*
X20356Y60082D01*
X20348Y60110D01*
X20354Y60122D01*
X20054Y60722D01*
X20044Y60727D01*
X20045Y60735D01*
X19546Y61234D01*
X17277Y63700D01*
X20046Y66666D01*
X20047Y66677D01*
X20054Y66678D01*
X20354Y67278D01*
X20349Y67304D01*
X20357Y67316D01*
X20157Y67916D01*
X20141Y67926D01*
X20142Y67938D01*
X19542Y68438D01*
X19530Y68438D01*
X19528Y68446D01*
X19028Y68646D01*
X19005Y68639D01*
X18994Y68647D01*
X18394Y68447D01*
X18384Y68431D01*
X18372Y68432D01*
X17872Y67832D01*
X16073Y65833D01*
X16073Y65831D01*
X16072Y65831D01*
X15709Y65378D01*
X13548Y67932D01*
X13541Y67933D01*
X13542Y67938D01*
X12942Y68438D01*
X12930Y68438D01*
X12928Y68446D01*
X12428Y68646D01*
X12405Y68639D01*
X12394Y68647D01*
X11794Y68447D01*
X11785Y68433D01*
X11775Y68435D01*
X11175Y67835D01*
X11172Y67815D01*
X11162Y67810D01*
X11062Y67310D01*
X11072Y67289D01*
X11066Y67278D01*
X11366Y66678D01*
X11375Y66674D01*
X11374Y66667D01*
X13672Y64168D01*
X14045Y63702D01*
X11774Y61233D01*
X11774Y61231D01*
X11772Y61232D01*
X11272Y60632D01*
X11272Y60618D01*
X11263Y60616D01*
X11063Y60016D01*
X11070Y59996D01*
X11070Y59995D01*
X11070Y59994D01*
X11071Y59993D01*
X11064Y59982D01*
X11264Y59482D01*
X11279Y59473D01*
X11278Y59462D01*
X11878Y58962D01*
X11892Y58962D01*
X11894Y58953D01*
X12494Y58753D01*
X12517Y58761D01*
X12528Y58754D01*
X13028Y58954D01*
X13037Y58969D01*
X13048Y58968D01*
X13547Y59568D01*
X15346Y61667D01*
X15708Y62028D01*
X18373Y58968D01*
X18391Y58964D01*
X18394Y58953D01*
X18994Y58753D01*
X19017Y58761D01*
G37*
%LPC*%
G36*
X59858Y45727D02*
X59858Y45727D01*
X59285Y45823D01*
X59003Y46292D01*
X59003Y49574D01*
X59102Y50167D01*
X59300Y50860D01*
X59597Y51455D01*
X59894Y51949D01*
X60389Y52543D01*
X60885Y52940D01*
X61381Y53336D01*
X61972Y53632D01*
X62661Y53829D01*
X64647Y53829D01*
X65336Y53632D01*
X65931Y53335D01*
X66425Y53038D01*
X67019Y52543D01*
X67414Y52049D01*
X67811Y51453D01*
X68108Y50859D01*
X68306Y50267D01*
X68405Y49575D01*
X68405Y46881D01*
X68307Y46198D01*
X68027Y45824D01*
X67351Y45727D01*
X61081Y45727D01*
X61593Y47929D01*
X65554Y47929D01*
X65559Y47932D01*
X65562Y47929D01*
X66162Y48029D01*
X66203Y48073D01*
X66200Y48076D01*
X66203Y48078D01*
X66203Y50078D01*
X66194Y50091D01*
X66198Y50100D01*
X66098Y50300D01*
X66088Y50305D01*
X66089Y50313D01*
X65089Y51313D01*
X65077Y51314D01*
X65076Y51322D01*
X64476Y51622D01*
X64465Y51620D01*
X64461Y51627D01*
X63761Y51727D01*
X63752Y51722D01*
X63747Y51727D01*
X63047Y51627D01*
X63039Y51619D01*
X63032Y51622D01*
X62432Y51322D01*
X62429Y51315D01*
X62423Y51316D01*
X61923Y50916D01*
X61921Y50909D01*
X61916Y50909D01*
X61516Y50409D01*
X61515Y50401D01*
X61510Y50400D01*
X61210Y49800D01*
X61213Y49784D01*
X61205Y49778D01*
X61205Y48378D01*
X61218Y48360D01*
X61215Y48348D01*
X61501Y47967D01*
X60980Y45727D01*
X59858Y45727D01*
G37*
%LPD*%
%LPC*%
G36*
X161208Y25013D02*
X161208Y25013D01*
X160630Y25206D01*
X160339Y25594D01*
X160298Y25605D01*
X160325Y25622D01*
X160339Y25656D01*
X160349Y25664D01*
X160349Y29160D01*
X160447Y29749D01*
X161041Y30935D01*
X161533Y31427D01*
X162029Y31824D01*
X162618Y32217D01*
X163303Y32315D01*
X163997Y32315D01*
X164689Y32216D01*
X165278Y32019D01*
X165869Y31626D01*
X166362Y31133D01*
X166755Y30542D01*
X166953Y29948D01*
X167151Y29356D01*
X167151Y27364D01*
X167187Y27317D01*
X167191Y27320D01*
X167193Y27315D01*
X167893Y27215D01*
X167898Y27218D01*
X167900Y27215D01*
X169186Y27215D01*
X169655Y26934D01*
X169750Y26264D01*
X169653Y25483D01*
X169373Y25110D01*
X168697Y25013D01*
X161208Y25013D01*
G37*
%LPD*%
%LPC*%
G36*
X186508Y185021D02*
X186508Y185021D01*
X185939Y185211D01*
X185749Y185780D01*
X185749Y189169D01*
X185848Y189857D01*
X186143Y190447D01*
X186538Y191041D01*
X187033Y191535D01*
X187527Y191930D01*
X188115Y192224D01*
X188803Y192323D01*
X189497Y192323D01*
X190185Y192224D01*
X190775Y191929D01*
X191366Y191535D01*
X191760Y191043D01*
X192157Y190447D01*
X192453Y189857D01*
X192551Y189268D01*
X192551Y187872D01*
X192554Y187867D01*
X192551Y187864D01*
X192651Y187264D01*
X192695Y187223D01*
X192698Y187226D01*
X192700Y187223D01*
X193997Y187223D01*
X194681Y187125D01*
X195054Y186845D01*
X195150Y186072D01*
X195054Y185399D01*
X194681Y185119D01*
X193997Y185021D01*
X186508Y185021D01*
G37*
%LPD*%
%LPC*%
G36*
X161108Y184513D02*
X161108Y184513D01*
X160539Y184703D01*
X160349Y185272D01*
X160349Y188661D01*
X160448Y189349D01*
X160743Y189939D01*
X161138Y190533D01*
X161633Y191027D01*
X162127Y191422D01*
X162715Y191716D01*
X163403Y191815D01*
X164097Y191815D01*
X164785Y191716D01*
X165375Y191421D01*
X165966Y191027D01*
X166360Y190535D01*
X166757Y189939D01*
X167053Y189349D01*
X167151Y188760D01*
X167151Y187364D01*
X167154Y187359D01*
X167151Y187356D01*
X167251Y186756D01*
X167295Y186715D01*
X167298Y186718D01*
X167300Y186715D01*
X168597Y186715D01*
X169281Y186617D01*
X169654Y186337D01*
X169750Y185564D01*
X169654Y184891D01*
X169281Y184611D01*
X168597Y184513D01*
X161108Y184513D01*
G37*
%LPD*%
%LPC*%
G36*
X63457Y24727D02*
X63457Y24727D01*
X62065Y24926D01*
X61476Y25123D01*
X60883Y25518D01*
X60387Y25915D01*
X59891Y26411D01*
X59496Y26905D01*
X59198Y27500D01*
X58902Y28093D01*
X58803Y28785D01*
X58802Y28786D01*
X58803Y28786D01*
X58704Y29379D01*
X58803Y30071D01*
X58902Y30767D01*
X59100Y31359D01*
X59397Y31953D01*
X59786Y32537D01*
X60350Y32725D01*
X60927Y32437D01*
X61509Y31951D01*
X61603Y31484D01*
X61009Y30199D01*
X61011Y30189D01*
X61005Y30186D01*
X60905Y29586D01*
X60911Y29576D01*
X60905Y29571D01*
X61005Y28871D01*
X61009Y28867D01*
X61007Y28864D01*
X61207Y28164D01*
X61218Y28156D01*
X61216Y28147D01*
X61616Y27647D01*
X61623Y27645D01*
X61623Y27640D01*
X62123Y27240D01*
X62137Y27239D01*
X62140Y27231D01*
X62840Y27031D01*
X62845Y27033D01*
X62847Y27029D01*
X63547Y26929D01*
X63556Y26934D01*
X63561Y26929D01*
X64261Y27029D01*
X64266Y27034D01*
X64270Y27031D01*
X64870Y27231D01*
X64877Y27242D01*
X64885Y27240D01*
X65385Y27640D01*
X65387Y27647D01*
X65392Y27646D01*
X65892Y28246D01*
X65892Y28254D01*
X65892Y28260D01*
X65901Y28262D01*
X66101Y28862D01*
X66099Y28868D01*
X66103Y28870D01*
X66203Y29470D01*
X66200Y29475D01*
X66203Y29478D01*
X66203Y30178D01*
X66194Y30191D01*
X66198Y30200D01*
X65898Y30800D01*
X65861Y30819D01*
X65854Y30827D01*
X64554Y30827D01*
X64507Y30791D01*
X64511Y30786D01*
X64505Y30782D01*
X64406Y29400D01*
X64034Y29027D01*
X63362Y29027D01*
X62793Y29217D01*
X62603Y29786D01*
X62603Y31971D01*
X62797Y32649D01*
X63174Y32931D01*
X63857Y33029D01*
X66546Y33029D01*
X67127Y32835D01*
X67615Y32348D01*
X67911Y31855D01*
X68207Y31263D01*
X68305Y30671D01*
X68405Y29875D01*
X68405Y29181D01*
X68305Y28486D01*
X68207Y27893D01*
X67911Y27303D01*
X67516Y26709D01*
X66521Y25715D01*
X66027Y25320D01*
X65436Y25024D01*
X64743Y24826D01*
X64150Y24727D01*
X63457Y24727D01*
G37*
%LPD*%
G36*
X54585Y71462D02*
X54585Y71462D01*
X54595Y71458D01*
X55095Y71758D01*
X55103Y71777D01*
X55110Y71782D01*
X55117Y71784D01*
X55317Y72384D01*
X55312Y72400D01*
X55319Y72407D01*
X55219Y73107D01*
X55206Y73120D01*
X55208Y73131D01*
X54808Y73631D01*
X54783Y73637D01*
X54777Y73649D01*
X54077Y73749D01*
X54072Y73746D01*
X54070Y73749D01*
X51376Y73749D01*
X51053Y73830D01*
X54910Y79171D01*
X54910Y79183D01*
X54917Y79186D01*
X55117Y79886D01*
X55110Y79906D01*
X55117Y79916D01*
X54917Y80516D01*
X54898Y80528D01*
X54897Y80541D01*
X54297Y80941D01*
X54283Y80940D01*
X54278Y80949D01*
X53678Y81049D01*
X53673Y81046D01*
X53670Y81049D01*
X48270Y81049D01*
X48257Y81040D01*
X48248Y81044D01*
X47648Y80744D01*
X47633Y80714D01*
X47621Y80708D01*
X47521Y80108D01*
X47524Y80103D01*
X47521Y80100D01*
X47521Y79200D01*
X47537Y79179D01*
X47535Y79165D01*
X47935Y78765D01*
X47962Y78762D01*
X47970Y78751D01*
X51344Y78751D01*
X51510Y78501D01*
X47630Y73129D01*
X47630Y73112D01*
X47621Y73107D01*
X47521Y72407D01*
X47531Y72389D01*
X47526Y72378D01*
X47826Y71778D01*
X47843Y71769D01*
X47845Y71758D01*
X48345Y71458D01*
X48363Y71460D01*
X48370Y71451D01*
X54570Y71451D01*
X54585Y71462D01*
G37*
G36*
X46264Y165945D02*
X46264Y165945D01*
X46270Y165941D01*
X46970Y166141D01*
X46974Y166146D01*
X46978Y166144D01*
X47578Y166444D01*
X47579Y166447D01*
X47581Y166446D01*
X48081Y166746D01*
X48085Y166754D01*
X48091Y166753D01*
X48591Y167253D01*
X48592Y167265D01*
X48600Y167266D01*
X48900Y167866D01*
X48899Y167871D01*
X48903Y167872D01*
X49103Y168472D01*
X49101Y168479D01*
X49105Y168481D01*
X49205Y169181D01*
X49199Y169191D01*
X49205Y169196D01*
X49105Y169796D01*
X49094Y169806D01*
X49097Y169815D01*
X48697Y170415D01*
X48690Y170418D01*
X48691Y170423D01*
X48205Y170908D01*
X48205Y171264D01*
X48687Y171650D01*
X48692Y171669D01*
X48703Y171672D01*
X48903Y172272D01*
X48901Y172277D01*
X48904Y172279D01*
X48903Y172280D01*
X48905Y172281D01*
X49005Y172981D01*
X48998Y172994D01*
X49003Y173002D01*
X48803Y173702D01*
X48802Y173703D01*
X48803Y173704D01*
X48603Y174304D01*
X48589Y174313D01*
X48591Y174323D01*
X48092Y174822D01*
X47193Y175821D01*
X47164Y175826D01*
X47156Y175837D01*
X45056Y175837D01*
X45047Y175830D01*
X45040Y175835D01*
X44441Y175635D01*
X43742Y175435D01*
X43734Y175424D01*
X43725Y175426D01*
X43225Y175026D01*
X43224Y175022D01*
X43221Y175023D01*
X42721Y174523D01*
X42720Y174513D01*
X42713Y174512D01*
X42313Y173812D01*
X42315Y173801D01*
X42308Y173798D01*
X42208Y173298D01*
X42219Y173275D01*
X42214Y173263D01*
X42514Y172763D01*
X42530Y172756D01*
X42532Y172745D01*
X43232Y172345D01*
X43244Y172347D01*
X43248Y172339D01*
X43848Y172239D01*
X43854Y172243D01*
X43861Y172243D01*
X43874Y172253D01*
X43887Y172250D01*
X44387Y172650D01*
X44389Y172657D01*
X44394Y172657D01*
X44788Y173149D01*
X45368Y173439D01*
X46039Y173439D01*
X46507Y173064D01*
X46507Y172524D01*
X45945Y172336D01*
X45150Y172237D01*
X45143Y172230D01*
X45138Y172234D01*
X44638Y172034D01*
X44622Y172008D01*
X44609Y172004D01*
X44409Y171404D01*
X44414Y171389D01*
X44407Y171383D01*
X44507Y170483D01*
X44523Y170466D01*
X44521Y170453D01*
X44921Y170053D01*
X44941Y170050D01*
X44946Y170040D01*
X45446Y169940D01*
X45449Y169941D01*
X45450Y169939D01*
X46233Y169841D01*
X46707Y169368D01*
X46707Y168808D01*
X46330Y168432D01*
X45653Y168238D01*
X44971Y168336D01*
X44394Y168624D01*
X44101Y169307D01*
X44086Y169316D01*
X44086Y169327D01*
X43686Y169627D01*
X43668Y169627D01*
X43662Y169637D01*
X42862Y169737D01*
X42852Y169731D01*
X42848Y169731D01*
X42842Y169735D01*
X42142Y169535D01*
X42129Y169518D01*
X42117Y169518D01*
X41817Y169118D01*
X41817Y169109D01*
X41811Y169104D01*
X41817Y169096D01*
X41817Y169091D01*
X41807Y169081D01*
X41907Y168381D01*
X41912Y168376D01*
X41909Y168372D01*
X42109Y167772D01*
X42117Y167767D01*
X42115Y167761D01*
X42515Y167161D01*
X42522Y167158D01*
X42521Y167153D01*
X43021Y166653D01*
X43030Y166652D01*
X43031Y166646D01*
X43531Y166346D01*
X43534Y166346D01*
X43534Y166344D01*
X44134Y166044D01*
X44145Y166046D01*
X44149Y166039D01*
X44849Y165939D01*
X44854Y165942D01*
X44856Y165939D01*
X46256Y165939D01*
X46264Y165945D01*
G37*
G36*
X36964Y165945D02*
X36964Y165945D01*
X36970Y165941D01*
X37670Y166141D01*
X37674Y166146D01*
X37678Y166144D01*
X38278Y166444D01*
X38279Y166447D01*
X38281Y166446D01*
X38781Y166746D01*
X38785Y166754D01*
X38791Y166753D01*
X39291Y167253D01*
X39292Y167265D01*
X39300Y167266D01*
X39600Y167866D01*
X39599Y167871D01*
X39603Y167872D01*
X39803Y168472D01*
X39801Y168479D01*
X39805Y168481D01*
X39905Y169181D01*
X39899Y169191D01*
X39905Y169196D01*
X39805Y169796D01*
X39794Y169806D01*
X39797Y169815D01*
X39397Y170415D01*
X39390Y170418D01*
X39391Y170423D01*
X38905Y170908D01*
X38905Y171264D01*
X39387Y171650D01*
X39390Y171664D01*
X39400Y171666D01*
X39700Y172266D01*
X39698Y172275D01*
X39703Y172279D01*
X39700Y172284D01*
X39705Y172288D01*
X39705Y172988D01*
X39702Y172992D01*
X39705Y172995D01*
X39605Y173695D01*
X39597Y173703D01*
X39600Y173710D01*
X39300Y174310D01*
X39290Y174315D01*
X39291Y174323D01*
X38792Y174822D01*
X37893Y175821D01*
X37864Y175826D01*
X37856Y175837D01*
X35756Y175837D01*
X35747Y175830D01*
X35740Y175835D01*
X35141Y175635D01*
X34442Y175435D01*
X34434Y175424D01*
X34425Y175426D01*
X33925Y175026D01*
X33924Y175022D01*
X33921Y175023D01*
X33421Y174523D01*
X33419Y174510D01*
X33411Y174507D01*
X33111Y173807D01*
X33113Y173800D01*
X33108Y173798D01*
X33008Y173298D01*
X33019Y173275D01*
X33014Y173263D01*
X33314Y172763D01*
X33328Y172757D01*
X33329Y172747D01*
X33929Y172347D01*
X33943Y172348D01*
X33948Y172339D01*
X34548Y172239D01*
X34554Y172243D01*
X34561Y172243D01*
X34574Y172253D01*
X34587Y172250D01*
X35087Y172650D01*
X35089Y172657D01*
X35094Y172657D01*
X35488Y173149D01*
X36068Y173439D01*
X36739Y173439D01*
X37207Y173064D01*
X37207Y172524D01*
X36645Y172336D01*
X35850Y172237D01*
X35843Y172230D01*
X35838Y172234D01*
X35338Y172034D01*
X35322Y172008D01*
X35309Y172004D01*
X35109Y171404D01*
X35114Y171389D01*
X35107Y171383D01*
X35207Y170483D01*
X35223Y170466D01*
X35221Y170453D01*
X35621Y170053D01*
X35642Y170050D01*
X35648Y170039D01*
X36248Y169939D01*
X36249Y169940D01*
X36249Y169939D01*
X36933Y169842D01*
X37410Y169364D01*
X37503Y168808D01*
X37032Y168432D01*
X36451Y168238D01*
X35769Y168336D01*
X35097Y168624D01*
X34903Y169302D01*
X34886Y169315D01*
X34886Y169327D01*
X34486Y169627D01*
X34468Y169627D01*
X34462Y169637D01*
X33662Y169737D01*
X33652Y169731D01*
X33648Y169731D01*
X33642Y169735D01*
X32942Y169535D01*
X32929Y169518D01*
X32917Y169518D01*
X32617Y169118D01*
X32617Y169109D01*
X32611Y169104D01*
X32617Y169096D01*
X32607Y169088D01*
X32607Y168388D01*
X32614Y168379D01*
X32609Y168372D01*
X32809Y167772D01*
X32817Y167767D01*
X32815Y167761D01*
X33215Y167161D01*
X33222Y167158D01*
X33221Y167153D01*
X33721Y166653D01*
X33730Y166652D01*
X33731Y166646D01*
X34231Y166346D01*
X34234Y166346D01*
X34234Y166344D01*
X34834Y166044D01*
X34845Y166046D01*
X34849Y166039D01*
X35549Y165939D01*
X35554Y165942D01*
X35556Y165939D01*
X36956Y165939D01*
X36964Y165945D01*
G37*
%LPC*%
G36*
X160729Y219806D02*
X160729Y219806D01*
X160243Y220390D01*
X160052Y220866D01*
X160243Y221437D01*
X160733Y221928D01*
X162832Y223727D01*
X162833Y223729D01*
X162835Y223729D01*
X163235Y224129D01*
X163243Y224188D01*
X163232Y224190D01*
X163233Y224200D01*
X160734Y226500D01*
X160242Y226992D01*
X160052Y227466D01*
X160243Y228037D01*
X160824Y228619D01*
X161290Y228712D01*
X161870Y228325D01*
X164467Y226128D01*
X164865Y225729D01*
X164889Y225726D01*
X164890Y225725D01*
X164899Y225725D01*
X164924Y225721D01*
X164925Y225729D01*
X164933Y225728D01*
X167432Y228026D01*
X167927Y228422D01*
X168502Y228710D01*
X168972Y228522D01*
X169558Y227936D01*
X169748Y227462D01*
X169558Y226892D01*
X166468Y224201D01*
X166456Y224143D01*
X166470Y224140D01*
X166469Y224126D01*
X166969Y223726D01*
X168967Y221927D01*
X168969Y221927D01*
X168968Y221926D01*
X169559Y221434D01*
X169748Y220962D01*
X169557Y220391D01*
X168972Y219806D01*
X168504Y219619D01*
X168029Y219904D01*
X167432Y220402D01*
X164933Y222601D01*
X164873Y222605D01*
X164873Y222600D01*
X164868Y222601D01*
X161771Y219904D01*
X161294Y219618D01*
X160729Y219806D01*
G37*
%LPD*%
%LPC*%
G36*
X135932Y219229D02*
X135932Y219229D01*
X135351Y219811D01*
X135159Y220387D01*
X135253Y220857D01*
X135840Y221346D01*
X135840Y221347D01*
X135841Y221347D01*
X138341Y223547D01*
X138352Y223605D01*
X138345Y223607D01*
X138346Y223615D01*
X137946Y224115D01*
X137941Y224116D01*
X137941Y224121D01*
X135941Y225921D01*
X135939Y225921D01*
X135940Y225922D01*
X135349Y226414D01*
X135160Y226886D01*
X135352Y227460D01*
X135837Y228042D01*
X136402Y228230D01*
X136879Y227944D01*
X139975Y225147D01*
X139997Y225146D01*
X139999Y225143D01*
X140017Y225143D01*
X140018Y225144D01*
X140034Y225142D01*
X140035Y225149D01*
X140041Y225148D01*
X142541Y227448D01*
X142542Y227449D01*
X142543Y227449D01*
X143037Y227943D01*
X143610Y228230D01*
X144080Y228042D01*
X144666Y227456D01*
X144856Y226982D01*
X144666Y226412D01*
X141576Y223721D01*
X141564Y223663D01*
X141575Y223661D01*
X141573Y223649D01*
X141973Y223249D01*
X141976Y223249D01*
X141976Y223247D01*
X144076Y221447D01*
X144077Y221447D01*
X144076Y221446D01*
X144667Y220954D01*
X144857Y220479D01*
X144762Y219908D01*
X144180Y219326D01*
X143706Y219136D01*
X143132Y219328D01*
X142540Y219821D01*
X140041Y222120D01*
X139982Y222126D01*
X139982Y222121D01*
X139977Y222122D01*
X139477Y221722D01*
X139477Y221720D01*
X139475Y221720D01*
X136980Y219425D01*
X136401Y219136D01*
X135932Y219229D01*
G37*
%LPD*%
%LPC*%
G36*
X61057Y221246D02*
X61057Y221246D01*
X60465Y221444D01*
X59875Y221739D01*
X59381Y222233D01*
X59377Y222233D01*
X59377Y222236D01*
X58885Y222630D01*
X58592Y223216D01*
X58395Y223905D01*
X58395Y225290D01*
X58592Y225879D01*
X58888Y226471D01*
X59283Y226965D01*
X59775Y227457D01*
X60365Y227752D01*
X60957Y227950D01*
X61649Y228049D01*
X62339Y228049D01*
X63028Y227852D01*
X63619Y227556D01*
X64113Y227161D01*
X64608Y226667D01*
X65004Y226072D01*
X65303Y225575D01*
X65602Y224976D01*
X65620Y224967D01*
X65633Y224951D01*
X65641Y224957D01*
X65655Y224950D01*
X65670Y224979D01*
X65695Y224998D01*
X65695Y227395D01*
X65792Y228072D01*
X66263Y228449D01*
X66943Y228449D01*
X67616Y228353D01*
X67897Y227884D01*
X67897Y222501D01*
X67799Y221818D01*
X67417Y221340D01*
X66845Y221150D01*
X66164Y221344D01*
X65575Y221639D01*
X65083Y222131D01*
X64687Y222626D01*
X63689Y224422D01*
X63683Y224424D01*
X63684Y224429D01*
X63284Y224929D01*
X63280Y224930D01*
X63281Y224933D01*
X62781Y225433D01*
X62769Y225434D01*
X62768Y225442D01*
X62168Y225742D01*
X62158Y225740D01*
X62154Y225747D01*
X61554Y225847D01*
X61535Y225837D01*
X61524Y225842D01*
X60924Y225542D01*
X60914Y225522D01*
X60902Y225520D01*
X60602Y224920D01*
X60604Y224908D01*
X60599Y224904D01*
X60601Y224901D01*
X60597Y224898D01*
X60597Y224198D01*
X60611Y224179D01*
X60608Y224166D01*
X61108Y223566D01*
X61132Y223561D01*
X61138Y223549D01*
X61738Y223449D01*
X61739Y223450D01*
X61739Y223449D01*
X62427Y223351D01*
X62800Y223071D01*
X62896Y222298D01*
X62800Y221525D01*
X62427Y221245D01*
X61746Y221148D01*
X61057Y221246D01*
G37*
%LPD*%
G36*
X15361Y165942D02*
X15361Y165942D01*
X15364Y165939D01*
X15964Y166039D01*
X15970Y166046D01*
X15975Y166043D01*
X16675Y166343D01*
X16678Y166347D01*
X16681Y166346D01*
X17181Y166646D01*
X17183Y166650D01*
X17187Y166650D01*
X17687Y167050D01*
X17689Y167060D01*
X17697Y167061D01*
X18097Y167661D01*
X18096Y167670D01*
X18103Y167672D01*
X18303Y168272D01*
X18301Y168279D01*
X18305Y168281D01*
X18405Y168981D01*
X18400Y168989D01*
X18405Y168994D01*
X18305Y169794D01*
X18300Y169799D01*
X18303Y169804D01*
X18103Y170404D01*
X18092Y170411D01*
X18094Y170419D01*
X17694Y170919D01*
X17687Y170921D01*
X17687Y170926D01*
X17187Y171326D01*
X17179Y171327D01*
X17178Y171332D01*
X16578Y171632D01*
X16571Y171631D01*
X16570Y171635D01*
X15870Y171835D01*
X15868Y171835D01*
X15867Y171836D01*
X14578Y172133D01*
X14098Y172517D01*
X13911Y173078D01*
X14282Y173542D01*
X14951Y173638D01*
X15532Y173444D01*
X16124Y172950D01*
X16148Y172949D01*
X16156Y172939D01*
X16756Y172939D01*
X16771Y172950D01*
X16781Y172946D01*
X17281Y173246D01*
X17288Y173262D01*
X17299Y173264D01*
X17699Y173964D01*
X17697Y173975D01*
X17704Y173978D01*
X17804Y174478D01*
X17789Y174510D01*
X17791Y174523D01*
X17291Y175023D01*
X17287Y175023D01*
X17287Y175026D01*
X16787Y175426D01*
X16773Y175427D01*
X16770Y175435D01*
X16070Y175635D01*
X16065Y175634D01*
X16063Y175637D01*
X14663Y175837D01*
X14654Y175832D01*
X14649Y175837D01*
X13949Y175737D01*
X13945Y175733D01*
X13942Y175735D01*
X13242Y175535D01*
X13237Y175528D01*
X13231Y175530D01*
X12731Y175230D01*
X12729Y175226D01*
X12725Y175226D01*
X12225Y174826D01*
X12223Y174816D01*
X12215Y174815D01*
X11815Y174215D01*
X11816Y174206D01*
X11809Y174204D01*
X11609Y173604D01*
X11611Y173598D01*
X11607Y173596D01*
X11507Y172996D01*
X11513Y172986D01*
X11507Y172981D01*
X11607Y172281D01*
X11611Y172277D01*
X11609Y172274D01*
X11809Y171574D01*
X11816Y171569D01*
X11814Y171563D01*
X12114Y171063D01*
X12125Y171058D01*
X12125Y171050D01*
X12625Y170650D01*
X12633Y170649D01*
X12634Y170644D01*
X13234Y170344D01*
X13236Y170344D01*
X13237Y170343D01*
X13937Y170043D01*
X13940Y170044D01*
X13940Y170041D01*
X14540Y169841D01*
X14547Y169843D01*
X14549Y169839D01*
X15241Y169740D01*
X15812Y169455D01*
X15905Y168893D01*
X15718Y168425D01*
X15049Y168139D01*
X14374Y168235D01*
X13786Y168627D01*
X13188Y169126D01*
X13176Y169126D01*
X13174Y169134D01*
X12674Y169334D01*
X12662Y169330D01*
X12657Y169337D01*
X12655Y169337D01*
X12651Y169334D01*
X12648Y169337D01*
X12048Y169237D01*
X12031Y169219D01*
X12018Y169220D01*
X11518Y168620D01*
X11518Y168612D01*
X11517Y168612D01*
X11518Y168611D01*
X11517Y168602D01*
X11508Y168598D01*
X11408Y168098D01*
X11417Y168079D01*
X11411Y168069D01*
X11711Y167369D01*
X11722Y167362D01*
X11721Y167353D01*
X12121Y166953D01*
X12128Y166952D01*
X12129Y166947D01*
X12727Y166548D01*
X13225Y166150D01*
X13239Y166149D01*
X13242Y166141D01*
X13942Y165941D01*
X13952Y165944D01*
X13956Y165939D01*
X15356Y165939D01*
X15361Y165942D01*
G37*
G36*
X86364Y165945D02*
X86364Y165945D01*
X86370Y165941D01*
X87770Y166341D01*
X87775Y166348D01*
X87781Y166346D01*
X88281Y166646D01*
X88283Y166650D01*
X88287Y166650D01*
X88787Y167050D01*
X88792Y167069D01*
X88803Y167072D01*
X89003Y167672D01*
X88995Y167696D01*
X89001Y167707D01*
X88701Y168407D01*
X88690Y168414D01*
X88691Y168423D01*
X88191Y168923D01*
X88171Y168926D01*
X88166Y168936D01*
X87666Y169036D01*
X87644Y169026D01*
X87632Y169031D01*
X86933Y168632D01*
X86344Y168337D01*
X85068Y168337D01*
X84481Y168631D01*
X83890Y169025D01*
X83500Y169512D01*
X83304Y170099D01*
X83206Y170788D01*
X83304Y171477D01*
X83501Y172066D01*
X83891Y172651D01*
X84378Y172944D01*
X85070Y173240D01*
X85657Y173338D01*
X86345Y173240D01*
X86936Y173043D01*
X87632Y172645D01*
X87649Y172648D01*
X87656Y172639D01*
X88056Y172639D01*
X88077Y172655D01*
X88091Y172653D01*
X88591Y173153D01*
X88592Y173160D01*
X88597Y173161D01*
X88997Y173761D01*
X88996Y173781D01*
X89005Y173788D01*
X89005Y174388D01*
X88989Y174409D01*
X88991Y174423D01*
X88491Y174923D01*
X88479Y174924D01*
X88478Y174932D01*
X87278Y175532D01*
X87267Y175530D01*
X87263Y175537D01*
X85863Y175737D01*
X85858Y175734D01*
X85856Y175737D01*
X85256Y175737D01*
X85252Y175734D01*
X85249Y175737D01*
X84549Y175637D01*
X84544Y175632D01*
X84540Y175635D01*
X83940Y175435D01*
X83939Y175432D01*
X83937Y175433D01*
X83237Y175133D01*
X83232Y175125D01*
X83225Y175126D01*
X82225Y174326D01*
X82224Y174322D01*
X82221Y174323D01*
X81721Y173823D01*
X81720Y173811D01*
X81712Y173810D01*
X81112Y172610D01*
X81113Y172605D01*
X81109Y172604D01*
X80909Y172004D01*
X80911Y171997D01*
X80907Y171995D01*
X80807Y171295D01*
X80810Y171290D01*
X80807Y171288D01*
X80807Y170588D01*
X80810Y170584D01*
X80807Y170581D01*
X80907Y169881D01*
X80908Y169880D01*
X80907Y169880D01*
X81007Y169280D01*
X81014Y169274D01*
X81011Y169269D01*
X81311Y168569D01*
X81315Y168566D01*
X81314Y168563D01*
X81614Y168063D01*
X81622Y168059D01*
X81621Y168053D01*
X82621Y167053D01*
X82625Y167053D01*
X82625Y167050D01*
X83125Y166650D01*
X83133Y166649D01*
X83134Y166644D01*
X83734Y166344D01*
X83739Y166345D01*
X83740Y166341D01*
X84340Y166141D01*
X84342Y166142D01*
X84342Y166141D01*
X85042Y165941D01*
X85052Y165944D01*
X85056Y165939D01*
X86356Y165939D01*
X86364Y165945D01*
G37*
%LPC*%
G36*
X90144Y46250D02*
X90144Y46250D01*
X89950Y46928D01*
X90047Y47701D01*
X90429Y48083D01*
X91022Y48380D01*
X91030Y48396D01*
X91041Y48397D01*
X91441Y48997D01*
X91440Y49017D01*
X91449Y49024D01*
X91449Y49724D01*
X91442Y49733D01*
X91447Y49740D01*
X91247Y50340D01*
X91233Y50349D01*
X91235Y50359D01*
X90735Y50859D01*
X90709Y50862D01*
X90704Y50870D01*
X90689Y50870D01*
X90688Y50869D01*
X90684Y50871D01*
X90084Y50671D01*
X90073Y50654D01*
X90062Y50655D01*
X89662Y50155D01*
X89661Y50147D01*
X89658Y50144D01*
X89661Y50140D01*
X89661Y50136D01*
X89651Y50130D01*
X89551Y49332D01*
X89456Y48855D01*
X88984Y48572D01*
X88109Y48475D01*
X87544Y48757D01*
X87449Y49232D01*
X87349Y50030D01*
X87339Y50041D01*
X87342Y50049D01*
X87042Y50549D01*
X86998Y50567D01*
X86992Y50573D01*
X86392Y50473D01*
X86371Y50451D01*
X86358Y50449D01*
X86058Y49949D01*
X86060Y49931D01*
X86051Y49924D01*
X86051Y49224D01*
X86063Y49208D01*
X86059Y49197D01*
X86459Y48597D01*
X86469Y48593D01*
X86469Y48586D01*
X86962Y48191D01*
X87248Y47714D01*
X87153Y47141D01*
X86767Y46465D01*
X86200Y46276D01*
X85622Y46469D01*
X85031Y46862D01*
X84539Y47355D01*
X84244Y47846D01*
X83948Y48538D01*
X83849Y49128D01*
X83849Y51004D01*
X84833Y51987D01*
X85327Y52382D01*
X85918Y52678D01*
X86603Y52874D01*
X87289Y52776D01*
X87871Y52582D01*
X88262Y52093D01*
X88292Y52086D01*
X88300Y52075D01*
X88700Y52075D01*
X88721Y52091D01*
X88735Y52089D01*
X89231Y52586D01*
X89818Y52977D01*
X90401Y53074D01*
X91090Y52976D01*
X91780Y52778D01*
X92270Y52485D01*
X92762Y51993D01*
X93155Y51402D01*
X93353Y50808D01*
X93551Y50216D01*
X93551Y48732D01*
X93353Y48140D01*
X93155Y47546D01*
X92762Y46955D01*
X92369Y46562D01*
X91779Y46169D01*
X91089Y45972D01*
X90517Y45877D01*
X90144Y46250D01*
G37*
%LPD*%
%LPC*%
G36*
X90237Y24968D02*
X90237Y24968D01*
X90048Y25535D01*
X89951Y26313D01*
X90237Y26789D01*
X90827Y27183D01*
X90830Y27190D01*
X90835Y27189D01*
X91235Y27589D01*
X91237Y27602D01*
X91247Y27610D01*
X91447Y28310D01*
X91442Y28324D01*
X91449Y28331D01*
X91349Y29031D01*
X91339Y29041D01*
X91342Y29049D01*
X91042Y29549D01*
X91020Y29558D01*
X91016Y29571D01*
X90416Y29771D01*
X90385Y29761D01*
X90373Y29765D01*
X89773Y29365D01*
X89765Y29342D01*
X89753Y29338D01*
X89553Y28638D01*
X89556Y28628D01*
X89551Y28624D01*
X89551Y28038D01*
X89268Y27566D01*
X88598Y27375D01*
X87725Y27569D01*
X87446Y27847D01*
X87349Y28530D01*
X87249Y29330D01*
X87221Y29358D01*
X87218Y29370D01*
X86718Y29570D01*
X86681Y29560D01*
X86669Y29562D01*
X86169Y29162D01*
X86163Y29137D01*
X86151Y29131D01*
X86051Y28431D01*
X86057Y28421D01*
X86051Y28416D01*
X86151Y27816D01*
X86167Y27801D01*
X86165Y27789D01*
X86665Y27289D01*
X86672Y27288D01*
X86673Y27283D01*
X87251Y26898D01*
X87251Y26334D01*
X86960Y25655D01*
X86483Y25273D01*
X85912Y25273D01*
X85327Y25566D01*
X84735Y26059D01*
X84342Y26551D01*
X84048Y27139D01*
X83949Y27831D01*
X83849Y28527D01*
X83849Y29808D01*
X84137Y30192D01*
X85131Y31186D01*
X85722Y31579D01*
X86308Y31775D01*
X86897Y31775D01*
X87580Y31677D01*
X88065Y31289D01*
X88462Y30793D01*
X88492Y30786D01*
X88499Y30776D01*
X88501Y30776D01*
X88508Y30781D01*
X88519Y30779D01*
X88523Y30792D01*
X88524Y30793D01*
X88538Y30792D01*
X89035Y31389D01*
X89524Y31780D01*
X90108Y31975D01*
X90797Y31975D01*
X91485Y31876D01*
X92071Y31583D01*
X92563Y31091D01*
X92960Y30596D01*
X93254Y30104D01*
X93452Y29414D01*
X93551Y28721D01*
X93551Y28027D01*
X93452Y27335D01*
X93254Y26743D01*
X92958Y26151D01*
X92565Y25659D01*
X92074Y25267D01*
X91386Y24972D01*
X90800Y24874D01*
X90237Y24968D01*
G37*
%LPD*%
%LPC*%
G36*
X142271Y24549D02*
X142271Y24549D01*
X141791Y24934D01*
X141403Y25515D01*
X141403Y25984D01*
X142293Y27170D01*
X142293Y27177D01*
X142298Y27178D01*
X142598Y27778D01*
X142594Y27802D01*
X142602Y27812D01*
X142402Y28612D01*
X142387Y28624D01*
X142389Y28635D01*
X141989Y29035D01*
X141962Y29039D01*
X141954Y29049D01*
X141354Y29049D01*
X141329Y29030D01*
X141316Y29031D01*
X140916Y28531D01*
X140915Y28518D01*
X140907Y28516D01*
X140707Y27916D01*
X140709Y27909D01*
X140705Y27907D01*
X140606Y27213D01*
X140309Y26519D01*
X140310Y26516D01*
X140307Y26516D01*
X140110Y25924D01*
X139719Y25435D01*
X139228Y25043D01*
X138540Y24748D01*
X137950Y24649D01*
X137261Y24649D01*
X136577Y24845D01*
X136085Y25238D01*
X135591Y25634D01*
X135199Y26222D01*
X135002Y26811D01*
X134903Y27503D01*
X134903Y28197D01*
X135002Y28887D01*
X135298Y29578D01*
X135594Y30071D01*
X136081Y30655D01*
X136544Y30748D01*
X137123Y30362D01*
X137605Y29880D01*
X137605Y29314D01*
X136912Y28226D01*
X136914Y28204D01*
X136908Y28199D01*
X136909Y28198D01*
X136905Y28194D01*
X137005Y27394D01*
X137021Y27378D01*
X137019Y27365D01*
X137419Y26965D01*
X137445Y26962D01*
X137450Y26955D01*
X137451Y26955D01*
X137454Y26951D01*
X138054Y26951D01*
X138079Y26970D01*
X138092Y26969D01*
X138492Y27469D01*
X138493Y27479D01*
X138499Y27483D01*
X138498Y27485D01*
X138501Y27486D01*
X139101Y29486D01*
X139298Y30076D01*
X139691Y30567D01*
X140181Y31057D01*
X140765Y31252D01*
X141454Y31350D01*
X142243Y31252D01*
X142835Y31054D01*
X143425Y30759D01*
X143913Y30271D01*
X144507Y29085D01*
X144605Y28496D01*
X144605Y27107D01*
X144408Y26418D01*
X144113Y25827D01*
X143617Y25233D01*
X143222Y24837D01*
X142838Y24549D01*
X142271Y24549D01*
G37*
%LPD*%
%LPC*%
G36*
X116424Y222237D02*
X116424Y222237D01*
X115846Y222816D01*
X115751Y223387D01*
X115943Y223866D01*
X116438Y224460D01*
X116438Y224465D01*
X116441Y224465D01*
X116841Y225065D01*
X116840Y225080D01*
X116849Y225085D01*
X116949Y225785D01*
X116939Y225803D01*
X116944Y225814D01*
X116644Y226414D01*
X116627Y226423D01*
X116625Y226434D01*
X116125Y226734D01*
X116112Y226733D01*
X116093Y226733D01*
X116084Y226739D01*
X115484Y226539D01*
X115469Y226517D01*
X115456Y226514D01*
X115156Y225914D01*
X115157Y225911D01*
X115154Y225909D01*
X115158Y225904D01*
X115151Y225900D01*
X115052Y225303D01*
X114854Y224609D01*
X114555Y223913D01*
X114259Y223321D01*
X113869Y222930D01*
X113278Y222537D01*
X112689Y222340D01*
X112000Y222242D01*
X111315Y222340D01*
X110725Y222635D01*
X110134Y223029D01*
X109742Y223519D01*
X109447Y224107D01*
X109349Y224699D01*
X109250Y225492D01*
X109349Y226184D01*
X109448Y226778D01*
X109744Y227470D01*
X110038Y227959D01*
X110609Y228435D01*
X111079Y228248D01*
X111763Y227857D01*
X112047Y227288D01*
X111856Y226716D01*
X111462Y226223D01*
X111461Y226211D01*
X111455Y226207D01*
X111453Y226206D01*
X111253Y225506D01*
X111260Y225486D01*
X111253Y225476D01*
X111453Y224876D01*
X111470Y224865D01*
X111469Y224854D01*
X111969Y224454D01*
X112013Y224452D01*
X112022Y224448D01*
X112622Y224748D01*
X112632Y224768D01*
X112644Y224770D01*
X112944Y225370D01*
X112942Y225379D01*
X112948Y225382D01*
X113247Y226776D01*
X113544Y227370D01*
X113543Y227375D01*
X113547Y227376D01*
X113743Y227965D01*
X114229Y228451D01*
X114819Y228746D01*
X115408Y228943D01*
X116097Y228943D01*
X116789Y228844D01*
X117376Y228648D01*
X117965Y228157D01*
X118358Y227665D01*
X118654Y227073D01*
X118852Y226481D01*
X118951Y225789D01*
X118951Y225096D01*
X118852Y224503D01*
X118655Y223813D01*
X118260Y223221D01*
X117863Y222725D01*
X117572Y222434D01*
X116895Y222143D01*
X116424Y222237D01*
G37*
%LPD*%
%LPC*%
G36*
X116233Y24862D02*
X116233Y24862D01*
X115749Y25442D01*
X115749Y26009D01*
X116140Y26595D01*
X116538Y27093D01*
X116539Y27099D01*
X116543Y27100D01*
X116943Y27800D01*
X116942Y27803D01*
X116944Y27804D01*
X116942Y27807D01*
X116940Y27822D01*
X116949Y27831D01*
X116849Y28531D01*
X116839Y28541D01*
X116842Y28549D01*
X116542Y29049D01*
X116514Y29061D01*
X116507Y29073D01*
X115807Y29173D01*
X115782Y29159D01*
X115769Y29162D01*
X115269Y28762D01*
X115264Y28743D01*
X115253Y28740D01*
X115053Y28140D01*
X115055Y28134D01*
X115051Y28132D01*
X114952Y27535D01*
X114754Y26841D01*
X114456Y26146D01*
X114161Y25655D01*
X113671Y25165D01*
X113085Y24872D01*
X112397Y24773D01*
X111704Y24773D01*
X111115Y24871D01*
X110529Y25165D01*
X110037Y25657D01*
X109644Y26148D01*
X109447Y26739D01*
X109249Y27431D01*
X109249Y28121D01*
X109348Y28814D01*
X109546Y29506D01*
X109842Y30097D01*
X110233Y30586D01*
X110702Y30868D01*
X111273Y30582D01*
X111859Y30094D01*
X112047Y29625D01*
X111757Y28950D01*
X111362Y28455D01*
X111361Y28436D01*
X111351Y28431D01*
X111251Y27731D01*
X111261Y27713D01*
X111256Y27702D01*
X111556Y27102D01*
X111587Y27087D01*
X111593Y27075D01*
X112293Y26975D01*
X112302Y26980D01*
X112306Y26980D01*
X112315Y26987D01*
X112321Y26991D01*
X112335Y26989D01*
X112735Y27389D01*
X112737Y27402D01*
X112745Y27405D01*
X113045Y28105D01*
X113043Y28113D01*
X113049Y28116D01*
X113148Y28713D01*
X113347Y29409D01*
X113546Y30005D01*
X113838Y30590D01*
X114426Y30982D01*
X114917Y31277D01*
X115603Y31375D01*
X116300Y31375D01*
X116347Y31411D01*
X116342Y31418D01*
X116349Y31423D01*
X116398Y33675D01*
X116400Y33675D01*
X116351Y31425D01*
X116386Y31377D01*
X116390Y31380D01*
X116392Y31375D01*
X116985Y31277D01*
X117571Y30983D01*
X118063Y30491D01*
X118458Y29997D01*
X118754Y29406D01*
X118951Y28717D01*
X118951Y27427D01*
X118852Y26739D01*
X118557Y26149D01*
X118162Y25555D01*
X117668Y25061D01*
X117277Y24768D01*
X116706Y24578D01*
X116233Y24862D01*
G37*
%LPD*%
%LPC*%
G36*
X110116Y33773D02*
X110116Y33773D01*
X109743Y34054D01*
X109549Y34731D01*
X109549Y37916D01*
X109946Y39105D01*
X110243Y39699D01*
X110638Y40293D01*
X111133Y40787D01*
X111627Y41182D01*
X112222Y41480D01*
X112815Y41776D01*
X113503Y41875D01*
X114896Y41875D01*
X115486Y41776D01*
X116179Y41479D01*
X116773Y41182D01*
X117269Y40786D01*
X117763Y40390D01*
X118159Y39797D01*
X118555Y39202D01*
X118753Y38608D01*
X118934Y38065D01*
X116730Y37778D01*
X116345Y38644D01*
X116334Y38650D01*
X116335Y38659D01*
X115935Y39059D01*
X115928Y39060D01*
X115927Y39065D01*
X115327Y39465D01*
X115318Y39464D01*
X115316Y39471D01*
X114716Y39671D01*
X114705Y39667D01*
X114700Y39673D01*
X114000Y39673D01*
X113996Y39670D01*
X113993Y39673D01*
X113293Y39573D01*
X113282Y39562D01*
X113273Y39565D01*
X112673Y39165D01*
X112669Y39155D01*
X112662Y39155D01*
X111862Y38155D01*
X111861Y38136D01*
X111851Y38131D01*
X111751Y37431D01*
X111754Y37426D01*
X111751Y37424D01*
X111751Y36024D01*
X111787Y35977D01*
X111794Y35982D01*
X111800Y35975D01*
X116350Y35975D01*
X116302Y33773D01*
X110116Y33773D01*
G37*
%LPD*%
%LPC*%
G36*
X193988Y34866D02*
X193988Y34866D01*
X193603Y35443D01*
X193603Y35916D01*
X193896Y36501D01*
X194392Y37096D01*
X194392Y37105D01*
X194398Y37106D01*
X194698Y37706D01*
X194694Y37726D01*
X194703Y37734D01*
X194603Y38534D01*
X194593Y38545D01*
X194596Y38553D01*
X194296Y39053D01*
X194268Y39065D01*
X194262Y39077D01*
X193662Y39177D01*
X193636Y39163D01*
X193623Y39166D01*
X193123Y38766D01*
X193118Y38746D01*
X193107Y38742D01*
X192907Y38042D01*
X192908Y38038D01*
X192905Y38036D01*
X192806Y37442D01*
X192509Y36747D01*
X192509Y36745D01*
X192508Y36745D01*
X192508Y36744D01*
X192507Y36744D01*
X192309Y36150D01*
X191917Y35562D01*
X191427Y35170D01*
X190835Y34874D01*
X190246Y34677D01*
X189561Y34677D01*
X188872Y34874D01*
X188283Y35169D01*
X187793Y35659D01*
X187497Y36151D01*
X187202Y36743D01*
X187103Y37431D01*
X187103Y38125D01*
X187202Y38818D01*
X187400Y39510D01*
X187696Y40101D01*
X188084Y40587D01*
X188556Y40776D01*
X189127Y40585D01*
X189709Y40004D01*
X189802Y39535D01*
X189511Y38953D01*
X189113Y38355D01*
X189114Y38335D01*
X189105Y38328D01*
X189105Y37628D01*
X189116Y37613D01*
X189112Y37603D01*
X189412Y37103D01*
X189440Y37091D01*
X189447Y37079D01*
X190147Y36979D01*
X190175Y36995D01*
X190189Y36993D01*
X190589Y37393D01*
X190590Y37405D01*
X190594Y37407D01*
X190592Y37411D01*
X190601Y37414D01*
X190801Y38113D01*
X191001Y38712D01*
X191000Y38714D01*
X191001Y38714D01*
X191201Y39413D01*
X191400Y40009D01*
X191692Y40594D01*
X192280Y40986D01*
X192771Y41281D01*
X193457Y41379D01*
X194246Y41379D01*
X194835Y41182D01*
X195425Y40887D01*
X195917Y40395D01*
X196312Y39901D01*
X196606Y39313D01*
X196705Y38621D01*
X196706Y38620D01*
X196705Y38620D01*
X196805Y38024D01*
X196805Y37335D01*
X196608Y36646D01*
X196311Y36053D01*
X195916Y35459D01*
X195521Y35065D01*
X195033Y34674D01*
X194561Y34580D01*
X193988Y34866D01*
G37*
%LPD*%
%LPC*%
G36*
X142238Y200225D02*
X142238Y200225D01*
X141754Y200805D01*
X141660Y201374D01*
X141948Y201855D01*
X142446Y202452D01*
X142446Y202461D01*
X142452Y202462D01*
X142752Y203062D01*
X142752Y203065D01*
X142753Y203065D01*
X142751Y203068D01*
X142749Y203078D01*
X142757Y203084D01*
X142757Y203884D01*
X142746Y203899D01*
X142750Y203909D01*
X142450Y204409D01*
X142430Y204418D01*
X142426Y204430D01*
X141926Y204630D01*
X141898Y204622D01*
X141886Y204628D01*
X141286Y204328D01*
X141274Y204304D01*
X141261Y204300D01*
X140861Y203100D01*
X140862Y203098D01*
X140861Y203098D01*
X140661Y202399D01*
X140462Y201803D01*
X140167Y201213D01*
X139679Y200725D01*
X139089Y200430D01*
X138500Y200233D01*
X137811Y200233D01*
X137123Y200332D01*
X136535Y200626D01*
X136043Y201019D01*
X135650Y201511D01*
X135356Y202099D01*
X135257Y202791D01*
X135158Y203484D01*
X135257Y204176D01*
X135356Y204770D01*
X135651Y205458D01*
X136042Y205947D01*
X136614Y206329D01*
X137082Y206141D01*
X137670Y205651D01*
X137952Y205182D01*
X137665Y204609D01*
X137267Y204011D01*
X137268Y203996D01*
X137259Y203991D01*
X137159Y203291D01*
X137167Y203277D01*
X137161Y203268D01*
X137361Y202668D01*
X137388Y202650D01*
X137392Y202637D01*
X137992Y202437D01*
X137997Y202439D01*
X138016Y202439D01*
X138022Y202444D01*
X138030Y202440D01*
X138630Y202740D01*
X138639Y202759D01*
X138650Y202767D01*
X138655Y202768D01*
X138855Y203368D01*
X138854Y203370D01*
X138855Y203370D01*
X139255Y204769D01*
X139454Y205365D01*
X139750Y205957D01*
X140140Y206445D01*
X140723Y206736D01*
X141411Y206835D01*
X142105Y206835D01*
X142793Y206736D01*
X143381Y206442D01*
X143873Y206049D01*
X144268Y205555D01*
X144661Y204966D01*
X144759Y204376D01*
X144859Y203681D01*
X144859Y202987D01*
X144760Y202295D01*
X144563Y201706D01*
X144170Y201115D01*
X143676Y200621D01*
X143282Y200326D01*
X142706Y200038D01*
X142238Y200225D01*
G37*
%LPD*%
G36*
X214124Y175093D02*
X214124Y175093D01*
X219424Y176893D01*
X219430Y176903D01*
X219438Y176901D01*
X219838Y177201D01*
X219843Y177219D01*
X219854Y177222D01*
X220054Y177722D01*
X220051Y177733D01*
X220053Y177734D01*
X220049Y177738D01*
X220047Y177747D01*
X220054Y177758D01*
X219854Y178258D01*
X219838Y178268D01*
X219838Y178279D01*
X219438Y178579D01*
X219427Y178579D01*
X219424Y178586D01*
X217725Y179186D01*
X216260Y179736D01*
X219023Y180593D01*
X219024Y180595D01*
X219026Y180594D01*
X219526Y180794D01*
X219534Y180806D01*
X219543Y180805D01*
X219943Y181205D01*
X219945Y181223D01*
X219955Y181231D01*
X219952Y181236D01*
X219957Y181240D01*
X219957Y181740D01*
X219948Y181753D01*
X219952Y181762D01*
X219752Y182162D01*
X219738Y182169D01*
X219738Y182179D01*
X219338Y182479D01*
X219327Y182479D01*
X219325Y182486D01*
X214025Y184386D01*
X214019Y184385D01*
X214018Y184388D01*
X213518Y184488D01*
X213497Y184478D01*
X213486Y184484D01*
X213086Y184284D01*
X213077Y184267D01*
X213066Y184265D01*
X212766Y183765D01*
X212767Y183753D01*
X212760Y183750D01*
X212660Y183250D01*
X212672Y183224D01*
X212669Y183210D01*
X212969Y182810D01*
X212988Y182805D01*
X212992Y182794D01*
X216381Y181597D01*
X216418Y181561D01*
X213592Y180587D01*
X213591Y180585D01*
X213590Y180586D01*
X213090Y180386D01*
X213080Y180370D01*
X213069Y180370D01*
X212769Y179970D01*
X212769Y179941D01*
X212760Y179930D01*
X212860Y179430D01*
X212867Y179424D01*
X212864Y179418D01*
X213064Y179018D01*
X213086Y179007D01*
X213090Y178994D01*
X213590Y178794D01*
X213592Y178795D01*
X213592Y178793D01*
X216418Y177819D01*
X216282Y177683D01*
X213393Y176787D01*
X213392Y176785D01*
X213390Y176786D01*
X212890Y176586D01*
X212875Y176562D01*
X212862Y176558D01*
X212662Y176058D01*
X212668Y176037D01*
X212667Y176037D01*
X212669Y176035D01*
X212669Y176033D01*
X212662Y176022D01*
X212862Y175522D01*
X212867Y175519D01*
X212866Y175515D01*
X213166Y175015D01*
X213188Y175006D01*
X213192Y174993D01*
X213492Y174893D01*
X213513Y174900D01*
X213524Y174893D01*
X214124Y175093D01*
G37*
%LPC*%
G36*
X140503Y33407D02*
X140503Y33407D01*
X140460Y33449D01*
X140457Y33445D01*
X140454Y33449D01*
X139062Y33449D01*
X138470Y33647D01*
X137872Y33846D01*
X137180Y34143D01*
X136687Y34537D01*
X136191Y35033D01*
X135796Y35527D01*
X135499Y36121D01*
X135202Y36814D01*
X135103Y37408D01*
X135003Y38103D01*
X135003Y38697D01*
X135102Y39390D01*
X135300Y40082D01*
X135596Y40673D01*
X135989Y41165D01*
X136465Y41546D01*
X137130Y41356D01*
X137713Y40870D01*
X137902Y40398D01*
X137709Y39821D01*
X137412Y39325D01*
X137413Y39316D01*
X137407Y39314D01*
X137207Y38614D01*
X137210Y38604D01*
X137205Y38600D01*
X137205Y37900D01*
X137212Y37891D01*
X137207Y37884D01*
X137407Y37284D01*
X137410Y37283D01*
X137409Y37281D01*
X137709Y36581D01*
X137724Y36572D01*
X137723Y36562D01*
X138223Y36162D01*
X138227Y36161D01*
X138227Y36159D01*
X138827Y35759D01*
X138842Y35760D01*
X138847Y35751D01*
X139547Y35651D01*
X139552Y35654D01*
X139554Y35651D01*
X140254Y35651D01*
X140263Y35658D01*
X140270Y35653D01*
X140870Y35853D01*
X140873Y35858D01*
X140876Y35856D01*
X141476Y36156D01*
X141483Y36169D01*
X141492Y36169D01*
X141892Y36669D01*
X141893Y36675D01*
X141897Y36676D01*
X142297Y37376D01*
X142296Y37380D01*
X142299Y37382D01*
X142295Y37387D01*
X142295Y37388D01*
X142303Y37392D01*
X142403Y37992D01*
X142400Y37997D01*
X142403Y38000D01*
X142403Y38700D01*
X142396Y38709D01*
X142401Y38716D01*
X142201Y39316D01*
X142196Y39319D01*
X142198Y39322D01*
X141708Y40302D01*
X141895Y40770D01*
X142478Y41256D01*
X143070Y41453D01*
X143094Y41488D01*
X143103Y41494D01*
X143106Y41520D01*
X143105Y41504D01*
X143128Y41468D01*
X143129Y41458D01*
X143621Y41162D01*
X144014Y40672D01*
X144308Y40181D01*
X144506Y39390D01*
X144605Y38697D01*
X144605Y38103D01*
X144505Y37407D01*
X144406Y36715D01*
X144110Y36122D01*
X143812Y35527D01*
X143417Y35033D01*
X142923Y34538D01*
X142329Y34143D01*
X141735Y33846D01*
X140538Y33447D01*
X140505Y33398D01*
X140506Y33397D01*
X140505Y33395D01*
X140506Y33384D01*
X140503Y33407D01*
G37*
%LPD*%
%LPC*%
G36*
X190962Y24377D02*
X190962Y24377D01*
X190372Y24574D01*
X189676Y24872D01*
X189182Y25168D01*
X188687Y25565D01*
X188192Y26059D01*
X187797Y26653D01*
X187500Y27246D01*
X187302Y27939D01*
X187203Y28536D01*
X187104Y29228D01*
X187203Y29920D01*
X187302Y30514D01*
X187599Y31207D01*
X187896Y31801D01*
X188281Y32283D01*
X188848Y32377D01*
X189524Y32087D01*
X190009Y31505D01*
X190101Y31137D01*
X189713Y30555D01*
X189713Y30551D01*
X189710Y30550D01*
X189410Y29950D01*
X189410Y29948D01*
X189410Y29947D01*
X189412Y29938D01*
X189405Y29934D01*
X189305Y29134D01*
X189310Y29125D01*
X189305Y29120D01*
X189405Y28520D01*
X189413Y28513D01*
X189410Y28506D01*
X189710Y27906D01*
X189714Y27904D01*
X189713Y27901D01*
X190113Y27301D01*
X190123Y27297D01*
X190123Y27290D01*
X190623Y26890D01*
X190631Y26889D01*
X190632Y26884D01*
X191232Y26584D01*
X191242Y26586D01*
X191249Y26586D01*
X191254Y26579D01*
X192654Y26579D01*
X192663Y26586D01*
X192670Y26581D01*
X193270Y26781D01*
X193279Y26795D01*
X193289Y26793D01*
X193789Y27293D01*
X193789Y27297D01*
X193792Y27297D01*
X194192Y27797D01*
X194193Y27807D01*
X194199Y27809D01*
X194499Y28509D01*
X194497Y28517D01*
X194503Y28520D01*
X194603Y29120D01*
X194597Y29130D01*
X194603Y29135D01*
X194503Y29835D01*
X194498Y29840D01*
X194501Y29844D01*
X194301Y30444D01*
X194294Y30448D01*
X194296Y30453D01*
X194001Y30946D01*
X193907Y31415D01*
X194287Y31890D01*
X194967Y32279D01*
X195537Y32279D01*
X196015Y31896D01*
X196308Y31309D01*
X196507Y30713D01*
X196706Y30018D01*
X196805Y29325D01*
X196805Y28735D01*
X196607Y28043D01*
X196408Y27446D01*
X196110Y26750D01*
X195814Y26257D01*
X195319Y25663D01*
X194823Y25266D01*
X194331Y24873D01*
X193640Y24675D01*
X193639Y24674D01*
X193638Y24675D01*
X193043Y24476D01*
X192351Y24377D01*
X190962Y24377D01*
G37*
%LPD*%
%LPC*%
G36*
X115455Y202781D02*
X115455Y202781D01*
X115837Y203259D01*
X116335Y203757D01*
X116336Y203768D01*
X116337Y203769D01*
X116344Y203770D01*
X116644Y204370D01*
X116642Y204381D01*
X116649Y204384D01*
X116749Y204984D01*
X116746Y204989D01*
X116749Y204992D01*
X116749Y205692D01*
X116740Y205705D01*
X116744Y205714D01*
X116444Y206314D01*
X116440Y206316D01*
X116441Y206319D01*
X116041Y206919D01*
X116026Y206924D01*
X116025Y206934D01*
X115525Y207234D01*
X115522Y207234D01*
X115522Y207236D01*
X114922Y207536D01*
X114906Y207533D01*
X114900Y207541D01*
X113400Y207541D01*
X113387Y207532D01*
X113378Y207536D01*
X112778Y207236D01*
X112775Y207229D01*
X112769Y207230D01*
X112269Y206830D01*
X112267Y206823D01*
X112262Y206823D01*
X111862Y206323D01*
X111861Y206313D01*
X111855Y206311D01*
X111555Y205611D01*
X111558Y205598D01*
X111551Y205592D01*
X111551Y204992D01*
X111554Y204987D01*
X111551Y204984D01*
X111651Y204384D01*
X111662Y204374D01*
X111659Y204365D01*
X112034Y203802D01*
X110246Y202364D01*
X110042Y202619D01*
X109746Y203211D01*
X109547Y203807D01*
X109349Y204499D01*
X109349Y205489D01*
X109448Y206181D01*
X109646Y206773D01*
X109943Y207367D01*
X110338Y207961D01*
X111331Y208953D01*
X111823Y209249D01*
X112418Y209546D01*
X113107Y209743D01*
X114497Y209743D01*
X115192Y209643D01*
X115785Y209545D01*
X116971Y208951D01*
X117963Y207959D01*
X118358Y207465D01*
X118654Y206873D01*
X118852Y206281D01*
X118951Y205589D01*
X118951Y204200D01*
X118754Y203611D01*
X118159Y202421D01*
X117171Y201433D01*
X116030Y200862D01*
X115455Y202781D01*
G37*
%LPD*%
%LPC*%
G36*
X164204Y198113D02*
X164204Y198113D01*
X163614Y198212D01*
X162921Y198509D01*
X162327Y198806D01*
X161831Y199202D01*
X161337Y199598D01*
X160943Y200189D01*
X160645Y200785D01*
X160348Y201478D01*
X160249Y202072D01*
X160149Y202767D01*
X160149Y203361D01*
X160248Y204054D01*
X160446Y204744D01*
X160742Y205238D01*
X161134Y205826D01*
X161708Y206113D01*
X162276Y206018D01*
X162858Y205436D01*
X163047Y204964D01*
X162856Y204487D01*
X162459Y203891D01*
X162460Y203877D01*
X162454Y203872D01*
X162451Y203871D01*
X162351Y203171D01*
X162354Y203166D01*
X162351Y203164D01*
X162351Y202464D01*
X162358Y202455D01*
X162353Y202448D01*
X162553Y201848D01*
X162561Y201843D01*
X162559Y201837D01*
X162959Y201237D01*
X162962Y201236D01*
X162962Y201233D01*
X163362Y200733D01*
X163376Y200730D01*
X163378Y200720D01*
X163978Y200420D01*
X163989Y200422D01*
X163993Y200415D01*
X164693Y200315D01*
X164698Y200318D01*
X164700Y200315D01*
X165400Y200315D01*
X165405Y200318D01*
X165408Y200315D01*
X166008Y200415D01*
X166018Y200426D01*
X166027Y200423D01*
X166627Y200823D01*
X166630Y200830D01*
X166635Y200829D01*
X167135Y201329D01*
X167136Y201341D01*
X167144Y201342D01*
X167444Y201942D01*
X167442Y201953D01*
X167449Y201957D01*
X167549Y202657D01*
X167546Y202661D01*
X167547Y202662D01*
X167549Y202664D01*
X167549Y203264D01*
X167543Y203272D01*
X167547Y203278D01*
X167347Y203978D01*
X167342Y203982D01*
X167344Y203986D01*
X166854Y204966D01*
X167040Y205432D01*
X167723Y205920D01*
X168294Y206110D01*
X168765Y205827D01*
X169158Y205238D01*
X169454Y204745D01*
X169652Y203954D01*
X169751Y203360D01*
X169751Y202667D01*
X169651Y201972D01*
X169553Y201379D01*
X169256Y200786D01*
X168959Y200191D01*
X168463Y199597D01*
X168069Y199202D01*
X167475Y198807D01*
X166878Y198508D01*
X166285Y198212D01*
X165597Y198113D01*
X164204Y198113D01*
G37*
%LPD*%
%LPC*%
G36*
X139611Y209033D02*
X139611Y209033D01*
X138919Y209132D01*
X138326Y209330D01*
X137630Y209628D01*
X137139Y209923D01*
X136645Y210417D01*
X136248Y210913D01*
X135851Y211509D01*
X135554Y212102D01*
X135356Y212795D01*
X135257Y213388D01*
X135257Y214080D01*
X135357Y214676D01*
X135356Y214677D01*
X135357Y214678D01*
X135456Y215470D01*
X135750Y216057D01*
X136146Y216553D01*
X136532Y217035D01*
X137095Y217035D01*
X137773Y216647D01*
X138155Y216075D01*
X138062Y215703D01*
X137665Y215008D01*
X137666Y215001D01*
X137661Y215000D01*
X137461Y214400D01*
X137465Y214389D01*
X137459Y214384D01*
X137459Y213684D01*
X137462Y213679D01*
X137459Y213676D01*
X137559Y213076D01*
X137566Y213070D01*
X137563Y213065D01*
X137863Y212365D01*
X137871Y212360D01*
X137870Y212353D01*
X138270Y211853D01*
X138280Y211851D01*
X138281Y211843D01*
X138881Y211443D01*
X138890Y211444D01*
X138892Y211437D01*
X139492Y211237D01*
X139503Y211241D01*
X139508Y211235D01*
X140208Y211235D01*
X140212Y211238D01*
X140215Y211235D01*
X140915Y211335D01*
X140923Y211343D01*
X140930Y211340D01*
X141530Y211640D01*
X141533Y211647D01*
X141539Y211646D01*
X142039Y212046D01*
X142041Y212056D01*
X142049Y212057D01*
X142449Y212657D01*
X142448Y212665D01*
X142452Y212668D01*
X142455Y212668D01*
X142655Y213268D01*
X142651Y213279D01*
X142657Y213284D01*
X142657Y213984D01*
X142654Y213988D01*
X142657Y213991D01*
X142557Y214691D01*
X142548Y214700D01*
X142551Y214708D01*
X141960Y215791D01*
X142053Y216161D01*
X142538Y216743D01*
X143210Y217031D01*
X143779Y216842D01*
X144168Y216356D01*
X144462Y215864D01*
X144661Y215170D01*
X144859Y214477D01*
X144859Y213191D01*
X144661Y212499D01*
X144462Y211903D01*
X144165Y211309D01*
X143770Y210715D01*
X143275Y210221D01*
X142781Y209826D01*
X141593Y209231D01*
X141000Y209133D01*
X140959Y209089D01*
X140966Y209083D01*
X140960Y209076D01*
X140956Y209095D01*
X140910Y209133D01*
X140906Y209127D01*
X140900Y209133D01*
X140304Y209033D01*
X139611Y209033D01*
G37*
%LPD*%
%LPC*%
G36*
X113407Y211941D02*
X113407Y211941D01*
X112715Y212139D01*
X112119Y212338D01*
X111527Y212634D01*
X111033Y213029D01*
X110537Y213525D01*
X110142Y214019D01*
X109845Y214613D01*
X109548Y215306D01*
X109449Y215900D01*
X109349Y216595D01*
X109349Y217189D01*
X109448Y217882D01*
X109646Y218574D01*
X109942Y219165D01*
X110334Y219655D01*
X110907Y220038D01*
X111473Y219849D01*
X112059Y219263D01*
X112247Y218888D01*
X112055Y218314D01*
X111659Y217719D01*
X111660Y217704D01*
X111651Y217699D01*
X111551Y216999D01*
X111553Y216995D01*
X111553Y216994D01*
X111551Y216992D01*
X111551Y216292D01*
X111558Y216283D01*
X111553Y216276D01*
X111753Y215676D01*
X111761Y215671D01*
X111759Y215665D01*
X112159Y215065D01*
X112162Y215064D01*
X112162Y215061D01*
X112562Y214561D01*
X112576Y214558D01*
X112578Y214548D01*
X113178Y214248D01*
X113189Y214250D01*
X113193Y214243D01*
X113893Y214143D01*
X113898Y214146D01*
X113900Y214143D01*
X114600Y214143D01*
X114609Y214150D01*
X114616Y214145D01*
X115216Y214345D01*
X115219Y214350D01*
X115222Y214348D01*
X115822Y214648D01*
X115828Y214661D01*
X115838Y214660D01*
X116338Y215260D01*
X116338Y215269D01*
X116344Y215270D01*
X116644Y215870D01*
X116642Y215880D01*
X116646Y215882D01*
X116649Y215884D01*
X116749Y216484D01*
X116746Y216489D01*
X116749Y216492D01*
X116749Y217192D01*
X116742Y217201D01*
X116747Y217208D01*
X116547Y217808D01*
X116542Y217811D01*
X116544Y217814D01*
X116054Y218794D01*
X116240Y219260D01*
X116923Y219748D01*
X117496Y219939D01*
X118063Y219655D01*
X118356Y219070D01*
X118359Y219069D01*
X118358Y219067D01*
X118654Y218573D01*
X118852Y217782D01*
X118951Y217188D01*
X118951Y216495D01*
X118851Y215800D01*
X118753Y215207D01*
X118457Y214617D01*
X118060Y214021D01*
X117663Y213525D01*
X117167Y213029D01*
X116673Y212634D01*
X116081Y212338D01*
X115485Y212139D01*
X114793Y211941D01*
X113407Y211941D01*
G37*
%LPD*%
%LPC*%
G36*
X85345Y34044D02*
X85345Y34044D01*
X85306Y34065D01*
X85300Y34073D01*
X84820Y34073D01*
X84342Y34552D01*
X84053Y35226D01*
X84242Y35794D01*
X84626Y36082D01*
X85221Y36380D01*
X89820Y38379D01*
X89821Y38381D01*
X89822Y38380D01*
X90422Y38680D01*
X90423Y38681D01*
X90424Y38681D01*
X90425Y38685D01*
X90448Y38733D01*
X90432Y38741D01*
X90435Y38759D01*
X90135Y39059D01*
X90122Y39061D01*
X90121Y39069D01*
X85121Y41369D01*
X85117Y41368D01*
X85116Y41371D01*
X84529Y41566D01*
X84149Y42041D01*
X84149Y42615D01*
X84342Y43096D01*
X84820Y43575D01*
X85293Y43575D01*
X85982Y43378D01*
X92675Y40081D01*
X93263Y39689D01*
X93551Y39210D01*
X93551Y38536D01*
X93263Y37961D01*
X92678Y37668D01*
X85978Y34368D01*
X85378Y34068D01*
X85368Y34048D01*
X85357Y34039D01*
X85361Y34034D01*
X85355Y34022D01*
X85345Y34044D01*
G37*
%LPD*%
G36*
X47873Y49870D02*
X47873Y49870D01*
X47882Y49866D01*
X48482Y50166D01*
X48493Y50188D01*
X48498Y50192D01*
X48496Y50195D01*
X48497Y50196D01*
X48509Y50202D01*
X48609Y50802D01*
X48606Y50807D01*
X48609Y50810D01*
X48609Y52907D01*
X48707Y53592D01*
X51301Y57483D01*
X51301Y57485D01*
X51303Y57486D01*
X51703Y58186D01*
X51700Y58210D01*
X51708Y58220D01*
X51608Y58720D01*
X51593Y58733D01*
X51595Y58745D01*
X51095Y59245D01*
X51082Y59247D01*
X51079Y59255D01*
X50379Y59555D01*
X50359Y59550D01*
X50350Y59558D01*
X49850Y59458D01*
X49833Y59438D01*
X49819Y59437D01*
X49419Y58837D01*
X47540Y55969D01*
X47292Y56051D01*
X45401Y58937D01*
X45398Y58938D01*
X45398Y58941D01*
X44998Y59441D01*
X44974Y59447D01*
X44968Y59459D01*
X44368Y59559D01*
X44347Y59548D01*
X44336Y59553D01*
X43636Y59153D01*
X43630Y59141D01*
X43622Y59141D01*
X43222Y58641D01*
X43221Y58618D01*
X43211Y58610D01*
X43211Y58010D01*
X43223Y57994D01*
X43219Y57983D01*
X43619Y57383D01*
X43619Y57382D01*
X45917Y53985D01*
X46211Y53398D01*
X46211Y50610D01*
X46219Y50599D01*
X46214Y50592D01*
X46414Y50092D01*
X46442Y50075D01*
X46446Y50063D01*
X47146Y49863D01*
X47156Y49866D01*
X47160Y49861D01*
X47860Y49861D01*
X47873Y49870D01*
G37*
%LPC*%
G36*
X110126Y47366D02*
X110126Y47366D01*
X109642Y47753D01*
X109450Y48329D01*
X109546Y48998D01*
X110031Y49386D01*
X110038Y49416D01*
X110049Y49424D01*
X110049Y49493D01*
X117419Y52978D01*
X117994Y53170D01*
X118464Y52888D01*
X118853Y52207D01*
X118948Y51634D01*
X118665Y51162D01*
X118078Y50868D01*
X116878Y50268D01*
X116868Y50248D01*
X116857Y50240D01*
X116861Y50234D01*
X116860Y50231D01*
X116851Y50224D01*
X116851Y46898D01*
X115049Y47657D01*
X115049Y48924D01*
X115028Y48952D01*
X115027Y48965D01*
X114727Y49165D01*
X114689Y49163D01*
X114678Y49168D01*
X113478Y48568D01*
X113452Y48515D01*
X113460Y48511D01*
X113456Y48502D01*
X113656Y48102D01*
X113679Y48091D01*
X113682Y48078D01*
X114950Y47590D01*
X114906Y45083D01*
X110126Y47366D01*
G37*
%LPD*%
G36*
X219421Y186200D02*
X219421Y186200D01*
X219430Y186196D01*
X219830Y186396D01*
X219840Y186417D01*
X219849Y186424D01*
X219848Y186426D01*
X219856Y186430D01*
X219956Y186930D01*
X219951Y186942D01*
X219957Y186948D01*
X219857Y187548D01*
X219846Y187558D01*
X219849Y187567D01*
X219649Y187867D01*
X219624Y187876D01*
X219618Y187888D01*
X219118Y187988D01*
X219111Y187985D01*
X219108Y187989D01*
X218138Y187989D01*
X217957Y188352D01*
X217957Y189314D01*
X218531Y189696D01*
X219727Y190195D01*
X219736Y190210D01*
X219747Y190210D01*
X220047Y190610D01*
X220047Y190641D01*
X220056Y190652D01*
X219956Y191052D01*
X219946Y191060D01*
X219949Y191067D01*
X219549Y191667D01*
X219536Y191672D01*
X219535Y191681D01*
X219235Y191881D01*
X219201Y191879D01*
X219190Y191886D01*
X218691Y191686D01*
X218392Y191587D01*
X218391Y191585D01*
X218390Y191586D01*
X217391Y191186D01*
X217117Y191095D01*
X216738Y191379D01*
X216734Y191379D01*
X216733Y191382D01*
X216233Y191682D01*
X216223Y191681D01*
X216220Y191688D01*
X215820Y191788D01*
X215812Y191784D01*
X215808Y191789D01*
X215208Y191789D01*
X215202Y191785D01*
X215198Y191788D01*
X214198Y191588D01*
X214188Y191577D01*
X214178Y191579D01*
X213778Y191279D01*
X213777Y191274D01*
X213773Y191275D01*
X213373Y190875D01*
X213372Y190870D01*
X213369Y190870D01*
X213069Y190470D01*
X213069Y190460D01*
X213062Y190458D01*
X212862Y189958D01*
X212864Y189953D01*
X212860Y189952D01*
X212760Y189552D01*
X212761Y189550D01*
X212760Y189550D01*
X212660Y189050D01*
X212663Y189043D01*
X212659Y189040D01*
X212659Y186940D01*
X212667Y186929D01*
X212662Y186922D01*
X212862Y186422D01*
X212884Y186409D01*
X212886Y186396D01*
X213286Y186196D01*
X213302Y186199D01*
X213308Y186191D01*
X219408Y186191D01*
X219421Y186200D01*
G37*
%LPC*%
G36*
X59060Y209947D02*
X59060Y209947D01*
X58592Y210228D01*
X58495Y211101D01*
X58495Y217895D01*
X58592Y218571D01*
X58966Y218851D01*
X59653Y218949D01*
X59682Y218979D01*
X59693Y218982D01*
X59701Y219007D01*
X59720Y218956D01*
X59721Y218956D01*
X60201Y218668D01*
X60297Y217995D01*
X60297Y215998D01*
X60310Y215980D01*
X60307Y215968D01*
X60607Y215568D01*
X60638Y215560D01*
X60646Y215549D01*
X66742Y215549D01*
X67325Y215452D01*
X67801Y215071D01*
X67897Y214494D01*
X67897Y213822D01*
X67426Y213445D01*
X66743Y213347D01*
X60646Y213347D01*
X60625Y213331D01*
X60611Y213333D01*
X60311Y213033D01*
X60308Y213006D01*
X60297Y212998D01*
X60297Y211001D01*
X60200Y210324D01*
X59729Y209947D01*
X59060Y209947D01*
G37*
%LPD*%
%LPC*%
G36*
X84595Y212571D02*
X84595Y212571D01*
X84564Y212607D01*
X84562Y212615D01*
X83990Y212805D01*
X83895Y213471D01*
X83895Y221151D01*
X84270Y221619D01*
X84938Y221619D01*
X85507Y221429D01*
X85697Y220860D01*
X85697Y218768D01*
X85701Y218762D01*
X85698Y218758D01*
X85798Y218258D01*
X85842Y218219D01*
X85844Y218221D01*
X85846Y218219D01*
X92634Y218219D01*
X93201Y217935D01*
X93297Y217265D01*
X93297Y216585D01*
X92922Y216117D01*
X86246Y216117D01*
X86235Y216109D01*
X86228Y216114D01*
X85728Y215914D01*
X85703Y215873D01*
X85697Y215868D01*
X85697Y213771D01*
X85599Y213088D01*
X85319Y212714D01*
X84639Y212617D01*
X84597Y212574D01*
X84601Y212571D01*
X84597Y212568D01*
X84597Y212544D01*
X84595Y212571D01*
G37*
%LPD*%
G36*
X218913Y168094D02*
X218913Y168094D01*
X218916Y168091D01*
X219516Y168191D01*
X219520Y168196D01*
X219524Y168193D01*
X219824Y168293D01*
X219841Y168318D01*
X219854Y168322D01*
X220054Y168822D01*
X220049Y168839D01*
X220057Y168847D01*
X219957Y169547D01*
X219941Y169562D01*
X219943Y169575D01*
X219643Y169875D01*
X219624Y169877D01*
X219620Y169888D01*
X219220Y169988D01*
X219212Y169984D01*
X219208Y169989D01*
X218144Y169989D01*
X218057Y170248D01*
X218057Y171240D01*
X218053Y171246D01*
X218056Y171250D01*
X217956Y171750D01*
X217949Y171756D01*
X217952Y171762D01*
X217752Y172162D01*
X217708Y172184D01*
X217731Y172197D01*
X217756Y172251D01*
X217748Y172254D01*
X217752Y172262D01*
X217552Y172662D01*
X217542Y172667D01*
X217543Y172675D01*
X217143Y173075D01*
X217138Y173076D01*
X217138Y173079D01*
X216738Y173379D01*
X216731Y173379D01*
X216730Y173384D01*
X216330Y173584D01*
X216321Y173582D01*
X216318Y173588D01*
X215318Y173788D01*
X215311Y173785D01*
X215308Y173789D01*
X214808Y173789D01*
X214795Y173780D01*
X214786Y173784D01*
X214186Y173484D01*
X214183Y173478D01*
X214178Y173479D01*
X213778Y173179D01*
X213777Y173174D01*
X213773Y173175D01*
X213373Y172775D01*
X213372Y172770D01*
X213369Y172770D01*
X213069Y172370D01*
X213069Y172360D01*
X213062Y172358D01*
X212862Y171858D01*
X212864Y171852D01*
X212860Y171850D01*
X212760Y171350D01*
X212763Y171343D01*
X212759Y171340D01*
X212759Y168740D01*
X212768Y168727D01*
X212764Y168718D01*
X212964Y168318D01*
X212984Y168308D01*
X212986Y168296D01*
X213386Y168096D01*
X213402Y168099D01*
X213408Y168091D01*
X218908Y168091D01*
X218913Y168094D01*
G37*
%LPC*%
G36*
X135868Y43849D02*
X135868Y43849D01*
X135395Y44133D01*
X135204Y44705D01*
X135302Y45484D01*
X135585Y45955D01*
X136158Y46051D01*
X142754Y46051D01*
X142801Y46087D01*
X142796Y46094D01*
X142803Y46100D01*
X142803Y49497D01*
X142900Y50174D01*
X143371Y50551D01*
X144040Y50551D01*
X144509Y50270D01*
X144605Y49596D01*
X144605Y44803D01*
X144509Y44135D01*
X144041Y43948D01*
X143351Y43849D01*
X135868Y43849D01*
G37*
%LPD*%
%LPC*%
G36*
X86882Y223702D02*
X86882Y223702D01*
X86872Y223701D01*
X86871Y223710D01*
X86377Y224007D01*
X84484Y226000D01*
X84188Y226394D01*
X83895Y226980D01*
X83895Y227556D01*
X84179Y228123D01*
X84849Y228219D01*
X92342Y228219D01*
X92922Y228122D01*
X93297Y227748D01*
X93297Y226872D01*
X93201Y226299D01*
X92732Y226017D01*
X87946Y226017D01*
X87903Y225985D01*
X87899Y225984D01*
X87799Y225684D01*
X87807Y225660D01*
X87801Y225649D01*
X88095Y224963D01*
X88001Y224495D01*
X87417Y224008D01*
X86921Y223710D01*
X86915Y223695D01*
X86904Y223694D01*
X86886Y223665D01*
X86882Y223702D01*
G37*
%LPD*%
%LPC*%
G36*
X184703Y42895D02*
X184703Y42895D01*
X185163Y43079D01*
X185821Y43079D01*
X186005Y42619D01*
X186005Y25446D01*
X184703Y24521D01*
X184703Y42895D01*
G37*
%LPD*%
G36*
X8765Y165946D02*
X8765Y165946D01*
X8772Y165941D01*
X9372Y166141D01*
X9389Y166166D01*
X9402Y166170D01*
X9602Y166670D01*
X9598Y166683D01*
X9605Y166688D01*
X9605Y174888D01*
X9592Y174906D01*
X9595Y174918D01*
X9295Y175318D01*
X9274Y175324D01*
X9270Y175335D01*
X8570Y175535D01*
X8557Y175530D01*
X8551Y175537D01*
X7651Y175437D01*
X7630Y175418D01*
X7617Y175418D01*
X7317Y175018D01*
X7317Y175001D01*
X7307Y174996D01*
X7207Y174396D01*
X7210Y174391D01*
X7207Y174388D01*
X7207Y166888D01*
X7210Y166883D01*
X7207Y166880D01*
X7307Y166280D01*
X7329Y166259D01*
X7331Y166246D01*
X7831Y165946D01*
X7849Y165948D01*
X7856Y165939D01*
X8756Y165939D01*
X8765Y165946D01*
G37*
G36*
X165817Y36428D02*
X165817Y36428D01*
X165829Y36424D01*
X166529Y36924D01*
X166530Y36930D01*
X166535Y36929D01*
X167035Y37429D01*
X167036Y37436D01*
X167041Y37437D01*
X167441Y38037D01*
X167440Y38051D01*
X167449Y38056D01*
X167549Y38656D01*
X167546Y38661D01*
X167549Y38664D01*
X167549Y39364D01*
X167542Y39373D01*
X167547Y39380D01*
X167347Y39980D01*
X167339Y39985D01*
X167341Y39991D01*
X166941Y40591D01*
X166931Y40595D01*
X166931Y40602D01*
X166431Y41002D01*
X166423Y41003D01*
X166422Y41008D01*
X165822Y41308D01*
X165811Y41306D01*
X165807Y41313D01*
X165107Y41413D01*
X165098Y41408D01*
X165093Y41413D01*
X164393Y41313D01*
X164389Y41309D01*
X164386Y41311D01*
X163686Y41111D01*
X163678Y41100D01*
X163669Y41102D01*
X163169Y40702D01*
X163168Y40698D01*
X163165Y40699D01*
X162665Y40199D01*
X162663Y40183D01*
X162653Y40180D01*
X162453Y39580D01*
X162455Y39573D01*
X162451Y39571D01*
X162351Y38871D01*
X162357Y38861D01*
X162351Y38856D01*
X162451Y38256D01*
X162459Y38249D01*
X162456Y38242D01*
X162756Y37642D01*
X162764Y37638D01*
X162762Y37632D01*
X163262Y37032D01*
X163274Y37030D01*
X163275Y37022D01*
X163775Y36722D01*
X163783Y36723D01*
X163784Y36717D01*
X164384Y36517D01*
X164391Y36520D01*
X164394Y36515D01*
X165194Y36415D01*
X165198Y36417D01*
X165200Y36415D01*
X165800Y36415D01*
X165817Y36428D01*
G37*
G36*
X165610Y210522D02*
X165610Y210522D01*
X165617Y210518D01*
X166417Y210818D01*
X166425Y210831D01*
X166435Y210829D01*
X166935Y211329D01*
X166935Y211333D01*
X166938Y211333D01*
X167338Y211833D01*
X167339Y211847D01*
X167347Y211850D01*
X167547Y212550D01*
X167544Y212560D01*
X167549Y212564D01*
X167549Y213164D01*
X167546Y213168D01*
X167549Y213171D01*
X167449Y213871D01*
X167436Y213884D01*
X167438Y213895D01*
X166638Y214895D01*
X166624Y214898D01*
X166622Y214908D01*
X166022Y215208D01*
X166015Y215207D01*
X166014Y215211D01*
X165314Y215411D01*
X165304Y215408D01*
X165300Y215413D01*
X164600Y215413D01*
X164592Y215407D01*
X164586Y215411D01*
X163886Y215211D01*
X163881Y215204D01*
X163875Y215206D01*
X163375Y214906D01*
X163371Y214898D01*
X163365Y214899D01*
X162865Y214399D01*
X162864Y214392D01*
X162859Y214391D01*
X162459Y213791D01*
X162460Y213783D01*
X162453Y213779D01*
X162456Y213775D01*
X162451Y213772D01*
X162351Y213172D01*
X162354Y213167D01*
X162351Y213164D01*
X162351Y212464D01*
X162360Y212451D01*
X162356Y212442D01*
X162656Y211842D01*
X162660Y211840D01*
X162659Y211837D01*
X163059Y211237D01*
X163069Y211233D01*
X163069Y211226D01*
X163569Y210826D01*
X163582Y210825D01*
X163584Y210817D01*
X164184Y210617D01*
X164191Y210619D01*
X164193Y210615D01*
X164893Y210515D01*
X164898Y210518D01*
X164900Y210515D01*
X165600Y210515D01*
X165610Y210522D01*
G37*
G36*
X191521Y196439D02*
X191521Y196439D01*
X191535Y196437D01*
X192035Y196937D01*
X192035Y196941D01*
X192038Y196940D01*
X192538Y197540D01*
X192538Y197546D01*
X192542Y197547D01*
X192842Y198047D01*
X192841Y198061D01*
X192849Y198065D01*
X192949Y198765D01*
X192946Y198770D01*
X192949Y198772D01*
X192949Y199372D01*
X192941Y199383D01*
X192945Y199391D01*
X192645Y200091D01*
X192637Y200096D01*
X192638Y200103D01*
X192238Y200603D01*
X192231Y200605D01*
X192231Y200610D01*
X191731Y201010D01*
X191723Y201011D01*
X191722Y201016D01*
X191122Y201316D01*
X191106Y201313D01*
X191100Y201321D01*
X190400Y201321D01*
X190396Y201318D01*
X190393Y201321D01*
X189693Y201221D01*
X189689Y201217D01*
X189686Y201219D01*
X188986Y201019D01*
X188978Y201008D01*
X188969Y201010D01*
X188469Y200610D01*
X188467Y200603D01*
X188462Y200603D01*
X188062Y200103D01*
X188061Y200089D01*
X188053Y200086D01*
X187853Y199386D01*
X187854Y199382D01*
X187851Y199380D01*
X187751Y198780D01*
X187757Y198770D01*
X187751Y198764D01*
X187851Y198164D01*
X187862Y198154D01*
X187859Y198145D01*
X188259Y197545D01*
X188262Y197544D01*
X188262Y197541D01*
X188662Y197041D01*
X188672Y197039D01*
X188673Y197031D01*
X189273Y196631D01*
X189282Y196632D01*
X189284Y196625D01*
X189884Y196425D01*
X189895Y196429D01*
X189900Y196423D01*
X191500Y196423D01*
X191521Y196439D01*
G37*
%LPC*%
G36*
X59354Y195547D02*
X59354Y195547D01*
X58779Y195739D01*
X58495Y196212D01*
X58495Y197086D01*
X58779Y197654D01*
X59251Y197749D01*
X67426Y197749D01*
X67800Y197375D01*
X67896Y196698D01*
X67800Y195925D01*
X67427Y195645D01*
X66743Y195547D01*
X59354Y195547D01*
G37*
%LPD*%
%LPC*%
G36*
X84271Y198317D02*
X84271Y198317D01*
X83985Y198698D01*
X83942Y198710D01*
X83969Y198724D01*
X83990Y198769D01*
X83995Y198774D01*
X83896Y199564D01*
X84087Y200231D01*
X84559Y200420D01*
X85249Y200519D01*
X91946Y200519D01*
X91993Y200555D01*
X91992Y200557D01*
X91994Y200558D01*
X91998Y200575D01*
X92026Y200523D01*
X92034Y200527D01*
X92038Y200519D01*
X92634Y200420D01*
X93202Y200231D01*
X93297Y199565D01*
X93297Y198785D01*
X92922Y198317D01*
X84271Y198317D01*
G37*
%LPD*%
%LPC*%
G36*
X161014Y193913D02*
X161014Y193913D01*
X160541Y194197D01*
X160350Y194769D01*
X160448Y195548D01*
X160731Y196019D01*
X161304Y196115D01*
X168797Y196115D01*
X169473Y196018D01*
X169751Y195648D01*
X169751Y194772D01*
X169559Y194197D01*
X169086Y193913D01*
X161014Y193913D01*
G37*
%LPD*%
%LPC*%
G36*
X245718Y79615D02*
X245718Y79615D01*
X245717Y79615D01*
X245716Y79615D01*
X245193Y79674D01*
X244159Y79852D01*
X243700Y80070D01*
X242819Y80627D01*
X242246Y81497D01*
X242019Y81951D01*
X241836Y82982D01*
X241801Y83492D01*
X241982Y84525D01*
X242124Y85013D01*
X242776Y85969D01*
X242776Y85971D01*
X243054Y86238D01*
X243933Y86801D01*
X244428Y86926D01*
X245464Y87107D01*
X245999Y87108D01*
X245994Y86708D01*
X245994Y86707D01*
X245994Y85188D01*
X245663Y85218D01*
X245656Y85214D01*
X245644Y85217D01*
X245126Y85105D01*
X245119Y85098D01*
X245104Y85095D01*
X244673Y84797D01*
X244670Y84789D01*
X244657Y84781D01*
X244363Y84352D01*
X244362Y84344D01*
X244355Y84336D01*
X244193Y83839D01*
X244194Y83834D01*
X244190Y83827D01*
X244128Y83303D01*
X244131Y83297D01*
X244129Y83287D01*
X244205Y82763D01*
X244210Y82758D01*
X244209Y82748D01*
X244404Y82263D01*
X244411Y82259D01*
X244414Y82247D01*
X244741Y81845D01*
X244750Y81842D01*
X244759Y81830D01*
X245211Y81577D01*
X245219Y81577D01*
X245231Y81570D01*
X245751Y81479D01*
X245751Y81480D01*
X245752Y81479D01*
X245994Y81442D01*
X245994Y79574D01*
X245718Y79615D01*
G37*
%LPD*%
%LPC*%
G36*
X239035Y79695D02*
X239035Y79695D01*
X238884Y79705D01*
X238894Y86903D01*
X238895Y86904D01*
X238891Y87045D01*
X241213Y87045D01*
X241212Y86777D01*
X241205Y86761D01*
X241205Y79695D01*
X241151Y79695D01*
X239035Y79695D01*
G37*
%LPD*%
%LPC*%
G36*
X236378Y79695D02*
X236378Y79695D01*
X235941Y79723D01*
X235941Y87026D01*
X236002Y87025D01*
X236004Y87026D01*
X236007Y87025D01*
X236383Y87045D01*
X238257Y87045D01*
X238252Y86998D01*
X238252Y86997D01*
X238252Y86994D01*
X238262Y79701D01*
X237964Y79695D01*
X236378Y79695D01*
G37*
%LPD*%
%LPC*%
G36*
X63096Y168337D02*
X63096Y168337D01*
X63005Y168793D01*
X63005Y172868D01*
X63276Y173139D01*
X64644Y173139D01*
X65234Y172844D01*
X65822Y172550D01*
X66213Y171963D01*
X66508Y171373D01*
X66606Y170689D01*
X66509Y170103D01*
X66213Y169513D01*
X65819Y168922D01*
X65325Y168526D01*
X65324Y168522D01*
X65321Y168523D01*
X65136Y168337D01*
X63096Y168337D01*
G37*
%LPD*%
%LPC*%
G36*
X113308Y200541D02*
X113308Y200541D01*
X112715Y200639D01*
X112122Y200936D01*
X112120Y200936D01*
X112119Y200937D01*
X111426Y201235D01*
X110933Y201629D01*
X110437Y202125D01*
X110307Y202287D01*
X112092Y203723D01*
X112462Y203261D01*
X112472Y203259D01*
X112473Y203251D01*
X113073Y202851D01*
X113088Y202852D01*
X113093Y202843D01*
X114493Y202643D01*
X114498Y202646D01*
X114500Y202643D01*
X115100Y202643D01*
X115109Y202650D01*
X115114Y202650D01*
X115116Y202651D01*
X115122Y202648D01*
X115272Y202723D01*
X115937Y200823D01*
X115389Y200640D01*
X114693Y200541D01*
X114000Y200442D01*
X113308Y200541D01*
G37*
%LPD*%
%LPC*%
G36*
X54761Y168337D02*
X54761Y168337D01*
X54280Y168433D01*
X53997Y168717D01*
X53704Y169303D01*
X53605Y170094D01*
X53506Y171088D01*
X53605Y172079D01*
X53801Y172766D01*
X54091Y173153D01*
X54472Y173439D01*
X54947Y173439D01*
X55425Y173247D01*
X55712Y172865D01*
X55909Y172272D01*
X55958Y172239D01*
X55946Y172236D01*
X55907Y172191D01*
X55912Y172187D01*
X55907Y172182D01*
X56007Y171385D01*
X56007Y170391D01*
X55908Y169499D01*
X55712Y168911D01*
X55425Y168529D01*
X54947Y168337D01*
X54761Y168337D01*
G37*
%LPD*%
G36*
X218113Y81441D02*
X218113Y81441D01*
X218125Y81438D01*
X218637Y81545D01*
X218645Y81553D01*
X218662Y81557D01*
X219080Y81872D01*
X219083Y81880D01*
X219094Y81887D01*
X219383Y82315D01*
X219383Y82322D01*
X219390Y82330D01*
X219557Y82817D01*
X219555Y82823D01*
X219559Y82829D01*
X219633Y83346D01*
X219630Y83353D01*
X219633Y83365D01*
X219554Y83882D01*
X219550Y83887D01*
X219551Y83894D01*
X219373Y84378D01*
X219367Y84383D01*
X219365Y84393D01*
X219065Y84811D01*
X219057Y84814D01*
X219050Y84826D01*
X218625Y85125D01*
X218614Y85126D01*
X218601Y85135D01*
X218088Y85241D01*
X218080Y85238D01*
X218068Y85242D01*
X217555Y85179D01*
X217549Y85174D01*
X217537Y85174D01*
X217072Y84963D01*
X217067Y84955D01*
X217054Y84951D01*
X216682Y84596D01*
X216681Y84588D01*
X216671Y84581D01*
X216416Y84124D01*
X216416Y84115D01*
X216409Y84103D01*
X216329Y83585D01*
X216331Y83581D01*
X216328Y83575D01*
X216334Y83058D01*
X216336Y83054D01*
X216335Y83047D01*
X216427Y82534D01*
X216433Y82528D01*
X216434Y82514D01*
X216689Y82057D01*
X216697Y82053D01*
X216702Y82041D01*
X217085Y81696D01*
X217094Y81695D01*
X217103Y81685D01*
X217575Y81488D01*
X217583Y81490D01*
X217594Y81484D01*
X218106Y81437D01*
X218113Y81441D01*
G37*
%LPC*%
G36*
X116500Y33773D02*
X116500Y33773D01*
X116549Y36012D01*
X116744Y36402D01*
X116741Y36418D01*
X116749Y36424D01*
X116749Y37681D01*
X118951Y37968D01*
X118951Y34532D01*
X118761Y33961D01*
X118291Y33773D01*
X116500Y33773D01*
G37*
%LPD*%
%LPC*%
G36*
X117517Y43771D02*
X117517Y43771D01*
X116824Y44167D01*
X116822Y44166D01*
X116821Y44168D01*
X115004Y45036D01*
X115048Y47550D01*
X116872Y46782D01*
X117265Y46389D01*
X117278Y46387D01*
X117279Y46379D01*
X118569Y45784D01*
X118951Y45307D01*
X118951Y44737D01*
X118562Y44057D01*
X118086Y43676D01*
X117517Y43771D01*
G37*
%LPD*%
G36*
X164847Y27251D02*
X164847Y27251D01*
X164845Y27254D01*
X164849Y27256D01*
X164949Y27856D01*
X164946Y27861D01*
X164949Y27864D01*
X164949Y29264D01*
X164937Y29280D01*
X164941Y29291D01*
X164741Y29591D01*
X164731Y29595D01*
X164731Y29602D01*
X164231Y30002D01*
X164212Y30003D01*
X164207Y30013D01*
X163507Y30113D01*
X163489Y30103D01*
X163478Y30108D01*
X162878Y29808D01*
X162868Y29788D01*
X162856Y29786D01*
X162556Y29186D01*
X162559Y29170D01*
X162551Y29164D01*
X162551Y27764D01*
X162559Y27753D01*
X162554Y27746D01*
X162754Y27246D01*
X162795Y27221D01*
X162800Y27215D01*
X164800Y27215D01*
X164847Y27251D01*
G37*
G36*
X164947Y186751D02*
X164947Y186751D01*
X164942Y186758D01*
X164949Y186764D01*
X164949Y188164D01*
X164943Y188172D01*
X164947Y188178D01*
X164647Y189178D01*
X164630Y189190D01*
X164631Y189202D01*
X164131Y189602D01*
X164103Y189603D01*
X164093Y189613D01*
X163393Y189513D01*
X163383Y189503D01*
X163375Y189506D01*
X162875Y189206D01*
X162867Y189186D01*
X162855Y189183D01*
X162555Y188483D01*
X162558Y188470D01*
X162551Y188464D01*
X162551Y187164D01*
X162564Y187146D01*
X162561Y187134D01*
X162861Y186734D01*
X162892Y186726D01*
X162900Y186715D01*
X164900Y186715D01*
X164947Y186751D01*
G37*
G36*
X190347Y187259D02*
X190347Y187259D01*
X190342Y187266D01*
X190349Y187272D01*
X190349Y188672D01*
X190343Y188680D01*
X190347Y188686D01*
X190047Y189686D01*
X190030Y189698D01*
X190031Y189710D01*
X189531Y190110D01*
X189503Y190111D01*
X189493Y190121D01*
X188793Y190021D01*
X188783Y190011D01*
X188775Y190014D01*
X188275Y189714D01*
X188267Y189694D01*
X188255Y189691D01*
X187955Y188991D01*
X187958Y188978D01*
X187951Y188972D01*
X187951Y187672D01*
X187964Y187654D01*
X187961Y187642D01*
X188261Y187242D01*
X188292Y187234D01*
X188300Y187223D01*
X190300Y187223D01*
X190347Y187259D01*
G37*
%LPC*%
G36*
X214734Y187989D02*
X214734Y187989D01*
X214557Y188255D01*
X214557Y189231D01*
X214747Y189704D01*
X215120Y189891D01*
X215596Y189891D01*
X215969Y189704D01*
X216159Y189231D01*
X216159Y187989D01*
X214734Y187989D01*
G37*
%LPD*%
%LPC*%
G36*
X214728Y169989D02*
X214728Y169989D01*
X214557Y170160D01*
X214557Y171228D01*
X214747Y171608D01*
X215124Y171891D01*
X215596Y171891D01*
X215974Y171702D01*
X216159Y171425D01*
X216159Y169989D01*
X214728Y169989D01*
G37*
%LPD*%
%LPC*%
G36*
X184703Y23977D02*
X184703Y23977D01*
X184703Y24400D01*
X186005Y25325D01*
X186005Y24344D01*
X185729Y23977D01*
X184703Y23977D01*
G37*
%LPD*%
%LPC*%
G36*
X55961Y172243D02*
X55961Y172243D01*
X55964Y172240D01*
X55958Y172239D01*
X55961Y172243D01*
G37*
%LPD*%
%LPC*%
G36*
X165144Y43662D02*
X165144Y43662D01*
X165146Y43664D01*
X165146Y43660D01*
X165144Y43662D01*
G37*
%LPD*%
D10*
X3302Y75470D02*
X22352Y75470D01*
X17272Y70390D02*
X17122Y70392D01*
X16973Y70398D01*
X16824Y70408D01*
X16675Y70421D01*
X16526Y70439D01*
X16378Y70460D01*
X16231Y70486D01*
X16084Y70515D01*
X15938Y70548D01*
X15793Y70585D01*
X15649Y70625D01*
X15506Y70670D01*
X15364Y70718D01*
X15224Y70770D01*
X15085Y70825D01*
X14948Y70884D01*
X14812Y70947D01*
X14677Y71013D01*
X14545Y71083D01*
X14415Y71156D01*
X14286Y71232D01*
X14159Y71312D01*
X14035Y71395D01*
X13913Y71481D01*
X13793Y71571D01*
X13675Y71664D01*
X13560Y71759D01*
X13448Y71858D01*
X13338Y71959D01*
X13231Y72064D01*
X13126Y72171D01*
X13025Y72281D01*
X12926Y72393D01*
X12831Y72508D01*
X12738Y72626D01*
X12648Y72746D01*
X12562Y72868D01*
X12479Y72992D01*
X12399Y73119D01*
X12323Y73247D01*
X12250Y73378D01*
X12180Y73510D01*
X12114Y73645D01*
X12051Y73781D01*
X11992Y73918D01*
X11937Y74057D01*
X11885Y74197D01*
X11837Y74339D01*
X11792Y74482D01*
X11752Y74626D01*
X11715Y74771D01*
X11682Y74917D01*
X11653Y75064D01*
X11627Y75211D01*
X11606Y75359D01*
X11588Y75508D01*
X11575Y75657D01*
X11565Y75806D01*
X11559Y75955D01*
X11557Y76105D01*
X11559Y76255D01*
X11565Y76404D01*
X11575Y76553D01*
X11588Y76702D01*
X11606Y76851D01*
X11627Y76999D01*
X11653Y77146D01*
X11682Y77293D01*
X11715Y77439D01*
X11752Y77584D01*
X11792Y77728D01*
X11837Y77871D01*
X11885Y78013D01*
X11937Y78153D01*
X11992Y78292D01*
X12051Y78429D01*
X12114Y78565D01*
X12180Y78700D01*
X12250Y78832D01*
X12323Y78962D01*
X12399Y79091D01*
X12479Y79218D01*
X12562Y79342D01*
X12648Y79464D01*
X12738Y79584D01*
X12831Y79702D01*
X12926Y79817D01*
X13025Y79929D01*
X13126Y80039D01*
X13231Y80146D01*
X13338Y80251D01*
X13448Y80352D01*
X13560Y80451D01*
X13675Y80546D01*
X13793Y80639D01*
X13913Y80729D01*
X14035Y80815D01*
X14159Y80898D01*
X14286Y80978D01*
X14415Y81054D01*
X14545Y81127D01*
X14677Y81197D01*
X14812Y81263D01*
X14948Y81326D01*
X15085Y81385D01*
X15224Y81440D01*
X15364Y81492D01*
X15506Y81540D01*
X15649Y81585D01*
X15793Y81625D01*
X15938Y81662D01*
X16084Y81695D01*
X16231Y81724D01*
X16378Y81750D01*
X16526Y81771D01*
X16675Y81789D01*
X16824Y81802D01*
X16973Y81812D01*
X17122Y81818D01*
X17272Y81820D01*
X14732Y83090D01*
X17272Y81820D02*
X16002Y79280D01*
X5842Y72930D02*
X3302Y75470D01*
X5842Y78010D01*
X34639Y62675D02*
X34639Y44895D01*
X28289Y58865D02*
X28291Y58707D01*
X28297Y58548D01*
X28307Y58390D01*
X28321Y58233D01*
X28338Y58075D01*
X28360Y57919D01*
X28385Y57762D01*
X28415Y57607D01*
X28448Y57452D01*
X28485Y57298D01*
X28526Y57145D01*
X28571Y56993D01*
X28620Y56843D01*
X28672Y56693D01*
X28728Y56545D01*
X28788Y56398D01*
X28851Y56253D01*
X28918Y56110D01*
X28988Y55968D01*
X29062Y55828D01*
X29140Y55690D01*
X29221Y55554D01*
X29305Y55420D01*
X29392Y55288D01*
X29483Y55158D01*
X29577Y55031D01*
X29674Y54906D01*
X29775Y54783D01*
X29878Y54663D01*
X29984Y54546D01*
X30093Y54431D01*
X30205Y54319D01*
X30320Y54210D01*
X30437Y54104D01*
X30557Y54001D01*
X30680Y53900D01*
X30805Y53803D01*
X30932Y53709D01*
X31062Y53618D01*
X31194Y53531D01*
X31328Y53447D01*
X31464Y53366D01*
X31602Y53288D01*
X31742Y53214D01*
X31884Y53144D01*
X32027Y53077D01*
X32172Y53014D01*
X32319Y52954D01*
X32467Y52898D01*
X32617Y52846D01*
X32767Y52797D01*
X32919Y52752D01*
X33072Y52711D01*
X33226Y52674D01*
X33381Y52641D01*
X33536Y52611D01*
X33693Y52586D01*
X33849Y52564D01*
X34007Y52547D01*
X34164Y52533D01*
X34322Y52523D01*
X34481Y52517D01*
X34639Y52515D01*
X34797Y52517D01*
X34956Y52523D01*
X35114Y52533D01*
X35271Y52547D01*
X35429Y52564D01*
X35585Y52586D01*
X35742Y52611D01*
X35897Y52641D01*
X36052Y52674D01*
X36206Y52711D01*
X36359Y52752D01*
X36511Y52797D01*
X36661Y52846D01*
X36811Y52898D01*
X36959Y52954D01*
X37106Y53014D01*
X37251Y53077D01*
X37394Y53144D01*
X37536Y53214D01*
X37676Y53288D01*
X37814Y53366D01*
X37950Y53447D01*
X38084Y53531D01*
X38216Y53618D01*
X38346Y53709D01*
X38473Y53803D01*
X38598Y53900D01*
X38721Y54001D01*
X38841Y54104D01*
X38958Y54210D01*
X39073Y54319D01*
X39185Y54431D01*
X39294Y54546D01*
X39400Y54663D01*
X39503Y54783D01*
X39604Y54906D01*
X39701Y55031D01*
X39795Y55158D01*
X39886Y55288D01*
X39973Y55420D01*
X40057Y55554D01*
X40138Y55690D01*
X40216Y55828D01*
X40290Y55968D01*
X40360Y56110D01*
X40427Y56253D01*
X40490Y56398D01*
X40550Y56545D01*
X40606Y56693D01*
X40658Y56843D01*
X40707Y56993D01*
X40752Y57145D01*
X40793Y57298D01*
X40830Y57452D01*
X40863Y57607D01*
X40893Y57762D01*
X40918Y57919D01*
X40940Y58075D01*
X40957Y58233D01*
X40971Y58390D01*
X40981Y58548D01*
X40987Y58707D01*
X40989Y58865D01*
X28289Y58865D02*
X27019Y56325D01*
X28289Y58865D02*
X30575Y57595D01*
X37179Y47435D02*
X34639Y44895D01*
X32099Y47435D01*
X31845Y47689D02*
X37433Y47689D01*
X30575Y57595D02*
X27019Y56325D01*
X16002Y79280D02*
X14732Y83090D01*
X5842Y78010D02*
X5842Y72930D01*
X37910Y85439D02*
X41243Y85916D01*
X37910Y85439D02*
X39180Y82360D01*
X41243Y85916D01*
X39211Y84646D02*
X39447Y84528D01*
X39679Y84405D01*
X39908Y84276D01*
X40135Y84142D01*
X40358Y84002D01*
X40577Y83857D01*
X40793Y83706D01*
X41005Y83550D01*
X41214Y83390D01*
X41418Y83224D01*
X41618Y83053D01*
X41814Y82878D01*
X42006Y82697D01*
X42193Y82512D01*
X42376Y82323D01*
X42554Y82129D01*
X42728Y81932D01*
X42896Y81729D01*
X43060Y81523D01*
X43219Y81313D01*
X43372Y81100D01*
X43520Y80882D01*
X43663Y80661D01*
X43801Y80437D01*
X43933Y80209D01*
X44059Y79978D01*
X44180Y79744D01*
X44295Y79508D01*
X44405Y79268D01*
X44508Y79027D01*
X44606Y78782D01*
X44698Y78535D01*
X44783Y78287D01*
X44863Y78036D01*
X44937Y77783D01*
X45004Y77529D01*
X45065Y77273D01*
X45120Y77015D01*
X45169Y76757D01*
X45211Y76497D01*
X45247Y76236D01*
X45277Y75975D01*
X45301Y75713D01*
X45318Y75450D01*
X45329Y75187D01*
X45333Y74924D01*
X45331Y74661D01*
X45322Y74398D01*
X45308Y74135D01*
X45287Y73873D01*
X45259Y73611D01*
X45225Y73350D01*
X45185Y73090D01*
X45139Y72831D01*
X45086Y72573D01*
X45027Y72317D01*
X44962Y72062D01*
X44891Y71808D01*
X44813Y71557D01*
X44730Y71307D01*
X44640Y71060D01*
X44545Y70814D01*
X44443Y70572D01*
X44336Y70331D01*
X44223Y70094D01*
X44104Y69859D01*
X43980Y69627D01*
X43850Y69398D01*
X43714Y69172D01*
X43573Y68950D01*
X43427Y68731D01*
X43275Y68516D01*
X33401Y74994D02*
X33403Y75065D01*
X33409Y75136D01*
X33419Y75207D01*
X33433Y75277D01*
X33451Y75346D01*
X33472Y75413D01*
X33498Y75480D01*
X33527Y75545D01*
X33559Y75608D01*
X33596Y75670D01*
X33635Y75729D01*
X33678Y75786D01*
X33724Y75840D01*
X33773Y75892D01*
X33825Y75941D01*
X33879Y75987D01*
X33936Y76030D01*
X33995Y76069D01*
X34057Y76106D01*
X34120Y76138D01*
X34185Y76167D01*
X34252Y76193D01*
X34319Y76214D01*
X34388Y76232D01*
X34458Y76246D01*
X34529Y76256D01*
X34600Y76262D01*
X34671Y76264D01*
X34742Y76262D01*
X34813Y76256D01*
X34884Y76246D01*
X34954Y76232D01*
X35023Y76214D01*
X35090Y76193D01*
X35157Y76167D01*
X35222Y76138D01*
X35285Y76106D01*
X35347Y76069D01*
X35406Y76030D01*
X35463Y75987D01*
X35517Y75941D01*
X35569Y75892D01*
X35618Y75840D01*
X35664Y75786D01*
X35707Y75729D01*
X35746Y75670D01*
X35783Y75608D01*
X35815Y75545D01*
X35844Y75480D01*
X35870Y75413D01*
X35891Y75346D01*
X35909Y75277D01*
X35923Y75207D01*
X35933Y75136D01*
X35939Y75065D01*
X35941Y74994D01*
X35939Y74923D01*
X35933Y74852D01*
X35923Y74781D01*
X35909Y74711D01*
X35891Y74642D01*
X35870Y74575D01*
X35844Y74508D01*
X35815Y74443D01*
X35783Y74380D01*
X35746Y74318D01*
X35707Y74259D01*
X35664Y74202D01*
X35618Y74148D01*
X35569Y74096D01*
X35517Y74047D01*
X35463Y74001D01*
X35406Y73958D01*
X35347Y73919D01*
X35285Y73882D01*
X35222Y73850D01*
X35157Y73821D01*
X35090Y73795D01*
X35023Y73774D01*
X34954Y73756D01*
X34884Y73742D01*
X34813Y73732D01*
X34742Y73726D01*
X34671Y73724D01*
X34600Y73726D01*
X34529Y73732D01*
X34458Y73742D01*
X34388Y73756D01*
X34319Y73774D01*
X34252Y73795D01*
X34185Y73821D01*
X34120Y73850D01*
X34057Y73882D01*
X33995Y73919D01*
X33936Y73958D01*
X33879Y74001D01*
X33825Y74047D01*
X33773Y74096D01*
X33724Y74148D01*
X33678Y74202D01*
X33635Y74259D01*
X33596Y74318D01*
X33559Y74380D01*
X33527Y74443D01*
X33498Y74508D01*
X33472Y74575D01*
X33451Y74642D01*
X33433Y74711D01*
X33419Y74781D01*
X33409Y74852D01*
X33403Y74923D01*
X33401Y74994D01*
X29337Y74994D02*
X29339Y75140D01*
X29345Y75285D01*
X29355Y75431D01*
X29369Y75576D01*
X29387Y75720D01*
X29408Y75864D01*
X29434Y76008D01*
X29464Y76150D01*
X29497Y76292D01*
X29535Y76433D01*
X29576Y76573D01*
X29621Y76711D01*
X29670Y76849D01*
X29722Y76985D01*
X29779Y77119D01*
X29838Y77252D01*
X29902Y77383D01*
X29969Y77512D01*
X30040Y77640D01*
X30114Y77765D01*
X30191Y77889D01*
X30272Y78010D01*
X30356Y78129D01*
X30443Y78246D01*
X30533Y78360D01*
X30627Y78472D01*
X30723Y78581D01*
X30823Y78688D01*
X30925Y78791D01*
X31030Y78892D01*
X31138Y78990D01*
X31249Y79085D01*
X31362Y79177D01*
X31477Y79266D01*
X31595Y79352D01*
X31715Y79434D01*
X31838Y79513D01*
X31962Y79589D01*
X32089Y79661D01*
X32217Y79730D01*
X32347Y79795D01*
X32479Y79857D01*
X32613Y79915D01*
X32748Y79969D01*
X32885Y80020D01*
X33023Y80067D01*
X33162Y80110D01*
X33302Y80149D01*
X33444Y80185D01*
X33586Y80216D01*
X33729Y80244D01*
X33873Y80268D01*
X34017Y80288D01*
X34162Y80304D01*
X34307Y80316D01*
X34452Y80324D01*
X34598Y80328D01*
X34744Y80328D01*
X34890Y80324D01*
X35035Y80316D01*
X35180Y80304D01*
X35325Y80288D01*
X35469Y80268D01*
X35613Y80244D01*
X35756Y80216D01*
X35898Y80185D01*
X36040Y80149D01*
X36180Y80110D01*
X36319Y80067D01*
X36457Y80020D01*
X36594Y79969D01*
X36729Y79915D01*
X36863Y79857D01*
X36995Y79795D01*
X37125Y79730D01*
X37253Y79661D01*
X37380Y79589D01*
X37504Y79513D01*
X37627Y79434D01*
X37747Y79352D01*
X37865Y79266D01*
X37980Y79177D01*
X38093Y79085D01*
X38204Y78990D01*
X38312Y78892D01*
X38417Y78791D01*
X38519Y78688D01*
X38619Y78581D01*
X38715Y78472D01*
X38809Y78360D01*
X38899Y78246D01*
X38986Y78129D01*
X39070Y78010D01*
X39151Y77889D01*
X39228Y77765D01*
X39302Y77640D01*
X39373Y77512D01*
X39440Y77383D01*
X39504Y77252D01*
X39563Y77119D01*
X39620Y76985D01*
X39672Y76849D01*
X39721Y76711D01*
X39766Y76573D01*
X39807Y76433D01*
X39845Y76292D01*
X39878Y76150D01*
X39908Y76008D01*
X39934Y75864D01*
X39955Y75720D01*
X39973Y75576D01*
X39987Y75431D01*
X39997Y75285D01*
X40003Y75140D01*
X40005Y74994D01*
X40003Y74848D01*
X39997Y74703D01*
X39987Y74557D01*
X39973Y74412D01*
X39955Y74268D01*
X39934Y74124D01*
X39908Y73980D01*
X39878Y73838D01*
X39845Y73696D01*
X39807Y73555D01*
X39766Y73415D01*
X39721Y73277D01*
X39672Y73139D01*
X39620Y73003D01*
X39563Y72869D01*
X39504Y72736D01*
X39440Y72605D01*
X39373Y72476D01*
X39302Y72348D01*
X39228Y72223D01*
X39151Y72099D01*
X39070Y71978D01*
X38986Y71859D01*
X38899Y71742D01*
X38809Y71628D01*
X38715Y71516D01*
X38619Y71407D01*
X38519Y71300D01*
X38417Y71197D01*
X38312Y71096D01*
X38204Y70998D01*
X38093Y70903D01*
X37980Y70811D01*
X37865Y70722D01*
X37747Y70636D01*
X37627Y70554D01*
X37504Y70475D01*
X37380Y70399D01*
X37253Y70327D01*
X37125Y70258D01*
X36995Y70193D01*
X36863Y70131D01*
X36729Y70073D01*
X36594Y70019D01*
X36457Y69968D01*
X36319Y69921D01*
X36180Y69878D01*
X36040Y69839D01*
X35898Y69803D01*
X35756Y69772D01*
X35613Y69744D01*
X35469Y69720D01*
X35325Y69700D01*
X35180Y69684D01*
X35035Y69672D01*
X34890Y69664D01*
X34744Y69660D01*
X34598Y69660D01*
X34452Y69664D01*
X34307Y69672D01*
X34162Y69684D01*
X34017Y69700D01*
X33873Y69720D01*
X33729Y69744D01*
X33586Y69772D01*
X33444Y69803D01*
X33302Y69839D01*
X33162Y69878D01*
X33023Y69921D01*
X32885Y69968D01*
X32748Y70019D01*
X32613Y70073D01*
X32479Y70131D01*
X32347Y70193D01*
X32217Y70258D01*
X32089Y70327D01*
X31962Y70399D01*
X31838Y70475D01*
X31715Y70554D01*
X31595Y70636D01*
X31477Y70722D01*
X31362Y70811D01*
X31249Y70903D01*
X31138Y70998D01*
X31030Y71096D01*
X30925Y71197D01*
X30823Y71300D01*
X30723Y71407D01*
X30627Y71516D01*
X30533Y71628D01*
X30443Y71742D01*
X30356Y71859D01*
X30272Y71978D01*
X30191Y72099D01*
X30114Y72223D01*
X30040Y72348D01*
X29969Y72476D01*
X29902Y72605D01*
X29838Y72736D01*
X29779Y72869D01*
X29722Y73003D01*
X29670Y73139D01*
X29621Y73277D01*
X29576Y73415D01*
X29535Y73555D01*
X29497Y73696D01*
X29464Y73838D01*
X29434Y73980D01*
X29408Y74124D01*
X29387Y74268D01*
X29369Y74412D01*
X29355Y74557D01*
X29345Y74703D01*
X29339Y74848D01*
X29337Y74994D01*
D11*
X248946Y112000D02*
X248946Y142000D01*
X222946Y97000D02*
X206446Y97000D01*
X206446Y149500D02*
X206446Y157000D01*
X222946Y157000D01*
X206446Y104500D02*
X206446Y97000D01*
X198930Y102000D02*
X198932Y102063D01*
X198938Y102126D01*
X198948Y102189D01*
X198961Y102250D01*
X198979Y102311D01*
X199000Y102370D01*
X199025Y102429D01*
X199053Y102485D01*
X199085Y102540D01*
X199120Y102592D01*
X199159Y102642D01*
X199200Y102690D01*
X199245Y102735D01*
X199292Y102777D01*
X199341Y102816D01*
X199393Y102852D01*
X199447Y102885D01*
X199503Y102914D01*
X199561Y102940D01*
X199620Y102962D01*
X199680Y102981D01*
X199742Y102995D01*
X199804Y103006D01*
X199867Y103013D01*
X199930Y103016D01*
X199993Y103015D01*
X200056Y103010D01*
X200119Y103001D01*
X200181Y102988D01*
X200242Y102972D01*
X200302Y102952D01*
X200360Y102928D01*
X200417Y102900D01*
X200472Y102869D01*
X200525Y102835D01*
X200576Y102797D01*
X200624Y102756D01*
X200670Y102713D01*
X200713Y102666D01*
X200753Y102617D01*
X200790Y102566D01*
X200823Y102513D01*
X200853Y102457D01*
X200880Y102400D01*
X200903Y102341D01*
X200922Y102281D01*
X200938Y102219D01*
X200950Y102157D01*
X200958Y102095D01*
X200962Y102032D01*
X200962Y101968D01*
X200958Y101905D01*
X200950Y101843D01*
X200938Y101781D01*
X200922Y101719D01*
X200903Y101659D01*
X200880Y101600D01*
X200853Y101543D01*
X200823Y101487D01*
X200790Y101434D01*
X200753Y101383D01*
X200713Y101334D01*
X200670Y101287D01*
X200624Y101244D01*
X200576Y101203D01*
X200525Y101165D01*
X200472Y101131D01*
X200417Y101100D01*
X200360Y101072D01*
X200302Y101048D01*
X200242Y101028D01*
X200181Y101012D01*
X200119Y100999D01*
X200056Y100990D01*
X199993Y100985D01*
X199930Y100984D01*
X199867Y100987D01*
X199804Y100994D01*
X199742Y101005D01*
X199680Y101019D01*
X199620Y101038D01*
X199561Y101060D01*
X199503Y101086D01*
X199447Y101115D01*
X199393Y101148D01*
X199341Y101184D01*
X199292Y101223D01*
X199245Y101265D01*
X199200Y101310D01*
X199159Y101358D01*
X199120Y101408D01*
X199085Y101460D01*
X199053Y101515D01*
X199025Y101571D01*
X199000Y101630D01*
X198979Y101689D01*
X198961Y101750D01*
X198948Y101811D01*
X198938Y101874D01*
X198932Y101937D01*
X198930Y102000D01*
X4800Y112000D02*
X4800Y142000D01*
X30800Y157000D02*
X47300Y157000D01*
X47300Y104500D02*
X47300Y97000D01*
X30800Y97000D01*
X47300Y149500D02*
X47300Y157000D01*
X52784Y152000D02*
X52786Y152063D01*
X52792Y152126D01*
X52802Y152189D01*
X52815Y152250D01*
X52833Y152311D01*
X52854Y152370D01*
X52879Y152429D01*
X52907Y152485D01*
X52939Y152540D01*
X52974Y152592D01*
X53013Y152642D01*
X53054Y152690D01*
X53099Y152735D01*
X53146Y152777D01*
X53195Y152816D01*
X53247Y152852D01*
X53301Y152885D01*
X53357Y152914D01*
X53415Y152940D01*
X53474Y152962D01*
X53534Y152981D01*
X53596Y152995D01*
X53658Y153006D01*
X53721Y153013D01*
X53784Y153016D01*
X53847Y153015D01*
X53910Y153010D01*
X53973Y153001D01*
X54035Y152988D01*
X54096Y152972D01*
X54156Y152952D01*
X54214Y152928D01*
X54271Y152900D01*
X54326Y152869D01*
X54379Y152835D01*
X54430Y152797D01*
X54478Y152756D01*
X54524Y152713D01*
X54567Y152666D01*
X54607Y152617D01*
X54644Y152566D01*
X54677Y152513D01*
X54707Y152457D01*
X54734Y152400D01*
X54757Y152341D01*
X54776Y152281D01*
X54792Y152219D01*
X54804Y152157D01*
X54812Y152095D01*
X54816Y152032D01*
X54816Y151968D01*
X54812Y151905D01*
X54804Y151843D01*
X54792Y151781D01*
X54776Y151719D01*
X54757Y151659D01*
X54734Y151600D01*
X54707Y151543D01*
X54677Y151487D01*
X54644Y151434D01*
X54607Y151383D01*
X54567Y151334D01*
X54524Y151287D01*
X54478Y151244D01*
X54430Y151203D01*
X54379Y151165D01*
X54326Y151131D01*
X54271Y151100D01*
X54214Y151072D01*
X54156Y151048D01*
X54096Y151028D01*
X54035Y151012D01*
X53973Y150999D01*
X53910Y150990D01*
X53847Y150985D01*
X53784Y150984D01*
X53721Y150987D01*
X53658Y150994D01*
X53596Y151005D01*
X53534Y151019D01*
X53474Y151038D01*
X53415Y151060D01*
X53357Y151086D01*
X53301Y151115D01*
X53247Y151148D01*
X53195Y151184D01*
X53146Y151223D01*
X53099Y151265D01*
X53054Y151310D01*
X53013Y151358D01*
X52974Y151408D01*
X52939Y151460D01*
X52907Y151515D01*
X52879Y151571D01*
X52854Y151630D01*
X52833Y151689D01*
X52815Y151750D01*
X52802Y151811D01*
X52792Y151874D01*
X52786Y151937D01*
X52784Y152000D01*
X239332Y195199D02*
X248857Y195199D01*
D12*
X145650Y110810D03*
M02*
