G04 EAGLE Gerber RS-274X export*
G75*
%MOMM*%
%FSLAX34Y34*%
%LPD*%
%IN*%
%IPPOS*%
%AMOC8*
5,1,8,0,0,1.08239X$1,22.5*%
G01*
%ADD10C,0.203200*%
%ADD11C,0.000000*%
%ADD12C,0.254000*%


D10*
X190500Y76200D02*
X0Y76200D01*
X0Y0D01*
X190500Y0D01*
X190500Y76200D01*
D11*
X10160Y38100D02*
X10165Y38474D01*
X10178Y38848D01*
X10201Y39221D01*
X10233Y39594D01*
X10275Y39966D01*
X10325Y40336D01*
X10384Y40705D01*
X10453Y41073D01*
X10530Y41439D01*
X10617Y41803D01*
X10712Y42165D01*
X10816Y42524D01*
X10929Y42881D01*
X11051Y43234D01*
X11181Y43585D01*
X11320Y43932D01*
X11467Y44276D01*
X11623Y44616D01*
X11787Y44952D01*
X11960Y45284D01*
X12140Y45612D01*
X12328Y45935D01*
X12524Y46253D01*
X12728Y46567D01*
X12940Y46875D01*
X13159Y47178D01*
X13386Y47476D01*
X13619Y47768D01*
X13860Y48054D01*
X14108Y48335D01*
X14362Y48609D01*
X14624Y48876D01*
X14891Y49138D01*
X15165Y49392D01*
X15446Y49640D01*
X15732Y49881D01*
X16024Y50114D01*
X16322Y50341D01*
X16625Y50560D01*
X16933Y50772D01*
X17247Y50976D01*
X17565Y51172D01*
X17888Y51360D01*
X18216Y51540D01*
X18548Y51713D01*
X18884Y51877D01*
X19224Y52033D01*
X19568Y52180D01*
X19915Y52319D01*
X20266Y52449D01*
X20619Y52571D01*
X20976Y52684D01*
X21335Y52788D01*
X21697Y52883D01*
X22061Y52970D01*
X22427Y53047D01*
X22795Y53116D01*
X23164Y53175D01*
X23534Y53225D01*
X23906Y53267D01*
X24279Y53299D01*
X24652Y53322D01*
X25026Y53335D01*
X25400Y53340D01*
X25774Y53335D01*
X26148Y53322D01*
X26521Y53299D01*
X26894Y53267D01*
X27266Y53225D01*
X27636Y53175D01*
X28005Y53116D01*
X28373Y53047D01*
X28739Y52970D01*
X29103Y52883D01*
X29465Y52788D01*
X29824Y52684D01*
X30181Y52571D01*
X30534Y52449D01*
X30885Y52319D01*
X31232Y52180D01*
X31576Y52033D01*
X31916Y51877D01*
X32252Y51713D01*
X32584Y51540D01*
X32912Y51360D01*
X33235Y51172D01*
X33553Y50976D01*
X33867Y50772D01*
X34175Y50560D01*
X34478Y50341D01*
X34776Y50114D01*
X35068Y49881D01*
X35354Y49640D01*
X35635Y49392D01*
X35909Y49138D01*
X36176Y48876D01*
X36438Y48609D01*
X36692Y48335D01*
X36940Y48054D01*
X37181Y47768D01*
X37414Y47476D01*
X37641Y47178D01*
X37860Y46875D01*
X38072Y46567D01*
X38276Y46253D01*
X38472Y45935D01*
X38660Y45612D01*
X38840Y45284D01*
X39013Y44952D01*
X39177Y44616D01*
X39333Y44276D01*
X39480Y43932D01*
X39619Y43585D01*
X39749Y43234D01*
X39871Y42881D01*
X39984Y42524D01*
X40088Y42165D01*
X40183Y41803D01*
X40270Y41439D01*
X40347Y41073D01*
X40416Y40705D01*
X40475Y40336D01*
X40525Y39966D01*
X40567Y39594D01*
X40599Y39221D01*
X40622Y38848D01*
X40635Y38474D01*
X40640Y38100D01*
X40635Y37726D01*
X40622Y37352D01*
X40599Y36979D01*
X40567Y36606D01*
X40525Y36234D01*
X40475Y35864D01*
X40416Y35495D01*
X40347Y35127D01*
X40270Y34761D01*
X40183Y34397D01*
X40088Y34035D01*
X39984Y33676D01*
X39871Y33319D01*
X39749Y32966D01*
X39619Y32615D01*
X39480Y32268D01*
X39333Y31924D01*
X39177Y31584D01*
X39013Y31248D01*
X38840Y30916D01*
X38660Y30588D01*
X38472Y30265D01*
X38276Y29947D01*
X38072Y29633D01*
X37860Y29325D01*
X37641Y29022D01*
X37414Y28724D01*
X37181Y28432D01*
X36940Y28146D01*
X36692Y27865D01*
X36438Y27591D01*
X36176Y27324D01*
X35909Y27062D01*
X35635Y26808D01*
X35354Y26560D01*
X35068Y26319D01*
X34776Y26086D01*
X34478Y25859D01*
X34175Y25640D01*
X33867Y25428D01*
X33553Y25224D01*
X33235Y25028D01*
X32912Y24840D01*
X32584Y24660D01*
X32252Y24487D01*
X31916Y24323D01*
X31576Y24167D01*
X31232Y24020D01*
X30885Y23881D01*
X30534Y23751D01*
X30181Y23629D01*
X29824Y23516D01*
X29465Y23412D01*
X29103Y23317D01*
X28739Y23230D01*
X28373Y23153D01*
X28005Y23084D01*
X27636Y23025D01*
X27266Y22975D01*
X26894Y22933D01*
X26521Y22901D01*
X26148Y22878D01*
X25774Y22865D01*
X25400Y22860D01*
X25026Y22865D01*
X24652Y22878D01*
X24279Y22901D01*
X23906Y22933D01*
X23534Y22975D01*
X23164Y23025D01*
X22795Y23084D01*
X22427Y23153D01*
X22061Y23230D01*
X21697Y23317D01*
X21335Y23412D01*
X20976Y23516D01*
X20619Y23629D01*
X20266Y23751D01*
X19915Y23881D01*
X19568Y24020D01*
X19224Y24167D01*
X18884Y24323D01*
X18548Y24487D01*
X18216Y24660D01*
X17888Y24840D01*
X17565Y25028D01*
X17247Y25224D01*
X16933Y25428D01*
X16625Y25640D01*
X16322Y25859D01*
X16024Y26086D01*
X15732Y26319D01*
X15446Y26560D01*
X15165Y26808D01*
X14891Y27062D01*
X14624Y27324D01*
X14362Y27591D01*
X14108Y27865D01*
X13860Y28146D01*
X13619Y28432D01*
X13386Y28724D01*
X13159Y29022D01*
X12940Y29325D01*
X12728Y29633D01*
X12524Y29947D01*
X12328Y30265D01*
X12140Y30588D01*
X11960Y30916D01*
X11787Y31248D01*
X11623Y31584D01*
X11467Y31924D01*
X11320Y32268D01*
X11181Y32615D01*
X11051Y32966D01*
X10929Y33319D01*
X10816Y33676D01*
X10712Y34035D01*
X10617Y34397D01*
X10530Y34761D01*
X10453Y35127D01*
X10384Y35495D01*
X10325Y35864D01*
X10275Y36234D01*
X10233Y36606D01*
X10201Y36979D01*
X10178Y37352D01*
X10165Y37726D01*
X10160Y38100D01*
D12*
X0Y0D02*
X190500Y0D01*
X190500Y76200D01*
X0Y76200D01*
X0Y0D01*
X40640Y37556D02*
X40562Y36470D01*
X40407Y35392D01*
X40176Y34329D01*
X39869Y33284D01*
X39489Y32264D01*
X39037Y31274D01*
X38515Y30319D01*
X37926Y29403D01*
X37274Y28531D01*
X36561Y27709D01*
X35791Y26939D01*
X34969Y26226D01*
X34097Y25574D01*
X33181Y24985D01*
X32226Y24463D01*
X31236Y24011D01*
X30216Y23631D01*
X29171Y23324D01*
X28108Y23093D01*
X27030Y22938D01*
X25944Y22860D01*
X24856Y22860D01*
X23770Y22938D01*
X22692Y23093D01*
X21629Y23324D01*
X20584Y23631D01*
X19564Y24011D01*
X18574Y24463D01*
X17619Y24985D01*
X16703Y25574D01*
X15831Y26226D01*
X15009Y26939D01*
X14239Y27709D01*
X13526Y28531D01*
X12874Y29403D01*
X12285Y30319D01*
X11763Y31274D01*
X11311Y32264D01*
X10931Y33284D01*
X10624Y34329D01*
X10393Y35392D01*
X10238Y36470D01*
X10160Y37556D01*
X10160Y38644D01*
X10238Y39730D01*
X10393Y40808D01*
X10624Y41871D01*
X10931Y42916D01*
X11311Y43936D01*
X11763Y44926D01*
X12285Y45881D01*
X12874Y46797D01*
X13526Y47669D01*
X14239Y48491D01*
X15009Y49261D01*
X15831Y49974D01*
X16703Y50626D01*
X17619Y51215D01*
X18574Y51737D01*
X19564Y52189D01*
X20584Y52569D01*
X21629Y52876D01*
X22692Y53107D01*
X23770Y53262D01*
X24856Y53340D01*
X25944Y53340D01*
X27030Y53262D01*
X28108Y53107D01*
X29171Y52876D01*
X30216Y52569D01*
X31236Y52189D01*
X32226Y51737D01*
X33181Y51215D01*
X34097Y50626D01*
X34969Y49974D01*
X35791Y49261D01*
X36561Y48491D01*
X37274Y47669D01*
X37926Y46797D01*
X38515Y45881D01*
X39037Y44926D01*
X39489Y43936D01*
X39869Y42916D01*
X40176Y41871D01*
X40407Y40808D01*
X40562Y39730D01*
X40640Y38644D01*
X40640Y37556D01*
M02*
