G04 EAGLE Gerber RS-274X export*
G75*
%MOMM*%
%FSLAX34Y34*%
%LPD*%
%INSilkscreen Bottom*%
%IPPOS*%
%AMOC8*
5,1,8,0,0,1.08239X$1,22.5*%
G01*
%ADD10C,0.254000*%
%ADD11C,0.152400*%
%ADD12C,0.203200*%

G36*
X181168Y2217D02*
X181168Y2217D01*
X181234Y2223D01*
X181252Y2234D01*
X181273Y2238D01*
X181358Y2298D01*
X181382Y2313D01*
X181385Y2317D01*
X181390Y2321D01*
X183590Y4621D01*
X183598Y4635D01*
X183611Y4645D01*
X183642Y4709D01*
X183678Y4770D01*
X183679Y4786D01*
X183686Y4800D01*
X183685Y4872D01*
X183691Y4943D01*
X183685Y4957D01*
X183684Y4974D01*
X183627Y5099D01*
X183625Y5103D01*
X183625Y5104D01*
X181757Y7719D01*
X181759Y7729D01*
X181768Y7743D01*
X181779Y7801D01*
X181788Y7821D01*
X181788Y7843D01*
X181794Y7877D01*
X181795Y7882D01*
X181795Y7883D01*
X181795Y7894D01*
X181828Y7959D01*
X181884Y8015D01*
X181895Y8033D01*
X181907Y8042D01*
X181915Y8061D01*
X181955Y8114D01*
X182028Y8259D01*
X182084Y8315D01*
X182124Y8380D01*
X182168Y8443D01*
X182170Y8454D01*
X182175Y8462D01*
X182179Y8497D01*
X182195Y8583D01*
X182195Y8633D01*
X182224Y8680D01*
X182268Y8743D01*
X182270Y8754D01*
X182275Y8762D01*
X182279Y8797D01*
X182295Y8883D01*
X182295Y8994D01*
X182328Y9059D01*
X182384Y9115D01*
X182424Y9180D01*
X182468Y9243D01*
X182470Y9254D01*
X182475Y9262D01*
X182479Y9297D01*
X182485Y9331D01*
X182488Y9338D01*
X182488Y9346D01*
X182495Y9383D01*
X182495Y9433D01*
X182524Y9480D01*
X182568Y9543D01*
X182570Y9554D01*
X182575Y9562D01*
X182579Y9597D01*
X182595Y9683D01*
X182595Y9794D01*
X182624Y9851D01*
X185880Y10409D01*
X185898Y10417D01*
X185917Y10418D01*
X185977Y10450D01*
X186039Y10477D01*
X186052Y10491D01*
X186069Y10501D01*
X186108Y10556D01*
X186152Y10608D01*
X186157Y10627D01*
X186168Y10643D01*
X186190Y10753D01*
X186195Y10776D01*
X186194Y10779D01*
X186195Y10783D01*
X186195Y13983D01*
X186191Y14002D01*
X186193Y14021D01*
X186182Y14055D01*
X186181Y14062D01*
X186176Y14072D01*
X186171Y14086D01*
X186156Y14152D01*
X186143Y14167D01*
X186137Y14185D01*
X186089Y14233D01*
X186046Y14285D01*
X186028Y14293D01*
X186014Y14307D01*
X185908Y14346D01*
X185888Y14356D01*
X185884Y14356D01*
X185880Y14357D01*
X182668Y14908D01*
X182657Y14946D01*
X182656Y14952D01*
X182655Y14952D01*
X182655Y14953D01*
X182595Y15073D01*
X182595Y15083D01*
X182592Y15099D01*
X182594Y15115D01*
X182574Y15184D01*
X182574Y15200D01*
X182566Y15214D01*
X182557Y15246D01*
X182556Y15252D01*
X182555Y15252D01*
X182555Y15253D01*
X182495Y15373D01*
X182495Y15383D01*
X182492Y15399D01*
X182494Y15415D01*
X182457Y15546D01*
X182456Y15552D01*
X182455Y15552D01*
X182455Y15553D01*
X182295Y15873D01*
X182295Y15883D01*
X182292Y15899D01*
X182294Y15915D01*
X182257Y16046D01*
X182256Y16052D01*
X182255Y16052D01*
X182255Y16053D01*
X182155Y16253D01*
X182132Y16280D01*
X182095Y16335D01*
X182095Y16383D01*
X182078Y16458D01*
X182064Y16533D01*
X182058Y16543D01*
X182056Y16552D01*
X182033Y16579D01*
X181984Y16651D01*
X181928Y16708D01*
X181855Y16853D01*
X181832Y16880D01*
X181795Y16935D01*
X181795Y16983D01*
X181778Y17058D01*
X181774Y17079D01*
X183628Y19768D01*
X183634Y19784D01*
X183646Y19796D01*
X183666Y19864D01*
X183691Y19929D01*
X183690Y19946D01*
X183695Y19962D01*
X183682Y20032D01*
X183676Y20101D01*
X183667Y20116D01*
X183664Y20133D01*
X183593Y20239D01*
X183586Y20249D01*
X183585Y20250D01*
X183584Y20251D01*
X181384Y22451D01*
X181370Y22460D01*
X181359Y22474D01*
X181297Y22506D01*
X181237Y22543D01*
X181220Y22544D01*
X181205Y22552D01*
X181135Y22552D01*
X181065Y22559D01*
X181049Y22553D01*
X181032Y22553D01*
X180914Y22501D01*
X180903Y22497D01*
X180902Y22496D01*
X180901Y22495D01*
X178202Y20634D01*
X178184Y20651D01*
X178119Y20692D01*
X178057Y20735D01*
X178045Y20738D01*
X178037Y20743D01*
X178002Y20746D01*
X177916Y20762D01*
X177866Y20762D01*
X177854Y20770D01*
X177786Y20822D01*
X177641Y20895D01*
X177584Y20951D01*
X177519Y20992D01*
X177457Y21035D01*
X177445Y21038D01*
X177437Y21043D01*
X177402Y21046D01*
X177316Y21062D01*
X177266Y21062D01*
X177254Y21070D01*
X177186Y21122D01*
X176986Y21222D01*
X176970Y21226D01*
X176957Y21235D01*
X176823Y21261D01*
X176817Y21262D01*
X176816Y21262D01*
X176806Y21262D01*
X176686Y21322D01*
X176670Y21326D01*
X176657Y21335D01*
X176523Y21361D01*
X176517Y21362D01*
X176516Y21362D01*
X176466Y21362D01*
X176419Y21392D01*
X176357Y21435D01*
X176345Y21438D01*
X176337Y21443D01*
X176302Y21446D01*
X176216Y21462D01*
X176106Y21462D01*
X176048Y21491D01*
X175490Y24747D01*
X175482Y24765D01*
X175481Y24785D01*
X175449Y24844D01*
X175422Y24907D01*
X175408Y24919D01*
X175398Y24936D01*
X175343Y24975D01*
X175291Y25020D01*
X175272Y25024D01*
X175257Y25035D01*
X175146Y25057D01*
X175124Y25062D01*
X175120Y25062D01*
X175116Y25062D01*
X171916Y25062D01*
X171897Y25058D01*
X171878Y25061D01*
X171814Y25038D01*
X171748Y25023D01*
X171733Y25011D01*
X171714Y25004D01*
X171667Y24956D01*
X171614Y24913D01*
X171606Y24895D01*
X171593Y24881D01*
X171553Y24775D01*
X171544Y24755D01*
X171544Y24751D01*
X171542Y24747D01*
X170992Y21535D01*
X170953Y21524D01*
X170948Y21523D01*
X170947Y21523D01*
X170946Y21522D01*
X170826Y21462D01*
X170816Y21462D01*
X170800Y21459D01*
X170784Y21461D01*
X170653Y21424D01*
X170648Y21423D01*
X170647Y21423D01*
X170646Y21422D01*
X170526Y21362D01*
X170516Y21362D01*
X170500Y21359D01*
X170484Y21361D01*
X170353Y21324D01*
X170348Y21323D01*
X170347Y21323D01*
X170346Y21322D01*
X170226Y21262D01*
X170116Y21262D01*
X170042Y21245D01*
X169966Y21232D01*
X169957Y21225D01*
X169948Y21223D01*
X169920Y21200D01*
X169848Y21151D01*
X169791Y21095D01*
X169726Y21062D01*
X169716Y21062D01*
X169700Y21059D01*
X169684Y21061D01*
X169553Y21024D01*
X169548Y21023D01*
X169547Y21023D01*
X169546Y21022D01*
X169346Y20922D01*
X169319Y20899D01*
X169248Y20851D01*
X169191Y20795D01*
X169126Y20762D01*
X169116Y20762D01*
X169100Y20759D01*
X169084Y20761D01*
X168953Y20724D01*
X168948Y20723D01*
X168947Y20723D01*
X168946Y20722D01*
X168805Y20652D01*
X166131Y22495D01*
X166119Y22500D01*
X166110Y22509D01*
X166039Y22532D01*
X165970Y22559D01*
X165957Y22557D01*
X165945Y22561D01*
X165872Y22550D01*
X165798Y22544D01*
X165787Y22537D01*
X165774Y22535D01*
X165654Y22457D01*
X163354Y20257D01*
X163340Y20236D01*
X163320Y20220D01*
X163293Y20164D01*
X163259Y20112D01*
X163256Y20087D01*
X163245Y20064D01*
X163246Y20002D01*
X163239Y19940D01*
X163248Y19916D01*
X163248Y19890D01*
X163286Y19811D01*
X163297Y19778D01*
X163304Y19771D01*
X163309Y19761D01*
X165244Y17088D01*
X165204Y17008D01*
X165148Y16951D01*
X165108Y16887D01*
X165064Y16824D01*
X165062Y16812D01*
X165057Y16804D01*
X165053Y16769D01*
X165037Y16683D01*
X165037Y16633D01*
X165029Y16621D01*
X164977Y16553D01*
X164904Y16408D01*
X164848Y16351D01*
X164808Y16287D01*
X164764Y16224D01*
X164762Y16212D01*
X164757Y16204D01*
X164753Y16169D01*
X164737Y16083D01*
X164737Y16033D01*
X164708Y15987D01*
X164664Y15924D01*
X164662Y15912D01*
X164657Y15904D01*
X164653Y15869D01*
X164637Y15783D01*
X164637Y15673D01*
X164604Y15608D01*
X164548Y15551D01*
X164508Y15487D01*
X164464Y15424D01*
X164462Y15412D01*
X164457Y15404D01*
X164453Y15369D01*
X164437Y15283D01*
X164437Y15233D01*
X164408Y15187D01*
X164364Y15124D01*
X164362Y15112D01*
X164357Y15104D01*
X164353Y15069D01*
X164337Y14983D01*
X164337Y14904D01*
X161054Y14357D01*
X161035Y14349D01*
X161015Y14349D01*
X160956Y14317D01*
X160894Y14291D01*
X160881Y14275D01*
X160863Y14266D01*
X160825Y14211D01*
X160781Y14160D01*
X160775Y14140D01*
X160764Y14124D01*
X160748Y14043D01*
X160744Y14032D01*
X160744Y14021D01*
X160743Y14017D01*
X160737Y13993D01*
X160738Y13988D01*
X160737Y13983D01*
X160737Y10783D01*
X160741Y10764D01*
X160739Y10745D01*
X160761Y10681D01*
X160776Y10615D01*
X160789Y10600D01*
X160795Y10581D01*
X160843Y10534D01*
X160886Y10481D01*
X160904Y10473D01*
X160918Y10460D01*
X161024Y10420D01*
X161044Y10411D01*
X161048Y10411D01*
X161052Y10409D01*
X164340Y9846D01*
X164375Y9720D01*
X164376Y9715D01*
X164377Y9714D01*
X164437Y9594D01*
X164437Y9583D01*
X164440Y9567D01*
X164438Y9551D01*
X164475Y9420D01*
X164476Y9415D01*
X164477Y9414D01*
X164537Y9294D01*
X164537Y9283D01*
X164540Y9267D01*
X164538Y9251D01*
X164575Y9120D01*
X164576Y9115D01*
X164577Y9114D01*
X164737Y8794D01*
X164737Y8783D01*
X164740Y8767D01*
X164738Y8751D01*
X164775Y8620D01*
X164776Y8615D01*
X164777Y8614D01*
X164877Y8414D01*
X164900Y8386D01*
X164948Y8315D01*
X165004Y8259D01*
X165037Y8194D01*
X165037Y8183D01*
X165040Y8167D01*
X165038Y8151D01*
X165075Y8020D01*
X165076Y8015D01*
X165077Y8014D01*
X165177Y7814D01*
X165200Y7786D01*
X165248Y7715D01*
X165258Y7705D01*
X163313Y5111D01*
X163303Y5088D01*
X163286Y5070D01*
X163268Y5010D01*
X163243Y4952D01*
X163244Y4928D01*
X163237Y4904D01*
X163248Y4842D01*
X163251Y4779D01*
X163263Y4758D01*
X163268Y4734D01*
X163319Y4658D01*
X163335Y4628D01*
X163342Y4623D01*
X163348Y4615D01*
X165648Y2315D01*
X165662Y2306D01*
X165673Y2292D01*
X165735Y2261D01*
X165795Y2224D01*
X165812Y2222D01*
X165827Y2214D01*
X165898Y2214D01*
X165967Y2207D01*
X165983Y2214D01*
X166000Y2213D01*
X166118Y2265D01*
X166129Y2269D01*
X166130Y2270D01*
X166131Y2271D01*
X168830Y4132D01*
X168848Y4115D01*
X168913Y4075D01*
X168975Y4031D01*
X168987Y4029D01*
X168995Y4024D01*
X169030Y4020D01*
X169045Y4018D01*
X169048Y4015D01*
X169113Y3975D01*
X169175Y3931D01*
X169187Y3929D01*
X169195Y3924D01*
X169230Y3920D01*
X169316Y3904D01*
X169366Y3904D01*
X169413Y3875D01*
X169475Y3831D01*
X169487Y3829D01*
X169495Y3824D01*
X169530Y3820D01*
X169545Y3818D01*
X169548Y3815D01*
X169613Y3775D01*
X169675Y3731D01*
X169687Y3729D01*
X169695Y3724D01*
X169730Y3720D01*
X169745Y3718D01*
X169748Y3715D01*
X169813Y3675D01*
X169875Y3631D01*
X169887Y3629D01*
X169895Y3624D01*
X169930Y3620D01*
X169959Y3615D01*
X169986Y3581D01*
X170005Y3573D01*
X170020Y3559D01*
X170083Y3538D01*
X170144Y3511D01*
X170165Y3512D01*
X170184Y3505D01*
X170250Y3515D01*
X170317Y3518D01*
X170335Y3528D01*
X170355Y3530D01*
X170410Y3569D01*
X170469Y3601D01*
X170481Y3617D01*
X170497Y3629D01*
X170554Y3722D01*
X170568Y3743D01*
X170569Y3747D01*
X170572Y3751D01*
X172572Y9151D01*
X172576Y9182D01*
X172588Y9210D01*
X172586Y9267D01*
X172593Y9323D01*
X172583Y9352D01*
X172582Y9383D01*
X172555Y9433D01*
X172536Y9487D01*
X172514Y9508D01*
X172499Y9535D01*
X172439Y9581D01*
X172412Y9608D01*
X172399Y9612D01*
X172386Y9622D01*
X171841Y9895D01*
X171684Y10051D01*
X171654Y10070D01*
X171586Y10122D01*
X171441Y10195D01*
X171128Y10508D01*
X171055Y10653D01*
X171032Y10680D01*
X170984Y10751D01*
X170828Y10908D01*
X170767Y11029D01*
X170676Y11303D01*
X170664Y11323D01*
X170655Y11353D01*
X170595Y11473D01*
X170595Y11583D01*
X170587Y11618D01*
X170576Y11703D01*
X170495Y11945D01*
X170495Y12722D01*
X170576Y12963D01*
X170579Y12999D01*
X170595Y13083D01*
X170595Y13268D01*
X170732Y13473D01*
X170745Y13508D01*
X170776Y13563D01*
X170860Y13815D01*
X171211Y14342D01*
X171558Y14688D01*
X172084Y15039D01*
X172336Y15123D01*
X172354Y15135D01*
X172368Y15138D01*
X172381Y15148D01*
X172426Y15168D01*
X172631Y15304D01*
X172816Y15304D01*
X172851Y15312D01*
X172936Y15323D01*
X173178Y15404D01*
X173769Y15404D01*
X174124Y15315D01*
X174160Y15315D01*
X174216Y15304D01*
X174401Y15304D01*
X174606Y15168D01*
X174641Y15155D01*
X174690Y15127D01*
X174692Y15125D01*
X174693Y15125D01*
X174696Y15123D01*
X174948Y15039D01*
X175175Y14888D01*
X175348Y14715D01*
X175374Y14699D01*
X175406Y14668D01*
X175675Y14488D01*
X175821Y14342D01*
X176172Y13815D01*
X176537Y12722D01*
X176537Y12245D01*
X176456Y12003D01*
X176453Y11967D01*
X176437Y11883D01*
X176437Y11673D01*
X176277Y11353D01*
X176271Y11330D01*
X176256Y11303D01*
X176165Y11029D01*
X176004Y10708D01*
X175848Y10551D01*
X175829Y10521D01*
X175777Y10453D01*
X175704Y10308D01*
X175591Y10195D01*
X175446Y10122D01*
X175419Y10099D01*
X175348Y10051D01*
X175191Y9895D01*
X174870Y9734D01*
X174596Y9643D01*
X174547Y9613D01*
X174494Y9591D01*
X174474Y9568D01*
X174449Y9552D01*
X174418Y9503D01*
X174381Y9460D01*
X174373Y9431D01*
X174357Y9406D01*
X174351Y9348D01*
X174337Y9293D01*
X174343Y9259D01*
X174340Y9233D01*
X174352Y9202D01*
X174360Y9151D01*
X176360Y3751D01*
X176386Y3713D01*
X176402Y3670D01*
X176433Y3642D01*
X176456Y3607D01*
X176496Y3584D01*
X176529Y3553D01*
X176569Y3541D01*
X176606Y3520D01*
X176651Y3517D01*
X176695Y3505D01*
X176736Y3512D01*
X176778Y3509D01*
X176821Y3527D01*
X176866Y3535D01*
X176907Y3563D01*
X176938Y3576D01*
X176955Y3595D01*
X176968Y3604D01*
X177016Y3604D01*
X177090Y3621D01*
X177166Y3635D01*
X177175Y3641D01*
X177184Y3643D01*
X177212Y3666D01*
X177284Y3715D01*
X177291Y3721D01*
X177366Y3735D01*
X177375Y3741D01*
X177384Y3743D01*
X177412Y3766D01*
X177484Y3815D01*
X177491Y3821D01*
X177566Y3835D01*
X177575Y3841D01*
X177584Y3843D01*
X177612Y3866D01*
X177684Y3915D01*
X177691Y3921D01*
X177766Y3935D01*
X177775Y3941D01*
X177784Y3943D01*
X177812Y3966D01*
X177884Y4015D01*
X177891Y4021D01*
X177966Y4035D01*
X177975Y4041D01*
X177984Y4043D01*
X178012Y4066D01*
X178084Y4115D01*
X178091Y4121D01*
X178166Y4135D01*
X178175Y4141D01*
X178184Y4143D01*
X178185Y4144D01*
X180901Y2271D01*
X180921Y2263D01*
X180937Y2249D01*
X181000Y2232D01*
X181062Y2208D01*
X181083Y2210D01*
X181104Y2204D01*
X181168Y2217D01*
G37*
G36*
X98412Y32701D02*
X98412Y32701D01*
X98416Y32698D01*
X98911Y32797D01*
X99406Y32797D01*
X99417Y32805D01*
X99424Y32800D01*
X99924Y33000D01*
X99926Y33003D01*
X99928Y33002D01*
X100326Y33201D01*
X100824Y33400D01*
X100829Y33408D01*
X100836Y33407D01*
X101636Y34007D01*
X101637Y34012D01*
X101641Y34011D01*
X102341Y34711D01*
X102342Y34720D01*
X102348Y34721D01*
X102648Y35221D01*
X102648Y35224D01*
X102650Y35224D01*
X102850Y35624D01*
X102849Y35627D01*
X102852Y35628D01*
X103252Y36628D01*
X103250Y36634D01*
X103254Y36636D01*
X103354Y37136D01*
X103351Y37143D01*
X103355Y37146D01*
X103355Y38646D01*
X103351Y38652D01*
X103354Y38656D01*
X103254Y39156D01*
X103249Y39160D01*
X103252Y39164D01*
X103052Y39664D01*
X103049Y39666D01*
X103050Y39668D01*
X102851Y40066D01*
X102652Y40564D01*
X102644Y40569D01*
X102645Y40576D01*
X102345Y40976D01*
X102340Y40977D01*
X102341Y40981D01*
X101641Y41681D01*
X101636Y41682D01*
X101636Y41685D01*
X100836Y42285D01*
X100826Y42285D01*
X100824Y42292D01*
X99324Y42892D01*
X99317Y42890D01*
X99315Y42892D01*
X99309Y42892D01*
X99306Y42895D01*
X98811Y42895D01*
X98316Y42994D01*
X98307Y42990D01*
X98303Y42990D01*
X98297Y42985D01*
X98262Y42968D01*
X98248Y42940D01*
X98246Y42942D01*
X98240Y42982D01*
X98219Y42978D01*
X98206Y42995D01*
X71906Y42995D01*
X71900Y42991D01*
X71896Y42994D01*
X71396Y42894D01*
X71369Y42864D01*
X71359Y42856D01*
X71360Y42853D01*
X71357Y42850D01*
X71359Y42848D01*
X71357Y42846D01*
X71357Y33246D01*
X71361Y33240D01*
X71358Y33236D01*
X71458Y32736D01*
X71502Y32697D01*
X71504Y32699D01*
X71506Y32697D01*
X98406Y32697D01*
X98412Y32701D01*
G37*
G36*
X99558Y7301D02*
X99558Y7301D01*
X99562Y7298D01*
X100062Y7398D01*
X100090Y7430D01*
X100092Y7431D01*
X100101Y7442D01*
X100099Y7444D01*
X100101Y7446D01*
X100101Y17546D01*
X100065Y17593D01*
X100058Y17588D01*
X100052Y17595D01*
X97552Y17595D01*
X97525Y17574D01*
X97511Y17574D01*
X97491Y17545D01*
X97490Y17578D01*
X97466Y17577D01*
X97452Y17595D01*
X71652Y17595D01*
X71605Y17559D01*
X71607Y17556D01*
X71605Y17554D01*
X71608Y17550D01*
X71603Y17546D01*
X71603Y7346D01*
X71639Y7299D01*
X71646Y7304D01*
X71652Y7297D01*
X99552Y7297D01*
X99558Y7301D01*
G37*
G36*
X86212Y58355D02*
X86212Y58355D01*
X86216Y58352D01*
X86716Y58452D01*
X86744Y58484D01*
X86746Y58485D01*
X86746Y58486D01*
X86755Y58496D01*
X86753Y58498D01*
X86755Y58500D01*
X86755Y68100D01*
X86751Y68106D01*
X86754Y68110D01*
X86654Y68610D01*
X86610Y68649D01*
X86608Y68647D01*
X86606Y68649D01*
X62306Y68649D01*
X62300Y68645D01*
X62296Y68648D01*
X61296Y68448D01*
X61292Y68443D01*
X61288Y68446D01*
X60788Y68246D01*
X60786Y68243D01*
X60784Y68244D01*
X60386Y68045D01*
X59888Y67846D01*
X59883Y67838D01*
X59876Y67839D01*
X59476Y67539D01*
X59475Y67534D01*
X59471Y67535D01*
X58771Y66835D01*
X58770Y66826D01*
X58764Y66825D01*
X58465Y66328D01*
X58167Y65930D01*
X58167Y65923D01*
X58162Y65922D01*
X57962Y65522D01*
X57963Y65519D01*
X57960Y65518D01*
X57760Y65018D01*
X57761Y65015D01*
X57758Y65013D01*
X57760Y65011D01*
X57758Y65010D01*
X57558Y64010D01*
X57561Y64003D01*
X57557Y64000D01*
X57557Y63000D01*
X57561Y62994D01*
X57558Y62990D01*
X57758Y61990D01*
X57763Y61986D01*
X57760Y61982D01*
X58160Y60982D01*
X58168Y60977D01*
X58167Y60970D01*
X58767Y60170D01*
X58772Y60169D01*
X58771Y60165D01*
X59471Y59465D01*
X59480Y59464D01*
X59481Y59458D01*
X59981Y59158D01*
X59984Y59158D01*
X59984Y59156D01*
X60384Y58956D01*
X60387Y58957D01*
X60388Y58954D01*
X60886Y58755D01*
X61284Y58556D01*
X61293Y58558D01*
X61296Y58552D01*
X62296Y58352D01*
X62303Y58355D01*
X62306Y58351D01*
X86206Y58351D01*
X86212Y58355D01*
G37*
G36*
X163319Y24813D02*
X163319Y24813D01*
X163814Y24813D01*
X163825Y24821D01*
X163832Y24816D01*
X164328Y25015D01*
X164824Y25114D01*
X164830Y25121D01*
X164836Y25118D01*
X165236Y25318D01*
X165237Y25321D01*
X165239Y25320D01*
X165739Y25620D01*
X165741Y25623D01*
X165744Y25623D01*
X166144Y25923D01*
X166146Y25932D01*
X166153Y25932D01*
X166449Y26327D01*
X166844Y26623D01*
X166847Y26636D01*
X166856Y26637D01*
X167156Y27137D01*
X167156Y27140D01*
X167158Y27140D01*
X167358Y27540D01*
X167357Y27543D01*
X167360Y27544D01*
X167559Y28042D01*
X167758Y28440D01*
X167758Y28442D01*
X167757Y28444D01*
X167756Y28449D01*
X167762Y28452D01*
X167962Y29452D01*
X167959Y29459D01*
X167963Y29462D01*
X167963Y48162D01*
X167959Y48168D01*
X167962Y48172D01*
X167662Y49672D01*
X167655Y49678D01*
X167658Y49684D01*
X167458Y50084D01*
X167455Y50085D01*
X167456Y50087D01*
X167156Y50587D01*
X167153Y50589D01*
X167153Y50592D01*
X166553Y51392D01*
X166544Y51394D01*
X166544Y51401D01*
X165344Y52301D01*
X165334Y52301D01*
X165332Y52308D01*
X164834Y52507D01*
X164436Y52706D01*
X164433Y52705D01*
X164432Y52708D01*
X163932Y52908D01*
X163919Y52904D01*
X163914Y52911D01*
X163419Y52911D01*
X162924Y53010D01*
X162917Y53007D01*
X162914Y53011D01*
X162414Y53011D01*
X162408Y53007D01*
X162404Y53010D01*
X161404Y52810D01*
X161400Y52805D01*
X161396Y52808D01*
X160396Y52408D01*
X160391Y52400D01*
X160384Y52401D01*
X159184Y51501D01*
X159182Y51492D01*
X159175Y51492D01*
X158275Y50292D01*
X158275Y50282D01*
X158268Y50280D01*
X157868Y49280D01*
X157870Y49274D01*
X157866Y49272D01*
X157666Y48272D01*
X157667Y48268D01*
X157669Y48265D01*
X157665Y48262D01*
X157665Y29462D01*
X157669Y29456D01*
X157666Y29452D01*
X157866Y28452D01*
X157873Y28446D01*
X157870Y28440D01*
X158069Y28042D01*
X158268Y27544D01*
X158271Y27542D01*
X158270Y27540D01*
X158470Y27140D01*
X158473Y27139D01*
X158472Y27137D01*
X158772Y26637D01*
X158784Y26632D01*
X158784Y26623D01*
X159179Y26327D01*
X159475Y25932D01*
X159484Y25930D01*
X159484Y25923D01*
X159884Y25623D01*
X159894Y25623D01*
X159896Y25616D01*
X160390Y25419D01*
X160784Y25123D01*
X160800Y25123D01*
X160804Y25114D01*
X161300Y25015D01*
X161796Y24816D01*
X161809Y24820D01*
X161814Y24813D01*
X162309Y24813D01*
X162804Y24714D01*
X162817Y24720D01*
X162824Y24714D01*
X163319Y24813D01*
G37*
G36*
X130945Y56440D02*
X130945Y56440D01*
X130950Y56436D01*
X131350Y56536D01*
X131372Y56563D01*
X131379Y56569D01*
X131378Y56571D01*
X131387Y56583D01*
X131386Y56583D01*
X131387Y56584D01*
X131387Y66284D01*
X131383Y66290D01*
X131386Y66294D01*
X131186Y67294D01*
X131181Y67298D01*
X131184Y67302D01*
X130784Y68302D01*
X130781Y68304D01*
X130782Y68306D01*
X130582Y68706D01*
X130576Y68709D01*
X130577Y68714D01*
X129977Y69514D01*
X129968Y69516D01*
X129968Y69523D01*
X129570Y69821D01*
X129173Y70219D01*
X129161Y70220D01*
X129160Y70228D01*
X128760Y70428D01*
X128757Y70427D01*
X128756Y70430D01*
X127256Y71030D01*
X127243Y71026D01*
X127238Y71033D01*
X126743Y71033D01*
X126248Y71132D01*
X126235Y71126D01*
X126228Y71132D01*
X125733Y71033D01*
X125238Y71033D01*
X125227Y71025D01*
X125220Y71030D01*
X124724Y70831D01*
X124228Y70732D01*
X124218Y70721D01*
X124208Y70723D01*
X123814Y70427D01*
X123320Y70230D01*
X123315Y70222D01*
X123308Y70223D01*
X122908Y69923D01*
X122906Y69914D01*
X122899Y69914D01*
X122603Y69519D01*
X122208Y69223D01*
X122205Y69210D01*
X122196Y69209D01*
X121896Y68709D01*
X121896Y68706D01*
X121894Y68706D01*
X121694Y68306D01*
X121695Y68303D01*
X121692Y68302D01*
X121493Y67804D01*
X121294Y67406D01*
X121296Y67397D01*
X121290Y67394D01*
X121090Y66394D01*
X121093Y66387D01*
X121089Y66384D01*
X121089Y56784D01*
X121101Y56768D01*
X121097Y56757D01*
X121297Y56457D01*
X121330Y56445D01*
X121338Y56435D01*
X130938Y56435D01*
X130945Y56440D01*
G37*
G36*
X126082Y8711D02*
X126082Y8711D01*
X126086Y8708D01*
X127086Y8908D01*
X127090Y8913D01*
X127094Y8910D01*
X127594Y9110D01*
X127596Y9113D01*
X127598Y9112D01*
X127998Y9312D01*
X128001Y9318D01*
X128006Y9317D01*
X128806Y9917D01*
X128807Y9922D01*
X128811Y9921D01*
X129211Y10321D01*
X129212Y10326D01*
X129215Y10326D01*
X130115Y11526D01*
X130115Y11536D01*
X130122Y11538D01*
X130322Y12038D01*
X130321Y12041D01*
X130323Y12042D01*
X130321Y12045D01*
X130324Y12046D01*
X130624Y13546D01*
X130621Y13553D01*
X130625Y13556D01*
X130625Y20956D01*
X130613Y20972D01*
X130617Y20983D01*
X130417Y21283D01*
X130384Y21295D01*
X130376Y21305D01*
X120676Y21305D01*
X120660Y21293D01*
X120649Y21297D01*
X120349Y21097D01*
X120337Y21064D01*
X120327Y21056D01*
X120327Y13356D01*
X120331Y13350D01*
X120328Y13346D01*
X120528Y12346D01*
X120533Y12342D01*
X120530Y12338D01*
X120730Y11838D01*
X120733Y11836D01*
X120732Y11834D01*
X120932Y11434D01*
X120935Y11433D01*
X120934Y11431D01*
X121234Y10931D01*
X121237Y10929D01*
X121237Y10926D01*
X121837Y10126D01*
X121846Y10124D01*
X121846Y10117D01*
X123046Y9217D01*
X123056Y9217D01*
X123058Y9210D01*
X123558Y9010D01*
X123564Y9012D01*
X123566Y9008D01*
X124062Y8909D01*
X124558Y8710D01*
X124571Y8714D01*
X124576Y8707D01*
X126076Y8707D01*
X126082Y8711D01*
G37*
G36*
X176574Y46507D02*
X176574Y46507D01*
X176581Y46518D01*
X176590Y46516D01*
X177190Y47016D01*
X177193Y47030D01*
X177193Y47033D01*
X177204Y47036D01*
X177404Y47536D01*
X177397Y47559D01*
X177405Y47570D01*
X177205Y48170D01*
X177194Y48177D01*
X177196Y48186D01*
X176696Y48786D01*
X176694Y48786D01*
X176694Y48787D01*
X174423Y51256D01*
X174796Y51722D01*
X177094Y54221D01*
X177095Y54231D01*
X177102Y54232D01*
X177402Y54832D01*
X177398Y54854D01*
X177406Y54864D01*
X177306Y55364D01*
X177291Y55377D01*
X177293Y55389D01*
X176693Y55989D01*
X176677Y55991D01*
X176674Y56001D01*
X176074Y56201D01*
X176051Y56193D01*
X176040Y56200D01*
X175540Y56000D01*
X175534Y55990D01*
X175526Y55992D01*
X174926Y55492D01*
X174925Y55486D01*
X174920Y55486D01*
X172759Y52932D01*
X172396Y53385D01*
X172394Y53385D01*
X172395Y53387D01*
X170596Y55386D01*
X170096Y55986D01*
X170077Y55990D01*
X170074Y56001D01*
X169474Y56201D01*
X169451Y56193D01*
X169440Y56200D01*
X168940Y56000D01*
X168934Y55990D01*
X168926Y55992D01*
X168326Y55492D01*
X168322Y55473D01*
X168311Y55470D01*
X168111Y54870D01*
X168120Y54844D01*
X168114Y54832D01*
X168414Y54232D01*
X168423Y54227D01*
X168422Y54220D01*
X171191Y51254D01*
X168922Y48788D01*
X168423Y48289D01*
X168422Y48277D01*
X168414Y48276D01*
X168114Y47676D01*
X168119Y47648D01*
X168118Y47648D01*
X168119Y47647D01*
X168112Y47636D01*
X168312Y47136D01*
X168324Y47128D01*
X168323Y47119D01*
X168923Y46519D01*
X168937Y46517D01*
X168940Y46508D01*
X169440Y46308D01*
X169463Y46315D01*
X169474Y46307D01*
X170074Y46507D01*
X170084Y46522D01*
X170095Y46522D01*
X172761Y49582D01*
X173122Y49221D01*
X174921Y47122D01*
X175420Y46522D01*
X175437Y46519D01*
X175440Y46508D01*
X175940Y46308D01*
X175963Y46315D01*
X175974Y46307D01*
X176574Y46507D01*
G37*
G36*
X21749Y59270D02*
X21749Y59270D01*
X21759Y59266D01*
X22259Y59566D01*
X22267Y59584D01*
X22278Y59586D01*
X22578Y60186D01*
X22574Y60206D01*
X22583Y60215D01*
X22483Y60915D01*
X22471Y60927D01*
X22474Y60937D01*
X18594Y66309D01*
X18760Y66559D01*
X22134Y66559D01*
X22155Y66575D01*
X22169Y66573D01*
X22569Y66973D01*
X22573Y67000D01*
X22583Y67008D01*
X22583Y67908D01*
X22580Y67913D01*
X22583Y67916D01*
X22483Y68516D01*
X22459Y68539D01*
X22456Y68552D01*
X21856Y68852D01*
X21840Y68849D01*
X21834Y68857D01*
X16434Y68857D01*
X16429Y68854D01*
X16426Y68857D01*
X15826Y68757D01*
X15816Y68746D01*
X15807Y68749D01*
X15207Y68349D01*
X15199Y68328D01*
X15187Y68324D01*
X14987Y67724D01*
X14994Y67704D01*
X14987Y67694D01*
X15187Y66994D01*
X15197Y66987D01*
X15194Y66979D01*
X19051Y61638D01*
X18728Y61557D01*
X16034Y61557D01*
X16030Y61554D01*
X16027Y61557D01*
X15327Y61457D01*
X15309Y61438D01*
X15296Y61439D01*
X14896Y60939D01*
X14895Y60920D01*
X14885Y60915D01*
X14785Y60215D01*
X14793Y60201D01*
X14787Y60192D01*
X14987Y59592D01*
X15007Y59579D01*
X15009Y59566D01*
X15509Y59266D01*
X15527Y59268D01*
X15534Y59259D01*
X21734Y59259D01*
X21749Y59270D01*
G37*
%LPC*%
G36*
X72511Y59949D02*
X72511Y59949D01*
X72025Y60046D01*
X71746Y60233D01*
X71557Y60705D01*
X71652Y61276D01*
X71930Y61555D01*
X72411Y61651D01*
X74906Y61651D01*
X74912Y61655D01*
X74916Y61652D01*
X75416Y61752D01*
X75455Y61796D01*
X75453Y61798D01*
X75455Y61800D01*
X75455Y62300D01*
X75443Y62316D01*
X75447Y62327D01*
X75247Y62627D01*
X75214Y62639D01*
X75206Y62649D01*
X73710Y62649D01*
X73124Y62747D01*
X72844Y62934D01*
X72655Y63312D01*
X72655Y63980D01*
X72930Y64255D01*
X73411Y64351D01*
X75406Y64351D01*
X75453Y64387D01*
X75449Y64392D01*
X75453Y64395D01*
X75452Y64397D01*
X75455Y64400D01*
X75455Y65400D01*
X75419Y65447D01*
X75412Y65442D01*
X75406Y65449D01*
X71836Y65449D01*
X71653Y65815D01*
X71557Y66395D01*
X71745Y66864D01*
X72118Y67051D01*
X76686Y67051D01*
X76961Y66776D01*
X77057Y66295D01*
X77057Y60700D01*
X77093Y60653D01*
X77099Y60657D01*
X77103Y60651D01*
X78603Y60551D01*
X78652Y60584D01*
X78650Y60588D01*
X78654Y60590D01*
X78750Y61070D01*
X79024Y61253D01*
X79610Y61351D01*
X82006Y61351D01*
X82053Y61387D01*
X82051Y61389D01*
X82053Y61391D01*
X82050Y61396D01*
X82055Y61400D01*
X82055Y66494D01*
X82148Y66864D01*
X82615Y67051D01*
X83206Y67051D01*
X83236Y67073D01*
X83248Y67075D01*
X83266Y67104D01*
X83272Y67064D01*
X83278Y67065D01*
X83279Y67059D01*
X83562Y66870D01*
X83657Y66395D01*
X83657Y60320D01*
X83382Y60046D01*
X82802Y59949D01*
X79218Y59949D01*
X78843Y60137D01*
X78650Y60522D01*
X78616Y60539D01*
X78609Y60549D01*
X77109Y60649D01*
X77060Y60616D01*
X77062Y60613D01*
X77058Y60612D01*
X76963Y60230D01*
X76688Y60047D01*
X76102Y59949D01*
X72511Y59949D01*
G37*
%LPD*%
G36*
X51267Y43010D02*
X51267Y43010D01*
X51272Y43006D01*
X51672Y43106D01*
X51691Y43129D01*
X51704Y43132D01*
X51904Y43532D01*
X51901Y43548D01*
X51909Y43554D01*
X51909Y45954D01*
X51905Y45960D01*
X51908Y45964D01*
X51708Y46964D01*
X51703Y46968D01*
X51706Y46972D01*
X51506Y47472D01*
X51498Y47477D01*
X51499Y47484D01*
X50899Y48284D01*
X50890Y48286D01*
X50890Y48293D01*
X50090Y48893D01*
X50080Y48893D01*
X50078Y48900D01*
X49578Y49100D01*
X49572Y49098D01*
X49570Y49102D01*
X48570Y49302D01*
X48563Y49299D01*
X48560Y49303D01*
X48060Y49303D01*
X48054Y49299D01*
X48050Y49302D01*
X47050Y49102D01*
X47044Y49095D01*
X47038Y49098D01*
X46638Y48898D01*
X46637Y48895D01*
X46635Y48896D01*
X46135Y48596D01*
X46133Y48593D01*
X46130Y48593D01*
X45730Y48293D01*
X45728Y48284D01*
X45721Y48284D01*
X45121Y47484D01*
X45121Y47477D01*
X45116Y47476D01*
X44916Y47076D01*
X44927Y47018D01*
X44939Y47020D01*
X44942Y47008D01*
X44967Y46998D01*
X44956Y46994D01*
X44955Y46994D01*
X44919Y46982D01*
X44921Y46977D01*
X44916Y46976D01*
X44716Y46576D01*
X44717Y46568D01*
X44713Y46564D01*
X44717Y46559D01*
X44711Y46554D01*
X44711Y46055D01*
X44611Y43956D01*
X44616Y43949D01*
X44612Y43944D01*
X44712Y43444D01*
X44727Y43431D01*
X44725Y43419D01*
X45025Y43119D01*
X45045Y43116D01*
X45050Y43106D01*
X45550Y43006D01*
X45557Y43009D01*
X45560Y43005D01*
X51260Y43005D01*
X51267Y43010D01*
G37*
%LPC*%
G36*
X78554Y8995D02*
X78554Y8995D01*
X78553Y8994D01*
X78552Y8995D01*
X78061Y8995D01*
X77572Y9191D01*
X77178Y9388D01*
X76782Y9685D01*
X76384Y9983D01*
X75994Y10374D01*
X75798Y10864D01*
X75795Y10866D01*
X75796Y10868D01*
X75597Y11266D01*
X75401Y11755D01*
X75401Y13237D01*
X75598Y13728D01*
X75795Y14222D01*
X76091Y14616D01*
X76387Y15011D01*
X76782Y15307D01*
X77176Y15603D01*
X77666Y15799D01*
X78162Y15898D01*
X78657Y15997D01*
X81040Y15997D01*
X81408Y15813D01*
X81503Y15341D01*
X81503Y9751D01*
X81407Y9270D01*
X81128Y8992D01*
X80549Y8895D01*
X78554Y8995D01*
G37*
%LPD*%
%LPC*%
G36*
X67008Y60049D02*
X67008Y60049D01*
X67007Y60048D01*
X67006Y60049D01*
X66518Y60049D01*
X66128Y60244D01*
X66125Y60243D01*
X66124Y60246D01*
X65630Y60443D01*
X65236Y60739D01*
X64841Y61035D01*
X64547Y61428D01*
X64249Y61923D01*
X64053Y62316D01*
X63855Y63305D01*
X63855Y63795D01*
X63954Y64290D01*
X64053Y64786D01*
X64249Y65276D01*
X64545Y65670D01*
X64841Y66065D01*
X65234Y66359D01*
X65729Y66657D01*
X66122Y66853D01*
X67111Y67051D01*
X69494Y67051D01*
X69862Y66867D01*
X69957Y66395D01*
X69957Y60805D01*
X69860Y60319D01*
X69677Y60045D01*
X69103Y59949D01*
X67008Y60049D01*
G37*
%LPD*%
G36*
X51166Y13009D02*
X51166Y13009D01*
X51170Y13006D01*
X51670Y13106D01*
X51688Y13126D01*
X51701Y13127D01*
X51901Y13427D01*
X51901Y13433D01*
X51903Y13435D01*
X51900Y13439D01*
X51900Y13447D01*
X51909Y13454D01*
X51909Y14054D01*
X51901Y14065D01*
X51906Y14072D01*
X51706Y14572D01*
X51690Y14582D01*
X51690Y14593D01*
X48922Y16669D01*
X49099Y17022D01*
X50591Y18216D01*
X51691Y19116D01*
X51695Y19133D01*
X51706Y19136D01*
X51906Y19636D01*
X51905Y19638D01*
X51907Y19640D01*
X51903Y19646D01*
X51902Y19649D01*
X51909Y19654D01*
X51909Y20254D01*
X51893Y20275D01*
X51895Y20289D01*
X51595Y20589D01*
X51576Y20591D01*
X51572Y20602D01*
X51172Y20702D01*
X51164Y20698D01*
X51160Y20703D01*
X45460Y20703D01*
X45454Y20699D01*
X45450Y20702D01*
X44950Y20602D01*
X44929Y20579D01*
X44916Y20576D01*
X44716Y20176D01*
X44718Y20164D01*
X44713Y20159D01*
X44714Y20157D01*
X44711Y20154D01*
X44711Y19654D01*
X44715Y19648D01*
X44712Y19644D01*
X44812Y19144D01*
X44835Y19123D01*
X44838Y19110D01*
X45238Y18910D01*
X45254Y18913D01*
X45260Y18905D01*
X48712Y18905D01*
X46830Y17493D01*
X46828Y17484D01*
X46821Y17484D01*
X46521Y17084D01*
X46521Y17063D01*
X46513Y17057D01*
X46513Y17056D01*
X46511Y17054D01*
X46511Y16554D01*
X46524Y16536D01*
X46521Y16524D01*
X46821Y16124D01*
X46830Y16122D01*
X46830Y16115D01*
X48628Y14717D01*
X48641Y14703D01*
X45260Y14703D01*
X45247Y14694D01*
X45238Y14698D01*
X44838Y14498D01*
X44827Y14476D01*
X44814Y14472D01*
X44614Y13972D01*
X44619Y13957D01*
X44615Y13954D01*
X44617Y13951D01*
X44611Y13946D01*
X44711Y13346D01*
X44727Y13331D01*
X44725Y13319D01*
X45025Y13019D01*
X45052Y13016D01*
X45060Y13005D01*
X51160Y13005D01*
X51166Y13009D01*
G37*
G36*
X17618Y8465D02*
X17618Y8465D01*
X17624Y8461D01*
X18324Y8661D01*
X18343Y8686D01*
X18356Y8690D01*
X18556Y9190D01*
X18552Y9203D01*
X18559Y9208D01*
X18559Y11996D01*
X18853Y12583D01*
X21151Y15980D01*
X21151Y15981D01*
X21551Y16581D01*
X21550Y16601D01*
X21559Y16608D01*
X21559Y17208D01*
X21545Y17226D01*
X21548Y17239D01*
X21148Y17739D01*
X21136Y17742D01*
X21134Y17751D01*
X20434Y18151D01*
X20411Y18148D01*
X20402Y18157D01*
X19802Y18057D01*
X19785Y18038D01*
X19772Y18039D01*
X19372Y17539D01*
X19371Y17535D01*
X19369Y17535D01*
X17478Y14649D01*
X17230Y14567D01*
X15351Y17435D01*
X14951Y18035D01*
X14926Y18044D01*
X14920Y18056D01*
X14420Y18156D01*
X14401Y18147D01*
X14391Y18153D01*
X13691Y17853D01*
X13684Y17842D01*
X13675Y17843D01*
X13175Y17343D01*
X13172Y17323D01*
X13162Y17318D01*
X13062Y16818D01*
X13072Y16796D01*
X13067Y16784D01*
X13467Y16084D01*
X13470Y16083D01*
X13469Y16081D01*
X16063Y12190D01*
X16161Y11505D01*
X16161Y9408D01*
X16164Y9403D01*
X16161Y9400D01*
X16261Y8800D01*
X16286Y8777D01*
X16288Y8764D01*
X16888Y8464D01*
X16904Y8467D01*
X16910Y8459D01*
X17610Y8459D01*
X17618Y8465D01*
G37*
G36*
X48966Y35909D02*
X48966Y35909D01*
X48970Y35906D01*
X49970Y36106D01*
X49974Y36111D01*
X49978Y36108D01*
X50478Y36308D01*
X50480Y36311D01*
X50482Y36310D01*
X51282Y36710D01*
X51284Y36714D01*
X51287Y36713D01*
X51587Y36913D01*
X51594Y36933D01*
X51606Y36936D01*
X51805Y37434D01*
X52004Y37832D01*
X52002Y37841D01*
X52008Y37844D01*
X52108Y38344D01*
X52108Y38345D01*
X52109Y38346D01*
X52209Y38946D01*
X52203Y38957D01*
X52208Y38964D01*
X52108Y39464D01*
X52101Y39470D01*
X52104Y39476D01*
X51904Y39876D01*
X51901Y39877D01*
X51902Y39879D01*
X51602Y40379D01*
X51590Y40384D01*
X51590Y40393D01*
X50790Y40993D01*
X50780Y40993D01*
X50778Y41000D01*
X50278Y41200D01*
X50272Y41198D01*
X50270Y41202D01*
X49270Y41402D01*
X49263Y41399D01*
X49260Y41403D01*
X47660Y41403D01*
X47655Y41400D01*
X47652Y41403D01*
X47052Y41303D01*
X47050Y41300D01*
X47048Y41302D01*
X46648Y41202D01*
X46645Y41198D01*
X46642Y41200D01*
X46142Y41000D01*
X46140Y40997D01*
X46138Y40998D01*
X45738Y40798D01*
X45733Y40788D01*
X45725Y40789D01*
X45025Y40089D01*
X45024Y40077D01*
X45016Y40076D01*
X44816Y39676D01*
X44818Y39667D01*
X44812Y39664D01*
X44712Y39164D01*
X44712Y39163D01*
X44711Y39162D01*
X44611Y38562D01*
X44617Y38551D01*
X44612Y38544D01*
X44712Y38044D01*
X44719Y38038D01*
X44716Y38032D01*
X44915Y37634D01*
X45114Y37136D01*
X45122Y37131D01*
X45121Y37124D01*
X45421Y36724D01*
X45436Y36720D01*
X45438Y36710D01*
X45837Y36511D01*
X46335Y36212D01*
X46347Y36213D01*
X46350Y36206D01*
X47850Y35906D01*
X47857Y35909D01*
X47860Y35905D01*
X48960Y35905D01*
X48966Y35909D01*
G37*
%LPC*%
G36*
X125743Y60333D02*
X125743Y60333D01*
X124748Y60532D01*
X124252Y60631D01*
X123762Y60827D01*
X123368Y61123D01*
X122973Y61419D01*
X122681Y61808D01*
X122485Y62298D01*
X122388Y62784D01*
X122486Y63274D01*
X122585Y63770D01*
X122783Y64264D01*
X122979Y64655D01*
X123267Y64943D01*
X123658Y65139D01*
X124156Y65338D01*
X124652Y65537D01*
X125143Y65635D01*
X126733Y65635D01*
X128222Y65337D01*
X128612Y65142D01*
X129003Y64849D01*
X129297Y64456D01*
X129592Y63965D01*
X129690Y63574D01*
X129788Y62985D01*
X129690Y62494D01*
X129592Y62005D01*
X129299Y61614D01*
X129003Y61219D01*
X128612Y60926D01*
X128216Y60728D01*
X127822Y60531D01*
X126833Y60333D01*
X125743Y60333D01*
G37*
%LPD*%
%LPC*%
G36*
X88734Y34391D02*
X88734Y34391D01*
X88451Y34768D01*
X88355Y35152D01*
X88355Y40242D01*
X88454Y40836D01*
X88548Y41212D01*
X88918Y41397D01*
X89486Y41397D01*
X89960Y40922D01*
X90057Y40342D01*
X90057Y37346D01*
X90065Y37335D01*
X90063Y37322D01*
X90076Y37320D01*
X90093Y37299D01*
X90114Y37315D01*
X90141Y37311D01*
X90241Y37411D01*
X90241Y37415D01*
X90244Y37414D01*
X90744Y38014D01*
X90744Y38017D01*
X90746Y38017D01*
X92744Y40814D01*
X93135Y41205D01*
X93518Y41397D01*
X94090Y41397D01*
X94462Y41117D01*
X94557Y40740D01*
X94557Y35052D01*
X94462Y34671D01*
X94186Y34395D01*
X93512Y34395D01*
X93140Y34488D01*
X92955Y34858D01*
X92955Y38346D01*
X92945Y38359D01*
X92945Y38376D01*
X92933Y38376D01*
X92919Y38393D01*
X92896Y38376D01*
X92867Y38376D01*
X90169Y34778D01*
X89782Y34392D01*
X89207Y34296D01*
X88734Y34391D01*
G37*
%LPD*%
G36*
X51167Y50710D02*
X51167Y50710D01*
X51172Y50706D01*
X51572Y50806D01*
X51587Y50824D01*
X51599Y50824D01*
X51899Y51224D01*
X51899Y51231D01*
X51902Y51233D01*
X51899Y51236D01*
X51899Y51246D01*
X51909Y51254D01*
X51909Y51854D01*
X51901Y51865D01*
X51906Y51872D01*
X51706Y52372D01*
X51684Y52385D01*
X51682Y52398D01*
X51282Y52598D01*
X51266Y52595D01*
X51260Y52603D01*
X49275Y52603D01*
X49009Y52780D01*
X49009Y54839D01*
X49186Y55105D01*
X51260Y55105D01*
X51266Y55109D01*
X51270Y55106D01*
X51770Y55206D01*
X51801Y55241D01*
X51808Y55244D01*
X51908Y55744D01*
X51905Y55751D01*
X51909Y55754D01*
X51909Y56254D01*
X51901Y56265D01*
X51906Y56272D01*
X51706Y56772D01*
X51675Y56791D01*
X51670Y56802D01*
X51170Y56902D01*
X51163Y56899D01*
X51160Y56903D01*
X45560Y56903D01*
X45554Y56899D01*
X45550Y56902D01*
X45050Y56802D01*
X45037Y56787D01*
X45025Y56789D01*
X44725Y56489D01*
X44722Y56467D01*
X44711Y56461D01*
X44611Y55761D01*
X44620Y55745D01*
X44614Y55736D01*
X44814Y55236D01*
X44843Y55219D01*
X44848Y55206D01*
X45248Y55106D01*
X45256Y55110D01*
X45260Y55105D01*
X47334Y55105D01*
X47511Y54839D01*
X47511Y52774D01*
X47340Y52603D01*
X45260Y52603D01*
X45247Y52594D01*
X45238Y52598D01*
X44838Y52398D01*
X44824Y52370D01*
X44812Y52364D01*
X44712Y51864D01*
X44715Y51857D01*
X44711Y51854D01*
X44711Y51154D01*
X44727Y51133D01*
X44725Y51119D01*
X45025Y50819D01*
X45044Y50817D01*
X45048Y50806D01*
X45448Y50706D01*
X45456Y50710D01*
X45460Y50705D01*
X51160Y50705D01*
X51167Y50710D01*
G37*
G36*
X51476Y65807D02*
X51476Y65807D01*
X51485Y65821D01*
X51495Y65819D01*
X51995Y66319D01*
X51996Y66330D01*
X51997Y66331D01*
X52004Y66332D01*
X52204Y66732D01*
X52198Y66764D01*
X52204Y66776D01*
X52004Y67176D01*
X51994Y67181D01*
X51995Y67189D01*
X51595Y67589D01*
X51593Y67589D01*
X51593Y67591D01*
X49732Y69256D01*
X49993Y69518D01*
X51591Y70916D01*
X51990Y71215D01*
X51994Y71230D01*
X52004Y71232D01*
X52204Y71632D01*
X52201Y71649D01*
X52202Y71651D01*
X52200Y71654D01*
X52198Y71664D01*
X52204Y71676D01*
X52004Y72076D01*
X51997Y72079D01*
X51998Y72085D01*
X51598Y72585D01*
X51577Y72590D01*
X51572Y72602D01*
X51172Y72702D01*
X51164Y72698D01*
X51148Y72698D01*
X51146Y72697D01*
X51142Y72700D01*
X50642Y72500D01*
X50635Y72489D01*
X50627Y72490D01*
X48459Y70520D01*
X46192Y72491D01*
X46180Y72492D01*
X46178Y72500D01*
X45678Y72700D01*
X45673Y72698D01*
X45652Y72698D01*
X45648Y72702D01*
X45248Y72602D01*
X45236Y72587D01*
X45225Y72589D01*
X44825Y72189D01*
X44823Y72176D01*
X44821Y72174D01*
X44814Y72172D01*
X44614Y71672D01*
X44623Y71639D01*
X44619Y71627D01*
X44819Y71327D01*
X44828Y71324D01*
X44828Y71317D01*
X47182Y69257D01*
X46830Y68993D01*
X46830Y68991D01*
X46828Y68991D01*
X45328Y67691D01*
X45327Y67689D01*
X45325Y67689D01*
X44925Y67289D01*
X44924Y67284D01*
X44921Y67284D01*
X44621Y66884D01*
X44621Y66842D01*
X44616Y66832D01*
X44816Y66432D01*
X44823Y66429D01*
X44822Y66423D01*
X45222Y65923D01*
X45236Y65920D01*
X45238Y65910D01*
X45638Y65710D01*
X45670Y65716D01*
X45682Y65710D01*
X46082Y65910D01*
X46087Y65920D01*
X46095Y65919D01*
X46493Y66318D01*
X48363Y67990D01*
X48729Y67716D01*
X50627Y66017D01*
X50634Y66017D01*
X50635Y66012D01*
X51135Y65712D01*
X51164Y65715D01*
X51176Y65707D01*
X51476Y65807D01*
G37*
%LPC*%
G36*
X83380Y8991D02*
X83380Y8991D01*
X83101Y9362D01*
X83101Y9746D01*
X83065Y9793D01*
X83058Y9788D01*
X83052Y9795D01*
X83031Y9795D01*
X83055Y9797D01*
X83100Y9836D01*
X83095Y9841D01*
X83099Y9844D01*
X83099Y9845D01*
X83101Y9846D01*
X83101Y15434D01*
X83289Y15809D01*
X83664Y15997D01*
X84134Y15997D01*
X84703Y15523D01*
X84703Y11946D01*
X84706Y11942D01*
X84704Y11937D01*
X84714Y11932D01*
X84739Y11899D01*
X84755Y11911D01*
X84774Y11902D01*
X84974Y12002D01*
X84982Y12018D01*
X84993Y12019D01*
X85392Y12617D01*
X87783Y15805D01*
X88261Y15997D01*
X88736Y15997D01*
X89108Y15717D01*
X89203Y15340D01*
X89203Y9266D01*
X88932Y8995D01*
X88257Y8995D01*
X87792Y9088D01*
X87701Y9452D01*
X87701Y12446D01*
X87697Y12452D01*
X87700Y12456D01*
X87600Y12956D01*
X87591Y12964D01*
X87591Y12976D01*
X87577Y12976D01*
X87556Y12995D01*
X87539Y12976D01*
X87513Y12976D01*
X84815Y9378D01*
X84428Y8991D01*
X83951Y8896D01*
X83380Y8991D01*
G37*
%LPD*%
%LPC*%
G36*
X92757Y8995D02*
X92757Y8995D01*
X92268Y9093D01*
X91878Y9288D01*
X91484Y9583D01*
X91194Y9874D01*
X91001Y10355D01*
X91001Y12341D01*
X91099Y12830D01*
X91285Y13202D01*
X91856Y13297D01*
X93440Y13297D01*
X93815Y13109D01*
X94003Y12734D01*
X94003Y12266D01*
X93730Y11993D01*
X92648Y11895D01*
X92604Y11855D01*
X92608Y11850D01*
X92603Y11846D01*
X92603Y10846D01*
X92632Y10808D01*
X92634Y10800D01*
X93134Y10600D01*
X93147Y10604D01*
X93152Y10597D01*
X94152Y10597D01*
X94165Y10606D01*
X94174Y10602D01*
X94574Y10802D01*
X94579Y10812D01*
X94587Y10811D01*
X94987Y11211D01*
X94988Y11216D01*
X94991Y11216D01*
X95291Y11616D01*
X95291Y11626D01*
X95298Y11628D01*
X95498Y12128D01*
X95496Y12134D01*
X95500Y12136D01*
X95600Y12636D01*
X95594Y12649D01*
X95600Y12656D01*
X95500Y13156D01*
X95495Y13160D01*
X95498Y13164D01*
X95298Y13664D01*
X95286Y13672D01*
X95287Y13681D01*
X94987Y13981D01*
X94982Y13982D01*
X94982Y13985D01*
X94582Y14285D01*
X94575Y14285D01*
X94574Y14290D01*
X94174Y14490D01*
X94165Y14488D01*
X94162Y14494D01*
X93662Y14594D01*
X93650Y14589D01*
X93644Y14595D01*
X93044Y14495D01*
X93038Y14488D01*
X93032Y14491D01*
X92148Y14098D01*
X91777Y14190D01*
X91394Y14574D01*
X91206Y15044D01*
X91391Y15414D01*
X91776Y15703D01*
X92270Y15900D01*
X92767Y16099D01*
X93158Y16197D01*
X94147Y16197D01*
X94638Y16099D01*
X95128Y15903D01*
X95522Y15607D01*
X95922Y15307D01*
X95982Y15307D01*
X95982Y15318D01*
X95993Y15318D01*
X96013Y15348D01*
X96014Y15314D01*
X96018Y15314D01*
X96017Y15311D01*
X96315Y15014D01*
X96611Y14618D01*
X96909Y14123D01*
X97105Y13730D01*
X97203Y13241D01*
X97203Y12151D01*
X97105Y11660D01*
X96907Y11166D01*
X96710Y10772D01*
X96413Y10376D01*
X96115Y9978D01*
X95723Y9587D01*
X95332Y9391D01*
X94834Y9192D01*
X94832Y9189D01*
X94830Y9190D01*
X94440Y8995D01*
X92757Y8995D01*
G37*
%LPD*%
G36*
X47076Y22017D02*
X47076Y22017D01*
X47087Y22013D01*
X47387Y22213D01*
X47393Y22230D01*
X47403Y22238D01*
X47401Y22241D01*
X47408Y22244D01*
X47508Y22744D01*
X47505Y22751D01*
X47509Y22754D01*
X47509Y23454D01*
X47488Y23482D01*
X47487Y23495D01*
X47187Y23695D01*
X47186Y23695D01*
X47185Y23696D01*
X46698Y23989D01*
X46507Y24370D01*
X46410Y24854D01*
X46505Y25330D01*
X46876Y25701D01*
X47332Y25609D01*
X47611Y25238D01*
X47611Y24754D01*
X47616Y24747D01*
X47612Y24742D01*
X47712Y24342D01*
X47727Y24330D01*
X47725Y24319D01*
X48025Y24019D01*
X48047Y24016D01*
X48053Y24005D01*
X48753Y23905D01*
X48769Y23914D01*
X48778Y23908D01*
X49278Y24108D01*
X49294Y24134D01*
X49307Y24138D01*
X49407Y24438D01*
X49405Y24445D01*
X49409Y24447D01*
X49508Y25139D01*
X49690Y25505D01*
X50035Y25505D01*
X50311Y25138D01*
X50311Y24663D01*
X50119Y24185D01*
X49730Y23893D01*
X49729Y23888D01*
X49725Y23889D01*
X49425Y23589D01*
X49422Y23562D01*
X49411Y23554D01*
X49411Y23054D01*
X49422Y23039D01*
X49418Y23029D01*
X49718Y22529D01*
X49738Y22520D01*
X49742Y22508D01*
X50242Y22308D01*
X50262Y22314D01*
X50272Y22306D01*
X50672Y22406D01*
X50677Y22412D01*
X50682Y22410D01*
X51082Y22610D01*
X51087Y22620D01*
X51095Y22619D01*
X51495Y23019D01*
X51496Y23024D01*
X51499Y23024D01*
X51799Y23424D01*
X51799Y23434D01*
X51806Y23436D01*
X52006Y23936D01*
X52004Y23942D01*
X52008Y23944D01*
X52108Y24444D01*
X52105Y24451D01*
X52109Y24454D01*
X52109Y25954D01*
X52093Y25975D01*
X52095Y25989D01*
X50995Y27089D01*
X50981Y27091D01*
X50978Y27100D01*
X50478Y27300D01*
X50473Y27298D01*
X50472Y27302D01*
X50072Y27402D01*
X50059Y27396D01*
X50052Y27403D01*
X49452Y27303D01*
X49450Y27300D01*
X49448Y27302D01*
X49048Y27202D01*
X49033Y27184D01*
X49021Y27184D01*
X48735Y26803D01*
X48480Y26803D01*
X48095Y27189D01*
X48083Y27190D01*
X48082Y27198D01*
X47682Y27398D01*
X47673Y27396D01*
X47670Y27402D01*
X47170Y27502D01*
X47163Y27499D01*
X47160Y27503D01*
X46560Y27503D01*
X46547Y27494D01*
X46538Y27498D01*
X45738Y27098D01*
X45733Y27088D01*
X45725Y27089D01*
X45325Y26689D01*
X45324Y26684D01*
X45321Y26684D01*
X45021Y26284D01*
X45021Y26277D01*
X45016Y26276D01*
X44816Y25876D01*
X44818Y25867D01*
X44812Y25864D01*
X44612Y24864D01*
X44617Y24852D01*
X44611Y24846D01*
X44711Y24246D01*
X44712Y24245D01*
X44712Y24244D01*
X44812Y23744D01*
X44817Y23740D01*
X44814Y23736D01*
X45014Y23236D01*
X45017Y23234D01*
X45016Y23232D01*
X45216Y22832D01*
X45230Y22825D01*
X45230Y22815D01*
X46030Y22215D01*
X46040Y22215D01*
X46042Y22208D01*
X46542Y22008D01*
X46555Y22012D01*
X46560Y22005D01*
X47060Y22005D01*
X47076Y22017D01*
G37*
G36*
X47076Y29017D02*
X47076Y29017D01*
X47087Y29013D01*
X47387Y29213D01*
X47393Y29230D01*
X47403Y29238D01*
X47401Y29241D01*
X47408Y29244D01*
X47508Y29744D01*
X47505Y29751D01*
X47509Y29754D01*
X47509Y30354D01*
X47493Y30375D01*
X47495Y30389D01*
X47195Y30689D01*
X47181Y30691D01*
X47178Y30700D01*
X46698Y30892D01*
X46507Y31368D01*
X46410Y31854D01*
X46505Y32326D01*
X46876Y32605D01*
X47335Y32605D01*
X47611Y32238D01*
X47611Y31654D01*
X47616Y31647D01*
X47612Y31642D01*
X47712Y31242D01*
X47727Y31230D01*
X47725Y31219D01*
X48025Y30919D01*
X48052Y30916D01*
X48060Y30905D01*
X48760Y30905D01*
X48766Y30909D01*
X48770Y30906D01*
X49270Y31006D01*
X49298Y31038D01*
X49308Y31042D01*
X49408Y31442D01*
X49407Y31445D01*
X49409Y31446D01*
X49507Y32039D01*
X49694Y32412D01*
X50040Y32498D01*
X50311Y32138D01*
X50311Y31566D01*
X50121Y31186D01*
X49730Y30893D01*
X49728Y30884D01*
X49721Y30884D01*
X49421Y30484D01*
X49421Y30462D01*
X49411Y30454D01*
X49411Y30054D01*
X49422Y30039D01*
X49418Y30029D01*
X49718Y29529D01*
X49738Y29520D01*
X49742Y29508D01*
X50242Y29308D01*
X50255Y29312D01*
X50260Y29305D01*
X50660Y29305D01*
X50678Y29318D01*
X50690Y29315D01*
X51090Y29615D01*
X51091Y29620D01*
X51095Y29619D01*
X51795Y30319D01*
X51797Y30333D01*
X51806Y30336D01*
X52006Y30836D01*
X52004Y30842D01*
X52008Y30844D01*
X52108Y31344D01*
X52105Y31351D01*
X52109Y31354D01*
X52109Y32954D01*
X52093Y32975D01*
X52095Y32989D01*
X51395Y33689D01*
X51390Y33690D01*
X51390Y33693D01*
X50990Y33993D01*
X50980Y33993D01*
X50978Y34000D01*
X50478Y34200D01*
X50473Y34198D01*
X50472Y34202D01*
X50072Y34302D01*
X50064Y34298D01*
X50060Y34303D01*
X49460Y34303D01*
X49447Y34294D01*
X49438Y34298D01*
X49038Y34098D01*
X49033Y34088D01*
X49025Y34089D01*
X48740Y33803D01*
X48476Y33803D01*
X47690Y34393D01*
X47674Y34393D01*
X47670Y34402D01*
X47170Y34502D01*
X47158Y34497D01*
X47152Y34503D01*
X46552Y34403D01*
X46550Y34400D01*
X46548Y34402D01*
X46148Y34302D01*
X46139Y34291D01*
X46130Y34293D01*
X45330Y33693D01*
X45328Y33684D01*
X45321Y33684D01*
X45021Y33284D01*
X45021Y33274D01*
X45014Y33272D01*
X44814Y32772D01*
X44816Y32766D01*
X44812Y32764D01*
X44612Y31764D01*
X44618Y31751D01*
X44612Y31744D01*
X44812Y30744D01*
X44817Y30740D01*
X44814Y30736D01*
X45014Y30236D01*
X45017Y30234D01*
X45016Y30232D01*
X45216Y29832D01*
X45230Y29825D01*
X45230Y29815D01*
X46030Y29215D01*
X46040Y29215D01*
X46042Y29208D01*
X46542Y29008D01*
X46555Y29012D01*
X46560Y29005D01*
X47060Y29005D01*
X47076Y29017D01*
G37*
G36*
X46672Y6206D02*
X46672Y6206D01*
X46684Y6221D01*
X46695Y6219D01*
X47095Y6619D01*
X47096Y6631D01*
X47104Y6632D01*
X47304Y7032D01*
X47298Y7064D01*
X47304Y7076D01*
X47104Y7476D01*
X47097Y7479D01*
X47098Y7485D01*
X46699Y7984D01*
X46409Y8370D01*
X46409Y8845D01*
X46600Y9322D01*
X46870Y9502D01*
X47327Y9410D01*
X47513Y9038D01*
X47612Y8544D01*
X47617Y8540D01*
X47614Y8536D01*
X47813Y8040D01*
X47912Y7544D01*
X47923Y7534D01*
X47921Y7524D01*
X48521Y6724D01*
X48530Y6722D01*
X48530Y6715D01*
X48930Y6415D01*
X48940Y6415D01*
X48942Y6408D01*
X49442Y6208D01*
X49455Y6212D01*
X49460Y6205D01*
X49960Y6205D01*
X49966Y6209D01*
X49970Y6206D01*
X50970Y6406D01*
X50980Y6417D01*
X50990Y6415D01*
X51390Y6715D01*
X51392Y6724D01*
X51399Y6724D01*
X51699Y7124D01*
X51699Y7131D01*
X51704Y7132D01*
X51904Y7532D01*
X51903Y7535D01*
X51906Y7536D01*
X52106Y8036D01*
X52102Y8049D01*
X52109Y8054D01*
X52109Y9154D01*
X52105Y9160D01*
X52108Y9164D01*
X52008Y9664D01*
X52003Y9668D01*
X52006Y9672D01*
X51806Y10172D01*
X51794Y10180D01*
X51795Y10189D01*
X51095Y10889D01*
X51068Y10893D01*
X51060Y10903D01*
X50760Y10903D01*
X50745Y10892D01*
X50735Y10896D01*
X50235Y10596D01*
X50230Y10584D01*
X50221Y10584D01*
X49921Y10184D01*
X49921Y10161D01*
X49915Y10157D01*
X49919Y10151D01*
X49912Y10142D01*
X50012Y9742D01*
X50021Y9735D01*
X50018Y9729D01*
X50314Y9235D01*
X50410Y8852D01*
X50314Y8278D01*
X50044Y8007D01*
X49596Y8097D01*
X49407Y8570D01*
X49108Y9566D01*
X49008Y10064D01*
X49001Y10070D01*
X49004Y10076D01*
X48804Y10476D01*
X48798Y10479D01*
X48799Y10484D01*
X48499Y10884D01*
X48490Y10886D01*
X48490Y10893D01*
X48090Y11193D01*
X48074Y11193D01*
X48070Y11202D01*
X47570Y11302D01*
X47569Y11302D01*
X47568Y11303D01*
X46968Y11403D01*
X46957Y11397D01*
X46950Y11402D01*
X46450Y11302D01*
X46449Y11301D01*
X46448Y11302D01*
X46048Y11202D01*
X46041Y11194D01*
X46035Y11196D01*
X45535Y10896D01*
X45530Y10884D01*
X45521Y10884D01*
X44921Y10084D01*
X44921Y10068D01*
X44912Y10064D01*
X44612Y8564D01*
X44618Y8551D01*
X44612Y8544D01*
X44812Y7544D01*
X44823Y7534D01*
X44821Y7524D01*
X45119Y7126D01*
X45418Y6629D01*
X45430Y6624D01*
X45430Y6615D01*
X45830Y6315D01*
X45837Y6315D01*
X45838Y6310D01*
X46238Y6110D01*
X46262Y6114D01*
X46272Y6106D01*
X46672Y6206D01*
G37*
%LPC*%
G36*
X160234Y33407D02*
X160234Y33407D01*
X160228Y33404D01*
X160226Y33410D01*
X159836Y33507D01*
X159455Y33793D01*
X159263Y34271D01*
X159263Y37758D01*
X159362Y38352D01*
X159454Y38720D01*
X159919Y38813D01*
X160402Y38813D01*
X160775Y38626D01*
X160965Y38153D01*
X160965Y36362D01*
X160973Y36351D01*
X160971Y36338D01*
X160984Y36336D01*
X161001Y36315D01*
X161022Y36331D01*
X161049Y36327D01*
X161249Y36527D01*
X161250Y36539D01*
X161258Y36540D01*
X161456Y36936D01*
X161753Y37332D01*
X161753Y37336D01*
X161756Y37337D01*
X162051Y37828D01*
X162442Y38121D01*
X162933Y38416D01*
X163326Y38514D01*
X163363Y38561D01*
X163362Y38561D01*
X163363Y38562D01*
X163363Y38589D01*
X163365Y38559D01*
X163403Y38514D01*
X163409Y38519D01*
X163414Y38513D01*
X164408Y38513D01*
X164795Y38416D01*
X165286Y38121D01*
X165682Y37825D01*
X165975Y37532D01*
X166268Y37043D01*
X166366Y36652D01*
X166465Y36058D01*
X166465Y35567D01*
X166367Y35080D01*
X166075Y34593D01*
X165385Y33903D01*
X164994Y33707D01*
X164500Y33509D01*
X164009Y33411D01*
X163529Y33411D01*
X163254Y33595D01*
X163065Y34067D01*
X163161Y34647D01*
X163344Y35013D01*
X163814Y35013D01*
X163820Y35017D01*
X163824Y35014D01*
X164324Y35114D01*
X164337Y35129D01*
X164349Y35127D01*
X164749Y35527D01*
X164752Y35547D01*
X164762Y35552D01*
X164862Y36052D01*
X164854Y36070D01*
X164860Y36080D01*
X164660Y36580D01*
X164644Y36590D01*
X164644Y36601D01*
X164244Y36901D01*
X164222Y36901D01*
X164214Y36911D01*
X163814Y36911D01*
X163803Y36903D01*
X163796Y36908D01*
X163296Y36708D01*
X163288Y36696D01*
X163279Y36697D01*
X162879Y36297D01*
X162878Y36292D01*
X162875Y36292D01*
X162575Y35892D01*
X162575Y35888D01*
X162572Y35888D01*
X161773Y34590D01*
X161475Y34192D01*
X161183Y33803D01*
X160696Y33608D01*
X160694Y33605D01*
X160692Y33606D01*
X160292Y33406D01*
X160278Y33378D01*
X160266Y33372D01*
X160262Y33356D01*
X160234Y33407D01*
G37*
%LPD*%
G36*
X49273Y58214D02*
X49273Y58214D01*
X49282Y58210D01*
X49680Y58409D01*
X50178Y58608D01*
X50183Y58616D01*
X50190Y58615D01*
X50990Y59215D01*
X50992Y59224D01*
X50999Y59224D01*
X51599Y60024D01*
X51599Y60034D01*
X51606Y60036D01*
X52006Y61036D01*
X52003Y61045D01*
X52007Y61048D01*
X52005Y61051D01*
X52009Y61054D01*
X52009Y61548D01*
X52108Y61942D01*
X52102Y61956D01*
X52108Y61964D01*
X52009Y62462D01*
X51909Y63062D01*
X51901Y63069D01*
X51904Y63076D01*
X51704Y63476D01*
X51701Y63477D01*
X51702Y63479D01*
X51402Y63979D01*
X51394Y63983D01*
X51395Y63989D01*
X51095Y64289D01*
X51076Y64291D01*
X51072Y64302D01*
X50672Y64402D01*
X50647Y64391D01*
X50635Y64396D01*
X50135Y64096D01*
X50131Y64088D01*
X50125Y64089D01*
X49725Y63689D01*
X49722Y63662D01*
X49711Y63654D01*
X49711Y63254D01*
X49724Y63236D01*
X49721Y63224D01*
X50017Y62830D01*
X50211Y62345D01*
X50211Y61363D01*
X50017Y60878D01*
X49725Y60489D01*
X49336Y60197D01*
X48851Y60003D01*
X47869Y60003D01*
X47384Y60197D01*
X46997Y60488D01*
X46703Y60977D01*
X46509Y61366D01*
X46509Y62345D01*
X46704Y62832D01*
X47002Y63329D01*
X47000Y63347D01*
X47009Y63354D01*
X47009Y63654D01*
X46993Y63675D01*
X46995Y63689D01*
X46595Y64089D01*
X46581Y64091D01*
X46578Y64100D01*
X46078Y64300D01*
X46059Y64294D01*
X46050Y64302D01*
X45550Y64202D01*
X45534Y64184D01*
X45521Y64184D01*
X45221Y63784D01*
X45221Y63781D01*
X45219Y63781D01*
X45019Y63481D01*
X45020Y63472D01*
X45013Y63470D01*
X44813Y62870D01*
X44815Y62865D01*
X44812Y62864D01*
X44612Y61864D01*
X44618Y61851D01*
X44612Y61844D01*
X44812Y60844D01*
X44819Y60838D01*
X44816Y60832D01*
X45015Y60434D01*
X45214Y59936D01*
X45222Y59931D01*
X45221Y59924D01*
X45821Y59124D01*
X45830Y59122D01*
X45830Y59115D01*
X46230Y58815D01*
X46234Y58815D01*
X46235Y58812D01*
X46735Y58512D01*
X46745Y58513D01*
X46748Y58506D01*
X47145Y58407D01*
X47642Y58208D01*
X47655Y58212D01*
X47660Y58205D01*
X49260Y58205D01*
X49273Y58214D01*
G37*
%LPC*%
G36*
X162323Y40511D02*
X162323Y40511D01*
X161832Y40708D01*
X161826Y40706D01*
X161824Y40710D01*
X161335Y40808D01*
X160944Y41101D01*
X160546Y41399D01*
X160151Y41794D01*
X159856Y42188D01*
X159659Y42582D01*
X159461Y43076D01*
X159362Y43572D01*
X159264Y44062D01*
X159362Y44552D01*
X159462Y45049D01*
X159659Y45640D01*
X159854Y45933D01*
X160146Y46323D01*
X160512Y46506D01*
X160986Y46222D01*
X161465Y45838D01*
X161465Y45576D01*
X161172Y45087D01*
X161173Y45079D01*
X161167Y45078D01*
X161067Y44778D01*
X161069Y44773D01*
X161066Y44772D01*
X160966Y44272D01*
X160969Y44265D01*
X160965Y44262D01*
X160965Y43762D01*
X160973Y43751D01*
X160968Y43744D01*
X161368Y42744D01*
X161384Y42734D01*
X161384Y42723D01*
X161784Y42423D01*
X161794Y42423D01*
X161796Y42416D01*
X162296Y42216D01*
X162302Y42218D01*
X162304Y42214D01*
X162804Y42114D01*
X162811Y42117D01*
X162814Y42113D01*
X163314Y42113D01*
X163325Y42121D01*
X163332Y42116D01*
X163832Y42316D01*
X163834Y42319D01*
X163836Y42318D01*
X164236Y42518D01*
X164245Y42535D01*
X164256Y42537D01*
X164556Y43037D01*
X164556Y43040D01*
X164558Y43040D01*
X164758Y43440D01*
X164756Y43449D01*
X164762Y43452D01*
X164862Y43952D01*
X164861Y43956D01*
X164859Y43959D01*
X164863Y43962D01*
X164863Y44462D01*
X164855Y44473D01*
X164860Y44480D01*
X164460Y45479D01*
X164369Y45753D01*
X164650Y46127D01*
X165131Y46513D01*
X165494Y46513D01*
X165877Y46130D01*
X166172Y45736D01*
X166367Y45347D01*
X166465Y44754D01*
X166466Y44753D01*
X166466Y44752D01*
X166564Y44262D01*
X166466Y43772D01*
X166469Y43765D01*
X166465Y43762D01*
X166465Y43371D01*
X166268Y42880D01*
X166070Y42384D01*
X165773Y41890D01*
X165477Y41494D01*
X165182Y41199D01*
X164790Y40905D01*
X164300Y40709D01*
X163804Y40610D01*
X163309Y40511D01*
X162323Y40511D01*
G37*
%LPD*%
%LPC*%
G36*
X83138Y34485D02*
X83138Y34485D01*
X82855Y34862D01*
X82855Y39946D01*
X82819Y39993D01*
X82818Y39993D01*
X82818Y39994D01*
X82418Y40094D01*
X82410Y40090D01*
X82406Y40095D01*
X80911Y40095D01*
X80446Y40188D01*
X80355Y40552D01*
X80355Y41126D01*
X80626Y41397D01*
X86401Y41397D01*
X86873Y41302D01*
X87062Y40924D01*
X87095Y40907D01*
X87102Y40897D01*
X87124Y40895D01*
X87106Y40895D01*
X87059Y40859D01*
X87060Y40857D01*
X87058Y40856D01*
X86961Y40370D01*
X86686Y40095D01*
X84606Y40095D01*
X84559Y40059D01*
X84559Y40058D01*
X84558Y40058D01*
X84458Y39658D01*
X84459Y39655D01*
X84459Y39654D01*
X84461Y39651D01*
X84462Y39650D01*
X84457Y39646D01*
X84457Y35151D01*
X84361Y34670D01*
X84082Y34392D01*
X83514Y34297D01*
X83138Y34485D01*
G37*
%LPD*%
%LPC*%
G36*
X75730Y34392D02*
X75730Y34392D01*
X75451Y34670D01*
X75355Y35151D01*
X75355Y40741D01*
X75450Y41213D01*
X75818Y41397D01*
X76297Y41397D01*
X76774Y41206D01*
X76965Y40919D01*
X76973Y40916D01*
X76972Y40910D01*
X78466Y39516D01*
X78654Y39140D01*
X78562Y38774D01*
X78084Y38391D01*
X77712Y38298D01*
X77328Y38490D01*
X77296Y38484D01*
X77284Y38490D01*
X77084Y38390D01*
X77066Y38353D01*
X77057Y38346D01*
X77057Y35351D01*
X76959Y34862D01*
X76770Y34485D01*
X76301Y34297D01*
X75730Y34392D01*
G37*
%LPD*%
%LPC*%
G36*
X126498Y14101D02*
X126498Y14101D01*
X126020Y14484D01*
X125926Y14857D01*
X126024Y15343D01*
X126123Y15640D01*
X126122Y15642D01*
X126123Y15643D01*
X126121Y15646D01*
X126104Y15697D01*
X126087Y15691D01*
X126076Y15705D01*
X122488Y15705D01*
X122118Y15890D01*
X122025Y16262D01*
X122025Y16941D01*
X122206Y17212D01*
X122681Y17307D01*
X128371Y17307D01*
X128843Y17212D01*
X129027Y16844D01*
X129027Y16368D01*
X128835Y15985D01*
X128641Y15791D01*
X128641Y15788D01*
X128639Y15788D01*
X127245Y14196D01*
X126870Y14008D01*
X126498Y14101D01*
G37*
%LPD*%
G36*
X51481Y3021D02*
X51481Y3021D01*
X51495Y3019D01*
X51795Y3319D01*
X51797Y3331D01*
X51803Y3336D01*
X51799Y3341D01*
X51809Y3346D01*
X51909Y3946D01*
X51903Y3956D01*
X51909Y3962D01*
X51809Y4562D01*
X51788Y4581D01*
X51787Y4595D01*
X51487Y4795D01*
X51467Y4794D01*
X51460Y4803D01*
X45260Y4803D01*
X45253Y4798D01*
X45248Y4802D01*
X44848Y4702D01*
X44821Y4668D01*
X44812Y4664D01*
X44712Y4164D01*
X44715Y4157D01*
X44711Y4154D01*
X44711Y3554D01*
X44720Y3541D01*
X44716Y3532D01*
X44916Y3132D01*
X44943Y3119D01*
X44948Y3106D01*
X45348Y3006D01*
X45356Y3010D01*
X45360Y3005D01*
X51460Y3005D01*
X51481Y3021D01*
G37*
%LPC*%
G36*
X96342Y34485D02*
X96342Y34485D01*
X96155Y34858D01*
X96155Y40931D01*
X96339Y41206D01*
X96815Y41397D01*
X97406Y41397D01*
X97438Y41421D01*
X97449Y41423D01*
X98087Y42619D01*
X97462Y41368D01*
X97473Y41310D01*
X97478Y41311D01*
X97479Y41305D01*
X97757Y41120D01*
X97757Y34666D01*
X97483Y34392D01*
X96812Y34297D01*
X96342Y34485D01*
G37*
%LPD*%
%LPC*%
G36*
X159826Y30311D02*
X159826Y30311D01*
X159458Y30495D01*
X159363Y30967D01*
X159363Y31547D01*
X159544Y31818D01*
X160019Y31913D01*
X166084Y31913D01*
X166267Y31547D01*
X166364Y30963D01*
X166270Y30495D01*
X165902Y30311D01*
X159826Y30311D01*
G37*
%LPD*%
G36*
X68253Y61687D02*
X68253Y61687D01*
X68253Y61688D01*
X68254Y61688D01*
X68354Y62088D01*
X68350Y62096D01*
X68355Y62100D01*
X68355Y65200D01*
X68334Y65228D01*
X68333Y65241D01*
X68033Y65441D01*
X68018Y65440D01*
X68015Y65443D01*
X68011Y65443D01*
X68006Y65449D01*
X67506Y65449D01*
X67500Y65445D01*
X67496Y65448D01*
X66496Y65248D01*
X66486Y65237D01*
X66476Y65239D01*
X66076Y64939D01*
X66074Y64930D01*
X66067Y64930D01*
X65767Y64530D01*
X65767Y64523D01*
X65764Y64521D01*
X65765Y64520D01*
X65760Y64518D01*
X65560Y64018D01*
X65562Y64012D01*
X65558Y64010D01*
X65458Y63510D01*
X65464Y63497D01*
X65458Y63490D01*
X65558Y62990D01*
X65563Y62986D01*
X65560Y62982D01*
X65760Y62482D01*
X65772Y62474D01*
X65771Y62465D01*
X66471Y61765D01*
X66483Y61764D01*
X66484Y61756D01*
X66684Y61656D01*
X66700Y61659D01*
X66706Y61651D01*
X68206Y61651D01*
X68253Y61687D01*
G37*
G36*
X79799Y10633D02*
X79799Y10633D01*
X79794Y10640D01*
X79801Y10646D01*
X79801Y14146D01*
X79780Y14174D01*
X79779Y14187D01*
X79479Y14387D01*
X79464Y14386D01*
X79461Y14389D01*
X79457Y14389D01*
X79452Y14395D01*
X78952Y14395D01*
X78946Y14391D01*
X78942Y14394D01*
X77942Y14194D01*
X77932Y14183D01*
X77922Y14185D01*
X77522Y13885D01*
X77520Y13876D01*
X77513Y13876D01*
X77213Y13476D01*
X77213Y13469D01*
X77210Y13467D01*
X77211Y13466D01*
X77206Y13464D01*
X77006Y12964D01*
X77010Y12951D01*
X77003Y12946D01*
X77003Y12446D01*
X77007Y12440D01*
X77004Y12436D01*
X77104Y11936D01*
X77109Y11932D01*
X77106Y11928D01*
X77306Y11428D01*
X77318Y11420D01*
X77317Y11411D01*
X78017Y10711D01*
X78029Y10710D01*
X78030Y10702D01*
X78230Y10602D01*
X78246Y10605D01*
X78252Y10597D01*
X79752Y10597D01*
X79799Y10633D01*
G37*
%LPC*%
G36*
X46866Y44903D02*
X46866Y44903D01*
X46509Y44992D01*
X46509Y46434D01*
X46992Y46917D01*
X47386Y47212D01*
X47776Y47407D01*
X48260Y47504D01*
X48746Y47407D01*
X49236Y47211D01*
X49625Y46919D01*
X49914Y46533D01*
X50012Y46044D01*
X50111Y45549D01*
X50111Y45080D01*
X49845Y44903D01*
X46866Y44903D01*
G37*
%LPD*%
G36*
X126643Y61938D02*
X126643Y61938D01*
X126646Y61935D01*
X127246Y62035D01*
X127253Y62043D01*
X127260Y62040D01*
X127660Y62240D01*
X127665Y62250D01*
X127673Y62249D01*
X127973Y62549D01*
X127974Y62560D01*
X127976Y62562D01*
X127975Y62564D01*
X127975Y62568D01*
X127986Y62572D01*
X128086Y62972D01*
X128082Y62980D01*
X128087Y62984D01*
X128087Y63084D01*
X128082Y63091D01*
X128086Y63096D01*
X127986Y63496D01*
X127966Y63512D01*
X127965Y63525D01*
X127665Y63725D01*
X127658Y63725D01*
X127656Y63730D01*
X127156Y63930D01*
X127149Y63928D01*
X127146Y63933D01*
X126546Y64033D01*
X126541Y64030D01*
X126538Y64033D01*
X125738Y64033D01*
X125734Y64030D01*
X125731Y64033D01*
X125031Y63933D01*
X125023Y63925D01*
X125016Y63928D01*
X124216Y63528D01*
X124204Y63504D01*
X124191Y63500D01*
X124091Y63200D01*
X124095Y63189D01*
X124089Y63184D01*
X124089Y62784D01*
X124101Y62768D01*
X124097Y62757D01*
X124297Y62457D01*
X124304Y62454D01*
X124303Y62449D01*
X124603Y62149D01*
X124624Y62146D01*
X124630Y62135D01*
X125830Y61935D01*
X125835Y61938D01*
X125838Y61935D01*
X126638Y61935D01*
X126643Y61938D01*
G37*
%LPC*%
G36*
X47867Y37803D02*
X47867Y37803D01*
X47175Y37902D01*
X46789Y38095D01*
X46604Y38279D01*
X46509Y38660D01*
X46509Y38748D01*
X46604Y39129D01*
X46884Y39409D01*
X47368Y39505D01*
X48063Y39605D01*
X48757Y39605D01*
X49452Y39505D01*
X49936Y39409D01*
X50217Y39127D01*
X50311Y38846D01*
X50311Y38469D01*
X50124Y38188D01*
X49739Y37900D01*
X49252Y37803D01*
X48560Y37704D01*
X47867Y37803D01*
G37*
%LPD*%
D10*
X185420Y63532D02*
X166370Y63532D01*
X171450Y58452D02*
X171600Y58454D01*
X171749Y58460D01*
X171898Y58470D01*
X172047Y58483D01*
X172196Y58501D01*
X172344Y58522D01*
X172491Y58548D01*
X172638Y58577D01*
X172784Y58610D01*
X172929Y58647D01*
X173073Y58687D01*
X173216Y58732D01*
X173358Y58780D01*
X173498Y58832D01*
X173637Y58887D01*
X173774Y58946D01*
X173910Y59009D01*
X174045Y59075D01*
X174177Y59145D01*
X174308Y59218D01*
X174436Y59294D01*
X174563Y59374D01*
X174687Y59457D01*
X174809Y59543D01*
X174929Y59633D01*
X175047Y59726D01*
X175162Y59821D01*
X175274Y59920D01*
X175384Y60021D01*
X175491Y60126D01*
X175596Y60233D01*
X175697Y60343D01*
X175796Y60455D01*
X175891Y60570D01*
X175984Y60688D01*
X176074Y60808D01*
X176160Y60930D01*
X176243Y61054D01*
X176323Y61181D01*
X176399Y61310D01*
X176472Y61440D01*
X176542Y61572D01*
X176608Y61707D01*
X176671Y61843D01*
X176730Y61980D01*
X176785Y62119D01*
X176837Y62259D01*
X176885Y62401D01*
X176930Y62544D01*
X176970Y62688D01*
X177007Y62833D01*
X177040Y62979D01*
X177069Y63126D01*
X177095Y63273D01*
X177116Y63421D01*
X177134Y63570D01*
X177147Y63719D01*
X177157Y63868D01*
X177163Y64017D01*
X177165Y64167D01*
X177163Y64317D01*
X177157Y64466D01*
X177147Y64615D01*
X177134Y64764D01*
X177116Y64913D01*
X177095Y65061D01*
X177069Y65208D01*
X177040Y65355D01*
X177007Y65501D01*
X176970Y65646D01*
X176930Y65790D01*
X176885Y65933D01*
X176837Y66075D01*
X176785Y66215D01*
X176730Y66354D01*
X176671Y66491D01*
X176608Y66627D01*
X176542Y66762D01*
X176472Y66894D01*
X176399Y67025D01*
X176323Y67153D01*
X176243Y67280D01*
X176160Y67404D01*
X176074Y67526D01*
X175984Y67646D01*
X175891Y67764D01*
X175796Y67879D01*
X175697Y67991D01*
X175596Y68101D01*
X175491Y68208D01*
X175384Y68313D01*
X175274Y68414D01*
X175162Y68513D01*
X175047Y68608D01*
X174929Y68701D01*
X174809Y68791D01*
X174687Y68877D01*
X174563Y68960D01*
X174436Y69040D01*
X174307Y69116D01*
X174177Y69189D01*
X174045Y69259D01*
X173910Y69325D01*
X173774Y69388D01*
X173637Y69447D01*
X173498Y69502D01*
X173358Y69554D01*
X173216Y69602D01*
X173073Y69647D01*
X172929Y69687D01*
X172784Y69724D01*
X172638Y69757D01*
X172491Y69786D01*
X172344Y69812D01*
X172196Y69833D01*
X172047Y69851D01*
X171898Y69864D01*
X171749Y69874D01*
X171600Y69880D01*
X171450Y69882D01*
X173990Y71152D01*
X171450Y69882D02*
X172720Y67342D01*
X182880Y60992D02*
X185420Y63532D01*
X182880Y66072D01*
X30639Y20511D02*
X30639Y2731D01*
X24289Y16701D02*
X24291Y16543D01*
X24297Y16384D01*
X24307Y16226D01*
X24321Y16069D01*
X24338Y15911D01*
X24360Y15755D01*
X24385Y15598D01*
X24415Y15443D01*
X24448Y15288D01*
X24485Y15134D01*
X24526Y14981D01*
X24571Y14829D01*
X24620Y14679D01*
X24672Y14529D01*
X24728Y14381D01*
X24788Y14234D01*
X24851Y14089D01*
X24918Y13946D01*
X24988Y13804D01*
X25062Y13664D01*
X25140Y13526D01*
X25221Y13390D01*
X25305Y13256D01*
X25392Y13124D01*
X25483Y12994D01*
X25577Y12867D01*
X25674Y12742D01*
X25775Y12619D01*
X25878Y12499D01*
X25984Y12382D01*
X26093Y12267D01*
X26205Y12155D01*
X26320Y12046D01*
X26437Y11940D01*
X26557Y11837D01*
X26680Y11736D01*
X26805Y11639D01*
X26932Y11545D01*
X27062Y11454D01*
X27194Y11367D01*
X27328Y11283D01*
X27464Y11202D01*
X27602Y11124D01*
X27742Y11050D01*
X27884Y10980D01*
X28027Y10913D01*
X28172Y10850D01*
X28319Y10790D01*
X28467Y10734D01*
X28617Y10682D01*
X28767Y10633D01*
X28919Y10588D01*
X29072Y10547D01*
X29226Y10510D01*
X29381Y10477D01*
X29536Y10447D01*
X29693Y10422D01*
X29849Y10400D01*
X30007Y10383D01*
X30164Y10369D01*
X30322Y10359D01*
X30481Y10353D01*
X30639Y10351D01*
X30797Y10353D01*
X30956Y10359D01*
X31114Y10369D01*
X31271Y10383D01*
X31429Y10400D01*
X31585Y10422D01*
X31742Y10447D01*
X31897Y10477D01*
X32052Y10510D01*
X32206Y10547D01*
X32359Y10588D01*
X32511Y10633D01*
X32661Y10682D01*
X32811Y10734D01*
X32959Y10790D01*
X33106Y10850D01*
X33251Y10913D01*
X33394Y10980D01*
X33536Y11050D01*
X33676Y11124D01*
X33814Y11202D01*
X33950Y11283D01*
X34084Y11367D01*
X34216Y11454D01*
X34346Y11545D01*
X34473Y11639D01*
X34598Y11736D01*
X34721Y11837D01*
X34841Y11940D01*
X34958Y12046D01*
X35073Y12155D01*
X35185Y12267D01*
X35294Y12382D01*
X35400Y12499D01*
X35503Y12619D01*
X35604Y12742D01*
X35701Y12867D01*
X35795Y12994D01*
X35886Y13124D01*
X35973Y13256D01*
X36057Y13390D01*
X36138Y13526D01*
X36216Y13664D01*
X36290Y13804D01*
X36360Y13946D01*
X36427Y14089D01*
X36490Y14234D01*
X36550Y14381D01*
X36606Y14529D01*
X36658Y14679D01*
X36707Y14829D01*
X36752Y14981D01*
X36793Y15134D01*
X36830Y15288D01*
X36863Y15443D01*
X36893Y15598D01*
X36918Y15755D01*
X36940Y15911D01*
X36957Y16069D01*
X36971Y16226D01*
X36981Y16384D01*
X36987Y16543D01*
X36989Y16701D01*
X38259Y14161D01*
X36989Y16701D02*
X34703Y15431D01*
X28099Y5271D02*
X30639Y2731D01*
X33179Y5271D01*
X33433Y5525D02*
X27845Y5525D01*
X34703Y15431D02*
X38259Y14161D01*
X172720Y67342D02*
X173990Y71152D01*
X182880Y66072D02*
X182880Y60992D01*
X33211Y73247D02*
X29877Y73724D01*
X33211Y73247D02*
X31941Y70168D01*
X29877Y73724D01*
X31909Y72454D02*
X31673Y72336D01*
X31441Y72213D01*
X31212Y72084D01*
X30985Y71950D01*
X30762Y71810D01*
X30543Y71665D01*
X30327Y71514D01*
X30115Y71358D01*
X29906Y71198D01*
X29702Y71032D01*
X29502Y70861D01*
X29306Y70686D01*
X29114Y70505D01*
X28927Y70320D01*
X28744Y70131D01*
X28566Y69937D01*
X28392Y69740D01*
X28224Y69537D01*
X28060Y69331D01*
X27901Y69121D01*
X27748Y68908D01*
X27600Y68690D01*
X27457Y68469D01*
X27319Y68245D01*
X27187Y68017D01*
X27061Y67786D01*
X26940Y67552D01*
X26825Y67316D01*
X26715Y67076D01*
X26612Y66835D01*
X26514Y66590D01*
X26422Y66343D01*
X26337Y66095D01*
X26257Y65844D01*
X26183Y65591D01*
X26116Y65337D01*
X26055Y65081D01*
X26000Y64823D01*
X25951Y64565D01*
X25909Y64305D01*
X25873Y64044D01*
X25843Y63783D01*
X25819Y63521D01*
X25802Y63258D01*
X25791Y62995D01*
X25787Y62732D01*
X25789Y62469D01*
X25798Y62206D01*
X25812Y61943D01*
X25833Y61681D01*
X25861Y61419D01*
X25895Y61158D01*
X25935Y60898D01*
X25981Y60639D01*
X26034Y60381D01*
X26093Y60125D01*
X26158Y59870D01*
X26229Y59616D01*
X26307Y59365D01*
X26390Y59115D01*
X26480Y58868D01*
X26575Y58622D01*
X26677Y58380D01*
X26784Y58139D01*
X26897Y57902D01*
X27016Y57667D01*
X27140Y57435D01*
X27270Y57206D01*
X27406Y56980D01*
X27547Y56758D01*
X27693Y56539D01*
X27845Y56324D01*
X35179Y62802D02*
X35181Y62873D01*
X35187Y62944D01*
X35197Y63015D01*
X35211Y63085D01*
X35229Y63154D01*
X35250Y63221D01*
X35276Y63288D01*
X35305Y63353D01*
X35337Y63416D01*
X35374Y63478D01*
X35413Y63537D01*
X35456Y63594D01*
X35502Y63648D01*
X35551Y63700D01*
X35603Y63749D01*
X35657Y63795D01*
X35714Y63838D01*
X35773Y63877D01*
X35835Y63914D01*
X35898Y63946D01*
X35963Y63975D01*
X36030Y64001D01*
X36097Y64022D01*
X36166Y64040D01*
X36236Y64054D01*
X36307Y64064D01*
X36378Y64070D01*
X36449Y64072D01*
X36520Y64070D01*
X36591Y64064D01*
X36662Y64054D01*
X36732Y64040D01*
X36801Y64022D01*
X36868Y64001D01*
X36935Y63975D01*
X37000Y63946D01*
X37063Y63914D01*
X37125Y63877D01*
X37184Y63838D01*
X37241Y63795D01*
X37295Y63749D01*
X37347Y63700D01*
X37396Y63648D01*
X37442Y63594D01*
X37485Y63537D01*
X37524Y63478D01*
X37561Y63416D01*
X37593Y63353D01*
X37622Y63288D01*
X37648Y63221D01*
X37669Y63154D01*
X37687Y63085D01*
X37701Y63015D01*
X37711Y62944D01*
X37717Y62873D01*
X37719Y62802D01*
X37717Y62731D01*
X37711Y62660D01*
X37701Y62589D01*
X37687Y62519D01*
X37669Y62450D01*
X37648Y62383D01*
X37622Y62316D01*
X37593Y62251D01*
X37561Y62188D01*
X37524Y62126D01*
X37485Y62067D01*
X37442Y62010D01*
X37396Y61956D01*
X37347Y61904D01*
X37295Y61855D01*
X37241Y61809D01*
X37184Y61766D01*
X37125Y61727D01*
X37063Y61690D01*
X37000Y61658D01*
X36935Y61629D01*
X36868Y61603D01*
X36801Y61582D01*
X36732Y61564D01*
X36662Y61550D01*
X36591Y61540D01*
X36520Y61534D01*
X36449Y61532D01*
X36378Y61534D01*
X36307Y61540D01*
X36236Y61550D01*
X36166Y61564D01*
X36097Y61582D01*
X36030Y61603D01*
X35963Y61629D01*
X35898Y61658D01*
X35835Y61690D01*
X35773Y61727D01*
X35714Y61766D01*
X35657Y61809D01*
X35603Y61855D01*
X35551Y61904D01*
X35502Y61956D01*
X35456Y62010D01*
X35413Y62067D01*
X35374Y62126D01*
X35337Y62188D01*
X35305Y62251D01*
X35276Y62316D01*
X35250Y62383D01*
X35229Y62450D01*
X35211Y62519D01*
X35197Y62589D01*
X35187Y62660D01*
X35181Y62731D01*
X35179Y62802D01*
X31115Y62802D02*
X31117Y62948D01*
X31123Y63093D01*
X31133Y63239D01*
X31147Y63384D01*
X31165Y63528D01*
X31186Y63672D01*
X31212Y63816D01*
X31242Y63958D01*
X31275Y64100D01*
X31313Y64241D01*
X31354Y64381D01*
X31399Y64519D01*
X31448Y64657D01*
X31500Y64793D01*
X31557Y64927D01*
X31616Y65060D01*
X31680Y65191D01*
X31747Y65320D01*
X31818Y65448D01*
X31892Y65573D01*
X31969Y65697D01*
X32050Y65818D01*
X32134Y65937D01*
X32221Y66054D01*
X32311Y66168D01*
X32405Y66280D01*
X32501Y66389D01*
X32601Y66496D01*
X32703Y66599D01*
X32808Y66700D01*
X32916Y66798D01*
X33027Y66893D01*
X33140Y66985D01*
X33255Y67074D01*
X33373Y67160D01*
X33493Y67242D01*
X33616Y67321D01*
X33740Y67397D01*
X33867Y67469D01*
X33995Y67538D01*
X34125Y67603D01*
X34257Y67665D01*
X34391Y67723D01*
X34526Y67777D01*
X34663Y67828D01*
X34801Y67875D01*
X34940Y67918D01*
X35080Y67957D01*
X35222Y67993D01*
X35364Y68024D01*
X35507Y68052D01*
X35651Y68076D01*
X35795Y68096D01*
X35940Y68112D01*
X36085Y68124D01*
X36230Y68132D01*
X36376Y68136D01*
X36522Y68136D01*
X36668Y68132D01*
X36813Y68124D01*
X36958Y68112D01*
X37103Y68096D01*
X37247Y68076D01*
X37391Y68052D01*
X37534Y68024D01*
X37676Y67993D01*
X37818Y67957D01*
X37958Y67918D01*
X38097Y67875D01*
X38235Y67828D01*
X38372Y67777D01*
X38507Y67723D01*
X38641Y67665D01*
X38773Y67603D01*
X38903Y67538D01*
X39031Y67469D01*
X39158Y67397D01*
X39282Y67321D01*
X39405Y67242D01*
X39525Y67160D01*
X39643Y67074D01*
X39758Y66985D01*
X39871Y66893D01*
X39982Y66798D01*
X40090Y66700D01*
X40195Y66599D01*
X40297Y66496D01*
X40397Y66389D01*
X40493Y66280D01*
X40587Y66168D01*
X40677Y66054D01*
X40764Y65937D01*
X40848Y65818D01*
X40929Y65697D01*
X41006Y65573D01*
X41080Y65448D01*
X41151Y65320D01*
X41218Y65191D01*
X41282Y65060D01*
X41341Y64927D01*
X41398Y64793D01*
X41450Y64657D01*
X41499Y64519D01*
X41544Y64381D01*
X41585Y64241D01*
X41623Y64100D01*
X41656Y63958D01*
X41686Y63816D01*
X41712Y63672D01*
X41733Y63528D01*
X41751Y63384D01*
X41765Y63239D01*
X41775Y63093D01*
X41781Y62948D01*
X41783Y62802D01*
X41781Y62656D01*
X41775Y62511D01*
X41765Y62365D01*
X41751Y62220D01*
X41733Y62076D01*
X41712Y61932D01*
X41686Y61788D01*
X41656Y61646D01*
X41623Y61504D01*
X41585Y61363D01*
X41544Y61223D01*
X41499Y61085D01*
X41450Y60947D01*
X41398Y60811D01*
X41341Y60677D01*
X41282Y60544D01*
X41218Y60413D01*
X41151Y60284D01*
X41080Y60156D01*
X41006Y60031D01*
X40929Y59907D01*
X40848Y59786D01*
X40764Y59667D01*
X40677Y59550D01*
X40587Y59436D01*
X40493Y59324D01*
X40397Y59215D01*
X40297Y59108D01*
X40195Y59005D01*
X40090Y58904D01*
X39982Y58806D01*
X39871Y58711D01*
X39758Y58619D01*
X39643Y58530D01*
X39525Y58444D01*
X39405Y58362D01*
X39282Y58283D01*
X39158Y58207D01*
X39031Y58135D01*
X38903Y58066D01*
X38773Y58001D01*
X38641Y57939D01*
X38507Y57881D01*
X38372Y57827D01*
X38235Y57776D01*
X38097Y57729D01*
X37958Y57686D01*
X37818Y57647D01*
X37676Y57611D01*
X37534Y57580D01*
X37391Y57552D01*
X37247Y57528D01*
X37103Y57508D01*
X36958Y57492D01*
X36813Y57480D01*
X36668Y57472D01*
X36522Y57468D01*
X36376Y57468D01*
X36230Y57472D01*
X36085Y57480D01*
X35940Y57492D01*
X35795Y57508D01*
X35651Y57528D01*
X35507Y57552D01*
X35364Y57580D01*
X35222Y57611D01*
X35080Y57647D01*
X34940Y57686D01*
X34801Y57729D01*
X34663Y57776D01*
X34526Y57827D01*
X34391Y57881D01*
X34257Y57939D01*
X34125Y58001D01*
X33995Y58066D01*
X33867Y58135D01*
X33740Y58207D01*
X33616Y58283D01*
X33493Y58362D01*
X33373Y58444D01*
X33255Y58530D01*
X33140Y58619D01*
X33027Y58711D01*
X32916Y58806D01*
X32808Y58904D01*
X32703Y59005D01*
X32601Y59108D01*
X32501Y59215D01*
X32405Y59324D01*
X32311Y59436D01*
X32221Y59550D01*
X32134Y59667D01*
X32050Y59786D01*
X31969Y59907D01*
X31892Y60031D01*
X31818Y60156D01*
X31747Y60284D01*
X31680Y60413D01*
X31616Y60544D01*
X31557Y60677D01*
X31500Y60811D01*
X31448Y60947D01*
X31399Y61085D01*
X31354Y61223D01*
X31313Y61363D01*
X31275Y61504D01*
X31242Y61646D01*
X31212Y61788D01*
X31186Y61932D01*
X31165Y62076D01*
X31147Y62220D01*
X31133Y62365D01*
X31123Y62511D01*
X31117Y62656D01*
X31115Y62802D01*
D11*
X135319Y51054D02*
X135319Y25654D01*
X119571Y21082D02*
X119438Y21084D01*
X119305Y21090D01*
X119173Y21099D01*
X119040Y21113D01*
X118908Y21130D01*
X118777Y21151D01*
X118646Y21176D01*
X118517Y21205D01*
X118388Y21238D01*
X118260Y21274D01*
X118133Y21314D01*
X118007Y21358D01*
X117883Y21405D01*
X117760Y21456D01*
X117639Y21510D01*
X117519Y21568D01*
X117401Y21630D01*
X117285Y21695D01*
X117171Y21763D01*
X117059Y21834D01*
X116949Y21909D01*
X116841Y21987D01*
X116735Y22068D01*
X116632Y22152D01*
X116532Y22239D01*
X116434Y22328D01*
X116338Y22421D01*
X116245Y22517D01*
X116156Y22615D01*
X116069Y22715D01*
X115985Y22818D01*
X115904Y22924D01*
X115826Y23032D01*
X115751Y23142D01*
X115680Y23254D01*
X115612Y23368D01*
X115547Y23484D01*
X115485Y23602D01*
X115427Y23722D01*
X115373Y23843D01*
X115322Y23966D01*
X115275Y24090D01*
X115231Y24216D01*
X115191Y24343D01*
X115155Y24471D01*
X115122Y24600D01*
X115093Y24729D01*
X115068Y24860D01*
X115047Y24991D01*
X115030Y25123D01*
X115016Y25256D01*
X115007Y25388D01*
X115001Y25521D01*
X114999Y25654D01*
X114999Y51054D02*
X115001Y51187D01*
X115007Y51320D01*
X115016Y51452D01*
X115030Y51585D01*
X115047Y51717D01*
X115068Y51848D01*
X115093Y51979D01*
X115122Y52108D01*
X115155Y52237D01*
X115191Y52365D01*
X115231Y52492D01*
X115275Y52618D01*
X115322Y52742D01*
X115373Y52865D01*
X115427Y52986D01*
X115485Y53106D01*
X115547Y53224D01*
X115612Y53340D01*
X115680Y53454D01*
X115751Y53566D01*
X115826Y53676D01*
X115904Y53784D01*
X115985Y53890D01*
X116069Y53993D01*
X116156Y54093D01*
X116245Y54191D01*
X116338Y54287D01*
X116434Y54380D01*
X116532Y54469D01*
X116632Y54556D01*
X116735Y54640D01*
X116841Y54721D01*
X116949Y54799D01*
X117059Y54874D01*
X117171Y54945D01*
X117285Y55013D01*
X117401Y55078D01*
X117519Y55140D01*
X117639Y55198D01*
X117760Y55252D01*
X117883Y55303D01*
X118007Y55350D01*
X118133Y55394D01*
X118260Y55434D01*
X118388Y55470D01*
X118517Y55503D01*
X118646Y55532D01*
X118777Y55557D01*
X118908Y55578D01*
X119040Y55595D01*
X119173Y55609D01*
X119305Y55618D01*
X119438Y55624D01*
X119571Y55626D01*
X130747Y55626D02*
X130880Y55624D01*
X131013Y55618D01*
X131145Y55609D01*
X131278Y55595D01*
X131410Y55578D01*
X131541Y55557D01*
X131672Y55532D01*
X131801Y55503D01*
X131930Y55470D01*
X132058Y55434D01*
X132185Y55394D01*
X132311Y55350D01*
X132435Y55303D01*
X132558Y55252D01*
X132679Y55198D01*
X132799Y55140D01*
X132917Y55078D01*
X133033Y55013D01*
X133147Y54945D01*
X133259Y54874D01*
X133369Y54799D01*
X133477Y54721D01*
X133583Y54640D01*
X133686Y54556D01*
X133786Y54469D01*
X133884Y54380D01*
X133980Y54287D01*
X134073Y54191D01*
X134162Y54093D01*
X134249Y53993D01*
X134333Y53890D01*
X134414Y53784D01*
X134492Y53676D01*
X134567Y53566D01*
X134638Y53454D01*
X134706Y53340D01*
X134771Y53224D01*
X134833Y53106D01*
X134891Y52986D01*
X134945Y52865D01*
X134996Y52742D01*
X135043Y52618D01*
X135087Y52492D01*
X135127Y52365D01*
X135163Y52237D01*
X135196Y52108D01*
X135225Y51979D01*
X135250Y51848D01*
X135271Y51717D01*
X135288Y51585D01*
X135302Y51452D01*
X135311Y51320D01*
X135317Y51187D01*
X135319Y51054D01*
X135319Y25654D02*
X135317Y25521D01*
X135311Y25388D01*
X135302Y25256D01*
X135288Y25123D01*
X135271Y24991D01*
X135250Y24860D01*
X135225Y24729D01*
X135196Y24600D01*
X135163Y24471D01*
X135127Y24343D01*
X135087Y24216D01*
X135043Y24090D01*
X134996Y23966D01*
X134945Y23843D01*
X134891Y23722D01*
X134833Y23602D01*
X134771Y23484D01*
X134706Y23368D01*
X134638Y23254D01*
X134567Y23142D01*
X134492Y23032D01*
X134414Y22924D01*
X134333Y22818D01*
X134249Y22715D01*
X134162Y22615D01*
X134073Y22517D01*
X133980Y22421D01*
X133884Y22328D01*
X133786Y22239D01*
X133686Y22152D01*
X133583Y22068D01*
X133477Y21987D01*
X133369Y21909D01*
X133259Y21834D01*
X133147Y21763D01*
X133033Y21695D01*
X132917Y21630D01*
X132799Y21568D01*
X132679Y21510D01*
X132558Y21456D01*
X132435Y21405D01*
X132311Y21358D01*
X132185Y21314D01*
X132058Y21274D01*
X131930Y21238D01*
X131801Y21205D01*
X131672Y21176D01*
X131541Y21151D01*
X131410Y21130D01*
X131278Y21113D01*
X131145Y21099D01*
X131013Y21090D01*
X130880Y21084D01*
X130747Y21082D01*
X119571Y21082D01*
X119571Y55626D02*
X130747Y55626D01*
X114999Y51054D02*
X114999Y25654D01*
D12*
X157036Y25400D02*
X157036Y50800D01*
X136716Y25400D02*
X136718Y25267D01*
X136724Y25134D01*
X136733Y25002D01*
X136747Y24869D01*
X136764Y24737D01*
X136785Y24606D01*
X136810Y24475D01*
X136839Y24346D01*
X136872Y24217D01*
X136908Y24089D01*
X136948Y23962D01*
X136992Y23836D01*
X137039Y23712D01*
X137090Y23589D01*
X137144Y23468D01*
X137202Y23348D01*
X137264Y23230D01*
X137329Y23114D01*
X137397Y23000D01*
X137468Y22888D01*
X137543Y22778D01*
X137621Y22670D01*
X137702Y22564D01*
X137786Y22461D01*
X137873Y22361D01*
X137962Y22263D01*
X138055Y22167D01*
X138151Y22074D01*
X138249Y21985D01*
X138349Y21898D01*
X138452Y21814D01*
X138558Y21733D01*
X138666Y21655D01*
X138776Y21580D01*
X138888Y21509D01*
X139002Y21441D01*
X139118Y21376D01*
X139236Y21314D01*
X139356Y21256D01*
X139477Y21202D01*
X139600Y21151D01*
X139724Y21104D01*
X139850Y21060D01*
X139977Y21020D01*
X140105Y20984D01*
X140234Y20951D01*
X140363Y20922D01*
X140494Y20897D01*
X140625Y20876D01*
X140757Y20859D01*
X140890Y20845D01*
X141022Y20836D01*
X141155Y20830D01*
X141288Y20828D01*
X136716Y50800D02*
X136718Y50933D01*
X136724Y51066D01*
X136733Y51198D01*
X136747Y51331D01*
X136764Y51463D01*
X136785Y51594D01*
X136810Y51725D01*
X136839Y51854D01*
X136872Y51983D01*
X136908Y52111D01*
X136948Y52238D01*
X136992Y52364D01*
X137039Y52488D01*
X137090Y52611D01*
X137144Y52732D01*
X137202Y52852D01*
X137264Y52970D01*
X137329Y53086D01*
X137397Y53200D01*
X137468Y53312D01*
X137543Y53422D01*
X137621Y53530D01*
X137702Y53636D01*
X137786Y53739D01*
X137873Y53839D01*
X137962Y53937D01*
X138055Y54033D01*
X138151Y54126D01*
X138249Y54215D01*
X138349Y54302D01*
X138452Y54386D01*
X138558Y54467D01*
X138666Y54545D01*
X138776Y54620D01*
X138888Y54691D01*
X139002Y54759D01*
X139118Y54824D01*
X139236Y54886D01*
X139356Y54944D01*
X139477Y54998D01*
X139600Y55049D01*
X139724Y55096D01*
X139850Y55140D01*
X139977Y55180D01*
X140105Y55216D01*
X140234Y55249D01*
X140363Y55278D01*
X140494Y55303D01*
X140625Y55324D01*
X140757Y55341D01*
X140890Y55355D01*
X141022Y55364D01*
X141155Y55370D01*
X141288Y55372D01*
X152464Y55372D02*
X152597Y55370D01*
X152730Y55364D01*
X152862Y55355D01*
X152995Y55341D01*
X153127Y55324D01*
X153258Y55303D01*
X153389Y55278D01*
X153518Y55249D01*
X153647Y55216D01*
X153775Y55180D01*
X153902Y55140D01*
X154028Y55096D01*
X154152Y55049D01*
X154275Y54998D01*
X154396Y54944D01*
X154516Y54886D01*
X154634Y54824D01*
X154750Y54759D01*
X154864Y54691D01*
X154976Y54620D01*
X155086Y54545D01*
X155194Y54467D01*
X155300Y54386D01*
X155403Y54302D01*
X155503Y54215D01*
X155601Y54126D01*
X155697Y54033D01*
X155790Y53937D01*
X155879Y53839D01*
X155966Y53739D01*
X156050Y53636D01*
X156131Y53530D01*
X156209Y53422D01*
X156284Y53312D01*
X156355Y53200D01*
X156423Y53086D01*
X156488Y52970D01*
X156550Y52852D01*
X156608Y52732D01*
X156662Y52611D01*
X156713Y52488D01*
X156760Y52364D01*
X156804Y52238D01*
X156844Y52111D01*
X156880Y51983D01*
X156913Y51854D01*
X156942Y51725D01*
X156967Y51594D01*
X156988Y51463D01*
X157005Y51331D01*
X157019Y51198D01*
X157028Y51066D01*
X157034Y50933D01*
X157036Y50800D01*
X157036Y25400D02*
X157034Y25267D01*
X157028Y25134D01*
X157019Y25002D01*
X157005Y24869D01*
X156988Y24737D01*
X156967Y24606D01*
X156942Y24475D01*
X156913Y24346D01*
X156880Y24217D01*
X156844Y24089D01*
X156804Y23962D01*
X156760Y23836D01*
X156713Y23712D01*
X156662Y23589D01*
X156608Y23468D01*
X156550Y23348D01*
X156488Y23230D01*
X156423Y23114D01*
X156355Y23000D01*
X156284Y22888D01*
X156209Y22778D01*
X156131Y22670D01*
X156050Y22564D01*
X155966Y22461D01*
X155879Y22361D01*
X155790Y22263D01*
X155697Y22167D01*
X155601Y22074D01*
X155503Y21985D01*
X155403Y21898D01*
X155300Y21814D01*
X155194Y21733D01*
X155086Y21655D01*
X154976Y21580D01*
X154864Y21509D01*
X154750Y21441D01*
X154634Y21376D01*
X154516Y21314D01*
X154396Y21256D01*
X154275Y21202D01*
X154152Y21151D01*
X154028Y21104D01*
X153902Y21060D01*
X153775Y21020D01*
X153647Y20984D01*
X153518Y20951D01*
X153389Y20922D01*
X153258Y20897D01*
X153127Y20876D01*
X152995Y20859D01*
X152862Y20845D01*
X152730Y20836D01*
X152597Y20830D01*
X152464Y20828D01*
X141288Y20828D01*
X141288Y55372D02*
X152464Y55372D01*
X136716Y50800D02*
X136716Y25400D01*
X86868Y54864D02*
X86868Y70104D01*
X102616Y74676D02*
X102749Y74674D01*
X102882Y74668D01*
X103014Y74659D01*
X103147Y74645D01*
X103279Y74628D01*
X103410Y74607D01*
X103541Y74582D01*
X103670Y74553D01*
X103799Y74520D01*
X103927Y74484D01*
X104054Y74444D01*
X104180Y74400D01*
X104304Y74353D01*
X104427Y74302D01*
X104548Y74248D01*
X104668Y74190D01*
X104786Y74128D01*
X104902Y74063D01*
X105016Y73995D01*
X105128Y73924D01*
X105238Y73849D01*
X105346Y73771D01*
X105452Y73690D01*
X105555Y73606D01*
X105655Y73519D01*
X105753Y73430D01*
X105849Y73337D01*
X105942Y73241D01*
X106031Y73143D01*
X106118Y73043D01*
X106202Y72940D01*
X106283Y72834D01*
X106361Y72726D01*
X106436Y72616D01*
X106507Y72504D01*
X106575Y72390D01*
X106640Y72274D01*
X106702Y72156D01*
X106760Y72036D01*
X106814Y71915D01*
X106865Y71792D01*
X106912Y71668D01*
X106956Y71542D01*
X106996Y71415D01*
X107032Y71287D01*
X107065Y71158D01*
X107094Y71029D01*
X107119Y70898D01*
X107140Y70767D01*
X107157Y70635D01*
X107171Y70502D01*
X107180Y70370D01*
X107186Y70237D01*
X107188Y70104D01*
X107188Y54864D02*
X107186Y54731D01*
X107180Y54598D01*
X107171Y54466D01*
X107157Y54333D01*
X107140Y54201D01*
X107119Y54070D01*
X107094Y53939D01*
X107065Y53810D01*
X107032Y53681D01*
X106996Y53553D01*
X106956Y53426D01*
X106912Y53300D01*
X106865Y53176D01*
X106814Y53053D01*
X106760Y52932D01*
X106702Y52812D01*
X106640Y52694D01*
X106575Y52578D01*
X106507Y52464D01*
X106436Y52352D01*
X106361Y52242D01*
X106283Y52134D01*
X106202Y52028D01*
X106118Y51925D01*
X106031Y51825D01*
X105942Y51727D01*
X105849Y51631D01*
X105753Y51538D01*
X105655Y51449D01*
X105555Y51362D01*
X105452Y51278D01*
X105346Y51197D01*
X105238Y51119D01*
X105128Y51044D01*
X105016Y50973D01*
X104902Y50905D01*
X104786Y50840D01*
X104668Y50778D01*
X104548Y50720D01*
X104427Y50666D01*
X104304Y50615D01*
X104180Y50568D01*
X104054Y50524D01*
X103927Y50484D01*
X103799Y50448D01*
X103670Y50415D01*
X103541Y50386D01*
X103410Y50361D01*
X103279Y50340D01*
X103147Y50323D01*
X103014Y50309D01*
X102882Y50300D01*
X102749Y50294D01*
X102616Y50292D01*
X91440Y50292D02*
X91307Y50294D01*
X91174Y50300D01*
X91042Y50309D01*
X90909Y50323D01*
X90777Y50340D01*
X90646Y50361D01*
X90515Y50386D01*
X90386Y50415D01*
X90257Y50448D01*
X90129Y50484D01*
X90002Y50524D01*
X89876Y50568D01*
X89752Y50615D01*
X89629Y50666D01*
X89508Y50720D01*
X89388Y50778D01*
X89270Y50840D01*
X89154Y50905D01*
X89040Y50973D01*
X88928Y51044D01*
X88818Y51119D01*
X88710Y51197D01*
X88604Y51278D01*
X88501Y51362D01*
X88401Y51449D01*
X88303Y51538D01*
X88207Y51631D01*
X88114Y51727D01*
X88025Y51825D01*
X87938Y51925D01*
X87854Y52028D01*
X87773Y52134D01*
X87695Y52242D01*
X87620Y52352D01*
X87549Y52464D01*
X87481Y52578D01*
X87416Y52694D01*
X87354Y52812D01*
X87296Y52932D01*
X87242Y53053D01*
X87191Y53176D01*
X87144Y53300D01*
X87100Y53426D01*
X87060Y53553D01*
X87024Y53681D01*
X86991Y53810D01*
X86962Y53939D01*
X86937Y54070D01*
X86916Y54201D01*
X86899Y54333D01*
X86885Y54466D01*
X86876Y54598D01*
X86870Y54731D01*
X86868Y54864D01*
X86868Y70104D02*
X86870Y70237D01*
X86876Y70370D01*
X86885Y70502D01*
X86899Y70635D01*
X86916Y70767D01*
X86937Y70898D01*
X86962Y71029D01*
X86991Y71158D01*
X87024Y71287D01*
X87060Y71415D01*
X87100Y71542D01*
X87144Y71668D01*
X87191Y71792D01*
X87242Y71915D01*
X87296Y72036D01*
X87354Y72156D01*
X87416Y72274D01*
X87481Y72390D01*
X87549Y72504D01*
X87620Y72616D01*
X87695Y72726D01*
X87773Y72834D01*
X87854Y72940D01*
X87938Y73043D01*
X88025Y73143D01*
X88114Y73241D01*
X88207Y73337D01*
X88303Y73430D01*
X88401Y73519D01*
X88501Y73606D01*
X88604Y73690D01*
X88710Y73771D01*
X88818Y73849D01*
X88928Y73924D01*
X89040Y73995D01*
X89154Y74063D01*
X89270Y74128D01*
X89388Y74190D01*
X89508Y74248D01*
X89629Y74302D01*
X89752Y74353D01*
X89876Y74400D01*
X90002Y74444D01*
X90129Y74484D01*
X90257Y74520D01*
X90386Y74553D01*
X90515Y74582D01*
X90646Y74607D01*
X90777Y74628D01*
X90909Y74645D01*
X91042Y74659D01*
X91174Y74668D01*
X91307Y74674D01*
X91440Y74676D01*
X102616Y74676D01*
X102616Y50292D02*
X91440Y50292D01*
X107188Y54864D02*
X107188Y70104D01*
M02*
