G04 EAGLE Gerber RS-274X export*
G75*
%MOMM*%
%FSLAX34Y34*%
%LPD*%
%INBottom Copper*%
%IPPOS*%
%AMOC8*
5,1,8,0,0,1.08239X$1,22.5*%
G01*
%ADD10C,0.177800*%
%ADD11C,0.099059*%
%ADD12C,0.635000*%
%ADD13C,1.879600*%
%ADD14C,0.554000*%
%ADD15C,0.152400*%
%ADD16C,0.279400*%

G36*
X186300Y3064D02*
X186300Y3064D01*
X186419Y3071D01*
X186457Y3084D01*
X186498Y3089D01*
X186608Y3132D01*
X186721Y3169D01*
X186756Y3191D01*
X186793Y3206D01*
X186889Y3275D01*
X186990Y3339D01*
X187018Y3369D01*
X187051Y3392D01*
X187127Y3484D01*
X187208Y3571D01*
X187228Y3606D01*
X187253Y3637D01*
X187304Y3745D01*
X187362Y3849D01*
X187372Y3889D01*
X187389Y3925D01*
X187411Y4042D01*
X187441Y4157D01*
X187445Y4217D01*
X187449Y4237D01*
X187447Y4258D01*
X187451Y4318D01*
X187451Y49480D01*
X187434Y49620D01*
X187420Y49759D01*
X187414Y49777D01*
X187411Y49796D01*
X187360Y49926D01*
X187312Y50058D01*
X187301Y50074D01*
X187294Y50092D01*
X187212Y50205D01*
X187133Y50321D01*
X187119Y50333D01*
X187108Y50349D01*
X186999Y50438D01*
X186895Y50531D01*
X186878Y50539D01*
X186863Y50552D01*
X186736Y50611D01*
X186611Y50675D01*
X186592Y50679D01*
X186575Y50687D01*
X186438Y50713D01*
X186301Y50744D01*
X186281Y50743D01*
X186263Y50747D01*
X186138Y50739D01*
X183226Y50739D01*
X181479Y52486D01*
X181401Y52547D01*
X181328Y52615D01*
X181275Y52644D01*
X181228Y52681D01*
X181137Y52720D01*
X181050Y52768D01*
X180991Y52783D01*
X180936Y52807D01*
X180838Y52823D01*
X180742Y52848D01*
X180642Y52854D01*
X180622Y52857D01*
X180609Y52856D01*
X180581Y52858D01*
X176870Y52858D01*
X175159Y54569D01*
X175159Y56990D01*
X176263Y58094D01*
X176336Y58188D01*
X176415Y58278D01*
X176434Y58314D01*
X176458Y58346D01*
X176505Y58455D01*
X176560Y58561D01*
X176569Y58600D01*
X176585Y58638D01*
X176603Y58755D01*
X176629Y58871D01*
X176628Y58912D01*
X176634Y58952D01*
X176623Y59071D01*
X176620Y59189D01*
X176608Y59228D01*
X176605Y59268D01*
X176564Y59380D01*
X176531Y59495D01*
X176511Y59530D01*
X176497Y59568D01*
X176430Y59666D01*
X176370Y59769D01*
X176330Y59814D01*
X176318Y59831D01*
X176303Y59844D01*
X176263Y59889D01*
X175846Y60306D01*
X175846Y60307D01*
X175159Y60994D01*
X175159Y62222D01*
X175159Y65533D01*
X176726Y67101D01*
X176772Y67160D01*
X176825Y67212D01*
X176869Y67285D01*
X176921Y67352D01*
X176951Y67420D01*
X176989Y67484D01*
X177014Y67566D01*
X177047Y67644D01*
X177059Y67717D01*
X177081Y67789D01*
X177084Y67874D01*
X177097Y67958D01*
X177090Y68032D01*
X177093Y68107D01*
X177075Y68190D01*
X177068Y68275D01*
X177042Y68345D01*
X177035Y68378D01*
X177691Y70346D01*
X177693Y70355D01*
X177697Y70363D01*
X177724Y70508D01*
X177753Y70658D01*
X177753Y70667D01*
X177755Y70676D01*
X177744Y70826D01*
X177736Y70976D01*
X177733Y70984D01*
X177733Y70994D01*
X177691Y71149D01*
X177313Y72283D01*
X177281Y72351D01*
X177258Y72421D01*
X177213Y72493D01*
X177176Y72570D01*
X177128Y72627D01*
X177088Y72690D01*
X177026Y72748D01*
X176971Y72814D01*
X176911Y72857D01*
X176856Y72908D01*
X176782Y72949D01*
X176713Y72999D01*
X176643Y73026D01*
X176578Y73062D01*
X176496Y73083D01*
X176416Y73114D01*
X176342Y73122D01*
X176270Y73141D01*
X176109Y73151D01*
X165935Y73151D01*
X165886Y73145D01*
X165836Y73147D01*
X165728Y73125D01*
X165619Y73111D01*
X165573Y73093D01*
X165525Y73083D01*
X165426Y73035D01*
X165324Y72994D01*
X165284Y72965D01*
X165239Y72943D01*
X165155Y72872D01*
X165066Y72808D01*
X165035Y72769D01*
X164997Y72737D01*
X164934Y72647D01*
X164864Y72563D01*
X164842Y72518D01*
X164814Y72477D01*
X164775Y72374D01*
X164728Y72275D01*
X164719Y72226D01*
X164701Y72180D01*
X164689Y72070D01*
X164668Y71963D01*
X164671Y71913D01*
X164666Y71864D01*
X164681Y71755D01*
X164688Y71645D01*
X164703Y71598D01*
X164710Y71549D01*
X164762Y71396D01*
X164974Y70886D01*
X164974Y68814D01*
X164181Y66900D01*
X162716Y65435D01*
X160802Y64642D01*
X158730Y64642D01*
X156816Y65435D01*
X155351Y66900D01*
X154558Y68814D01*
X154558Y70886D01*
X154770Y71396D01*
X154783Y71444D01*
X154804Y71489D01*
X154825Y71597D01*
X154854Y71703D01*
X154854Y71753D01*
X154864Y71802D01*
X154857Y71911D01*
X154859Y72021D01*
X154847Y72069D01*
X154844Y72119D01*
X154810Y72223D01*
X154785Y72330D01*
X154761Y72374D01*
X154746Y72421D01*
X154687Y72514D01*
X154636Y72611D01*
X154602Y72648D01*
X154576Y72690D01*
X154496Y72765D01*
X154422Y72847D01*
X154380Y72874D01*
X154344Y72908D01*
X154248Y72961D01*
X154156Y73021D01*
X154109Y73038D01*
X154066Y73062D01*
X153959Y73089D01*
X153855Y73125D01*
X153806Y73129D01*
X153758Y73141D01*
X153597Y73151D01*
X139741Y73151D01*
X139604Y73134D01*
X139465Y73121D01*
X139446Y73114D01*
X139426Y73111D01*
X139297Y73060D01*
X139166Y73013D01*
X139149Y73002D01*
X139130Y72994D01*
X139018Y72913D01*
X138903Y72835D01*
X138889Y72819D01*
X138873Y72808D01*
X138784Y72700D01*
X138692Y72596D01*
X138683Y72578D01*
X138670Y72563D01*
X138611Y72437D01*
X138547Y72313D01*
X138543Y72293D01*
X138534Y72275D01*
X138508Y72139D01*
X138478Y72003D01*
X138478Y71982D01*
X138475Y71963D01*
X138483Y71824D01*
X138487Y71685D01*
X138493Y71665D01*
X138494Y71645D01*
X138537Y71513D01*
X138576Y71379D01*
X138586Y71362D01*
X138592Y71343D01*
X138667Y71225D01*
X138737Y71105D01*
X138756Y71084D01*
X138763Y71074D01*
X138778Y71060D01*
X138844Y70985D01*
X140961Y68867D01*
X145689Y64139D01*
X145768Y64078D01*
X145840Y64011D01*
X145893Y63981D01*
X145941Y63944D01*
X146032Y63905D01*
X146118Y63857D01*
X146177Y63842D01*
X146232Y63818D01*
X146330Y63802D01*
X146426Y63778D01*
X146526Y63771D01*
X146547Y63768D01*
X146559Y63769D01*
X146587Y63767D01*
X150150Y63767D01*
X152531Y61386D01*
X159402Y54516D01*
X159496Y54443D01*
X159585Y54364D01*
X159621Y54346D01*
X159653Y54321D01*
X159763Y54273D01*
X159868Y54219D01*
X159908Y54210D01*
X159945Y54194D01*
X160063Y54176D01*
X160179Y54150D01*
X160219Y54151D01*
X160259Y54145D01*
X160378Y54156D01*
X160497Y54159D01*
X160535Y54171D01*
X160576Y54174D01*
X160688Y54215D01*
X160802Y54248D01*
X160837Y54268D01*
X160875Y54282D01*
X160973Y54349D01*
X161076Y54409D01*
X161121Y54449D01*
X161138Y54461D01*
X161152Y54476D01*
X161197Y54516D01*
X162150Y55469D01*
X164064Y56262D01*
X166136Y56262D01*
X168050Y55469D01*
X169515Y54004D01*
X170308Y52090D01*
X170308Y50018D01*
X169515Y48104D01*
X168050Y46639D01*
X166136Y45846D01*
X164064Y45846D01*
X163617Y46031D01*
X163569Y46045D01*
X163524Y46066D01*
X163417Y46086D01*
X163310Y46115D01*
X163261Y46116D01*
X163212Y46125D01*
X163102Y46119D01*
X162993Y46120D01*
X162944Y46109D01*
X162895Y46106D01*
X162790Y46072D01*
X162683Y46046D01*
X162639Y46023D01*
X162592Y46008D01*
X162499Y45949D01*
X162402Y45898D01*
X162365Y45864D01*
X162323Y45838D01*
X162248Y45757D01*
X162167Y45684D01*
X162140Y45642D01*
X162105Y45606D01*
X162052Y45510D01*
X161992Y45418D01*
X161976Y45371D01*
X161952Y45327D01*
X161924Y45221D01*
X161889Y45117D01*
X161885Y45067D01*
X161872Y45019D01*
X161862Y44859D01*
X161862Y41544D01*
X161875Y41445D01*
X161878Y41346D01*
X161894Y41288D01*
X161902Y41228D01*
X161939Y41136D01*
X161966Y41041D01*
X161997Y40989D01*
X162019Y40932D01*
X162077Y40852D01*
X162128Y40767D01*
X162194Y40692D01*
X162206Y40675D01*
X162215Y40667D01*
X162234Y40646D01*
X162568Y40313D01*
X163299Y38547D01*
X163299Y36637D01*
X162568Y34871D01*
X161217Y33520D01*
X159451Y32789D01*
X157541Y32789D01*
X157013Y33008D01*
X156965Y33021D01*
X156920Y33042D01*
X156813Y33063D01*
X156706Y33092D01*
X156657Y33092D01*
X156608Y33102D01*
X156498Y33095D01*
X156389Y33097D01*
X156340Y33085D01*
X156291Y33082D01*
X156186Y33048D01*
X156079Y33023D01*
X156035Y32999D01*
X155988Y32984D01*
X155895Y32925D01*
X155798Y32874D01*
X155761Y32840D01*
X155719Y32814D01*
X155644Y32734D01*
X155563Y32660D01*
X155536Y32618D01*
X155501Y32582D01*
X155448Y32486D01*
X155388Y32394D01*
X155372Y32347D01*
X155348Y32304D01*
X155320Y32197D01*
X155285Y32093D01*
X155281Y32044D01*
X155268Y31996D01*
X155258Y31835D01*
X155258Y23832D01*
X153777Y22351D01*
X139974Y22351D01*
X139027Y23298D01*
X138933Y23371D01*
X138844Y23450D01*
X138808Y23468D01*
X138776Y23493D01*
X138666Y23540D01*
X138561Y23594D01*
X138521Y23603D01*
X138484Y23619D01*
X138366Y23638D01*
X138250Y23664D01*
X138210Y23663D01*
X138170Y23669D01*
X138051Y23658D01*
X137932Y23654D01*
X137894Y23643D01*
X137853Y23639D01*
X137741Y23599D01*
X137627Y23566D01*
X137592Y23545D01*
X137554Y23532D01*
X137455Y23465D01*
X137353Y23404D01*
X137308Y23364D01*
X137291Y23353D01*
X137277Y23338D01*
X137232Y23298D01*
X135538Y21604D01*
X135520Y21581D01*
X135498Y21561D01*
X135423Y21455D01*
X135343Y21353D01*
X135332Y21326D01*
X135315Y21301D01*
X135269Y21180D01*
X135217Y21061D01*
X135212Y21032D01*
X135202Y21004D01*
X135188Y20875D01*
X135167Y20747D01*
X135170Y20717D01*
X135167Y20688D01*
X135185Y20560D01*
X135197Y20430D01*
X135207Y20402D01*
X135211Y20373D01*
X135263Y20221D01*
X135875Y18744D01*
X135875Y16833D01*
X135144Y15068D01*
X133793Y13717D01*
X132028Y12986D01*
X130117Y12986D01*
X128352Y13717D01*
X127999Y14070D01*
X127975Y14088D01*
X127956Y14110D01*
X127850Y14185D01*
X127747Y14265D01*
X127720Y14276D01*
X127696Y14293D01*
X127575Y14339D01*
X127456Y14391D01*
X127426Y14396D01*
X127399Y14406D01*
X127270Y14420D01*
X127142Y14441D01*
X127112Y14438D01*
X127083Y14441D01*
X126954Y14423D01*
X126825Y14411D01*
X126797Y14401D01*
X126768Y14397D01*
X126616Y14345D01*
X124907Y13637D01*
X122997Y13637D01*
X121231Y14368D01*
X119880Y15719D01*
X119149Y17485D01*
X119149Y19395D01*
X119752Y20850D01*
X119765Y20898D01*
X119786Y20943D01*
X119807Y21051D01*
X119836Y21157D01*
X119837Y21207D01*
X119846Y21256D01*
X119839Y21365D01*
X119841Y21475D01*
X119829Y21523D01*
X119826Y21573D01*
X119792Y21677D01*
X119767Y21784D01*
X119744Y21828D01*
X119728Y21875D01*
X119669Y21968D01*
X119618Y22065D01*
X119585Y22102D01*
X119558Y22144D01*
X119478Y22219D01*
X119404Y22301D01*
X119363Y22328D01*
X119326Y22362D01*
X119230Y22415D01*
X119138Y22475D01*
X119091Y22492D01*
X119048Y22516D01*
X118942Y22543D01*
X118838Y22579D01*
X118788Y22583D01*
X118740Y22595D01*
X118579Y22605D01*
X118257Y22605D01*
X117411Y23451D01*
X117317Y23524D01*
X117228Y23602D01*
X117192Y23621D01*
X117160Y23646D01*
X117051Y23693D01*
X116945Y23747D01*
X116905Y23756D01*
X116868Y23772D01*
X116750Y23791D01*
X116634Y23817D01*
X116594Y23815D01*
X116554Y23822D01*
X116435Y23811D01*
X116317Y23807D01*
X116278Y23796D01*
X116237Y23792D01*
X116125Y23752D01*
X116011Y23719D01*
X115976Y23698D01*
X115938Y23684D01*
X115840Y23617D01*
X115737Y23557D01*
X115692Y23517D01*
X115675Y23506D01*
X115662Y23490D01*
X115616Y23451D01*
X114251Y22085D01*
X112485Y21354D01*
X110921Y21354D01*
X110892Y21350D01*
X110863Y21352D01*
X110735Y21330D01*
X110606Y21314D01*
X110578Y21303D01*
X110549Y21298D01*
X110431Y21244D01*
X110310Y21197D01*
X110286Y21179D01*
X110259Y21167D01*
X110158Y21086D01*
X110053Y21010D01*
X110034Y20987D01*
X110011Y20969D01*
X109933Y20865D01*
X109850Y20765D01*
X109837Y20738D01*
X109820Y20715D01*
X109749Y20570D01*
X109482Y19925D01*
X108576Y19020D01*
X108516Y18942D01*
X108448Y18870D01*
X108419Y18817D01*
X108382Y18769D01*
X108342Y18678D01*
X108294Y18591D01*
X108279Y18532D01*
X108255Y18477D01*
X108240Y18379D01*
X108215Y18283D01*
X108209Y18183D01*
X108205Y18163D01*
X108207Y18150D01*
X108205Y18122D01*
X108205Y16993D01*
X108217Y16895D01*
X108220Y16796D01*
X108237Y16738D01*
X108245Y16678D01*
X108281Y16585D01*
X108309Y16490D01*
X108339Y16438D01*
X108362Y16382D01*
X108420Y16302D01*
X108470Y16216D01*
X108536Y16141D01*
X108548Y16125D01*
X108558Y16117D01*
X108576Y16096D01*
X109736Y14937D01*
X110467Y13171D01*
X110467Y11261D01*
X109736Y9495D01*
X108385Y8144D01*
X106619Y7413D01*
X104709Y7413D01*
X102943Y8144D01*
X101592Y9495D01*
X100861Y11261D01*
X100861Y13171D01*
X101592Y14937D01*
X102244Y15588D01*
X102304Y15666D01*
X102372Y15738D01*
X102401Y15791D01*
X102438Y15839D01*
X102478Y15930D01*
X102526Y16016D01*
X102541Y16075D01*
X102565Y16131D01*
X102580Y16229D01*
X102605Y16324D01*
X102611Y16424D01*
X102615Y16445D01*
X102613Y16457D01*
X102615Y16485D01*
X102615Y18122D01*
X102603Y18221D01*
X102600Y18320D01*
X102583Y18378D01*
X102575Y18438D01*
X102539Y18530D01*
X102511Y18625D01*
X102481Y18677D01*
X102458Y18734D01*
X102400Y18814D01*
X102350Y18899D01*
X102284Y18974D01*
X102272Y18991D01*
X102262Y18999D01*
X102244Y19020D01*
X101338Y19925D01*
X100607Y21690D01*
X100607Y23601D01*
X101338Y25366D01*
X102689Y26717D01*
X104455Y27448D01*
X106019Y27448D01*
X106048Y27452D01*
X106077Y27450D01*
X106205Y27472D01*
X106334Y27488D01*
X106362Y27499D01*
X106391Y27504D01*
X106509Y27557D01*
X106630Y27605D01*
X106654Y27622D01*
X106681Y27635D01*
X106782Y27716D01*
X106887Y27792D01*
X106906Y27815D01*
X106929Y27833D01*
X107007Y27937D01*
X107090Y28037D01*
X107103Y28064D01*
X107120Y28087D01*
X107191Y28232D01*
X107458Y28877D01*
X108364Y29782D01*
X108424Y29860D01*
X108492Y29932D01*
X108521Y29985D01*
X108558Y30033D01*
X108598Y30124D01*
X108646Y30211D01*
X108661Y30269D01*
X108685Y30325D01*
X108700Y30423D01*
X108725Y30519D01*
X108731Y30619D01*
X108735Y30639D01*
X108733Y30651D01*
X108735Y30679D01*
X108735Y36488D01*
X113396Y41149D01*
X115507Y41149D01*
X115625Y41164D01*
X115743Y41171D01*
X115782Y41184D01*
X115822Y41189D01*
X115933Y41232D01*
X116046Y41269D01*
X116080Y41291D01*
X116118Y41306D01*
X116214Y41375D01*
X116315Y41439D01*
X116342Y41469D01*
X116375Y41492D01*
X116451Y41584D01*
X116533Y41671D01*
X116552Y41706D01*
X116578Y41737D01*
X116629Y41845D01*
X116686Y41949D01*
X116696Y41989D01*
X116713Y42025D01*
X116736Y42142D01*
X116745Y42177D01*
X117231Y42664D01*
X117304Y42758D01*
X117383Y42847D01*
X117402Y42883D01*
X117426Y42915D01*
X117474Y43024D01*
X117528Y43130D01*
X117537Y43169D01*
X117553Y43207D01*
X117571Y43324D01*
X117597Y43440D01*
X117596Y43481D01*
X117603Y43521D01*
X117591Y43639D01*
X117588Y43758D01*
X117577Y43797D01*
X117573Y43837D01*
X117532Y43949D01*
X117499Y44064D01*
X117479Y44099D01*
X117465Y44137D01*
X117398Y44235D01*
X117338Y44338D01*
X117298Y44383D01*
X117287Y44400D01*
X117271Y44413D01*
X117231Y44459D01*
X116776Y44914D01*
X116776Y44954D01*
X116770Y45004D01*
X116772Y45053D01*
X116756Y45130D01*
X116753Y45171D01*
X116745Y45196D01*
X116736Y45270D01*
X116718Y45316D01*
X116708Y45365D01*
X116659Y45464D01*
X116656Y45472D01*
X116655Y45473D01*
X116655Y45474D01*
X116619Y45566D01*
X116590Y45606D01*
X116568Y45650D01*
X116496Y45734D01*
X116432Y45823D01*
X116394Y45855D01*
X116361Y45892D01*
X116272Y45956D01*
X116187Y46026D01*
X116142Y46047D01*
X116101Y46075D01*
X115999Y46114D01*
X115899Y46161D01*
X115851Y46171D01*
X115804Y46188D01*
X115695Y46200D01*
X115587Y46221D01*
X115537Y46218D01*
X115488Y46223D01*
X115379Y46208D01*
X115270Y46201D01*
X115222Y46186D01*
X115173Y46179D01*
X115021Y46127D01*
X114708Y45997D01*
X113428Y45997D01*
X113330Y45985D01*
X113231Y45982D01*
X113172Y45965D01*
X113112Y45957D01*
X113020Y45921D01*
X112925Y45893D01*
X112873Y45863D01*
X112817Y45840D01*
X112737Y45782D01*
X112651Y45732D01*
X112576Y45666D01*
X112559Y45654D01*
X112552Y45644D01*
X112530Y45626D01*
X108687Y41782D01*
X76200Y41782D01*
X76082Y41767D01*
X75963Y41760D01*
X75925Y41747D01*
X75884Y41742D01*
X75774Y41699D01*
X75661Y41662D01*
X75626Y41640D01*
X75589Y41625D01*
X75493Y41556D01*
X75392Y41492D01*
X75364Y41462D01*
X75331Y41439D01*
X75255Y41347D01*
X75174Y41260D01*
X75154Y41225D01*
X75129Y41194D01*
X75078Y41086D01*
X75020Y40982D01*
X75010Y40942D01*
X74993Y40906D01*
X74971Y40789D01*
X74941Y40674D01*
X74937Y40614D01*
X74933Y40594D01*
X74935Y40573D01*
X74931Y40513D01*
X74931Y35826D01*
X73191Y31625D01*
X69975Y28409D01*
X66016Y26770D01*
X65904Y26706D01*
X65789Y26647D01*
X65766Y26627D01*
X65740Y26612D01*
X65647Y26522D01*
X65550Y26437D01*
X65533Y26412D01*
X65512Y26391D01*
X65444Y26280D01*
X65371Y26174D01*
X65361Y26145D01*
X65345Y26120D01*
X65307Y25996D01*
X65264Y25875D01*
X65261Y25845D01*
X65252Y25816D01*
X65246Y25687D01*
X65233Y25558D01*
X65238Y25528D01*
X65237Y25498D01*
X65263Y25372D01*
X65283Y25244D01*
X65295Y25216D01*
X65301Y25187D01*
X65358Y25070D01*
X65409Y24952D01*
X65427Y24928D01*
X65441Y24901D01*
X65525Y24803D01*
X65604Y24700D01*
X65627Y24682D01*
X65647Y24659D01*
X65753Y24585D01*
X65855Y24505D01*
X65882Y24493D01*
X65907Y24476D01*
X66028Y24430D01*
X66147Y24379D01*
X66188Y24369D01*
X66204Y24363D01*
X66226Y24361D01*
X66291Y24346D01*
X68083Y23764D01*
X69757Y22911D01*
X71278Y21806D01*
X72606Y20478D01*
X73711Y18957D01*
X74564Y17283D01*
X75145Y15496D01*
X75185Y15239D01*
X64770Y15239D01*
X64652Y15224D01*
X64533Y15217D01*
X64495Y15204D01*
X64455Y15199D01*
X64344Y15156D01*
X64231Y15119D01*
X64197Y15097D01*
X64159Y15082D01*
X64063Y15012D01*
X63962Y14949D01*
X63934Y14919D01*
X63902Y14895D01*
X63826Y14804D01*
X63744Y14717D01*
X63725Y14682D01*
X63699Y14651D01*
X63648Y14543D01*
X63591Y14439D01*
X63580Y14399D01*
X63563Y14363D01*
X63541Y14246D01*
X63511Y14131D01*
X63507Y14070D01*
X63503Y14050D01*
X63505Y14030D01*
X63501Y13970D01*
X63501Y11430D01*
X63516Y11312D01*
X63523Y11193D01*
X63536Y11155D01*
X63541Y11114D01*
X63585Y11004D01*
X63621Y10891D01*
X63643Y10856D01*
X63658Y10819D01*
X63728Y10723D01*
X63791Y10622D01*
X63821Y10594D01*
X63845Y10561D01*
X63936Y10486D01*
X64023Y10404D01*
X64058Y10384D01*
X64090Y10359D01*
X64197Y10308D01*
X64302Y10250D01*
X64341Y10240D01*
X64377Y10223D01*
X64494Y10201D01*
X64609Y10171D01*
X64670Y10167D01*
X64690Y10163D01*
X64710Y10165D01*
X64770Y10161D01*
X75185Y10161D01*
X75145Y9904D01*
X74564Y8117D01*
X73711Y6443D01*
X72709Y5064D01*
X72690Y5029D01*
X72665Y4999D01*
X72614Y4890D01*
X72556Y4785D01*
X72546Y4747D01*
X72529Y4711D01*
X72507Y4594D01*
X72477Y4477D01*
X72477Y4437D01*
X72469Y4398D01*
X72477Y4279D01*
X72477Y4159D01*
X72487Y4121D01*
X72489Y4081D01*
X72526Y3967D01*
X72556Y3851D01*
X72575Y3816D01*
X72587Y3779D01*
X72651Y3677D01*
X72709Y3573D01*
X72736Y3544D01*
X72757Y3510D01*
X72845Y3428D01*
X72926Y3341D01*
X72960Y3319D01*
X72989Y3292D01*
X73094Y3234D01*
X73195Y3170D01*
X73233Y3158D01*
X73267Y3138D01*
X73383Y3109D01*
X73497Y3071D01*
X73537Y3069D01*
X73575Y3059D01*
X73736Y3049D01*
X186182Y3049D01*
X186300Y3064D01*
G37*
G36*
X53303Y3054D02*
X53303Y3054D01*
X53343Y3051D01*
X53461Y3074D01*
X53579Y3089D01*
X53617Y3103D01*
X53656Y3111D01*
X53764Y3162D01*
X53875Y3206D01*
X53907Y3229D01*
X53943Y3246D01*
X54036Y3322D01*
X54133Y3392D01*
X54158Y3423D01*
X54189Y3448D01*
X54259Y3545D01*
X54335Y3637D01*
X54352Y3673D01*
X54376Y3706D01*
X54420Y3817D01*
X54471Y3925D01*
X54478Y3964D01*
X54493Y4001D01*
X54508Y4120D01*
X54531Y4237D01*
X54528Y4277D01*
X54533Y4317D01*
X54518Y4435D01*
X54511Y4555D01*
X54499Y4593D01*
X54494Y4632D01*
X54450Y4743D01*
X54413Y4857D01*
X54392Y4891D01*
X54377Y4928D01*
X54291Y5064D01*
X53289Y6443D01*
X52436Y8117D01*
X51855Y9904D01*
X51815Y10161D01*
X62230Y10161D01*
X62348Y10176D01*
X62467Y10183D01*
X62505Y10196D01*
X62545Y10201D01*
X62656Y10244D01*
X62769Y10281D01*
X62803Y10303D01*
X62841Y10318D01*
X62937Y10388D01*
X63038Y10451D01*
X63066Y10481D01*
X63098Y10504D01*
X63174Y10596D01*
X63256Y10683D01*
X63275Y10718D01*
X63301Y10749D01*
X63352Y10857D01*
X63409Y10961D01*
X63420Y11001D01*
X63437Y11037D01*
X63459Y11154D01*
X63489Y11269D01*
X63493Y11330D01*
X63497Y11350D01*
X63495Y11370D01*
X63499Y11430D01*
X63499Y13970D01*
X63484Y14088D01*
X63477Y14207D01*
X63464Y14245D01*
X63459Y14285D01*
X63415Y14396D01*
X63379Y14509D01*
X63357Y14544D01*
X63342Y14581D01*
X63272Y14677D01*
X63209Y14778D01*
X63179Y14806D01*
X63155Y14839D01*
X63064Y14914D01*
X62977Y14996D01*
X62942Y15016D01*
X62910Y15041D01*
X62803Y15092D01*
X62698Y15150D01*
X62659Y15160D01*
X62623Y15177D01*
X62506Y15199D01*
X62391Y15229D01*
X62330Y15233D01*
X62310Y15237D01*
X62290Y15235D01*
X62230Y15239D01*
X51815Y15239D01*
X51855Y15496D01*
X52436Y17283D01*
X53289Y18957D01*
X54394Y20478D01*
X55722Y21806D01*
X57243Y22911D01*
X58917Y23764D01*
X60734Y24354D01*
X60820Y24379D01*
X60946Y24410D01*
X60973Y24424D01*
X61002Y24432D01*
X61113Y24498D01*
X61227Y24558D01*
X61250Y24579D01*
X61276Y24594D01*
X61367Y24685D01*
X61463Y24772D01*
X61479Y24797D01*
X61500Y24819D01*
X61566Y24930D01*
X61637Y25038D01*
X61647Y25067D01*
X61663Y25092D01*
X61699Y25216D01*
X61741Y25339D01*
X61743Y25369D01*
X61751Y25398D01*
X61756Y25527D01*
X61766Y25656D01*
X61761Y25686D01*
X61762Y25716D01*
X61734Y25842D01*
X61711Y25969D01*
X61699Y25997D01*
X61693Y26026D01*
X61634Y26141D01*
X61581Y26259D01*
X61562Y26283D01*
X61548Y26310D01*
X61463Y26406D01*
X61382Y26508D01*
X61358Y26526D01*
X61338Y26548D01*
X61232Y26621D01*
X61128Y26699D01*
X61090Y26718D01*
X61076Y26727D01*
X61055Y26735D01*
X60984Y26770D01*
X57025Y28409D01*
X53809Y31625D01*
X52069Y35826D01*
X52069Y40374D01*
X53809Y44575D01*
X57025Y47791D01*
X61226Y49531D01*
X65774Y49531D01*
X69581Y47954D01*
X69715Y47917D01*
X69848Y47876D01*
X69869Y47875D01*
X69888Y47870D01*
X70027Y47867D01*
X70166Y47861D01*
X70186Y47865D01*
X70206Y47865D01*
X70341Y47897D01*
X70477Y47925D01*
X70496Y47934D01*
X70515Y47939D01*
X70638Y48004D01*
X70763Y48065D01*
X70779Y48078D01*
X70796Y48087D01*
X70899Y48181D01*
X71005Y48271D01*
X71017Y48288D01*
X71032Y48301D01*
X71108Y48417D01*
X71188Y48531D01*
X71195Y48550D01*
X71207Y48567D01*
X71252Y48698D01*
X71301Y48829D01*
X71303Y48849D01*
X71310Y48868D01*
X71321Y49006D01*
X71336Y49145D01*
X71333Y49165D01*
X71335Y49185D01*
X71311Y49322D01*
X71292Y49460D01*
X71283Y49486D01*
X71281Y49498D01*
X71272Y49517D01*
X71240Y49612D01*
X71143Y49845D01*
X71143Y51755D01*
X71874Y53521D01*
X73225Y54872D01*
X74991Y55603D01*
X76901Y55603D01*
X78667Y54872D01*
X80018Y53521D01*
X80557Y52219D01*
X80571Y52194D01*
X80580Y52166D01*
X80650Y52056D01*
X80714Y51943D01*
X80735Y51922D01*
X80750Y51897D01*
X80845Y51808D01*
X80935Y51715D01*
X80961Y51699D01*
X80982Y51679D01*
X81096Y51616D01*
X81207Y51548D01*
X81235Y51540D01*
X81261Y51525D01*
X81386Y51493D01*
X81510Y51455D01*
X81540Y51453D01*
X81569Y51446D01*
X81729Y51436D01*
X87221Y51436D01*
X87353Y51452D01*
X87485Y51463D01*
X87510Y51472D01*
X87537Y51476D01*
X87660Y51524D01*
X87785Y51568D01*
X87807Y51583D01*
X87832Y51593D01*
X87940Y51670D01*
X88050Y51744D01*
X88068Y51764D01*
X88090Y51779D01*
X88174Y51882D01*
X88263Y51980D01*
X88275Y52004D01*
X88293Y52024D01*
X88349Y52144D01*
X88410Y52262D01*
X88417Y52288D01*
X88428Y52312D01*
X88453Y52442D01*
X88483Y52571D01*
X88483Y52598D01*
X88488Y52624D01*
X88480Y52757D01*
X88477Y52889D01*
X88470Y52915D01*
X88468Y52942D01*
X88427Y53068D01*
X88392Y53196D01*
X88375Y53230D01*
X88370Y53244D01*
X88358Y53263D01*
X88348Y53284D01*
X88137Y54071D01*
X88137Y55627D01*
X95695Y55627D01*
X95695Y55499D01*
X95707Y55480D01*
X95711Y55458D01*
X95726Y55451D01*
X95732Y55442D01*
X95742Y55443D01*
X95758Y55436D01*
X98298Y55436D01*
X98317Y55448D01*
X98339Y55452D01*
X98346Y55467D01*
X98355Y55473D01*
X98354Y55483D01*
X98361Y55499D01*
X98361Y69469D01*
X98349Y69488D01*
X98345Y69510D01*
X98330Y69517D01*
X98324Y69526D01*
X98314Y69525D01*
X98298Y69532D01*
X95758Y69532D01*
X95739Y69520D01*
X95717Y69516D01*
X95710Y69501D01*
X95701Y69495D01*
X95702Y69485D01*
X95695Y69469D01*
X95695Y58927D01*
X88137Y58927D01*
X88137Y60483D01*
X88344Y61256D01*
X88745Y61950D01*
X88815Y62040D01*
X88893Y62129D01*
X88912Y62165D01*
X88937Y62197D01*
X88984Y62306D01*
X89038Y62412D01*
X89047Y62452D01*
X89063Y62489D01*
X89082Y62606D01*
X89108Y62723D01*
X89106Y62763D01*
X89113Y62803D01*
X89102Y62922D01*
X89098Y63041D01*
X89087Y63079D01*
X89083Y63119D01*
X89043Y63232D01*
X89010Y63346D01*
X88989Y63381D01*
X88975Y63419D01*
X88909Y63517D01*
X88848Y63620D01*
X88808Y63665D01*
X88797Y63682D01*
X88782Y63695D01*
X88742Y63741D01*
X88645Y63837D01*
X88645Y71882D01*
X88630Y72000D01*
X88623Y72119D01*
X88610Y72157D01*
X88605Y72198D01*
X88562Y72308D01*
X88525Y72421D01*
X88503Y72456D01*
X88488Y72493D01*
X88419Y72589D01*
X88355Y72690D01*
X88325Y72718D01*
X88302Y72751D01*
X88210Y72827D01*
X88123Y72908D01*
X88088Y72928D01*
X88057Y72953D01*
X87949Y73004D01*
X87845Y73062D01*
X87805Y73072D01*
X87769Y73089D01*
X87652Y73111D01*
X87537Y73141D01*
X87477Y73145D01*
X87457Y73149D01*
X87436Y73147D01*
X87376Y73151D01*
X12716Y73151D01*
X12578Y73134D01*
X12439Y73121D01*
X12420Y73114D01*
X12400Y73111D01*
X12271Y73060D01*
X12140Y73013D01*
X12123Y73002D01*
X12105Y72994D01*
X11992Y72913D01*
X11877Y72835D01*
X11864Y72819D01*
X11847Y72808D01*
X11758Y72700D01*
X11667Y72596D01*
X11657Y72578D01*
X11644Y72563D01*
X11585Y72437D01*
X11522Y72313D01*
X11518Y72293D01*
X11509Y72275D01*
X11483Y72138D01*
X11452Y72003D01*
X11453Y71982D01*
X11449Y71963D01*
X11458Y71824D01*
X11462Y71685D01*
X11468Y71665D01*
X11469Y71645D01*
X11512Y71513D01*
X11550Y71379D01*
X11561Y71362D01*
X11567Y71343D01*
X11641Y71225D01*
X11712Y71105D01*
X11730Y71084D01*
X11737Y71074D01*
X11752Y71060D01*
X11818Y70984D01*
X12289Y70514D01*
X13082Y68600D01*
X13082Y66528D01*
X12289Y64614D01*
X10824Y63149D01*
X8910Y62356D01*
X6838Y62356D01*
X4804Y63199D01*
X4756Y63212D01*
X4711Y63233D01*
X4603Y63254D01*
X4497Y63283D01*
X4447Y63284D01*
X4398Y63293D01*
X4289Y63286D01*
X4179Y63288D01*
X4131Y63276D01*
X4081Y63273D01*
X3977Y63239D01*
X3870Y63214D01*
X3826Y63191D01*
X3779Y63175D01*
X3686Y63116D01*
X3589Y63065D01*
X3552Y63032D01*
X3510Y63005D01*
X3435Y62925D01*
X3353Y62851D01*
X3326Y62810D01*
X3292Y62773D01*
X3239Y62677D01*
X3179Y62585D01*
X3162Y62538D01*
X3138Y62495D01*
X3111Y62389D01*
X3075Y62285D01*
X3071Y62235D01*
X3059Y62187D01*
X3049Y62026D01*
X3049Y47305D01*
X3067Y47160D01*
X3082Y47015D01*
X3087Y47003D01*
X3089Y46989D01*
X3142Y46854D01*
X3193Y46717D01*
X3201Y46706D01*
X3206Y46694D01*
X3291Y46576D01*
X3374Y46456D01*
X3385Y46447D01*
X3392Y46436D01*
X3504Y46343D01*
X3615Y46248D01*
X3627Y46242D01*
X3637Y46233D01*
X3769Y46172D01*
X3900Y46106D01*
X3913Y46104D01*
X3925Y46098D01*
X4067Y46071D01*
X4211Y46040D01*
X4224Y46041D01*
X4237Y46038D01*
X4382Y46047D01*
X4528Y46053D01*
X4541Y46057D01*
X4555Y46058D01*
X4693Y46103D01*
X4833Y46145D01*
X4845Y46152D01*
X4857Y46156D01*
X4980Y46234D01*
X5105Y46309D01*
X5115Y46319D01*
X5126Y46326D01*
X5226Y46432D01*
X5328Y46536D01*
X5338Y46551D01*
X5344Y46558D01*
X5352Y46573D01*
X5417Y46670D01*
X8605Y52192D01*
X14438Y57087D01*
X21593Y59691D01*
X29207Y59691D01*
X36362Y57087D01*
X42195Y52192D01*
X46002Y45598D01*
X47324Y38100D01*
X46002Y30602D01*
X42195Y24008D01*
X36362Y19113D01*
X29207Y16509D01*
X21593Y16509D01*
X14438Y19113D01*
X8605Y24008D01*
X5417Y29530D01*
X5329Y29646D01*
X5244Y29764D01*
X5233Y29772D01*
X5225Y29783D01*
X5111Y29873D01*
X4999Y29967D01*
X4986Y29972D01*
X4976Y29981D01*
X4842Y30040D01*
X4711Y30102D01*
X4698Y30105D01*
X4685Y30110D01*
X4541Y30135D01*
X4398Y30162D01*
X4385Y30161D01*
X4372Y30163D01*
X4226Y30151D01*
X4081Y30142D01*
X4068Y30138D01*
X4055Y30137D01*
X3917Y30089D01*
X3779Y30044D01*
X3767Y30037D01*
X3754Y30032D01*
X3633Y29952D01*
X3510Y29874D01*
X3501Y29864D01*
X3489Y29857D01*
X3392Y29749D01*
X3292Y29642D01*
X3285Y29630D01*
X3276Y29620D01*
X3209Y29492D01*
X3138Y29364D01*
X3135Y29351D01*
X3129Y29339D01*
X3095Y29197D01*
X3059Y29056D01*
X3058Y29038D01*
X3056Y29029D01*
X3056Y29012D01*
X3049Y28895D01*
X3049Y4318D01*
X3064Y4200D01*
X3071Y4081D01*
X3084Y4043D01*
X3089Y4002D01*
X3132Y3892D01*
X3169Y3779D01*
X3191Y3744D01*
X3206Y3707D01*
X3275Y3611D01*
X3339Y3510D01*
X3369Y3482D01*
X3392Y3449D01*
X3484Y3373D01*
X3571Y3292D01*
X3606Y3272D01*
X3637Y3247D01*
X3745Y3196D01*
X3849Y3138D01*
X3889Y3128D01*
X3925Y3111D01*
X4042Y3089D01*
X4157Y3059D01*
X4217Y3055D01*
X4237Y3051D01*
X4258Y3053D01*
X4318Y3049D01*
X53264Y3049D01*
X53303Y3054D01*
G37*
%LPC*%
G36*
X176764Y32892D02*
X176764Y32892D01*
X174850Y33685D01*
X173385Y35150D01*
X172592Y37064D01*
X172592Y39136D01*
X173385Y41050D01*
X174850Y42515D01*
X176764Y43308D01*
X178836Y43308D01*
X180750Y42515D01*
X182215Y41050D01*
X183008Y39136D01*
X183008Y37064D01*
X182215Y35150D01*
X180750Y33685D01*
X178836Y32892D01*
X176764Y32892D01*
G37*
%LPD*%
%LPC*%
G36*
X164064Y20192D02*
X164064Y20192D01*
X162150Y20985D01*
X160685Y22450D01*
X159892Y24364D01*
X159892Y26436D01*
X160685Y28350D01*
X162150Y29815D01*
X164064Y30608D01*
X166136Y30608D01*
X168050Y29815D01*
X169515Y28350D01*
X170308Y26436D01*
X170308Y24364D01*
X169515Y22450D01*
X168050Y20985D01*
X166136Y20192D01*
X164064Y20192D01*
G37*
%LPD*%
G36*
X148164Y25730D02*
X148164Y25730D01*
X148187Y25734D01*
X148194Y25749D01*
X148203Y25755D01*
X148201Y25765D01*
X148208Y25781D01*
X148208Y50419D01*
X148196Y50438D01*
X148193Y50460D01*
X148177Y50467D01*
X148171Y50476D01*
X148161Y50475D01*
X148146Y50482D01*
X145606Y50482D01*
X145587Y50470D01*
X145564Y50466D01*
X145557Y50451D01*
X145548Y50445D01*
X145550Y50435D01*
X145543Y50419D01*
X145543Y25781D01*
X145555Y25762D01*
X145558Y25740D01*
X145574Y25733D01*
X145580Y25724D01*
X145590Y25725D01*
X145606Y25718D01*
X148146Y25718D01*
X148164Y25730D01*
G37*
G36*
X126447Y25984D02*
X126447Y25984D01*
X126470Y25988D01*
X126477Y26003D01*
X126486Y26009D01*
X126484Y26019D01*
X126491Y26035D01*
X126491Y40259D01*
X126479Y40278D01*
X126476Y40300D01*
X126460Y40307D01*
X126454Y40316D01*
X126444Y40315D01*
X126429Y40322D01*
X123889Y40322D01*
X123870Y40310D01*
X123847Y40306D01*
X123840Y40291D01*
X123831Y40285D01*
X123833Y40275D01*
X123826Y40259D01*
X123826Y26035D01*
X123838Y26016D01*
X123841Y25994D01*
X123857Y25987D01*
X123863Y25978D01*
X123873Y25979D01*
X123889Y25972D01*
X126429Y25972D01*
X126447Y25984D01*
G37*
D10*
X180199Y72866D02*
X184436Y70748D01*
X180199Y68629D01*
X179140Y65382D02*
X183377Y65382D01*
X179140Y65382D02*
X178080Y64323D01*
X178080Y62204D01*
X179140Y61145D01*
X183377Y61145D01*
X184436Y62204D01*
X184436Y64323D01*
X183377Y65382D01*
X179140Y61145D01*
X180199Y57898D02*
X178080Y55779D01*
X184436Y55779D01*
X184436Y53661D02*
X184436Y57898D01*
D11*
X119304Y51575D02*
X119304Y45961D01*
X119304Y51575D02*
X131014Y51575D01*
X131014Y45961D01*
X119304Y45961D01*
X119304Y46902D02*
X131014Y46902D01*
X131014Y47843D02*
X119304Y47843D01*
X119304Y48784D02*
X131014Y48784D01*
X131014Y49725D02*
X119304Y49725D01*
X119304Y50666D02*
X131014Y50666D01*
X119304Y41161D02*
X119304Y35547D01*
X119304Y41161D02*
X131014Y41161D01*
X131014Y35547D01*
X119304Y35547D01*
X119304Y36488D02*
X131014Y36488D01*
X131014Y37429D02*
X119304Y37429D01*
X119304Y38370D02*
X131014Y38370D01*
X131014Y39311D02*
X119304Y39311D01*
X119304Y40252D02*
X131014Y40252D01*
X119304Y30747D02*
X119304Y25133D01*
X119304Y30747D02*
X131014Y30747D01*
X131014Y25133D01*
X119304Y25133D01*
X119304Y26074D02*
X131014Y26074D01*
X131014Y27015D02*
X119304Y27015D01*
X119304Y27956D02*
X131014Y27956D01*
X131014Y28897D02*
X119304Y28897D01*
X119304Y29838D02*
X131014Y29838D01*
X141021Y45707D02*
X141021Y51321D01*
X152731Y51321D01*
X152731Y45707D01*
X141021Y45707D01*
X141021Y46648D02*
X152731Y46648D01*
X152731Y47589D02*
X141021Y47589D01*
X141021Y48530D02*
X152731Y48530D01*
X152731Y49471D02*
X141021Y49471D01*
X141021Y50412D02*
X152731Y50412D01*
X141021Y40907D02*
X141021Y35293D01*
X141021Y40907D02*
X152731Y40907D01*
X152731Y35293D01*
X141021Y35293D01*
X141021Y36234D02*
X152731Y36234D01*
X152731Y37175D02*
X141021Y37175D01*
X141021Y38116D02*
X152731Y38116D01*
X152731Y39057D02*
X141021Y39057D01*
X141021Y39998D02*
X152731Y39998D01*
X141021Y30493D02*
X141021Y24879D01*
X141021Y30493D02*
X152731Y30493D01*
X152731Y24879D01*
X141021Y24879D01*
X141021Y25820D02*
X152731Y25820D01*
X152731Y26761D02*
X141021Y26761D01*
X141021Y27702D02*
X152731Y27702D01*
X152731Y28643D02*
X141021Y28643D01*
X141021Y29584D02*
X152731Y29584D01*
D12*
X159766Y69850D03*
X7874Y67564D03*
D11*
X102883Y60084D02*
X102883Y54470D01*
X91173Y54470D01*
X91173Y60084D01*
X102883Y60084D01*
X102883Y55411D02*
X91173Y55411D01*
X91173Y56352D02*
X102883Y56352D01*
X102883Y57293D02*
X91173Y57293D01*
X91173Y58234D02*
X102883Y58234D01*
X102883Y59175D02*
X91173Y59175D01*
X102883Y64884D02*
X102883Y70498D01*
X102883Y64884D02*
X91173Y64884D01*
X91173Y70498D01*
X102883Y70498D01*
X102883Y65825D02*
X91173Y65825D01*
X91173Y66766D02*
X102883Y66766D01*
X102883Y67707D02*
X91173Y67707D01*
X91173Y68648D02*
X102883Y68648D01*
X102883Y69589D02*
X91173Y69589D01*
D13*
X63500Y12700D03*
X63500Y38100D03*
D12*
X165100Y51054D03*
X177800Y38100D03*
X165100Y25400D03*
D14*
X149352Y69088D03*
X140462Y14732D03*
X99060Y6858D03*
X62230Y53848D03*
X175260Y46990D03*
X87122Y62738D03*
X160020Y9398D03*
X105410Y22646D03*
X105664Y12216D03*
D15*
X105410Y12470D01*
X105410Y22646D01*
D14*
X111530Y26156D03*
D15*
X111530Y35330D01*
X114554Y38354D02*
X125159Y38354D01*
X114554Y38354D02*
X111530Y35330D01*
D14*
X113753Y50800D03*
D15*
X107530Y44577D01*
X69977Y44577D02*
X63500Y38100D01*
X69977Y44577D02*
X107530Y44577D01*
D14*
X75946Y50800D03*
X158496Y37592D03*
D16*
X147384Y37592D01*
X146876Y38100D01*
D14*
X113078Y60452D03*
D16*
X111046Y58420D01*
X111046Y57706D01*
X101346Y48006D01*
X78740Y48006D01*
X75946Y50800D01*
X113078Y60452D02*
X113078Y60960D01*
X158433Y37656D02*
X158496Y37592D01*
X158433Y37656D02*
X158433Y50635D01*
X148730Y60338D01*
X144640Y60338D02*
X137160Y67818D01*
X119936Y67818D01*
X144640Y60338D02*
X148730Y60338D01*
X119936Y67818D02*
X113078Y60960D01*
D14*
X133604Y61214D03*
D15*
X133604Y51054D01*
X136144Y48514D02*
X146876Y48514D01*
X136144Y48514D02*
X133604Y51054D01*
D14*
X131072Y17788D03*
D15*
X131072Y21090D02*
X137668Y27686D01*
X131072Y21090D02*
X131072Y17788D01*
X137668Y27686D02*
X146876Y27686D01*
D14*
X112776Y69088D03*
D15*
X111379Y67691D01*
X97028Y67691D01*
D14*
X123952Y18440D03*
D15*
X123952Y26734D01*
X125159Y27940D01*
D14*
X119888Y58166D03*
D15*
X119888Y50229D01*
X121349Y48768D02*
X125159Y48768D01*
X121349Y48768D02*
X119888Y50229D01*
M02*
