M48
;GenerationSoftware,Autodesk,EAGLE,9.6.2*%
;CreationDate,2022-04-08T18:11:04Z*%
FMAT,2
ICI,OFF
METRIC,TZ,000.000
T4C0.300
T3C0.381
T2C1.016
T1C3.048
%
G90
M71
T1
X2540Y3810
T2
X6350Y1270
X6350Y3810
T3
X16510Y5105
X17780Y3810
X16510Y2540
T4
X14935Y6909
X14046Y1473
X9906Y686
X6223Y5385
X17526Y4699
X8712Y6274
X16002Y940
X10541Y2265
X10566Y1222
X11153Y2616
X11375Y5080
X7595Y5080
X15850Y3759
X11308Y6045
X13360Y6121
X13107Y1779
X11278Y6909
X12395Y1844
X11989Y5817
M30