G04 EAGLE Gerber RS-274X export*
G75*
%MOMM*%
%FSLAX34Y34*%
%LPD*%
%INSoldermask Bottom*%
%IPPOS*%
%AMOC8*
5,1,8,0,0,1.08239X$1,22.5*%
G01*
%ADD10C,0.228344*%
%ADD11C,3.175000*%
%ADD12C,2.006600*%
%ADD13C,0.762000*%

G36*
X56262Y55892D02*
X56262Y55892D01*
X56328Y55894D01*
X56372Y55912D01*
X56418Y55920D01*
X56475Y55954D01*
X56536Y55979D01*
X56571Y56010D01*
X56612Y56035D01*
X56653Y56086D01*
X56702Y56130D01*
X56723Y56172D01*
X56753Y56209D01*
X56774Y56271D01*
X56804Y56330D01*
X56812Y56384D01*
X56825Y56421D01*
X56824Y56461D01*
X56832Y56515D01*
X56832Y60325D01*
X56820Y60390D01*
X56818Y60456D01*
X56800Y60499D01*
X56792Y60546D01*
X56759Y60603D01*
X56734Y60663D01*
X56702Y60698D01*
X56678Y60739D01*
X56627Y60781D01*
X56582Y60829D01*
X56540Y60851D01*
X56504Y60880D01*
X56442Y60901D01*
X56383Y60932D01*
X56328Y60940D01*
X56291Y60952D01*
X56252Y60951D01*
X56198Y60959D01*
X53658Y60959D01*
X53593Y60948D01*
X53527Y60946D01*
X53483Y60928D01*
X53437Y60920D01*
X53380Y60886D01*
X53319Y60861D01*
X53284Y60830D01*
X53243Y60805D01*
X53202Y60754D01*
X53153Y60710D01*
X53132Y60668D01*
X53102Y60631D01*
X53081Y60569D01*
X53051Y60510D01*
X53043Y60456D01*
X53030Y60419D01*
X53030Y60415D01*
X53030Y60414D01*
X53031Y60379D01*
X53023Y60325D01*
X53023Y56515D01*
X53035Y56450D01*
X53037Y56384D01*
X53055Y56341D01*
X53063Y56294D01*
X53096Y56237D01*
X53121Y56177D01*
X53153Y56142D01*
X53177Y56101D01*
X53228Y56060D01*
X53273Y56011D01*
X53315Y55989D01*
X53351Y55960D01*
X53414Y55939D01*
X53472Y55908D01*
X53527Y55900D01*
X53564Y55888D01*
X53603Y55889D01*
X53658Y55881D01*
X56198Y55881D01*
X56262Y55892D01*
G37*
G36*
X56262Y66052D02*
X56262Y66052D01*
X56328Y66054D01*
X56372Y66072D01*
X56418Y66080D01*
X56475Y66114D01*
X56536Y66139D01*
X56571Y66170D01*
X56612Y66195D01*
X56653Y66246D01*
X56702Y66290D01*
X56723Y66332D01*
X56753Y66369D01*
X56774Y66431D01*
X56804Y66490D01*
X56812Y66544D01*
X56825Y66581D01*
X56824Y66621D01*
X56832Y66675D01*
X56832Y70485D01*
X56820Y70550D01*
X56818Y70616D01*
X56800Y70659D01*
X56792Y70706D01*
X56759Y70763D01*
X56734Y70823D01*
X56702Y70858D01*
X56678Y70899D01*
X56627Y70941D01*
X56582Y70989D01*
X56540Y71011D01*
X56504Y71040D01*
X56442Y71061D01*
X56383Y71092D01*
X56328Y71100D01*
X56291Y71112D01*
X56252Y71111D01*
X56198Y71119D01*
X53658Y71119D01*
X53593Y71108D01*
X53527Y71106D01*
X53483Y71088D01*
X53437Y71080D01*
X53380Y71046D01*
X53319Y71021D01*
X53284Y70990D01*
X53243Y70965D01*
X53202Y70914D01*
X53153Y70870D01*
X53132Y70828D01*
X53102Y70791D01*
X53081Y70729D01*
X53051Y70670D01*
X53043Y70616D01*
X53030Y70579D01*
X53030Y70575D01*
X53030Y70574D01*
X53031Y70539D01*
X53023Y70485D01*
X53023Y66675D01*
X53035Y66610D01*
X53037Y66544D01*
X53055Y66501D01*
X53063Y66454D01*
X53096Y66397D01*
X53121Y66337D01*
X53153Y66302D01*
X53177Y66261D01*
X53228Y66220D01*
X53273Y66171D01*
X53315Y66149D01*
X53351Y66120D01*
X53414Y66099D01*
X53472Y66068D01*
X53527Y66060D01*
X53564Y66048D01*
X53603Y66049D01*
X53658Y66041D01*
X56198Y66041D01*
X56262Y66052D01*
G37*
G36*
X192851Y58178D02*
X192851Y58178D01*
X192917Y58180D01*
X192960Y58198D01*
X193007Y58206D01*
X193064Y58240D01*
X193124Y58265D01*
X193159Y58296D01*
X193200Y58321D01*
X193242Y58372D01*
X193290Y58416D01*
X193312Y58458D01*
X193341Y58495D01*
X193362Y58557D01*
X193393Y58616D01*
X193401Y58670D01*
X193413Y58707D01*
X193412Y58747D01*
X193420Y58801D01*
X193420Y62611D01*
X193409Y62676D01*
X193407Y62742D01*
X193389Y62785D01*
X193381Y62832D01*
X193347Y62889D01*
X193322Y62949D01*
X193291Y62984D01*
X193266Y63025D01*
X193215Y63067D01*
X193171Y63115D01*
X193129Y63137D01*
X193092Y63166D01*
X193030Y63187D01*
X192971Y63218D01*
X192917Y63226D01*
X192880Y63238D01*
X192840Y63237D01*
X192786Y63245D01*
X190246Y63245D01*
X190181Y63234D01*
X190115Y63232D01*
X190072Y63214D01*
X190025Y63206D01*
X189968Y63172D01*
X189908Y63147D01*
X189873Y63116D01*
X189832Y63091D01*
X189791Y63040D01*
X189742Y62996D01*
X189720Y62954D01*
X189691Y62917D01*
X189670Y62855D01*
X189639Y62796D01*
X189631Y62742D01*
X189619Y62705D01*
X189619Y62701D01*
X189619Y62700D01*
X189620Y62665D01*
X189612Y62611D01*
X189612Y58801D01*
X189623Y58736D01*
X189625Y58670D01*
X189643Y58627D01*
X189651Y58580D01*
X189685Y58523D01*
X189710Y58463D01*
X189741Y58428D01*
X189766Y58387D01*
X189817Y58346D01*
X189861Y58297D01*
X189903Y58275D01*
X189940Y58246D01*
X190002Y58225D01*
X190061Y58194D01*
X190115Y58186D01*
X190152Y58174D01*
X190192Y58175D01*
X190246Y58167D01*
X192786Y58167D01*
X192851Y58178D01*
G37*
G36*
X169546Y55384D02*
X169546Y55384D01*
X169612Y55386D01*
X169656Y55404D01*
X169702Y55412D01*
X169759Y55446D01*
X169820Y55471D01*
X169855Y55502D01*
X169896Y55527D01*
X169937Y55578D01*
X169986Y55622D01*
X170007Y55664D01*
X170037Y55701D01*
X170058Y55763D01*
X170088Y55822D01*
X170096Y55876D01*
X170109Y55913D01*
X170108Y55953D01*
X170116Y56007D01*
X170116Y59817D01*
X170104Y59882D01*
X170102Y59948D01*
X170084Y59991D01*
X170076Y60038D01*
X170043Y60095D01*
X170018Y60155D01*
X169986Y60190D01*
X169962Y60231D01*
X169911Y60273D01*
X169866Y60321D01*
X169824Y60343D01*
X169788Y60372D01*
X169726Y60393D01*
X169667Y60424D01*
X169612Y60432D01*
X169575Y60444D01*
X169536Y60443D01*
X169482Y60451D01*
X166942Y60451D01*
X166877Y60440D01*
X166811Y60438D01*
X166767Y60420D01*
X166721Y60412D01*
X166664Y60378D01*
X166603Y60353D01*
X166568Y60322D01*
X166527Y60297D01*
X166486Y60246D01*
X166437Y60202D01*
X166416Y60160D01*
X166386Y60123D01*
X166365Y60061D01*
X166335Y60002D01*
X166327Y59948D01*
X166314Y59911D01*
X166314Y59907D01*
X166314Y59906D01*
X166315Y59871D01*
X166307Y59817D01*
X166307Y56007D01*
X166319Y55942D01*
X166321Y55876D01*
X166339Y55833D01*
X166347Y55786D01*
X166380Y55729D01*
X166405Y55669D01*
X166437Y55634D01*
X166461Y55593D01*
X166512Y55552D01*
X166557Y55503D01*
X166599Y55481D01*
X166635Y55452D01*
X166698Y55431D01*
X166756Y55400D01*
X166811Y55392D01*
X166848Y55380D01*
X166887Y55381D01*
X166942Y55373D01*
X169482Y55373D01*
X169546Y55384D01*
G37*
D10*
X174056Y45214D02*
X174056Y39622D01*
X162368Y39622D01*
X162368Y45214D01*
X174056Y45214D01*
X174056Y41791D02*
X162368Y41791D01*
X162368Y43960D02*
X174056Y43960D01*
X174056Y50036D02*
X174056Y55628D01*
X174056Y50036D02*
X162368Y50036D01*
X162368Y55628D01*
X174056Y55628D01*
X174056Y52205D02*
X162368Y52205D01*
X162368Y54374D02*
X174056Y54374D01*
X174056Y60450D02*
X174056Y66042D01*
X174056Y60450D02*
X162368Y60450D01*
X162368Y66042D01*
X174056Y66042D01*
X174056Y62619D02*
X162368Y62619D01*
X162368Y64788D02*
X174056Y64788D01*
D11*
X25400Y101600D03*
X25400Y25400D03*
D10*
X49084Y71118D02*
X49084Y76710D01*
X60772Y76710D01*
X60772Y71118D01*
X49084Y71118D01*
X49084Y73287D02*
X60772Y73287D01*
X60772Y75456D02*
X49084Y75456D01*
X49084Y66296D02*
X49084Y60704D01*
X49084Y66296D02*
X60772Y66296D01*
X60772Y60704D01*
X49084Y60704D01*
X49084Y62873D02*
X60772Y62873D01*
X60772Y65042D02*
X49084Y65042D01*
X49084Y55882D02*
X49084Y50290D01*
X49084Y55882D02*
X60772Y55882D01*
X60772Y50290D01*
X49084Y50290D01*
X49084Y52459D02*
X60772Y52459D01*
X60772Y54628D02*
X49084Y54628D01*
D12*
X190500Y12700D03*
X165100Y12700D03*
X139700Y12700D03*
X114300Y12700D03*
X88900Y12700D03*
X63500Y12700D03*
X63500Y114300D03*
X88900Y114300D03*
X114300Y114300D03*
X139700Y114300D03*
X165100Y114300D03*
X190500Y114300D03*
D13*
X55626Y88900D03*
X177800Y23876D03*
D10*
X197360Y52703D02*
X197360Y58295D01*
X197360Y52703D02*
X185672Y52703D01*
X185672Y58295D01*
X197360Y58295D01*
X197360Y54872D02*
X185672Y54872D01*
X185672Y57041D02*
X197360Y57041D01*
X197360Y63117D02*
X197360Y68709D01*
X197360Y63117D02*
X185672Y63117D01*
X185672Y68709D01*
X197360Y68709D01*
X197360Y65286D02*
X185672Y65286D01*
X185672Y67455D02*
X197360Y67455D01*
M02*
