G04 EAGLE Gerber RS-274X export*
G75*
%MOMM*%
%FSLAX34Y34*%
%LPD*%
%INBottom Copper*%
%IPPOS*%
%AMOC8*
5,1,8,0,0,1.08239X$1,22.5*%
G01*
%ADD10C,0.177800*%
%ADD11C,0.099059*%
%ADD12C,1.879600*%
%ADD13C,0.635000*%
%ADD14C,0.554000*%
%ADD15C,0.152400*%
%ADD16C,0.254000*%

G36*
X53303Y3054D02*
X53303Y3054D01*
X53343Y3051D01*
X53461Y3074D01*
X53579Y3089D01*
X53617Y3103D01*
X53656Y3111D01*
X53764Y3162D01*
X53875Y3206D01*
X53907Y3229D01*
X53943Y3246D01*
X54036Y3322D01*
X54133Y3392D01*
X54158Y3423D01*
X54189Y3448D01*
X54259Y3545D01*
X54335Y3637D01*
X54352Y3673D01*
X54376Y3706D01*
X54420Y3817D01*
X54471Y3925D01*
X54478Y3964D01*
X54493Y4001D01*
X54508Y4120D01*
X54531Y4237D01*
X54528Y4277D01*
X54533Y4317D01*
X54518Y4435D01*
X54511Y4555D01*
X54499Y4593D01*
X54494Y4632D01*
X54450Y4743D01*
X54413Y4857D01*
X54392Y4891D01*
X54377Y4928D01*
X54291Y5064D01*
X53289Y6443D01*
X52436Y8117D01*
X51855Y9904D01*
X51815Y10161D01*
X62230Y10161D01*
X62348Y10176D01*
X62467Y10183D01*
X62505Y10196D01*
X62545Y10201D01*
X62656Y10244D01*
X62769Y10281D01*
X62803Y10303D01*
X62841Y10318D01*
X62937Y10388D01*
X63038Y10451D01*
X63066Y10481D01*
X63098Y10504D01*
X63174Y10596D01*
X63256Y10683D01*
X63275Y10718D01*
X63301Y10749D01*
X63352Y10857D01*
X63409Y10961D01*
X63420Y11001D01*
X63437Y11037D01*
X63459Y11154D01*
X63489Y11269D01*
X63493Y11330D01*
X63497Y11350D01*
X63495Y11370D01*
X63499Y11430D01*
X63499Y12701D01*
X64770Y12701D01*
X64888Y12716D01*
X65007Y12723D01*
X65045Y12736D01*
X65085Y12741D01*
X65196Y12785D01*
X65309Y12821D01*
X65344Y12843D01*
X65381Y12858D01*
X65477Y12928D01*
X65578Y12991D01*
X65606Y13021D01*
X65639Y13045D01*
X65714Y13136D01*
X65796Y13223D01*
X65816Y13258D01*
X65841Y13290D01*
X65892Y13397D01*
X65950Y13502D01*
X65960Y13541D01*
X65977Y13577D01*
X65999Y13694D01*
X66029Y13809D01*
X66033Y13870D01*
X66037Y13890D01*
X66035Y13910D01*
X66039Y13970D01*
X66039Y25630D01*
X66024Y25748D01*
X66017Y25867D01*
X66004Y25905D01*
X65999Y25946D01*
X65956Y26056D01*
X65919Y26169D01*
X65897Y26204D01*
X65882Y26241D01*
X65812Y26337D01*
X65749Y26438D01*
X65719Y26466D01*
X65695Y26499D01*
X65604Y26575D01*
X65517Y26656D01*
X65482Y26676D01*
X65451Y26701D01*
X65343Y26752D01*
X65239Y26810D01*
X65199Y26820D01*
X65163Y26837D01*
X65046Y26859D01*
X64931Y26889D01*
X64870Y26893D01*
X64850Y26897D01*
X64830Y26895D01*
X64770Y26899D01*
X64029Y26899D01*
X40385Y50543D01*
X40385Y74056D01*
X43038Y76709D01*
X45276Y76709D01*
X45394Y76724D01*
X45512Y76731D01*
X45551Y76744D01*
X45591Y76749D01*
X45702Y76792D01*
X45815Y76829D01*
X45849Y76851D01*
X45887Y76866D01*
X45983Y76935D01*
X46084Y76999D01*
X46111Y77029D01*
X46144Y77052D01*
X46220Y77144D01*
X46302Y77231D01*
X46321Y77266D01*
X46347Y77297D01*
X46398Y77405D01*
X46455Y77509D01*
X46465Y77549D01*
X46482Y77585D01*
X46505Y77702D01*
X46514Y77737D01*
X48026Y79249D01*
X61829Y79249D01*
X63310Y77768D01*
X63310Y70060D01*
X62855Y69605D01*
X62782Y69511D01*
X62703Y69421D01*
X62684Y69385D01*
X62660Y69353D01*
X62612Y69244D01*
X62558Y69138D01*
X62549Y69099D01*
X62533Y69061D01*
X62515Y68944D01*
X62489Y68828D01*
X62490Y68787D01*
X62483Y68747D01*
X62495Y68629D01*
X62498Y68510D01*
X62509Y68471D01*
X62513Y68431D01*
X62554Y68319D01*
X62587Y68204D01*
X62607Y68169D01*
X62621Y68131D01*
X62688Y68033D01*
X62748Y67930D01*
X62788Y67885D01*
X62799Y67868D01*
X62815Y67855D01*
X62855Y67810D01*
X63332Y67332D01*
X63333Y67327D01*
X63345Y67289D01*
X63350Y67248D01*
X63394Y67138D01*
X63431Y67025D01*
X63452Y66990D01*
X63467Y66953D01*
X63537Y66857D01*
X63601Y66756D01*
X63630Y66728D01*
X63654Y66695D01*
X63746Y66619D01*
X63832Y66538D01*
X63868Y66518D01*
X63899Y66493D01*
X64007Y66442D01*
X64111Y66384D01*
X64150Y66374D01*
X64187Y66357D01*
X64303Y66335D01*
X64419Y66305D01*
X64479Y66301D01*
X64499Y66297D01*
X64519Y66299D01*
X64579Y66295D01*
X86217Y66295D01*
X86267Y66301D01*
X86316Y66299D01*
X86424Y66321D01*
X86533Y66335D01*
X86579Y66353D01*
X86628Y66363D01*
X86726Y66411D01*
X86829Y66452D01*
X86869Y66481D01*
X86913Y66503D01*
X86997Y66574D01*
X87086Y66638D01*
X87118Y66677D01*
X87155Y66709D01*
X87219Y66799D01*
X87289Y66883D01*
X87310Y66928D01*
X87339Y66969D01*
X87378Y67072D01*
X87424Y67171D01*
X87434Y67220D01*
X87451Y67266D01*
X87463Y67376D01*
X87484Y67483D01*
X87481Y67533D01*
X87487Y67582D01*
X87471Y67691D01*
X87464Y67801D01*
X87449Y67848D01*
X87442Y67897D01*
X87390Y68050D01*
X87145Y68641D01*
X87145Y70551D01*
X87876Y72317D01*
X88274Y72714D01*
X88334Y72792D01*
X88402Y72864D01*
X88431Y72917D01*
X88468Y72965D01*
X88508Y73056D01*
X88556Y73142D01*
X88571Y73201D01*
X88595Y73257D01*
X88610Y73355D01*
X88635Y73450D01*
X88641Y73550D01*
X88645Y73571D01*
X88643Y73583D01*
X88645Y73611D01*
X88645Y75028D01*
X97692Y84075D01*
X115285Y84075D01*
X115383Y84087D01*
X115482Y84090D01*
X115540Y84107D01*
X115600Y84115D01*
X115693Y84151D01*
X115788Y84179D01*
X115840Y84209D01*
X115896Y84232D01*
X115976Y84290D01*
X116062Y84340D01*
X116137Y84406D01*
X116153Y84418D01*
X116161Y84428D01*
X116182Y84446D01*
X116579Y84844D01*
X118345Y85575D01*
X120255Y85575D01*
X122021Y84844D01*
X122418Y84446D01*
X122496Y84386D01*
X122568Y84318D01*
X122621Y84289D01*
X122669Y84252D01*
X122760Y84212D01*
X122846Y84164D01*
X122905Y84149D01*
X122961Y84125D01*
X123059Y84110D01*
X123154Y84085D01*
X123254Y84079D01*
X123275Y84075D01*
X123287Y84077D01*
X123315Y84075D01*
X148291Y84075D01*
X150597Y81769D01*
X150597Y81768D01*
X155424Y76941D01*
X155502Y76881D01*
X155574Y76813D01*
X155627Y76784D01*
X155675Y76746D01*
X155766Y76707D01*
X155853Y76659D01*
X155911Y76644D01*
X155967Y76620D01*
X156065Y76605D01*
X156161Y76580D01*
X156261Y76574D01*
X156281Y76570D01*
X156293Y76571D01*
X156321Y76570D01*
X163419Y76570D01*
X163517Y76582D01*
X163616Y76585D01*
X163674Y76602D01*
X163734Y76610D01*
X163827Y76646D01*
X163922Y76673D01*
X163974Y76704D01*
X164030Y76727D01*
X164110Y76785D01*
X164196Y76835D01*
X164271Y76901D01*
X164287Y76913D01*
X164295Y76923D01*
X164316Y76941D01*
X164713Y77339D01*
X166479Y78070D01*
X168389Y78070D01*
X170155Y77339D01*
X171603Y75890D01*
X171612Y75876D01*
X171706Y75787D01*
X171796Y75694D01*
X171822Y75679D01*
X171844Y75658D01*
X171957Y75596D01*
X172067Y75528D01*
X172096Y75519D01*
X172122Y75504D01*
X172247Y75472D01*
X172371Y75434D01*
X172401Y75432D01*
X172430Y75425D01*
X172591Y75415D01*
X174691Y75415D01*
X176457Y74684D01*
X177808Y73333D01*
X178539Y71567D01*
X178539Y69657D01*
X177808Y67891D01*
X176966Y67050D01*
X176905Y66972D01*
X176837Y66900D01*
X176808Y66847D01*
X176771Y66799D01*
X176732Y66708D01*
X176684Y66621D01*
X176669Y66562D01*
X176645Y66507D01*
X176629Y66409D01*
X176604Y66313D01*
X176598Y66213D01*
X176595Y66193D01*
X176596Y66180D01*
X176594Y66152D01*
X176594Y59392D01*
X176139Y58936D01*
X176066Y58842D01*
X175987Y58753D01*
X175968Y58717D01*
X175944Y58685D01*
X175896Y58576D01*
X175842Y58470D01*
X175833Y58431D01*
X175817Y58393D01*
X175799Y58276D01*
X175773Y58160D01*
X175774Y58119D01*
X175767Y58079D01*
X175779Y57961D01*
X175782Y57842D01*
X175793Y57803D01*
X175797Y57763D01*
X175838Y57651D01*
X175871Y57536D01*
X175891Y57501D01*
X175905Y57463D01*
X175972Y57365D01*
X176032Y57262D01*
X176072Y57217D01*
X176083Y57200D01*
X176099Y57187D01*
X176139Y57141D01*
X176594Y56686D01*
X176594Y55541D01*
X176600Y55491D01*
X176598Y55442D01*
X176620Y55334D01*
X176634Y55225D01*
X176652Y55179D01*
X176662Y55130D01*
X176711Y55032D01*
X176751Y54930D01*
X176780Y54889D01*
X176802Y54845D01*
X176873Y54761D01*
X176938Y54672D01*
X176976Y54641D01*
X177008Y54603D01*
X177098Y54540D01*
X177183Y54469D01*
X177228Y54448D01*
X177269Y54420D01*
X177371Y54381D01*
X177471Y54334D01*
X177519Y54325D01*
X177566Y54307D01*
X177675Y54295D01*
X177783Y54274D01*
X177833Y54277D01*
X177882Y54272D01*
X177991Y54287D01*
X178100Y54294D01*
X178148Y54309D01*
X178197Y54316D01*
X178349Y54368D01*
X178877Y54587D01*
X180787Y54587D01*
X182336Y53945D01*
X182345Y53943D01*
X182353Y53938D01*
X182498Y53901D01*
X182643Y53861D01*
X182652Y53861D01*
X182661Y53859D01*
X182822Y53849D01*
X189866Y53849D01*
X189866Y49656D01*
X185826Y49656D01*
X185796Y49653D01*
X185767Y49655D01*
X185639Y49633D01*
X185510Y49616D01*
X185483Y49606D01*
X185454Y49600D01*
X185335Y49547D01*
X185214Y49499D01*
X185191Y49482D01*
X185164Y49470D01*
X185062Y49389D01*
X184957Y49313D01*
X184938Y49290D01*
X184915Y49271D01*
X184837Y49168D01*
X184754Y49068D01*
X184742Y49041D01*
X184724Y49017D01*
X184653Y48873D01*
X183904Y47064D01*
X183609Y46769D01*
X183536Y46674D01*
X183457Y46585D01*
X183438Y46549D01*
X183414Y46517D01*
X183366Y46408D01*
X183312Y46302D01*
X183303Y46263D01*
X183287Y46225D01*
X183269Y46108D01*
X183243Y45992D01*
X183244Y45951D01*
X183237Y45911D01*
X183249Y45793D01*
X183252Y45674D01*
X183263Y45635D01*
X183267Y45595D01*
X183308Y45483D01*
X183341Y45368D01*
X183361Y45333D01*
X183375Y45295D01*
X183442Y45197D01*
X183502Y45094D01*
X183542Y45049D01*
X183553Y45032D01*
X183569Y45019D01*
X183609Y44974D01*
X183904Y44679D01*
X184635Y42913D01*
X184635Y41003D01*
X183904Y39237D01*
X182553Y37886D01*
X180787Y37155D01*
X178877Y37155D01*
X177050Y37912D01*
X177022Y37920D01*
X176995Y37933D01*
X176869Y37962D01*
X176743Y37996D01*
X176714Y37996D01*
X176685Y38003D01*
X176555Y37999D01*
X176425Y38001D01*
X176397Y37994D01*
X176367Y37993D01*
X176242Y37957D01*
X176116Y37927D01*
X176090Y37913D01*
X176062Y37905D01*
X175950Y37839D01*
X175835Y37778D01*
X175813Y37758D01*
X175788Y37743D01*
X175667Y37637D01*
X175113Y37083D01*
X161310Y37083D01*
X159829Y38564D01*
X159829Y46272D01*
X160284Y46727D01*
X160357Y46821D01*
X160436Y46911D01*
X160455Y46947D01*
X160479Y46979D01*
X160527Y47088D01*
X160581Y47194D01*
X160590Y47233D01*
X160606Y47271D01*
X160624Y47388D01*
X160650Y47504D01*
X160649Y47545D01*
X160656Y47585D01*
X160644Y47703D01*
X160641Y47822D01*
X160630Y47861D01*
X160626Y47901D01*
X160585Y48013D01*
X160552Y48128D01*
X160532Y48163D01*
X160518Y48201D01*
X160451Y48299D01*
X160391Y48402D01*
X160351Y48447D01*
X160340Y48464D01*
X160324Y48477D01*
X160284Y48522D01*
X159829Y48978D01*
X159829Y56686D01*
X160284Y57141D01*
X160357Y57235D01*
X160436Y57325D01*
X160455Y57361D01*
X160479Y57393D01*
X160527Y57502D01*
X160581Y57608D01*
X160590Y57647D01*
X160606Y57685D01*
X160624Y57802D01*
X160650Y57918D01*
X160649Y57959D01*
X160656Y57999D01*
X160644Y58117D01*
X160641Y58236D01*
X160630Y58275D01*
X160626Y58315D01*
X160585Y58427D01*
X160552Y58542D01*
X160532Y58577D01*
X160518Y58615D01*
X160451Y58713D01*
X160391Y58816D01*
X160351Y58861D01*
X160340Y58878D01*
X160324Y58891D01*
X160284Y58936D01*
X159829Y59392D01*
X159829Y67100D01*
X160526Y67797D01*
X160611Y67907D01*
X160700Y68014D01*
X160709Y68033D01*
X160721Y68049D01*
X160776Y68176D01*
X160836Y68302D01*
X160840Y68322D01*
X160848Y68341D01*
X160870Y68479D01*
X160896Y68614D01*
X160894Y68635D01*
X160898Y68655D01*
X160884Y68793D01*
X160876Y68932D01*
X160870Y68951D01*
X160868Y68971D01*
X160821Y69103D01*
X160778Y69234D01*
X160767Y69251D01*
X160760Y69271D01*
X160682Y69386D01*
X160608Y69503D01*
X160593Y69517D01*
X160582Y69534D01*
X160477Y69626D01*
X160376Y69721D01*
X160358Y69731D01*
X160343Y69744D01*
X160219Y69807D01*
X160098Y69875D01*
X160078Y69880D01*
X160060Y69889D01*
X159924Y69919D01*
X159790Y69954D01*
X159762Y69956D01*
X159750Y69958D01*
X159729Y69958D01*
X159629Y69964D01*
X153060Y69964D01*
X145926Y77098D01*
X145848Y77158D01*
X145776Y77226D01*
X145723Y77255D01*
X145675Y77292D01*
X145584Y77332D01*
X145497Y77380D01*
X145439Y77395D01*
X145383Y77419D01*
X145285Y77434D01*
X145189Y77459D01*
X145089Y77465D01*
X145069Y77469D01*
X145057Y77467D01*
X145029Y77469D01*
X123315Y77469D01*
X123217Y77457D01*
X123118Y77454D01*
X123060Y77437D01*
X123000Y77429D01*
X122907Y77393D01*
X122812Y77365D01*
X122760Y77335D01*
X122704Y77312D01*
X122624Y77254D01*
X122538Y77204D01*
X122463Y77138D01*
X122447Y77126D01*
X122439Y77116D01*
X122418Y77098D01*
X122021Y76700D01*
X120255Y75969D01*
X118345Y75969D01*
X116579Y76700D01*
X116182Y77098D01*
X116104Y77158D01*
X116032Y77226D01*
X115979Y77255D01*
X115931Y77292D01*
X115840Y77332D01*
X115754Y77380D01*
X115695Y77395D01*
X115639Y77419D01*
X115541Y77434D01*
X115446Y77459D01*
X115346Y77465D01*
X115325Y77469D01*
X115313Y77467D01*
X115285Y77469D01*
X100954Y77469D01*
X100856Y77457D01*
X100757Y77454D01*
X100698Y77437D01*
X100638Y77429D01*
X100546Y77393D01*
X100451Y77365D01*
X100399Y77335D01*
X100343Y77312D01*
X100263Y77254D01*
X100177Y77204D01*
X100102Y77138D01*
X100085Y77126D01*
X100077Y77116D01*
X100056Y77098D01*
X96401Y73442D01*
X96383Y73419D01*
X96361Y73400D01*
X96286Y73294D01*
X96206Y73191D01*
X96195Y73164D01*
X96178Y73140D01*
X96132Y73019D01*
X96080Y72899D01*
X96075Y72870D01*
X96065Y72843D01*
X96051Y72714D01*
X96030Y72585D01*
X96033Y72556D01*
X96030Y72527D01*
X96048Y72398D01*
X96060Y72269D01*
X96070Y72241D01*
X96074Y72212D01*
X96126Y72059D01*
X96751Y70551D01*
X96751Y68641D01*
X96020Y66875D01*
X95622Y66478D01*
X95562Y66400D01*
X95494Y66328D01*
X95465Y66275D01*
X95428Y66227D01*
X95388Y66136D01*
X95340Y66050D01*
X95325Y65991D01*
X95301Y65935D01*
X95286Y65837D01*
X95261Y65742D01*
X95255Y65642D01*
X95251Y65621D01*
X95253Y65609D01*
X95251Y65581D01*
X95251Y54307D01*
X95263Y54209D01*
X95266Y54110D01*
X95283Y54052D01*
X95291Y53992D01*
X95327Y53899D01*
X95355Y53804D01*
X95385Y53752D01*
X95408Y53696D01*
X95466Y53616D01*
X95516Y53530D01*
X95582Y53455D01*
X95594Y53439D01*
X95604Y53431D01*
X95622Y53410D01*
X96020Y53013D01*
X96751Y51247D01*
X96751Y49337D01*
X96020Y47571D01*
X94669Y46220D01*
X92903Y45489D01*
X90993Y45489D01*
X89227Y46220D01*
X87876Y47571D01*
X87145Y49337D01*
X87145Y51247D01*
X87876Y53013D01*
X88274Y53410D01*
X88334Y53488D01*
X88402Y53560D01*
X88431Y53613D01*
X88468Y53661D01*
X88508Y53752D01*
X88556Y53838D01*
X88571Y53897D01*
X88595Y53953D01*
X88610Y54051D01*
X88635Y54146D01*
X88641Y54246D01*
X88645Y54267D01*
X88643Y54279D01*
X88645Y54307D01*
X88645Y59436D01*
X88630Y59554D01*
X88623Y59673D01*
X88610Y59711D01*
X88605Y59752D01*
X88562Y59862D01*
X88525Y59975D01*
X88503Y60010D01*
X88488Y60047D01*
X88419Y60143D01*
X88355Y60244D01*
X88325Y60272D01*
X88302Y60305D01*
X88210Y60381D01*
X88123Y60462D01*
X88088Y60482D01*
X88057Y60507D01*
X87949Y60558D01*
X87845Y60616D01*
X87805Y60626D01*
X87769Y60643D01*
X87652Y60665D01*
X87537Y60695D01*
X87477Y60699D01*
X87457Y60703D01*
X87436Y60701D01*
X87376Y60705D01*
X64579Y60705D01*
X64461Y60690D01*
X64343Y60683D01*
X64304Y60670D01*
X64264Y60665D01*
X64153Y60622D01*
X64040Y60585D01*
X64006Y60563D01*
X63968Y60548D01*
X63872Y60479D01*
X63771Y60415D01*
X63744Y60385D01*
X63711Y60362D01*
X63635Y60270D01*
X63553Y60183D01*
X63534Y60148D01*
X63508Y60117D01*
X63457Y60009D01*
X63400Y59905D01*
X63390Y59865D01*
X63373Y59829D01*
X63350Y59712D01*
X63341Y59677D01*
X62855Y59191D01*
X62782Y59097D01*
X62703Y59007D01*
X62684Y58971D01*
X62660Y58939D01*
X62612Y58830D01*
X62558Y58724D01*
X62549Y58685D01*
X62533Y58647D01*
X62515Y58530D01*
X62489Y58414D01*
X62490Y58373D01*
X62483Y58333D01*
X62495Y58215D01*
X62498Y58096D01*
X62509Y58057D01*
X62513Y58017D01*
X62554Y57905D01*
X62587Y57790D01*
X62607Y57755D01*
X62621Y57717D01*
X62688Y57619D01*
X62748Y57516D01*
X62788Y57471D01*
X62799Y57454D01*
X62815Y57441D01*
X62855Y57396D01*
X63310Y56940D01*
X63310Y49232D01*
X61829Y47751D01*
X61373Y47751D01*
X61236Y47734D01*
X61097Y47721D01*
X61078Y47714D01*
X61058Y47711D01*
X60929Y47660D01*
X60798Y47613D01*
X60781Y47602D01*
X60762Y47594D01*
X60650Y47513D01*
X60535Y47435D01*
X60521Y47419D01*
X60505Y47408D01*
X60416Y47300D01*
X60324Y47196D01*
X60315Y47178D01*
X60302Y47163D01*
X60243Y47037D01*
X60179Y46913D01*
X60175Y46893D01*
X60166Y46875D01*
X60140Y46739D01*
X60110Y46603D01*
X60110Y46582D01*
X60107Y46563D01*
X60115Y46424D01*
X60119Y46285D01*
X60125Y46265D01*
X60126Y46245D01*
X60169Y46113D01*
X60208Y45979D01*
X60218Y45962D01*
X60224Y45943D01*
X60299Y45825D01*
X60369Y45705D01*
X60388Y45684D01*
X60395Y45674D01*
X60410Y45660D01*
X60476Y45585D01*
X69810Y36250D01*
X69889Y36189D01*
X69961Y36121D01*
X70014Y36092D01*
X70062Y36055D01*
X70153Y36016D01*
X70239Y35968D01*
X70298Y35953D01*
X70353Y35929D01*
X70451Y35913D01*
X70547Y35888D01*
X70647Y35882D01*
X70668Y35879D01*
X70680Y35880D01*
X70708Y35878D01*
X125667Y35878D01*
X125785Y35893D01*
X125903Y35901D01*
X125942Y35913D01*
X125982Y35918D01*
X126093Y35962D01*
X126206Y35999D01*
X126240Y36020D01*
X126278Y36035D01*
X126374Y36105D01*
X126475Y36169D01*
X126502Y36198D01*
X126535Y36222D01*
X126611Y36314D01*
X126693Y36400D01*
X126712Y36436D01*
X126738Y36467D01*
X126789Y36575D01*
X126846Y36679D01*
X126856Y36718D01*
X126873Y36755D01*
X126896Y36871D01*
X126926Y36987D01*
X126929Y37047D01*
X126933Y37067D01*
X126932Y37079D01*
X127667Y38852D01*
X129018Y40203D01*
X130783Y40934D01*
X132694Y40934D01*
X134459Y40203D01*
X135810Y38852D01*
X136541Y37087D01*
X136541Y35176D01*
X136155Y34244D01*
X136142Y34196D01*
X136121Y34151D01*
X136100Y34043D01*
X136071Y33937D01*
X136070Y33887D01*
X136061Y33838D01*
X136068Y33729D01*
X136066Y33619D01*
X136078Y33571D01*
X136081Y33521D01*
X136114Y33417D01*
X136140Y33310D01*
X136163Y33266D01*
X136179Y33219D01*
X136237Y33126D01*
X136289Y33029D01*
X136322Y32992D01*
X136349Y32950D01*
X136429Y32875D01*
X136503Y32793D01*
X136544Y32766D01*
X136580Y32732D01*
X136677Y32679D01*
X136768Y32619D01*
X136816Y32602D01*
X136859Y32578D01*
X136965Y32551D01*
X137069Y32515D01*
X137119Y32511D01*
X137167Y32499D01*
X137328Y32489D01*
X142490Y32489D01*
X142519Y32492D01*
X142549Y32490D01*
X142677Y32512D01*
X142806Y32529D01*
X142833Y32539D01*
X142862Y32544D01*
X142981Y32598D01*
X143101Y32646D01*
X143125Y32663D01*
X143152Y32675D01*
X143254Y32756D01*
X143359Y32832D01*
X143378Y32855D01*
X143401Y32874D01*
X143479Y32977D01*
X143562Y33077D01*
X143574Y33104D01*
X143592Y33128D01*
X143663Y33272D01*
X144264Y34725D01*
X145615Y36076D01*
X147381Y36807D01*
X149291Y36807D01*
X151057Y36076D01*
X152408Y34725D01*
X153139Y32959D01*
X153139Y31049D01*
X152473Y29442D01*
X152460Y29394D01*
X152439Y29349D01*
X152418Y29241D01*
X152389Y29135D01*
X152388Y29085D01*
X152379Y29036D01*
X152386Y28927D01*
X152384Y28817D01*
X152396Y28769D01*
X152399Y28719D01*
X152433Y28615D01*
X152458Y28508D01*
X152482Y28464D01*
X152497Y28417D01*
X152556Y28324D01*
X152607Y28227D01*
X152640Y28190D01*
X152667Y28148D01*
X152747Y28073D01*
X152821Y27991D01*
X152862Y27964D01*
X152899Y27930D01*
X152995Y27877D01*
X153087Y27817D01*
X153134Y27800D01*
X153177Y27776D01*
X153283Y27749D01*
X153387Y27713D01*
X153437Y27709D01*
X153485Y27697D01*
X153646Y27687D01*
X161178Y27687D01*
X164362Y24502D01*
X164440Y24442D01*
X164512Y24374D01*
X164565Y24345D01*
X164613Y24308D01*
X164704Y24268D01*
X164791Y24220D01*
X164849Y24205D01*
X164905Y24181D01*
X165003Y24166D01*
X165099Y24141D01*
X165199Y24135D01*
X165219Y24131D01*
X165231Y24133D01*
X165259Y24131D01*
X167374Y24131D01*
X170837Y22696D01*
X170885Y22683D01*
X170930Y22662D01*
X171038Y22641D01*
X171144Y22612D01*
X171194Y22611D01*
X171243Y22602D01*
X171352Y22609D01*
X171462Y22607D01*
X171510Y22619D01*
X171560Y22622D01*
X171664Y22656D01*
X171771Y22681D01*
X171815Y22704D01*
X171862Y22720D01*
X171955Y22779D01*
X172052Y22830D01*
X172089Y22863D01*
X172131Y22890D01*
X172206Y22970D01*
X172288Y23044D01*
X172315Y23085D01*
X172349Y23122D01*
X172402Y23218D01*
X172462Y23310D01*
X172479Y23357D01*
X172503Y23400D01*
X172530Y23506D01*
X172566Y23610D01*
X172570Y23660D01*
X172582Y23708D01*
X172592Y23869D01*
X172592Y24912D01*
X173385Y26826D01*
X174850Y28291D01*
X176764Y29084D01*
X178836Y29084D01*
X180750Y28291D01*
X182215Y26826D01*
X183008Y24912D01*
X183008Y23869D01*
X183014Y23819D01*
X183012Y23770D01*
X183034Y23662D01*
X183048Y23553D01*
X183066Y23507D01*
X183076Y23458D01*
X183124Y23360D01*
X183165Y23257D01*
X183194Y23217D01*
X183216Y23173D01*
X183287Y23089D01*
X183351Y23000D01*
X183390Y22968D01*
X183422Y22931D01*
X183512Y22867D01*
X183596Y22797D01*
X183641Y22776D01*
X183682Y22748D01*
X183785Y22709D01*
X183884Y22662D01*
X183933Y22652D01*
X183979Y22635D01*
X184089Y22623D01*
X184196Y22602D01*
X184246Y22605D01*
X184295Y22600D01*
X184404Y22615D01*
X184514Y22622D01*
X184561Y22637D01*
X184610Y22644D01*
X184763Y22696D01*
X188226Y24131D01*
X192774Y24131D01*
X196975Y22391D01*
X197985Y21381D01*
X198094Y21296D01*
X198201Y21207D01*
X198220Y21198D01*
X198236Y21186D01*
X198363Y21131D01*
X198489Y21072D01*
X198509Y21068D01*
X198528Y21060D01*
X198666Y21038D01*
X198802Y21012D01*
X198822Y21013D01*
X198842Y21010D01*
X198981Y21023D01*
X199119Y21032D01*
X199138Y21038D01*
X199158Y21040D01*
X199290Y21087D01*
X199421Y21130D01*
X199439Y21140D01*
X199458Y21147D01*
X199573Y21225D01*
X199690Y21300D01*
X199704Y21314D01*
X199721Y21326D01*
X199813Y21430D01*
X199908Y21531D01*
X199918Y21549D01*
X199931Y21564D01*
X199994Y21688D01*
X200062Y21810D01*
X200067Y21829D01*
X200076Y21847D01*
X200106Y21983D01*
X200141Y22118D01*
X200143Y22146D01*
X200146Y22158D01*
X200145Y22178D01*
X200151Y22278D01*
X200151Y48640D01*
X200136Y48765D01*
X200126Y48890D01*
X200116Y48922D01*
X200111Y48956D01*
X200065Y49072D01*
X200025Y49192D01*
X200007Y49220D01*
X199994Y49251D01*
X199921Y49353D01*
X199852Y49459D01*
X199827Y49481D01*
X199808Y49509D01*
X199711Y49589D01*
X199618Y49674D01*
X199589Y49690D01*
X199563Y49711D01*
X199449Y49765D01*
X199338Y49825D01*
X199305Y49833D01*
X199275Y49847D01*
X199151Y49871D01*
X199029Y49901D01*
X198996Y49900D01*
X198963Y49907D01*
X198837Y49899D01*
X198711Y49898D01*
X198663Y49888D01*
X198645Y49887D01*
X198625Y49880D01*
X198553Y49866D01*
X197770Y49656D01*
X193166Y49656D01*
X193166Y55118D01*
X193151Y55236D01*
X193144Y55355D01*
X193131Y55393D01*
X193126Y55433D01*
X193083Y55544D01*
X193046Y55657D01*
X193024Y55691D01*
X193009Y55729D01*
X192940Y55825D01*
X192876Y55926D01*
X192849Y55951D01*
X192849Y67691D01*
X192837Y67710D01*
X192833Y67732D01*
X192818Y67739D01*
X192812Y67748D01*
X192802Y67747D01*
X192786Y67754D01*
X190246Y67754D01*
X190227Y67742D01*
X190205Y67738D01*
X190198Y67723D01*
X190189Y67717D01*
X190190Y67707D01*
X190183Y67691D01*
X190183Y57149D01*
X182625Y57149D01*
X182625Y58705D01*
X182832Y59478D01*
X183233Y60172D01*
X183303Y60262D01*
X183381Y60351D01*
X183400Y60387D01*
X183425Y60419D01*
X183472Y60528D01*
X183526Y60634D01*
X183535Y60674D01*
X183551Y60711D01*
X183570Y60828D01*
X183596Y60945D01*
X183594Y60985D01*
X183601Y61025D01*
X183590Y61144D01*
X183586Y61263D01*
X183575Y61301D01*
X183571Y61341D01*
X183531Y61454D01*
X183498Y61568D01*
X183477Y61603D01*
X183463Y61641D01*
X183397Y61739D01*
X183336Y61842D01*
X183296Y61887D01*
X183285Y61904D01*
X183270Y61917D01*
X183230Y61963D01*
X183133Y62059D01*
X183133Y69767D01*
X184614Y71248D01*
X187452Y71248D01*
X187570Y71263D01*
X187689Y71270D01*
X187727Y71283D01*
X187768Y71288D01*
X187878Y71331D01*
X187991Y71368D01*
X188026Y71390D01*
X188063Y71405D01*
X188159Y71474D01*
X188260Y71538D01*
X188288Y71568D01*
X188321Y71591D01*
X188397Y71683D01*
X188478Y71770D01*
X188498Y71805D01*
X188523Y71836D01*
X188574Y71944D01*
X188632Y72048D01*
X188642Y72088D01*
X188659Y72124D01*
X188681Y72241D01*
X188711Y72356D01*
X188715Y72416D01*
X188719Y72436D01*
X188717Y72457D01*
X188721Y72517D01*
X188721Y80406D01*
X190406Y82090D01*
X190466Y82168D01*
X190534Y82240D01*
X190563Y82293D01*
X190600Y82341D01*
X190640Y82432D01*
X190688Y82519D01*
X190703Y82577D01*
X190727Y82633D01*
X190742Y82731D01*
X190767Y82827D01*
X190773Y82923D01*
X190775Y82931D01*
X190775Y82934D01*
X190777Y82947D01*
X190775Y82959D01*
X190777Y82987D01*
X190777Y84267D01*
X191508Y86033D01*
X192859Y87384D01*
X194625Y88115D01*
X196535Y88115D01*
X198396Y87344D01*
X198444Y87331D01*
X198489Y87310D01*
X198597Y87289D01*
X198703Y87260D01*
X198753Y87259D01*
X198802Y87250D01*
X198911Y87257D01*
X199021Y87255D01*
X199069Y87266D01*
X199119Y87270D01*
X199223Y87303D01*
X199330Y87329D01*
X199374Y87352D01*
X199421Y87368D01*
X199514Y87426D01*
X199611Y87478D01*
X199648Y87511D01*
X199690Y87538D01*
X199765Y87618D01*
X199847Y87692D01*
X199874Y87733D01*
X199908Y87769D01*
X199961Y87865D01*
X200021Y87957D01*
X200038Y88004D01*
X200062Y88048D01*
X200089Y88154D01*
X200125Y88258D01*
X200129Y88308D01*
X200141Y88356D01*
X200151Y88517D01*
X200151Y104722D01*
X200134Y104860D01*
X200121Y104998D01*
X200114Y105017D01*
X200111Y105037D01*
X200060Y105166D01*
X200013Y105297D01*
X200002Y105314D01*
X199994Y105333D01*
X199913Y105445D01*
X199835Y105560D01*
X199819Y105574D01*
X199808Y105590D01*
X199700Y105679D01*
X199596Y105771D01*
X199578Y105780D01*
X199563Y105793D01*
X199437Y105852D01*
X199313Y105915D01*
X199293Y105920D01*
X199275Y105928D01*
X199138Y105955D01*
X199003Y105985D01*
X198982Y105984D01*
X198963Y105988D01*
X198824Y105980D01*
X198685Y105975D01*
X198665Y105970D01*
X198645Y105968D01*
X198513Y105926D01*
X198379Y105887D01*
X198362Y105877D01*
X198343Y105870D01*
X198225Y105796D01*
X198105Y105725D01*
X198084Y105707D01*
X198074Y105700D01*
X198060Y105685D01*
X197985Y105619D01*
X196975Y104610D01*
X194078Y103410D01*
X194053Y103395D01*
X194025Y103386D01*
X193915Y103316D01*
X193802Y103252D01*
X193781Y103232D01*
X193756Y103216D01*
X193667Y103121D01*
X193574Y103031D01*
X193558Y103006D01*
X193538Y102984D01*
X193475Y102870D01*
X193407Y102760D01*
X193399Y102731D01*
X193384Y102706D01*
X193352Y102580D01*
X193314Y102456D01*
X193312Y102426D01*
X193305Y102398D01*
X193295Y102237D01*
X193295Y101458D01*
X188888Y97051D01*
X93909Y97051D01*
X93811Y97039D01*
X93712Y97036D01*
X93654Y97019D01*
X93594Y97011D01*
X93502Y96975D01*
X93407Y96947D01*
X93354Y96917D01*
X93298Y96894D01*
X93218Y96836D01*
X93133Y96786D01*
X93057Y96720D01*
X93041Y96708D01*
X93033Y96698D01*
X93012Y96680D01*
X78168Y81835D01*
X74119Y81835D01*
X74021Y81823D01*
X73922Y81820D01*
X73864Y81803D01*
X73804Y81795D01*
X73711Y81759D01*
X73616Y81731D01*
X73564Y81701D01*
X73508Y81678D01*
X73428Y81620D01*
X73342Y81570D01*
X73267Y81504D01*
X73251Y81492D01*
X73243Y81482D01*
X73222Y81464D01*
X72317Y80558D01*
X70551Y79827D01*
X68641Y79827D01*
X66875Y80558D01*
X65524Y81909D01*
X64793Y83675D01*
X64793Y85585D01*
X65524Y87351D01*
X66875Y88702D01*
X68641Y89433D01*
X69462Y89433D01*
X69511Y89439D01*
X69560Y89437D01*
X69668Y89459D01*
X69777Y89473D01*
X69823Y89491D01*
X69872Y89501D01*
X69971Y89549D01*
X70073Y89590D01*
X70113Y89619D01*
X70158Y89641D01*
X70241Y89712D01*
X70330Y89776D01*
X70362Y89815D01*
X70400Y89847D01*
X70463Y89937D01*
X70533Y90021D01*
X70554Y90066D01*
X70583Y90107D01*
X70622Y90210D01*
X70668Y90309D01*
X70678Y90358D01*
X70695Y90404D01*
X70708Y90514D01*
X70728Y90621D01*
X70725Y90671D01*
X70731Y90720D01*
X70715Y90829D01*
X70708Y90939D01*
X70693Y90986D01*
X70686Y91035D01*
X70634Y91188D01*
X69873Y93025D01*
X69873Y94935D01*
X70604Y96701D01*
X71955Y98052D01*
X73721Y98783D01*
X75001Y98783D01*
X75099Y98795D01*
X75198Y98798D01*
X75256Y98815D01*
X75316Y98823D01*
X75408Y98859D01*
X75503Y98887D01*
X75556Y98917D01*
X75612Y98940D01*
X75692Y98998D01*
X75777Y99048D01*
X75853Y99114D01*
X75869Y99126D01*
X75877Y99136D01*
X75898Y99154D01*
X80399Y103656D01*
X80992Y104248D01*
X81065Y104342D01*
X81143Y104431D01*
X81162Y104467D01*
X81187Y104499D01*
X81234Y104609D01*
X81288Y104714D01*
X81297Y104754D01*
X81313Y104791D01*
X81332Y104909D01*
X81358Y105025D01*
X81356Y105065D01*
X81363Y105105D01*
X81352Y105224D01*
X81348Y105343D01*
X81337Y105382D01*
X81333Y105422D01*
X81293Y105534D01*
X81260Y105648D01*
X81239Y105683D01*
X81225Y105721D01*
X81158Y105820D01*
X81098Y105922D01*
X81058Y105967D01*
X81047Y105984D01*
X81031Y105998D01*
X80992Y106043D01*
X79209Y107825D01*
X77469Y112026D01*
X77469Y116574D01*
X79209Y120775D01*
X80219Y121785D01*
X80304Y121894D01*
X80393Y122001D01*
X80402Y122020D01*
X80414Y122036D01*
X80469Y122163D01*
X80528Y122289D01*
X80532Y122309D01*
X80540Y122328D01*
X80562Y122466D01*
X80588Y122602D01*
X80587Y122622D01*
X80590Y122642D01*
X80577Y122781D01*
X80568Y122919D01*
X80562Y122938D01*
X80560Y122958D01*
X80513Y123090D01*
X80470Y123221D01*
X80460Y123239D01*
X80453Y123258D01*
X80375Y123373D01*
X80300Y123490D01*
X80286Y123504D01*
X80274Y123521D01*
X80170Y123613D01*
X80069Y123708D01*
X80051Y123718D01*
X80036Y123731D01*
X79912Y123794D01*
X79790Y123862D01*
X79771Y123867D01*
X79753Y123876D01*
X79617Y123906D01*
X79482Y123941D01*
X79454Y123943D01*
X79442Y123946D01*
X79422Y123945D01*
X79322Y123951D01*
X73078Y123951D01*
X72940Y123934D01*
X72802Y123921D01*
X72783Y123914D01*
X72763Y123911D01*
X72634Y123860D01*
X72503Y123813D01*
X72486Y123802D01*
X72467Y123794D01*
X72355Y123713D01*
X72240Y123635D01*
X72226Y123619D01*
X72210Y123608D01*
X72121Y123500D01*
X72029Y123396D01*
X72020Y123378D01*
X72007Y123363D01*
X71948Y123237D01*
X71885Y123113D01*
X71880Y123093D01*
X71872Y123075D01*
X71845Y122938D01*
X71815Y122803D01*
X71816Y122782D01*
X71812Y122763D01*
X71820Y122624D01*
X71825Y122485D01*
X71830Y122465D01*
X71832Y122445D01*
X71874Y122313D01*
X71913Y122179D01*
X71923Y122162D01*
X71930Y122143D01*
X72004Y122025D01*
X72075Y121905D01*
X72093Y121884D01*
X72100Y121874D01*
X72115Y121860D01*
X72181Y121785D01*
X73191Y120775D01*
X74931Y116574D01*
X74931Y112026D01*
X73191Y107825D01*
X69975Y104609D01*
X65774Y102869D01*
X61226Y102869D01*
X57025Y104609D01*
X53809Y107825D01*
X52069Y112026D01*
X52069Y116574D01*
X53809Y120775D01*
X54819Y121785D01*
X54904Y121894D01*
X54993Y122001D01*
X55002Y122020D01*
X55014Y122036D01*
X55069Y122163D01*
X55128Y122289D01*
X55132Y122309D01*
X55140Y122328D01*
X55162Y122466D01*
X55188Y122602D01*
X55187Y122622D01*
X55190Y122642D01*
X55177Y122781D01*
X55168Y122919D01*
X55162Y122938D01*
X55160Y122958D01*
X55113Y123090D01*
X55070Y123221D01*
X55060Y123239D01*
X55053Y123258D01*
X54975Y123373D01*
X54900Y123490D01*
X54886Y123504D01*
X54874Y123521D01*
X54770Y123613D01*
X54669Y123708D01*
X54651Y123718D01*
X54636Y123731D01*
X54512Y123794D01*
X54390Y123862D01*
X54371Y123867D01*
X54353Y123876D01*
X54217Y123906D01*
X54082Y123941D01*
X54054Y123943D01*
X54042Y123946D01*
X54022Y123945D01*
X53922Y123951D01*
X34316Y123951D01*
X34219Y123939D01*
X34122Y123936D01*
X34062Y123919D01*
X34000Y123911D01*
X33910Y123876D01*
X33816Y123849D01*
X33762Y123817D01*
X33704Y123794D01*
X33626Y123737D01*
X33542Y123688D01*
X33498Y123644D01*
X33447Y123608D01*
X33385Y123532D01*
X33316Y123464D01*
X33284Y123411D01*
X33244Y123363D01*
X33203Y123275D01*
X33153Y123191D01*
X33135Y123131D01*
X33109Y123075D01*
X33091Y122979D01*
X33063Y122886D01*
X33061Y122824D01*
X33049Y122763D01*
X33055Y122665D01*
X33052Y122568D01*
X33065Y122507D01*
X33069Y122445D01*
X33099Y122352D01*
X33120Y122257D01*
X33148Y122202D01*
X33167Y122143D01*
X33219Y122060D01*
X33263Y121973D01*
X33304Y121927D01*
X33337Y121874D01*
X33408Y121807D01*
X33472Y121734D01*
X33523Y121699D01*
X33569Y121656D01*
X33654Y121609D01*
X33734Y121554D01*
X33830Y121512D01*
X33847Y121502D01*
X33858Y121500D01*
X33882Y121489D01*
X36362Y120587D01*
X42195Y115692D01*
X46002Y109098D01*
X47324Y101600D01*
X46002Y94102D01*
X42195Y87508D01*
X36362Y82613D01*
X29207Y80009D01*
X21593Y80009D01*
X14438Y82613D01*
X8605Y87508D01*
X5417Y93030D01*
X5329Y93146D01*
X5244Y93264D01*
X5233Y93272D01*
X5225Y93283D01*
X5111Y93373D01*
X4999Y93467D01*
X4986Y93472D01*
X4976Y93481D01*
X4842Y93540D01*
X4711Y93602D01*
X4698Y93605D01*
X4685Y93610D01*
X4541Y93635D01*
X4398Y93662D01*
X4385Y93661D01*
X4372Y93663D01*
X4226Y93651D01*
X4081Y93642D01*
X4068Y93638D01*
X4055Y93637D01*
X3917Y93589D01*
X3779Y93544D01*
X3767Y93537D01*
X3754Y93532D01*
X3633Y93452D01*
X3510Y93374D01*
X3501Y93364D01*
X3489Y93357D01*
X3392Y93249D01*
X3292Y93142D01*
X3285Y93130D01*
X3276Y93120D01*
X3209Y92992D01*
X3138Y92864D01*
X3135Y92851D01*
X3129Y92839D01*
X3095Y92697D01*
X3059Y92556D01*
X3058Y92538D01*
X3056Y92529D01*
X3056Y92512D01*
X3049Y92395D01*
X3049Y78546D01*
X3064Y78428D01*
X3071Y78309D01*
X3084Y78271D01*
X3089Y78230D01*
X3132Y78120D01*
X3169Y78007D01*
X3191Y77972D01*
X3206Y77935D01*
X3275Y77839D01*
X3339Y77738D01*
X3369Y77710D01*
X3392Y77677D01*
X3484Y77601D01*
X3571Y77520D01*
X3606Y77500D01*
X3637Y77475D01*
X3745Y77424D01*
X3849Y77366D01*
X3889Y77356D01*
X3925Y77339D01*
X4042Y77317D01*
X4157Y77287D01*
X4217Y77283D01*
X4237Y77279D01*
X4258Y77281D01*
X4318Y77277D01*
X6766Y77277D01*
X8513Y75530D01*
X8591Y75469D01*
X8664Y75401D01*
X8717Y75372D01*
X8764Y75335D01*
X8855Y75296D01*
X8942Y75248D01*
X9001Y75233D01*
X9056Y75209D01*
X9154Y75193D01*
X9250Y75168D01*
X9350Y75162D01*
X9370Y75159D01*
X9383Y75160D01*
X9411Y75158D01*
X13122Y75158D01*
X14833Y73447D01*
X14833Y71026D01*
X13729Y69922D01*
X13656Y69828D01*
X13577Y69738D01*
X13558Y69702D01*
X13534Y69670D01*
X13486Y69561D01*
X13432Y69455D01*
X13423Y69416D01*
X13407Y69378D01*
X13389Y69261D01*
X13363Y69145D01*
X13364Y69104D01*
X13358Y69064D01*
X13369Y68945D01*
X13372Y68827D01*
X13384Y68788D01*
X13387Y68748D01*
X13428Y68636D01*
X13461Y68521D01*
X13481Y68486D01*
X13495Y68448D01*
X13562Y68350D01*
X13622Y68247D01*
X13662Y68202D01*
X13674Y68185D01*
X13689Y68172D01*
X13729Y68127D01*
X14146Y67710D01*
X14146Y67709D01*
X14833Y67022D01*
X14833Y65794D01*
X14833Y62483D01*
X13266Y60915D01*
X13220Y60856D01*
X13167Y60804D01*
X13123Y60731D01*
X13071Y60664D01*
X13041Y60596D01*
X13003Y60532D01*
X12978Y60450D01*
X12945Y60372D01*
X12933Y60299D01*
X12911Y60227D01*
X12908Y60142D01*
X12895Y60058D01*
X12902Y59984D01*
X12899Y59909D01*
X12917Y59826D01*
X12924Y59741D01*
X12950Y59671D01*
X12957Y59638D01*
X12301Y57670D01*
X12299Y57661D01*
X12295Y57653D01*
X12268Y57506D01*
X12239Y57358D01*
X12239Y57349D01*
X12237Y57340D01*
X12248Y57190D01*
X12256Y57040D01*
X12259Y57032D01*
X12259Y57022D01*
X12301Y56867D01*
X12948Y54926D01*
X11865Y52761D01*
X9569Y51995D01*
X4886Y54337D01*
X4796Y54368D01*
X4711Y54409D01*
X4647Y54421D01*
X4586Y54442D01*
X4491Y54451D01*
X4398Y54468D01*
X4334Y54464D01*
X4269Y54470D01*
X4175Y54455D01*
X4081Y54449D01*
X4019Y54429D01*
X3955Y54418D01*
X3868Y54380D01*
X3779Y54351D01*
X3724Y54316D01*
X3664Y54290D01*
X3590Y54231D01*
X3510Y54180D01*
X3465Y54133D01*
X3414Y54093D01*
X3357Y54018D01*
X3292Y53949D01*
X3261Y53892D01*
X3221Y53840D01*
X3184Y53753D01*
X3138Y53670D01*
X3122Y53607D01*
X3097Y53547D01*
X3083Y53454D01*
X3059Y53362D01*
X3052Y53251D01*
X3049Y53233D01*
X3050Y53223D01*
X3049Y53202D01*
X3049Y34605D01*
X3067Y34460D01*
X3082Y34315D01*
X3087Y34303D01*
X3089Y34289D01*
X3142Y34154D01*
X3193Y34017D01*
X3201Y34006D01*
X3206Y33994D01*
X3291Y33876D01*
X3374Y33756D01*
X3385Y33747D01*
X3392Y33736D01*
X3504Y33643D01*
X3615Y33548D01*
X3627Y33542D01*
X3637Y33533D01*
X3769Y33472D01*
X3900Y33406D01*
X3913Y33404D01*
X3925Y33398D01*
X4067Y33371D01*
X4211Y33340D01*
X4224Y33341D01*
X4237Y33338D01*
X4382Y33347D01*
X4528Y33353D01*
X4541Y33357D01*
X4555Y33358D01*
X4693Y33403D01*
X4833Y33445D01*
X4845Y33452D01*
X4857Y33456D01*
X4980Y33534D01*
X5105Y33609D01*
X5115Y33619D01*
X5126Y33626D01*
X5226Y33732D01*
X5328Y33836D01*
X5338Y33851D01*
X5344Y33858D01*
X5352Y33873D01*
X5417Y33970D01*
X8605Y39492D01*
X14438Y44387D01*
X21593Y46991D01*
X29207Y46991D01*
X36362Y44387D01*
X42195Y39492D01*
X46002Y32898D01*
X47324Y25400D01*
X46002Y17902D01*
X42195Y11308D01*
X36362Y6413D01*
X33882Y5511D01*
X33795Y5466D01*
X33704Y5430D01*
X33654Y5394D01*
X33599Y5365D01*
X33526Y5301D01*
X33447Y5244D01*
X33407Y5196D01*
X33361Y5154D01*
X33306Y5074D01*
X33244Y4999D01*
X33218Y4942D01*
X33183Y4891D01*
X33150Y4799D01*
X33109Y4711D01*
X33097Y4650D01*
X33076Y4591D01*
X33067Y4494D01*
X33049Y4398D01*
X33053Y4336D01*
X33047Y4274D01*
X33063Y4178D01*
X33069Y4081D01*
X33088Y4022D01*
X33098Y3960D01*
X33137Y3871D01*
X33167Y3779D01*
X33200Y3726D01*
X33225Y3669D01*
X33285Y3592D01*
X33337Y3510D01*
X33382Y3467D01*
X33421Y3418D01*
X33498Y3359D01*
X33569Y3292D01*
X33623Y3262D01*
X33672Y3224D01*
X33762Y3185D01*
X33847Y3138D01*
X33907Y3123D01*
X33965Y3098D01*
X34061Y3083D01*
X34155Y3059D01*
X34259Y3052D01*
X34279Y3049D01*
X34290Y3050D01*
X34316Y3049D01*
X53264Y3049D01*
X53303Y3054D01*
G37*
%LPC*%
G36*
X105217Y38885D02*
X105217Y38885D01*
X103451Y39616D01*
X102100Y40967D01*
X101369Y42733D01*
X101369Y44643D01*
X102100Y46409D01*
X103451Y47760D01*
X105217Y48491D01*
X106497Y48491D01*
X106595Y48503D01*
X106694Y48506D01*
X106752Y48523D01*
X106812Y48531D01*
X106904Y48567D01*
X106999Y48595D01*
X107052Y48625D01*
X107108Y48648D01*
X107188Y48706D01*
X107273Y48756D01*
X107349Y48822D01*
X107365Y48834D01*
X107373Y48844D01*
X107394Y48862D01*
X108800Y50269D01*
X132637Y50269D01*
X132735Y50281D01*
X132834Y50284D01*
X132892Y50301D01*
X132952Y50309D01*
X133045Y50345D01*
X133140Y50373D01*
X133192Y50403D01*
X133248Y50426D01*
X133328Y50484D01*
X133414Y50534D01*
X133489Y50600D01*
X133505Y50612D01*
X133513Y50622D01*
X133534Y50640D01*
X134439Y51546D01*
X136205Y52277D01*
X138115Y52277D01*
X139881Y51546D01*
X141232Y50195D01*
X141963Y48429D01*
X141963Y46519D01*
X141232Y44753D01*
X139881Y43402D01*
X138115Y42671D01*
X136205Y42671D01*
X134439Y43402D01*
X133534Y44308D01*
X133456Y44368D01*
X133384Y44436D01*
X133331Y44465D01*
X133283Y44502D01*
X133192Y44542D01*
X133106Y44590D01*
X133047Y44605D01*
X132991Y44629D01*
X132893Y44644D01*
X132798Y44669D01*
X132698Y44675D01*
X132677Y44679D01*
X132665Y44677D01*
X132637Y44679D01*
X112244Y44679D01*
X112126Y44664D01*
X112007Y44657D01*
X111969Y44644D01*
X111928Y44639D01*
X111818Y44596D01*
X111705Y44559D01*
X111670Y44537D01*
X111633Y44522D01*
X111537Y44453D01*
X111436Y44389D01*
X111408Y44359D01*
X111375Y44336D01*
X111299Y44244D01*
X111218Y44157D01*
X111198Y44122D01*
X111173Y44091D01*
X111122Y43983D01*
X111064Y43879D01*
X111054Y43839D01*
X111037Y43803D01*
X111015Y43686D01*
X110985Y43571D01*
X110981Y43511D01*
X110977Y43491D01*
X110979Y43470D01*
X110975Y43410D01*
X110975Y42733D01*
X110244Y40967D01*
X108893Y39616D01*
X107127Y38885D01*
X105217Y38885D01*
G37*
%LPD*%
%LPC*%
G36*
X54590Y83692D02*
X54590Y83692D01*
X52676Y84485D01*
X51211Y85950D01*
X50418Y87864D01*
X50418Y89936D01*
X51211Y91850D01*
X52676Y93315D01*
X54590Y94108D01*
X56662Y94108D01*
X58576Y93315D01*
X60041Y91850D01*
X60834Y89936D01*
X60834Y87864D01*
X60041Y85950D01*
X58576Y84485D01*
X56662Y83692D01*
X54590Y83692D01*
G37*
%LPD*%
G36*
X56216Y51130D02*
X56216Y51130D01*
X56239Y51134D01*
X56246Y51149D01*
X56255Y51155D01*
X56253Y51165D01*
X56260Y51181D01*
X56260Y75819D01*
X56248Y75838D01*
X56245Y75860D01*
X56229Y75867D01*
X56223Y75876D01*
X56213Y75875D01*
X56198Y75882D01*
X53658Y75882D01*
X53639Y75870D01*
X53616Y75866D01*
X53609Y75851D01*
X53600Y75845D01*
X53602Y75835D01*
X53595Y75819D01*
X53595Y51181D01*
X53607Y51162D01*
X53610Y51140D01*
X53626Y51133D01*
X53632Y51124D01*
X53642Y51125D01*
X53658Y51118D01*
X56198Y51118D01*
X56216Y51130D01*
G37*
%LPC*%
G36*
X51815Y15239D02*
X51815Y15239D01*
X51855Y15496D01*
X52436Y17283D01*
X53289Y18957D01*
X54394Y20478D01*
X55722Y21806D01*
X57243Y22911D01*
X58917Y23764D01*
X60704Y24345D01*
X60961Y24385D01*
X60961Y15239D01*
X51815Y15239D01*
G37*
%LPD*%
G36*
X169500Y50876D02*
X169500Y50876D01*
X169523Y50880D01*
X169530Y50895D01*
X169539Y50901D01*
X169537Y50911D01*
X169544Y50927D01*
X169544Y65151D01*
X169532Y65170D01*
X169529Y65192D01*
X169513Y65199D01*
X169507Y65208D01*
X169497Y65207D01*
X169482Y65214D01*
X166942Y65214D01*
X166923Y65202D01*
X166900Y65198D01*
X166893Y65183D01*
X166884Y65177D01*
X166886Y65167D01*
X166879Y65151D01*
X166879Y50927D01*
X166891Y50908D01*
X166894Y50886D01*
X166910Y50879D01*
X166916Y50870D01*
X166926Y50871D01*
X166942Y50864D01*
X169482Y50864D01*
X169500Y50876D01*
G37*
D10*
X9793Y55150D02*
X5556Y57268D01*
X9793Y59387D01*
X10852Y62634D02*
X6615Y62634D01*
X10852Y62634D02*
X11912Y63693D01*
X11912Y65812D01*
X10852Y66871D01*
X6615Y66871D01*
X5556Y65812D01*
X5556Y63693D01*
X6615Y62634D01*
X10852Y66871D01*
X9793Y70118D02*
X11912Y72237D01*
X5556Y72237D01*
X5556Y74355D02*
X5556Y70118D01*
D11*
X174067Y45225D02*
X174067Y39611D01*
X162357Y39611D01*
X162357Y45225D01*
X174067Y45225D01*
X174067Y40552D02*
X162357Y40552D01*
X162357Y41493D02*
X174067Y41493D01*
X174067Y42434D02*
X162357Y42434D01*
X162357Y43375D02*
X174067Y43375D01*
X174067Y44316D02*
X162357Y44316D01*
X174067Y50025D02*
X174067Y55639D01*
X174067Y50025D02*
X162357Y50025D01*
X162357Y55639D01*
X174067Y55639D01*
X174067Y50966D02*
X162357Y50966D01*
X162357Y51907D02*
X174067Y51907D01*
X174067Y52848D02*
X162357Y52848D01*
X162357Y53789D02*
X174067Y53789D01*
X174067Y54730D02*
X162357Y54730D01*
X174067Y60439D02*
X174067Y66053D01*
X174067Y60439D02*
X162357Y60439D01*
X162357Y66053D01*
X174067Y66053D01*
X174067Y61380D02*
X162357Y61380D01*
X162357Y62321D02*
X174067Y62321D01*
X174067Y63262D02*
X162357Y63262D01*
X162357Y64203D02*
X174067Y64203D01*
X174067Y65144D02*
X162357Y65144D01*
X49073Y71107D02*
X49073Y76721D01*
X60783Y76721D01*
X60783Y71107D01*
X49073Y71107D01*
X49073Y72048D02*
X60783Y72048D01*
X60783Y72989D02*
X49073Y72989D01*
X49073Y73930D02*
X60783Y73930D01*
X60783Y74871D02*
X49073Y74871D01*
X49073Y75812D02*
X60783Y75812D01*
X49073Y66307D02*
X49073Y60693D01*
X49073Y66307D02*
X60783Y66307D01*
X60783Y60693D01*
X49073Y60693D01*
X49073Y61634D02*
X60783Y61634D01*
X60783Y62575D02*
X49073Y62575D01*
X49073Y63516D02*
X60783Y63516D01*
X60783Y64457D02*
X49073Y64457D01*
X49073Y65398D02*
X60783Y65398D01*
X49073Y55893D02*
X49073Y50279D01*
X49073Y55893D02*
X60783Y55893D01*
X60783Y50279D01*
X49073Y50279D01*
X49073Y51220D02*
X60783Y51220D01*
X60783Y52161D02*
X49073Y52161D01*
X49073Y53102D02*
X60783Y53102D01*
X60783Y54043D02*
X49073Y54043D01*
X49073Y54984D02*
X60783Y54984D01*
D12*
X190500Y12700D03*
X165100Y12700D03*
X139700Y12700D03*
X114300Y12700D03*
X88900Y12700D03*
X63500Y12700D03*
X63500Y114300D03*
X88900Y114300D03*
X114300Y114300D03*
X139700Y114300D03*
X165100Y114300D03*
X190500Y114300D03*
D13*
X55626Y88900D03*
X177800Y23876D03*
D11*
X197371Y52692D02*
X197371Y58306D01*
X197371Y52692D02*
X185661Y52692D01*
X185661Y58306D01*
X197371Y58306D01*
X197371Y53633D02*
X185661Y53633D01*
X185661Y54574D02*
X197371Y54574D01*
X197371Y55515D02*
X185661Y55515D01*
X185661Y56456D02*
X197371Y56456D01*
X197371Y57397D02*
X185661Y57397D01*
X197371Y63106D02*
X197371Y68720D01*
X197371Y63106D02*
X185661Y63106D01*
X185661Y68720D01*
X197371Y68720D01*
X197371Y64047D02*
X185661Y64047D01*
X185661Y64988D02*
X197371Y64988D01*
X197371Y65929D02*
X185661Y65929D01*
X185661Y66870D02*
X197371Y66870D01*
X197371Y67811D02*
X185661Y67811D01*
D14*
X100584Y88392D03*
X67056Y94488D03*
X163068Y32004D03*
X195072Y91440D03*
X154940Y81788D03*
X181356Y34544D03*
X195580Y44704D03*
X68580Y55880D03*
X66040Y69596D03*
X113792Y94996D03*
X142240Y66548D03*
X144272Y47244D03*
X106172Y43688D03*
D15*
X109958Y47474D02*
X137160Y47474D01*
X109958Y47474D02*
X106172Y43688D01*
D14*
X137160Y47474D03*
D15*
X165100Y19812D02*
X165100Y12700D01*
X160020Y24892D02*
X98552Y24892D01*
D14*
X98552Y24892D03*
D15*
X160020Y24892D02*
X165100Y19812D01*
D14*
X179832Y49784D03*
D15*
X171260Y49784D01*
X168212Y52832D01*
D14*
X91948Y50292D03*
X91948Y69596D03*
D16*
X91948Y63500D02*
X91948Y50292D01*
X91948Y63500D02*
X91948Y69596D01*
X91948Y73660D01*
X99060Y80772D02*
X119300Y80772D01*
D14*
X119300Y80772D03*
D16*
X99060Y80772D02*
X91948Y73660D01*
D15*
X91948Y63500D02*
X54928Y63500D01*
D16*
X119300Y80772D02*
X146923Y80772D01*
X154428Y73267D02*
X167434Y73267D01*
X154428Y73267D02*
X146923Y80772D01*
D14*
X167434Y73267D03*
X74676Y93980D03*
D15*
X98715Y102870D02*
X100493Y104648D01*
X106680Y104648D01*
X83566Y102870D02*
X74676Y93980D01*
X83566Y102870D02*
X98715Y102870D01*
X106680Y104648D02*
X114300Y112268D01*
X114300Y114300D01*
D14*
X148336Y32004D03*
D15*
X146026Y29694D01*
X65186Y29694D01*
X43180Y51700D01*
X43180Y72898D01*
X44196Y73914D01*
X54928Y73914D01*
D14*
X131739Y36132D03*
D15*
X128691Y33084D01*
X69025Y33084D01*
X54928Y47181D02*
X54928Y53086D01*
X54928Y47181D02*
X69025Y33084D01*
D14*
X195580Y83312D03*
D15*
X191516Y79248D02*
X191516Y65913D01*
X191516Y79248D02*
X195580Y83312D01*
D14*
X173736Y70612D03*
D15*
X173736Y68771D01*
X168212Y63246D01*
D14*
X69596Y84630D03*
D15*
X77010Y84630D01*
X92226Y99846D02*
X187730Y99846D01*
X190500Y102616D01*
X190500Y114300D01*
X92226Y99846D02*
X77010Y84630D01*
D14*
X179832Y41958D03*
D15*
X179372Y42418D01*
X168212Y42418D01*
M02*
