M48
;GenerationSoftware,Autodesk,EAGLE,9.6.2*%
;CreationDate,2022-04-08T18:10:26Z*%
FMAT,2
ICI,OFF
METRIC,TZ,000.000
T3C0.300
T2C1.016
T1C3.048
%
G90
M71
T1
X2540Y10160
X2540Y2540
T2
X19050Y11430
X19050Y1270
X16510Y1270
X13970Y1270
X11430Y1270
X8890Y1270
X6350Y1270
X6350Y11430
X8890Y11430
X11430Y11430
X13970Y11430
X16510Y11430
T3
X9855Y2489
X17983Y4978
X9195Y5029
X9195Y6960
X11930Y8077
X16743Y7327
X10058Y8839
X14834Y3200
X13174Y3613
X19558Y8331
X17374Y7061
X6960Y8463
X17983Y4196
X6706Y9449
X16307Y3200
X19507Y9144
X15494Y8179
X18136Y3454
X19558Y4470
X6858Y5588
X6604Y6960
X11379Y9500
X14224Y6655
X14427Y4724
X10617Y4369
X13716Y4747
X7468Y9398
M30