G04 EAGLE Gerber RS-274X export*
G75*
%MOMM*%
%FSLAX34Y34*%
%LPD*%
%INSilkscreen Bottom*%
%IPPOS*%
%AMOC8*
5,1,8,0,0,1.08239X$1,22.5*%
G01*
%ADD10R,0.508000X0.508000*%
%ADD11C,0.508000*%
%ADD12C,0.152400*%
%ADD13C,0.203200*%

G36*
X158679Y43909D02*
X158679Y43909D01*
X158678Y43911D01*
X158680Y43912D01*
X158780Y44412D01*
X158777Y44419D01*
X158781Y44422D01*
X158781Y54022D01*
X158745Y54069D01*
X158743Y54068D01*
X158742Y54070D01*
X158242Y54170D01*
X158235Y54167D01*
X158232Y54171D01*
X156232Y54171D01*
X156206Y54152D01*
X156193Y54152D01*
X156171Y54123D01*
X156170Y54153D01*
X156146Y54152D01*
X156132Y54171D01*
X127232Y54171D01*
X127226Y54167D01*
X127222Y54170D01*
X126727Y54071D01*
X126232Y54071D01*
X126227Y54068D01*
X126223Y54068D01*
X126219Y54065D01*
X126214Y54068D01*
X125718Y53869D01*
X125222Y53770D01*
X125212Y53759D01*
X125202Y53761D01*
X124808Y53465D01*
X124314Y53268D01*
X124306Y53256D01*
X124297Y53257D01*
X123197Y52157D01*
X123196Y52152D01*
X123193Y52152D01*
X122893Y51752D01*
X122893Y51742D01*
X122886Y51740D01*
X122687Y51242D01*
X122488Y50844D01*
X122489Y50841D01*
X122486Y50840D01*
X122286Y50340D01*
X122287Y50339D01*
X122286Y50338D01*
X122288Y50335D01*
X122288Y50334D01*
X122284Y50332D01*
X122184Y49832D01*
X122187Y49825D01*
X122183Y49822D01*
X122183Y48322D01*
X122187Y48316D01*
X122184Y48312D01*
X122284Y47812D01*
X122289Y47808D01*
X122286Y47804D01*
X122686Y46804D01*
X122689Y46802D01*
X122688Y46800D01*
X122888Y46400D01*
X122891Y46399D01*
X122890Y46397D01*
X123190Y45897D01*
X123198Y45893D01*
X123197Y45887D01*
X123897Y45187D01*
X123902Y45186D01*
X123902Y45183D01*
X124702Y44583D01*
X124709Y44583D01*
X124710Y44578D01*
X125110Y44378D01*
X125113Y44379D01*
X125114Y44376D01*
X126114Y43976D01*
X126127Y43980D01*
X126132Y43973D01*
X126627Y43973D01*
X127122Y43874D01*
X127129Y43877D01*
X127132Y43873D01*
X158632Y43873D01*
X158679Y43909D01*
G37*
G36*
X158741Y56609D02*
X158741Y56609D01*
X158736Y56616D01*
X158743Y56622D01*
X158743Y66722D01*
X158707Y66769D01*
X158706Y66769D01*
X158706Y66770D01*
X158306Y66870D01*
X158298Y66866D01*
X158294Y66871D01*
X128694Y66871D01*
X128688Y66867D01*
X128684Y66870D01*
X128189Y66771D01*
X127694Y66771D01*
X127689Y66768D01*
X127685Y66768D01*
X127681Y66765D01*
X127676Y66768D01*
X127179Y66569D01*
X126782Y66470D01*
X126775Y66462D01*
X126769Y66464D01*
X126271Y66165D01*
X125872Y65966D01*
X125867Y65956D01*
X125859Y65957D01*
X125462Y65559D01*
X125064Y65261D01*
X125062Y65252D01*
X125055Y65252D01*
X124455Y64452D01*
X124455Y64442D01*
X124448Y64440D01*
X124251Y63946D01*
X123955Y63552D01*
X123955Y63537D01*
X123950Y63534D01*
X123946Y63532D01*
X123646Y62032D01*
X123649Y62025D01*
X123645Y62022D01*
X123645Y61522D01*
X123649Y61516D01*
X123646Y61512D01*
X123946Y60012D01*
X123951Y60008D01*
X123948Y60004D01*
X124148Y59504D01*
X124156Y59499D01*
X124155Y59492D01*
X124452Y59096D01*
X124650Y58700D01*
X124660Y58695D01*
X124659Y58687D01*
X125057Y58290D01*
X125355Y57892D01*
X125364Y57890D01*
X125364Y57883D01*
X125764Y57583D01*
X125768Y57583D01*
X125769Y57580D01*
X126269Y57280D01*
X126272Y57280D01*
X126272Y57278D01*
X126672Y57078D01*
X126675Y57079D01*
X126676Y57076D01*
X127676Y56676D01*
X127689Y56680D01*
X127694Y56673D01*
X128189Y56673D01*
X128684Y56574D01*
X128691Y56577D01*
X128694Y56573D01*
X158694Y56573D01*
X158741Y56609D01*
G37*
G36*
X25974Y54033D02*
X25974Y54033D01*
X26040Y54039D01*
X26058Y54050D01*
X26079Y54054D01*
X26164Y54114D01*
X26188Y54129D01*
X26191Y54133D01*
X26196Y54137D01*
X28396Y56437D01*
X28404Y56451D01*
X28417Y56461D01*
X28448Y56525D01*
X28484Y56586D01*
X28485Y56602D01*
X28492Y56616D01*
X28491Y56688D01*
X28497Y56759D01*
X28491Y56773D01*
X28490Y56790D01*
X28433Y56915D01*
X28431Y56919D01*
X28431Y56920D01*
X26563Y59535D01*
X26565Y59545D01*
X26574Y59559D01*
X26585Y59617D01*
X26594Y59637D01*
X26594Y59659D01*
X26600Y59693D01*
X26601Y59698D01*
X26601Y59699D01*
X26601Y59710D01*
X26634Y59775D01*
X26690Y59831D01*
X26701Y59849D01*
X26713Y59858D01*
X26721Y59877D01*
X26761Y59930D01*
X26834Y60075D01*
X26890Y60131D01*
X26930Y60196D01*
X26974Y60259D01*
X26976Y60270D01*
X26981Y60278D01*
X26985Y60313D01*
X27001Y60399D01*
X27001Y60449D01*
X27030Y60496D01*
X27074Y60559D01*
X27076Y60570D01*
X27081Y60578D01*
X27085Y60613D01*
X27101Y60699D01*
X27101Y60810D01*
X27134Y60875D01*
X27190Y60931D01*
X27230Y60996D01*
X27274Y61059D01*
X27276Y61070D01*
X27281Y61078D01*
X27285Y61113D01*
X27291Y61147D01*
X27294Y61154D01*
X27294Y61162D01*
X27301Y61199D01*
X27301Y61249D01*
X27330Y61296D01*
X27374Y61359D01*
X27376Y61370D01*
X27381Y61378D01*
X27385Y61413D01*
X27401Y61499D01*
X27401Y61610D01*
X27430Y61667D01*
X30686Y62225D01*
X30704Y62233D01*
X30723Y62234D01*
X30783Y62266D01*
X30845Y62293D01*
X30858Y62307D01*
X30875Y62317D01*
X30914Y62372D01*
X30958Y62424D01*
X30963Y62443D01*
X30974Y62459D01*
X30996Y62569D01*
X31001Y62592D01*
X31000Y62595D01*
X31001Y62599D01*
X31001Y65799D01*
X30997Y65818D01*
X30999Y65837D01*
X30988Y65871D01*
X30987Y65878D01*
X30982Y65888D01*
X30977Y65902D01*
X30962Y65968D01*
X30949Y65983D01*
X30943Y66001D01*
X30895Y66049D01*
X30852Y66101D01*
X30834Y66109D01*
X30820Y66123D01*
X30714Y66162D01*
X30694Y66172D01*
X30690Y66172D01*
X30686Y66173D01*
X27474Y66724D01*
X27463Y66762D01*
X27462Y66768D01*
X27461Y66768D01*
X27461Y66769D01*
X27401Y66889D01*
X27401Y66899D01*
X27398Y66915D01*
X27400Y66931D01*
X27380Y67000D01*
X27380Y67016D01*
X27372Y67030D01*
X27363Y67062D01*
X27362Y67068D01*
X27361Y67068D01*
X27361Y67069D01*
X27301Y67189D01*
X27301Y67199D01*
X27298Y67215D01*
X27300Y67231D01*
X27263Y67362D01*
X27262Y67368D01*
X27261Y67368D01*
X27261Y67369D01*
X27101Y67689D01*
X27101Y67699D01*
X27098Y67715D01*
X27100Y67731D01*
X27063Y67862D01*
X27062Y67868D01*
X27061Y67868D01*
X27061Y67869D01*
X26961Y68069D01*
X26938Y68096D01*
X26901Y68151D01*
X26901Y68199D01*
X26884Y68274D01*
X26870Y68349D01*
X26864Y68359D01*
X26862Y68368D01*
X26839Y68395D01*
X26790Y68467D01*
X26734Y68524D01*
X26661Y68669D01*
X26638Y68696D01*
X26601Y68751D01*
X26601Y68799D01*
X26584Y68874D01*
X26580Y68895D01*
X28434Y71584D01*
X28440Y71600D01*
X28452Y71612D01*
X28472Y71680D01*
X28497Y71745D01*
X28496Y71762D01*
X28501Y71778D01*
X28488Y71848D01*
X28482Y71917D01*
X28473Y71932D01*
X28470Y71949D01*
X28399Y72055D01*
X28392Y72065D01*
X28391Y72066D01*
X28390Y72067D01*
X26190Y74267D01*
X26176Y74276D01*
X26165Y74290D01*
X26103Y74322D01*
X26043Y74359D01*
X26026Y74360D01*
X26011Y74368D01*
X25941Y74368D01*
X25871Y74375D01*
X25855Y74369D01*
X25838Y74369D01*
X25720Y74317D01*
X25709Y74313D01*
X25708Y74312D01*
X25707Y74311D01*
X23008Y72450D01*
X22990Y72467D01*
X22925Y72508D01*
X22863Y72551D01*
X22851Y72554D01*
X22843Y72559D01*
X22808Y72562D01*
X22722Y72578D01*
X22672Y72578D01*
X22660Y72586D01*
X22592Y72638D01*
X22447Y72711D01*
X22390Y72767D01*
X22325Y72808D01*
X22263Y72851D01*
X22251Y72854D01*
X22243Y72859D01*
X22208Y72862D01*
X22122Y72878D01*
X22072Y72878D01*
X22060Y72886D01*
X21992Y72938D01*
X21792Y73038D01*
X21776Y73042D01*
X21763Y73051D01*
X21629Y73077D01*
X21623Y73078D01*
X21622Y73078D01*
X21612Y73078D01*
X21492Y73138D01*
X21476Y73142D01*
X21463Y73151D01*
X21329Y73177D01*
X21323Y73178D01*
X21322Y73178D01*
X21272Y73178D01*
X21225Y73208D01*
X21163Y73251D01*
X21151Y73254D01*
X21143Y73259D01*
X21108Y73262D01*
X21022Y73278D01*
X20912Y73278D01*
X20854Y73307D01*
X20296Y76563D01*
X20288Y76581D01*
X20287Y76601D01*
X20255Y76660D01*
X20228Y76723D01*
X20214Y76735D01*
X20204Y76752D01*
X20149Y76791D01*
X20097Y76836D01*
X20078Y76840D01*
X20063Y76851D01*
X19952Y76873D01*
X19930Y76878D01*
X19926Y76878D01*
X19922Y76878D01*
X16722Y76878D01*
X16703Y76874D01*
X16684Y76877D01*
X16620Y76854D01*
X16554Y76839D01*
X16539Y76827D01*
X16520Y76820D01*
X16473Y76772D01*
X16420Y76729D01*
X16412Y76711D01*
X16399Y76697D01*
X16359Y76591D01*
X16350Y76571D01*
X16350Y76567D01*
X16348Y76563D01*
X15798Y73351D01*
X15759Y73340D01*
X15754Y73339D01*
X15753Y73339D01*
X15752Y73338D01*
X15632Y73278D01*
X15622Y73278D01*
X15606Y73275D01*
X15590Y73277D01*
X15459Y73240D01*
X15454Y73239D01*
X15453Y73239D01*
X15452Y73238D01*
X15332Y73178D01*
X15322Y73178D01*
X15306Y73175D01*
X15290Y73177D01*
X15159Y73140D01*
X15154Y73139D01*
X15153Y73139D01*
X15152Y73138D01*
X15032Y73078D01*
X14922Y73078D01*
X14848Y73061D01*
X14772Y73048D01*
X14763Y73041D01*
X14754Y73039D01*
X14726Y73016D01*
X14654Y72967D01*
X14597Y72911D01*
X14532Y72878D01*
X14522Y72878D01*
X14506Y72875D01*
X14490Y72877D01*
X14359Y72840D01*
X14354Y72839D01*
X14353Y72839D01*
X14352Y72838D01*
X14152Y72738D01*
X14125Y72715D01*
X14054Y72667D01*
X13997Y72611D01*
X13932Y72578D01*
X13922Y72578D01*
X13906Y72575D01*
X13890Y72577D01*
X13759Y72540D01*
X13754Y72539D01*
X13753Y72539D01*
X13752Y72538D01*
X13611Y72468D01*
X10937Y74311D01*
X10925Y74316D01*
X10916Y74325D01*
X10845Y74348D01*
X10776Y74375D01*
X10763Y74373D01*
X10751Y74377D01*
X10678Y74366D01*
X10604Y74360D01*
X10593Y74353D01*
X10580Y74351D01*
X10460Y74273D01*
X8160Y72073D01*
X8146Y72052D01*
X8126Y72036D01*
X8099Y71980D01*
X8065Y71928D01*
X8062Y71903D01*
X8051Y71880D01*
X8052Y71818D01*
X8045Y71756D01*
X8054Y71732D01*
X8054Y71706D01*
X8092Y71627D01*
X8103Y71594D01*
X8110Y71587D01*
X8115Y71577D01*
X10050Y68904D01*
X10010Y68824D01*
X9954Y68767D01*
X9914Y68703D01*
X9870Y68640D01*
X9868Y68628D01*
X9863Y68620D01*
X9859Y68585D01*
X9843Y68499D01*
X9843Y68449D01*
X9835Y68437D01*
X9783Y68369D01*
X9710Y68224D01*
X9654Y68167D01*
X9614Y68103D01*
X9570Y68040D01*
X9568Y68028D01*
X9563Y68020D01*
X9559Y67985D01*
X9543Y67899D01*
X9543Y67849D01*
X9514Y67803D01*
X9470Y67740D01*
X9468Y67728D01*
X9463Y67720D01*
X9459Y67685D01*
X9443Y67599D01*
X9443Y67489D01*
X9410Y67424D01*
X9354Y67367D01*
X9314Y67303D01*
X9270Y67240D01*
X9268Y67228D01*
X9263Y67220D01*
X9259Y67185D01*
X9243Y67099D01*
X9243Y67049D01*
X9214Y67003D01*
X9170Y66940D01*
X9168Y66928D01*
X9163Y66920D01*
X9159Y66885D01*
X9143Y66799D01*
X9143Y66720D01*
X5860Y66173D01*
X5841Y66165D01*
X5821Y66165D01*
X5762Y66133D01*
X5700Y66107D01*
X5687Y66091D01*
X5669Y66082D01*
X5631Y66027D01*
X5587Y65976D01*
X5581Y65956D01*
X5570Y65940D01*
X5554Y65859D01*
X5550Y65848D01*
X5550Y65837D01*
X5549Y65833D01*
X5543Y65809D01*
X5544Y65804D01*
X5543Y65799D01*
X5543Y62599D01*
X5547Y62580D01*
X5545Y62561D01*
X5567Y62497D01*
X5582Y62431D01*
X5595Y62416D01*
X5601Y62397D01*
X5649Y62350D01*
X5692Y62297D01*
X5710Y62289D01*
X5724Y62276D01*
X5830Y62236D01*
X5850Y62227D01*
X5854Y62227D01*
X5858Y62225D01*
X9146Y61662D01*
X9181Y61536D01*
X9182Y61531D01*
X9183Y61530D01*
X9243Y61410D01*
X9243Y61399D01*
X9246Y61383D01*
X9244Y61367D01*
X9281Y61236D01*
X9282Y61231D01*
X9283Y61230D01*
X9343Y61110D01*
X9343Y61099D01*
X9346Y61083D01*
X9344Y61067D01*
X9381Y60936D01*
X9382Y60931D01*
X9383Y60930D01*
X9543Y60610D01*
X9543Y60599D01*
X9546Y60583D01*
X9544Y60567D01*
X9581Y60436D01*
X9582Y60431D01*
X9583Y60430D01*
X9683Y60230D01*
X9706Y60202D01*
X9754Y60131D01*
X9810Y60075D01*
X9843Y60010D01*
X9843Y59999D01*
X9846Y59983D01*
X9844Y59967D01*
X9881Y59836D01*
X9882Y59831D01*
X9883Y59830D01*
X9983Y59630D01*
X10006Y59602D01*
X10054Y59531D01*
X10064Y59521D01*
X8119Y56927D01*
X8109Y56904D01*
X8092Y56886D01*
X8074Y56826D01*
X8049Y56768D01*
X8050Y56744D01*
X8043Y56720D01*
X8054Y56658D01*
X8057Y56595D01*
X8069Y56574D01*
X8074Y56550D01*
X8125Y56474D01*
X8141Y56444D01*
X8148Y56439D01*
X8154Y56431D01*
X10454Y54131D01*
X10468Y54122D01*
X10479Y54108D01*
X10541Y54077D01*
X10601Y54040D01*
X10618Y54038D01*
X10633Y54030D01*
X10704Y54030D01*
X10773Y54023D01*
X10789Y54030D01*
X10806Y54029D01*
X10924Y54081D01*
X10935Y54085D01*
X10936Y54086D01*
X10937Y54087D01*
X13636Y55948D01*
X13654Y55931D01*
X13719Y55891D01*
X13781Y55847D01*
X13793Y55845D01*
X13801Y55840D01*
X13836Y55836D01*
X13851Y55834D01*
X13854Y55831D01*
X13919Y55791D01*
X13981Y55747D01*
X13993Y55745D01*
X14001Y55740D01*
X14036Y55736D01*
X14122Y55720D01*
X14172Y55720D01*
X14219Y55691D01*
X14281Y55647D01*
X14293Y55645D01*
X14301Y55640D01*
X14336Y55636D01*
X14351Y55634D01*
X14354Y55631D01*
X14419Y55591D01*
X14481Y55547D01*
X14493Y55545D01*
X14501Y55540D01*
X14536Y55536D01*
X14551Y55534D01*
X14554Y55531D01*
X14619Y55491D01*
X14681Y55447D01*
X14693Y55445D01*
X14701Y55440D01*
X14736Y55436D01*
X14765Y55431D01*
X14792Y55397D01*
X14811Y55389D01*
X14826Y55375D01*
X14889Y55354D01*
X14950Y55327D01*
X14971Y55328D01*
X14990Y55321D01*
X15056Y55331D01*
X15123Y55334D01*
X15141Y55344D01*
X15161Y55346D01*
X15216Y55385D01*
X15275Y55417D01*
X15287Y55433D01*
X15303Y55445D01*
X15360Y55538D01*
X15374Y55559D01*
X15375Y55563D01*
X15378Y55567D01*
X17378Y60967D01*
X17382Y60998D01*
X17394Y61026D01*
X17392Y61083D01*
X17399Y61139D01*
X17389Y61168D01*
X17388Y61199D01*
X17361Y61249D01*
X17342Y61303D01*
X17320Y61324D01*
X17305Y61351D01*
X17245Y61397D01*
X17218Y61424D01*
X17205Y61428D01*
X17192Y61438D01*
X16647Y61711D01*
X16490Y61867D01*
X16460Y61886D01*
X16392Y61938D01*
X16247Y62011D01*
X15934Y62324D01*
X15861Y62469D01*
X15838Y62496D01*
X15790Y62567D01*
X15634Y62724D01*
X15573Y62845D01*
X15482Y63119D01*
X15470Y63139D01*
X15461Y63169D01*
X15401Y63289D01*
X15401Y63399D01*
X15393Y63434D01*
X15382Y63519D01*
X15301Y63761D01*
X15301Y64538D01*
X15382Y64779D01*
X15385Y64815D01*
X15401Y64899D01*
X15401Y65084D01*
X15538Y65289D01*
X15551Y65324D01*
X15582Y65379D01*
X15666Y65631D01*
X16017Y66158D01*
X16364Y66504D01*
X16890Y66855D01*
X17142Y66939D01*
X17160Y66951D01*
X17174Y66954D01*
X17187Y66964D01*
X17232Y66984D01*
X17437Y67120D01*
X17622Y67120D01*
X17657Y67128D01*
X17742Y67139D01*
X17984Y67220D01*
X18575Y67220D01*
X18930Y67131D01*
X18966Y67131D01*
X19022Y67120D01*
X19207Y67120D01*
X19412Y66984D01*
X19447Y66971D01*
X19496Y66943D01*
X19498Y66941D01*
X19499Y66941D01*
X19502Y66939D01*
X19754Y66855D01*
X19981Y66704D01*
X20154Y66531D01*
X20180Y66515D01*
X20212Y66484D01*
X20481Y66304D01*
X20627Y66158D01*
X20978Y65631D01*
X21343Y64538D01*
X21343Y64061D01*
X21262Y63819D01*
X21259Y63783D01*
X21243Y63699D01*
X21243Y63489D01*
X21083Y63169D01*
X21077Y63146D01*
X21062Y63119D01*
X20971Y62845D01*
X20810Y62524D01*
X20654Y62367D01*
X20635Y62337D01*
X20583Y62269D01*
X20510Y62124D01*
X20397Y62011D01*
X20252Y61938D01*
X20225Y61915D01*
X20154Y61867D01*
X19997Y61711D01*
X19676Y61550D01*
X19402Y61459D01*
X19353Y61429D01*
X19300Y61407D01*
X19280Y61384D01*
X19255Y61368D01*
X19224Y61319D01*
X19187Y61276D01*
X19179Y61247D01*
X19163Y61222D01*
X19157Y61164D01*
X19143Y61109D01*
X19149Y61075D01*
X19146Y61049D01*
X19158Y61018D01*
X19166Y60967D01*
X21166Y55567D01*
X21192Y55529D01*
X21208Y55486D01*
X21239Y55458D01*
X21262Y55423D01*
X21302Y55400D01*
X21335Y55369D01*
X21375Y55357D01*
X21412Y55336D01*
X21457Y55333D01*
X21501Y55321D01*
X21542Y55328D01*
X21584Y55325D01*
X21627Y55343D01*
X21672Y55351D01*
X21713Y55379D01*
X21744Y55392D01*
X21761Y55411D01*
X21774Y55420D01*
X21822Y55420D01*
X21896Y55437D01*
X21972Y55451D01*
X21981Y55457D01*
X21990Y55459D01*
X22018Y55482D01*
X22090Y55531D01*
X22097Y55537D01*
X22172Y55551D01*
X22181Y55557D01*
X22190Y55559D01*
X22218Y55582D01*
X22290Y55631D01*
X22297Y55637D01*
X22372Y55651D01*
X22381Y55657D01*
X22390Y55659D01*
X22418Y55682D01*
X22490Y55731D01*
X22497Y55737D01*
X22572Y55751D01*
X22581Y55757D01*
X22590Y55759D01*
X22618Y55782D01*
X22690Y55831D01*
X22697Y55837D01*
X22772Y55851D01*
X22781Y55857D01*
X22790Y55859D01*
X22818Y55882D01*
X22890Y55931D01*
X22897Y55937D01*
X22972Y55951D01*
X22981Y55957D01*
X22990Y55959D01*
X22991Y55960D01*
X25707Y54087D01*
X25727Y54079D01*
X25743Y54065D01*
X25806Y54048D01*
X25868Y54024D01*
X25889Y54026D01*
X25910Y54020D01*
X25974Y54033D01*
G37*
G36*
X151522Y69277D02*
X151522Y69277D01*
X151526Y69274D01*
X152021Y69373D01*
X152516Y69373D01*
X152527Y69381D01*
X152534Y69376D01*
X154034Y69976D01*
X154039Y69984D01*
X154046Y69983D01*
X154846Y70583D01*
X154847Y70588D01*
X154851Y70587D01*
X155551Y71287D01*
X155552Y71296D01*
X155558Y71297D01*
X155858Y71797D01*
X155858Y71800D01*
X155860Y71800D01*
X156060Y72200D01*
X156059Y72203D01*
X156062Y72204D01*
X156262Y72704D01*
X156261Y72706D01*
X156263Y72707D01*
X156260Y72710D01*
X156264Y72712D01*
X156564Y74212D01*
X156561Y74219D01*
X156565Y74222D01*
X156565Y74722D01*
X156561Y74728D01*
X156564Y74732D01*
X156264Y76232D01*
X156257Y76238D01*
X156260Y76244D01*
X156060Y76644D01*
X156057Y76645D01*
X156058Y76647D01*
X155759Y77145D01*
X155560Y77544D01*
X155550Y77549D01*
X155551Y77557D01*
X154851Y78257D01*
X154846Y78258D01*
X154846Y78261D01*
X154446Y78561D01*
X154442Y78561D01*
X154441Y78564D01*
X153941Y78864D01*
X153938Y78864D01*
X153938Y78866D01*
X153538Y79066D01*
X153535Y79065D01*
X153534Y79068D01*
X152534Y79468D01*
X152527Y79466D01*
X152525Y79468D01*
X152519Y79468D01*
X152516Y79471D01*
X152021Y79471D01*
X151526Y79570D01*
X151519Y79567D01*
X151516Y79571D01*
X129616Y79571D01*
X129610Y79567D01*
X129606Y79570D01*
X128606Y79370D01*
X128602Y79365D01*
X128598Y79368D01*
X127598Y78968D01*
X127593Y78960D01*
X127586Y78961D01*
X126386Y78061D01*
X126384Y78052D01*
X126377Y78052D01*
X125477Y76852D01*
X125477Y76842D01*
X125470Y76840D01*
X125070Y75840D01*
X125071Y75838D01*
X125069Y75836D01*
X125070Y75835D01*
X125068Y75834D01*
X124968Y75434D01*
X124969Y75431D01*
X124967Y75430D01*
X124867Y74830D01*
X124870Y74825D01*
X124867Y74822D01*
X124867Y73822D01*
X124871Y73816D01*
X124868Y73812D01*
X125068Y72812D01*
X125075Y72806D01*
X125072Y72800D01*
X125272Y72400D01*
X125275Y72399D01*
X125274Y72397D01*
X125573Y71899D01*
X125772Y71500D01*
X125778Y71497D01*
X125777Y71492D01*
X126077Y71092D01*
X126082Y71091D01*
X126081Y71087D01*
X126481Y70687D01*
X126486Y70686D01*
X126486Y70683D01*
X127686Y69783D01*
X127696Y69783D01*
X127698Y69776D01*
X128198Y69576D01*
X128204Y69578D01*
X128206Y69574D01*
X129706Y69274D01*
X129713Y69277D01*
X129716Y69273D01*
X151516Y69273D01*
X151522Y69277D01*
G37*
G36*
X39268Y48593D02*
X39268Y48593D01*
X39272Y48590D01*
X40272Y48790D01*
X40276Y48795D01*
X40280Y48792D01*
X41280Y49192D01*
X41285Y49200D01*
X41292Y49199D01*
X42492Y50099D01*
X42494Y50108D01*
X42501Y50108D01*
X43401Y51308D01*
X43401Y51318D01*
X43408Y51320D01*
X43808Y52320D01*
X43806Y52326D01*
X43810Y52328D01*
X44010Y53328D01*
X44007Y53335D01*
X44011Y53338D01*
X44011Y72138D01*
X44007Y72144D01*
X44010Y72148D01*
X43810Y73148D01*
X43803Y73154D01*
X43806Y73160D01*
X43607Y73558D01*
X43408Y74056D01*
X43405Y74058D01*
X43406Y74060D01*
X43206Y74460D01*
X43203Y74461D01*
X43204Y74463D01*
X42904Y74963D01*
X42892Y74968D01*
X42892Y74977D01*
X42497Y75273D01*
X42201Y75668D01*
X42192Y75670D01*
X42192Y75677D01*
X41792Y75977D01*
X41782Y75977D01*
X41780Y75984D01*
X41286Y76181D01*
X40892Y76477D01*
X40876Y76477D01*
X40872Y76486D01*
X40376Y76585D01*
X39880Y76784D01*
X39867Y76780D01*
X39862Y76787D01*
X39367Y76787D01*
X38872Y76886D01*
X38859Y76880D01*
X38852Y76886D01*
X38357Y76787D01*
X37862Y76787D01*
X37851Y76779D01*
X37844Y76784D01*
X37348Y76585D01*
X36852Y76486D01*
X36846Y76479D01*
X36840Y76482D01*
X36440Y76282D01*
X36439Y76279D01*
X36437Y76280D01*
X35937Y75980D01*
X35935Y75977D01*
X35932Y75977D01*
X35532Y75677D01*
X35530Y75668D01*
X35523Y75668D01*
X35227Y75273D01*
X34832Y74977D01*
X34829Y74964D01*
X34820Y74963D01*
X34520Y74463D01*
X34520Y74460D01*
X34518Y74460D01*
X34318Y74060D01*
X34319Y74057D01*
X34316Y74056D01*
X34117Y73558D01*
X33918Y73160D01*
X33920Y73151D01*
X33914Y73148D01*
X33714Y72148D01*
X33715Y72144D01*
X33717Y72141D01*
X33713Y72138D01*
X33713Y53438D01*
X33717Y53432D01*
X33714Y53428D01*
X34014Y51928D01*
X34021Y51922D01*
X34018Y51916D01*
X34218Y51516D01*
X34221Y51515D01*
X34220Y51513D01*
X34520Y51013D01*
X34523Y51011D01*
X34523Y51008D01*
X35123Y50208D01*
X35132Y50206D01*
X35132Y50199D01*
X36332Y49299D01*
X36342Y49299D01*
X36344Y49292D01*
X36842Y49093D01*
X37240Y48894D01*
X37243Y48895D01*
X37244Y48892D01*
X37744Y48692D01*
X37757Y48696D01*
X37762Y48689D01*
X38257Y48689D01*
X38752Y48590D01*
X38759Y48593D01*
X38762Y48589D01*
X39262Y48589D01*
X39268Y48593D01*
G37*
G36*
X190806Y81839D02*
X190806Y81839D01*
X190810Y81836D01*
X191810Y82036D01*
X191820Y82047D01*
X191830Y82045D01*
X192224Y82341D01*
X192718Y82538D01*
X192726Y82550D01*
X192735Y82549D01*
X193135Y82949D01*
X193136Y82954D01*
X193139Y82954D01*
X193739Y83754D01*
X193739Y83761D01*
X193744Y83762D01*
X193944Y84162D01*
X193942Y84171D01*
X193948Y84174D01*
X194148Y85174D01*
X194143Y85186D01*
X194149Y85192D01*
X194049Y85788D01*
X194049Y86284D01*
X194040Y86297D01*
X194044Y86306D01*
X193845Y86704D01*
X193646Y87202D01*
X193638Y87207D01*
X193639Y87214D01*
X193339Y87614D01*
X193334Y87615D01*
X193335Y87619D01*
X192935Y88019D01*
X192930Y88020D01*
X192930Y88023D01*
X192530Y88323D01*
X192523Y88323D01*
X192522Y88328D01*
X192122Y88528D01*
X192141Y88557D01*
X192141Y88560D01*
X192144Y88562D01*
X192142Y88566D01*
X192146Y88569D01*
X192140Y88577D01*
X192137Y88617D01*
X192118Y88615D01*
X192110Y88632D01*
X191616Y88731D01*
X191222Y88928D01*
X191213Y88926D01*
X191213Y88927D01*
X191205Y88927D01*
X191200Y88933D01*
X189600Y88933D01*
X189591Y88927D01*
X189587Y88927D01*
X189582Y88930D01*
X189082Y88730D01*
X189080Y88727D01*
X189078Y88728D01*
X188680Y88529D01*
X188182Y88330D01*
X188177Y88322D01*
X188170Y88323D01*
X187770Y88023D01*
X187768Y88014D01*
X187761Y88014D01*
X187161Y87214D01*
X187161Y87204D01*
X187154Y87202D01*
X186955Y86704D01*
X186756Y86306D01*
X186759Y86290D01*
X186751Y86284D01*
X186751Y85790D01*
X186652Y85396D01*
X186658Y85382D01*
X186652Y85374D01*
X186852Y84374D01*
X186859Y84368D01*
X186856Y84362D01*
X187055Y83964D01*
X187254Y83466D01*
X187262Y83461D01*
X187261Y83454D01*
X187561Y83054D01*
X187570Y83052D01*
X187570Y83045D01*
X187968Y82747D01*
X188365Y82349D01*
X188377Y82348D01*
X188378Y82340D01*
X188778Y82140D01*
X188781Y82141D01*
X188782Y82138D01*
X189282Y81938D01*
X189288Y81940D01*
X189290Y81936D01*
X189790Y81836D01*
X189797Y81839D01*
X189800Y81835D01*
X190800Y81835D01*
X190806Y81839D01*
G37*
G36*
X115114Y96611D02*
X115114Y96611D01*
X115118Y96608D01*
X116118Y96808D01*
X116124Y96815D01*
X116130Y96812D01*
X116530Y97012D01*
X116531Y97015D01*
X116533Y97014D01*
X117033Y97314D01*
X117037Y97322D01*
X117043Y97321D01*
X117443Y97721D01*
X117444Y97726D01*
X117447Y97726D01*
X118047Y98526D01*
X118047Y98533D01*
X118052Y98534D01*
X118252Y98934D01*
X118250Y98943D01*
X118256Y98946D01*
X118456Y99946D01*
X118450Y99959D01*
X118456Y99966D01*
X118357Y100461D01*
X118357Y100956D01*
X118349Y100967D01*
X118354Y100974D01*
X118154Y101474D01*
X118151Y101476D01*
X118152Y101478D01*
X117952Y101878D01*
X117949Y101879D01*
X117950Y101881D01*
X117650Y102381D01*
X117638Y102386D01*
X117638Y102395D01*
X117240Y102693D01*
X116843Y103091D01*
X116831Y103092D01*
X116830Y103100D01*
X116430Y103300D01*
X116427Y103299D01*
X116426Y103302D01*
X115928Y103501D01*
X115530Y103700D01*
X115521Y103698D01*
X115521Y103699D01*
X115513Y103699D01*
X115508Y103705D01*
X113908Y103705D01*
X113899Y103699D01*
X113895Y103699D01*
X113890Y103702D01*
X113390Y103502D01*
X113388Y103499D01*
X113386Y103500D01*
X112988Y103301D01*
X112490Y103102D01*
X112485Y103094D01*
X112478Y103095D01*
X112078Y102795D01*
X112076Y102786D01*
X112069Y102786D01*
X111469Y101986D01*
X111469Y101976D01*
X111462Y101974D01*
X111263Y101476D01*
X111064Y101078D01*
X111067Y101062D01*
X111059Y101056D01*
X111059Y100562D01*
X110960Y100168D01*
X110966Y100154D01*
X110960Y100146D01*
X111160Y99146D01*
X111167Y99140D01*
X111164Y99134D01*
X111363Y98736D01*
X111562Y98238D01*
X111570Y98233D01*
X111569Y98226D01*
X111869Y97826D01*
X111874Y97825D01*
X111873Y97821D01*
X112273Y97421D01*
X112278Y97420D01*
X112278Y97417D01*
X112678Y97117D01*
X112685Y97117D01*
X112686Y97112D01*
X113086Y96912D01*
X113089Y96913D01*
X113090Y96910D01*
X113590Y96710D01*
X113596Y96712D01*
X113598Y96708D01*
X114098Y96608D01*
X114105Y96611D01*
X114108Y96607D01*
X115108Y96607D01*
X115114Y96611D01*
G37*
G36*
X190806Y23791D02*
X190806Y23791D01*
X190810Y23788D01*
X191810Y23988D01*
X191816Y23995D01*
X191822Y23992D01*
X192222Y24192D01*
X192223Y24195D01*
X192225Y24194D01*
X192725Y24494D01*
X192729Y24502D01*
X192735Y24501D01*
X193135Y24901D01*
X193136Y24906D01*
X193139Y24906D01*
X193739Y25706D01*
X193739Y25713D01*
X193744Y25714D01*
X193944Y26114D01*
X193942Y26123D01*
X193948Y26126D01*
X194148Y27126D01*
X194142Y27139D01*
X194148Y27146D01*
X194049Y27641D01*
X194049Y28136D01*
X194041Y28147D01*
X194046Y28154D01*
X193846Y28654D01*
X193843Y28656D01*
X193844Y28658D01*
X193644Y29058D01*
X193641Y29059D01*
X193642Y29061D01*
X193342Y29561D01*
X193330Y29566D01*
X193330Y29575D01*
X192932Y29873D01*
X192535Y30271D01*
X192523Y30272D01*
X192522Y30280D01*
X192122Y30480D01*
X192119Y30479D01*
X192118Y30482D01*
X191620Y30681D01*
X191222Y30880D01*
X191213Y30878D01*
X191213Y30879D01*
X191205Y30879D01*
X191200Y30885D01*
X190100Y30885D01*
X190094Y30881D01*
X190090Y30884D01*
X189090Y30684D01*
X189084Y30677D01*
X189078Y30680D01*
X188680Y30481D01*
X188182Y30282D01*
X188177Y30274D01*
X188170Y30275D01*
X187770Y29975D01*
X187768Y29966D01*
X187761Y29966D01*
X187161Y29166D01*
X187161Y29156D01*
X187154Y29154D01*
X186955Y28656D01*
X186756Y28258D01*
X186759Y28242D01*
X186751Y28236D01*
X186751Y27644D01*
X186653Y27352D01*
X186655Y27347D01*
X186653Y27346D01*
X186657Y27342D01*
X186659Y27335D01*
X186652Y27326D01*
X186852Y26326D01*
X186859Y26320D01*
X186856Y26314D01*
X187055Y25916D01*
X187254Y25418D01*
X187262Y25413D01*
X187261Y25406D01*
X187561Y25006D01*
X187566Y25005D01*
X187565Y25001D01*
X187965Y24601D01*
X187970Y24600D01*
X187970Y24597D01*
X188370Y24297D01*
X188377Y24297D01*
X188378Y24292D01*
X188778Y24092D01*
X188781Y24093D01*
X188782Y24090D01*
X189282Y23890D01*
X189288Y23892D01*
X189290Y23888D01*
X189790Y23788D01*
X189797Y23791D01*
X189800Y23787D01*
X190800Y23787D01*
X190806Y23791D01*
G37*
G36*
X64211Y22987D02*
X64211Y22987D01*
X64218Y22982D01*
X64718Y23182D01*
X64720Y23185D01*
X64722Y23184D01*
X65120Y23383D01*
X65618Y23582D01*
X65626Y23594D01*
X65635Y23593D01*
X66035Y23993D01*
X66036Y23998D01*
X66039Y23998D01*
X66639Y24798D01*
X66639Y24805D01*
X66644Y24806D01*
X66844Y25206D01*
X66843Y25209D01*
X66846Y25210D01*
X67046Y25710D01*
X67043Y25720D01*
X67047Y25723D01*
X67046Y25725D01*
X67049Y25728D01*
X67049Y26227D01*
X67149Y28226D01*
X67145Y28232D01*
X67149Y28236D01*
X67049Y28836D01*
X67033Y28851D01*
X67035Y28863D01*
X66735Y29163D01*
X66715Y29166D01*
X66710Y29176D01*
X66210Y29276D01*
X66203Y29273D01*
X66200Y29277D01*
X60500Y29277D01*
X60487Y29268D01*
X60478Y29272D01*
X60078Y29072D01*
X60070Y29056D01*
X60059Y29055D01*
X59859Y28755D01*
X59860Y28735D01*
X59851Y28728D01*
X59851Y26328D01*
X59855Y26322D01*
X59852Y26318D01*
X60052Y25318D01*
X60057Y25314D01*
X60054Y25310D01*
X60254Y24810D01*
X60262Y24805D01*
X60261Y24798D01*
X60861Y23998D01*
X60870Y23996D01*
X60870Y23989D01*
X61670Y23389D01*
X61680Y23389D01*
X61682Y23382D01*
X62682Y22982D01*
X62695Y22986D01*
X62700Y22979D01*
X64200Y22979D01*
X64211Y22987D01*
G37*
G36*
X101298Y52047D02*
X101298Y52047D01*
X101302Y52044D01*
X102302Y52244D01*
X102308Y52251D01*
X102314Y52248D01*
X102714Y52448D01*
X102715Y52451D01*
X102717Y52450D01*
X103217Y52750D01*
X103219Y52753D01*
X103222Y52753D01*
X103622Y53053D01*
X103624Y53062D01*
X103631Y53062D01*
X104231Y53862D01*
X104231Y53869D01*
X104236Y53870D01*
X104436Y54270D01*
X104425Y54328D01*
X104413Y54326D01*
X104410Y54338D01*
X104385Y54348D01*
X104433Y54364D01*
X104431Y54369D01*
X104436Y54370D01*
X104636Y54770D01*
X104634Y54783D01*
X104639Y54787D01*
X104638Y54789D01*
X104641Y54792D01*
X104641Y55291D01*
X104741Y57390D01*
X104736Y57397D01*
X104740Y57402D01*
X104640Y57902D01*
X104625Y57915D01*
X104627Y57927D01*
X104327Y58227D01*
X104307Y58230D01*
X104302Y58240D01*
X103802Y58340D01*
X103795Y58337D01*
X103792Y58341D01*
X98092Y58341D01*
X98085Y58336D01*
X98080Y58340D01*
X97680Y58240D01*
X97661Y58217D01*
X97648Y58214D01*
X97448Y57814D01*
X97451Y57798D01*
X97443Y57792D01*
X97443Y55392D01*
X97447Y55386D01*
X97444Y55382D01*
X97644Y54382D01*
X97649Y54378D01*
X97646Y54374D01*
X97846Y53874D01*
X97854Y53869D01*
X97853Y53862D01*
X98453Y53062D01*
X98462Y53060D01*
X98462Y53053D01*
X99262Y52453D01*
X99272Y52453D01*
X99274Y52446D01*
X99774Y52246D01*
X99780Y52248D01*
X99782Y52244D01*
X100782Y52044D01*
X100789Y52047D01*
X100792Y52043D01*
X101292Y52043D01*
X101298Y52047D01*
G37*
G36*
X190706Y32191D02*
X190706Y32191D01*
X190710Y32188D01*
X191710Y32388D01*
X191716Y32395D01*
X191722Y32392D01*
X192122Y32592D01*
X192123Y32595D01*
X192125Y32594D01*
X192625Y32894D01*
X192627Y32897D01*
X192630Y32897D01*
X193030Y33197D01*
X193032Y33206D01*
X193039Y33206D01*
X193639Y34006D01*
X193639Y34016D01*
X193646Y34018D01*
X193845Y34516D01*
X194044Y34914D01*
X194042Y34927D01*
X194047Y34931D01*
X194046Y34933D01*
X194049Y34936D01*
X194049Y35435D01*
X194149Y37534D01*
X194145Y37540D01*
X194149Y37544D01*
X194049Y38144D01*
X194028Y38163D01*
X194027Y38177D01*
X193727Y38377D01*
X193714Y38376D01*
X193710Y38384D01*
X193210Y38484D01*
X193203Y38481D01*
X193200Y38485D01*
X187500Y38485D01*
X187493Y38480D01*
X187488Y38484D01*
X187088Y38384D01*
X187069Y38361D01*
X187056Y38358D01*
X186856Y37958D01*
X186859Y37942D01*
X186851Y37936D01*
X186851Y35536D01*
X186855Y35530D01*
X186852Y35526D01*
X187052Y34526D01*
X187059Y34520D01*
X187056Y34514D01*
X187256Y34114D01*
X187259Y34113D01*
X187258Y34111D01*
X187558Y33611D01*
X187561Y33609D01*
X187561Y33606D01*
X187861Y33206D01*
X187870Y33204D01*
X187870Y33197D01*
X188670Y32597D01*
X188680Y32597D01*
X188682Y32590D01*
X189182Y32390D01*
X189188Y32392D01*
X189190Y32388D01*
X190190Y32188D01*
X190197Y32191D01*
X190200Y32187D01*
X190700Y32187D01*
X190706Y32191D01*
G37*
G36*
X77930Y64455D02*
X77930Y64455D01*
X77934Y64452D01*
X78934Y64652D01*
X78940Y64659D01*
X78946Y64656D01*
X79346Y64856D01*
X79347Y64859D01*
X79349Y64858D01*
X79849Y65158D01*
X79851Y65161D01*
X79854Y65161D01*
X80254Y65461D01*
X80256Y65470D01*
X80263Y65470D01*
X80863Y66270D01*
X80863Y66280D01*
X80870Y66282D01*
X81069Y66780D01*
X81268Y67178D01*
X81266Y67191D01*
X81271Y67195D01*
X81270Y67197D01*
X81273Y67200D01*
X81273Y67699D01*
X81373Y69798D01*
X81369Y69804D01*
X81373Y69808D01*
X81273Y70408D01*
X81252Y70427D01*
X81251Y70441D01*
X80951Y70641D01*
X80938Y70640D01*
X80934Y70648D01*
X80434Y70748D01*
X80427Y70745D01*
X80424Y70749D01*
X74724Y70749D01*
X74717Y70744D01*
X74712Y70748D01*
X74312Y70648D01*
X74293Y70625D01*
X74280Y70622D01*
X74080Y70222D01*
X74083Y70206D01*
X74075Y70200D01*
X74075Y67800D01*
X74079Y67794D01*
X74076Y67790D01*
X74276Y66790D01*
X74283Y66784D01*
X74280Y66778D01*
X74480Y66378D01*
X74483Y66377D01*
X74482Y66375D01*
X74782Y65875D01*
X74785Y65873D01*
X74785Y65870D01*
X75085Y65470D01*
X75094Y65468D01*
X75094Y65461D01*
X75894Y64861D01*
X75904Y64861D01*
X75906Y64854D01*
X76406Y64654D01*
X76412Y64656D01*
X76414Y64652D01*
X77414Y64452D01*
X77421Y64455D01*
X77424Y64451D01*
X77924Y64451D01*
X77930Y64455D01*
G37*
G36*
X190706Y90239D02*
X190706Y90239D01*
X190710Y90236D01*
X191710Y90436D01*
X191716Y90443D01*
X191722Y90440D01*
X192122Y90640D01*
X192123Y90643D01*
X192125Y90642D01*
X192625Y90942D01*
X192627Y90945D01*
X192630Y90945D01*
X193030Y91245D01*
X193032Y91254D01*
X193039Y91254D01*
X193639Y92054D01*
X193639Y92064D01*
X193646Y92066D01*
X194046Y93066D01*
X194043Y93075D01*
X194047Y93078D01*
X194045Y93081D01*
X194049Y93084D01*
X194049Y93583D01*
X194149Y95582D01*
X194145Y95588D01*
X194149Y95592D01*
X194049Y96192D01*
X194028Y96211D01*
X194027Y96225D01*
X193727Y96425D01*
X193714Y96424D01*
X193710Y96432D01*
X193210Y96532D01*
X193203Y96529D01*
X193200Y96533D01*
X187500Y96533D01*
X187493Y96528D01*
X187488Y96532D01*
X187088Y96432D01*
X187069Y96409D01*
X187056Y96406D01*
X186856Y96006D01*
X186859Y95990D01*
X186851Y95984D01*
X186851Y93584D01*
X186855Y93578D01*
X186852Y93574D01*
X187052Y92574D01*
X187059Y92568D01*
X187056Y92562D01*
X187256Y92162D01*
X187262Y92159D01*
X187261Y92154D01*
X187861Y91354D01*
X187866Y91353D01*
X187865Y91349D01*
X188265Y90949D01*
X188270Y90948D01*
X188270Y90945D01*
X188670Y90645D01*
X188680Y90645D01*
X188682Y90638D01*
X189182Y90438D01*
X189188Y90440D01*
X189190Y90436D01*
X190190Y90236D01*
X190197Y90239D01*
X190200Y90235D01*
X190700Y90235D01*
X190706Y90239D01*
G37*
G36*
X165811Y90691D02*
X165811Y90691D01*
X165818Y90686D01*
X166318Y90886D01*
X166320Y90889D01*
X166322Y90888D01*
X166720Y91087D01*
X167218Y91286D01*
X167226Y91298D01*
X167235Y91297D01*
X167635Y91697D01*
X167636Y91702D01*
X167639Y91702D01*
X168239Y92502D01*
X168239Y92509D01*
X168244Y92510D01*
X168444Y92910D01*
X168443Y92913D01*
X168446Y92914D01*
X168646Y93414D01*
X168643Y93424D01*
X168647Y93427D01*
X168646Y93429D01*
X168649Y93432D01*
X168649Y93931D01*
X168749Y95930D01*
X168745Y95936D01*
X168749Y95940D01*
X168649Y96540D01*
X168633Y96555D01*
X168635Y96567D01*
X168335Y96867D01*
X168308Y96871D01*
X168300Y96881D01*
X162100Y96881D01*
X162093Y96876D01*
X162088Y96880D01*
X161688Y96780D01*
X161672Y96760D01*
X161659Y96759D01*
X161459Y96459D01*
X161460Y96439D01*
X161451Y96432D01*
X161451Y93932D01*
X161455Y93926D01*
X161452Y93922D01*
X161552Y93422D01*
X161553Y93421D01*
X161552Y93420D01*
X161652Y93020D01*
X161656Y93017D01*
X161654Y93014D01*
X161854Y92514D01*
X161862Y92509D01*
X161861Y92502D01*
X162461Y91702D01*
X162466Y91701D01*
X162465Y91697D01*
X162865Y91297D01*
X162877Y91296D01*
X162878Y91288D01*
X163278Y91088D01*
X163281Y91089D01*
X163282Y91086D01*
X164282Y90686D01*
X164295Y90690D01*
X164300Y90683D01*
X165800Y90683D01*
X165811Y90691D01*
G37*
G36*
X113995Y31787D02*
X113995Y31787D01*
X114002Y31782D01*
X114502Y31982D01*
X114504Y31985D01*
X114506Y31984D01*
X114904Y32183D01*
X115402Y32382D01*
X115410Y32394D01*
X115419Y32393D01*
X115819Y32793D01*
X115820Y32798D01*
X115823Y32798D01*
X116423Y33598D01*
X116423Y33605D01*
X116428Y33606D01*
X116628Y34006D01*
X116627Y34009D01*
X116630Y34010D01*
X116830Y34510D01*
X116827Y34520D01*
X116831Y34523D01*
X116830Y34525D01*
X116833Y34528D01*
X116833Y35027D01*
X116933Y37026D01*
X116929Y37032D01*
X116933Y37036D01*
X116833Y37636D01*
X116817Y37651D01*
X116819Y37663D01*
X116519Y37963D01*
X116492Y37967D01*
X116484Y37977D01*
X110284Y37977D01*
X110277Y37972D01*
X110272Y37976D01*
X109872Y37876D01*
X109856Y37856D01*
X109843Y37855D01*
X109643Y37555D01*
X109644Y37535D01*
X109635Y37528D01*
X109635Y35028D01*
X109639Y35022D01*
X109636Y35018D01*
X109736Y34518D01*
X109737Y34517D01*
X109736Y34516D01*
X109836Y34116D01*
X109840Y34113D01*
X109838Y34110D01*
X110038Y33610D01*
X110046Y33605D01*
X110045Y33598D01*
X110645Y32798D01*
X110650Y32797D01*
X110649Y32793D01*
X111049Y32393D01*
X111061Y32392D01*
X111062Y32384D01*
X111462Y32184D01*
X111465Y32185D01*
X111466Y32182D01*
X112466Y31782D01*
X112479Y31786D01*
X112484Y31779D01*
X113984Y31779D01*
X113995Y31787D01*
G37*
G36*
X103898Y80647D02*
X103898Y80647D01*
X103902Y80644D01*
X104402Y80744D01*
X104423Y80767D01*
X104436Y80770D01*
X104636Y81170D01*
X104633Y81186D01*
X104641Y81192D01*
X104641Y81692D01*
X104637Y81698D01*
X104640Y81702D01*
X104540Y82202D01*
X104517Y82223D01*
X104514Y82236D01*
X104114Y82436D01*
X104098Y82433D01*
X104092Y82441D01*
X100640Y82441D01*
X102522Y83853D01*
X102524Y83862D01*
X102531Y83862D01*
X102831Y84262D01*
X102831Y84271D01*
X102836Y84274D01*
X102831Y84280D01*
X102831Y84284D01*
X102841Y84292D01*
X102841Y84792D01*
X102828Y84810D01*
X102831Y84822D01*
X102531Y85222D01*
X102522Y85224D01*
X102522Y85231D01*
X100725Y86629D01*
X100711Y86643D01*
X104092Y86643D01*
X104103Y86651D01*
X104107Y86651D01*
X104114Y86648D01*
X104514Y86848D01*
X104525Y86870D01*
X104538Y86874D01*
X104738Y87374D01*
X104737Y87376D01*
X104739Y87377D01*
X104736Y87380D01*
X104733Y87392D01*
X104741Y87400D01*
X104641Y88000D01*
X104625Y88015D01*
X104627Y88027D01*
X104327Y88327D01*
X104300Y88331D01*
X104292Y88341D01*
X98192Y88341D01*
X98186Y88337D01*
X98182Y88340D01*
X97682Y88240D01*
X97665Y88220D01*
X97651Y88219D01*
X97451Y87919D01*
X97452Y87902D01*
X97445Y87896D01*
X97446Y87894D01*
X97443Y87892D01*
X97443Y87292D01*
X97451Y87281D01*
X97446Y87274D01*
X97646Y86774D01*
X97662Y86764D01*
X97662Y86753D01*
X100430Y84677D01*
X100253Y84324D01*
X98761Y83130D01*
X97661Y82230D01*
X97657Y82213D01*
X97646Y82210D01*
X97446Y81710D01*
X97450Y81697D01*
X97443Y81692D01*
X97443Y81092D01*
X97459Y81071D01*
X97457Y81057D01*
X97757Y80757D01*
X97776Y80755D01*
X97780Y80744D01*
X98180Y80644D01*
X98188Y80648D01*
X98192Y80643D01*
X103892Y80643D01*
X103898Y80647D01*
G37*
%LPC*%
G36*
X147725Y58460D02*
X147725Y58460D01*
X146527Y59558D01*
X146468Y59564D01*
X146468Y59563D01*
X146467Y59563D01*
X146167Y59363D01*
X146164Y59356D01*
X146159Y59357D01*
X145461Y58659D01*
X144977Y58271D01*
X144610Y58271D01*
X144229Y58557D01*
X143943Y58938D01*
X143943Y59305D01*
X144331Y59789D01*
X145029Y60487D01*
X145030Y60498D01*
X145032Y60499D01*
X145031Y60501D01*
X145033Y60514D01*
X145043Y60522D01*
X145043Y61022D01*
X145027Y61043D01*
X145029Y61057D01*
X144333Y61753D01*
X144039Y62243D01*
X143946Y62520D01*
X144135Y62992D01*
X144611Y63373D01*
X144880Y63373D01*
X145362Y63084D01*
X146358Y61989D01*
X146416Y61978D01*
X146418Y61987D01*
X146427Y61986D01*
X147526Y62984D01*
X148011Y63373D01*
X148277Y63373D01*
X148758Y62987D01*
X149055Y62592D01*
X149086Y62584D01*
X149094Y62573D01*
X150494Y62573D01*
X150541Y62609D01*
X150541Y62610D01*
X150542Y62610D01*
X150642Y63010D01*
X150641Y63011D01*
X150642Y63011D01*
X150641Y63012D01*
X150642Y63012D01*
X150731Y63456D01*
X152239Y62890D01*
X152145Y62330D01*
X152148Y62325D01*
X152145Y62322D01*
X152145Y61622D01*
X152148Y61618D01*
X152145Y61615D01*
X152245Y60915D01*
X152251Y60909D01*
X152248Y60904D01*
X152448Y60404D01*
X152455Y60400D01*
X152453Y60395D01*
X152653Y60095D01*
X152666Y60090D01*
X152667Y60081D01*
X152967Y59881D01*
X152987Y59882D01*
X152994Y59873D01*
X153594Y59873D01*
X153615Y59889D01*
X153629Y59887D01*
X153929Y60187D01*
X153930Y60199D01*
X153938Y60200D01*
X154138Y60600D01*
X154136Y60611D01*
X154143Y60614D01*
X154243Y61214D01*
X154240Y61219D01*
X154243Y61222D01*
X154243Y62622D01*
X154236Y62631D01*
X154241Y62638D01*
X154041Y63238D01*
X154036Y63241D01*
X154038Y63244D01*
X153852Y63617D01*
X154848Y64945D01*
X155055Y64790D01*
X155250Y64400D01*
X155449Y64002D01*
X155647Y63508D01*
X155746Y63012D01*
X155845Y62517D01*
X155845Y60927D01*
X155746Y60432D01*
X155647Y59936D01*
X155451Y59446D01*
X155157Y59054D01*
X154864Y58761D01*
X154371Y58465D01*
X153982Y58271D01*
X152899Y58271D01*
X152405Y58370D01*
X152013Y58468D01*
X151528Y58759D01*
X151236Y59148D01*
X151038Y59544D01*
X150841Y59938D01*
X150643Y60930D01*
X150543Y61526D01*
X150543Y62522D01*
X150507Y62569D01*
X150500Y62564D01*
X150494Y62571D01*
X149094Y62571D01*
X149051Y62539D01*
X149047Y62538D01*
X148950Y62246D01*
X148557Y61755D01*
X147859Y61057D01*
X147857Y61041D01*
X147847Y61038D01*
X147747Y60738D01*
X147760Y60701D01*
X147758Y60689D01*
X148853Y59494D01*
X149039Y59122D01*
X148853Y58751D01*
X148465Y58363D01*
X148099Y58180D01*
X147725Y58460D01*
G37*
%LPD*%
%LPC*%
G36*
X147664Y45759D02*
X147664Y45759D01*
X146567Y46857D01*
X146514Y46864D01*
X146510Y46866D01*
X146110Y46666D01*
X146105Y46656D01*
X146097Y46657D01*
X145012Y45571D01*
X144646Y45571D01*
X144166Y45859D01*
X143885Y46233D01*
X143977Y46600D01*
X144369Y47089D01*
X145067Y47787D01*
X145068Y47798D01*
X145070Y47799D01*
X145069Y47801D01*
X145071Y47814D01*
X145081Y47822D01*
X145081Y48322D01*
X145065Y48343D01*
X145067Y48357D01*
X144369Y49055D01*
X143976Y49546D01*
X143886Y49816D01*
X144171Y50292D01*
X144552Y50673D01*
X144915Y50673D01*
X145399Y50285D01*
X146397Y49287D01*
X146456Y49279D01*
X146457Y49287D01*
X146465Y49286D01*
X147565Y50286D01*
X147565Y50287D01*
X147567Y50287D01*
X147952Y50673D01*
X148315Y50673D01*
X148793Y50290D01*
X148988Y49900D01*
X149025Y49882D01*
X149032Y49873D01*
X150532Y49873D01*
X150579Y49909D01*
X150579Y49910D01*
X150580Y49910D01*
X150680Y50310D01*
X150679Y50311D01*
X150680Y50311D01*
X150679Y50312D01*
X150680Y50312D01*
X150770Y50759D01*
X151515Y50526D01*
X152277Y50192D01*
X152183Y49630D01*
X152186Y49625D01*
X152183Y49622D01*
X152183Y48922D01*
X152186Y48918D01*
X152183Y48915D01*
X152283Y48215D01*
X152285Y48214D01*
X152284Y48212D01*
X152384Y47712D01*
X152399Y47699D01*
X152397Y47687D01*
X152697Y47387D01*
X152704Y47386D01*
X152705Y47381D01*
X153005Y47181D01*
X153025Y47182D01*
X153032Y47173D01*
X153532Y47173D01*
X153553Y47189D01*
X153567Y47187D01*
X153867Y47487D01*
X153868Y47499D01*
X153876Y47500D01*
X154076Y47900D01*
X154074Y47911D01*
X154081Y47914D01*
X154181Y48514D01*
X154180Y48515D01*
X154181Y48515D01*
X154281Y49215D01*
X154276Y49224D01*
X154281Y49229D01*
X154181Y49929D01*
X154180Y49930D01*
X154181Y49930D01*
X154081Y50530D01*
X154073Y50537D01*
X154076Y50544D01*
X153890Y50917D01*
X154866Y52218D01*
X154995Y52090D01*
X155290Y51696D01*
X155487Y51302D01*
X155685Y50808D01*
X155784Y50312D01*
X155883Y49817D01*
X155883Y48727D01*
X155784Y48232D01*
X155787Y48225D01*
X155783Y48222D01*
X155783Y47731D01*
X155586Y47240D01*
X155387Y46742D01*
X155193Y46354D01*
X154802Y46061D01*
X154408Y45765D01*
X153923Y45571D01*
X152937Y45571D01*
X152442Y45670D01*
X151956Y45767D01*
X151567Y46157D01*
X151269Y46454D01*
X150977Y46844D01*
X150880Y47234D01*
X150876Y47237D01*
X150878Y47240D01*
X150679Y47736D01*
X150581Y48227D01*
X150581Y49822D01*
X150545Y49869D01*
X150538Y49864D01*
X150532Y49871D01*
X149032Y49871D01*
X148989Y49839D01*
X148985Y49838D01*
X148887Y49543D01*
X148593Y49053D01*
X147897Y48357D01*
X147896Y48350D01*
X147891Y48349D01*
X147691Y48049D01*
X147695Y47990D01*
X147696Y47990D01*
X147696Y47989D01*
X148791Y46794D01*
X148980Y46416D01*
X148888Y46050D01*
X148405Y45664D01*
X148037Y45480D01*
X147664Y45759D01*
G37*
%LPD*%
G36*
X101697Y59946D02*
X101697Y59946D01*
X101700Y59943D01*
X102300Y60043D01*
X102302Y60046D01*
X102304Y60044D01*
X102704Y60144D01*
X102707Y60148D01*
X102710Y60146D01*
X103210Y60346D01*
X103212Y60349D01*
X103214Y60348D01*
X103614Y60548D01*
X103619Y60558D01*
X103627Y60557D01*
X104327Y61257D01*
X104328Y61269D01*
X104336Y61270D01*
X104536Y61670D01*
X104534Y61679D01*
X104540Y61682D01*
X104640Y62182D01*
X104640Y62183D01*
X104641Y62184D01*
X104741Y62784D01*
X104735Y62795D01*
X104740Y62802D01*
X104640Y63302D01*
X104633Y63308D01*
X104636Y63314D01*
X104437Y63712D01*
X104238Y64210D01*
X104230Y64215D01*
X104231Y64222D01*
X103931Y64622D01*
X103916Y64626D01*
X103914Y64636D01*
X103515Y64835D01*
X103017Y65134D01*
X103005Y65133D01*
X103002Y65140D01*
X101502Y65440D01*
X101495Y65437D01*
X101492Y65441D01*
X100392Y65441D01*
X100386Y65437D01*
X100382Y65440D01*
X99382Y65240D01*
X99378Y65235D01*
X99374Y65238D01*
X98874Y65038D01*
X98872Y65035D01*
X98870Y65036D01*
X98070Y64636D01*
X98068Y64632D01*
X98065Y64633D01*
X97765Y64433D01*
X97758Y64413D01*
X97746Y64410D01*
X97547Y63912D01*
X97348Y63514D01*
X97349Y63506D01*
X97344Y63502D01*
X97244Y63002D01*
X97244Y63001D01*
X97243Y63000D01*
X97143Y62400D01*
X97149Y62389D01*
X97144Y62382D01*
X97244Y61882D01*
X97251Y61876D01*
X97248Y61870D01*
X97448Y61470D01*
X97451Y61469D01*
X97450Y61467D01*
X97750Y60967D01*
X97762Y60962D01*
X97762Y60953D01*
X98562Y60353D01*
X98572Y60353D01*
X98574Y60346D01*
X99074Y60146D01*
X99080Y60148D01*
X99082Y60144D01*
X100082Y59944D01*
X100089Y59947D01*
X100092Y59943D01*
X101692Y59943D01*
X101697Y59946D01*
G37*
G36*
X91098Y93087D02*
X91098Y93087D01*
X91102Y93084D01*
X91602Y93184D01*
X91615Y93199D01*
X91627Y93197D01*
X91927Y93497D01*
X91928Y93509D01*
X91933Y93513D01*
X91930Y93518D01*
X91941Y93524D01*
X92041Y94124D01*
X92035Y94135D01*
X92040Y94142D01*
X91940Y94642D01*
X91925Y94655D01*
X91927Y94667D01*
X91527Y95067D01*
X91522Y95068D01*
X91522Y95071D01*
X88040Y97683D01*
X91392Y97683D01*
X91405Y97692D01*
X91414Y97688D01*
X91814Y97888D01*
X91827Y97915D01*
X91840Y97920D01*
X91940Y98320D01*
X91936Y98328D01*
X91941Y98332D01*
X91941Y99032D01*
X91929Y99048D01*
X91933Y99059D01*
X91733Y99359D01*
X91708Y99368D01*
X91702Y99380D01*
X91202Y99480D01*
X91195Y99477D01*
X91192Y99481D01*
X85592Y99481D01*
X85586Y99477D01*
X85582Y99480D01*
X85082Y99380D01*
X85066Y99362D01*
X85053Y99362D01*
X84753Y98962D01*
X84753Y98940D01*
X84743Y98932D01*
X84743Y98432D01*
X84751Y98421D01*
X84746Y98414D01*
X84946Y97914D01*
X84958Y97906D01*
X84957Y97897D01*
X85257Y97597D01*
X85262Y97597D01*
X85262Y97593D01*
X87362Y95993D01*
X87364Y95993D01*
X87364Y95991D01*
X88840Y94977D01*
X85391Y94881D01*
X85386Y94877D01*
X85382Y94880D01*
X84882Y94780D01*
X84851Y94745D01*
X84844Y94742D01*
X84744Y94242D01*
X84747Y94235D01*
X84743Y94232D01*
X84743Y93732D01*
X84752Y93719D01*
X84748Y93710D01*
X84948Y93310D01*
X84970Y93299D01*
X84974Y93286D01*
X85474Y93086D01*
X85487Y93090D01*
X85492Y93083D01*
X91092Y93083D01*
X91098Y93087D01*
G37*
G36*
X70778Y94695D02*
X70778Y94695D01*
X70782Y94692D01*
X71282Y94792D01*
X71291Y94802D01*
X71299Y94799D01*
X71599Y94999D01*
X71605Y95017D01*
X71613Y95022D01*
X71610Y95026D01*
X71621Y95032D01*
X71721Y95632D01*
X71715Y95643D01*
X71720Y95650D01*
X71620Y96150D01*
X71605Y96163D01*
X71607Y96175D01*
X71207Y96575D01*
X71202Y96575D01*
X71202Y96579D01*
X67716Y99291D01*
X71072Y99291D01*
X71079Y99296D01*
X71084Y99292D01*
X71484Y99392D01*
X71511Y99426D01*
X71520Y99430D01*
X71620Y99930D01*
X71617Y99937D01*
X71621Y99940D01*
X71621Y100640D01*
X71609Y100656D01*
X71613Y100667D01*
X71413Y100967D01*
X71388Y100976D01*
X71382Y100988D01*
X70882Y101088D01*
X70875Y101085D01*
X70871Y101089D01*
X65271Y100989D01*
X64772Y100989D01*
X64746Y100970D01*
X64733Y100970D01*
X64433Y100570D01*
X64433Y100548D01*
X64423Y100540D01*
X64423Y100040D01*
X64431Y100029D01*
X64426Y100022D01*
X64626Y99522D01*
X64634Y99517D01*
X64633Y99510D01*
X64933Y99110D01*
X64943Y99107D01*
X64943Y99100D01*
X67042Y97601D01*
X68524Y96489D01*
X65072Y96489D01*
X65066Y96485D01*
X65062Y96488D01*
X64562Y96388D01*
X64531Y96353D01*
X64524Y96350D01*
X64424Y95850D01*
X64427Y95843D01*
X64423Y95840D01*
X64423Y95340D01*
X64431Y95329D01*
X64426Y95322D01*
X64626Y94822D01*
X64657Y94803D01*
X64662Y94792D01*
X65162Y94692D01*
X65169Y94695D01*
X65172Y94691D01*
X70772Y94691D01*
X70778Y94695D01*
G37*
G36*
X66721Y30695D02*
X66721Y30695D01*
X66735Y30693D01*
X67035Y30993D01*
X67037Y31005D01*
X67043Y31010D01*
X67039Y31015D01*
X67049Y31020D01*
X67149Y31620D01*
X67143Y31631D01*
X67148Y31638D01*
X67048Y32138D01*
X67033Y32151D01*
X67035Y32163D01*
X66635Y32563D01*
X66630Y32564D01*
X66630Y32567D01*
X63118Y35201D01*
X63505Y35279D01*
X66500Y35279D01*
X66507Y35284D01*
X66512Y35280D01*
X66912Y35380D01*
X66939Y35414D01*
X66948Y35418D01*
X67048Y35918D01*
X67045Y35925D01*
X67049Y35928D01*
X67049Y36528D01*
X67040Y36541D01*
X67044Y36550D01*
X66844Y36950D01*
X66807Y36969D01*
X66800Y36977D01*
X60200Y36977D01*
X60174Y36958D01*
X60161Y36958D01*
X59861Y36558D01*
X59861Y36536D01*
X59851Y36528D01*
X59851Y35928D01*
X59860Y35915D01*
X59856Y35906D01*
X60056Y35506D01*
X60062Y35503D01*
X60061Y35498D01*
X60361Y35098D01*
X60371Y35095D01*
X60371Y35088D01*
X62870Y33289D01*
X63952Y32477D01*
X60500Y32477D01*
X60494Y32473D01*
X60490Y32476D01*
X59990Y32376D01*
X59959Y32341D01*
X59952Y32338D01*
X59852Y31838D01*
X59855Y31831D01*
X59851Y31828D01*
X59851Y31228D01*
X59860Y31215D01*
X59856Y31206D01*
X60056Y30806D01*
X60084Y30792D01*
X60090Y30780D01*
X60590Y30680D01*
X60597Y30683D01*
X60600Y30679D01*
X66700Y30679D01*
X66721Y30695D01*
G37*
G36*
X65607Y38584D02*
X65607Y38584D01*
X65612Y38580D01*
X66012Y38680D01*
X66024Y38695D01*
X66035Y38693D01*
X66435Y39093D01*
X66436Y39100D01*
X66441Y39101D01*
X66641Y39401D01*
X66641Y39408D01*
X66646Y39410D01*
X67046Y40410D01*
X67042Y40423D01*
X67049Y40428D01*
X67049Y40924D01*
X67149Y41520D01*
X67143Y41531D01*
X67148Y41538D01*
X66948Y42538D01*
X66941Y42544D01*
X66944Y42550D01*
X66744Y42950D01*
X66741Y42951D01*
X66742Y42953D01*
X66442Y43453D01*
X66434Y43457D01*
X66435Y43463D01*
X66035Y43863D01*
X66030Y43864D01*
X66030Y43867D01*
X65230Y44467D01*
X65223Y44467D01*
X65222Y44472D01*
X64822Y44672D01*
X64819Y44671D01*
X64818Y44674D01*
X64318Y44874D01*
X64312Y44872D01*
X64310Y44876D01*
X63810Y44976D01*
X63803Y44973D01*
X63800Y44977D01*
X62800Y44977D01*
X62794Y44973D01*
X62790Y44976D01*
X62290Y44876D01*
X62286Y44871D01*
X62282Y44874D01*
X61782Y44674D01*
X61780Y44671D01*
X61778Y44672D01*
X61378Y44472D01*
X61373Y44462D01*
X61365Y44463D01*
X60968Y44065D01*
X60570Y43767D01*
X60568Y43758D01*
X60561Y43758D01*
X60261Y43358D01*
X60261Y43354D01*
X60258Y43353D01*
X59958Y42853D01*
X59959Y42843D01*
X59952Y42840D01*
X59853Y42443D01*
X59654Y41946D01*
X59655Y41943D01*
X59653Y41941D01*
X59658Y41935D01*
X59658Y41933D01*
X59651Y41928D01*
X59651Y40928D01*
X59655Y40922D01*
X59652Y40918D01*
X59752Y40418D01*
X59757Y40414D01*
X59754Y40410D01*
X60154Y39410D01*
X60162Y39405D01*
X60161Y39398D01*
X60461Y38998D01*
X60476Y38994D01*
X60478Y38984D01*
X60878Y38784D01*
X60907Y38789D01*
X60918Y38782D01*
X61418Y38982D01*
X61426Y38994D01*
X61435Y38993D01*
X61835Y39393D01*
X61837Y39412D01*
X61848Y39416D01*
X61948Y39816D01*
X61939Y39837D01*
X61945Y39848D01*
X61548Y40742D01*
X61450Y41327D01*
X61548Y41817D01*
X61645Y42206D01*
X61935Y42593D01*
X62324Y42885D01*
X62814Y43081D01*
X63300Y43178D01*
X63786Y43081D01*
X64276Y42885D01*
X64668Y42591D01*
X65059Y42199D01*
X65251Y41816D01*
X65251Y40740D01*
X65070Y40377D01*
X64145Y40377D01*
X64049Y41432D01*
X64033Y41450D01*
X64035Y41463D01*
X63735Y41763D01*
X63708Y41767D01*
X63700Y41777D01*
X63200Y41777D01*
X63187Y41768D01*
X63178Y41772D01*
X62778Y41572D01*
X62767Y41550D01*
X62754Y41546D01*
X62554Y41046D01*
X62558Y41033D01*
X62551Y41028D01*
X62551Y39528D01*
X62555Y39522D01*
X62552Y39518D01*
X62652Y39018D01*
X62667Y39005D01*
X62665Y38993D01*
X62965Y38693D01*
X62985Y38690D01*
X62990Y38680D01*
X63490Y38580D01*
X63497Y38583D01*
X63500Y38579D01*
X65600Y38579D01*
X65607Y38584D01*
G37*
G36*
X103798Y44447D02*
X103798Y44447D01*
X103802Y44444D01*
X104302Y44544D01*
X104315Y44559D01*
X104327Y44557D01*
X104627Y44857D01*
X104628Y44869D01*
X104633Y44873D01*
X104630Y44878D01*
X104630Y44879D01*
X104641Y44885D01*
X104741Y45585D01*
X104732Y45601D01*
X104738Y45610D01*
X104538Y46110D01*
X104509Y46127D01*
X104504Y46140D01*
X104104Y46240D01*
X104096Y46236D01*
X104092Y46241D01*
X102018Y46241D01*
X101841Y46507D01*
X101841Y48572D01*
X102012Y48743D01*
X104092Y48743D01*
X104105Y48752D01*
X104114Y48748D01*
X104514Y48948D01*
X104528Y48976D01*
X104540Y48982D01*
X104640Y49482D01*
X104637Y49489D01*
X104641Y49492D01*
X104641Y50192D01*
X104625Y50213D01*
X104627Y50227D01*
X104327Y50527D01*
X104308Y50529D01*
X104304Y50540D01*
X103904Y50640D01*
X103896Y50636D01*
X103892Y50641D01*
X98192Y50641D01*
X98185Y50636D01*
X98180Y50640D01*
X97780Y50540D01*
X97765Y50522D01*
X97753Y50522D01*
X97453Y50122D01*
X97453Y50100D01*
X97443Y50092D01*
X97443Y49492D01*
X97451Y49481D01*
X97446Y49474D01*
X97646Y48974D01*
X97668Y48961D01*
X97670Y48948D01*
X98070Y48748D01*
X98086Y48751D01*
X98092Y48743D01*
X100077Y48743D01*
X100343Y48566D01*
X100343Y46507D01*
X100166Y46241D01*
X98092Y46241D01*
X98086Y46237D01*
X98082Y46240D01*
X97582Y46140D01*
X97551Y46105D01*
X97544Y46102D01*
X97444Y45602D01*
X97447Y45595D01*
X97443Y45592D01*
X97443Y45092D01*
X97451Y45081D01*
X97446Y45074D01*
X97646Y44574D01*
X97677Y44555D01*
X97682Y44544D01*
X98182Y44444D01*
X98189Y44447D01*
X98192Y44443D01*
X103792Y44443D01*
X103798Y44447D01*
G37*
G36*
X162208Y79193D02*
X162208Y79193D01*
X162218Y79186D01*
X162718Y79386D01*
X162725Y79398D01*
X162734Y79396D01*
X164901Y81465D01*
X167167Y79396D01*
X167179Y79394D01*
X167182Y79386D01*
X167682Y79186D01*
X167710Y79194D01*
X167722Y79188D01*
X168122Y79388D01*
X168127Y79398D01*
X168135Y79397D01*
X168535Y79797D01*
X168536Y79808D01*
X168537Y79809D01*
X168544Y79810D01*
X168744Y80210D01*
X168738Y80242D01*
X168744Y80254D01*
X168544Y80654D01*
X168532Y80660D01*
X168532Y80669D01*
X166178Y82729D01*
X166530Y82993D01*
X166530Y82995D01*
X166532Y82995D01*
X168032Y84295D01*
X168033Y84297D01*
X168035Y84297D01*
X168435Y84697D01*
X168436Y84702D01*
X168439Y84702D01*
X168739Y85102D01*
X168739Y85126D01*
X168742Y85129D01*
X168739Y85133D01*
X168739Y85144D01*
X168744Y85154D01*
X168544Y85554D01*
X168537Y85557D01*
X168538Y85563D01*
X168138Y86063D01*
X168117Y86068D01*
X168112Y86080D01*
X167712Y86180D01*
X167704Y86176D01*
X167690Y86176D01*
X167685Y86173D01*
X167678Y86176D01*
X167278Y85976D01*
X167275Y85970D01*
X167270Y85971D01*
X166870Y85671D01*
X166870Y85668D01*
X166867Y85669D01*
X164997Y83996D01*
X164631Y84270D01*
X162733Y85969D01*
X162720Y85970D01*
X162718Y85978D01*
X162218Y86178D01*
X162213Y86176D01*
X162188Y86176D01*
X162184Y86179D01*
X161884Y86079D01*
X161877Y86068D01*
X161869Y86070D01*
X161369Y85670D01*
X161365Y85655D01*
X161362Y85652D01*
X161354Y85650D01*
X161154Y85150D01*
X161162Y85122D01*
X161156Y85110D01*
X161356Y84710D01*
X161366Y84705D01*
X161365Y84697D01*
X161765Y84297D01*
X161768Y84297D01*
X161768Y84294D01*
X163633Y82724D01*
X163364Y82366D01*
X161769Y81070D01*
X161768Y81066D01*
X161765Y81067D01*
X161365Y80667D01*
X161364Y80655D01*
X161356Y80654D01*
X161156Y80254D01*
X161160Y80231D01*
X161160Y80230D01*
X161162Y80222D01*
X161156Y80210D01*
X161356Y79810D01*
X161363Y79807D01*
X161362Y79801D01*
X161762Y79301D01*
X161783Y79296D01*
X161788Y79284D01*
X162188Y79184D01*
X162208Y79193D01*
G37*
G36*
X193104Y73542D02*
X193104Y73542D01*
X193112Y73536D01*
X193512Y73636D01*
X193524Y73651D01*
X193535Y73649D01*
X193935Y74049D01*
X193936Y74061D01*
X193944Y74062D01*
X194144Y74462D01*
X194138Y74494D01*
X194144Y74506D01*
X193944Y74906D01*
X193932Y74912D01*
X193932Y74921D01*
X191578Y76981D01*
X191930Y77245D01*
X191930Y77247D01*
X191932Y77247D01*
X193432Y78547D01*
X193433Y78549D01*
X193435Y78549D01*
X193835Y78949D01*
X193836Y78954D01*
X193839Y78954D01*
X194139Y79354D01*
X194139Y79380D01*
X194142Y79382D01*
X194139Y79385D01*
X194139Y79396D01*
X194144Y79406D01*
X193944Y79806D01*
X193937Y79809D01*
X193938Y79815D01*
X193538Y80315D01*
X193524Y80318D01*
X193522Y80328D01*
X193122Y80528D01*
X193112Y80526D01*
X193110Y80528D01*
X193090Y80528D01*
X193085Y80525D01*
X193078Y80528D01*
X192678Y80328D01*
X192673Y80318D01*
X192665Y80319D01*
X192267Y79920D01*
X190397Y78248D01*
X190031Y78522D01*
X188133Y80221D01*
X188120Y80222D01*
X188118Y80230D01*
X187618Y80430D01*
X187610Y80428D01*
X187609Y80430D01*
X187590Y80430D01*
X187588Y80428D01*
X187584Y80431D01*
X187284Y80331D01*
X187277Y80320D01*
X187269Y80322D01*
X186769Y79922D01*
X186766Y79908D01*
X186756Y79906D01*
X186556Y79506D01*
X186562Y79474D01*
X186556Y79462D01*
X186756Y79062D01*
X186766Y79057D01*
X186765Y79049D01*
X187165Y78649D01*
X187167Y78649D01*
X187167Y78647D01*
X189028Y76982D01*
X188767Y76720D01*
X187168Y75321D01*
X187167Y75319D01*
X187165Y75319D01*
X186765Y74919D01*
X186764Y74907D01*
X186756Y74906D01*
X186556Y74506D01*
X186560Y74484D01*
X186559Y74484D01*
X186560Y74483D01*
X186562Y74474D01*
X186556Y74462D01*
X186756Y74062D01*
X186766Y74057D01*
X186765Y74049D01*
X187165Y73649D01*
X187184Y73647D01*
X187188Y73636D01*
X187588Y73536D01*
X187608Y73545D01*
X187618Y73538D01*
X188118Y73738D01*
X188125Y73749D01*
X188133Y73748D01*
X190300Y75717D01*
X192567Y73648D01*
X192585Y73646D01*
X192590Y73636D01*
X193090Y73536D01*
X193104Y73542D01*
G37*
G36*
X104104Y28744D02*
X104104Y28744D01*
X104116Y28759D01*
X104127Y28757D01*
X104527Y29157D01*
X104528Y29169D01*
X104532Y29171D01*
X104531Y29172D01*
X104538Y29174D01*
X104738Y29674D01*
X104729Y29707D01*
X104733Y29719D01*
X104533Y30019D01*
X104524Y30022D01*
X104524Y30029D01*
X102170Y32089D01*
X102522Y32353D01*
X102522Y32355D01*
X102524Y32355D01*
X104024Y33655D01*
X104025Y33657D01*
X104027Y33657D01*
X104427Y34057D01*
X104428Y34062D01*
X104431Y34062D01*
X104731Y34462D01*
X104731Y34488D01*
X104734Y34490D01*
X104731Y34493D01*
X104731Y34504D01*
X104736Y34514D01*
X104536Y34914D01*
X104529Y34917D01*
X104530Y34923D01*
X104130Y35423D01*
X104116Y35426D01*
X104114Y35436D01*
X103714Y35636D01*
X103704Y35634D01*
X103702Y35636D01*
X103682Y35636D01*
X103677Y35633D01*
X103670Y35636D01*
X103270Y35436D01*
X103265Y35426D01*
X103257Y35427D01*
X102859Y35028D01*
X100989Y33356D01*
X100623Y33630D01*
X98725Y35329D01*
X98718Y35329D01*
X98717Y35334D01*
X98217Y35634D01*
X98203Y35633D01*
X98200Y35636D01*
X98180Y35636D01*
X98176Y35639D01*
X97876Y35539D01*
X97867Y35525D01*
X97857Y35527D01*
X97357Y35027D01*
X97356Y35015D01*
X97348Y35014D01*
X97148Y34614D01*
X97154Y34582D01*
X97148Y34570D01*
X97348Y34170D01*
X97358Y34165D01*
X97357Y34157D01*
X97757Y33757D01*
X97759Y33757D01*
X97759Y33755D01*
X99620Y32090D01*
X99359Y31828D01*
X97761Y30430D01*
X97362Y30131D01*
X97358Y30116D01*
X97348Y30114D01*
X97148Y29714D01*
X97152Y29691D01*
X97152Y29690D01*
X97154Y29682D01*
X97148Y29670D01*
X97348Y29270D01*
X97355Y29267D01*
X97354Y29261D01*
X97754Y28761D01*
X97775Y28756D01*
X97780Y28744D01*
X98180Y28644D01*
X98200Y28653D01*
X98210Y28646D01*
X98710Y28846D01*
X98717Y28857D01*
X98725Y28856D01*
X100893Y30826D01*
X103160Y28855D01*
X103172Y28854D01*
X103174Y28846D01*
X103674Y28646D01*
X103694Y28652D01*
X103704Y28644D01*
X104104Y28744D01*
G37*
G36*
X142712Y81492D02*
X142712Y81492D01*
X142724Y81507D01*
X142735Y81505D01*
X143135Y81905D01*
X143136Y81917D01*
X143140Y81919D01*
X143139Y81920D01*
X143146Y81922D01*
X143346Y82422D01*
X143338Y82450D01*
X143344Y82462D01*
X143144Y82862D01*
X143131Y82868D01*
X143132Y82878D01*
X140779Y84838D01*
X141130Y85101D01*
X141131Y85105D01*
X141134Y85104D01*
X142632Y86502D01*
X143030Y86801D01*
X143032Y86810D01*
X143039Y86810D01*
X143339Y87210D01*
X143339Y87236D01*
X143342Y87238D01*
X143339Y87241D01*
X143339Y87252D01*
X143344Y87262D01*
X143144Y87662D01*
X143137Y87665D01*
X143138Y87671D01*
X142738Y88171D01*
X142724Y88174D01*
X142722Y88184D01*
X142322Y88384D01*
X142312Y88382D01*
X142310Y88384D01*
X142290Y88384D01*
X142285Y88381D01*
X142278Y88384D01*
X141878Y88184D01*
X141873Y88174D01*
X141865Y88175D01*
X141467Y87776D01*
X139597Y86104D01*
X139231Y86378D01*
X137333Y88077D01*
X137326Y88077D01*
X137325Y88082D01*
X136825Y88382D01*
X136811Y88381D01*
X136808Y88384D01*
X136788Y88384D01*
X136784Y88387D01*
X136484Y88287D01*
X136475Y88273D01*
X136465Y88275D01*
X135965Y87775D01*
X135964Y87763D01*
X135956Y87762D01*
X135756Y87362D01*
X135762Y87330D01*
X135756Y87318D01*
X135956Y86918D01*
X135966Y86913D01*
X135965Y86905D01*
X136365Y86505D01*
X136367Y86505D01*
X136367Y86503D01*
X138228Y84838D01*
X137967Y84577D01*
X136369Y83278D01*
X136368Y83274D01*
X136365Y83275D01*
X135965Y82875D01*
X135964Y82863D01*
X135956Y82862D01*
X135756Y82462D01*
X135760Y82439D01*
X135760Y82438D01*
X135762Y82430D01*
X135756Y82418D01*
X135956Y82018D01*
X135963Y82015D01*
X135962Y82009D01*
X136362Y81509D01*
X136383Y81504D01*
X136388Y81492D01*
X136788Y81392D01*
X136808Y81401D01*
X136818Y81394D01*
X137318Y81594D01*
X137325Y81606D01*
X137334Y81604D01*
X139501Y83673D01*
X141767Y81604D01*
X141779Y81602D01*
X141782Y81594D01*
X142282Y81394D01*
X142302Y81400D01*
X142312Y81392D01*
X142712Y81492D01*
G37*
G36*
X71405Y79516D02*
X71405Y79516D01*
X71416Y79518D01*
X71616Y79918D01*
X71616Y79920D01*
X71616Y79921D01*
X71615Y79922D01*
X71614Y79927D01*
X71620Y79930D01*
X71720Y80430D01*
X71717Y80437D01*
X71721Y80440D01*
X71721Y84040D01*
X71717Y84046D01*
X71720Y84050D01*
X71620Y84550D01*
X71605Y84563D01*
X71607Y84575D01*
X71307Y84875D01*
X71293Y84877D01*
X71290Y84886D01*
X70790Y85086D01*
X70771Y85080D01*
X70762Y85088D01*
X70262Y84988D01*
X70256Y84981D01*
X70250Y84984D01*
X69850Y84784D01*
X69847Y84778D01*
X69842Y84779D01*
X69442Y84479D01*
X69440Y84470D01*
X69433Y84470D01*
X69133Y84070D01*
X69133Y84065D01*
X69129Y84064D01*
X68331Y82667D01*
X68035Y82272D01*
X67742Y81979D01*
X67253Y81686D01*
X66876Y81592D01*
X66408Y81779D01*
X66219Y82156D01*
X66124Y82631D01*
X66403Y83096D01*
X66882Y83192D01*
X67382Y83292D01*
X67388Y83299D01*
X67394Y83296D01*
X67794Y83496D01*
X67808Y83524D01*
X67820Y83530D01*
X67920Y84030D01*
X67915Y84042D01*
X67921Y84048D01*
X67821Y84648D01*
X67810Y84658D01*
X67813Y84667D01*
X67613Y84967D01*
X67588Y84976D01*
X67582Y84988D01*
X67082Y85088D01*
X67075Y85085D01*
X67072Y85089D01*
X66572Y85089D01*
X66561Y85081D01*
X66554Y85086D01*
X66054Y84886D01*
X66052Y84883D01*
X66050Y84884D01*
X65650Y84684D01*
X65647Y84678D01*
X65642Y84679D01*
X64842Y84079D01*
X64840Y84070D01*
X64833Y84070D01*
X64533Y83670D01*
X64533Y83654D01*
X64524Y83650D01*
X64324Y82650D01*
X64327Y82643D01*
X64323Y82640D01*
X64323Y82040D01*
X64327Y82034D01*
X64324Y82030D01*
X64424Y81530D01*
X64431Y81524D01*
X64428Y81518D01*
X64628Y81118D01*
X64634Y81115D01*
X64633Y81110D01*
X64933Y80710D01*
X64938Y80709D01*
X64937Y80705D01*
X65337Y80305D01*
X65349Y80304D01*
X65350Y80296D01*
X66150Y79896D01*
X66159Y79898D01*
X66162Y79892D01*
X66662Y79792D01*
X66669Y79795D01*
X66672Y79791D01*
X67172Y79791D01*
X67178Y79795D01*
X67182Y79792D01*
X68182Y79992D01*
X68192Y80003D01*
X68202Y80001D01*
X68602Y80301D01*
X68603Y80306D01*
X68607Y80305D01*
X69407Y81105D01*
X69408Y81117D01*
X69416Y81118D01*
X69616Y81518D01*
X69786Y81857D01*
X69823Y81820D01*
X69823Y80340D01*
X69827Y80334D01*
X69824Y80330D01*
X69924Y79830D01*
X69939Y79817D01*
X69937Y79805D01*
X70237Y79505D01*
X70264Y79502D01*
X70272Y79491D01*
X71372Y79491D01*
X71405Y79516D01*
G37*
%LPC*%
G36*
X134318Y70971D02*
X134318Y70971D01*
X134317Y70970D01*
X134316Y70971D01*
X133828Y70971D01*
X133438Y71166D01*
X133435Y71165D01*
X133434Y71168D01*
X132940Y71365D01*
X132546Y71661D01*
X132151Y71957D01*
X131857Y72350D01*
X131559Y72845D01*
X131363Y73238D01*
X131165Y74227D01*
X131165Y74717D01*
X131264Y75212D01*
X131363Y75708D01*
X131559Y76198D01*
X131855Y76592D01*
X132151Y76987D01*
X132544Y77281D01*
X133039Y77579D01*
X133432Y77775D01*
X134421Y77973D01*
X136804Y77973D01*
X137174Y77788D01*
X137268Y77410D01*
X137306Y77380D01*
X137310Y77373D01*
X137330Y77370D01*
X137319Y77371D01*
X137270Y77338D01*
X137276Y77329D01*
X137267Y77322D01*
X137267Y76372D01*
X135633Y76075D01*
X135351Y76357D01*
X135326Y76360D01*
X135323Y76365D01*
X135321Y76365D01*
X135316Y76371D01*
X134816Y76371D01*
X134810Y76367D01*
X134806Y76370D01*
X133806Y76170D01*
X133796Y76159D01*
X133786Y76161D01*
X133386Y75861D01*
X133384Y75852D01*
X133377Y75852D01*
X133077Y75452D01*
X133077Y75444D01*
X133074Y75442D01*
X133075Y75441D01*
X133070Y75440D01*
X132870Y74940D01*
X132872Y74934D01*
X132868Y74932D01*
X132768Y74432D01*
X132774Y74419D01*
X132768Y74412D01*
X132868Y73912D01*
X132875Y73906D01*
X132872Y73900D01*
X133072Y73500D01*
X133078Y73497D01*
X133077Y73492D01*
X133377Y73092D01*
X133382Y73091D01*
X133381Y73087D01*
X133781Y72687D01*
X133802Y72684D01*
X133808Y72673D01*
X134408Y72573D01*
X134413Y72576D01*
X134416Y72573D01*
X135516Y72573D01*
X135563Y72609D01*
X135563Y72610D01*
X135564Y72610D01*
X135664Y73010D01*
X135660Y73018D01*
X135665Y73022D01*
X135665Y75981D01*
X137267Y76272D01*
X137267Y71727D01*
X137170Y71241D01*
X136987Y70967D01*
X136413Y70871D01*
X134318Y70971D01*
G37*
%LPD*%
%LPC*%
G36*
X139920Y70871D02*
X139920Y70871D01*
X139328Y70970D01*
X139053Y71062D01*
X138867Y71528D01*
X138963Y72204D01*
X139146Y72478D01*
X139621Y72573D01*
X142716Y72573D01*
X142763Y72609D01*
X142758Y72616D01*
X142765Y72622D01*
X142765Y73122D01*
X142760Y73129D01*
X142764Y73134D01*
X142664Y73534D01*
X142617Y73571D01*
X142617Y73570D01*
X142616Y73571D01*
X141120Y73571D01*
X140526Y73670D01*
X140150Y73764D01*
X139965Y74134D01*
X139965Y74807D01*
X140149Y75082D01*
X140625Y75273D01*
X142616Y75273D01*
X142663Y75309D01*
X142663Y75310D01*
X142664Y75310D01*
X142764Y75710D01*
X142763Y75711D01*
X142763Y75712D01*
X142760Y75718D01*
X142765Y75722D01*
X142765Y76222D01*
X142729Y76269D01*
X142727Y76268D01*
X142726Y76270D01*
X142226Y76370D01*
X142219Y76367D01*
X142216Y76371D01*
X139236Y76371D01*
X138962Y76646D01*
X138866Y77222D01*
X138960Y77789D01*
X139328Y77973D01*
X143904Y77973D01*
X144272Y77789D01*
X144367Y77317D01*
X144367Y71628D01*
X144272Y71247D01*
X143992Y70968D01*
X143412Y70871D01*
X139920Y70871D01*
G37*
%LPD*%
G36*
X116100Y23292D02*
X116100Y23292D01*
X116114Y23289D01*
X116514Y23589D01*
X116517Y23602D01*
X116526Y23603D01*
X116826Y24103D01*
X116824Y24121D01*
X116833Y24128D01*
X116833Y24628D01*
X116817Y24649D01*
X116819Y24663D01*
X116519Y24963D01*
X116509Y24964D01*
X116508Y24971D01*
X115611Y25469D01*
X115233Y25753D01*
X115233Y28198D01*
X116606Y28884D01*
X116613Y28898D01*
X116623Y28898D01*
X116923Y29298D01*
X116923Y29320D01*
X116928Y29323D01*
X116923Y29329D01*
X116923Y29335D01*
X116930Y29346D01*
X116730Y29846D01*
X116725Y29849D01*
X116726Y29853D01*
X116426Y30353D01*
X116408Y30361D01*
X116406Y30372D01*
X116006Y30572D01*
X115983Y30568D01*
X115976Y30568D01*
X115966Y30574D01*
X115466Y30374D01*
X115465Y30372D01*
X115463Y30373D01*
X110363Y27973D01*
X110360Y27966D01*
X110354Y27967D01*
X109954Y27667D01*
X109952Y27658D01*
X109945Y27658D01*
X109645Y27258D01*
X109645Y27242D01*
X109636Y27238D01*
X109536Y26738D01*
X109546Y26717D01*
X109540Y26706D01*
X109740Y26306D01*
X109756Y26298D01*
X109757Y26287D01*
X110057Y26087D01*
X110062Y26087D01*
X110063Y26084D01*
X115663Y23384D01*
X115670Y23385D01*
X115672Y23380D01*
X116072Y23280D01*
X116100Y23292D01*
G37*
G36*
X102805Y73852D02*
X102805Y73852D01*
X102814Y73848D01*
X103614Y74248D01*
X103619Y74258D01*
X103627Y74257D01*
X104027Y74657D01*
X104028Y74662D01*
X104031Y74662D01*
X104331Y75062D01*
X104331Y75069D01*
X104336Y75070D01*
X104536Y75470D01*
X104534Y75479D01*
X104540Y75482D01*
X104740Y76482D01*
X104737Y76489D01*
X104738Y76489D01*
X104736Y76491D01*
X104735Y76494D01*
X104741Y76500D01*
X104641Y77100D01*
X104640Y77101D01*
X104640Y77102D01*
X104540Y77602D01*
X104535Y77606D01*
X104538Y77610D01*
X104338Y78110D01*
X104335Y78112D01*
X104336Y78114D01*
X104136Y78514D01*
X104122Y78521D01*
X104122Y78531D01*
X103322Y79131D01*
X103312Y79131D01*
X103310Y79138D01*
X102810Y79338D01*
X102797Y79334D01*
X102792Y79341D01*
X102292Y79341D01*
X102276Y79329D01*
X102265Y79333D01*
X101965Y79133D01*
X101956Y79108D01*
X101944Y79102D01*
X101844Y78602D01*
X101847Y78595D01*
X101843Y78592D01*
X101843Y77892D01*
X101864Y77864D01*
X101865Y77851D01*
X102165Y77651D01*
X102167Y77651D01*
X102167Y77650D01*
X102654Y77357D01*
X102845Y76976D01*
X102942Y76492D01*
X102847Y76016D01*
X102476Y75645D01*
X102020Y75737D01*
X101741Y76108D01*
X101741Y76592D01*
X101736Y76599D01*
X101740Y76604D01*
X101640Y77004D01*
X101625Y77016D01*
X101627Y77027D01*
X101327Y77327D01*
X101305Y77330D01*
X101299Y77341D01*
X100599Y77441D01*
X100594Y77438D01*
X100584Y77438D01*
X100579Y77434D01*
X100574Y77438D01*
X100074Y77238D01*
X100062Y77218D01*
X100050Y77209D01*
X100045Y77208D01*
X99945Y76908D01*
X99947Y76901D01*
X99943Y76899D01*
X99844Y76207D01*
X99662Y75841D01*
X99317Y75841D01*
X99041Y76208D01*
X99041Y76683D01*
X99233Y77161D01*
X99622Y77453D01*
X99623Y77458D01*
X99627Y77457D01*
X99927Y77757D01*
X99928Y77768D01*
X99930Y77769D01*
X99929Y77771D01*
X99931Y77784D01*
X99941Y77792D01*
X99941Y78292D01*
X99930Y78307D01*
X99934Y78317D01*
X99634Y78817D01*
X99614Y78826D01*
X99610Y78838D01*
X99110Y79038D01*
X99090Y79032D01*
X99080Y79040D01*
X98680Y78940D01*
X98675Y78934D01*
X98670Y78936D01*
X98270Y78736D01*
X98265Y78726D01*
X98257Y78727D01*
X97857Y78327D01*
X97856Y78322D01*
X97853Y78322D01*
X97553Y77922D01*
X97553Y77912D01*
X97546Y77910D01*
X97346Y77410D01*
X97348Y77405D01*
X97344Y77402D01*
X97244Y76902D01*
X97247Y76895D01*
X97243Y76892D01*
X97243Y75392D01*
X97259Y75371D01*
X97257Y75357D01*
X98357Y74257D01*
X98371Y74255D01*
X98374Y74246D01*
X98874Y74046D01*
X98879Y74048D01*
X98880Y74044D01*
X99280Y73944D01*
X99293Y73950D01*
X99300Y73943D01*
X99900Y74043D01*
X99902Y74046D01*
X99904Y74044D01*
X100304Y74144D01*
X100319Y74162D01*
X100331Y74162D01*
X100617Y74543D01*
X100872Y74543D01*
X101257Y74157D01*
X101269Y74156D01*
X101270Y74148D01*
X101670Y73948D01*
X101679Y73950D01*
X101682Y73944D01*
X102182Y73844D01*
X102189Y73847D01*
X102192Y73843D01*
X102792Y73843D01*
X102805Y73852D01*
G37*
G36*
X91121Y39696D02*
X91121Y39696D01*
X91130Y39692D01*
X91930Y40092D01*
X91935Y40102D01*
X91943Y40101D01*
X92343Y40501D01*
X92344Y40506D01*
X92347Y40506D01*
X92647Y40906D01*
X92647Y40913D01*
X92652Y40914D01*
X92852Y41314D01*
X92850Y41323D01*
X92856Y41326D01*
X92956Y41826D01*
X92956Y41827D01*
X92957Y41828D01*
X93057Y42428D01*
X93051Y42439D01*
X93056Y42446D01*
X92856Y43446D01*
X92851Y43450D01*
X92854Y43454D01*
X92654Y43954D01*
X92651Y43956D01*
X92652Y43958D01*
X92452Y44358D01*
X92438Y44365D01*
X92438Y44375D01*
X91638Y44975D01*
X91628Y44975D01*
X91626Y44982D01*
X91126Y45182D01*
X91113Y45178D01*
X91108Y45185D01*
X90608Y45185D01*
X90592Y45173D01*
X90581Y45177D01*
X90281Y44977D01*
X90272Y44952D01*
X90260Y44946D01*
X90160Y44446D01*
X90163Y44439D01*
X90159Y44436D01*
X90159Y43836D01*
X90175Y43815D01*
X90173Y43801D01*
X90473Y43501D01*
X90487Y43499D01*
X90490Y43490D01*
X90970Y43298D01*
X91161Y42822D01*
X91258Y42336D01*
X91163Y41864D01*
X90792Y41585D01*
X90333Y41585D01*
X90057Y41952D01*
X90057Y42436D01*
X90053Y42442D01*
X90056Y42446D01*
X89956Y42946D01*
X89936Y42964D01*
X89935Y42977D01*
X89635Y43177D01*
X89620Y43176D01*
X89615Y43185D01*
X88915Y43285D01*
X88910Y43282D01*
X88900Y43282D01*
X88895Y43278D01*
X88890Y43282D01*
X88390Y43082D01*
X88378Y43062D01*
X88366Y43053D01*
X88361Y43052D01*
X88261Y42752D01*
X88263Y42746D01*
X88259Y42744D01*
X88160Y42149D01*
X87975Y41685D01*
X87633Y41685D01*
X87357Y42052D01*
X87357Y42624D01*
X87547Y43004D01*
X87938Y43297D01*
X87940Y43306D01*
X87947Y43306D01*
X88247Y43706D01*
X88247Y43728D01*
X88257Y43736D01*
X88257Y44136D01*
X88246Y44151D01*
X88250Y44161D01*
X87950Y44661D01*
X87930Y44670D01*
X87926Y44682D01*
X87426Y44882D01*
X87406Y44876D01*
X87396Y44884D01*
X86996Y44784D01*
X86991Y44778D01*
X86986Y44780D01*
X86586Y44580D01*
X86581Y44570D01*
X86573Y44571D01*
X86173Y44171D01*
X86172Y44166D01*
X86169Y44166D01*
X85869Y43766D01*
X85869Y43756D01*
X85862Y43754D01*
X85662Y43254D01*
X85664Y43249D01*
X85660Y43246D01*
X85560Y42746D01*
X85563Y42739D01*
X85559Y42736D01*
X85559Y41236D01*
X85575Y41215D01*
X85573Y41201D01*
X86273Y40501D01*
X86278Y40500D01*
X86278Y40497D01*
X86678Y40197D01*
X86682Y40197D01*
X86683Y40194D01*
X87183Y39894D01*
X87193Y39895D01*
X87196Y39888D01*
X87596Y39788D01*
X87609Y39794D01*
X87616Y39787D01*
X88216Y39887D01*
X88223Y39895D01*
X88230Y39892D01*
X88630Y40092D01*
X88635Y40102D01*
X88643Y40101D01*
X88928Y40387D01*
X89188Y40387D01*
X89573Y40001D01*
X89585Y40000D01*
X89586Y39992D01*
X89986Y39792D01*
X89995Y39794D01*
X89998Y39788D01*
X90498Y39688D01*
X90505Y39691D01*
X90508Y39687D01*
X91108Y39687D01*
X91121Y39696D01*
G37*
G36*
X102800Y66943D02*
X102800Y66943D01*
X102802Y66946D01*
X102804Y66944D01*
X103204Y67044D01*
X103213Y67055D01*
X103222Y67053D01*
X104022Y67653D01*
X104024Y67662D01*
X104031Y67662D01*
X104331Y68062D01*
X104331Y68072D01*
X104338Y68074D01*
X104538Y68574D01*
X104536Y68580D01*
X104540Y68582D01*
X104740Y69582D01*
X104734Y69595D01*
X104740Y69602D01*
X104540Y70602D01*
X104535Y70606D01*
X104538Y70610D01*
X104338Y71110D01*
X104335Y71112D01*
X104336Y71114D01*
X104136Y71514D01*
X104122Y71521D01*
X104122Y71531D01*
X103322Y72131D01*
X103312Y72131D01*
X103310Y72138D01*
X102810Y72338D01*
X102797Y72334D01*
X102792Y72341D01*
X102292Y72341D01*
X102276Y72329D01*
X102265Y72333D01*
X101965Y72133D01*
X101956Y72108D01*
X101944Y72102D01*
X101844Y71602D01*
X101847Y71595D01*
X101843Y71592D01*
X101843Y70992D01*
X101859Y70971D01*
X101857Y70957D01*
X102157Y70657D01*
X102171Y70655D01*
X102174Y70646D01*
X102654Y70454D01*
X102845Y69978D01*
X102942Y69492D01*
X102847Y69020D01*
X102476Y68741D01*
X102017Y68741D01*
X101741Y69108D01*
X101741Y69692D01*
X101736Y69699D01*
X101740Y69704D01*
X101640Y70104D01*
X101625Y70116D01*
X101627Y70127D01*
X101327Y70427D01*
X101301Y70430D01*
X101295Y70438D01*
X101294Y70438D01*
X101292Y70441D01*
X100592Y70441D01*
X100588Y70438D01*
X100585Y70438D01*
X100582Y70440D01*
X100082Y70340D01*
X100061Y70317D01*
X100045Y70304D01*
X100044Y70304D01*
X99944Y69904D01*
X99945Y69901D01*
X99943Y69900D01*
X99845Y69307D01*
X99658Y68934D01*
X99312Y68848D01*
X99041Y69208D01*
X99041Y69780D01*
X99231Y70160D01*
X99622Y70453D01*
X99624Y70462D01*
X99631Y70462D01*
X99931Y70862D01*
X99931Y70884D01*
X99941Y70892D01*
X99941Y71292D01*
X99930Y71307D01*
X99934Y71317D01*
X99634Y71817D01*
X99614Y71826D01*
X99610Y71838D01*
X99110Y72038D01*
X99097Y72034D01*
X99092Y72041D01*
X98692Y72041D01*
X98674Y72028D01*
X98662Y72031D01*
X98262Y71731D01*
X98261Y71726D01*
X98257Y71727D01*
X97557Y71027D01*
X97555Y71013D01*
X97546Y71010D01*
X97346Y70510D01*
X97348Y70504D01*
X97347Y70503D01*
X97344Y70502D01*
X97244Y70002D01*
X97247Y69995D01*
X97243Y69992D01*
X97243Y68392D01*
X97259Y68371D01*
X97257Y68357D01*
X97957Y67657D01*
X97962Y67656D01*
X97962Y67653D01*
X98362Y67353D01*
X98372Y67353D01*
X98374Y67346D01*
X98874Y67146D01*
X98879Y67148D01*
X98880Y67144D01*
X99280Y67044D01*
X99288Y67048D01*
X99292Y67043D01*
X99892Y67043D01*
X99905Y67052D01*
X99914Y67048D01*
X100314Y67248D01*
X100319Y67258D01*
X100327Y67257D01*
X100612Y67543D01*
X100876Y67543D01*
X101662Y66953D01*
X101678Y66953D01*
X101682Y66944D01*
X102182Y66844D01*
X102194Y66849D01*
X102200Y66843D01*
X102800Y66943D01*
G37*
G36*
X91121Y23896D02*
X91121Y23896D01*
X91130Y23892D01*
X91930Y24292D01*
X91935Y24302D01*
X91943Y24301D01*
X92343Y24701D01*
X92344Y24706D01*
X92347Y24706D01*
X92647Y25106D01*
X92647Y25113D01*
X92652Y25114D01*
X92852Y25514D01*
X92850Y25523D01*
X92856Y25526D01*
X92956Y26026D01*
X92956Y26027D01*
X92957Y26028D01*
X93057Y26628D01*
X93051Y26639D01*
X93056Y26646D01*
X92856Y27646D01*
X92851Y27650D01*
X92854Y27654D01*
X92654Y28154D01*
X92651Y28156D01*
X92652Y28158D01*
X92452Y28558D01*
X92438Y28565D01*
X92438Y28575D01*
X91638Y29175D01*
X91628Y29175D01*
X91626Y29182D01*
X91126Y29382D01*
X91113Y29378D01*
X91108Y29385D01*
X90608Y29385D01*
X90592Y29373D01*
X90581Y29377D01*
X90281Y29177D01*
X90272Y29152D01*
X90260Y29146D01*
X90160Y28646D01*
X90163Y28639D01*
X90159Y28636D01*
X90159Y28036D01*
X90175Y28015D01*
X90173Y28001D01*
X90473Y27701D01*
X90487Y27699D01*
X90490Y27690D01*
X90970Y27498D01*
X91161Y27022D01*
X91258Y26536D01*
X91163Y26064D01*
X90792Y25785D01*
X90333Y25785D01*
X90057Y26152D01*
X90057Y26636D01*
X90053Y26642D01*
X90056Y26646D01*
X89956Y27146D01*
X89936Y27164D01*
X89935Y27177D01*
X89635Y27377D01*
X89620Y27376D01*
X89615Y27385D01*
X88915Y27485D01*
X88910Y27482D01*
X88900Y27482D01*
X88895Y27478D01*
X88890Y27482D01*
X88390Y27282D01*
X88378Y27262D01*
X88366Y27253D01*
X88361Y27252D01*
X88261Y26952D01*
X88263Y26946D01*
X88259Y26944D01*
X88160Y26349D01*
X87975Y25885D01*
X87633Y25885D01*
X87357Y26252D01*
X87357Y26824D01*
X87547Y27204D01*
X87938Y27497D01*
X87940Y27506D01*
X87947Y27506D01*
X88247Y27906D01*
X88247Y27928D01*
X88257Y27936D01*
X88257Y28336D01*
X88246Y28351D01*
X88250Y28361D01*
X87950Y28861D01*
X87930Y28870D01*
X87926Y28882D01*
X87426Y29082D01*
X87406Y29076D01*
X87396Y29084D01*
X86996Y28984D01*
X86991Y28978D01*
X86986Y28980D01*
X86586Y28780D01*
X86581Y28770D01*
X86573Y28771D01*
X86173Y28371D01*
X86172Y28366D01*
X86169Y28366D01*
X85869Y27966D01*
X85869Y27956D01*
X85862Y27954D01*
X85662Y27454D01*
X85664Y27449D01*
X85660Y27446D01*
X85560Y26946D01*
X85563Y26939D01*
X85559Y26936D01*
X85559Y25436D01*
X85575Y25415D01*
X85573Y25401D01*
X86273Y24701D01*
X86278Y24700D01*
X86278Y24697D01*
X86678Y24397D01*
X86688Y24397D01*
X86690Y24390D01*
X87190Y24190D01*
X87195Y24192D01*
X87196Y24188D01*
X87596Y24088D01*
X87604Y24092D01*
X87608Y24087D01*
X88208Y24087D01*
X88221Y24096D01*
X88230Y24092D01*
X88630Y24292D01*
X88635Y24302D01*
X88643Y24301D01*
X88928Y24587D01*
X89188Y24587D01*
X89573Y24201D01*
X89585Y24200D01*
X89586Y24192D01*
X89986Y23992D01*
X89995Y23994D01*
X89998Y23988D01*
X90498Y23888D01*
X90505Y23891D01*
X90508Y23887D01*
X91108Y23887D01*
X91121Y23896D01*
G37*
G36*
X79537Y72360D02*
X79537Y72360D01*
X79546Y72356D01*
X79946Y72556D01*
X79947Y72559D01*
X79949Y72558D01*
X80449Y72858D01*
X80453Y72866D01*
X80459Y72865D01*
X80759Y73165D01*
X80760Y73170D01*
X80763Y73170D01*
X81063Y73570D01*
X81063Y73580D01*
X81070Y73582D01*
X81270Y74082D01*
X81268Y74088D01*
X81272Y74090D01*
X81372Y74590D01*
X81367Y74602D01*
X81369Y74603D01*
X81368Y74604D01*
X81373Y74608D01*
X81273Y75208D01*
X81272Y75209D01*
X81272Y75210D01*
X81172Y75710D01*
X81165Y75716D01*
X81168Y75722D01*
X80768Y76522D01*
X80754Y76529D01*
X80754Y76539D01*
X80354Y76839D01*
X80347Y76839D01*
X80346Y76844D01*
X79946Y77044D01*
X79943Y77043D01*
X79942Y77046D01*
X79442Y77246D01*
X79436Y77244D01*
X79434Y77248D01*
X78934Y77348D01*
X78927Y77345D01*
X78924Y77349D01*
X77824Y77349D01*
X77818Y77345D01*
X77814Y77348D01*
X76314Y77048D01*
X76304Y77037D01*
X76294Y77039D01*
X75898Y76742D01*
X75502Y76544D01*
X75499Y76538D01*
X75494Y76539D01*
X75094Y76239D01*
X75092Y76230D01*
X75085Y76230D01*
X74485Y75430D01*
X74485Y75423D01*
X74480Y75422D01*
X74280Y75022D01*
X74281Y75019D01*
X74278Y75018D01*
X74078Y74518D01*
X74080Y74512D01*
X74076Y74510D01*
X73976Y74010D01*
X73979Y74003D01*
X73975Y74000D01*
X73975Y73400D01*
X73979Y73394D01*
X73976Y73390D01*
X74076Y72890D01*
X74091Y72877D01*
X74089Y72865D01*
X74389Y72565D01*
X74416Y72562D01*
X74424Y72551D01*
X74924Y72551D01*
X74930Y72555D01*
X74934Y72552D01*
X75434Y72652D01*
X75447Y72667D01*
X75459Y72665D01*
X75759Y72965D01*
X75760Y72976D01*
X75762Y72978D01*
X75761Y72980D01*
X75763Y72992D01*
X75773Y73000D01*
X75773Y73595D01*
X75871Y74086D01*
X76067Y74576D01*
X76359Y74965D01*
X76747Y75256D01*
X76959Y75326D01*
X76876Y74910D01*
X76879Y74903D01*
X76875Y74900D01*
X76875Y74400D01*
X76879Y74394D01*
X76876Y74390D01*
X76976Y73890D01*
X76983Y73884D01*
X76980Y73878D01*
X77180Y73478D01*
X77183Y73477D01*
X77182Y73475D01*
X77482Y72975D01*
X77494Y72970D01*
X77494Y72961D01*
X77894Y72661D01*
X77904Y72661D01*
X77906Y72654D01*
X78406Y72454D01*
X78411Y72456D01*
X78412Y72452D01*
X78812Y72352D01*
X78820Y72356D01*
X78824Y72351D01*
X79524Y72351D01*
X79537Y72360D01*
G37*
G36*
X157245Y21492D02*
X157245Y21492D01*
X157254Y21488D01*
X157654Y21688D01*
X157655Y21691D01*
X157657Y21690D01*
X158157Y21990D01*
X158161Y21998D01*
X158167Y21997D01*
X158467Y22297D01*
X158468Y22306D01*
X158474Y22307D01*
X158774Y22807D01*
X158774Y22810D01*
X158776Y22810D01*
X158976Y23210D01*
X158974Y23219D01*
X158980Y23222D01*
X159080Y23722D01*
X159077Y23729D01*
X159081Y23732D01*
X159081Y24232D01*
X159077Y24238D01*
X159080Y24242D01*
X158880Y25242D01*
X158871Y25250D01*
X158874Y25257D01*
X158574Y25757D01*
X158571Y25759D01*
X158571Y25762D01*
X158271Y26162D01*
X158266Y26163D01*
X158267Y26167D01*
X157967Y26467D01*
X157958Y26468D01*
X157957Y26474D01*
X157457Y26774D01*
X157431Y26771D01*
X157420Y26780D01*
X157020Y26680D01*
X157008Y26665D01*
X156997Y26667D01*
X156597Y26267D01*
X156595Y26253D01*
X156586Y26250D01*
X156386Y25750D01*
X156394Y25722D01*
X156388Y25710D01*
X156588Y25310D01*
X156598Y25305D01*
X156597Y25297D01*
X156993Y24902D01*
X157283Y24418D01*
X157283Y23937D01*
X157188Y23465D01*
X156825Y23284D01*
X156368Y23375D01*
X156179Y23846D01*
X156080Y24342D01*
X155980Y24842D01*
X155975Y24846D01*
X155978Y24850D01*
X155778Y25350D01*
X155775Y25352D01*
X155776Y25354D01*
X155576Y25754D01*
X155566Y25759D01*
X155567Y25767D01*
X155167Y26167D01*
X155162Y26168D01*
X155162Y26171D01*
X154762Y26471D01*
X154746Y26471D01*
X154742Y26480D01*
X153742Y26680D01*
X153729Y26674D01*
X153722Y26680D01*
X153222Y26580D01*
X153216Y26573D01*
X153210Y26576D01*
X152810Y26376D01*
X152809Y26373D01*
X152807Y26374D01*
X152307Y26074D01*
X152303Y26066D01*
X152297Y26067D01*
X151997Y25767D01*
X151995Y25753D01*
X151986Y25750D01*
X151786Y25250D01*
X151788Y25245D01*
X151784Y25244D01*
X151684Y24844D01*
X151685Y24841D01*
X151683Y24840D01*
X151583Y24240D01*
X151586Y24235D01*
X151583Y24232D01*
X151583Y23732D01*
X151587Y23726D01*
X151584Y23722D01*
X151684Y23222D01*
X151689Y23218D01*
X151686Y23214D01*
X151886Y22714D01*
X151894Y22709D01*
X151893Y22702D01*
X152193Y22302D01*
X152198Y22301D01*
X152197Y22297D01*
X152597Y21897D01*
X152624Y21894D01*
X152632Y21883D01*
X153032Y21883D01*
X153050Y21897D01*
X153063Y21894D01*
X153563Y22294D01*
X153566Y22308D01*
X153576Y22310D01*
X153776Y22710D01*
X153773Y22726D01*
X153781Y22732D01*
X153781Y23132D01*
X153767Y23150D01*
X153770Y23163D01*
X153377Y23654D01*
X153282Y24033D01*
X153377Y24508D01*
X153648Y24779D01*
X154099Y24688D01*
X154286Y24314D01*
X154584Y23320D01*
X154684Y22822D01*
X154689Y22818D01*
X154686Y22814D01*
X154886Y22314D01*
X154898Y22306D01*
X154897Y22297D01*
X155197Y21997D01*
X155206Y21996D01*
X155207Y21990D01*
X155707Y21690D01*
X155710Y21690D01*
X155710Y21688D01*
X156110Y21488D01*
X156126Y21491D01*
X156132Y21483D01*
X157232Y21483D01*
X157245Y21492D01*
G37*
G36*
X116621Y82216D02*
X116621Y82216D01*
X116630Y82212D01*
X117030Y82412D01*
X117031Y82415D01*
X117033Y82414D01*
X117533Y82714D01*
X117537Y82722D01*
X117543Y82721D01*
X117843Y83021D01*
X117844Y83030D01*
X117850Y83031D01*
X118150Y83531D01*
X118149Y83541D01*
X118156Y83544D01*
X118256Y83944D01*
X118255Y83946D01*
X118256Y83946D01*
X118456Y84946D01*
X118454Y84951D01*
X118454Y84952D01*
X118451Y84958D01*
X118457Y84964D01*
X118357Y85564D01*
X118356Y85565D01*
X118356Y85566D01*
X118256Y86066D01*
X118245Y86076D01*
X118247Y86086D01*
X117647Y86886D01*
X117638Y86888D01*
X117638Y86895D01*
X116838Y87495D01*
X116807Y87495D01*
X116796Y87504D01*
X116396Y87404D01*
X116384Y87389D01*
X116373Y87391D01*
X115973Y86991D01*
X115971Y86977D01*
X115962Y86974D01*
X115762Y86474D01*
X115770Y86446D01*
X115764Y86434D01*
X115964Y86034D01*
X115974Y86029D01*
X115973Y86021D01*
X116369Y85626D01*
X116659Y85142D01*
X116659Y84665D01*
X116468Y84189D01*
X116198Y84008D01*
X115744Y84099D01*
X115555Y84570D01*
X115456Y85066D01*
X115451Y85070D01*
X115454Y85074D01*
X115255Y85570D01*
X115156Y86066D01*
X115145Y86076D01*
X115147Y86086D01*
X114547Y86886D01*
X114538Y86888D01*
X114538Y86895D01*
X114138Y87195D01*
X114122Y87195D01*
X114118Y87204D01*
X113118Y87404D01*
X113105Y87398D01*
X113098Y87404D01*
X112598Y87304D01*
X112594Y87299D01*
X112590Y87302D01*
X112090Y87102D01*
X112085Y87094D01*
X112078Y87095D01*
X111678Y86795D01*
X111677Y86790D01*
X111673Y86791D01*
X111373Y86491D01*
X111372Y86479D01*
X111364Y86478D01*
X111164Y86078D01*
X111165Y86075D01*
X111162Y86074D01*
X110962Y85574D01*
X110963Y85571D01*
X110961Y85569D01*
X110966Y85563D01*
X110966Y85561D01*
X110959Y85556D01*
X110959Y84456D01*
X110963Y84450D01*
X110960Y84446D01*
X111060Y83946D01*
X111065Y83942D01*
X111062Y83938D01*
X111262Y83438D01*
X111270Y83433D01*
X111269Y83426D01*
X111569Y83026D01*
X111574Y83025D01*
X111573Y83021D01*
X111973Y82621D01*
X112015Y82616D01*
X112024Y82609D01*
X112324Y82709D01*
X112328Y82716D01*
X112333Y82714D01*
X112833Y83014D01*
X112838Y83026D01*
X112847Y83026D01*
X113147Y83426D01*
X113147Y83457D01*
X113156Y83468D01*
X113056Y83868D01*
X113048Y83875D01*
X113050Y83881D01*
X112754Y84375D01*
X112658Y84757D01*
X112753Y85232D01*
X113024Y85503D01*
X113475Y85412D01*
X113662Y85038D01*
X113960Y84044D01*
X114060Y83546D01*
X114065Y83542D01*
X114062Y83538D01*
X114262Y83038D01*
X114274Y83030D01*
X114273Y83021D01*
X114573Y82721D01*
X114578Y82720D01*
X114578Y82717D01*
X114978Y82417D01*
X114988Y82417D01*
X114990Y82410D01*
X115490Y82210D01*
X115503Y82214D01*
X115508Y82207D01*
X116608Y82207D01*
X116621Y82216D01*
G37*
G36*
X192313Y98144D02*
X192313Y98144D01*
X192322Y98140D01*
X192722Y98340D01*
X192723Y98343D01*
X192725Y98342D01*
X193225Y98642D01*
X193229Y98650D01*
X193235Y98649D01*
X193535Y98949D01*
X193536Y98958D01*
X193542Y98959D01*
X193842Y99459D01*
X193841Y99469D01*
X193848Y99472D01*
X193948Y99872D01*
X193947Y99874D01*
X193948Y99874D01*
X194148Y100874D01*
X194142Y100887D01*
X194148Y100894D01*
X194049Y101392D01*
X193949Y101992D01*
X193937Y102004D01*
X193939Y102014D01*
X193339Y102814D01*
X193330Y102816D01*
X193330Y102823D01*
X192530Y103423D01*
X192499Y103423D01*
X192488Y103432D01*
X192088Y103332D01*
X192076Y103317D01*
X192065Y103319D01*
X191665Y102919D01*
X191663Y102905D01*
X191654Y102902D01*
X191454Y102402D01*
X191462Y102374D01*
X191456Y102362D01*
X191656Y101962D01*
X191666Y101957D01*
X191665Y101949D01*
X192061Y101554D01*
X192351Y101070D01*
X192351Y100593D01*
X192160Y100117D01*
X191890Y99936D01*
X191436Y100027D01*
X191247Y100498D01*
X191148Y100994D01*
X191143Y100998D01*
X191146Y101002D01*
X190947Y101498D01*
X190848Y101994D01*
X190837Y102004D01*
X190839Y102014D01*
X190239Y102814D01*
X190230Y102816D01*
X190230Y102823D01*
X189830Y103123D01*
X189814Y103123D01*
X189810Y103132D01*
X188810Y103332D01*
X188797Y103326D01*
X188790Y103332D01*
X188290Y103232D01*
X188286Y103227D01*
X188282Y103230D01*
X187782Y103030D01*
X187777Y103022D01*
X187770Y103023D01*
X187370Y102723D01*
X187369Y102718D01*
X187365Y102719D01*
X187065Y102419D01*
X187064Y102407D01*
X187056Y102406D01*
X186856Y102006D01*
X186857Y102003D01*
X186854Y102002D01*
X186654Y101502D01*
X186655Y101499D01*
X186653Y101497D01*
X186658Y101491D01*
X186658Y101489D01*
X186651Y101484D01*
X186651Y100384D01*
X186655Y100378D01*
X186652Y100374D01*
X186752Y99874D01*
X186757Y99870D01*
X186754Y99866D01*
X186954Y99366D01*
X186962Y99361D01*
X186961Y99354D01*
X187261Y98954D01*
X187266Y98953D01*
X187265Y98949D01*
X187665Y98549D01*
X187707Y98544D01*
X187716Y98537D01*
X188016Y98637D01*
X188020Y98644D01*
X188025Y98642D01*
X188525Y98942D01*
X188530Y98954D01*
X188539Y98954D01*
X188839Y99354D01*
X188839Y99385D01*
X188848Y99396D01*
X188748Y99796D01*
X188740Y99803D01*
X188742Y99809D01*
X188446Y100303D01*
X188350Y100685D01*
X188445Y101160D01*
X188716Y101431D01*
X189167Y101340D01*
X189354Y100966D01*
X189652Y99972D01*
X189752Y99474D01*
X189757Y99470D01*
X189754Y99466D01*
X189954Y98966D01*
X189966Y98958D01*
X189965Y98949D01*
X190265Y98649D01*
X190270Y98648D01*
X190270Y98645D01*
X190670Y98345D01*
X190680Y98345D01*
X190682Y98338D01*
X191182Y98138D01*
X191195Y98142D01*
X191200Y98135D01*
X192300Y98135D01*
X192313Y98144D01*
G37*
G36*
X102395Y89949D02*
X102395Y89949D01*
X102402Y89944D01*
X102902Y90044D01*
X102903Y90045D01*
X102904Y90044D01*
X103304Y90144D01*
X103311Y90153D01*
X103317Y90150D01*
X103817Y90450D01*
X103822Y90462D01*
X103831Y90462D01*
X104431Y91262D01*
X104431Y91278D01*
X104440Y91282D01*
X104740Y92782D01*
X104734Y92795D01*
X104740Y92802D01*
X104540Y93802D01*
X104529Y93812D01*
X104531Y93822D01*
X104233Y94220D01*
X103934Y94717D01*
X103922Y94722D01*
X103922Y94731D01*
X103522Y95031D01*
X103515Y95031D01*
X103514Y95036D01*
X103114Y95236D01*
X103090Y95232D01*
X103080Y95240D01*
X102680Y95140D01*
X102668Y95125D01*
X102657Y95127D01*
X102257Y94727D01*
X102256Y94715D01*
X102248Y94714D01*
X102048Y94314D01*
X102052Y94290D01*
X102053Y94290D01*
X102054Y94282D01*
X102048Y94270D01*
X102248Y93870D01*
X102255Y93867D01*
X102254Y93861D01*
X102653Y93362D01*
X102943Y92976D01*
X102943Y92501D01*
X102752Y92025D01*
X102482Y91844D01*
X102025Y91936D01*
X101839Y92308D01*
X101740Y92802D01*
X101735Y92806D01*
X101738Y92810D01*
X101539Y93306D01*
X101440Y93802D01*
X101429Y93812D01*
X101431Y93822D01*
X100831Y94622D01*
X100822Y94624D01*
X100822Y94631D01*
X100422Y94931D01*
X100412Y94931D01*
X100410Y94938D01*
X99910Y95138D01*
X99897Y95134D01*
X99892Y95141D01*
X99392Y95141D01*
X99386Y95137D01*
X99382Y95140D01*
X98382Y94940D01*
X98372Y94929D01*
X98362Y94931D01*
X97962Y94631D01*
X97960Y94622D01*
X97953Y94622D01*
X97653Y94222D01*
X97653Y94215D01*
X97648Y94214D01*
X97448Y93814D01*
X97449Y93811D01*
X97446Y93810D01*
X97246Y93310D01*
X97247Y93307D01*
X97245Y93305D01*
X97250Y93299D01*
X97250Y93297D01*
X97243Y93292D01*
X97243Y92192D01*
X97247Y92186D01*
X97244Y92182D01*
X97344Y91682D01*
X97349Y91678D01*
X97346Y91674D01*
X97546Y91174D01*
X97558Y91166D01*
X97557Y91157D01*
X98257Y90457D01*
X98284Y90454D01*
X98292Y90443D01*
X98592Y90443D01*
X98607Y90454D01*
X98617Y90450D01*
X99117Y90750D01*
X99122Y90762D01*
X99131Y90762D01*
X99431Y91162D01*
X99431Y91193D01*
X99440Y91204D01*
X99340Y91604D01*
X99332Y91611D01*
X99334Y91617D01*
X99038Y92111D01*
X98942Y92494D01*
X99038Y93068D01*
X99308Y93339D01*
X99756Y93249D01*
X99945Y92776D01*
X100244Y91780D01*
X100344Y91282D01*
X100351Y91276D01*
X100348Y91270D01*
X100548Y90870D01*
X100554Y90867D01*
X100553Y90862D01*
X100853Y90462D01*
X100862Y90460D01*
X100862Y90453D01*
X101262Y90153D01*
X101278Y90153D01*
X101282Y90144D01*
X101782Y90044D01*
X101783Y90044D01*
X101784Y90043D01*
X102384Y89943D01*
X102395Y89949D01*
G37*
G36*
X114587Y39585D02*
X114587Y39585D01*
X114594Y39580D01*
X115094Y39680D01*
X115095Y39681D01*
X115096Y39680D01*
X115496Y39780D01*
X115503Y39789D01*
X115509Y39786D01*
X116009Y40086D01*
X116014Y40098D01*
X116023Y40098D01*
X116623Y40898D01*
X116623Y40914D01*
X116632Y40918D01*
X116932Y42418D01*
X116926Y42431D01*
X116932Y42438D01*
X116732Y43438D01*
X116721Y43448D01*
X116723Y43458D01*
X116123Y44258D01*
X116114Y44260D01*
X116114Y44267D01*
X115314Y44867D01*
X115283Y44867D01*
X115272Y44876D01*
X114872Y44776D01*
X114860Y44761D01*
X114849Y44763D01*
X114449Y44363D01*
X114447Y44349D01*
X114438Y44346D01*
X114238Y43846D01*
X114247Y43813D01*
X114243Y43801D01*
X114443Y43501D01*
X114446Y43500D01*
X114446Y43497D01*
X114845Y42998D01*
X115135Y42612D01*
X115135Y42137D01*
X114944Y41661D01*
X114674Y41480D01*
X114217Y41572D01*
X114031Y41944D01*
X113932Y42438D01*
X113927Y42442D01*
X113930Y42446D01*
X113731Y42942D01*
X113632Y43438D01*
X113621Y43448D01*
X113623Y43458D01*
X113023Y44258D01*
X113014Y44260D01*
X113014Y44267D01*
X112614Y44567D01*
X112604Y44567D01*
X112602Y44574D01*
X112102Y44774D01*
X112089Y44770D01*
X112084Y44777D01*
X111584Y44777D01*
X111578Y44773D01*
X111574Y44776D01*
X110574Y44576D01*
X110564Y44565D01*
X110554Y44567D01*
X110154Y44267D01*
X110152Y44258D01*
X110145Y44258D01*
X109845Y43858D01*
X109845Y43851D01*
X109840Y43850D01*
X109640Y43450D01*
X109641Y43447D01*
X109638Y43446D01*
X109438Y42946D01*
X109439Y42943D01*
X109437Y42941D01*
X109442Y42935D01*
X109442Y42933D01*
X109435Y42928D01*
X109435Y41828D01*
X109439Y41822D01*
X109436Y41818D01*
X109536Y41318D01*
X109541Y41314D01*
X109538Y41310D01*
X109738Y40810D01*
X109746Y40805D01*
X109745Y40798D01*
X110045Y40398D01*
X110054Y40396D01*
X110054Y40389D01*
X110454Y40089D01*
X110476Y40089D01*
X110484Y40079D01*
X110784Y40079D01*
X110799Y40090D01*
X110809Y40086D01*
X111309Y40386D01*
X111314Y40398D01*
X111323Y40398D01*
X111623Y40798D01*
X111623Y40829D01*
X111632Y40840D01*
X111532Y41240D01*
X111524Y41247D01*
X111526Y41253D01*
X111230Y41747D01*
X111134Y42130D01*
X111230Y42704D01*
X111496Y42970D01*
X111948Y42789D01*
X112138Y42410D01*
X112436Y41416D01*
X112536Y40918D01*
X112543Y40912D01*
X112540Y40906D01*
X112740Y40506D01*
X112746Y40503D01*
X112745Y40498D01*
X113045Y40098D01*
X113054Y40096D01*
X113054Y40089D01*
X113454Y39789D01*
X113470Y39789D01*
X113474Y39780D01*
X113974Y39680D01*
X113975Y39680D01*
X113976Y39679D01*
X114576Y39579D01*
X114587Y39585D01*
G37*
G36*
X192313Y40096D02*
X192313Y40096D01*
X192322Y40092D01*
X192722Y40292D01*
X192723Y40295D01*
X192725Y40294D01*
X193225Y40594D01*
X193229Y40602D01*
X193235Y40601D01*
X193535Y40901D01*
X193536Y40910D01*
X193542Y40911D01*
X193842Y41411D01*
X193841Y41421D01*
X193848Y41424D01*
X193948Y41824D01*
X193947Y41826D01*
X193948Y41826D01*
X194148Y42826D01*
X194142Y42839D01*
X194148Y42846D01*
X193948Y43846D01*
X193939Y43854D01*
X193942Y43861D01*
X193642Y44361D01*
X193639Y44363D01*
X193639Y44366D01*
X193339Y44766D01*
X193330Y44768D01*
X193330Y44775D01*
X192930Y45075D01*
X192923Y45075D01*
X192922Y45080D01*
X192522Y45280D01*
X192506Y45277D01*
X192500Y45285D01*
X192100Y45285D01*
X192079Y45269D01*
X192065Y45271D01*
X191665Y44871D01*
X191663Y44857D01*
X191654Y44854D01*
X191454Y44354D01*
X191462Y44326D01*
X191456Y44314D01*
X191656Y43914D01*
X191666Y43909D01*
X191665Y43901D01*
X192061Y43506D01*
X192351Y43022D01*
X192351Y42545D01*
X192160Y42069D01*
X191890Y41888D01*
X191436Y41979D01*
X191247Y42450D01*
X191148Y42946D01*
X191143Y42950D01*
X191146Y42954D01*
X190947Y43451D01*
X190848Y43848D01*
X190840Y43855D01*
X190842Y43861D01*
X190542Y44361D01*
X190539Y44363D01*
X190539Y44366D01*
X190239Y44766D01*
X190224Y44770D01*
X190222Y44780D01*
X189822Y44980D01*
X189819Y44979D01*
X189818Y44982D01*
X189318Y45182D01*
X189312Y45180D01*
X189310Y45184D01*
X188810Y45284D01*
X188797Y45278D01*
X188790Y45284D01*
X188290Y45184D01*
X188286Y45179D01*
X188282Y45182D01*
X187782Y44982D01*
X187777Y44974D01*
X187770Y44975D01*
X187370Y44675D01*
X187369Y44670D01*
X187365Y44671D01*
X187065Y44371D01*
X187063Y44357D01*
X187054Y44354D01*
X186654Y43354D01*
X186655Y43352D01*
X186653Y43351D01*
X186657Y43346D01*
X186658Y43341D01*
X186651Y43336D01*
X186651Y42336D01*
X186655Y42330D01*
X186652Y42326D01*
X186752Y41826D01*
X186755Y41823D01*
X186753Y41820D01*
X186953Y41220D01*
X186967Y41211D01*
X186965Y41201D01*
X187665Y40501D01*
X187692Y40498D01*
X187700Y40487D01*
X188000Y40487D01*
X188018Y40501D01*
X188031Y40498D01*
X188531Y40898D01*
X188533Y40906D01*
X188539Y40906D01*
X188839Y41306D01*
X188839Y41337D01*
X188848Y41348D01*
X188748Y41748D01*
X188737Y41757D01*
X188739Y41766D01*
X188446Y42157D01*
X188350Y42636D01*
X188445Y43112D01*
X188716Y43383D01*
X189167Y43292D01*
X189354Y42918D01*
X189652Y41924D01*
X189752Y41426D01*
X189757Y41422D01*
X189754Y41418D01*
X189954Y40918D01*
X189962Y40913D01*
X189961Y40906D01*
X190261Y40506D01*
X190276Y40502D01*
X190278Y40492D01*
X190678Y40292D01*
X190681Y40293D01*
X190682Y40290D01*
X191182Y40090D01*
X191195Y40094D01*
X191200Y40087D01*
X192300Y40087D01*
X192313Y40096D01*
G37*
G36*
X166403Y98489D02*
X166403Y98489D01*
X166410Y98484D01*
X166910Y98584D01*
X166911Y98585D01*
X166912Y98584D01*
X167312Y98684D01*
X167319Y98693D01*
X167325Y98690D01*
X167825Y98990D01*
X167830Y99002D01*
X167839Y99002D01*
X168439Y99802D01*
X168439Y99818D01*
X168448Y99822D01*
X168748Y101322D01*
X168742Y101335D01*
X168748Y101342D01*
X168548Y102342D01*
X168537Y102352D01*
X168539Y102362D01*
X167939Y103162D01*
X167930Y103164D01*
X167930Y103171D01*
X167130Y103771D01*
X167099Y103771D01*
X167088Y103780D01*
X166688Y103680D01*
X166676Y103665D01*
X166665Y103667D01*
X166265Y103267D01*
X166263Y103253D01*
X166254Y103250D01*
X166054Y102750D01*
X166063Y102717D01*
X166059Y102705D01*
X166259Y102405D01*
X166262Y102404D01*
X166262Y102401D01*
X166661Y101902D01*
X166951Y101516D01*
X166951Y100944D01*
X166762Y100566D01*
X166490Y100384D01*
X166033Y100476D01*
X165847Y100848D01*
X165748Y101342D01*
X165743Y101346D01*
X165746Y101350D01*
X165547Y101846D01*
X165448Y102342D01*
X165437Y102352D01*
X165439Y102362D01*
X164839Y103162D01*
X164830Y103164D01*
X164830Y103171D01*
X164430Y103471D01*
X164420Y103471D01*
X164418Y103478D01*
X163918Y103678D01*
X163905Y103674D01*
X163900Y103681D01*
X163400Y103681D01*
X163394Y103677D01*
X163390Y103680D01*
X162390Y103480D01*
X162380Y103469D01*
X162370Y103471D01*
X161970Y103171D01*
X161968Y103162D01*
X161961Y103162D01*
X161661Y102762D01*
X161661Y102755D01*
X161656Y102754D01*
X161456Y102354D01*
X161457Y102351D01*
X161454Y102350D01*
X161254Y101850D01*
X161255Y101847D01*
X161253Y101845D01*
X161258Y101839D01*
X161258Y101837D01*
X161251Y101832D01*
X161251Y100732D01*
X161255Y100726D01*
X161252Y100722D01*
X161352Y100222D01*
X161357Y100218D01*
X161354Y100214D01*
X161554Y99714D01*
X161562Y99709D01*
X161561Y99702D01*
X161861Y99302D01*
X161870Y99300D01*
X161870Y99293D01*
X162270Y98993D01*
X162292Y98993D01*
X162300Y98983D01*
X162600Y98983D01*
X162615Y98994D01*
X162625Y98990D01*
X163125Y99290D01*
X163130Y99302D01*
X163139Y99302D01*
X163439Y99702D01*
X163439Y99733D01*
X163448Y99744D01*
X163348Y100144D01*
X163340Y100151D01*
X163342Y100157D01*
X163046Y100651D01*
X162950Y101034D01*
X163046Y101608D01*
X163312Y101874D01*
X163764Y101693D01*
X163954Y101314D01*
X164252Y100320D01*
X164352Y99822D01*
X164359Y99816D01*
X164356Y99810D01*
X164556Y99410D01*
X164562Y99407D01*
X164561Y99402D01*
X164861Y99002D01*
X164870Y99000D01*
X164870Y98993D01*
X165270Y98693D01*
X165286Y98693D01*
X165290Y98684D01*
X165790Y98584D01*
X165791Y98584D01*
X165792Y98583D01*
X166392Y98483D01*
X166403Y98489D01*
G37*
G36*
X141513Y97400D02*
X141513Y97400D01*
X141522Y97396D01*
X141922Y97596D01*
X141923Y97599D01*
X141925Y97598D01*
X142425Y97898D01*
X142429Y97906D01*
X142435Y97905D01*
X142735Y98205D01*
X142736Y98214D01*
X142742Y98215D01*
X143042Y98715D01*
X143041Y98725D01*
X143048Y98728D01*
X143148Y99128D01*
X143147Y99130D01*
X143148Y99130D01*
X143348Y100130D01*
X143342Y100143D01*
X143348Y100150D01*
X143148Y101150D01*
X143139Y101158D01*
X143142Y101165D01*
X142842Y101665D01*
X142839Y101667D01*
X142839Y101670D01*
X142539Y102070D01*
X142530Y102072D01*
X142530Y102079D01*
X142130Y102379D01*
X142123Y102379D01*
X142122Y102384D01*
X141722Y102584D01*
X141706Y102581D01*
X141700Y102589D01*
X141300Y102589D01*
X141279Y102573D01*
X141265Y102575D01*
X140865Y102175D01*
X140863Y102161D01*
X140854Y102158D01*
X140654Y101658D01*
X140662Y101630D01*
X140656Y101618D01*
X140856Y101218D01*
X140866Y101213D01*
X140865Y101205D01*
X141261Y100810D01*
X141551Y100326D01*
X141551Y99849D01*
X141360Y99373D01*
X141090Y99192D01*
X140636Y99283D01*
X140447Y99754D01*
X140348Y100250D01*
X140343Y100254D01*
X140346Y100258D01*
X140147Y100755D01*
X140048Y101152D01*
X140040Y101159D01*
X140042Y101165D01*
X139742Y101665D01*
X139739Y101667D01*
X139739Y101670D01*
X139439Y102070D01*
X139424Y102074D01*
X139422Y102084D01*
X139022Y102284D01*
X139019Y102283D01*
X139018Y102286D01*
X138518Y102486D01*
X138505Y102482D01*
X138500Y102489D01*
X137500Y102489D01*
X137489Y102481D01*
X137482Y102486D01*
X136982Y102286D01*
X136977Y102278D01*
X136970Y102279D01*
X136570Y101979D01*
X136569Y101974D01*
X136565Y101975D01*
X136265Y101675D01*
X136263Y101661D01*
X136254Y101658D01*
X135854Y100658D01*
X135855Y100656D01*
X135853Y100655D01*
X135857Y100650D01*
X135858Y100645D01*
X135851Y100640D01*
X135851Y99640D01*
X135855Y99634D01*
X135852Y99630D01*
X135952Y99130D01*
X135955Y99127D01*
X135953Y99124D01*
X136153Y98524D01*
X136167Y98515D01*
X136165Y98505D01*
X136865Y97805D01*
X136892Y97802D01*
X136900Y97791D01*
X137200Y97791D01*
X137218Y97805D01*
X137231Y97802D01*
X137731Y98202D01*
X137733Y98210D01*
X137739Y98210D01*
X138039Y98610D01*
X138039Y98641D01*
X138048Y98652D01*
X137948Y99052D01*
X137937Y99061D01*
X137939Y99070D01*
X137646Y99461D01*
X137550Y99940D01*
X137645Y100416D01*
X137916Y100687D01*
X138367Y100596D01*
X138554Y100222D01*
X138852Y99228D01*
X138952Y98730D01*
X138957Y98726D01*
X138954Y98722D01*
X139154Y98222D01*
X139162Y98217D01*
X139161Y98210D01*
X139461Y97810D01*
X139476Y97806D01*
X139478Y97796D01*
X139878Y97596D01*
X139881Y97597D01*
X139882Y97594D01*
X140382Y97394D01*
X140395Y97398D01*
X140400Y97391D01*
X141500Y97391D01*
X141513Y97400D01*
G37*
G36*
X141005Y37572D02*
X141005Y37572D01*
X141014Y37568D01*
X141412Y37767D01*
X141910Y37966D01*
X141920Y37982D01*
X141931Y37982D01*
X142531Y38782D01*
X142531Y38798D01*
X142540Y38802D01*
X142840Y40302D01*
X142834Y40315D01*
X142840Y40322D01*
X142640Y41322D01*
X142629Y41332D01*
X142631Y41342D01*
X142333Y41740D01*
X142034Y42237D01*
X142022Y42242D01*
X142022Y42251D01*
X141622Y42551D01*
X141615Y42551D01*
X141614Y42556D01*
X141214Y42756D01*
X141190Y42752D01*
X141180Y42760D01*
X140780Y42660D01*
X140768Y42645D01*
X140757Y42647D01*
X140357Y42247D01*
X140356Y42235D01*
X140348Y42234D01*
X140148Y41834D01*
X140152Y41812D01*
X140151Y41812D01*
X140152Y41810D01*
X140154Y41802D01*
X140148Y41790D01*
X140348Y41390D01*
X140358Y41385D01*
X140357Y41377D01*
X140753Y40982D01*
X141043Y40498D01*
X141043Y40021D01*
X140852Y39545D01*
X140582Y39364D01*
X140125Y39456D01*
X139939Y39828D01*
X139840Y40322D01*
X139835Y40326D01*
X139838Y40330D01*
X139639Y40826D01*
X139540Y41322D01*
X139531Y41330D01*
X139534Y41337D01*
X139234Y41837D01*
X139226Y41841D01*
X139227Y41847D01*
X138927Y42147D01*
X138922Y42148D01*
X138922Y42151D01*
X138522Y42451D01*
X138512Y42451D01*
X138510Y42458D01*
X138010Y42658D01*
X137997Y42654D01*
X137992Y42661D01*
X136992Y42661D01*
X136981Y42653D01*
X136974Y42658D01*
X136474Y42458D01*
X136469Y42450D01*
X136462Y42451D01*
X136062Y42151D01*
X136060Y42142D01*
X136053Y42142D01*
X135753Y41742D01*
X135753Y41735D01*
X135748Y41734D01*
X135548Y41334D01*
X135549Y41331D01*
X135546Y41330D01*
X135346Y40830D01*
X135347Y40828D01*
X135345Y40827D01*
X135349Y40822D01*
X135350Y40817D01*
X135343Y40812D01*
X135343Y39712D01*
X135348Y39705D01*
X135344Y39700D01*
X135444Y39300D01*
X135447Y39298D01*
X135445Y39296D01*
X135645Y38696D01*
X135659Y38687D01*
X135657Y38677D01*
X136357Y37977D01*
X136384Y37974D01*
X136392Y37963D01*
X136692Y37963D01*
X136707Y37974D01*
X136717Y37970D01*
X137217Y38270D01*
X137222Y38282D01*
X137231Y38282D01*
X137531Y38682D01*
X137531Y38711D01*
X137540Y38722D01*
X137440Y39222D01*
X137429Y39232D01*
X137431Y39242D01*
X137138Y39633D01*
X137042Y40112D01*
X137137Y40588D01*
X137408Y40859D01*
X137856Y40769D01*
X138046Y40295D01*
X138344Y39399D01*
X138444Y38902D01*
X138449Y38898D01*
X138446Y38894D01*
X138646Y38394D01*
X138654Y38389D01*
X138653Y38382D01*
X138953Y37982D01*
X138962Y37980D01*
X138962Y37973D01*
X139362Y37673D01*
X139378Y37673D01*
X139382Y37664D01*
X139882Y37564D01*
X139889Y37567D01*
X139892Y37563D01*
X140992Y37563D01*
X141005Y37572D01*
G37*
%LPC*%
G36*
X41274Y62787D02*
X41274Y62787D01*
X40901Y62974D01*
X40711Y63447D01*
X40711Y65238D01*
X40703Y65249D01*
X40705Y65262D01*
X40692Y65264D01*
X40675Y65285D01*
X40666Y65279D01*
X40662Y65285D01*
X40659Y65285D01*
X40641Y65271D01*
X40627Y65273D01*
X40427Y65073D01*
X40426Y65061D01*
X40418Y65060D01*
X40220Y64664D01*
X39923Y64268D01*
X39923Y64264D01*
X39920Y64263D01*
X39625Y63772D01*
X39234Y63479D01*
X38743Y63184D01*
X38350Y63086D01*
X38313Y63039D01*
X38314Y63039D01*
X38313Y63038D01*
X38313Y63011D01*
X38311Y63041D01*
X38273Y63086D01*
X38267Y63081D01*
X38262Y63087D01*
X37268Y63087D01*
X36881Y63184D01*
X36390Y63479D01*
X35994Y63775D01*
X35701Y64069D01*
X35408Y64557D01*
X35310Y64948D01*
X35211Y65542D01*
X35211Y66033D01*
X35309Y66520D01*
X35601Y67008D01*
X36291Y67697D01*
X36682Y67893D01*
X37176Y68091D01*
X37667Y68189D01*
X38147Y68189D01*
X38422Y68006D01*
X38611Y67533D01*
X38515Y66953D01*
X38332Y66587D01*
X37862Y66587D01*
X37856Y66583D01*
X37852Y66586D01*
X37352Y66486D01*
X37339Y66471D01*
X37327Y66473D01*
X36927Y66073D01*
X36924Y66053D01*
X36914Y66048D01*
X36814Y65548D01*
X36822Y65530D01*
X36816Y65520D01*
X37016Y65020D01*
X37032Y65010D01*
X37032Y64999D01*
X37432Y64699D01*
X37452Y64699D01*
X37456Y64694D01*
X37458Y64694D01*
X37462Y64689D01*
X37862Y64689D01*
X37868Y64694D01*
X37874Y64694D01*
X37876Y64695D01*
X37880Y64692D01*
X38380Y64892D01*
X38388Y64904D01*
X38397Y64903D01*
X38797Y65303D01*
X38798Y65308D01*
X38801Y65308D01*
X39101Y65708D01*
X39101Y65712D01*
X39104Y65712D01*
X39903Y67010D01*
X40201Y67408D01*
X40493Y67797D01*
X40980Y67992D01*
X40982Y67995D01*
X40984Y67994D01*
X41384Y68194D01*
X41394Y68214D01*
X41410Y68226D01*
X41409Y68227D01*
X41410Y68228D01*
X41414Y68244D01*
X41442Y68193D01*
X41448Y68196D01*
X41450Y68190D01*
X41840Y68093D01*
X42221Y67807D01*
X42413Y67329D01*
X42413Y63842D01*
X42314Y63248D01*
X42222Y62880D01*
X41757Y62787D01*
X41274Y62787D01*
G37*
%LPD*%
G36*
X75127Y50457D02*
X75127Y50457D01*
X75134Y50452D01*
X75634Y50552D01*
X75657Y50578D01*
X75670Y50582D01*
X75870Y51082D01*
X75866Y51095D01*
X75873Y51100D01*
X75873Y54080D01*
X76144Y54351D01*
X76598Y54351D01*
X76775Y54085D01*
X76775Y52100D01*
X76791Y52079D01*
X76789Y52065D01*
X77089Y51765D01*
X77103Y51763D01*
X77106Y51754D01*
X77606Y51554D01*
X77624Y51559D01*
X77632Y51551D01*
X78232Y51651D01*
X78247Y51667D01*
X78259Y51665D01*
X78559Y51965D01*
X78562Y51985D01*
X78572Y51990D01*
X78672Y52490D01*
X78669Y52497D01*
X78673Y52500D01*
X78673Y54085D01*
X78850Y54351D01*
X80824Y54351D01*
X80840Y54363D01*
X80851Y54359D01*
X81151Y54559D01*
X81159Y54580D01*
X81171Y54584D01*
X81371Y55184D01*
X81365Y55200D01*
X81373Y55208D01*
X81273Y55808D01*
X81257Y55823D01*
X81259Y55835D01*
X80959Y56135D01*
X80932Y56139D01*
X80924Y56149D01*
X74724Y56149D01*
X74711Y56140D01*
X74702Y56144D01*
X74302Y55944D01*
X74292Y55924D01*
X74280Y55922D01*
X74080Y55522D01*
X74083Y55506D01*
X74075Y55500D01*
X74075Y51400D01*
X74079Y51394D01*
X74076Y51390D01*
X74176Y50890D01*
X74191Y50877D01*
X74189Y50865D01*
X74489Y50565D01*
X74510Y50562D01*
X74516Y50551D01*
X75116Y50451D01*
X75127Y50457D01*
G37*
G36*
X153145Y28195D02*
X153145Y28195D01*
X153157Y28190D01*
X153657Y28490D01*
X153662Y28502D01*
X153671Y28502D01*
X153971Y28902D01*
X153971Y28908D01*
X153972Y28908D01*
X153971Y28908D01*
X153971Y28924D01*
X153981Y28932D01*
X153981Y29332D01*
X153968Y29350D01*
X153971Y29362D01*
X153675Y29756D01*
X153481Y30241D01*
X153481Y30727D01*
X153579Y31218D01*
X153775Y31708D01*
X154067Y32097D01*
X154458Y32390D01*
X154844Y32583D01*
X155328Y32583D01*
X155922Y32484D01*
X156310Y32387D01*
X156695Y32098D01*
X156989Y31609D01*
X157183Y31220D01*
X157183Y30241D01*
X156988Y29754D01*
X156690Y29257D01*
X156692Y29233D01*
X156690Y29230D01*
X156692Y29227D01*
X156685Y29216D01*
X156785Y28916D01*
X156799Y28907D01*
X156797Y28897D01*
X157197Y28497D01*
X157206Y28496D01*
X157207Y28490D01*
X157707Y28190D01*
X157742Y28194D01*
X157754Y28188D01*
X158154Y28388D01*
X158161Y28402D01*
X158171Y28402D01*
X158471Y28802D01*
X158471Y28805D01*
X158473Y28805D01*
X158673Y29105D01*
X158672Y29114D01*
X158679Y29116D01*
X158879Y29716D01*
X158877Y29721D01*
X158880Y29722D01*
X159080Y30722D01*
X159077Y30730D01*
X159075Y30733D01*
X159074Y30735D01*
X159080Y30742D01*
X158880Y31742D01*
X158873Y31748D01*
X158876Y31754D01*
X158677Y32152D01*
X158478Y32650D01*
X158470Y32655D01*
X158471Y32662D01*
X157871Y33462D01*
X157862Y33464D01*
X157862Y33471D01*
X157462Y33771D01*
X157455Y33771D01*
X157454Y33776D01*
X157054Y33976D01*
X157051Y33975D01*
X157050Y33978D01*
X156050Y34378D01*
X156037Y34374D01*
X156032Y34381D01*
X154532Y34381D01*
X154521Y34373D01*
X154514Y34378D01*
X153514Y33978D01*
X153509Y33970D01*
X153502Y33971D01*
X152702Y33371D01*
X152700Y33362D01*
X152693Y33362D01*
X152093Y32562D01*
X152093Y32552D01*
X152086Y32550D01*
X151886Y32050D01*
X151888Y32044D01*
X151884Y32042D01*
X151684Y31042D01*
X151687Y31035D01*
X151683Y31032D01*
X151683Y30132D01*
X151686Y30127D01*
X151683Y30124D01*
X151783Y29524D01*
X151791Y29517D01*
X151788Y29510D01*
X151988Y29110D01*
X151991Y29109D01*
X151990Y29107D01*
X152290Y28607D01*
X152298Y28603D01*
X152297Y28597D01*
X152597Y28297D01*
X152617Y28294D01*
X152622Y28284D01*
X153122Y28184D01*
X153145Y28195D01*
G37*
G36*
X137313Y89703D02*
X137313Y89703D01*
X137325Y89698D01*
X137825Y89998D01*
X137829Y90006D01*
X137835Y90005D01*
X138235Y90405D01*
X138236Y90416D01*
X138237Y90416D01*
X138236Y90417D01*
X138239Y90432D01*
X138249Y90440D01*
X138249Y90840D01*
X138236Y90858D01*
X138239Y90870D01*
X137943Y91264D01*
X137749Y91749D01*
X137749Y92731D01*
X137943Y93216D01*
X138235Y93605D01*
X138624Y93897D01*
X139109Y94091D01*
X140091Y94091D01*
X140576Y93897D01*
X140963Y93606D01*
X141257Y93117D01*
X141451Y92728D01*
X141451Y91749D01*
X141256Y91262D01*
X140958Y90765D01*
X140960Y90747D01*
X140951Y90740D01*
X140951Y90440D01*
X140967Y90419D01*
X140965Y90405D01*
X141365Y90005D01*
X141379Y90003D01*
X141382Y89994D01*
X141882Y89794D01*
X141901Y89800D01*
X141910Y89792D01*
X142410Y89892D01*
X142426Y89910D01*
X142439Y89910D01*
X142739Y90310D01*
X142739Y90313D01*
X142741Y90313D01*
X142941Y90613D01*
X142940Y90622D01*
X142947Y90624D01*
X143147Y91224D01*
X143145Y91229D01*
X143148Y91230D01*
X143348Y92230D01*
X143345Y92238D01*
X143343Y92241D01*
X143342Y92243D01*
X143348Y92250D01*
X143148Y93250D01*
X143141Y93256D01*
X143144Y93262D01*
X142945Y93660D01*
X142746Y94158D01*
X142738Y94163D01*
X142739Y94170D01*
X142139Y94970D01*
X142130Y94972D01*
X142130Y94979D01*
X141730Y95279D01*
X141726Y95279D01*
X141725Y95282D01*
X141225Y95582D01*
X141222Y95582D01*
X141222Y95584D01*
X140822Y95784D01*
X140813Y95782D01*
X140810Y95788D01*
X140310Y95888D01*
X140303Y95885D01*
X140300Y95889D01*
X138700Y95889D01*
X138687Y95880D01*
X138678Y95884D01*
X138280Y95685D01*
X137782Y95486D01*
X137777Y95478D01*
X137770Y95479D01*
X136970Y94879D01*
X136968Y94870D01*
X136961Y94870D01*
X136361Y94070D01*
X136361Y94060D01*
X136354Y94058D01*
X135954Y93058D01*
X135955Y93055D01*
X135953Y93053D01*
X135958Y93047D01*
X135958Y93045D01*
X135951Y93040D01*
X135951Y92546D01*
X135852Y92152D01*
X135858Y92138D01*
X135852Y92130D01*
X135951Y91632D01*
X136051Y91032D01*
X136059Y91025D01*
X136056Y91018D01*
X136256Y90618D01*
X136259Y90617D01*
X136258Y90615D01*
X136558Y90115D01*
X136566Y90111D01*
X136565Y90105D01*
X136865Y89805D01*
X136884Y89803D01*
X136888Y89792D01*
X137288Y89692D01*
X137313Y89703D01*
G37*
G36*
X112421Y88919D02*
X112421Y88919D01*
X112433Y88914D01*
X112933Y89214D01*
X112937Y89222D01*
X112943Y89221D01*
X113343Y89621D01*
X113344Y89632D01*
X113345Y89632D01*
X113344Y89633D01*
X113347Y89648D01*
X113357Y89656D01*
X113357Y90056D01*
X113344Y90074D01*
X113347Y90086D01*
X113051Y90480D01*
X112857Y90965D01*
X112857Y91947D01*
X113051Y92432D01*
X113343Y92821D01*
X113732Y93113D01*
X114217Y93307D01*
X115199Y93307D01*
X115684Y93113D01*
X116071Y92822D01*
X116365Y92333D01*
X116559Y91944D01*
X116559Y90965D01*
X116364Y90478D01*
X116066Y89981D01*
X116068Y89963D01*
X116059Y89956D01*
X116059Y89656D01*
X116075Y89635D01*
X116073Y89621D01*
X116473Y89221D01*
X116487Y89219D01*
X116490Y89210D01*
X116990Y89010D01*
X117009Y89016D01*
X117018Y89008D01*
X117518Y89108D01*
X117534Y89126D01*
X117547Y89126D01*
X117847Y89526D01*
X117847Y89529D01*
X117849Y89529D01*
X118049Y89829D01*
X118048Y89838D01*
X118055Y89840D01*
X118255Y90440D01*
X118253Y90445D01*
X118256Y90446D01*
X118456Y91446D01*
X118453Y91454D01*
X118451Y91457D01*
X118450Y91459D01*
X118456Y91466D01*
X118256Y92466D01*
X118249Y92472D01*
X118252Y92478D01*
X118053Y92876D01*
X117854Y93374D01*
X117846Y93379D01*
X117847Y93386D01*
X117247Y94186D01*
X117238Y94188D01*
X117238Y94195D01*
X116838Y94495D01*
X116834Y94495D01*
X116833Y94498D01*
X116333Y94798D01*
X116330Y94798D01*
X116330Y94800D01*
X115930Y95000D01*
X115921Y94998D01*
X115918Y95004D01*
X115418Y95104D01*
X115411Y95101D01*
X115408Y95105D01*
X113808Y95105D01*
X113795Y95096D01*
X113786Y95100D01*
X113388Y94901D01*
X112890Y94702D01*
X112885Y94694D01*
X112878Y94695D01*
X112078Y94095D01*
X112076Y94086D01*
X112069Y94086D01*
X111469Y93286D01*
X111469Y93276D01*
X111462Y93274D01*
X111062Y92274D01*
X111063Y92271D01*
X111061Y92269D01*
X111066Y92263D01*
X111066Y92261D01*
X111059Y92256D01*
X111059Y91762D01*
X110960Y91368D01*
X110966Y91354D01*
X110960Y91346D01*
X111059Y90848D01*
X111159Y90248D01*
X111167Y90241D01*
X111164Y90234D01*
X111364Y89834D01*
X111367Y89833D01*
X111366Y89831D01*
X111666Y89331D01*
X111674Y89327D01*
X111673Y89321D01*
X111973Y89021D01*
X111992Y89019D01*
X111996Y89008D01*
X112396Y88908D01*
X112421Y88919D01*
G37*
G36*
X136805Y29875D02*
X136805Y29875D01*
X136817Y29870D01*
X137317Y30170D01*
X137321Y30178D01*
X137327Y30177D01*
X137727Y30577D01*
X137728Y30588D01*
X137729Y30588D01*
X137728Y30589D01*
X137731Y30604D01*
X137741Y30612D01*
X137741Y31012D01*
X137728Y31030D01*
X137731Y31042D01*
X137435Y31436D01*
X137241Y31921D01*
X137241Y32903D01*
X137435Y33388D01*
X137727Y33777D01*
X138116Y34069D01*
X138601Y34263D01*
X139087Y34263D01*
X139582Y34164D01*
X140071Y34066D01*
X140455Y33778D01*
X140749Y33289D01*
X140943Y32900D01*
X140943Y31921D01*
X140748Y31434D01*
X140450Y30937D01*
X140452Y30919D01*
X140443Y30912D01*
X140443Y30612D01*
X140459Y30591D01*
X140457Y30577D01*
X140857Y30177D01*
X140866Y30176D01*
X140867Y30170D01*
X141367Y29870D01*
X141399Y29873D01*
X141410Y29866D01*
X141910Y30066D01*
X141920Y30082D01*
X141931Y30082D01*
X142231Y30482D01*
X142231Y30485D01*
X142233Y30485D01*
X142433Y30785D01*
X142432Y30794D01*
X142439Y30796D01*
X142639Y31396D01*
X142637Y31401D01*
X142640Y31402D01*
X142840Y32402D01*
X142837Y32410D01*
X142835Y32413D01*
X142834Y32415D01*
X142840Y32422D01*
X142640Y33422D01*
X142633Y33428D01*
X142636Y33434D01*
X142437Y33832D01*
X142238Y34330D01*
X142230Y34335D01*
X142231Y34342D01*
X141631Y35142D01*
X141622Y35144D01*
X141622Y35151D01*
X141222Y35451D01*
X141212Y35451D01*
X141210Y35458D01*
X140712Y35657D01*
X140314Y35856D01*
X140311Y35855D01*
X140310Y35858D01*
X139810Y36058D01*
X139797Y36054D01*
X139792Y36061D01*
X138692Y36061D01*
X138686Y36057D01*
X138682Y36060D01*
X138182Y35960D01*
X138181Y35959D01*
X138180Y35960D01*
X137780Y35860D01*
X137777Y35856D01*
X137774Y35858D01*
X137274Y35658D01*
X137269Y35650D01*
X137262Y35651D01*
X136462Y35051D01*
X136460Y35042D01*
X136453Y35042D01*
X135853Y34242D01*
X135853Y34232D01*
X135846Y34230D01*
X135446Y33230D01*
X135447Y33227D01*
X135445Y33225D01*
X135450Y33219D01*
X135450Y33217D01*
X135443Y33212D01*
X135443Y32717D01*
X135344Y32222D01*
X135350Y32208D01*
X135344Y32200D01*
X135444Y31802D01*
X135543Y31204D01*
X135549Y31198D01*
X135546Y31194D01*
X135746Y30694D01*
X135754Y30689D01*
X135753Y30682D01*
X136053Y30282D01*
X136058Y30281D01*
X136057Y30277D01*
X136357Y29977D01*
X136376Y29975D01*
X136380Y29964D01*
X136780Y29864D01*
X136805Y29875D01*
G37*
G36*
X98705Y36955D02*
X98705Y36955D01*
X98717Y36950D01*
X99217Y37250D01*
X99221Y37258D01*
X99227Y37257D01*
X99627Y37657D01*
X99628Y37668D01*
X99629Y37668D01*
X99628Y37669D01*
X99631Y37684D01*
X99641Y37692D01*
X99641Y38092D01*
X99628Y38110D01*
X99631Y38122D01*
X99335Y38516D01*
X99141Y39001D01*
X99141Y39983D01*
X99335Y40468D01*
X99627Y40857D01*
X100016Y41149D01*
X100501Y41343D01*
X101483Y41343D01*
X101968Y41149D01*
X102355Y40858D01*
X102649Y40369D01*
X102843Y39980D01*
X102843Y39001D01*
X102648Y38514D01*
X102350Y38017D01*
X102352Y37999D01*
X102343Y37992D01*
X102343Y37692D01*
X102359Y37671D01*
X102357Y37657D01*
X102757Y37257D01*
X102771Y37255D01*
X102774Y37246D01*
X103274Y37046D01*
X103293Y37052D01*
X103302Y37044D01*
X103802Y37144D01*
X103818Y37162D01*
X103831Y37162D01*
X104131Y37562D01*
X104131Y37565D01*
X104133Y37565D01*
X104333Y37865D01*
X104332Y37874D01*
X104339Y37876D01*
X104539Y38476D01*
X104537Y38481D01*
X104540Y38482D01*
X104740Y39482D01*
X104737Y39490D01*
X104735Y39493D01*
X104734Y39495D01*
X104740Y39502D01*
X104540Y40502D01*
X104533Y40508D01*
X104536Y40514D01*
X104337Y40912D01*
X104138Y41410D01*
X104130Y41415D01*
X104131Y41422D01*
X103531Y42222D01*
X103522Y42224D01*
X103522Y42231D01*
X103122Y42531D01*
X103118Y42531D01*
X103117Y42534D01*
X102617Y42834D01*
X102607Y42833D01*
X102604Y42840D01*
X102207Y42939D01*
X101710Y43138D01*
X101697Y43134D01*
X101692Y43141D01*
X100092Y43141D01*
X100079Y43132D01*
X100070Y43136D01*
X99672Y42937D01*
X99174Y42738D01*
X99169Y42730D01*
X99162Y42731D01*
X98362Y42131D01*
X98360Y42122D01*
X98353Y42122D01*
X97753Y41322D01*
X97753Y41312D01*
X97746Y41310D01*
X97346Y40310D01*
X97347Y40307D01*
X97345Y40305D01*
X97350Y40299D01*
X97350Y40297D01*
X97343Y40292D01*
X97343Y39798D01*
X97244Y39404D01*
X97250Y39390D01*
X97244Y39382D01*
X97343Y38884D01*
X97443Y38284D01*
X97451Y38277D01*
X97448Y38270D01*
X97648Y37870D01*
X97651Y37869D01*
X97650Y37867D01*
X97950Y37367D01*
X97958Y37363D01*
X97957Y37357D01*
X98257Y37057D01*
X98276Y37055D01*
X98280Y37044D01*
X98680Y36944D01*
X98705Y36955D01*
G37*
G36*
X87118Y31088D02*
X87118Y31088D01*
X87124Y31095D01*
X87130Y31092D01*
X92128Y33591D01*
X92626Y33790D01*
X92636Y33806D01*
X92647Y33806D01*
X92947Y34206D01*
X92947Y34218D01*
X92956Y34224D01*
X92955Y34225D01*
X92956Y34226D01*
X93056Y34726D01*
X93048Y34744D01*
X93054Y34754D01*
X92854Y35254D01*
X92838Y35264D01*
X92838Y35275D01*
X92438Y35575D01*
X92430Y35575D01*
X92429Y35581D01*
X86930Y38180D01*
X86530Y38380D01*
X86499Y38374D01*
X86493Y38374D01*
X86491Y38373D01*
X86489Y38372D01*
X86478Y38375D01*
X86078Y38075D01*
X86075Y38062D01*
X86066Y38061D01*
X85766Y37561D01*
X85767Y37554D01*
X85761Y37550D01*
X85767Y37542D01*
X85759Y37536D01*
X85759Y37036D01*
X85775Y37015D01*
X85773Y37001D01*
X86073Y36701D01*
X86080Y36700D01*
X86081Y36695D01*
X86381Y36495D01*
X86387Y36495D01*
X86388Y36491D01*
X90380Y34695D01*
X90424Y34650D01*
X85887Y32480D01*
X85876Y32460D01*
X85864Y32458D01*
X85664Y32058D01*
X85668Y32036D01*
X85667Y32034D01*
X85669Y32031D01*
X85669Y32029D01*
X85662Y32018D01*
X85862Y31518D01*
X85870Y31513D01*
X85869Y31506D01*
X86169Y31106D01*
X86191Y31100D01*
X86196Y31088D01*
X86596Y30988D01*
X86610Y30994D01*
X86618Y30988D01*
X87118Y31088D01*
G37*
G36*
X78930Y57755D02*
X78930Y57755D01*
X78934Y57752D01*
X79434Y57852D01*
X79438Y57857D01*
X79442Y57854D01*
X79942Y58054D01*
X79947Y58062D01*
X79954Y58061D01*
X80354Y58361D01*
X80355Y58366D01*
X80359Y58365D01*
X80759Y58765D01*
X80760Y58777D01*
X80768Y58778D01*
X81168Y59578D01*
X81166Y59587D01*
X81172Y59590D01*
X81272Y60090D01*
X81269Y60097D01*
X81273Y60100D01*
X81273Y61100D01*
X81265Y61111D01*
X81270Y61118D01*
X81070Y61618D01*
X81062Y61623D01*
X81063Y61630D01*
X80463Y62430D01*
X80454Y62432D01*
X80454Y62439D01*
X80054Y62739D01*
X80050Y62739D01*
X80049Y62742D01*
X79549Y63042D01*
X79537Y63041D01*
X79534Y63048D01*
X79034Y63148D01*
X79027Y63145D01*
X79024Y63149D01*
X77424Y63149D01*
X77403Y63133D01*
X77389Y63135D01*
X76689Y62435D01*
X76688Y62430D01*
X76685Y62430D01*
X76385Y62030D01*
X76385Y62026D01*
X76382Y62025D01*
X76082Y61525D01*
X76083Y61513D01*
X76076Y61510D01*
X75876Y60510D01*
X75882Y60497D01*
X75876Y60490D01*
X76076Y59490D01*
X76083Y59484D01*
X76080Y59478D01*
X76280Y59078D01*
X76286Y59075D01*
X76285Y59070D01*
X76585Y58670D01*
X76590Y58669D01*
X76589Y58665D01*
X76989Y58265D01*
X76994Y58264D01*
X76994Y58261D01*
X77394Y57961D01*
X77408Y57961D01*
X77412Y57952D01*
X77812Y57852D01*
X77815Y57853D01*
X77816Y57851D01*
X78416Y57751D01*
X78421Y57754D01*
X78424Y57751D01*
X78924Y57751D01*
X78930Y57755D01*
G37*
%LPC*%
G36*
X36182Y55087D02*
X36182Y55087D01*
X35799Y55470D01*
X35504Y55864D01*
X35309Y56253D01*
X35211Y56846D01*
X35210Y56847D01*
X35210Y56848D01*
X35112Y57338D01*
X35210Y57828D01*
X35208Y57833D01*
X35209Y57834D01*
X35208Y57836D01*
X35211Y57838D01*
X35211Y58229D01*
X35408Y58720D01*
X35606Y59216D01*
X35903Y59710D01*
X36199Y60106D01*
X36494Y60401D01*
X36886Y60695D01*
X37376Y60891D01*
X37872Y60990D01*
X38367Y61089D01*
X39353Y61089D01*
X39844Y60892D01*
X39850Y60894D01*
X39852Y60890D01*
X40341Y60792D01*
X40732Y60499D01*
X41130Y60201D01*
X41525Y59806D01*
X41820Y59412D01*
X42017Y59018D01*
X42215Y58524D01*
X42314Y58028D01*
X42412Y57538D01*
X42314Y57048D01*
X42214Y56551D01*
X42017Y55960D01*
X41822Y55667D01*
X41530Y55277D01*
X41164Y55094D01*
X40690Y55378D01*
X40211Y55762D01*
X40211Y56024D01*
X40504Y56513D01*
X40503Y56521D01*
X40509Y56522D01*
X40609Y56822D01*
X40607Y56827D01*
X40610Y56828D01*
X40710Y57328D01*
X40707Y57335D01*
X40711Y57338D01*
X40711Y57838D01*
X40703Y57849D01*
X40708Y57856D01*
X40308Y58856D01*
X40292Y58866D01*
X40292Y58877D01*
X39892Y59177D01*
X39882Y59177D01*
X39880Y59184D01*
X39380Y59384D01*
X39374Y59382D01*
X39372Y59386D01*
X38872Y59486D01*
X38865Y59483D01*
X38862Y59487D01*
X38362Y59487D01*
X38351Y59479D01*
X38344Y59484D01*
X37844Y59284D01*
X37842Y59281D01*
X37840Y59282D01*
X37440Y59082D01*
X37431Y59065D01*
X37420Y59063D01*
X37120Y58563D01*
X37120Y58560D01*
X37118Y58560D01*
X36918Y58160D01*
X36918Y58157D01*
X36917Y58157D01*
X36919Y58154D01*
X36920Y58151D01*
X36914Y58148D01*
X36814Y57648D01*
X36817Y57641D01*
X36813Y57638D01*
X36813Y57138D01*
X36821Y57127D01*
X36816Y57120D01*
X37216Y56121D01*
X37307Y55847D01*
X37026Y55473D01*
X36545Y55087D01*
X36182Y55087D01*
G37*
%LPD*%
G36*
X86030Y85112D02*
X86030Y85112D01*
X86038Y85114D01*
X86238Y85614D01*
X86234Y85627D01*
X86241Y85632D01*
X86241Y87127D01*
X86332Y87583D01*
X91392Y87583D01*
X91405Y87592D01*
X91414Y87588D01*
X91814Y87788D01*
X91825Y87810D01*
X91838Y87814D01*
X92038Y88314D01*
X92037Y88318D01*
X92039Y88320D01*
X92034Y88326D01*
X92032Y88333D01*
X92040Y88342D01*
X91940Y88842D01*
X91929Y88852D01*
X91931Y88862D01*
X91631Y89262D01*
X91609Y89268D01*
X91604Y89280D01*
X91204Y89380D01*
X91196Y89376D01*
X91192Y89381D01*
X86507Y89381D01*
X86241Y89558D01*
X86241Y91532D01*
X86225Y91553D01*
X86227Y91567D01*
X85927Y91867D01*
X85906Y91870D01*
X85900Y91881D01*
X85300Y91981D01*
X85295Y91978D01*
X85285Y91978D01*
X85278Y91972D01*
X85270Y91976D01*
X84870Y91776D01*
X84861Y91757D01*
X84844Y91745D01*
X84846Y91743D01*
X84844Y91742D01*
X84744Y91242D01*
X84747Y91235D01*
X84743Y91232D01*
X84743Y85532D01*
X84752Y85519D01*
X84748Y85510D01*
X84948Y85110D01*
X84985Y85092D01*
X84992Y85083D01*
X85992Y85083D01*
X86030Y85112D01*
G37*
G36*
X65682Y86692D02*
X65682Y86692D01*
X65703Y86715D01*
X65716Y86718D01*
X65916Y87118D01*
X65913Y87134D01*
X65921Y87140D01*
X65921Y88735D01*
X66012Y89191D01*
X71072Y89191D01*
X71085Y89200D01*
X71094Y89196D01*
X71494Y89396D01*
X71505Y89418D01*
X71518Y89422D01*
X71718Y89922D01*
X71717Y89925D01*
X71719Y89926D01*
X71715Y89932D01*
X71712Y89941D01*
X71720Y89950D01*
X71620Y90450D01*
X71609Y90460D01*
X71611Y90470D01*
X71311Y90870D01*
X71280Y90879D01*
X71272Y90889D01*
X66187Y90889D01*
X65921Y91066D01*
X65921Y93140D01*
X65905Y93161D01*
X65907Y93175D01*
X65607Y93475D01*
X65581Y93478D01*
X65576Y93486D01*
X65575Y93486D01*
X65572Y93489D01*
X64972Y93489D01*
X64967Y93486D01*
X64965Y93486D01*
X64958Y93480D01*
X64950Y93484D01*
X64550Y93284D01*
X64541Y93265D01*
X64524Y93253D01*
X64526Y93251D01*
X64524Y93250D01*
X64424Y92750D01*
X64427Y92743D01*
X64423Y92740D01*
X64423Y87140D01*
X64432Y87127D01*
X64428Y87118D01*
X64628Y86718D01*
X64656Y86704D01*
X64662Y86692D01*
X65162Y86592D01*
X65175Y86598D01*
X65182Y86592D01*
X65682Y86692D01*
G37*
%LPC*%
G36*
X129349Y45571D02*
X129349Y45571D01*
X128869Y45956D01*
X128684Y46232D01*
X128779Y46706D01*
X131474Y52196D01*
X131760Y52577D01*
X132227Y52671D01*
X132704Y52480D01*
X132991Y52193D01*
X134848Y48343D01*
X132864Y48568D01*
X132677Y48942D01*
X132278Y49940D01*
X132267Y49947D01*
X132265Y49958D01*
X132252Y49956D01*
X132227Y49971D01*
X132213Y49949D01*
X132188Y49944D01*
X132088Y49744D01*
X132088Y49742D01*
X132087Y49742D01*
X131687Y48842D01*
X131693Y48817D01*
X131685Y48806D01*
X131785Y48506D01*
X131829Y48476D01*
X131832Y48473D01*
X132800Y48473D01*
X133357Y47171D01*
X130932Y47171D01*
X130899Y47146D01*
X130888Y47144D01*
X130195Y45759D01*
X129820Y45571D01*
X129349Y45571D01*
G37*
%LPD*%
G36*
X142303Y23073D02*
X142303Y23073D01*
X142314Y23068D01*
X142714Y23268D01*
X142724Y23289D01*
X142733Y23296D01*
X142732Y23298D01*
X142740Y23302D01*
X142840Y23802D01*
X142837Y23809D01*
X142841Y23812D01*
X142841Y27412D01*
X142834Y27421D01*
X142839Y27428D01*
X142639Y28028D01*
X142620Y28040D01*
X142619Y28053D01*
X142319Y28253D01*
X142299Y28252D01*
X142292Y28261D01*
X136192Y28261D01*
X136185Y28256D01*
X136180Y28260D01*
X135780Y28160D01*
X135761Y28137D01*
X135748Y28134D01*
X135548Y27734D01*
X135551Y27718D01*
X135543Y27712D01*
X135543Y27012D01*
X135552Y26999D01*
X135548Y26990D01*
X135748Y26590D01*
X135776Y26576D01*
X135782Y26564D01*
X136282Y26464D01*
X136289Y26467D01*
X136292Y26463D01*
X141243Y26463D01*
X141243Y24012D01*
X141246Y24007D01*
X141243Y24004D01*
X141343Y23404D01*
X141364Y23385D01*
X141365Y23371D01*
X141665Y23171D01*
X141679Y23172D01*
X141684Y23163D01*
X142284Y23063D01*
X142303Y23073D01*
G37*
G36*
X91098Y80087D02*
X91098Y80087D01*
X91102Y80084D01*
X91602Y80184D01*
X91611Y80194D01*
X91619Y80191D01*
X91919Y80391D01*
X91925Y80409D01*
X91933Y80414D01*
X91930Y80418D01*
X91941Y80424D01*
X92041Y81024D01*
X92033Y81039D01*
X92039Y81048D01*
X91839Y81648D01*
X91820Y81660D01*
X91819Y81673D01*
X91519Y81873D01*
X91506Y81872D01*
X91502Y81880D01*
X91002Y81980D01*
X90995Y81977D01*
X90992Y81981D01*
X88004Y81981D01*
X87855Y82056D01*
X88038Y82514D01*
X88034Y82527D01*
X88041Y82532D01*
X88041Y82932D01*
X88025Y82953D01*
X88027Y82967D01*
X87627Y83367D01*
X87615Y83368D01*
X87614Y83376D01*
X87214Y83576D01*
X87200Y83573D01*
X87196Y83580D01*
X87185Y83580D01*
X87183Y83578D01*
X87180Y83580D01*
X86780Y83480D01*
X86768Y83465D01*
X86757Y83467D01*
X86357Y83067D01*
X86357Y83065D01*
X86356Y83065D01*
X85359Y81969D01*
X84962Y81671D01*
X84957Y81653D01*
X84946Y81650D01*
X84746Y81150D01*
X84750Y81137D01*
X84743Y81132D01*
X84743Y80632D01*
X84752Y80619D01*
X84748Y80610D01*
X84948Y80210D01*
X84976Y80196D01*
X84982Y80184D01*
X85482Y80084D01*
X85489Y80087D01*
X85492Y80083D01*
X91092Y80083D01*
X91098Y80087D01*
G37*
G36*
X150660Y20204D02*
X150660Y20204D01*
X150673Y20205D01*
X150873Y20505D01*
X150873Y20511D01*
X150876Y20514D01*
X150872Y20520D01*
X150872Y20525D01*
X150881Y20532D01*
X150881Y34632D01*
X150845Y34679D01*
X150838Y34674D01*
X150832Y34681D01*
X149832Y34681D01*
X149785Y34645D01*
X149790Y34638D01*
X149783Y34632D01*
X149783Y20532D01*
X149799Y20511D01*
X149797Y20497D01*
X150097Y20197D01*
X150124Y20194D01*
X150132Y20183D01*
X150632Y20183D01*
X150660Y20204D01*
G37*
%LPC*%
G36*
X133843Y63622D02*
X133843Y63622D01*
X133807Y63669D01*
X133800Y63664D01*
X133794Y63671D01*
X132294Y63671D01*
X132285Y63665D01*
X132276Y63658D01*
X132264Y63661D01*
X131864Y63361D01*
X131859Y63343D01*
X131847Y63333D01*
X131851Y63327D01*
X131845Y63322D01*
X131845Y62851D01*
X130509Y62088D01*
X130340Y62342D01*
X130242Y62732D01*
X130144Y63321D01*
X130241Y63806D01*
X130436Y64196D01*
X130731Y64590D01*
X131123Y64981D01*
X131510Y65175D01*
X131999Y65273D01*
X135174Y65273D01*
X135450Y64997D01*
X135545Y64616D01*
X135545Y60121D01*
X133843Y60073D01*
X133843Y63622D01*
G37*
%LPD*%
%LPC*%
G36*
X146621Y70871D02*
X146621Y70871D01*
X146149Y70966D01*
X145960Y71344D01*
X145932Y71358D01*
X145926Y71370D01*
X145910Y71373D01*
X145961Y71403D01*
X145958Y71409D01*
X145964Y71412D01*
X146062Y71903D01*
X146245Y72177D01*
X146820Y72273D01*
X148816Y72273D01*
X148834Y72287D01*
X148847Y72284D01*
X149347Y72684D01*
X149351Y72699D01*
X149361Y72707D01*
X149355Y72715D01*
X149365Y72722D01*
X149365Y77316D01*
X149460Y77693D01*
X149832Y77973D01*
X150404Y77973D01*
X150794Y77778D01*
X150852Y77789D01*
X150850Y77802D01*
X150862Y77806D01*
X150871Y77830D01*
X150875Y77819D01*
X150868Y77810D01*
X150967Y77416D01*
X150967Y71337D01*
X150784Y71063D01*
X150208Y70871D01*
X146621Y70871D01*
G37*
%LPD*%
%LPC*%
G36*
X131999Y58171D02*
X131999Y58171D01*
X131510Y58269D01*
X131120Y58464D01*
X130726Y58759D01*
X130336Y59150D01*
X130141Y59637D01*
X130042Y60032D01*
X129944Y60621D01*
X130041Y61106D01*
X130236Y61496D01*
X130528Y61885D01*
X131894Y62763D01*
X132167Y62581D01*
X132181Y62582D01*
X132181Y62581D01*
X132182Y62581D01*
X132186Y62573D01*
X132776Y62475D01*
X133045Y62296D01*
X133045Y61734D01*
X132861Y61366D01*
X131884Y61170D01*
X131863Y61147D01*
X131850Y61144D01*
X131650Y60744D01*
X131653Y60728D01*
X131645Y60722D01*
X131645Y60322D01*
X131658Y60304D01*
X131655Y60292D01*
X131955Y59892D01*
X131986Y59884D01*
X131994Y59873D01*
X133494Y59873D01*
X133503Y59880D01*
X133510Y59875D01*
X133803Y59973D01*
X135545Y60023D01*
X135545Y58928D01*
X135450Y58547D01*
X135170Y58268D01*
X134590Y58171D01*
X131999Y58171D01*
G37*
%LPD*%
G36*
X71079Y102496D02*
X71079Y102496D01*
X71084Y102492D01*
X71484Y102592D01*
X71506Y102619D01*
X71513Y102625D01*
X71512Y102627D01*
X71520Y102630D01*
X71620Y103130D01*
X71617Y103137D01*
X71621Y103140D01*
X71621Y103740D01*
X71612Y103753D01*
X71616Y103762D01*
X71416Y104162D01*
X71389Y104175D01*
X71384Y104188D01*
X70984Y104288D01*
X70976Y104284D01*
X70972Y104289D01*
X64872Y104289D01*
X64851Y104273D01*
X64837Y104275D01*
X64537Y103975D01*
X64534Y103954D01*
X64523Y103948D01*
X64423Y103348D01*
X64427Y103342D01*
X64427Y103341D01*
X64428Y103340D01*
X64429Y103338D01*
X64423Y103332D01*
X64523Y102732D01*
X64544Y102713D01*
X64545Y102699D01*
X64845Y102499D01*
X64865Y102500D01*
X64872Y102491D01*
X71072Y102491D01*
X71079Y102496D01*
G37*
G36*
X104099Y96548D02*
X104099Y96548D01*
X104104Y96544D01*
X104504Y96644D01*
X104526Y96671D01*
X104533Y96677D01*
X104532Y96679D01*
X104540Y96682D01*
X104640Y97182D01*
X104637Y97189D01*
X104641Y97192D01*
X104641Y97792D01*
X104632Y97805D01*
X104636Y97814D01*
X104436Y98214D01*
X104409Y98227D01*
X104404Y98240D01*
X104004Y98340D01*
X103996Y98336D01*
X103992Y98341D01*
X97892Y98341D01*
X97871Y98325D01*
X97857Y98327D01*
X97557Y98027D01*
X97554Y98006D01*
X97543Y98000D01*
X97443Y97400D01*
X97447Y97394D01*
X97447Y97393D01*
X97448Y97392D01*
X97449Y97390D01*
X97443Y97384D01*
X97543Y96784D01*
X97564Y96765D01*
X97565Y96751D01*
X97865Y96551D01*
X97885Y96552D01*
X97892Y96543D01*
X104092Y96543D01*
X104099Y96548D01*
G37*
G36*
X91405Y100892D02*
X91405Y100892D01*
X91414Y100888D01*
X91814Y101088D01*
X91824Y101109D01*
X91833Y101116D01*
X91832Y101117D01*
X91840Y101120D01*
X91940Y101520D01*
X91936Y101528D01*
X91941Y101532D01*
X91941Y102232D01*
X91929Y102248D01*
X91933Y102259D01*
X91733Y102559D01*
X91709Y102568D01*
X91704Y102580D01*
X91304Y102680D01*
X91296Y102676D01*
X91292Y102681D01*
X85192Y102681D01*
X85171Y102665D01*
X85157Y102667D01*
X84857Y102367D01*
X84854Y102346D01*
X84843Y102340D01*
X84743Y101740D01*
X84749Y101729D01*
X84744Y101722D01*
X84844Y101222D01*
X84859Y101209D01*
X84857Y101197D01*
X85157Y100897D01*
X85184Y100894D01*
X85192Y100883D01*
X91392Y100883D01*
X91405Y100892D01*
G37*
G36*
X168113Y87392D02*
X168113Y87392D01*
X168122Y87388D01*
X168522Y87588D01*
X168532Y87609D01*
X168541Y87616D01*
X168540Y87617D01*
X168548Y87620D01*
X168648Y88020D01*
X168644Y88028D01*
X168649Y88032D01*
X168649Y88732D01*
X168637Y88748D01*
X168641Y88759D01*
X168441Y89059D01*
X168417Y89068D01*
X168412Y89080D01*
X168012Y89180D01*
X168004Y89176D01*
X168000Y89181D01*
X161900Y89181D01*
X161879Y89165D01*
X161865Y89167D01*
X161565Y88867D01*
X161562Y88846D01*
X161551Y88840D01*
X161451Y88240D01*
X161457Y88229D01*
X161452Y88222D01*
X161552Y87722D01*
X161567Y87709D01*
X161565Y87697D01*
X161865Y87397D01*
X161892Y87394D01*
X161900Y87383D01*
X168100Y87383D01*
X168113Y87392D01*
G37*
%LPC*%
G36*
X140429Y60463D02*
X140429Y60463D01*
X140238Y60844D01*
X140218Y60854D01*
X140216Y60866D01*
X139845Y61051D01*
X139939Y62460D01*
X140282Y62374D01*
X140293Y62379D01*
X140303Y62374D01*
X140309Y62386D01*
X140337Y62398D01*
X140329Y62415D01*
X140336Y62420D01*
X140330Y62428D01*
X140338Y62444D01*
X140138Y62844D01*
X140128Y62849D01*
X140129Y62857D01*
X139729Y63257D01*
X139724Y63258D01*
X139724Y63261D01*
X139324Y63561D01*
X139308Y63561D01*
X139304Y63570D01*
X138804Y63670D01*
X138800Y63669D01*
X138799Y63671D01*
X137820Y63769D01*
X137541Y64142D01*
X137444Y64720D01*
X137538Y65093D01*
X137910Y65373D01*
X138489Y65373D01*
X139484Y65174D01*
X139973Y65076D01*
X140364Y64783D01*
X141159Y64187D01*
X141452Y63796D01*
X141649Y63402D01*
X141848Y62904D01*
X142047Y62408D01*
X142145Y61917D01*
X142145Y60331D01*
X142000Y59969D01*
X140429Y60463D01*
G37*
%LPD*%
%LPC*%
G36*
X140467Y47763D02*
X140467Y47763D01*
X140276Y48144D01*
X140256Y48154D01*
X140254Y48166D01*
X139883Y48351D01*
X139977Y49760D01*
X140320Y49674D01*
X140331Y49679D01*
X140341Y49674D01*
X140347Y49686D01*
X140375Y49698D01*
X140367Y49715D01*
X140374Y49720D01*
X140368Y49728D01*
X140376Y49744D01*
X140176Y50144D01*
X140166Y50149D01*
X140167Y50157D01*
X139767Y50557D01*
X139762Y50558D01*
X139762Y50561D01*
X139362Y50861D01*
X139345Y50861D01*
X139340Y50871D01*
X138740Y50971D01*
X138242Y51070D01*
X138235Y51067D01*
X138232Y51071D01*
X137762Y51071D01*
X137579Y51437D01*
X137482Y52020D01*
X137576Y52393D01*
X137948Y52673D01*
X138527Y52673D01*
X139522Y52474D01*
X140011Y52376D01*
X140402Y52083D01*
X140800Y51785D01*
X141095Y51490D01*
X141393Y51092D01*
X141689Y50698D01*
X141885Y50208D01*
X141984Y49712D01*
X142183Y48717D01*
X142183Y48127D01*
X142013Y47277D01*
X140467Y47763D01*
G37*
%LPD*%
%LPC*%
G36*
X35592Y69687D02*
X35592Y69687D01*
X35409Y70053D01*
X35312Y70637D01*
X35406Y71105D01*
X35774Y71289D01*
X41850Y71289D01*
X42218Y71105D01*
X42313Y70633D01*
X42313Y70053D01*
X42132Y69782D01*
X41657Y69687D01*
X35592Y69687D01*
G37*
%LPD*%
%LPC*%
G36*
X139304Y58270D02*
X139304Y58270D01*
X138808Y58369D01*
X138318Y58565D01*
X137929Y58857D01*
X137636Y59248D01*
X137441Y59638D01*
X137343Y60127D01*
X137343Y60716D01*
X137441Y61107D01*
X137636Y61594D01*
X138023Y61981D01*
X138414Y62177D01*
X138908Y62375D01*
X139399Y62473D01*
X139841Y62473D01*
X139747Y61063D01*
X139284Y60970D01*
X139268Y60952D01*
X139255Y60952D01*
X138955Y60552D01*
X138955Y60531D01*
X138948Y60526D01*
X138953Y60520D01*
X138946Y60512D01*
X139046Y60012D01*
X139066Y59995D01*
X139067Y59981D01*
X139367Y59781D01*
X139380Y59782D01*
X139384Y59774D01*
X139884Y59674D01*
X139888Y59676D01*
X139900Y59676D01*
X139908Y59682D01*
X139916Y59678D01*
X140316Y59878D01*
X140325Y59897D01*
X140341Y59908D01*
X140340Y59909D01*
X140342Y59910D01*
X140429Y60261D01*
X141942Y59828D01*
X141750Y59444D01*
X141552Y59048D01*
X141262Y58661D01*
X140874Y58467D01*
X140381Y58270D01*
X139795Y58172D01*
X139304Y58270D01*
G37*
%LPD*%
%LPC*%
G36*
X139242Y45570D02*
X139242Y45570D01*
X138847Y45669D01*
X138356Y45865D01*
X137967Y46157D01*
X137671Y46552D01*
X137378Y46943D01*
X137281Y47427D01*
X137281Y48010D01*
X137476Y48400D01*
X137475Y48403D01*
X137478Y48404D01*
X137674Y48894D01*
X138061Y49281D01*
X138452Y49477D01*
X138946Y49675D01*
X139437Y49773D01*
X139876Y49773D01*
X139688Y48363D01*
X139222Y48270D01*
X139206Y48252D01*
X139193Y48252D01*
X138893Y47852D01*
X138893Y47831D01*
X138886Y47826D01*
X138891Y47820D01*
X138884Y47812D01*
X138984Y47312D01*
X139007Y47291D01*
X139010Y47278D01*
X139410Y47078D01*
X139418Y47079D01*
X139420Y47074D01*
X139820Y46974D01*
X139823Y46976D01*
X139839Y46976D01*
X139845Y46980D01*
X139850Y46976D01*
X140350Y47176D01*
X140362Y47196D01*
X140379Y47208D01*
X140378Y47209D01*
X140380Y47210D01*
X140467Y47561D01*
X141980Y47128D01*
X141591Y46351D01*
X141203Y45963D01*
X140812Y45767D01*
X140318Y45569D01*
X139831Y45472D01*
X139242Y45570D01*
G37*
%LPD*%
%LPC*%
G36*
X114513Y98405D02*
X114513Y98405D01*
X114024Y98503D01*
X113634Y98698D01*
X113245Y98990D01*
X112954Y99475D01*
X112857Y99862D01*
X112857Y100351D01*
X112954Y100835D01*
X113245Y101224D01*
X113637Y101615D01*
X114024Y101809D01*
X114513Y101907D01*
X115508Y101907D01*
X115535Y101927D01*
X115549Y101928D01*
X115569Y101957D01*
X115572Y101923D01*
X115573Y101923D01*
X115573Y101921D01*
X115671Y101824D01*
X115969Y101426D01*
X115974Y101425D01*
X115973Y101421D01*
X116366Y101028D01*
X116559Y100547D01*
X116559Y100062D01*
X116461Y99671D01*
X116265Y99180D01*
X115976Y98795D01*
X115588Y98601D01*
X115099Y98405D01*
X114513Y98405D01*
G37*
%LPD*%
%LPC*%
G36*
X190205Y25585D02*
X190205Y25585D01*
X189716Y25683D01*
X189326Y25878D01*
X188937Y26170D01*
X188646Y26655D01*
X188549Y27042D01*
X188549Y27531D01*
X188646Y28015D01*
X188937Y28404D01*
X189329Y28795D01*
X189716Y28989D01*
X190205Y29087D01*
X191200Y29087D01*
X191227Y29107D01*
X191241Y29108D01*
X191261Y29137D01*
X191264Y29103D01*
X191265Y29103D01*
X191265Y29101D01*
X191363Y29004D01*
X191661Y28606D01*
X191666Y28605D01*
X191665Y28601D01*
X192058Y28208D01*
X192251Y27727D01*
X192251Y27242D01*
X192153Y26851D01*
X191957Y26360D01*
X191668Y25975D01*
X191280Y25781D01*
X190791Y25585D01*
X190205Y25585D01*
G37*
%LPD*%
%LPC*%
G36*
X190205Y83633D02*
X190205Y83633D01*
X189716Y83731D01*
X189329Y83925D01*
X188937Y84316D01*
X188646Y84705D01*
X188549Y85189D01*
X188549Y85678D01*
X188646Y86065D01*
X188937Y86550D01*
X189326Y86842D01*
X189716Y87037D01*
X190205Y87135D01*
X191200Y87135D01*
X191229Y87156D01*
X191241Y87157D01*
X191260Y87187D01*
X191264Y87151D01*
X191265Y87151D01*
X191265Y87149D01*
X191363Y87052D01*
X191661Y86654D01*
X191666Y86653D01*
X191665Y86649D01*
X192058Y86256D01*
X192251Y85775D01*
X192251Y85389D01*
X192153Y84898D01*
X191957Y84408D01*
X191668Y84023D01*
X191280Y83829D01*
X190791Y83633D01*
X190205Y83633D01*
G37*
%LPD*%
%LPC*%
G36*
X190014Y92131D02*
X190014Y92131D01*
X189524Y92327D01*
X189135Y92619D01*
X188846Y93005D01*
X188748Y93494D01*
X188649Y93989D01*
X188649Y94464D01*
X188920Y94735D01*
X191894Y94735D01*
X192251Y94646D01*
X192251Y93184D01*
X192280Y93146D01*
X192282Y93138D01*
X192307Y93128D01*
X192276Y93117D01*
X192265Y93119D01*
X191768Y92621D01*
X191374Y92326D01*
X190984Y92131D01*
X190500Y92034D01*
X190014Y92131D01*
G37*
%LPD*%
%LPC*%
G36*
X190014Y34083D02*
X190014Y34083D01*
X189524Y34279D01*
X189135Y34571D01*
X188846Y34957D01*
X188748Y35446D01*
X188649Y35941D01*
X188649Y36416D01*
X188920Y36687D01*
X191894Y36687D01*
X192251Y36598D01*
X192251Y35136D01*
X192280Y35098D01*
X192282Y35090D01*
X192307Y35080D01*
X192276Y35069D01*
X192265Y35071D01*
X191768Y34573D01*
X191374Y34278D01*
X190984Y34083D01*
X190500Y33986D01*
X190014Y34083D01*
G37*
%LPD*%
%LPC*%
G36*
X77238Y66347D02*
X77238Y66347D01*
X76748Y66543D01*
X76359Y66835D01*
X76070Y67221D01*
X75972Y67710D01*
X75873Y68205D01*
X75873Y68680D01*
X76144Y68951D01*
X79118Y68951D01*
X79475Y68862D01*
X79475Y67320D01*
X78992Y66837D01*
X78598Y66542D01*
X78208Y66347D01*
X77724Y66250D01*
X77238Y66347D01*
G37*
%LPD*%
%LPC*%
G36*
X112793Y33577D02*
X112793Y33577D01*
X112312Y33770D01*
X111921Y34160D01*
X111629Y34550D01*
X111532Y34938D01*
X111433Y35532D01*
X111433Y36002D01*
X111699Y36179D01*
X114678Y36179D01*
X115035Y36090D01*
X115035Y34640D01*
X114945Y34460D01*
X114554Y34167D01*
X114553Y34162D01*
X114549Y34163D01*
X114155Y33769D01*
X113772Y33577D01*
X112793Y33577D01*
G37*
%LPD*%
%LPC*%
G36*
X164609Y92481D02*
X164609Y92481D01*
X164128Y92674D01*
X163737Y93064D01*
X163445Y93454D01*
X163348Y93842D01*
X163249Y94436D01*
X163249Y94906D01*
X163515Y95083D01*
X166494Y95083D01*
X166851Y94994D01*
X166851Y93544D01*
X166761Y93364D01*
X166370Y93071D01*
X166369Y93066D01*
X166365Y93067D01*
X165971Y92673D01*
X165588Y92481D01*
X164609Y92481D01*
G37*
%LPD*%
%LPC*%
G36*
X63010Y24876D02*
X63010Y24876D01*
X62524Y24973D01*
X62137Y25360D01*
X61846Y25749D01*
X61748Y26238D01*
X61649Y26733D01*
X61649Y27202D01*
X61915Y27379D01*
X64894Y27379D01*
X65251Y27290D01*
X65251Y25840D01*
X65161Y25660D01*
X64770Y25367D01*
X64769Y25362D01*
X64765Y25363D01*
X64375Y24972D01*
X63989Y24876D01*
X63500Y24778D01*
X63010Y24876D01*
G37*
%LPD*%
%LPC*%
G36*
X100606Y53939D02*
X100606Y53939D01*
X100116Y54135D01*
X99727Y54427D01*
X99438Y54813D01*
X99340Y55302D01*
X99241Y55797D01*
X99241Y56266D01*
X99507Y56443D01*
X102486Y56443D01*
X102843Y56354D01*
X102843Y54912D01*
X102360Y54429D01*
X101966Y54134D01*
X101576Y53939D01*
X101092Y53842D01*
X100606Y53939D01*
G37*
%LPD*%
%LPC*%
G36*
X100595Y61741D02*
X100595Y61741D01*
X99900Y61841D01*
X99416Y61937D01*
X99135Y62219D01*
X99041Y62500D01*
X99041Y62877D01*
X99228Y63158D01*
X99613Y63446D01*
X100100Y63543D01*
X100792Y63642D01*
X101485Y63543D01*
X102177Y63444D01*
X102563Y63251D01*
X102748Y63067D01*
X102843Y62686D01*
X102843Y62598D01*
X102748Y62217D01*
X102468Y61937D01*
X101984Y61841D01*
X101289Y61741D01*
X100595Y61741D01*
G37*
%LPD*%
%LPC*%
G36*
X151549Y50618D02*
X151549Y50618D01*
X150799Y50946D01*
X150976Y51300D01*
X150975Y51303D01*
X150978Y51304D01*
X151174Y51794D01*
X151860Y52480D01*
X152347Y52675D01*
X152742Y52774D01*
X153331Y52872D01*
X153818Y52775D01*
X154312Y52577D01*
X154703Y52381D01*
X154771Y52313D01*
X153820Y50989D01*
X153559Y51163D01*
X153539Y51162D01*
X153532Y51171D01*
X153132Y51171D01*
X153125Y51166D01*
X153120Y51170D01*
X152720Y51070D01*
X152704Y51050D01*
X152691Y51049D01*
X152491Y50749D01*
X152491Y50745D01*
X152488Y50744D01*
X152307Y50382D01*
X151549Y50618D01*
G37*
%LPD*%
%LPC*%
G36*
X150759Y63553D02*
X150759Y63553D01*
X150938Y64000D01*
X151233Y64492D01*
X151923Y65181D01*
X152310Y65375D01*
X152804Y65474D01*
X153294Y65572D01*
X153780Y65475D01*
X154274Y65277D01*
X154668Y65080D01*
X154769Y65004D01*
X153783Y63689D01*
X153521Y63863D01*
X153501Y63862D01*
X153494Y63871D01*
X153094Y63871D01*
X153085Y63864D01*
X153078Y63869D01*
X152778Y63769D01*
X152769Y63755D01*
X152759Y63757D01*
X152459Y63457D01*
X152458Y63445D01*
X152450Y63444D01*
X152269Y63082D01*
X150759Y63553D01*
G37*
%LPD*%
%LPC*%
G36*
X134552Y45571D02*
X134552Y45571D01*
X134272Y45852D01*
X133775Y46746D01*
X133770Y46748D01*
X133771Y46752D01*
X133475Y47147D01*
X132911Y48464D01*
X134898Y48238D01*
X135685Y46605D01*
X135779Y46233D01*
X135498Y45859D01*
X135018Y45571D01*
X134552Y45571D01*
G37*
%LPD*%
%LPC*%
G36*
X77960Y59739D02*
X77960Y59739D01*
X77771Y60116D01*
X77675Y60595D01*
X77863Y61064D01*
X78239Y61253D01*
X78816Y61349D01*
X79192Y61161D01*
X79475Y60784D01*
X79475Y60409D01*
X79283Y59931D01*
X78903Y59646D01*
X78429Y59551D01*
X77960Y59739D01*
G37*
%LPD*%
%LPC*%
G36*
X78849Y74149D02*
X78849Y74149D01*
X78570Y74521D01*
X78476Y74991D01*
X78755Y75456D01*
X79217Y75548D01*
X79580Y75367D01*
X79674Y74900D01*
X79579Y74424D01*
X79304Y74149D01*
X78849Y74149D01*
G37*
%LPD*%
%LPC*%
G36*
X112501Y26931D02*
X112501Y26931D01*
X112604Y26983D01*
X113582Y27374D01*
X113735Y27298D01*
X113735Y26403D01*
X112501Y26931D01*
G37*
%LPD*%
D10*
X156464Y74168D03*
D11*
X179832Y74168D02*
X181356Y72644D01*
X179832Y74168D02*
X159004Y74168D01*
D12*
X158052Y65532D02*
X158052Y40132D01*
X178372Y65532D02*
X178370Y65665D01*
X178364Y65798D01*
X178355Y65930D01*
X178341Y66063D01*
X178324Y66195D01*
X178303Y66326D01*
X178278Y66457D01*
X178249Y66586D01*
X178216Y66715D01*
X178180Y66843D01*
X178140Y66970D01*
X178096Y67096D01*
X178049Y67220D01*
X177998Y67343D01*
X177944Y67464D01*
X177886Y67584D01*
X177824Y67702D01*
X177759Y67818D01*
X177691Y67932D01*
X177620Y68044D01*
X177545Y68154D01*
X177467Y68262D01*
X177386Y68368D01*
X177302Y68471D01*
X177215Y68571D01*
X177126Y68669D01*
X177033Y68765D01*
X176937Y68858D01*
X176839Y68947D01*
X176739Y69034D01*
X176636Y69118D01*
X176530Y69199D01*
X176422Y69277D01*
X176312Y69352D01*
X176200Y69423D01*
X176086Y69491D01*
X175970Y69556D01*
X175852Y69618D01*
X175732Y69676D01*
X175611Y69730D01*
X175488Y69781D01*
X175364Y69828D01*
X175238Y69872D01*
X175111Y69912D01*
X174983Y69948D01*
X174854Y69981D01*
X174725Y70010D01*
X174594Y70035D01*
X174463Y70056D01*
X174331Y70073D01*
X174198Y70087D01*
X174066Y70096D01*
X173933Y70102D01*
X173800Y70104D01*
X178372Y40132D02*
X178370Y39999D01*
X178364Y39866D01*
X178355Y39734D01*
X178341Y39601D01*
X178324Y39469D01*
X178303Y39338D01*
X178278Y39207D01*
X178249Y39078D01*
X178216Y38949D01*
X178180Y38821D01*
X178140Y38694D01*
X178096Y38568D01*
X178049Y38444D01*
X177998Y38321D01*
X177944Y38200D01*
X177886Y38080D01*
X177824Y37962D01*
X177759Y37846D01*
X177691Y37732D01*
X177620Y37620D01*
X177545Y37510D01*
X177467Y37402D01*
X177386Y37296D01*
X177302Y37193D01*
X177215Y37093D01*
X177126Y36995D01*
X177033Y36899D01*
X176937Y36806D01*
X176839Y36717D01*
X176739Y36630D01*
X176636Y36546D01*
X176530Y36465D01*
X176422Y36387D01*
X176312Y36312D01*
X176200Y36241D01*
X176086Y36173D01*
X175970Y36108D01*
X175852Y36046D01*
X175732Y35988D01*
X175611Y35934D01*
X175488Y35883D01*
X175364Y35836D01*
X175238Y35792D01*
X175111Y35752D01*
X174983Y35716D01*
X174854Y35683D01*
X174725Y35654D01*
X174594Y35629D01*
X174463Y35608D01*
X174331Y35591D01*
X174198Y35577D01*
X174066Y35568D01*
X173933Y35562D01*
X173800Y35560D01*
X162624Y35560D02*
X162491Y35562D01*
X162358Y35568D01*
X162226Y35577D01*
X162093Y35591D01*
X161961Y35608D01*
X161830Y35629D01*
X161699Y35654D01*
X161570Y35683D01*
X161441Y35716D01*
X161313Y35752D01*
X161186Y35792D01*
X161060Y35836D01*
X160936Y35883D01*
X160813Y35934D01*
X160692Y35988D01*
X160572Y36046D01*
X160454Y36108D01*
X160338Y36173D01*
X160224Y36241D01*
X160112Y36312D01*
X160002Y36387D01*
X159894Y36465D01*
X159788Y36546D01*
X159685Y36630D01*
X159585Y36717D01*
X159487Y36806D01*
X159391Y36899D01*
X159298Y36995D01*
X159209Y37093D01*
X159122Y37193D01*
X159038Y37296D01*
X158957Y37402D01*
X158879Y37510D01*
X158804Y37620D01*
X158733Y37732D01*
X158665Y37846D01*
X158600Y37962D01*
X158538Y38080D01*
X158480Y38200D01*
X158426Y38321D01*
X158375Y38444D01*
X158328Y38568D01*
X158284Y38694D01*
X158244Y38821D01*
X158208Y38949D01*
X158175Y39078D01*
X158146Y39207D01*
X158121Y39338D01*
X158100Y39469D01*
X158083Y39601D01*
X158069Y39734D01*
X158060Y39866D01*
X158054Y39999D01*
X158052Y40132D01*
X158052Y65532D02*
X158054Y65665D01*
X158060Y65798D01*
X158069Y65930D01*
X158083Y66063D01*
X158100Y66195D01*
X158121Y66326D01*
X158146Y66457D01*
X158175Y66586D01*
X158208Y66715D01*
X158244Y66843D01*
X158284Y66970D01*
X158328Y67096D01*
X158375Y67220D01*
X158426Y67343D01*
X158480Y67464D01*
X158538Y67584D01*
X158600Y67702D01*
X158665Y67818D01*
X158733Y67932D01*
X158804Y68044D01*
X158879Y68154D01*
X158957Y68262D01*
X159038Y68368D01*
X159122Y68471D01*
X159209Y68571D01*
X159298Y68669D01*
X159391Y68765D01*
X159487Y68858D01*
X159585Y68947D01*
X159685Y69034D01*
X159788Y69118D01*
X159894Y69199D01*
X160002Y69277D01*
X160112Y69352D01*
X160224Y69423D01*
X160338Y69491D01*
X160454Y69556D01*
X160572Y69618D01*
X160692Y69676D01*
X160813Y69730D01*
X160936Y69781D01*
X161060Y69828D01*
X161186Y69872D01*
X161313Y69912D01*
X161441Y69948D01*
X161570Y69981D01*
X161699Y70010D01*
X161830Y70035D01*
X161961Y70056D01*
X162093Y70073D01*
X162226Y70087D01*
X162358Y70096D01*
X162491Y70102D01*
X162624Y70104D01*
X173800Y70104D01*
X173800Y35560D02*
X162624Y35560D01*
X178372Y40132D02*
X178372Y65532D01*
D13*
X65088Y76200D02*
X65088Y50800D01*
X49340Y46228D02*
X49207Y46230D01*
X49074Y46236D01*
X48942Y46245D01*
X48809Y46259D01*
X48677Y46276D01*
X48546Y46297D01*
X48415Y46322D01*
X48286Y46351D01*
X48157Y46384D01*
X48029Y46420D01*
X47902Y46460D01*
X47776Y46504D01*
X47652Y46551D01*
X47529Y46602D01*
X47408Y46656D01*
X47288Y46714D01*
X47170Y46776D01*
X47054Y46841D01*
X46940Y46909D01*
X46828Y46980D01*
X46718Y47055D01*
X46610Y47133D01*
X46504Y47214D01*
X46401Y47298D01*
X46301Y47385D01*
X46203Y47474D01*
X46107Y47567D01*
X46014Y47663D01*
X45925Y47761D01*
X45838Y47861D01*
X45754Y47964D01*
X45673Y48070D01*
X45595Y48178D01*
X45520Y48288D01*
X45449Y48400D01*
X45381Y48514D01*
X45316Y48630D01*
X45254Y48748D01*
X45196Y48868D01*
X45142Y48989D01*
X45091Y49112D01*
X45044Y49236D01*
X45000Y49362D01*
X44960Y49489D01*
X44924Y49617D01*
X44891Y49746D01*
X44862Y49875D01*
X44837Y50006D01*
X44816Y50137D01*
X44799Y50269D01*
X44785Y50402D01*
X44776Y50534D01*
X44770Y50667D01*
X44768Y50800D01*
X44768Y76200D02*
X44770Y76333D01*
X44776Y76466D01*
X44785Y76598D01*
X44799Y76731D01*
X44816Y76863D01*
X44837Y76994D01*
X44862Y77125D01*
X44891Y77254D01*
X44924Y77383D01*
X44960Y77511D01*
X45000Y77638D01*
X45044Y77764D01*
X45091Y77888D01*
X45142Y78011D01*
X45196Y78132D01*
X45254Y78252D01*
X45316Y78370D01*
X45381Y78486D01*
X45449Y78600D01*
X45520Y78712D01*
X45595Y78822D01*
X45673Y78930D01*
X45754Y79036D01*
X45838Y79139D01*
X45925Y79239D01*
X46014Y79337D01*
X46107Y79433D01*
X46203Y79526D01*
X46301Y79615D01*
X46401Y79702D01*
X46504Y79786D01*
X46610Y79867D01*
X46718Y79945D01*
X46828Y80020D01*
X46940Y80091D01*
X47054Y80159D01*
X47170Y80224D01*
X47288Y80286D01*
X47408Y80344D01*
X47529Y80398D01*
X47652Y80449D01*
X47776Y80496D01*
X47902Y80540D01*
X48029Y80580D01*
X48157Y80616D01*
X48286Y80649D01*
X48415Y80678D01*
X48546Y80703D01*
X48677Y80724D01*
X48809Y80741D01*
X48942Y80755D01*
X49074Y80764D01*
X49207Y80770D01*
X49340Y80772D01*
X60516Y80772D02*
X60649Y80770D01*
X60782Y80764D01*
X60914Y80755D01*
X61047Y80741D01*
X61179Y80724D01*
X61310Y80703D01*
X61441Y80678D01*
X61570Y80649D01*
X61699Y80616D01*
X61827Y80580D01*
X61954Y80540D01*
X62080Y80496D01*
X62204Y80449D01*
X62327Y80398D01*
X62448Y80344D01*
X62568Y80286D01*
X62686Y80224D01*
X62802Y80159D01*
X62916Y80091D01*
X63028Y80020D01*
X63138Y79945D01*
X63246Y79867D01*
X63352Y79786D01*
X63455Y79702D01*
X63555Y79615D01*
X63653Y79526D01*
X63749Y79433D01*
X63842Y79337D01*
X63931Y79239D01*
X64018Y79139D01*
X64102Y79036D01*
X64183Y78930D01*
X64261Y78822D01*
X64336Y78712D01*
X64407Y78600D01*
X64475Y78486D01*
X64540Y78370D01*
X64602Y78252D01*
X64660Y78132D01*
X64714Y78011D01*
X64765Y77888D01*
X64812Y77764D01*
X64856Y77638D01*
X64896Y77511D01*
X64932Y77383D01*
X64965Y77254D01*
X64994Y77125D01*
X65019Y76994D01*
X65040Y76863D01*
X65057Y76731D01*
X65071Y76598D01*
X65080Y76466D01*
X65086Y76333D01*
X65088Y76200D01*
X65088Y50800D02*
X65086Y50667D01*
X65080Y50534D01*
X65071Y50402D01*
X65057Y50269D01*
X65040Y50137D01*
X65019Y50006D01*
X64994Y49875D01*
X64965Y49746D01*
X64932Y49617D01*
X64896Y49489D01*
X64856Y49362D01*
X64812Y49236D01*
X64765Y49112D01*
X64714Y48989D01*
X64660Y48868D01*
X64602Y48748D01*
X64540Y48630D01*
X64475Y48514D01*
X64407Y48400D01*
X64336Y48288D01*
X64261Y48178D01*
X64183Y48070D01*
X64102Y47964D01*
X64018Y47861D01*
X63931Y47761D01*
X63842Y47663D01*
X63749Y47567D01*
X63653Y47474D01*
X63555Y47385D01*
X63455Y47298D01*
X63352Y47214D01*
X63246Y47133D01*
X63138Y47055D01*
X63028Y46980D01*
X62916Y46909D01*
X62802Y46841D01*
X62686Y46776D01*
X62568Y46714D01*
X62448Y46656D01*
X62327Y46602D01*
X62204Y46551D01*
X62080Y46504D01*
X61954Y46460D01*
X61827Y46420D01*
X61699Y46384D01*
X61570Y46351D01*
X61441Y46322D01*
X61310Y46297D01*
X61179Y46276D01*
X61047Y46259D01*
X60914Y46245D01*
X60782Y46236D01*
X60649Y46230D01*
X60516Y46228D01*
X49340Y46228D01*
X49340Y80772D02*
X60516Y80772D01*
X44768Y76200D02*
X44768Y50800D01*
X181356Y53086D02*
X181356Y68326D01*
X197104Y72898D02*
X197237Y72896D01*
X197370Y72890D01*
X197502Y72881D01*
X197635Y72867D01*
X197767Y72850D01*
X197898Y72829D01*
X198029Y72804D01*
X198158Y72775D01*
X198287Y72742D01*
X198415Y72706D01*
X198542Y72666D01*
X198668Y72622D01*
X198792Y72575D01*
X198915Y72524D01*
X199036Y72470D01*
X199156Y72412D01*
X199274Y72350D01*
X199390Y72285D01*
X199504Y72217D01*
X199616Y72146D01*
X199726Y72071D01*
X199834Y71993D01*
X199940Y71912D01*
X200043Y71828D01*
X200143Y71741D01*
X200241Y71652D01*
X200337Y71559D01*
X200430Y71463D01*
X200519Y71365D01*
X200606Y71265D01*
X200690Y71162D01*
X200771Y71056D01*
X200849Y70948D01*
X200924Y70838D01*
X200995Y70726D01*
X201063Y70612D01*
X201128Y70496D01*
X201190Y70378D01*
X201248Y70258D01*
X201302Y70137D01*
X201353Y70014D01*
X201400Y69890D01*
X201444Y69764D01*
X201484Y69637D01*
X201520Y69509D01*
X201553Y69380D01*
X201582Y69251D01*
X201607Y69120D01*
X201628Y68989D01*
X201645Y68857D01*
X201659Y68724D01*
X201668Y68592D01*
X201674Y68459D01*
X201676Y68326D01*
X201676Y53086D02*
X201674Y52953D01*
X201668Y52820D01*
X201659Y52688D01*
X201645Y52555D01*
X201628Y52423D01*
X201607Y52292D01*
X201582Y52161D01*
X201553Y52032D01*
X201520Y51903D01*
X201484Y51775D01*
X201444Y51648D01*
X201400Y51522D01*
X201353Y51398D01*
X201302Y51275D01*
X201248Y51154D01*
X201190Y51034D01*
X201128Y50916D01*
X201063Y50800D01*
X200995Y50686D01*
X200924Y50574D01*
X200849Y50464D01*
X200771Y50356D01*
X200690Y50250D01*
X200606Y50147D01*
X200519Y50047D01*
X200430Y49949D01*
X200337Y49853D01*
X200241Y49760D01*
X200143Y49671D01*
X200043Y49584D01*
X199940Y49500D01*
X199834Y49419D01*
X199726Y49341D01*
X199616Y49266D01*
X199504Y49195D01*
X199390Y49127D01*
X199274Y49062D01*
X199156Y49000D01*
X199036Y48942D01*
X198915Y48888D01*
X198792Y48837D01*
X198668Y48790D01*
X198542Y48746D01*
X198415Y48706D01*
X198287Y48670D01*
X198158Y48637D01*
X198029Y48608D01*
X197898Y48583D01*
X197767Y48562D01*
X197635Y48545D01*
X197502Y48531D01*
X197370Y48522D01*
X197237Y48516D01*
X197104Y48514D01*
X185928Y48514D02*
X185795Y48516D01*
X185662Y48522D01*
X185530Y48531D01*
X185397Y48545D01*
X185265Y48562D01*
X185134Y48583D01*
X185003Y48608D01*
X184874Y48637D01*
X184745Y48670D01*
X184617Y48706D01*
X184490Y48746D01*
X184364Y48790D01*
X184240Y48837D01*
X184117Y48888D01*
X183996Y48942D01*
X183876Y49000D01*
X183758Y49062D01*
X183642Y49127D01*
X183528Y49195D01*
X183416Y49266D01*
X183306Y49341D01*
X183198Y49419D01*
X183092Y49500D01*
X182989Y49584D01*
X182889Y49671D01*
X182791Y49760D01*
X182695Y49853D01*
X182602Y49949D01*
X182513Y50047D01*
X182426Y50147D01*
X182342Y50250D01*
X182261Y50356D01*
X182183Y50464D01*
X182108Y50574D01*
X182037Y50686D01*
X181969Y50800D01*
X181904Y50916D01*
X181842Y51034D01*
X181784Y51154D01*
X181730Y51275D01*
X181679Y51398D01*
X181632Y51522D01*
X181588Y51648D01*
X181548Y51775D01*
X181512Y51903D01*
X181479Y52032D01*
X181450Y52161D01*
X181425Y52292D01*
X181404Y52423D01*
X181387Y52555D01*
X181373Y52688D01*
X181364Y52820D01*
X181358Y52953D01*
X181356Y53086D01*
X181356Y68326D02*
X181358Y68459D01*
X181364Y68592D01*
X181373Y68724D01*
X181387Y68857D01*
X181404Y68989D01*
X181425Y69120D01*
X181450Y69251D01*
X181479Y69380D01*
X181512Y69509D01*
X181548Y69637D01*
X181588Y69764D01*
X181632Y69890D01*
X181679Y70014D01*
X181730Y70137D01*
X181784Y70258D01*
X181842Y70378D01*
X181904Y70496D01*
X181969Y70612D01*
X182037Y70726D01*
X182108Y70838D01*
X182183Y70948D01*
X182261Y71056D01*
X182342Y71162D01*
X182426Y71265D01*
X182513Y71365D01*
X182602Y71463D01*
X182695Y71559D01*
X182791Y71652D01*
X182889Y71741D01*
X182989Y71828D01*
X183092Y71912D01*
X183198Y71993D01*
X183306Y72071D01*
X183416Y72146D01*
X183528Y72217D01*
X183642Y72285D01*
X183758Y72350D01*
X183876Y72412D01*
X183996Y72470D01*
X184117Y72524D01*
X184240Y72575D01*
X184364Y72622D01*
X184490Y72666D01*
X184617Y72706D01*
X184745Y72742D01*
X184874Y72775D01*
X185003Y72804D01*
X185134Y72829D01*
X185265Y72850D01*
X185397Y72867D01*
X185530Y72881D01*
X185662Y72890D01*
X185795Y72896D01*
X185928Y72898D01*
X197104Y72898D01*
X197104Y48514D02*
X185928Y48514D01*
X201676Y53086D02*
X201676Y68326D01*
M02*
