G04 EAGLE Gerber RS-274X export*
G75*
%MOMM*%
%FSLAX34Y34*%
%LPD*%
%INSolderpaste Top*%
%IPPOS*%
%AMOC8*
5,1,8,0,0,1.08239X$1,22.5*%
G01*
%ADD10C,0.102000*%
%ADD11C,0.300000*%


D10*
X93549Y79532D02*
X93549Y74552D01*
X88569Y74552D01*
X88569Y79532D01*
X93549Y79532D01*
X93549Y75521D02*
X88569Y75521D01*
X88569Y76490D02*
X93549Y76490D01*
X93549Y77459D02*
X88569Y77459D01*
X88569Y78428D02*
X93549Y78428D01*
X93549Y79397D02*
X88569Y79397D01*
X93549Y84552D02*
X93549Y89532D01*
X93549Y84552D02*
X88569Y84552D01*
X88569Y89532D01*
X93549Y89532D01*
X93549Y85521D02*
X88569Y85521D01*
X88569Y86490D02*
X93549Y86490D01*
X93549Y87459D02*
X88569Y87459D01*
X88569Y88428D02*
X93549Y88428D01*
X93549Y89397D02*
X88569Y89397D01*
X116683Y90628D02*
X121663Y90628D01*
X121663Y85648D01*
X116683Y85648D01*
X116683Y90628D01*
X116683Y86617D02*
X121663Y86617D01*
X121663Y87586D02*
X116683Y87586D01*
X116683Y88555D02*
X121663Y88555D01*
X121663Y89524D02*
X116683Y89524D01*
X116683Y90493D02*
X121663Y90493D01*
X111663Y90628D02*
X106683Y90628D01*
X111663Y90628D02*
X111663Y85648D01*
X106683Y85648D01*
X106683Y90628D01*
X106683Y86617D02*
X111663Y86617D01*
X111663Y87586D02*
X106683Y87586D01*
X106683Y88555D02*
X111663Y88555D01*
X111663Y89524D02*
X106683Y89524D01*
X106683Y90493D02*
X111663Y90493D01*
X136274Y37071D02*
X141254Y37071D01*
X136274Y37071D02*
X136274Y42051D01*
X141254Y42051D01*
X141254Y37071D01*
X141254Y38040D02*
X136274Y38040D01*
X136274Y39009D02*
X141254Y39009D01*
X141254Y39978D02*
X136274Y39978D01*
X136274Y40947D02*
X141254Y40947D01*
X141254Y41916D02*
X136274Y41916D01*
X146274Y37071D02*
X151254Y37071D01*
X146274Y37071D02*
X146274Y42051D01*
X151254Y42051D01*
X151254Y37071D01*
X151254Y38040D02*
X146274Y38040D01*
X146274Y39009D02*
X151254Y39009D01*
X151254Y39978D02*
X146274Y39978D01*
X146274Y40947D02*
X151254Y40947D01*
X151254Y41916D02*
X146274Y41916D01*
X116362Y36690D02*
X111382Y36690D01*
X111382Y41670D01*
X116362Y41670D01*
X116362Y36690D01*
X116362Y37659D02*
X111382Y37659D01*
X111382Y38628D02*
X116362Y38628D01*
X116362Y39597D02*
X111382Y39597D01*
X111382Y40566D02*
X116362Y40566D01*
X116362Y41535D02*
X111382Y41535D01*
X121382Y36690D02*
X126362Y36690D01*
X121382Y36690D02*
X121382Y41670D01*
X126362Y41670D01*
X126362Y36690D01*
X126362Y37659D02*
X121382Y37659D01*
X121382Y38628D02*
X126362Y38628D01*
X126362Y39597D02*
X121382Y39597D01*
X121382Y40566D02*
X126362Y40566D01*
X126362Y41535D02*
X121382Y41535D01*
X101089Y42368D02*
X96109Y42368D01*
X101089Y42368D02*
X101089Y37388D01*
X96109Y37388D01*
X96109Y42368D01*
X96109Y38357D02*
X101089Y38357D01*
X101089Y39326D02*
X96109Y39326D01*
X96109Y40295D02*
X101089Y40295D01*
X101089Y41264D02*
X96109Y41264D01*
X96109Y42233D02*
X101089Y42233D01*
X91089Y42368D02*
X86109Y42368D01*
X91089Y42368D02*
X91089Y37388D01*
X86109Y37388D01*
X86109Y42368D01*
X86109Y38357D02*
X91089Y38357D01*
X91089Y39326D02*
X86109Y39326D01*
X86109Y40295D02*
X91089Y40295D01*
X91089Y41264D02*
X86109Y41264D01*
X86109Y42233D02*
X91089Y42233D01*
D11*
X191826Y68770D02*
X198826Y68770D01*
X191826Y68770D02*
X191826Y75770D01*
X198826Y75770D01*
X198826Y68770D01*
X198826Y71620D02*
X191826Y71620D01*
X191826Y74470D02*
X198826Y74470D01*
X198826Y51230D02*
X191826Y51230D01*
X191826Y58230D01*
X198826Y58230D01*
X198826Y51230D01*
X198826Y54080D02*
X191826Y54080D01*
X191826Y56930D02*
X198826Y56930D01*
D10*
X185370Y56518D02*
X185370Y61498D01*
X185370Y56518D02*
X180390Y56518D01*
X180390Y61498D01*
X185370Y61498D01*
X185370Y57487D02*
X180390Y57487D01*
X180390Y58456D02*
X185370Y58456D01*
X185370Y59425D02*
X180390Y59425D01*
X180390Y60394D02*
X185370Y60394D01*
X185370Y61363D02*
X180390Y61363D01*
X185370Y66518D02*
X185370Y71498D01*
X185370Y66518D02*
X180390Y66518D01*
X180390Y71498D01*
X185370Y71498D01*
X185370Y67487D02*
X180390Y67487D01*
X180390Y68456D02*
X185370Y68456D01*
X185370Y69425D02*
X180390Y69425D01*
X180390Y70394D02*
X185370Y70394D01*
X185370Y71363D02*
X180390Y71363D01*
X172082Y59894D02*
X167102Y59894D01*
X172082Y59894D02*
X172082Y54914D01*
X167102Y54914D01*
X167102Y59894D01*
X167102Y55883D02*
X172082Y55883D01*
X172082Y56852D02*
X167102Y56852D01*
X167102Y57821D02*
X172082Y57821D01*
X172082Y58790D02*
X167102Y58790D01*
X167102Y59759D02*
X172082Y59759D01*
X162082Y59894D02*
X157102Y59894D01*
X162082Y59894D02*
X162082Y54914D01*
X157102Y54914D01*
X157102Y59894D01*
X157102Y55883D02*
X162082Y55883D01*
X162082Y56852D02*
X157102Y56852D01*
X157102Y57821D02*
X162082Y57821D01*
X162082Y58790D02*
X157102Y58790D01*
X157102Y59759D02*
X162082Y59759D01*
X127815Y56990D02*
X124035Y56990D01*
X127815Y56990D02*
X127815Y55010D01*
X124035Y55010D01*
X124035Y56990D01*
X124035Y55979D02*
X127815Y55979D01*
X127815Y56948D02*
X124035Y56948D01*
X124035Y61990D02*
X127815Y61990D01*
X127815Y60010D01*
X124035Y60010D01*
X124035Y61990D01*
X124035Y60979D02*
X127815Y60979D01*
X127815Y61948D02*
X124035Y61948D01*
X124035Y66990D02*
X127815Y66990D01*
X127815Y65010D01*
X124035Y65010D01*
X124035Y66990D01*
X124035Y65979D02*
X127815Y65979D01*
X127815Y66948D02*
X124035Y66948D01*
X124035Y71990D02*
X127815Y71990D01*
X127815Y70010D01*
X124035Y70010D01*
X124035Y71990D01*
X124035Y70979D02*
X127815Y70979D01*
X127815Y71948D02*
X124035Y71948D01*
X104565Y70010D02*
X100785Y70010D01*
X100785Y71990D01*
X104565Y71990D01*
X104565Y70010D01*
X104565Y70979D02*
X100785Y70979D01*
X100785Y71948D02*
X104565Y71948D01*
X104565Y65010D02*
X100785Y65010D01*
X100785Y66990D01*
X104565Y66990D01*
X104565Y65010D01*
X104565Y65979D02*
X100785Y65979D01*
X100785Y66948D02*
X104565Y66948D01*
X104565Y60010D02*
X100785Y60010D01*
X100785Y61990D01*
X104565Y61990D01*
X104565Y60010D01*
X104565Y60979D02*
X100785Y60979D01*
X100785Y61948D02*
X104565Y61948D01*
X104565Y55010D02*
X100785Y55010D01*
X100785Y56990D01*
X104565Y56990D01*
X104565Y55010D01*
X104565Y55979D02*
X100785Y55979D01*
X100785Y56948D02*
X104565Y56948D01*
X118310Y75390D02*
X120290Y75390D01*
X120290Y71610D01*
X118310Y71610D01*
X118310Y75390D01*
X118310Y72579D02*
X120290Y72579D01*
X120290Y73548D02*
X118310Y73548D01*
X118310Y74517D02*
X120290Y74517D01*
X115290Y75390D02*
X113310Y75390D01*
X115290Y75390D02*
X115290Y71610D01*
X113310Y71610D01*
X113310Y75390D01*
X113310Y72579D02*
X115290Y72579D01*
X115290Y73548D02*
X113310Y73548D01*
X113310Y74517D02*
X115290Y74517D01*
X110290Y75390D02*
X108310Y75390D01*
X110290Y75390D02*
X110290Y71610D01*
X108310Y71610D01*
X108310Y75390D01*
X108310Y72579D02*
X110290Y72579D01*
X110290Y73548D02*
X108310Y73548D01*
X108310Y74517D02*
X110290Y74517D01*
X110290Y51610D02*
X108310Y51610D01*
X108310Y55390D01*
X110290Y55390D01*
X110290Y51610D01*
X110290Y52579D02*
X108310Y52579D01*
X108310Y53548D02*
X110290Y53548D01*
X110290Y54517D02*
X108310Y54517D01*
X113310Y51610D02*
X115290Y51610D01*
X113310Y51610D02*
X113310Y55390D01*
X115290Y55390D01*
X115290Y51610D01*
X115290Y52579D02*
X113310Y52579D01*
X113310Y53548D02*
X115290Y53548D01*
X115290Y54517D02*
X113310Y54517D01*
X118310Y51610D02*
X120290Y51610D01*
X118310Y51610D02*
X118310Y55390D01*
X120290Y55390D01*
X120290Y51610D01*
X120290Y52579D02*
X118310Y52579D01*
X118310Y53548D02*
X120290Y53548D01*
X120290Y54517D02*
X118310Y54517D01*
X157102Y40944D02*
X162082Y40944D01*
X157102Y40944D02*
X157102Y45924D01*
X162082Y45924D01*
X162082Y40944D01*
X162082Y41913D02*
X157102Y41913D01*
X157102Y42882D02*
X162082Y42882D01*
X162082Y43851D02*
X157102Y43851D01*
X157102Y44820D02*
X162082Y44820D01*
X162082Y45789D02*
X157102Y45789D01*
X167102Y40944D02*
X172082Y40944D01*
X167102Y40944D02*
X167102Y45924D01*
X172082Y45924D01*
X172082Y40944D01*
X172082Y41913D02*
X167102Y41913D01*
X167102Y42882D02*
X172082Y42882D01*
X172082Y43851D02*
X167102Y43851D01*
X167102Y44820D02*
X172082Y44820D01*
X172082Y45789D02*
X167102Y45789D01*
M02*
