G04 EAGLE Gerber RS-274X export*
G75*
%MOMM*%
%FSLAX34Y34*%
%LPD*%
%INSoldermask Top*%
%IPPOS*%
%AMOC8*
5,1,8,0,0,1.08239X$1,22.5*%
G01*
%ADD10C,0.225369*%
%ADD11C,3.175000*%
%ADD12C,0.762000*%
%ADD13C,2.006600*%
%ADD14C,0.228344*%
%ADD15C,0.428259*%
%ADD16C,0.230578*%

G36*
X142178Y89547D02*
X142178Y89547D01*
X142244Y89549D01*
X142287Y89567D01*
X142334Y89575D01*
X142391Y89609D01*
X142451Y89634D01*
X142486Y89665D01*
X142527Y89690D01*
X142569Y89741D01*
X142617Y89785D01*
X142639Y89827D01*
X142668Y89864D01*
X142689Y89926D01*
X142720Y89985D01*
X142728Y90039D01*
X142740Y90076D01*
X142739Y90116D01*
X142747Y90170D01*
X142747Y92710D01*
X142736Y92775D01*
X142734Y92841D01*
X142716Y92884D01*
X142708Y92931D01*
X142674Y92988D01*
X142649Y93048D01*
X142618Y93083D01*
X142593Y93124D01*
X142542Y93166D01*
X142498Y93214D01*
X142456Y93236D01*
X142419Y93265D01*
X142357Y93286D01*
X142298Y93317D01*
X142244Y93325D01*
X142207Y93337D01*
X142167Y93336D01*
X142113Y93344D01*
X138303Y93344D01*
X138238Y93333D01*
X138172Y93331D01*
X138129Y93313D01*
X138082Y93305D01*
X138025Y93271D01*
X137965Y93246D01*
X137930Y93215D01*
X137889Y93190D01*
X137848Y93139D01*
X137799Y93095D01*
X137777Y93053D01*
X137748Y93016D01*
X137727Y92954D01*
X137696Y92895D01*
X137688Y92841D01*
X137676Y92804D01*
X137676Y92801D01*
X137677Y92764D01*
X137669Y92710D01*
X137669Y90170D01*
X137680Y90105D01*
X137682Y90039D01*
X137700Y89996D01*
X137708Y89949D01*
X137742Y89892D01*
X137767Y89832D01*
X137798Y89797D01*
X137823Y89756D01*
X137874Y89715D01*
X137918Y89666D01*
X137960Y89644D01*
X137997Y89615D01*
X138059Y89594D01*
X138118Y89563D01*
X138172Y89555D01*
X138209Y89543D01*
X138249Y89544D01*
X138303Y89536D01*
X142113Y89536D01*
X142178Y89547D01*
G37*
G36*
X168848Y89293D02*
X168848Y89293D01*
X168914Y89295D01*
X168957Y89313D01*
X169004Y89321D01*
X169061Y89355D01*
X169121Y89380D01*
X169156Y89411D01*
X169197Y89436D01*
X169239Y89487D01*
X169287Y89531D01*
X169309Y89573D01*
X169338Y89610D01*
X169359Y89672D01*
X169390Y89731D01*
X169398Y89785D01*
X169410Y89822D01*
X169409Y89862D01*
X169417Y89916D01*
X169417Y92456D01*
X169406Y92521D01*
X169404Y92587D01*
X169386Y92630D01*
X169378Y92677D01*
X169344Y92734D01*
X169319Y92794D01*
X169288Y92829D01*
X169263Y92870D01*
X169212Y92912D01*
X169168Y92960D01*
X169126Y92982D01*
X169089Y93011D01*
X169027Y93032D01*
X168968Y93063D01*
X168914Y93071D01*
X168877Y93083D01*
X168837Y93082D01*
X168783Y93090D01*
X164973Y93090D01*
X164908Y93079D01*
X164842Y93077D01*
X164799Y93059D01*
X164752Y93051D01*
X164695Y93017D01*
X164635Y92992D01*
X164600Y92961D01*
X164559Y92936D01*
X164518Y92885D01*
X164469Y92841D01*
X164447Y92799D01*
X164418Y92762D01*
X164397Y92700D01*
X164366Y92641D01*
X164358Y92587D01*
X164346Y92550D01*
X164346Y92547D01*
X164347Y92510D01*
X164339Y92456D01*
X164339Y89916D01*
X164350Y89851D01*
X164352Y89785D01*
X164370Y89742D01*
X164378Y89695D01*
X164412Y89638D01*
X164437Y89578D01*
X164468Y89543D01*
X164493Y89502D01*
X164544Y89461D01*
X164588Y89412D01*
X164630Y89390D01*
X164667Y89361D01*
X164729Y89340D01*
X164788Y89309D01*
X164842Y89301D01*
X164879Y89289D01*
X164919Y89290D01*
X164973Y89282D01*
X168783Y89282D01*
X168848Y89293D01*
G37*
D10*
X93567Y79550D02*
X93567Y74534D01*
X88551Y74534D01*
X88551Y79550D01*
X93567Y79550D01*
X93567Y76675D02*
X88551Y76675D01*
X88551Y78816D02*
X93567Y78816D01*
X93567Y84534D02*
X93567Y89550D01*
X93567Y84534D02*
X88551Y84534D01*
X88551Y89550D01*
X93567Y89550D01*
X93567Y86675D02*
X88551Y86675D01*
X88551Y88816D02*
X93567Y88816D01*
X116665Y90646D02*
X121681Y90646D01*
X121681Y85630D01*
X116665Y85630D01*
X116665Y90646D01*
X116665Y87771D02*
X121681Y87771D01*
X121681Y89912D02*
X116665Y89912D01*
X111681Y90646D02*
X106665Y90646D01*
X111681Y90646D02*
X111681Y85630D01*
X106665Y85630D01*
X106665Y90646D01*
X106665Y87771D02*
X111681Y87771D01*
X111681Y89912D02*
X106665Y89912D01*
D11*
X25400Y101600D03*
X25400Y25400D03*
D10*
X136256Y37053D02*
X141272Y37053D01*
X136256Y37053D02*
X136256Y42069D01*
X141272Y42069D01*
X141272Y37053D01*
X141272Y39194D02*
X136256Y39194D01*
X136256Y41335D02*
X141272Y41335D01*
X146256Y37053D02*
X151272Y37053D01*
X146256Y37053D02*
X146256Y42069D01*
X151272Y42069D01*
X151272Y37053D01*
X151272Y39194D02*
X146256Y39194D01*
X146256Y41335D02*
X151272Y41335D01*
X116380Y36672D02*
X111364Y36672D01*
X111364Y41688D01*
X116380Y41688D01*
X116380Y36672D01*
X116380Y38813D02*
X111364Y38813D01*
X111364Y40954D02*
X116380Y40954D01*
X121364Y36672D02*
X126380Y36672D01*
X121364Y36672D02*
X121364Y41688D01*
X126380Y41688D01*
X126380Y36672D01*
X126380Y38813D02*
X121364Y38813D01*
X121364Y40954D02*
X126380Y40954D01*
D12*
X55626Y88900D03*
X177800Y23876D03*
D10*
X101107Y42386D02*
X96091Y42386D01*
X101107Y42386D02*
X101107Y37370D01*
X96091Y37370D01*
X96091Y42386D01*
X96091Y39511D02*
X101107Y39511D01*
X101107Y41652D02*
X96091Y41652D01*
X91107Y42386D02*
X86091Y42386D01*
X91107Y42386D02*
X91107Y37370D01*
X86091Y37370D01*
X86091Y42386D01*
X86091Y39511D02*
X91107Y39511D01*
X91107Y41652D02*
X86091Y41652D01*
D13*
X190500Y12700D03*
X165100Y12700D03*
X139700Y12700D03*
X114300Y12700D03*
X88900Y12700D03*
X63500Y12700D03*
D14*
X158875Y85342D02*
X164467Y85342D01*
X158875Y85342D02*
X158875Y97030D01*
X164467Y97030D01*
X164467Y85342D01*
X164467Y87511D02*
X158875Y87511D01*
X158875Y89680D02*
X164467Y89680D01*
X164467Y91849D02*
X158875Y91849D01*
X158875Y94018D02*
X164467Y94018D01*
X164467Y96187D02*
X158875Y96187D01*
X169289Y85342D02*
X174881Y85342D01*
X169289Y85342D02*
X169289Y97030D01*
X174881Y97030D01*
X174881Y85342D01*
X174881Y87511D02*
X169289Y87511D01*
X169289Y89680D02*
X174881Y89680D01*
X174881Y91849D02*
X169289Y91849D01*
X169289Y94018D02*
X174881Y94018D01*
X174881Y96187D02*
X169289Y96187D01*
X148211Y97284D02*
X142619Y97284D01*
X148211Y97284D02*
X148211Y85596D01*
X142619Y85596D01*
X142619Y97284D01*
X142619Y87765D02*
X148211Y87765D01*
X148211Y89934D02*
X142619Y89934D01*
X142619Y92103D02*
X148211Y92103D01*
X148211Y94272D02*
X142619Y94272D01*
X142619Y96441D02*
X148211Y96441D01*
X137797Y97284D02*
X132205Y97284D01*
X137797Y97284D02*
X137797Y85596D01*
X132205Y85596D01*
X132205Y97284D01*
X132205Y87765D02*
X137797Y87765D01*
X137797Y89934D02*
X132205Y89934D01*
X132205Y92103D02*
X137797Y92103D01*
X137797Y94272D02*
X132205Y94272D01*
X132205Y96441D02*
X137797Y96441D01*
D13*
X63500Y114300D03*
X88900Y114300D03*
X114300Y114300D03*
X139700Y114300D03*
X165100Y114300D03*
X190500Y114300D03*
D15*
X191832Y68776D02*
X198820Y68776D01*
X191832Y68776D02*
X191832Y75764D01*
X198820Y75764D01*
X198820Y68776D01*
X198820Y72845D02*
X191832Y72845D01*
X191832Y51236D02*
X198820Y51236D01*
X191832Y51236D02*
X191832Y58224D01*
X198820Y58224D01*
X198820Y51236D01*
X198820Y55305D02*
X191832Y55305D01*
D10*
X185388Y56500D02*
X185388Y61516D01*
X185388Y56500D02*
X180372Y56500D01*
X180372Y61516D01*
X185388Y61516D01*
X185388Y58641D02*
X180372Y58641D01*
X180372Y60782D02*
X185388Y60782D01*
X185388Y66500D02*
X185388Y71516D01*
X185388Y66500D02*
X180372Y66500D01*
X180372Y71516D01*
X185388Y71516D01*
X185388Y68641D02*
X180372Y68641D01*
X180372Y70782D02*
X185388Y70782D01*
X172100Y59912D02*
X167084Y59912D01*
X172100Y59912D02*
X172100Y54896D01*
X167084Y54896D01*
X167084Y59912D01*
X167084Y57037D02*
X172100Y57037D01*
X172100Y59178D02*
X167084Y59178D01*
X162100Y59912D02*
X157084Y59912D01*
X162100Y59912D02*
X162100Y54896D01*
X157084Y54896D01*
X157084Y59912D01*
X157084Y57037D02*
X162100Y57037D01*
X162100Y59178D02*
X157084Y59178D01*
D16*
X127807Y56982D02*
X124043Y56982D01*
X127807Y56982D02*
X127807Y55018D01*
X124043Y55018D01*
X124043Y56982D01*
X124043Y61982D02*
X127807Y61982D01*
X127807Y60018D01*
X124043Y60018D01*
X124043Y61982D01*
X124043Y66982D02*
X127807Y66982D01*
X127807Y65018D01*
X124043Y65018D01*
X124043Y66982D01*
X124043Y71982D02*
X127807Y71982D01*
X127807Y70018D01*
X124043Y70018D01*
X124043Y71982D01*
X104557Y70018D02*
X100793Y70018D01*
X100793Y71982D01*
X104557Y71982D01*
X104557Y70018D01*
X104557Y65018D02*
X100793Y65018D01*
X100793Y66982D01*
X104557Y66982D01*
X104557Y65018D01*
X104557Y60018D02*
X100793Y60018D01*
X100793Y61982D01*
X104557Y61982D01*
X104557Y60018D01*
X104557Y55018D02*
X100793Y55018D01*
X100793Y56982D01*
X104557Y56982D01*
X104557Y55018D01*
X118318Y75382D02*
X120282Y75382D01*
X120282Y71618D01*
X118318Y71618D01*
X118318Y75382D01*
X118318Y73809D02*
X120282Y73809D01*
X115282Y75382D02*
X113318Y75382D01*
X115282Y75382D02*
X115282Y71618D01*
X113318Y71618D01*
X113318Y75382D01*
X113318Y73809D02*
X115282Y73809D01*
X110282Y75382D02*
X108318Y75382D01*
X110282Y75382D02*
X110282Y71618D01*
X108318Y71618D01*
X108318Y75382D01*
X108318Y73809D02*
X110282Y73809D01*
X110282Y51618D02*
X108318Y51618D01*
X108318Y55382D01*
X110282Y55382D01*
X110282Y51618D01*
X110282Y53809D02*
X108318Y53809D01*
X113318Y51618D02*
X115282Y51618D01*
X113318Y51618D02*
X113318Y55382D01*
X115282Y55382D01*
X115282Y51618D01*
X115282Y53809D02*
X113318Y53809D01*
X118318Y51618D02*
X120282Y51618D01*
X118318Y51618D02*
X118318Y55382D01*
X120282Y55382D01*
X120282Y51618D01*
X120282Y53809D02*
X118318Y53809D01*
D10*
X157084Y40926D02*
X162100Y40926D01*
X157084Y40926D02*
X157084Y45942D01*
X162100Y45942D01*
X162100Y40926D01*
X162100Y43067D02*
X157084Y43067D01*
X157084Y45208D02*
X162100Y45208D01*
X167084Y40926D02*
X172100Y40926D01*
X167084Y40926D02*
X167084Y45942D01*
X172100Y45942D01*
X172100Y40926D01*
X172100Y43067D02*
X167084Y43067D01*
X167084Y45208D02*
X172100Y45208D01*
M02*
