M48
;GenerationSoftware,Autodesk,EAGLE,9.6.2*%
;CreationDate,2022-06-03T20:23:07Z*%
FMAT,2
ICI,OFF
METRIC,TZ,000.000
T3C0.300
T2C1.016
T1C3.048
%
G90
M71
T1
X152400Y28448
X152400Y100584
X2540Y22860
X2540Y2540
X22860Y2540
X22860Y22860
X28448Y22860
X28448Y2540
X48768Y2540
X48768Y22860
X54356Y22860
X54356Y2540
X74676Y2540
X74676Y22860
X80264Y22860
X80264Y2540
X100584Y2540
X100584Y22860
X106172Y22860
X106172Y2540
X126492Y2540
X126492Y22860
X132080Y22860
X132080Y2540
X152400Y2540
X152400Y22860
X2540Y48768
X2540Y28448
X22860Y28448
X22860Y48768
X28448Y48768
X28448Y28448
X48768Y28448
X48768Y48768
X54356Y48768
X54356Y28448
X74676Y28448
X74676Y48768
X80264Y48768
X80264Y28448
X100584Y28448
X100584Y48768
X106172Y48768
X106172Y28448
X126492Y28448
X126492Y48768
X132080Y48768
X132080Y28448
X152400Y80264
X152400Y48768
X2540Y74676
X2540Y54356
X22860Y54356
X22860Y74676
X28448Y74676
X28448Y54356
X48768Y54356
X48768Y74676
X54356Y74676
X54356Y54356
X74676Y54356
X74676Y74676
X80264Y74676
X80264Y54356
X100584Y54356
X100584Y74676
X106172Y74676
X106172Y54356
X126492Y54356
X126492Y74676
X132080Y74676
X132080Y54356
X152400Y54356
X152400Y74676
X2540Y100584
X2540Y80264
X22860Y80264
X22860Y100584
X28448Y100584
X28448Y80264
X48768Y80264
X48768Y100584
X54356Y100584
X54356Y80264
X74676Y80264
X74676Y100584
X80264Y100584
X80264Y80264
X100584Y80264
X100584Y100584
X106172Y100584
X106172Y80264
X126492Y80264
X126492Y100584
X132080Y100584
X132080Y80264
T2
X13970Y27178
X148590Y101854
X19050Y1270
X16510Y1270
X13970Y1270
X11430Y1270
X8890Y1270
X6350Y1270
X6350Y24130
X8890Y24130
X11430Y24130
X13970Y24130
X16510Y24130
X19050Y24130
X44958Y1270
X42418Y1270
X39878Y1270
X37338Y1270
X34798Y1270
X32258Y1270
X32258Y24130
X34798Y24130
X37338Y24130
X39878Y24130
X42418Y24130
X44958Y24130
X70866Y1270
X68326Y1270
X65786Y1270
X63246Y1270
X60706Y1270
X58166Y1270
X58166Y24130
X60706Y24130
X63246Y24130
X65786Y24130
X68326Y24130
X70866Y24130
X96774Y1270
X94234Y1270
X91694Y1270
X89154Y1270
X86614Y1270
X84074Y1270
X84074Y24130
X86614Y24130
X89154Y24130
X91694Y24130
X94234Y24130
X96774Y24130
X122682Y1270
X120142Y1270
X117602Y1270
X115062Y1270
X112522Y1270
X109982Y1270
X109982Y24130
X112522Y24130
X115062Y24130
X117602Y24130
X120142Y24130
X122682Y24130
X148590Y1270
X146050Y1270
X143510Y1270
X140970Y1270
X138430Y1270
X135890Y1270
X135890Y24130
X138430Y24130
X140970Y24130
X143510Y24130
X146050Y24130
X148590Y24130
X19050Y27178
X16510Y27178
X11430Y27178
X8890Y27178
X6350Y27178
X6350Y50038
X8890Y50038
X11430Y50038
X13970Y50038
X16510Y50038
X19050Y50038
X44958Y27178
X42418Y27178
X39878Y27178
X37338Y27178
X34798Y27178
X32258Y27178
X32258Y50038
X34798Y50038
X37338Y50038
X39878Y50038
X42418Y50038
X44958Y50038
X70866Y27178
X68326Y27178
X65786Y27178
X63246Y27178
X60706Y27178
X58166Y27178
X58166Y50038
X60706Y50038
X63246Y50038
X65786Y50038
X68326Y50038
X70866Y50038
X96774Y27178
X94234Y27178
X91694Y27178
X89154Y27178
X86614Y27178
X84074Y27178
X84074Y50038
X86614Y50038
X89154Y50038
X91694Y50038
X94234Y50038
X96774Y50038
X122682Y27178
X120142Y27178
X117602Y27178
X115062Y27178
X112522Y27178
X109982Y27178
X109982Y50038
X112522Y50038
X115062Y50038
X117602Y50038
X120142Y50038
X122682Y50038
X148590Y27178
X146050Y27178
X143510Y27178
X140970Y27178
X138430Y27178
X135890Y27178
X135890Y50038
X138430Y50038
X140970Y50038
X143510Y50038
X146050Y50038
X148590Y50038
X19050Y53086
X16510Y53086
X13970Y53086
X11430Y53086
X8890Y53086
X6350Y53086
X6350Y75946
X8890Y75946
X11430Y75946
X13970Y75946
X16510Y75946
X19050Y75946
X44958Y53086
X42418Y53086
X39878Y53086
X37338Y53086
X34798Y53086
X32258Y53086
X32258Y75946
X34798Y75946
X37338Y75946
X39878Y75946
X42418Y75946
X44958Y75946
X70866Y53086
X68326Y53086
X65786Y53086
X63246Y53086
X60706Y53086
X58166Y53086
X58166Y75946
X60706Y75946
X63246Y75946
X65786Y75946
X68326Y75946
X70866Y75946
X96774Y53086
X94234Y53086
X91694Y53086
X89154Y53086
X86614Y53086
X84074Y53086
X84074Y75946
X86614Y75946
X89154Y75946
X91694Y75946
X94234Y75946
X96774Y75946
X122682Y53086
X120142Y53086
X117602Y53086
X115062Y53086
X112522Y53086
X109982Y53086
X109982Y75946
X112522Y75946
X115062Y75946
X117602Y75946
X120142Y75946
X122682Y75946
X148590Y53086
X146050Y53086
X143510Y53086
X140970Y53086
X138430Y53086
X135890Y53086
X135890Y75946
X138430Y75946
X140970Y75946
X143510Y75946
X146050Y75946
X148590Y75946
X19050Y78994
X16510Y78994
X13970Y78994
X11430Y78994
X8890Y78994
X6350Y78994
X6350Y101854
X8890Y101854
X11430Y101854
X13970Y101854
X16510Y101854
X19050Y101854
X44958Y78994
X42418Y78994
X39878Y78994
X37338Y78994
X34798Y78994
X32258Y78994
X32258Y101854
X34798Y101854
X37338Y101854
X39878Y101854
X42418Y101854
X44958Y101854
X70866Y78994
X68326Y78994
X65786Y78994
X63246Y78994
X60706Y78994
X58166Y78994
X58166Y101854
X60706Y101854
X63246Y101854
X65786Y101854
X68326Y101854
X70866Y101854
X96774Y78994
X94234Y78994
X91694Y78994
X89154Y78994
X86614Y78994
X84074Y78994
X84074Y101854
X86614Y101854
X89154Y101854
X91694Y101854
X94234Y101854
X96774Y101854
X122682Y78994
X120142Y78994
X117602Y78994
X115062Y78994
X112522Y78994
X109982Y78994
X109982Y101854
X112522Y101854
X115062Y101854
X117602Y101854
X120142Y101854
X122682Y101854
X148590Y78994
X146050Y78994
X143510Y78994
X140970Y78994
X138430Y78994
X135890Y78994
X135890Y101854
X138430Y101854
X140970Y101854
X143510Y101854
X146050Y101854
T3
X18415Y36068
X43307Y33223
X36703Y41275
X35408Y43028
X38913Y43028
X43307Y44171
X29591Y40107
X31420Y35077
X34112Y32537
X35077Y36398
X38532Y31318
X44374Y37084
X40361Y40132
X38633Y45822
X45593Y48311
X45593Y45060
X44425Y43231
X44882Y40284
X41732Y29566
X43866Y31242
X36195Y31318
X46761Y43282
X47473Y37059
X33960Y47473
X38024Y32715
X41910Y33272
X39065Y32080
X35306Y35433
X42418Y28702
X33503Y28905
X32614Y34950
X41913Y38478
X44577Y30988
X42926Y46228
X39370Y46355
X33147Y38481
X33147Y39766
X39497Y42418
X43180Y42418
X34925Y42418
X34795Y32001
X35560Y34036
X47371Y38100
X47371Y41224
X32455Y38376
X32466Y39878
X32258Y48133
X38608Y33223
X40640Y33195
X50165Y45847
X44399Y39522
X34544Y37317
X34392Y43561
X40160Y43510
X42926Y43459
X44323Y36068
X69215Y33223
X62611Y41275
X61316Y43028
X64821Y43028
X69215Y44171
X55499Y40107
X57328Y35077
X60020Y32537
X60985Y36398
X64440Y31318
X70282Y37084
X66269Y40132
X64541Y45822
X71501Y48311
X71501Y45060
X70333Y43231
X70790Y40284
X67640Y29566
X69774Y31242
X62103Y31318
X72669Y43282
X73381Y37059
X59868Y47473
X63932Y32715
X67818Y33272
X64973Y32080
X61214Y35433
X68326Y28702
X59411Y28905
X58522Y34950
X67821Y38478
X70485Y30988
X68834Y46228
X65278Y46355
X59055Y38481
X59055Y39766
X65405Y42418
X69088Y42418
X60833Y42418
X60703Y32001
X61468Y34036
X73279Y38100
X73279Y41224
X58363Y38376
X58374Y39878
X58166Y48133
X64516Y33223
X66548Y33195
X76073Y45847
X70307Y39522
X60452Y37317
X60300Y43561
X66068Y43510
X68834Y43459
X70231Y36068
X95123Y33223
X88519Y41275
X87224Y43028
X90729Y43028
X95123Y44171
X81407Y40107
X83236Y35077
X85928Y32537
X86893Y36398
X90348Y31318
X96190Y37084
X92177Y40132
X90449Y45822
X97409Y48311
X97409Y45060
X96241Y43231
X96698Y40284
X93548Y29566
X95682Y31242
X88011Y31318
X98577Y43282
X99289Y37059
X85776Y47473
X89840Y32715
X93726Y33272
X90881Y32080
X87122Y35433
X94234Y28702
X85319Y28905
X84430Y34950
X93729Y38478
X96393Y30988
X94742Y46228
X91186Y46355
X84963Y38481
X84963Y39766
X91313Y42418
X94996Y42418
X86741Y42418
X86611Y32001
X87376Y34036
X99187Y38100
X99187Y41224
X84271Y38376
X84282Y39878
X84074Y48133
X90424Y33223
X92456Y33195
X101981Y45847
X96215Y39522
X86360Y37317
X86208Y43561
X91976Y43510
X94742Y43459
X96139Y36068
X121031Y33223
X114427Y41275
X113132Y43028
X116637Y43028
X121031Y44171
X107315Y40107
X109144Y35077
X111836Y32537
X112801Y36398
X116256Y31318
X122098Y37084
X118085Y40132
X116357Y45822
X123317Y48311
X123317Y45060
X122149Y43231
X122606Y40284
X119456Y29566
X121590Y31242
X113919Y31318
X124485Y43282
X125197Y37059
X111684Y47473
X115748Y32715
X119634Y33272
X116789Y32080
X113030Y35433
X120142Y28702
X111227Y28905
X110338Y34950
X119637Y38478
X122301Y30988
X120650Y46228
X117094Y46355
X110871Y38481
X110871Y39766
X117221Y42418
X120904Y42418
X112649Y42418
X112519Y32001
X113284Y34036
X125095Y38100
X125095Y41224
X110179Y38376
X110190Y39878
X109982Y48133
X116332Y33223
X118364Y33195
X127889Y45847
X122123Y39522
X112268Y37317
X112116Y43561
X117884Y43510
X120650Y43459
X122047Y36068
X146939Y33223
X140335Y41275
X139040Y43028
X142545Y43028
X146939Y44171
X133223Y40107
X135052Y35077
X137744Y32537
X138709Y36398
X142164Y31318
X148006Y37084
X143993Y40132
X142265Y45822
X149225Y48311
X149225Y45060
X148057Y43231
X148514Y40284
X145364Y29566
X147498Y31242
X139827Y31318
X150393Y43282
X151105Y37059
X137592Y47473
X141656Y32715
X145542Y33272
X142697Y32080
X138938Y35433
X146050Y28702
X137135Y28905
X136246Y34950
X145545Y38478
X148209Y30988
X146558Y46228
X143002Y46355
X136779Y38481
X136779Y39766
X143129Y42418
X146812Y42418
X138557Y42418
X138427Y32001
X139192Y34036
X151003Y38100
X151003Y41224
X136087Y38376
X136098Y39878
X135890Y48133
X142240Y33223
X144272Y33195
X153797Y45847
X148031Y39522
X138176Y37317
X138024Y43561
X143792Y43510
X146558Y43459
X147955Y36068
X17399Y59131
X10795Y67183
X9500Y68936
X13005Y68936
X17399Y70079
X3683Y66015
X5512Y60985
X8204Y58445
X9169Y62306
X12624Y57226
X18466Y62992
X14453Y66040
X12725Y71730
X19685Y74219
X19685Y70968
X18517Y69139
X18974Y66192
X15824Y55474
X17958Y57150
X10287Y57226
X20853Y69190
X21565Y62967
X8052Y73381
X12116Y58623
X16002Y59180
X13157Y57988
X9398Y61341
X16510Y54610
X7595Y54813
X6706Y60858
X16005Y64386
X18669Y56896
X17018Y72136
X13462Y72263
X7239Y64389
X7239Y65674
X13589Y68326
X17272Y68326
X9017Y68326
X8887Y57909
X9652Y59944
X21463Y64008
X21463Y67132
X6547Y64284
X6558Y65786
X6350Y74041
X12700Y59131
X14732Y59103
X24257Y71755
X18491Y65430
X8636Y63225
X8484Y69469
X14252Y69418
X17018Y69367
X18415Y61976
X43307Y59131
X36703Y67183
X35408Y68936
X38913Y68936
X43307Y70079
X29591Y66015
X31420Y60985
X34112Y58445
X35077Y62306
X38532Y57226
X44374Y62992
X40361Y66040
X38633Y71730
X45593Y74219
X45593Y70968
X44425Y69139
X44882Y66192
X41732Y55474
X43866Y57150
X36195Y57226
X46761Y69190
X47473Y62967
X33960Y73381
X38024Y58623
X41910Y59180
X39065Y57988
X35306Y61341
X42418Y54610
X33503Y54813
X32614Y60858
X41913Y64386
X44577Y56896
X42926Y72136
X39370Y72263
X33147Y64389
X33147Y65674
X39497Y68326
X43180Y68326
X34925Y68326
X34795Y57909
X35560Y59944
X47371Y64008
X47371Y67132
X32455Y64284
X32466Y65786
X32258Y74041
X38608Y59131
X40640Y59103
X50165Y71755
X44399Y65430
X34544Y63225
X34392Y69469
X40160Y69418
X42926Y69367
X44323Y61976
X69215Y59131
X62611Y67183
X61316Y68936
X64821Y68936
X69215Y70079
X55499Y66015
X57328Y60985
X60020Y58445
X60985Y62306
X64440Y57226
X70282Y62992
X66269Y66040
X64541Y71730
X71501Y74219
X71501Y70968
X70333Y69139
X70790Y66192
X67640Y55474
X69774Y57150
X62103Y57226
X72669Y69190
X73381Y62967
X59868Y73381
X63932Y58623
X67818Y59180
X64973Y57988
X61214Y61341
X68326Y54610
X59411Y54813
X58522Y60858
X67821Y64386
X70485Y56896
X68834Y72136
X65278Y72263
X59055Y64389
X59055Y65674
X65405Y68326
X69088Y68326
X60833Y68326
X60703Y57909
X61468Y59944
X73279Y64008
X73279Y67132
X58363Y64284
X58374Y65786
X58166Y74041
X64516Y59131
X66548Y59103
X76073Y71755
X70307Y65430
X60452Y63225
X60300Y69469
X66068Y69418
X68834Y69367
X70231Y61976
X95123Y59131
X88519Y67183
X87224Y68936
X90729Y68936
X95123Y70079
X81407Y66015
X83236Y60985
X85928Y58445
X86893Y62306
X90348Y57226
X96190Y62992
X92177Y66040
X90449Y71730
X97409Y74219
X97409Y70968
X96241Y69139
X96698Y66192
X93548Y55474
X95682Y57150
X88011Y57226
X98577Y69190
X99289Y62967
X85776Y73381
X89840Y58623
X93726Y59180
X90881Y57988
X87122Y61341
X101981Y19939
X85319Y54813
X84430Y60858
X93729Y64386
X96393Y56896
X94742Y72136
X91186Y72263
X84963Y64389
X84963Y65674
X91313Y68326
X94996Y68326
X86741Y68326
X86611Y57909
X87376Y59944
X99187Y64008
X99187Y67132
X84271Y64284
X84282Y65786
X84074Y74041
X90424Y59131
X92456Y59103
X101981Y71755
X96215Y65430
X86360Y63225
X86208Y69469
X91976Y69418
X94742Y69367
X96139Y61976
X121031Y59131
X114427Y67183
X113132Y68936
X116637Y68936
X121031Y70079
X107315Y66015
X109144Y60985
X111836Y58445
X112801Y62306
X116256Y57226
X122098Y62992
X118085Y66040
X116357Y71730
X123317Y74219
X123317Y70968
X122149Y69139
X122606Y66192
X119456Y55474
X121590Y57150
X113919Y57226
X124485Y69190
X125197Y62967
X111684Y73381
X115748Y58623
X119634Y59180
X116789Y57988
X113030Y61341
X120142Y54610
X111227Y54813
X110338Y60858
X119637Y64386
X122301Y56896
X120650Y72136
X117094Y72263
X110871Y64389
X110871Y65674
X117221Y68326
X120904Y68326
X112649Y68326
X112519Y57909
X113284Y59944
X125095Y64008
X125095Y67132
X110179Y64284
X110190Y65786
X109982Y74041
X116332Y59131
X118364Y59103
X127889Y71755
X122123Y65430
X112268Y63225
X112116Y69469
X117884Y69418
X120650Y69367
X122047Y61976
X146939Y59131
X140335Y67183
X139040Y68936
X142545Y68936
X146939Y70079
X133223Y66015
X135052Y60985
X137744Y58445
X138709Y62306
X142164Y57226
X148006Y62992
X143993Y66040
X142265Y71730
X149225Y74219
X149225Y70968
X148057Y69139
X148514Y66192
X145364Y55474
X147498Y57150
X139827Y57226
X150393Y69190
X151105Y62967
X137592Y73381
X141656Y58623
X145542Y59180
X142697Y57988
X138938Y61341
X146050Y54610
X137135Y54813
X136246Y60858
X145545Y64386
X148209Y56896
X146558Y72136
X143002Y72263
X136779Y64389
X136779Y65674
X143129Y68326
X146812Y68326
X138557Y68326
X138427Y57909
X139192Y59944
X151003Y64008
X151003Y67132
X136087Y64284
X136098Y65786
X135890Y74041
X142240Y59131
X144272Y59103
X153797Y71755
X148031Y65430
X138176Y63225
X138024Y69469
X143792Y69418
X146558Y69367
X147955Y61976
X17399Y85039
X10795Y93091
X9500Y94844
X13005Y94844
X17399Y95987
X3683Y91923
X5512Y86893
X8204Y84353
X9169Y88214
X12624Y83134
X18466Y88900
X14453Y91948
X12725Y97638
X19685Y100127
X19685Y96876
X18517Y95047
X18974Y92100
X15824Y81382
X17958Y83058
X10287Y83134
X20853Y95098
X21565Y88875
X8052Y99289
X12116Y84531
X16002Y85088
X13157Y83896
X9398Y87249
X16510Y80518
X7595Y80721
X6706Y86766
X16005Y90294
X18669Y82804
X17018Y98044
X13462Y98171
X7239Y90297
X7239Y91582
X13589Y94234
X17272Y94234
X9017Y94234
X8887Y83817
X9652Y85852
X21463Y89916
X21463Y93040
X6547Y90192
X6558Y91694
X6350Y99949
X12700Y85039
X14732Y85011
X24257Y97663
X18491Y91338
X8636Y89133
X8484Y95377
X14252Y95326
X17018Y95275
X18415Y87884
X43307Y85039
X36703Y93091
X35408Y94844
X38913Y94844
X43307Y95987
X29591Y91923
X31420Y86893
X34112Y84353
X35077Y88214
X38532Y83134
X44374Y88900
X40361Y91948
X38633Y97638
X45593Y100127
X45593Y96876
X44425Y95047
X44882Y92100
X41732Y81382
X43866Y83058
X36195Y83134
X46761Y95098
X47473Y88875
X33960Y99289
X38024Y84531
X41910Y85088
X39065Y83896
X35306Y87249
X42418Y80518
X33503Y80721
X32614Y86766
X41913Y90294
X44577Y82804
X42926Y98044
X39370Y98171
X33147Y90297
X33147Y91582
X39497Y94234
X43180Y94234
X34925Y94234
X34795Y83817
X35560Y85852
X47371Y89916
X47371Y93040
X32455Y90192
X32466Y91694
X32258Y99949
X38608Y85039
X40640Y85011
X50165Y97663
X44399Y91338
X34544Y89133
X34392Y95377
X40160Y95326
X42926Y95275
X44323Y87884
X69215Y85039
X62611Y93091
X61316Y94844
X64821Y94844
X69215Y95987
X55499Y91923
X57328Y86893
X60020Y84353
X60985Y88214
X64440Y83134
X70282Y88900
X66269Y91948
X64541Y97638
X71501Y100127
X71501Y96876
X70333Y95047
X70790Y92100
X67640Y81382
X69774Y83058
X62103Y83134
X72669Y95098
X73381Y88875
X59868Y99289
X63932Y84531
X67818Y85088
X64973Y83896
X61214Y87249
X68326Y80518
X59411Y80721
X58522Y86766
X67821Y90294
X70485Y82804
X68834Y98044
X65278Y98171
X59055Y90297
X59055Y91582
X65405Y94234
X69088Y94234
X60833Y94234
X60703Y83817
X61468Y85852
X73279Y89916
X73279Y93040
X58363Y90192
X58374Y91694
X58166Y99949
X64516Y85039
X66548Y85011
X76073Y97663
X70307Y91338
X60452Y89133
X60300Y95377
X66068Y95326
X68834Y95275
X70231Y87884
X95123Y85039
X88519Y93091
X87224Y94844
X90729Y94844
X95123Y95987
X81407Y91923
X83236Y86893
X85928Y84353
X86893Y88214
X90348Y83134
X96190Y88900
X92177Y91948
X90449Y97638
X97409Y100127
X97409Y96876
X96241Y95047
X96698Y92100
X93548Y81382
X95682Y83058
X88011Y83134
X98577Y95098
X99289Y88875
X85776Y99289
X89840Y84531
X93726Y85088
X90881Y83896
X87122Y87249
X94234Y80518
X85319Y80721
X84430Y86766
X93729Y90294
X96393Y82804
X94742Y98044
X91186Y98171
X84963Y90297
X84963Y91582
X91313Y94234
X94996Y94234
X86741Y94234
X86611Y83817
X87376Y85852
X99187Y89916
X99187Y93040
X84271Y90192
X84282Y91694
X84074Y99949
X90424Y85039
X92456Y85011
X101981Y97663
X96215Y91338
X86360Y89133
X86208Y95377
X91976Y95326
X94742Y95275
X96139Y87884
X121031Y85039
X114427Y93091
X113132Y94844
X116637Y94844
X121031Y95987
X107315Y91923
X109144Y86893
X111836Y84353
X112801Y88214
X116256Y83134
X122098Y88900
X118085Y91948
X116357Y97638
X123317Y100127
X123317Y96876
X122149Y95047
X122606Y92100
X119456Y81382
X121590Y83058
X113919Y83134
X124485Y95098
X125197Y88875
X111684Y99289
X115748Y84531
X119634Y85088
X116789Y83896
X113030Y87249
X120142Y80518
X111227Y80721
X110338Y86766
X119637Y90294
X122301Y82804
X120650Y98044
X117094Y98171
X110871Y90297
X110871Y91582
X117221Y94234
X120904Y94234
X112649Y94234
X112519Y83817
X113284Y85852
X125095Y89916
X125095Y93040
X110179Y90192
X110190Y91694
X109982Y99949
X116332Y85039
X118364Y85011
X127889Y97663
X122123Y91338
X112268Y89133
X112116Y95377
X117884Y95326
X120650Y95275
X122047Y87884
X146939Y85039
X140335Y93091
X139040Y94844
X142545Y94844
X146939Y95987
X133223Y91923
X135052Y86893
X137744Y84353
X138709Y88214
X142164Y83134
X148006Y88900
X143993Y91948
X17399Y7315
X149225Y100127
X149225Y96876
X148057Y95047
X148514Y92100
X145364Y81382
X147498Y83058
X139827Y83134
X150393Y95098
X151105Y88875
X137592Y99289
X141656Y84531
X145542Y85088
X142697Y83896
X138938Y87249
X146050Y80518
X137135Y80721
X136246Y86766
X145545Y90294
X148209Y82804
X146558Y98044
X143002Y98171
X136779Y90297
X136779Y91582
X143129Y94234
X146812Y94234
X138557Y94234
X138427Y83817
X139192Y85852
X151003Y89916
X151003Y93040
X136087Y90192
X136098Y91694
X135890Y99949
X142240Y85039
X144272Y85011
X153797Y97663
X148031Y91338
X138176Y89133
X138024Y95377
X143792Y95326
X146558Y95275
X147955Y87884
X10795Y15367
X9500Y17120
X13005Y17120
X17399Y18263
X3683Y14199
X5512Y9169
X8204Y6629
X9169Y10490
X12624Y5410
X18466Y11176
X14453Y14224
X12725Y19914
X19685Y22403
X19685Y19152
X18517Y17323
X18974Y14376
X15824Y3658
X17958Y5334
X10287Y5410
X20853Y17374
X21565Y11151
X8052Y21565
X12116Y6807
X16002Y7364
X13157Y6172
X9398Y9525
X16510Y2794
X7595Y2997
X6706Y9042
X16005Y12570
X18669Y5080
X17018Y20320
X13462Y20447
X7239Y12573
X7239Y13858
X13589Y16510
X17272Y16510
X9017Y16510
X8887Y6093
X9652Y8128
X21463Y12192
X21463Y15316
X6547Y12468
X6558Y13970
X6350Y22225
X12700Y7315
X14732Y7287
X24257Y19939
X18491Y13614
X8636Y11409
X8484Y17653
X14252Y17602
X17018Y17551
X18415Y10160
X43307Y7315
X36703Y15367
X35408Y17120
X38913Y17120
X43307Y18263
X29591Y14199
X31420Y9169
X34112Y6629
X35077Y10490
X38532Y5410
X44374Y11176
X40361Y14224
X38633Y19914
X45593Y22403
X45593Y19152
X44425Y17323
X44882Y14376
X41732Y3658
X43866Y5334
X36195Y5410
X46761Y17374
X47473Y11151
X33960Y21565
X38024Y6807
X41910Y7364
X39065Y6172
X35306Y9525
X42418Y2794
X33503Y2997
X32614Y9042
X41913Y12570
X44577Y5080
X42926Y20320
X39370Y20447
X33147Y12573
X33147Y13858
X39497Y16510
X43180Y16510
X34925Y16510
X34795Y6093
X35560Y8128
X47371Y12192
X47371Y15316
X32455Y12468
X32466Y13970
X32258Y22225
X38608Y7315
X40640Y7287
X50165Y19939
X44399Y13614
X34544Y11409
X34392Y17653
X40160Y17602
X42926Y17551
X44323Y10160
X69215Y7315
X62611Y15367
X61316Y17120
X64821Y17120
X69215Y18263
X55499Y14199
X57328Y9169
X60020Y6629
X60985Y10490
X64440Y5410
X70282Y11176
X66269Y14224
X64541Y19914
X71501Y22403
X71501Y19152
X70333Y17323
X70790Y14376
X67640Y3658
X69774Y5334
X62103Y5410
X72669Y17374
X73381Y11151
X59868Y21565
X63932Y6807
X67818Y7364
X64973Y6172
X61214Y9525
X68326Y2794
X59411Y2997
X58522Y9042
X67821Y12570
X70485Y5080
X68834Y20320
X65278Y20447
X59055Y12573
X59055Y13858
X65405Y16510
X69088Y16510
X60833Y16510
X60703Y6093
X61468Y8128
X73279Y12192
X73279Y15316
X58363Y12468
X58374Y13970
X58166Y22225
X64516Y7315
X66548Y7287
X76073Y19939
X70307Y13614
X60452Y11409
X60300Y17653
X66068Y17602
X68834Y17551
X70231Y10160
X95123Y7315
X88519Y15367
X87224Y17120
X90729Y17120
X95123Y18263
X81407Y14199
X94234Y54610
X83236Y9169
X85928Y6629
X86893Y10490
X90348Y5410
X96190Y11176
X92177Y14224
X90449Y19914
X97409Y22403
X97409Y19152
X96241Y17323
X96698Y14376
X93548Y3658
X95682Y5334
X88011Y5410
X98577Y17374
X99289Y11151
X85776Y21565
X89840Y6807
X93726Y7364
X90881Y6172
X87122Y9525
X94234Y2794
X85319Y2997
X84430Y9042
X93729Y12570
X96393Y5080
X94742Y20320
X91186Y20447
X84963Y12573
X84963Y13858
X91313Y16510
X94996Y16510
X86741Y16510
X86611Y6093
X87376Y8128
X99187Y12192
X99187Y15316
X84271Y12468
X84282Y13970
X84074Y22225
X90424Y7315
X92456Y7287
X96215Y13614
X86360Y11409
X86208Y17653
X91976Y17602
X94742Y17551
X96139Y10160
X121031Y7315
X114427Y15367
X113132Y17120
X116637Y17120
X121031Y18263
X107315Y14199
X109144Y9169
X111836Y6629
X112801Y10490
X116256Y5410
X122098Y11176
X118085Y14224
X116357Y19914
X123317Y22403
X123317Y19152
X122149Y17323
X122606Y14376
X119456Y3658
X121590Y5334
X113919Y5410
X124485Y17374
X125197Y11151
X111684Y21565
X115748Y6807
X119634Y7364
X116789Y6172
X113030Y9525
X120142Y2794
X111227Y2997
X110338Y9042
X119637Y12570
X122301Y5080
X120650Y20320
X117094Y20447
X110871Y12573
X110871Y13858
X117221Y16510
X120904Y16510
X112649Y16510
X112519Y6093
X113284Y8128
X125095Y12192
X125095Y15316
X110179Y12468
X110190Y13970
X109982Y22225
X116332Y7315
X118364Y7287
X127889Y19939
X122123Y13614
X112268Y11409
X112116Y17653
X117884Y17602
X120650Y17551
X122047Y10160
X146939Y7315
X140335Y15367
X139040Y17120
X142545Y17120
X146939Y18263
X133223Y14199
X135052Y9169
X137744Y6629
X138709Y10490
X142164Y5410
X148006Y11176
X143993Y14224
X142265Y19914
X149225Y22403
X149225Y19152
X148057Y17323
X148514Y14376
X145364Y3658
X147498Y5334
X139827Y5410
X150393Y17374
X151105Y11151
X137592Y21565
X141656Y6807
X145542Y7364
X142697Y6172
X138938Y9525
X146050Y2794
X137135Y2997
X136246Y9042
X145545Y12570
X148209Y5080
X146558Y20320
X143002Y20447
X136779Y12573
X136779Y13858
X143129Y16510
X146812Y16510
X138557Y16510
X138427Y6093
X139192Y8128
X151003Y12192
X151003Y15316
X136087Y12468
X136098Y13970
X135890Y22225
X142240Y7315
X144272Y7287
X153797Y19939
X148031Y13614
X138176Y11409
X138024Y17653
X143792Y17602
X146558Y17551
X147955Y10160
X17399Y33223
X10795Y41275
X9500Y43028
X13005Y43028
X17399Y44171
X3683Y40107
X5512Y35077
X8204Y32537
X9169Y36398
X12624Y31318
X18466Y37084
X14453Y40132
X12725Y45822
X19685Y48311
X19685Y45060
X18517Y43231
X18974Y40284
X15824Y29566
X17958Y31242
X10287Y31318
X20853Y43282
X21565Y37059
X8052Y47473
X12116Y32715
X16002Y33272
X13157Y32080
X9398Y35433
X16510Y28702
X7595Y28905
X6706Y34950
X16005Y38478
X18669Y30988
X17018Y46228
X13462Y46355
X7239Y38481
X7239Y39766
X13589Y42418
X17272Y42418
X9017Y42418
X8887Y32001
X9652Y34036
X21463Y38100
X21463Y41224
X6547Y38376
X6558Y39878
X6350Y48133
X12700Y33223
X14732Y33195
X24257Y45847
X18491Y39522
X8636Y37317
X8484Y43561
X14252Y43510
X17018Y43459
X142265Y97638
M30