M48
;GenerationSoftware,Autodesk,EAGLE,9.6.2*%
;CreationDate,2022-06-03T20:30:20Z*%
FMAT,2
ICI,OFF
METRIC,TZ,000.000
T4C0.300
T3C0.305
T2C0.700
T1C3.048
%
G90
M71
T1
X100330Y20066
X119888Y60706
X139446Y44450
X2540Y3810
X22098Y3810
X41656Y3810
X61214Y3810
X80772Y3810
X100330Y3810
X119888Y3810
X139446Y3810
X2540Y11938
X22098Y11938
X41656Y11938
X61214Y11938
X80772Y11938
X100330Y11938
X119888Y11938
X139446Y11938
X2540Y20066
X22098Y20066
X41656Y20066
X61214Y20066
X80772Y20066
X100330Y44450
X119888Y20066
X139446Y20066
X2540Y28194
X22098Y28194
X41656Y28194
X61214Y28194
X80772Y28194
X100330Y28194
X119888Y28194
X139446Y28194
X2540Y36322
X22098Y36322
X41656Y36322
X61214Y36322
X80772Y36322
X100330Y36322
X119888Y36322
X139446Y36322
X2540Y44450
X22098Y44450
X41656Y44450
X61214Y44450
X80772Y44450
X139446Y60706
X119888Y44450
X2540Y52578
X22098Y52578
X41656Y52578
X61214Y52578
X80772Y52578
X100330Y52578
X119888Y52578
X139446Y52578
X2540Y60706
X22098Y60706
X41656Y60706
X61214Y60706
X80772Y60706
X100330Y60706
T2
X141986Y63246
X141986Y33782
X5080Y1270
X5080Y6350
X24638Y1270
X24638Y6350
X44196Y1270
X44196Y6350
X63754Y1270
X63754Y6350
X83312Y1270
X83312Y6350
X102870Y1270
X102870Y6350
X122428Y1270
X122428Y6350
X141986Y1270
X141986Y6350
X5080Y9398
X5080Y14478
X24638Y9398
X24638Y14478
X44196Y9398
X44196Y14478
X63754Y9398
X63754Y14478
X83312Y9398
X83312Y14478
X102870Y9398
X102870Y14478
X122428Y9398
X122428Y14478
X141986Y9398
X141986Y14478
X5080Y17526
X5080Y22606
X24638Y17526
X24638Y22606
X44196Y17526
X44196Y22606
X63754Y17526
X63754Y22606
X83312Y17526
X83312Y22606
X102870Y17526
X102870Y22606
X122428Y17526
X122428Y22606
X141986Y17526
X141986Y22606
X5080Y25654
X5080Y30734
X24638Y25654
X24638Y30734
X44196Y25654
X44196Y30734
X63754Y25654
X63754Y30734
X83312Y25654
X83312Y30734
X102870Y25654
X102870Y30734
X122428Y25654
X122428Y30734
X141986Y25654
X141986Y30734
X5080Y33782
X5080Y38862
X24638Y33782
X24638Y38862
X44196Y33782
X44196Y38862
X63754Y33782
X63754Y38862
X83312Y33782
X83312Y38862
X102870Y33782
X102870Y38862
X122428Y33782
X122428Y38862
X141986Y38862
X5080Y41910
X5080Y46990
X24638Y41910
X24638Y46990
X44196Y41910
X44196Y46990
X63754Y41910
X63754Y46990
X83312Y41910
X83312Y46990
X102870Y41910
X102870Y46990
X122428Y41910
X122428Y46990
X141986Y41910
X141986Y46990
X5080Y50038
X5080Y55118
X24638Y50038
X24638Y55118
X44196Y50038
X44196Y55118
X63754Y50038
X63754Y55118
X83312Y50038
X83312Y55118
X102870Y50038
X102870Y55118
X122428Y50038
X122428Y55118
X141986Y50038
X141986Y55118
X5080Y58166
X5080Y63246
X24638Y58166
X24638Y63246
X44196Y58166
X44196Y63246
X63754Y58166
X63754Y63246
X83312Y58166
X83312Y63246
X102870Y58166
X102870Y63246
X122428Y58166
X122428Y63246
X141986Y58166
T3
X95504Y10922
X75946Y12890
X114808Y21844
X95250Y5588
X134620Y12890
X75692Y21844
X95504Y4763
X17272Y27178
X95250Y29972
X17018Y13716
X75946Y10922
X17018Y5588
X75946Y21019
X95504Y2794
X17272Y4763
X17272Y12890
X115062Y21019
X134620Y10922
X154178Y29146
X75692Y29972
X17272Y2794
X36576Y21844
X17272Y10922
X114808Y29972
X153924Y21844
X36830Y21019
X75946Y19050
X95504Y29146
X115062Y19050
X75946Y29146
X154178Y21019
X114808Y5588
X36830Y19050
X95250Y13716
X115062Y4763
X75692Y38100
X36576Y5588
X56134Y29972
X95504Y12890
X36830Y4763
X75946Y37275
X153924Y13716
X115062Y2794
X36576Y13716
X115062Y29146
X36830Y2794
X56388Y29146
X36830Y12890
X154178Y59690
X154178Y12890
X154178Y19050
X36576Y38100
X36830Y35306
X36830Y10922
X75946Y27178
X95504Y27178
X154178Y10922
X36576Y29972
X95250Y21844
X134366Y5588
X134366Y29972
X56134Y5588
X56388Y27178
X134620Y4763
X56388Y4763
X95504Y21019
X56134Y21844
X134366Y21844
X36830Y29146
X56388Y21019
X56388Y2794
X134620Y2794
X114808Y13716
X56388Y37275
X134620Y21019
X56134Y13716
X115062Y12890
X154178Y27178
X56388Y12890
X95504Y19050
X115062Y27178
X56388Y19050
X17018Y21844
X115062Y10922
X56388Y10922
X134620Y29146
X75692Y5588
X17272Y35306
X153924Y5588
X75946Y4763
X17272Y21019
X36830Y27178
X154178Y4763
X134620Y19050
X36830Y37275
X75946Y2794
X17018Y29972
X75946Y35306
X17272Y19050
X154178Y2794
X17018Y38100
X17272Y29146
X56388Y35306
X134620Y27178
X153924Y29972
X56134Y38100
X75692Y13716
X134366Y13716
X17272Y37275
X95250Y38100
X95504Y37275
X95504Y35306
X114808Y38100
X115062Y37275
X115062Y35306
X134366Y38100
X134620Y37275
X134620Y35306
X153924Y38100
X154178Y37275
X154178Y35306
X17018Y46228
X17272Y45402
X17272Y43434
X36576Y46228
X36830Y45402
X36830Y43434
X56134Y46228
X56388Y45402
X56388Y43434
X75692Y46228
X75946Y45402
X75946Y43434
X95250Y46228
X95504Y45402
X95504Y43434
X114808Y46228
X115062Y45402
X115062Y43434
X134366Y46228
X134620Y45402
X134620Y43434
X153924Y46228
X17018Y54356
X154178Y45402
X154178Y43434
X17272Y53530
X17272Y51562
X36576Y54356
X36830Y53530
X36830Y51562
X56134Y54356
X56388Y53530
X56388Y51562
X75692Y54356
X75946Y53530
X75946Y51562
X95250Y54356
X95504Y53530
X95504Y51562
X114808Y54356
X115062Y53530
X115062Y51562
X134366Y54356
X134620Y53530
X134620Y51562
X153924Y54356
X154178Y53530
X154178Y51562
X17018Y62484
X17272Y61658
X17272Y59690
X36576Y62484
X36830Y61658
X36830Y59690
X56134Y62484
X56388Y61658
X56388Y59690
X75692Y62484
X75946Y61658
X75946Y59690
X95250Y62484
X95504Y61658
X95504Y59690
X114808Y62484
X115062Y61658
X115062Y59690
X134366Y62484
X134620Y61658
X134620Y59690
X153924Y62484
X154178Y61658
T4
X89385Y10744
X89607Y13208
X85827Y13208
X94082Y11887
X89540Y14173
X91592Y14249
X91339Y9780
X89510Y15037
X90627Y9972
X90221Y13945
X112725Y15037
X111836Y9601
X107696Y8814
X104013Y13513
X106502Y14402
X113792Y9068
X115189Y11735
X105283Y11608
X114249Y12878
X107188Y11989
X108331Y10393
X108356Y9350
X108943Y10744
X109165Y13208
X105385Y13208
X113640Y11887
X109098Y14173
X111150Y14249
X110897Y9780
X109068Y15037
X110185Y9972
X109779Y13945
X132283Y15037
X131394Y9601
X127254Y8814
X123571Y13513
X126060Y14402
X133350Y9068
X134747Y11735
X124841Y11608
X133807Y12878
X126746Y11989
X127889Y10393
X127914Y9350
X128501Y10744
X128723Y13208
X124943Y13208
X133198Y11887
X128656Y14173
X130708Y14249
X130455Y9780
X128626Y15037
X129743Y9972
X129337Y13945
X151841Y15037
X150952Y9601
X146812Y8814
X143129Y13513
X145618Y14402
X152908Y9068
X154305Y11735
X144399Y11608
X153365Y12878
X146304Y11989
X147447Y10393
X147472Y9350
X148059Y10744
X148281Y13208
X144501Y13208
X152756Y11887
X148214Y14173
X150266Y14249
X150013Y9780
X148184Y15037
X149301Y9972
X148895Y13945
X14935Y23165
X14046Y17729
X9906Y16942
X6223Y21641
X8712Y22530
X16002Y17196
X17399Y19863
X7493Y19736
X16459Y21006
X9398Y20117
X10541Y18521
X10566Y17478
X11153Y18872
X11375Y21336
X7595Y21336
X15850Y20015
X11308Y22301
X13360Y22377
X13107Y17908
X11278Y23165
X12395Y18100
X11989Y22073
X34493Y23165
X33604Y17729
X29464Y16942
X25781Y21641
X28270Y22530
X35560Y17196
X36957Y19863
X27051Y19736
X36017Y21006
X28956Y20117
X30099Y18521
X30124Y17478
X30711Y18872
X30933Y21336
X27153Y21336
X35408Y20015
X30866Y22301
X32918Y22377
X32665Y17908
X30836Y23165
X31953Y18100
X31547Y22073
X54051Y23165
X53162Y17729
X49022Y16942
X45339Y21641
X47828Y22530
X55118Y17196
X56515Y19863
X46609Y19736
X55575Y21006
X48514Y20117
X49657Y18521
X49682Y17478
X50269Y18872
X50491Y21336
X46711Y21336
X54966Y20015
X50424Y22301
X52476Y22377
X52223Y17908
X50394Y23165
X51511Y18100
X51105Y22073
X73609Y23165
X72720Y17729
X68580Y16942
X64897Y21641
X67386Y22530
X74676Y17196
X76073Y19863
X66167Y19736
X75133Y21006
X68072Y20117
X69215Y18521
X69240Y17478
X69827Y18872
X70049Y21336
X66269Y21336
X74524Y20015
X69982Y22301
X72034Y22377
X71781Y17908
X69952Y23165
X71069Y18100
X70663Y22073
X93167Y23165
X92278Y17729
X88138Y16942
X84455Y21641
X86944Y22530
X94234Y17196
X95631Y19863
X85725Y19736
X94691Y21006
X87630Y20117
X88773Y18521
X88798Y17478
X89385Y18872
X89607Y21336
X85827Y21336
X94082Y20015
X89540Y22301
X91592Y22377
X91339Y17908
X89510Y23165
X90627Y18100
X90221Y22073
X112725Y23165
X111836Y17729
X107696Y16942
X104013Y21641
X106502Y22530
X113792Y17196
X115189Y19863
X105283Y19736
X114249Y21006
X107188Y20117
X108331Y18521
X108356Y17478
X108943Y18872
X109165Y21336
X105385Y21336
X113640Y20015
X109098Y22301
X111150Y22377
X110897Y17908
X109068Y23165
X110185Y18100
X109779Y22073
X132283Y23165
X131394Y17729
X127254Y16942
X123571Y21641
X126060Y22530
X133350Y17196
X134747Y19863
X124841Y19736
X133807Y21006
X126746Y20117
X127889Y18521
X127914Y17478
X128501Y18872
X128723Y21336
X124943Y21336
X133198Y20015
X128656Y22301
X130708Y22377
X130455Y17908
X128626Y23165
X129743Y18100
X129337Y22073
X151841Y23165
X150952Y17729
X146812Y16942
X143129Y21641
X145618Y22530
X152908Y17196
X154305Y19863
X144399Y19736
X153365Y21006
X146304Y20117
X147447Y18521
X147472Y17478
X148059Y18872
X148281Y21336
X144501Y21336
X152756Y20015
X148214Y22301
X150266Y22377
X150013Y17908
X148184Y23165
X149301Y18100
X148895Y22073
X14935Y31293
X14046Y25857
X9906Y25070
X6223Y29769
X8712Y30658
X16002Y25324
X17399Y27991
X7493Y27864
X16459Y29134
X9398Y28245
X10541Y26649
X10566Y25606
X11153Y27000
X11375Y29464
X7595Y29464
X15850Y28143
X11308Y30429
X13360Y30505
X13107Y26036
X11278Y31293
X12395Y26228
X11989Y30201
X34493Y31293
X33604Y25857
X29464Y25070
X25781Y29769
X28270Y30658
X35560Y25324
X36957Y27991
X27051Y27864
X36017Y29134
X28956Y28245
X30099Y26649
X30124Y25606
X30711Y27000
X30933Y29464
X27153Y29464
X35408Y28143
X30866Y30429
X32918Y30505
X32665Y26036
X30836Y31293
X31953Y26228
X31547Y30201
X54051Y31293
X53162Y25857
X49022Y25070
X45339Y29769
X47828Y30658
X55118Y25324
X56515Y27991
X46609Y27864
X55575Y29134
X48514Y28245
X49657Y26649
X49682Y25606
X50269Y27000
X50491Y29464
X46711Y29464
X54966Y28143
X50424Y30429
X52476Y30505
X52223Y26036
X50394Y31293
X51511Y26228
X51105Y30201
X73609Y31293
X72720Y25857
X68580Y25070
X64897Y29769
X67386Y30658
X74676Y25324
X76073Y27991
X66167Y27864
X75133Y29134
X68072Y28245
X69215Y26649
X69240Y25606
X69827Y27000
X70049Y29464
X66269Y29464
X74524Y28143
X69982Y30429
X72034Y30505
X71781Y26036
X69952Y31293
X71069Y26228
X70663Y30201
X93167Y31293
X92278Y25857
X88138Y25070
X84455Y29769
X86944Y30658
X94234Y25324
X95631Y27991
X85725Y27864
X94691Y29134
X87630Y28245
X88773Y26649
X88798Y25606
X89385Y27000
X89607Y29464
X85827Y29464
X94082Y28143
X89540Y30429
X91592Y30505
X91339Y26036
X89510Y31293
X90627Y26228
X90221Y30201
X112725Y31293
X111836Y25857
X107696Y25070
X104013Y29769
X106502Y30658
X113792Y25324
X115189Y27991
X105283Y27864
X114249Y29134
X107188Y28245
X108331Y26649
X108356Y25606
X108943Y27000
X109165Y29464
X105385Y29464
X113640Y28143
X109098Y30429
X111150Y30505
X110897Y26036
X109068Y31293
X110185Y26228
X109779Y30201
X132283Y31293
X131394Y25857
X127254Y25070
X123571Y29769
X126060Y30658
X133350Y25324
X134747Y27991
X124841Y27864
X133807Y29134
X126746Y28245
X127889Y26649
X127914Y25606
X128501Y27000
X128723Y29464
X124943Y29464
X133198Y28143
X128656Y30429
X130708Y30505
X130455Y26036
X128626Y31293
X129743Y26228
X129337Y30201
X151841Y31293
X150952Y25857
X146812Y25070
X143129Y29769
X145618Y30658
X152908Y25324
X154305Y27991
X144399Y27864
X153365Y29134
X146304Y28245
X147447Y26649
X147472Y25606
X148059Y27000
X148281Y29464
X144501Y29464
X152756Y28143
X148214Y30429
X150266Y30505
X150013Y26036
X148184Y31293
X149301Y26228
X148895Y30201
X14935Y39421
X14046Y33985
X9906Y33198
X6223Y37897
X8712Y38786
X16002Y33452
X17399Y36119
X7493Y35992
X16459Y37262
X9398Y36373
X10541Y34777
X10566Y33734
X11153Y35128
X11375Y37592
X7595Y37592
X15850Y36271
X11308Y38557
X13360Y38633
X13107Y34164
X11278Y39421
X12395Y34356
X11989Y38329
X34493Y39421
X33604Y33985
X29464Y33198
X25781Y37897
X28270Y38786
X35560Y33452
X36957Y36119
X27051Y35992
X36017Y37262
X28956Y36373
X30099Y34777
X30124Y33734
X30711Y35128
X30933Y37592
X27153Y37592
X35408Y36271
X30866Y38557
X32918Y38633
X32665Y34164
X30836Y39421
X31953Y34356
X31547Y38329
X54051Y39421
X53162Y33985
X49022Y33198
X45339Y37897
X47828Y38786
X55118Y33452
X56515Y36119
X46609Y35992
X55575Y37262
X48514Y36373
X49657Y34777
X49682Y33734
X50269Y35128
X50491Y37592
X46711Y37592
X54966Y36271
X50424Y38557
X52476Y38633
X52223Y34164
X50394Y39421
X51511Y34356
X51105Y38329
X73609Y39421
X72720Y33985
X68580Y33198
X64897Y37897
X67386Y38786
X74676Y33452
X76073Y36119
X66167Y35992
X75133Y37262
X68072Y36373
X69215Y34777
X69240Y33734
X69827Y35128
X70049Y37592
X66269Y37592
X74524Y36271
X69982Y38557
X72034Y38633
X71781Y34164
X69952Y39421
X71069Y34356
X70663Y38329
X93167Y39421
X92278Y33985
X88138Y33198
X84455Y37897
X86944Y38786
X94234Y33452
X95631Y36119
X85725Y35992
X94691Y37262
X87630Y36373
X14935Y6909
X88773Y34777
X88798Y33734
X14046Y1473
X89385Y35128
X89607Y37592
X85827Y37592
X94082Y36271
X89540Y38557
X9906Y686
X91592Y38633
X91339Y34164
X89510Y39421
X90627Y34356
X90221Y38329
X112725Y39421
X111836Y33985
X107696Y33198
X104013Y37897
X106502Y38786
X113792Y33452
X115189Y36119
X105283Y35992
X114249Y37262
X107188Y36373
X6223Y5385
X108331Y34777
X108356Y33734
X8712Y6274
X108943Y35128
X109165Y37592
X105385Y37592
X113640Y36271
X109098Y38557
X16002Y940
X111150Y38633
X110897Y34164
X109068Y39421
X110185Y34356
X109779Y38329
X132283Y39421
X131394Y33985
X127254Y33198
X123571Y37897
X126060Y38786
X133350Y33452
X134747Y36119
X124841Y35992
X133807Y37262
X126746Y36373
X17399Y3607
X127889Y34777
X127914Y33734
X7493Y3480
X128501Y35128
X128723Y37592
X124943Y37592
X133198Y36271
X128656Y38557
X16459Y4750
X130708Y38633
X130455Y34164
X128626Y39421
X129743Y34356
X129337Y38329
X151841Y39421
X150952Y33985
X146812Y33198
X143129Y37897
X145618Y38786
X152908Y33452
X154305Y36119
X144399Y35992
X153365Y37262
X146304Y36373
X9398Y3861
X147447Y34777
X147472Y33734
X10541Y2265
X148059Y35128
X148281Y37592
X144501Y37592
X152756Y36271
X148214Y38557
X10566Y1222
X150266Y38633
X150013Y34164
X148184Y39421
X149301Y34356
X148895Y38329
X14935Y47549
X14046Y42113
X9906Y41326
X6223Y46025
X8712Y46914
X16002Y41580
X17399Y44247
X7493Y44120
X16459Y45390
X9398Y44501
X11153Y2616
X10541Y42905
X10566Y41862
X11375Y5080
X11153Y43256
X11375Y45720
X7595Y45720
X15850Y44399
X11308Y46685
X7595Y5080
X13360Y46761
X13107Y42292
X11278Y47549
X12395Y42484
X11989Y46457
X34493Y47549
X33604Y42113
X29464Y41326
X25781Y46025
X28270Y46914
X35560Y41580
X36957Y44247
X27051Y44120
X36017Y45390
X28956Y44501
X15850Y3759
X30099Y42905
X30124Y41862
X11308Y6045
X30711Y43256
X30933Y45720
X27153Y45720
X35408Y44399
X30866Y46685
X13360Y6121
X32918Y46761
X32665Y42292
X30836Y47549
X31953Y42484
X31547Y46457
X54051Y47549
X53162Y42113
X49022Y41326
X45339Y46025
X47828Y46914
X55118Y41580
X56515Y44247
X46609Y44120
X55575Y45390
X48514Y44501
X13107Y1652
X49657Y42905
X49682Y41862
X11278Y6909
X50269Y43256
X50491Y45720
X46711Y45720
X54966Y44399
X50424Y46685
X12395Y1844
X52476Y46761
X52223Y42292
X50394Y47549
X51511Y42484
X51105Y46457
X73609Y47549
X72720Y42113
X68580Y41326
X64897Y46025
X67386Y46914
X74676Y41580
X76073Y44247
X66167Y44120
X75133Y45390
X68072Y44501
X11989Y5817
X69215Y42905
X69240Y41862
X34493Y6909
X69827Y43256
X70049Y45720
X66269Y45720
X74524Y44399
X69982Y46685
X33604Y1473
X72034Y46761
X71781Y42292
X69952Y47549
X71069Y42484
X70663Y46457
X93167Y47549
X92278Y42113
X88138Y41326
X84455Y46025
X86944Y46914
X94234Y41580
X95631Y44247
X85725Y44120
X94691Y45390
X87630Y44501
X29464Y686
X88773Y42905
X88798Y41862
X25781Y5385
X89385Y43256
X89607Y45720
X85827Y45720
X94082Y44399
X89540Y46685
X28270Y6274
X91592Y46761
X91339Y42292
X89510Y47549
X90627Y42484
X90221Y46457
X112725Y47549
X111836Y42113
X107696Y41326
X104013Y46025
X106502Y46914
X113792Y41580
X115189Y44247
X105283Y44120
X114249Y45390
X107188Y44501
X35560Y940
X108331Y42905
X108356Y41862
X36957Y3607
X108943Y43256
X109165Y45720
X105385Y45720
X113640Y44399
X109098Y46685
X27051Y3480
X111150Y46761
X110897Y42292
X109068Y47549
X110185Y42484
X109779Y46457
X132283Y47549
X131394Y42113
X127254Y41326
X123571Y46025
X126060Y46914
X133350Y41580
X134747Y44247
X124841Y44120
X133807Y45390
X126746Y44501
X36017Y4750
X127889Y42905
X127914Y41862
X28956Y3861
X128501Y43256
X128723Y45720
X124943Y45720
X133198Y44399
X128656Y46685
X30099Y2265
X130708Y46761
X130455Y42292
X128626Y47549
X129743Y42484
X129337Y46457
X151841Y47549
X150952Y42113
X146812Y41326
X143129Y46025
X145618Y46914
X152908Y41580
X154305Y44247
X144399Y44120
X153365Y45390
X146304Y44501
X30124Y1222
X147447Y42905
X147472Y41862
X30711Y2616
X148059Y43256
X148281Y45720
X144501Y45720
X152756Y44399
X148214Y46685
X30933Y5080
X150266Y46761
X150013Y42292
X148184Y47549
X149301Y42484
X148895Y46457
X14935Y55677
X14046Y50241
X9906Y49454
X6223Y54153
X8712Y55042
X16002Y49708
X17399Y52375
X7493Y52248
X16459Y53518
X9398Y52629
X27153Y5080
X10541Y51033
X10566Y49990
X35408Y3759
X11153Y51384
X11375Y53848
X7595Y53848
X15850Y52527
X11308Y54813
X30866Y6045
X13360Y54889
X13107Y50420
X11278Y55677
X12395Y50612
X11989Y54585
X34493Y55677
X33604Y50241
X29464Y49454
X25781Y54153
X28270Y55042
X35560Y49708
X36957Y52375
X27051Y52248
X36017Y53518
X28956Y52629
X32918Y6121
X30099Y51033
X30124Y49990
X32665Y1652
X30711Y51384
X30933Y53848
X27153Y53848
X35408Y52527
X30866Y54813
X30836Y6909
X32918Y54889
X32665Y50420
X30836Y55677
X31953Y50612
X31547Y54585
X54051Y55677
X53162Y50241
X49022Y49454
X45339Y54153
X47828Y55042
X55118Y49708
X56515Y52375
X46609Y52248
X55575Y53518
X48514Y52629
X31953Y1844
X49657Y51033
X49682Y49990
X31547Y5817
X50269Y51384
X50491Y53848
X46711Y53848
X54966Y52527
X50424Y54813
X54051Y6909
X52476Y54889
X52223Y50420
X50394Y55677
X51511Y50612
X51105Y54585
X73609Y55677
X72720Y50241
X68580Y49454
X64897Y54153
X67386Y55042
X74676Y49708
X76073Y52375
X66167Y52248
X75133Y53518
X68072Y52629
X53162Y1473
X69215Y51033
X69240Y49990
X49022Y686
X69827Y51384
X70049Y53848
X66269Y53848
X74524Y52527
X69982Y54813
X45339Y5385
X72034Y54889
X71781Y50420
X69952Y55677
X71069Y50612
X70663Y54585
X93167Y55677
X92278Y50241
X88138Y49454
X84455Y54153
X86944Y55042
X94234Y49708
X95631Y52375
X85725Y52248
X94691Y53518
X87630Y52629
X47828Y6274
X88773Y51033
X88798Y49990
X55118Y940
X89385Y51384
X89607Y53848
X85827Y53848
X94082Y52527
X89540Y54813
X56515Y3607
X91592Y54889
X91339Y50420
X89510Y55677
X90627Y50612
X90221Y54585
X112725Y55677
X111836Y50241
X107696Y49454
X104013Y54153
X106502Y55042
X113792Y49708
X115189Y52375
X105283Y52248
X114249Y53518
X107188Y52629
X46609Y3480
X108331Y51033
X108356Y49990
X55575Y4750
X108943Y51384
X109165Y53848
X105385Y53848
X113640Y52527
X48514Y3861
X49657Y2265
X111150Y54889
X110897Y50420
X109068Y55677
X110185Y50612
X109779Y54585
X132283Y55677
X131394Y50241
X127254Y49454
X123571Y54153
X126060Y55042
X133350Y49708
X134747Y52375
X124841Y52248
X133807Y53518
X126746Y52629
X49682Y1222
X127889Y51033
X127914Y49990
X50269Y2616
X128501Y51384
X128723Y53848
X124943Y53848
X133198Y52527
X128656Y54813
X50491Y5080
X130708Y54889
X130455Y50420
X128626Y55677
X129743Y50612
X129337Y54585
X151841Y55677
X150952Y50241
X146812Y49454
X143129Y54153
X145618Y55042
X152908Y49708
X154305Y52375
X144399Y52248
X153365Y53518
X146304Y52629
X46711Y5080
X147447Y51033
X147472Y49990
X54966Y3759
X148059Y51384
X148281Y53848
X144501Y53848
X152756Y52527
X148214Y54813
X50424Y6045
X150266Y54889
X150013Y50420
X148184Y55677
X149301Y50612
X148895Y54585
X14935Y63805
X14046Y58369
X9906Y57582
X6223Y62281
X8712Y63170
X16002Y57836
X17399Y60503
X7493Y60376
X16459Y61646
X9398Y60757
X52476Y6121
X10541Y59161
X10566Y58118
X52223Y1652
X11153Y59512
X11375Y61976
X7595Y61976
X15850Y60655
X11308Y62941
X50394Y6909
X13360Y63017
X13107Y58548
X11278Y63805
X12395Y58740
X11989Y62713
X34493Y63805
X33604Y58369
X29464Y57582
X25781Y62281
X28270Y63170
X35560Y57836
X36957Y60503
X27051Y60376
X36017Y61646
X28956Y60757
X51511Y1844
X30099Y59161
X30124Y58118
X51105Y5817
X30711Y59512
X30933Y61976
X27153Y61976
X35408Y60655
X30866Y62941
X73609Y6909
X32918Y63017
X32665Y58548
X30836Y63805
X31953Y58740
X31547Y62713
X54051Y63805
X53162Y58369
X49022Y57582
X45339Y62281
X47828Y63170
X55118Y57836
X56515Y60503
X46609Y60376
X55575Y61646
X48514Y60757
X72720Y1473
X49657Y59161
X49682Y58118
X68580Y686
X50269Y59512
X50491Y61976
X46711Y61976
X54966Y60655
X50424Y62941
X64897Y5385
X52476Y63017
X52223Y58548
X50394Y63805
X51511Y58740
X51105Y62713
X73609Y63805
X72720Y58369
X68580Y57582
X64897Y62281
X67386Y63170
X74676Y57836
X76073Y60503
X66167Y60376
X75133Y61646
X68072Y60757
X67386Y6274
X69215Y59161
X69240Y58118
X74676Y940
X69827Y59512
X70049Y61976
X66269Y61976
X74524Y60655
X69982Y62941
X76073Y3607
X72034Y63017
X71781Y58548
X69952Y63805
X71069Y58740
X70663Y62713
X93167Y63805
X92278Y58369
X88138Y57582
X84455Y62281
X86944Y63170
X94234Y57836
X95631Y60503
X85725Y60376
X94691Y61646
X87630Y60757
X66167Y3480
X88773Y59161
X88798Y58118
X75133Y4750
X89385Y59512
X89607Y61976
X85827Y61976
X94082Y60655
X89540Y62941
X68072Y3861
X91592Y63017
X91339Y58548
X89510Y63805
X90627Y58740
X90221Y62713
X112725Y63805
X111836Y58369
X107696Y57582
X104013Y62281
X106502Y63170
X113792Y57836
X115189Y60503
X105283Y60376
X114249Y61646
X107188Y60757
X69215Y2265
X108331Y59161
X108356Y58118
X69240Y1222
X108943Y59512
X109165Y61976
X105385Y61976
X113640Y60655
X109098Y62941
X69827Y2616
X111150Y63017
X110897Y58548
X109068Y63805
X110185Y58740
X109779Y62713
X132283Y63805
X131394Y58369
X127254Y57582
X123571Y62281
X126060Y63170
X133350Y57836
X134747Y60503
X124841Y60376
X133807Y61646
X126746Y60757
X70049Y5080
X127889Y59161
X127914Y58118
X66269Y5080
X128501Y59512
X128723Y61976
X124943Y61976
X109098Y54813
X128656Y62941
X74524Y3759
X130708Y63017
X130455Y58548
X128626Y63805
X129743Y58740
X129337Y62713
X151841Y63805
X150952Y58369
X146812Y57582
X143129Y62281
X145618Y63170
X152908Y57836
X154305Y60503
X144399Y60376
X153365Y61646
X146304Y60757
X69982Y6045
X147447Y59161
X147472Y58118
X72034Y6121
X148059Y59512
X148281Y61976
X144501Y61976
X152756Y60655
X148214Y62941
X71781Y1652
X150266Y63017
X150013Y58548
X148184Y63805
X149301Y58740
X148895Y62713
X69952Y6909
X71069Y1844
X70663Y5817
X93167Y6909
X92278Y1473
X88138Y686
X84455Y5385
X86944Y6274
X94234Y940
X95631Y3607
X85725Y3480
X94691Y4750
X87630Y3861
X88773Y2265
X88798Y1222
X89385Y2616
X89607Y5080
X85827Y5080
X94082Y3759
X89540Y6045
X91592Y6121
X91339Y1652
X89510Y6909
X90627Y1844
X90221Y5817
X112725Y6909
X111836Y1473
X107696Y686
X104013Y5385
X106502Y6274
X113792Y940
X115189Y3607
X105283Y3480
X114249Y4750
X107188Y3861
X108331Y2265
X108356Y1222
X108943Y2616
X109165Y5080
X105385Y5080
X113640Y3759
X109098Y6045
X111150Y6121
X110897Y1652
X109068Y6909
X110185Y1844
X109779Y5817
X132283Y6909
X131394Y1473
X127254Y686
X123571Y5385
X126060Y6274
X133350Y940
X134747Y3607
X124841Y3480
X133807Y4750
X126746Y3861
X127889Y2265
X127914Y1222
X128501Y2616
X128723Y5080
X124943Y5080
X133198Y3759
X128656Y6045
X130708Y6121
X130455Y1652
X128626Y6909
X129743Y1844
X129337Y5817
X151841Y6909
X150952Y1473
X146812Y686
X143129Y5385
X145618Y6274
X152908Y940
X154305Y3607
X144399Y3480
X153365Y4750
X146304Y3861
X147447Y2265
X147472Y1222
X148059Y2616
X148281Y5080
X144501Y5080
X152756Y3759
X148214Y6045
X150266Y6121
X150013Y1652
X148184Y6909
X149301Y1844
X148895Y5817
X14935Y15037
X14046Y9601
X9906Y8814
X6223Y13513
X8712Y14402
X16002Y9068
X17399Y11735
X7493Y11608
X16459Y12878
X9398Y11989
X10541Y10393
X10566Y9350
X11153Y10744
X11375Y13208
X7595Y13208
X15850Y11887
X11308Y14173
X13360Y14249
X13107Y9780
X11278Y15037
X12395Y9972
X11989Y13945
X34493Y15037
X33604Y9601
X29464Y8814
X25781Y13513
X28270Y14402
X35560Y9068
X36957Y11735
X27051Y11608
X36017Y12878
X28956Y11989
X30099Y10393
X30124Y9350
X30711Y10744
X30933Y13208
X27153Y13208
X35408Y11887
X30866Y14173
X32918Y14249
X32665Y9780
X30836Y15037
X31953Y9972
X31547Y13945
X54051Y15037
X53162Y9601
X49022Y8814
X45339Y13513
X47828Y14402
X55118Y9068
X56515Y11735
X46609Y11608
X55575Y12878
X48514Y11989
X49657Y10393
X49682Y9350
X50269Y10744
X50491Y13208
X46711Y13208
X54966Y11887
X50424Y14173
X52476Y14249
X52223Y9780
X50394Y15037
X51511Y9972
X51105Y13945
X73609Y15037
X72720Y9601
X68580Y8814
X64897Y13513
X67386Y14402
X74676Y9068
X76073Y11735
X66167Y11608
X75133Y12878
X68072Y11989
X69215Y10393
X69240Y9350
X69827Y10744
X70049Y13208
X66269Y13208
X74524Y11887
X69982Y14173
X72034Y14249
X71781Y9780
X69952Y15037
X71069Y9972
X70663Y13945
X93167Y15037
X92278Y9601
X88138Y8814
X84455Y13513
X86944Y14402
X94234Y9068
X95631Y11735
X85725Y11608
X94691Y12878
X87630Y11989
X88773Y10393
X88798Y9350
X133198Y60655
M30