G04 EAGLE Gerber RS-274X export*
G75*
%MOMM*%
%FSLAX34Y34*%
%LPD*%
%INSilkscreen Bottom*%
%IPPOS*%
%AMOC8*
5,1,8,0,0,1.08239X$1,22.5*%
G01*
%ADD10C,0.254000*%
%ADD11C,0.152400*%
%ADD12C,0.203200*%

G36*
X143892Y7301D02*
X143892Y7301D01*
X143896Y7298D01*
X145396Y7598D01*
X145400Y7603D01*
X145404Y7600D01*
X145904Y7800D01*
X145906Y7803D01*
X145908Y7802D01*
X146308Y8002D01*
X146311Y8008D01*
X146316Y8007D01*
X147116Y8607D01*
X147117Y8612D01*
X147121Y8611D01*
X147521Y9011D01*
X147522Y9016D01*
X147525Y9016D01*
X148125Y9816D01*
X148125Y9823D01*
X148130Y9824D01*
X148330Y10224D01*
X148329Y10227D01*
X148332Y10228D01*
X148732Y11228D01*
X148730Y11234D01*
X148734Y11236D01*
X148834Y11736D01*
X148831Y11743D01*
X148835Y11746D01*
X148835Y13246D01*
X148831Y13252D01*
X148834Y13256D01*
X148734Y13756D01*
X148729Y13760D01*
X148732Y13764D01*
X148332Y14764D01*
X148329Y14766D01*
X148330Y14768D01*
X148130Y15168D01*
X148124Y15171D01*
X148125Y15176D01*
X147825Y15576D01*
X147820Y15577D01*
X147821Y15581D01*
X146721Y16681D01*
X146707Y16683D01*
X146704Y16692D01*
X146210Y16889D01*
X145816Y17185D01*
X145800Y17185D01*
X145796Y17194D01*
X145300Y17293D01*
X144804Y17492D01*
X144797Y17490D01*
X144795Y17491D01*
X144789Y17491D01*
X144786Y17495D01*
X144291Y17495D01*
X143796Y17594D01*
X143787Y17590D01*
X143781Y17590D01*
X143772Y17583D01*
X143761Y17578D01*
X143749Y17579D01*
X143726Y17552D01*
X143726Y17574D01*
X143701Y17575D01*
X143686Y17595D01*
X112686Y17595D01*
X112679Y17590D01*
X112674Y17594D01*
X112274Y17494D01*
X112251Y17465D01*
X112239Y17456D01*
X112241Y17453D01*
X112237Y17447D01*
X112238Y17447D01*
X112237Y17446D01*
X112237Y7846D01*
X112241Y7840D01*
X112238Y7836D01*
X112338Y7336D01*
X112382Y7297D01*
X112384Y7299D01*
X112386Y7297D01*
X143886Y7297D01*
X143892Y7301D01*
G37*
G36*
X77715Y7333D02*
X77715Y7333D01*
X77710Y7340D01*
X77717Y7346D01*
X77717Y17446D01*
X77681Y17493D01*
X77680Y17493D01*
X77680Y17494D01*
X77280Y17594D01*
X77272Y17590D01*
X77268Y17595D01*
X47668Y17595D01*
X47662Y17591D01*
X47658Y17594D01*
X47163Y17495D01*
X46668Y17495D01*
X46663Y17491D01*
X46659Y17491D01*
X46655Y17489D01*
X46650Y17492D01*
X46153Y17293D01*
X45756Y17194D01*
X45749Y17186D01*
X45743Y17188D01*
X45245Y16889D01*
X44846Y16690D01*
X44841Y16680D01*
X44833Y16681D01*
X44436Y16283D01*
X44038Y15985D01*
X44036Y15976D01*
X44029Y15976D01*
X43429Y15176D01*
X43429Y15166D01*
X43422Y15164D01*
X43225Y14670D01*
X42929Y14276D01*
X42929Y14261D01*
X42924Y14258D01*
X42920Y14256D01*
X42620Y12756D01*
X42623Y12749D01*
X42619Y12746D01*
X42619Y12246D01*
X42623Y12240D01*
X42620Y12236D01*
X42920Y10736D01*
X42925Y10732D01*
X42922Y10728D01*
X43122Y10228D01*
X43130Y10223D01*
X43129Y10216D01*
X43426Y9820D01*
X43624Y9424D01*
X43634Y9419D01*
X43633Y9411D01*
X44031Y9014D01*
X44329Y8616D01*
X44338Y8614D01*
X44338Y8607D01*
X44738Y8307D01*
X44742Y8307D01*
X44743Y8304D01*
X45243Y8004D01*
X45246Y8004D01*
X45246Y8002D01*
X45646Y7802D01*
X45649Y7803D01*
X45650Y7800D01*
X46650Y7400D01*
X46663Y7404D01*
X46668Y7397D01*
X47163Y7397D01*
X47658Y7298D01*
X47665Y7301D01*
X47668Y7297D01*
X77668Y7297D01*
X77715Y7333D01*
G37*
G36*
X181168Y2217D02*
X181168Y2217D01*
X181234Y2223D01*
X181252Y2234D01*
X181273Y2238D01*
X181358Y2298D01*
X181382Y2313D01*
X181385Y2317D01*
X181390Y2321D01*
X183590Y4621D01*
X183598Y4635D01*
X183611Y4645D01*
X183642Y4709D01*
X183678Y4770D01*
X183679Y4786D01*
X183686Y4800D01*
X183685Y4872D01*
X183691Y4943D01*
X183685Y4957D01*
X183684Y4974D01*
X183627Y5099D01*
X183625Y5103D01*
X183625Y5104D01*
X181757Y7719D01*
X181759Y7729D01*
X181768Y7743D01*
X181779Y7801D01*
X181788Y7821D01*
X181788Y7843D01*
X181794Y7877D01*
X181795Y7882D01*
X181795Y7883D01*
X181795Y7894D01*
X181828Y7959D01*
X181884Y8015D01*
X181895Y8033D01*
X181907Y8042D01*
X181915Y8061D01*
X181955Y8114D01*
X182028Y8259D01*
X182084Y8315D01*
X182124Y8380D01*
X182168Y8443D01*
X182170Y8454D01*
X182175Y8462D01*
X182179Y8497D01*
X182195Y8583D01*
X182195Y8633D01*
X182224Y8680D01*
X182268Y8743D01*
X182270Y8754D01*
X182275Y8762D01*
X182279Y8797D01*
X182295Y8883D01*
X182295Y8994D01*
X182328Y9059D01*
X182384Y9115D01*
X182424Y9180D01*
X182468Y9243D01*
X182470Y9254D01*
X182475Y9262D01*
X182479Y9297D01*
X182485Y9331D01*
X182488Y9338D01*
X182488Y9346D01*
X182495Y9383D01*
X182495Y9433D01*
X182524Y9480D01*
X182568Y9543D01*
X182570Y9554D01*
X182575Y9562D01*
X182579Y9597D01*
X182595Y9683D01*
X182595Y9794D01*
X182624Y9851D01*
X185880Y10409D01*
X185898Y10417D01*
X185917Y10418D01*
X185977Y10450D01*
X186039Y10477D01*
X186052Y10491D01*
X186069Y10501D01*
X186108Y10556D01*
X186152Y10608D01*
X186157Y10627D01*
X186168Y10643D01*
X186190Y10753D01*
X186195Y10776D01*
X186194Y10779D01*
X186195Y10783D01*
X186195Y13983D01*
X186191Y14002D01*
X186193Y14021D01*
X186182Y14055D01*
X186181Y14062D01*
X186176Y14072D01*
X186171Y14086D01*
X186156Y14152D01*
X186143Y14167D01*
X186137Y14185D01*
X186089Y14233D01*
X186046Y14285D01*
X186028Y14293D01*
X186014Y14307D01*
X185908Y14346D01*
X185888Y14356D01*
X185884Y14356D01*
X185880Y14357D01*
X182668Y14908D01*
X182657Y14946D01*
X182656Y14952D01*
X182655Y14952D01*
X182655Y14953D01*
X182595Y15073D01*
X182595Y15083D01*
X182592Y15099D01*
X182594Y15115D01*
X182574Y15184D01*
X182574Y15200D01*
X182566Y15214D01*
X182557Y15246D01*
X182556Y15252D01*
X182555Y15252D01*
X182555Y15253D01*
X182495Y15373D01*
X182495Y15383D01*
X182492Y15399D01*
X182494Y15415D01*
X182457Y15546D01*
X182456Y15552D01*
X182455Y15552D01*
X182455Y15553D01*
X182295Y15873D01*
X182295Y15883D01*
X182292Y15899D01*
X182294Y15915D01*
X182257Y16046D01*
X182256Y16052D01*
X182255Y16052D01*
X182255Y16053D01*
X182155Y16253D01*
X182132Y16280D01*
X182095Y16335D01*
X182095Y16383D01*
X182078Y16458D01*
X182064Y16533D01*
X182058Y16543D01*
X182056Y16552D01*
X182033Y16579D01*
X181984Y16651D01*
X181928Y16708D01*
X181855Y16853D01*
X181832Y16880D01*
X181795Y16935D01*
X181795Y16983D01*
X181778Y17058D01*
X181774Y17079D01*
X183628Y19768D01*
X183634Y19784D01*
X183646Y19796D01*
X183666Y19864D01*
X183691Y19929D01*
X183690Y19946D01*
X183695Y19962D01*
X183682Y20032D01*
X183676Y20101D01*
X183667Y20116D01*
X183664Y20133D01*
X183593Y20239D01*
X183586Y20249D01*
X183585Y20250D01*
X183584Y20251D01*
X181384Y22451D01*
X181370Y22460D01*
X181359Y22474D01*
X181297Y22506D01*
X181237Y22543D01*
X181220Y22544D01*
X181205Y22552D01*
X181135Y22552D01*
X181065Y22559D01*
X181049Y22553D01*
X181032Y22553D01*
X180914Y22501D01*
X180903Y22497D01*
X180902Y22496D01*
X180901Y22495D01*
X178202Y20634D01*
X178184Y20651D01*
X178119Y20692D01*
X178057Y20735D01*
X178045Y20738D01*
X178037Y20743D01*
X178002Y20746D01*
X177916Y20762D01*
X177866Y20762D01*
X177854Y20770D01*
X177786Y20822D01*
X177641Y20895D01*
X177584Y20951D01*
X177519Y20992D01*
X177457Y21035D01*
X177445Y21038D01*
X177437Y21043D01*
X177402Y21046D01*
X177316Y21062D01*
X177266Y21062D01*
X177254Y21070D01*
X177186Y21122D01*
X176986Y21222D01*
X176970Y21226D01*
X176957Y21235D01*
X176823Y21261D01*
X176817Y21262D01*
X176816Y21262D01*
X176806Y21262D01*
X176686Y21322D01*
X176670Y21326D01*
X176657Y21335D01*
X176523Y21361D01*
X176517Y21362D01*
X176516Y21362D01*
X176466Y21362D01*
X176419Y21392D01*
X176357Y21435D01*
X176345Y21438D01*
X176337Y21443D01*
X176302Y21446D01*
X176216Y21462D01*
X176106Y21462D01*
X176048Y21491D01*
X175490Y24747D01*
X175482Y24765D01*
X175481Y24785D01*
X175449Y24844D01*
X175422Y24907D01*
X175408Y24919D01*
X175398Y24936D01*
X175343Y24975D01*
X175291Y25020D01*
X175272Y25024D01*
X175257Y25035D01*
X175146Y25057D01*
X175124Y25062D01*
X175120Y25062D01*
X175116Y25062D01*
X171916Y25062D01*
X171897Y25058D01*
X171878Y25061D01*
X171814Y25038D01*
X171748Y25023D01*
X171733Y25011D01*
X171714Y25004D01*
X171667Y24956D01*
X171614Y24913D01*
X171606Y24895D01*
X171593Y24881D01*
X171553Y24775D01*
X171544Y24755D01*
X171544Y24751D01*
X171542Y24747D01*
X170992Y21535D01*
X170953Y21524D01*
X170948Y21523D01*
X170947Y21523D01*
X170946Y21522D01*
X170826Y21462D01*
X170816Y21462D01*
X170800Y21459D01*
X170784Y21461D01*
X170653Y21424D01*
X170648Y21423D01*
X170647Y21423D01*
X170646Y21422D01*
X170526Y21362D01*
X170516Y21362D01*
X170500Y21359D01*
X170484Y21361D01*
X170353Y21324D01*
X170348Y21323D01*
X170347Y21323D01*
X170346Y21322D01*
X170226Y21262D01*
X170116Y21262D01*
X170042Y21245D01*
X169966Y21232D01*
X169957Y21225D01*
X169948Y21223D01*
X169920Y21200D01*
X169848Y21151D01*
X169791Y21095D01*
X169726Y21062D01*
X169716Y21062D01*
X169700Y21059D01*
X169684Y21061D01*
X169553Y21024D01*
X169548Y21023D01*
X169547Y21023D01*
X169546Y21022D01*
X169346Y20922D01*
X169319Y20899D01*
X169248Y20851D01*
X169191Y20795D01*
X169126Y20762D01*
X169116Y20762D01*
X169100Y20759D01*
X169084Y20761D01*
X168953Y20724D01*
X168948Y20723D01*
X168947Y20723D01*
X168946Y20722D01*
X168805Y20652D01*
X166131Y22495D01*
X166119Y22500D01*
X166110Y22509D01*
X166039Y22532D01*
X165970Y22559D01*
X165957Y22557D01*
X165945Y22561D01*
X165872Y22550D01*
X165798Y22544D01*
X165787Y22537D01*
X165774Y22535D01*
X165654Y22457D01*
X163354Y20257D01*
X163340Y20236D01*
X163320Y20220D01*
X163293Y20164D01*
X163259Y20112D01*
X163256Y20087D01*
X163245Y20064D01*
X163246Y20002D01*
X163239Y19940D01*
X163248Y19916D01*
X163248Y19890D01*
X163286Y19811D01*
X163297Y19778D01*
X163304Y19771D01*
X163309Y19761D01*
X165244Y17088D01*
X165204Y17008D01*
X165148Y16951D01*
X165108Y16887D01*
X165064Y16824D01*
X165062Y16812D01*
X165057Y16804D01*
X165053Y16769D01*
X165037Y16683D01*
X165037Y16633D01*
X165029Y16621D01*
X164977Y16553D01*
X164904Y16408D01*
X164848Y16351D01*
X164808Y16287D01*
X164764Y16224D01*
X164762Y16212D01*
X164757Y16204D01*
X164753Y16169D01*
X164737Y16083D01*
X164737Y16033D01*
X164708Y15987D01*
X164664Y15924D01*
X164662Y15912D01*
X164657Y15904D01*
X164653Y15869D01*
X164637Y15783D01*
X164637Y15673D01*
X164604Y15608D01*
X164548Y15551D01*
X164508Y15487D01*
X164464Y15424D01*
X164462Y15412D01*
X164457Y15404D01*
X164453Y15369D01*
X164437Y15283D01*
X164437Y15233D01*
X164408Y15187D01*
X164364Y15124D01*
X164362Y15112D01*
X164357Y15104D01*
X164353Y15069D01*
X164337Y14983D01*
X164337Y14904D01*
X161054Y14357D01*
X161035Y14349D01*
X161015Y14349D01*
X160956Y14317D01*
X160894Y14291D01*
X160881Y14275D01*
X160863Y14266D01*
X160825Y14211D01*
X160781Y14160D01*
X160775Y14140D01*
X160764Y14124D01*
X160748Y14043D01*
X160744Y14032D01*
X160744Y14021D01*
X160743Y14017D01*
X160737Y13993D01*
X160738Y13988D01*
X160737Y13983D01*
X160737Y10783D01*
X160741Y10764D01*
X160739Y10745D01*
X160761Y10681D01*
X160776Y10615D01*
X160789Y10600D01*
X160795Y10581D01*
X160843Y10534D01*
X160886Y10481D01*
X160904Y10473D01*
X160918Y10460D01*
X161024Y10420D01*
X161044Y10411D01*
X161048Y10411D01*
X161052Y10409D01*
X164340Y9846D01*
X164375Y9720D01*
X164376Y9715D01*
X164377Y9714D01*
X164437Y9594D01*
X164437Y9583D01*
X164440Y9567D01*
X164438Y9551D01*
X164475Y9420D01*
X164476Y9415D01*
X164477Y9414D01*
X164537Y9294D01*
X164537Y9283D01*
X164540Y9267D01*
X164538Y9251D01*
X164575Y9120D01*
X164576Y9115D01*
X164577Y9114D01*
X164737Y8794D01*
X164737Y8783D01*
X164740Y8767D01*
X164738Y8751D01*
X164775Y8620D01*
X164776Y8615D01*
X164777Y8614D01*
X164877Y8414D01*
X164900Y8386D01*
X164948Y8315D01*
X165004Y8259D01*
X165037Y8194D01*
X165037Y8183D01*
X165040Y8167D01*
X165038Y8151D01*
X165075Y8020D01*
X165076Y8015D01*
X165077Y8014D01*
X165177Y7814D01*
X165200Y7786D01*
X165248Y7715D01*
X165258Y7705D01*
X163313Y5111D01*
X163303Y5088D01*
X163286Y5070D01*
X163268Y5010D01*
X163243Y4952D01*
X163244Y4928D01*
X163237Y4904D01*
X163248Y4842D01*
X163251Y4779D01*
X163263Y4758D01*
X163268Y4734D01*
X163319Y4658D01*
X163335Y4628D01*
X163342Y4623D01*
X163348Y4615D01*
X165648Y2315D01*
X165662Y2306D01*
X165673Y2292D01*
X165735Y2261D01*
X165795Y2224D01*
X165812Y2222D01*
X165827Y2214D01*
X165898Y2214D01*
X165967Y2207D01*
X165983Y2214D01*
X166000Y2213D01*
X166118Y2265D01*
X166129Y2269D01*
X166130Y2270D01*
X166131Y2271D01*
X168830Y4132D01*
X168848Y4115D01*
X168913Y4075D01*
X168975Y4031D01*
X168987Y4029D01*
X168995Y4024D01*
X169030Y4020D01*
X169045Y4018D01*
X169048Y4015D01*
X169113Y3975D01*
X169175Y3931D01*
X169187Y3929D01*
X169195Y3924D01*
X169230Y3920D01*
X169316Y3904D01*
X169366Y3904D01*
X169413Y3875D01*
X169475Y3831D01*
X169487Y3829D01*
X169495Y3824D01*
X169530Y3820D01*
X169545Y3818D01*
X169548Y3815D01*
X169613Y3775D01*
X169675Y3731D01*
X169687Y3729D01*
X169695Y3724D01*
X169730Y3720D01*
X169745Y3718D01*
X169748Y3715D01*
X169813Y3675D01*
X169875Y3631D01*
X169887Y3629D01*
X169895Y3624D01*
X169930Y3620D01*
X169959Y3615D01*
X169986Y3581D01*
X170005Y3573D01*
X170020Y3559D01*
X170083Y3538D01*
X170144Y3511D01*
X170165Y3512D01*
X170184Y3505D01*
X170250Y3515D01*
X170317Y3518D01*
X170335Y3528D01*
X170355Y3530D01*
X170410Y3569D01*
X170469Y3601D01*
X170481Y3617D01*
X170497Y3629D01*
X170554Y3722D01*
X170568Y3743D01*
X170569Y3747D01*
X170572Y3751D01*
X172572Y9151D01*
X172576Y9182D01*
X172588Y9210D01*
X172586Y9267D01*
X172593Y9323D01*
X172583Y9352D01*
X172582Y9383D01*
X172555Y9433D01*
X172536Y9487D01*
X172514Y9508D01*
X172499Y9535D01*
X172439Y9581D01*
X172412Y9608D01*
X172399Y9612D01*
X172386Y9622D01*
X171841Y9895D01*
X171684Y10051D01*
X171654Y10070D01*
X171586Y10122D01*
X171441Y10195D01*
X171128Y10508D01*
X171055Y10653D01*
X171032Y10680D01*
X170984Y10751D01*
X170828Y10908D01*
X170767Y11029D01*
X170676Y11303D01*
X170664Y11323D01*
X170655Y11353D01*
X170595Y11473D01*
X170595Y11583D01*
X170587Y11618D01*
X170576Y11703D01*
X170495Y11945D01*
X170495Y12722D01*
X170576Y12963D01*
X170579Y12999D01*
X170595Y13083D01*
X170595Y13268D01*
X170732Y13473D01*
X170745Y13508D01*
X170776Y13563D01*
X170860Y13815D01*
X171211Y14342D01*
X171558Y14688D01*
X172084Y15039D01*
X172336Y15123D01*
X172354Y15135D01*
X172368Y15138D01*
X172381Y15148D01*
X172426Y15168D01*
X172631Y15304D01*
X172816Y15304D01*
X172851Y15312D01*
X172936Y15323D01*
X173178Y15404D01*
X173769Y15404D01*
X174124Y15315D01*
X174160Y15315D01*
X174216Y15304D01*
X174401Y15304D01*
X174606Y15168D01*
X174641Y15155D01*
X174690Y15127D01*
X174692Y15125D01*
X174693Y15125D01*
X174696Y15123D01*
X174948Y15039D01*
X175175Y14888D01*
X175348Y14715D01*
X175374Y14699D01*
X175406Y14668D01*
X175675Y14488D01*
X175821Y14342D01*
X176172Y13815D01*
X176537Y12722D01*
X176537Y12245D01*
X176456Y12003D01*
X176453Y11967D01*
X176437Y11883D01*
X176437Y11673D01*
X176277Y11353D01*
X176271Y11330D01*
X176256Y11303D01*
X176165Y11029D01*
X176004Y10708D01*
X175848Y10551D01*
X175829Y10521D01*
X175777Y10453D01*
X175704Y10308D01*
X175591Y10195D01*
X175446Y10122D01*
X175419Y10099D01*
X175348Y10051D01*
X175191Y9895D01*
X174870Y9734D01*
X174596Y9643D01*
X174547Y9613D01*
X174494Y9591D01*
X174474Y9568D01*
X174449Y9552D01*
X174418Y9503D01*
X174381Y9460D01*
X174373Y9431D01*
X174357Y9406D01*
X174351Y9348D01*
X174337Y9293D01*
X174343Y9259D01*
X174340Y9233D01*
X174352Y9202D01*
X174360Y9151D01*
X176360Y3751D01*
X176386Y3713D01*
X176402Y3670D01*
X176433Y3642D01*
X176456Y3607D01*
X176496Y3584D01*
X176529Y3553D01*
X176569Y3541D01*
X176606Y3520D01*
X176651Y3517D01*
X176695Y3505D01*
X176736Y3512D01*
X176778Y3509D01*
X176821Y3527D01*
X176866Y3535D01*
X176907Y3563D01*
X176938Y3576D01*
X176955Y3595D01*
X176968Y3604D01*
X177016Y3604D01*
X177090Y3621D01*
X177166Y3635D01*
X177175Y3641D01*
X177184Y3643D01*
X177212Y3666D01*
X177284Y3715D01*
X177291Y3721D01*
X177366Y3735D01*
X177375Y3741D01*
X177384Y3743D01*
X177412Y3766D01*
X177484Y3815D01*
X177491Y3821D01*
X177566Y3835D01*
X177575Y3841D01*
X177584Y3843D01*
X177612Y3866D01*
X177684Y3915D01*
X177691Y3921D01*
X177766Y3935D01*
X177775Y3941D01*
X177784Y3943D01*
X177812Y3966D01*
X177884Y4015D01*
X177891Y4021D01*
X177966Y4035D01*
X177975Y4041D01*
X177984Y4043D01*
X178012Y4066D01*
X178084Y4115D01*
X178091Y4121D01*
X178166Y4135D01*
X178175Y4141D01*
X178184Y4143D01*
X178185Y4144D01*
X180901Y2271D01*
X180921Y2263D01*
X180937Y2249D01*
X181000Y2232D01*
X181062Y2208D01*
X181083Y2210D01*
X181104Y2204D01*
X181168Y2217D01*
G37*
G36*
X137274Y71309D02*
X137274Y71309D01*
X137278Y71306D01*
X137773Y71405D01*
X138268Y71405D01*
X138279Y71413D01*
X138286Y71408D01*
X138786Y71608D01*
X138788Y71611D01*
X138790Y71610D01*
X139188Y71809D01*
X139686Y72008D01*
X139691Y72016D01*
X139698Y72015D01*
X140498Y72615D01*
X140499Y72620D01*
X140503Y72619D01*
X141203Y73319D01*
X141204Y73328D01*
X141210Y73329D01*
X141510Y73829D01*
X141510Y73832D01*
X141512Y73832D01*
X141712Y74232D01*
X141711Y74235D01*
X141714Y74236D01*
X142114Y75236D01*
X142112Y75242D01*
X142116Y75244D01*
X142216Y75744D01*
X142213Y75751D01*
X142217Y75754D01*
X142217Y77254D01*
X142213Y77260D01*
X142216Y77264D01*
X142116Y77764D01*
X142111Y77768D01*
X142114Y77772D01*
X141914Y78272D01*
X141911Y78274D01*
X141912Y78276D01*
X141713Y78674D01*
X141514Y79172D01*
X141506Y79177D01*
X141507Y79184D01*
X141207Y79584D01*
X141202Y79585D01*
X141203Y79589D01*
X140503Y80289D01*
X140498Y80290D01*
X140498Y80293D01*
X139698Y80893D01*
X139688Y80893D01*
X139686Y80900D01*
X138186Y81500D01*
X138179Y81498D01*
X138177Y81500D01*
X138171Y81500D01*
X138168Y81503D01*
X137673Y81503D01*
X137178Y81602D01*
X137169Y81598D01*
X137165Y81598D01*
X137159Y81593D01*
X137124Y81576D01*
X137110Y81548D01*
X137108Y81550D01*
X137102Y81590D01*
X137081Y81586D01*
X137068Y81603D01*
X110768Y81603D01*
X110762Y81599D01*
X110758Y81602D01*
X110258Y81502D01*
X110231Y81472D01*
X110221Y81464D01*
X110222Y81461D01*
X110219Y81458D01*
X110221Y81456D01*
X110219Y81454D01*
X110219Y71854D01*
X110223Y71848D01*
X110220Y71844D01*
X110320Y71344D01*
X110364Y71305D01*
X110366Y71307D01*
X110368Y71305D01*
X137268Y71305D01*
X137274Y71309D01*
G37*
G36*
X181494Y56069D02*
X181494Y56069D01*
X181498Y56066D01*
X181993Y56165D01*
X182488Y56165D01*
X182499Y56173D01*
X182506Y56168D01*
X184006Y56768D01*
X184011Y56776D01*
X184018Y56775D01*
X184818Y57375D01*
X184819Y57380D01*
X184823Y57379D01*
X185523Y58079D01*
X185524Y58088D01*
X185530Y58089D01*
X185830Y58589D01*
X185830Y58592D01*
X185832Y58592D01*
X186032Y58992D01*
X186031Y58995D01*
X186034Y58996D01*
X186234Y59496D01*
X186233Y59498D01*
X186235Y59499D01*
X186232Y59502D01*
X186236Y59504D01*
X186536Y61004D01*
X186533Y61011D01*
X186537Y61014D01*
X186537Y61514D01*
X186533Y61520D01*
X186536Y61524D01*
X186236Y63024D01*
X186229Y63030D01*
X186232Y63036D01*
X186032Y63436D01*
X186029Y63437D01*
X186030Y63439D01*
X185731Y63937D01*
X185532Y64336D01*
X185522Y64341D01*
X185523Y64349D01*
X184823Y65049D01*
X184818Y65050D01*
X184818Y65053D01*
X184418Y65353D01*
X184414Y65353D01*
X184413Y65356D01*
X183913Y65656D01*
X183910Y65656D01*
X183910Y65658D01*
X183510Y65858D01*
X183507Y65857D01*
X183506Y65860D01*
X182506Y66260D01*
X182499Y66258D01*
X182497Y66260D01*
X182491Y66260D01*
X182488Y66263D01*
X181993Y66263D01*
X181498Y66362D01*
X181491Y66359D01*
X181488Y66363D01*
X159588Y66363D01*
X159582Y66359D01*
X159578Y66362D01*
X158578Y66162D01*
X158574Y66157D01*
X158570Y66160D01*
X157570Y65760D01*
X157565Y65752D01*
X157558Y65753D01*
X156358Y64853D01*
X156356Y64844D01*
X156349Y64844D01*
X155449Y63644D01*
X155449Y63634D01*
X155442Y63632D01*
X155042Y62632D01*
X155043Y62630D01*
X155041Y62628D01*
X155042Y62627D01*
X155040Y62626D01*
X154940Y62226D01*
X154941Y62223D01*
X154939Y62222D01*
X154839Y61622D01*
X154842Y61617D01*
X154839Y61614D01*
X154839Y60614D01*
X154843Y60608D01*
X154840Y60604D01*
X155040Y59604D01*
X155047Y59598D01*
X155044Y59592D01*
X155244Y59192D01*
X155247Y59191D01*
X155246Y59189D01*
X155545Y58691D01*
X155744Y58292D01*
X155750Y58289D01*
X155749Y58284D01*
X156049Y57884D01*
X156054Y57883D01*
X156053Y57879D01*
X156453Y57479D01*
X156458Y57478D01*
X156458Y57475D01*
X157658Y56575D01*
X157668Y56575D01*
X157670Y56568D01*
X158170Y56368D01*
X158176Y56370D01*
X158178Y56366D01*
X159678Y56066D01*
X159685Y56069D01*
X159688Y56065D01*
X181488Y56065D01*
X181494Y56069D01*
G37*
G36*
X67046Y71563D02*
X67046Y71563D01*
X67050Y71560D01*
X67550Y71660D01*
X67578Y71692D01*
X67580Y71693D01*
X67580Y71694D01*
X67589Y71704D01*
X67587Y71706D01*
X67589Y71708D01*
X67589Y81808D01*
X67553Y81855D01*
X67546Y81850D01*
X67540Y81857D01*
X65040Y81857D01*
X65013Y81836D01*
X64999Y81836D01*
X64979Y81807D01*
X64978Y81840D01*
X64954Y81839D01*
X64940Y81857D01*
X39140Y81857D01*
X39093Y81821D01*
X39095Y81818D01*
X39093Y81816D01*
X39096Y81812D01*
X39091Y81808D01*
X39091Y71608D01*
X39127Y71561D01*
X39134Y71566D01*
X39140Y71559D01*
X67040Y71559D01*
X67046Y71563D01*
G37*
G36*
X162811Y24051D02*
X162811Y24051D01*
X163306Y24051D01*
X163317Y24059D01*
X163324Y24054D01*
X163820Y24253D01*
X164316Y24352D01*
X164322Y24359D01*
X164328Y24356D01*
X164728Y24556D01*
X164729Y24559D01*
X164731Y24558D01*
X165231Y24858D01*
X165233Y24861D01*
X165236Y24861D01*
X165636Y25161D01*
X165638Y25170D01*
X165645Y25170D01*
X165941Y25565D01*
X166336Y25861D01*
X166339Y25874D01*
X166348Y25875D01*
X166648Y26375D01*
X166648Y26378D01*
X166650Y26378D01*
X166850Y26778D01*
X166849Y26781D01*
X166852Y26782D01*
X167051Y27280D01*
X167250Y27678D01*
X167250Y27680D01*
X167249Y27682D01*
X167248Y27687D01*
X167254Y27690D01*
X167454Y28690D01*
X167451Y28697D01*
X167455Y28700D01*
X167455Y47400D01*
X167451Y47406D01*
X167454Y47410D01*
X167154Y48910D01*
X167147Y48916D01*
X167150Y48922D01*
X166950Y49322D01*
X166947Y49323D01*
X166948Y49325D01*
X166648Y49825D01*
X166645Y49827D01*
X166645Y49830D01*
X166045Y50630D01*
X166036Y50632D01*
X166036Y50639D01*
X164836Y51539D01*
X164826Y51539D01*
X164824Y51546D01*
X164326Y51745D01*
X163928Y51944D01*
X163925Y51943D01*
X163924Y51946D01*
X163424Y52146D01*
X163411Y52142D01*
X163406Y52149D01*
X162911Y52149D01*
X162416Y52248D01*
X162409Y52245D01*
X162406Y52249D01*
X161906Y52249D01*
X161900Y52245D01*
X161896Y52248D01*
X160896Y52048D01*
X160892Y52043D01*
X160888Y52046D01*
X159888Y51646D01*
X159883Y51638D01*
X159876Y51639D01*
X158676Y50739D01*
X158674Y50730D01*
X158667Y50730D01*
X157767Y49530D01*
X157767Y49520D01*
X157760Y49518D01*
X157360Y48518D01*
X157362Y48512D01*
X157358Y48510D01*
X157158Y47510D01*
X157159Y47506D01*
X157161Y47503D01*
X157157Y47500D01*
X157157Y28700D01*
X157161Y28694D01*
X157158Y28690D01*
X157358Y27690D01*
X157365Y27684D01*
X157362Y27678D01*
X157561Y27280D01*
X157760Y26782D01*
X157763Y26780D01*
X157762Y26778D01*
X157962Y26378D01*
X157965Y26377D01*
X157964Y26375D01*
X158264Y25875D01*
X158276Y25870D01*
X158276Y25861D01*
X158671Y25565D01*
X158967Y25170D01*
X158976Y25168D01*
X158976Y25161D01*
X159376Y24861D01*
X159386Y24861D01*
X159388Y24854D01*
X159882Y24657D01*
X160276Y24361D01*
X160292Y24361D01*
X160296Y24352D01*
X160792Y24253D01*
X161288Y24054D01*
X161301Y24058D01*
X161306Y24051D01*
X161801Y24051D01*
X162296Y23952D01*
X162309Y23958D01*
X162316Y23952D01*
X162811Y24051D01*
G37*
%LPC*%
G36*
X126796Y8994D02*
X126796Y8994D01*
X126401Y9093D01*
X125910Y9289D01*
X125521Y9581D01*
X124925Y10376D01*
X124885Y10387D01*
X124878Y10393D01*
X124898Y10398D01*
X124920Y10426D01*
X124933Y10435D01*
X124930Y10439D01*
X124935Y10445D01*
X124928Y10451D01*
X124934Y10458D01*
X124835Y10852D01*
X124835Y11434D01*
X125030Y11824D01*
X125029Y11827D01*
X125032Y11828D01*
X125228Y12318D01*
X125615Y12705D01*
X126006Y12901D01*
X126500Y13099D01*
X126991Y13197D01*
X127480Y13197D01*
X127874Y13098D01*
X127885Y13103D01*
X127895Y13098D01*
X127901Y13110D01*
X127929Y13122D01*
X127921Y13139D01*
X127928Y13144D01*
X127922Y13152D01*
X127930Y13168D01*
X127730Y13568D01*
X127720Y13573D01*
X127721Y13581D01*
X127321Y13981D01*
X127316Y13982D01*
X127316Y13985D01*
X126916Y14285D01*
X126899Y14285D01*
X126894Y14295D01*
X126294Y14395D01*
X125796Y14494D01*
X125789Y14491D01*
X125786Y14495D01*
X125316Y14495D01*
X125133Y14861D01*
X125036Y15444D01*
X125130Y15817D01*
X125502Y16097D01*
X126081Y16097D01*
X127076Y15898D01*
X127565Y15800D01*
X127956Y15507D01*
X128354Y15209D01*
X128649Y14914D01*
X128947Y14516D01*
X129243Y14122D01*
X129439Y13631D01*
X129538Y13234D01*
X129585Y13197D01*
X129587Y13199D01*
X129589Y13197D01*
X131389Y13297D01*
X131412Y13316D01*
X131425Y13316D01*
X131723Y13714D01*
X132106Y14097D01*
X132469Y14097D01*
X132953Y13709D01*
X133951Y12711D01*
X134010Y12703D01*
X134011Y12711D01*
X134019Y12710D01*
X135119Y13710D01*
X135119Y13711D01*
X135121Y13711D01*
X135506Y14097D01*
X135869Y14097D01*
X136347Y13714D01*
X136542Y13324D01*
X136579Y13306D01*
X136586Y13297D01*
X138086Y13297D01*
X138133Y13333D01*
X138133Y13334D01*
X138134Y13334D01*
X138234Y13734D01*
X138233Y13735D01*
X138234Y13735D01*
X138233Y13736D01*
X138234Y13736D01*
X138333Y14232D01*
X138532Y14728D01*
X138728Y15218D01*
X139414Y15904D01*
X139901Y16099D01*
X140296Y16198D01*
X140885Y16296D01*
X141372Y16199D01*
X141866Y16001D01*
X142257Y15805D01*
X142549Y15514D01*
X142844Y15120D01*
X143041Y14726D01*
X143239Y14232D01*
X143338Y13736D01*
X143437Y13241D01*
X143437Y12151D01*
X143338Y11656D01*
X143341Y11649D01*
X143337Y11646D01*
X143337Y11155D01*
X143140Y10664D01*
X142941Y10166D01*
X142747Y9778D01*
X142356Y9485D01*
X141962Y9189D01*
X141477Y8995D01*
X140491Y8995D01*
X139996Y9094D01*
X139510Y9191D01*
X139121Y9581D01*
X138823Y9878D01*
X138531Y10268D01*
X138434Y10658D01*
X138430Y10661D01*
X138432Y10664D01*
X138233Y11160D01*
X138135Y11651D01*
X138135Y13246D01*
X138099Y13293D01*
X138092Y13288D01*
X138086Y13295D01*
X136586Y13295D01*
X136543Y13263D01*
X136539Y13262D01*
X136441Y12967D01*
X136147Y12477D01*
X135451Y11781D01*
X135450Y11774D01*
X135445Y11773D01*
X135245Y11473D01*
X135249Y11414D01*
X135250Y11414D01*
X135250Y11413D01*
X136345Y10218D01*
X136534Y9840D01*
X136442Y9474D01*
X135959Y9088D01*
X135591Y8904D01*
X135218Y9183D01*
X134121Y10281D01*
X134068Y10288D01*
X134064Y10290D01*
X133664Y10090D01*
X133659Y10080D01*
X133651Y10081D01*
X132566Y8995D01*
X132200Y8995D01*
X131720Y9283D01*
X131439Y9657D01*
X131531Y10024D01*
X131923Y10513D01*
X132621Y11211D01*
X132622Y11222D01*
X132624Y11223D01*
X132623Y11225D01*
X132625Y11238D01*
X132635Y11246D01*
X132635Y11746D01*
X132619Y11767D01*
X132621Y11781D01*
X131923Y12479D01*
X131530Y12970D01*
X131433Y13262D01*
X131384Y13295D01*
X131383Y13295D01*
X129583Y13195D01*
X129538Y13157D01*
X129547Y13146D01*
X129538Y13136D01*
X129737Y12141D01*
X129737Y11551D01*
X129539Y10562D01*
X129145Y9775D01*
X128757Y9387D01*
X128366Y9191D01*
X127872Y8993D01*
X127385Y8896D01*
X126796Y8994D01*
G37*
%LPD*%
G36*
X116122Y39141D02*
X116122Y39141D01*
X116129Y39152D01*
X116138Y39150D01*
X116738Y39650D01*
X116741Y39664D01*
X116741Y39667D01*
X116752Y39670D01*
X116952Y40170D01*
X116945Y40193D01*
X116953Y40204D01*
X116753Y40804D01*
X116742Y40811D01*
X116744Y40820D01*
X116244Y41420D01*
X116242Y41420D01*
X116242Y41421D01*
X113971Y43890D01*
X114344Y44356D01*
X116642Y46855D01*
X116643Y46865D01*
X116650Y46866D01*
X116950Y47466D01*
X116946Y47488D01*
X116954Y47498D01*
X116854Y47998D01*
X116839Y48011D01*
X116841Y48023D01*
X116241Y48623D01*
X116225Y48625D01*
X116222Y48635D01*
X115622Y48835D01*
X115599Y48827D01*
X115588Y48834D01*
X115088Y48634D01*
X115082Y48624D01*
X115074Y48626D01*
X114474Y48126D01*
X114473Y48120D01*
X114468Y48120D01*
X112307Y45566D01*
X111944Y46019D01*
X111942Y46019D01*
X111943Y46021D01*
X110144Y48020D01*
X109644Y48620D01*
X109625Y48624D01*
X109622Y48635D01*
X109022Y48835D01*
X108999Y48827D01*
X108988Y48834D01*
X108488Y48634D01*
X108482Y48624D01*
X108474Y48626D01*
X107874Y48126D01*
X107870Y48107D01*
X107859Y48104D01*
X107659Y47504D01*
X107668Y47478D01*
X107662Y47466D01*
X107962Y46866D01*
X107971Y46861D01*
X107970Y46854D01*
X110739Y43888D01*
X108470Y41422D01*
X107971Y40923D01*
X107970Y40911D01*
X107962Y40910D01*
X107662Y40310D01*
X107667Y40282D01*
X107666Y40282D01*
X107667Y40281D01*
X107660Y40270D01*
X107860Y39770D01*
X107872Y39762D01*
X107871Y39753D01*
X108471Y39153D01*
X108485Y39151D01*
X108488Y39142D01*
X108988Y38942D01*
X109011Y38949D01*
X109022Y38941D01*
X109622Y39141D01*
X109632Y39156D01*
X109643Y39156D01*
X112309Y42216D01*
X112670Y41855D01*
X114469Y39756D01*
X114968Y39156D01*
X114985Y39153D01*
X114988Y39142D01*
X115488Y38942D01*
X115511Y38949D01*
X115522Y38941D01*
X116122Y39141D01*
G37*
G36*
X79407Y50888D02*
X79407Y50888D01*
X79417Y50884D01*
X79917Y51184D01*
X79925Y51202D01*
X79936Y51204D01*
X80236Y51804D01*
X80232Y51824D01*
X80241Y51833D01*
X80141Y52533D01*
X80129Y52545D01*
X80132Y52555D01*
X76252Y57927D01*
X76418Y58177D01*
X79792Y58177D01*
X79813Y58193D01*
X79827Y58191D01*
X80227Y58591D01*
X80231Y58618D01*
X80241Y58626D01*
X80241Y59526D01*
X80238Y59531D01*
X80241Y59534D01*
X80141Y60134D01*
X80117Y60157D01*
X80114Y60170D01*
X79514Y60470D01*
X79498Y60467D01*
X79492Y60475D01*
X74092Y60475D01*
X74087Y60472D01*
X74084Y60475D01*
X73484Y60375D01*
X73474Y60364D01*
X73465Y60367D01*
X72865Y59967D01*
X72857Y59946D01*
X72845Y59942D01*
X72645Y59342D01*
X72652Y59322D01*
X72645Y59312D01*
X72845Y58612D01*
X72855Y58605D01*
X72852Y58597D01*
X76709Y53256D01*
X76386Y53175D01*
X73692Y53175D01*
X73688Y53172D01*
X73685Y53175D01*
X72985Y53075D01*
X72967Y53056D01*
X72954Y53057D01*
X72554Y52557D01*
X72553Y52538D01*
X72543Y52533D01*
X72443Y51833D01*
X72451Y51819D01*
X72445Y51810D01*
X72645Y51210D01*
X72665Y51197D01*
X72667Y51184D01*
X73167Y50884D01*
X73185Y50886D01*
X73192Y50877D01*
X79392Y50877D01*
X79407Y50888D01*
G37*
%LPC*%
G36*
X46042Y73257D02*
X46042Y73257D01*
X46041Y73256D01*
X46040Y73257D01*
X45549Y73257D01*
X45060Y73453D01*
X44666Y73650D01*
X44270Y73947D01*
X43872Y74245D01*
X43482Y74636D01*
X43286Y75126D01*
X43283Y75128D01*
X43284Y75130D01*
X43085Y75528D01*
X42889Y76017D01*
X42889Y77499D01*
X43086Y77990D01*
X43283Y78484D01*
X43579Y78878D01*
X43875Y79273D01*
X44270Y79569D01*
X44664Y79865D01*
X45154Y80061D01*
X45650Y80160D01*
X46145Y80259D01*
X48528Y80259D01*
X48896Y80075D01*
X48991Y79603D01*
X48991Y74013D01*
X48895Y73532D01*
X48616Y73254D01*
X48037Y73157D01*
X46042Y73257D01*
G37*
%LPD*%
G36*
X80864Y29039D02*
X80864Y29039D01*
X80870Y29035D01*
X81570Y29235D01*
X81589Y29260D01*
X81602Y29264D01*
X81802Y29764D01*
X81798Y29777D01*
X81805Y29782D01*
X81805Y32570D01*
X82099Y33157D01*
X84397Y36554D01*
X84397Y36555D01*
X84797Y37155D01*
X84796Y37175D01*
X84805Y37182D01*
X84805Y37782D01*
X84791Y37800D01*
X84794Y37813D01*
X84394Y38313D01*
X84382Y38316D01*
X84380Y38325D01*
X83680Y38725D01*
X83657Y38722D01*
X83648Y38731D01*
X83048Y38631D01*
X83031Y38612D01*
X83018Y38613D01*
X82618Y38113D01*
X82617Y38109D01*
X82615Y38109D01*
X80724Y35223D01*
X80476Y35141D01*
X78597Y38009D01*
X78197Y38609D01*
X78172Y38618D01*
X78166Y38630D01*
X77666Y38730D01*
X77647Y38721D01*
X77637Y38727D01*
X76937Y38427D01*
X76930Y38416D01*
X76921Y38417D01*
X76421Y37917D01*
X76418Y37897D01*
X76408Y37892D01*
X76308Y37392D01*
X76318Y37370D01*
X76313Y37358D01*
X76713Y36658D01*
X76716Y36657D01*
X76715Y36655D01*
X79309Y32764D01*
X79407Y32079D01*
X79407Y29982D01*
X79410Y29977D01*
X79407Y29974D01*
X79507Y29374D01*
X79532Y29351D01*
X79534Y29338D01*
X80134Y29038D01*
X80150Y29041D01*
X80156Y29033D01*
X80856Y29033D01*
X80864Y29039D01*
G37*
%LPC*%
G36*
X66699Y9184D02*
X66699Y9184D01*
X65501Y10282D01*
X65442Y10288D01*
X65442Y10287D01*
X65441Y10287D01*
X65141Y10087D01*
X65138Y10080D01*
X65133Y10081D01*
X64435Y9383D01*
X63951Y8995D01*
X63584Y8995D01*
X63203Y9281D01*
X62917Y9662D01*
X62917Y10029D01*
X63305Y10513D01*
X64003Y11211D01*
X64004Y11222D01*
X64006Y11223D01*
X64005Y11225D01*
X64007Y11238D01*
X64017Y11246D01*
X64017Y11746D01*
X64001Y11767D01*
X64003Y11781D01*
X63307Y12477D01*
X63013Y12967D01*
X62920Y13244D01*
X63109Y13716D01*
X63585Y14097D01*
X63854Y14097D01*
X64336Y13808D01*
X65332Y12713D01*
X65390Y12702D01*
X65392Y12711D01*
X65401Y12710D01*
X66500Y13708D01*
X66985Y14097D01*
X67251Y14097D01*
X67732Y13711D01*
X68029Y13316D01*
X68060Y13308D01*
X68068Y13297D01*
X69468Y13297D01*
X69515Y13333D01*
X69515Y13334D01*
X69516Y13334D01*
X69616Y13734D01*
X69615Y13735D01*
X69616Y13735D01*
X69615Y13736D01*
X69616Y13736D01*
X69705Y14180D01*
X71213Y13614D01*
X71119Y13054D01*
X71122Y13049D01*
X71119Y13046D01*
X71119Y12346D01*
X71122Y12342D01*
X71119Y12339D01*
X71219Y11639D01*
X71225Y11633D01*
X71222Y11628D01*
X71422Y11128D01*
X71429Y11124D01*
X71427Y11119D01*
X71627Y10819D01*
X71640Y10814D01*
X71641Y10805D01*
X71941Y10605D01*
X71961Y10606D01*
X71968Y10597D01*
X72568Y10597D01*
X72589Y10613D01*
X72603Y10611D01*
X72903Y10911D01*
X72904Y10923D01*
X72912Y10924D01*
X73112Y11324D01*
X73110Y11335D01*
X73117Y11338D01*
X73217Y11938D01*
X73214Y11943D01*
X73217Y11946D01*
X73217Y13346D01*
X73210Y13355D01*
X73215Y13362D01*
X73015Y13962D01*
X73010Y13965D01*
X73012Y13968D01*
X72826Y14341D01*
X73822Y15669D01*
X74029Y15514D01*
X74224Y15124D01*
X74423Y14726D01*
X74621Y14232D01*
X74720Y13736D01*
X74819Y13241D01*
X74819Y11651D01*
X74720Y11156D01*
X74621Y10660D01*
X74425Y10170D01*
X74131Y9778D01*
X73838Y9485D01*
X73345Y9189D01*
X72956Y8995D01*
X71873Y8995D01*
X71379Y9094D01*
X70987Y9192D01*
X70502Y9483D01*
X70210Y9872D01*
X70012Y10268D01*
X69815Y10662D01*
X69617Y11654D01*
X69517Y12250D01*
X69517Y13246D01*
X69481Y13293D01*
X69474Y13288D01*
X69468Y13295D01*
X68068Y13295D01*
X68025Y13263D01*
X68021Y13262D01*
X67924Y12970D01*
X67531Y12479D01*
X66833Y11781D01*
X66831Y11765D01*
X66821Y11762D01*
X66721Y11462D01*
X66734Y11425D01*
X66732Y11413D01*
X67827Y10218D01*
X68013Y9846D01*
X67827Y9475D01*
X67439Y9087D01*
X67073Y8904D01*
X66699Y9184D01*
G37*
%LPD*%
%LPC*%
G36*
X127596Y72999D02*
X127596Y72999D01*
X127313Y73376D01*
X127217Y73760D01*
X127217Y78850D01*
X127316Y79444D01*
X127410Y79820D01*
X127780Y80005D01*
X128348Y80005D01*
X128822Y79530D01*
X128919Y78950D01*
X128919Y75954D01*
X128927Y75943D01*
X128925Y75930D01*
X128938Y75928D01*
X128955Y75907D01*
X128976Y75923D01*
X129003Y75919D01*
X129103Y76019D01*
X129103Y76023D01*
X129106Y76022D01*
X129606Y76622D01*
X129606Y76625D01*
X129608Y76625D01*
X131606Y79422D01*
X131997Y79813D01*
X132380Y80005D01*
X132952Y80005D01*
X133324Y79725D01*
X133419Y79348D01*
X133419Y73660D01*
X133324Y73279D01*
X133048Y73003D01*
X132374Y73003D01*
X132002Y73096D01*
X131817Y73466D01*
X131817Y76954D01*
X131807Y76967D01*
X131807Y76984D01*
X131795Y76984D01*
X131781Y77001D01*
X131758Y76984D01*
X131729Y76984D01*
X129031Y73386D01*
X128644Y73000D01*
X128069Y72904D01*
X127596Y72999D01*
G37*
%LPD*%
%LPC*%
G36*
X50868Y73253D02*
X50868Y73253D01*
X50589Y73624D01*
X50589Y74008D01*
X50553Y74055D01*
X50546Y74050D01*
X50540Y74057D01*
X50519Y74057D01*
X50543Y74059D01*
X50588Y74098D01*
X50583Y74103D01*
X50587Y74106D01*
X50587Y74107D01*
X50589Y74108D01*
X50589Y79696D01*
X50777Y80071D01*
X51152Y80259D01*
X51622Y80259D01*
X52191Y79785D01*
X52191Y76208D01*
X52194Y76204D01*
X52192Y76199D01*
X52202Y76194D01*
X52227Y76161D01*
X52243Y76173D01*
X52262Y76164D01*
X52462Y76264D01*
X52470Y76280D01*
X52481Y76281D01*
X52880Y76879D01*
X55271Y80067D01*
X55749Y80259D01*
X56224Y80259D01*
X56596Y79979D01*
X56691Y79602D01*
X56691Y73528D01*
X56420Y73257D01*
X55745Y73257D01*
X55280Y73350D01*
X55189Y73714D01*
X55189Y76708D01*
X55185Y76714D01*
X55188Y76718D01*
X55088Y77218D01*
X55079Y77226D01*
X55079Y77238D01*
X55065Y77238D01*
X55044Y77257D01*
X55027Y77238D01*
X55001Y77238D01*
X52303Y73640D01*
X51916Y73253D01*
X51439Y73158D01*
X50868Y73253D01*
G37*
%LPD*%
%LPC*%
G36*
X164290Y57763D02*
X164290Y57763D01*
X164289Y57762D01*
X164288Y57763D01*
X163800Y57763D01*
X163410Y57958D01*
X163407Y57957D01*
X163406Y57960D01*
X162912Y58157D01*
X162518Y58453D01*
X162123Y58749D01*
X161829Y59142D01*
X161531Y59637D01*
X161335Y60030D01*
X161137Y61019D01*
X161137Y61509D01*
X161236Y62004D01*
X161335Y62500D01*
X161531Y62990D01*
X161827Y63384D01*
X162123Y63779D01*
X162516Y64073D01*
X163011Y64371D01*
X163404Y64567D01*
X164393Y64765D01*
X166776Y64765D01*
X167146Y64580D01*
X167240Y64202D01*
X167278Y64172D01*
X167282Y64165D01*
X167302Y64162D01*
X167291Y64163D01*
X167242Y64130D01*
X167248Y64121D01*
X167239Y64114D01*
X167239Y63164D01*
X165605Y62867D01*
X165323Y63149D01*
X165298Y63152D01*
X165295Y63157D01*
X165293Y63157D01*
X165288Y63163D01*
X164788Y63163D01*
X164782Y63159D01*
X164778Y63162D01*
X163778Y62962D01*
X163768Y62951D01*
X163758Y62953D01*
X163358Y62653D01*
X163356Y62644D01*
X163349Y62644D01*
X163049Y62244D01*
X163049Y62236D01*
X163046Y62234D01*
X163047Y62233D01*
X163042Y62232D01*
X162842Y61732D01*
X162844Y61726D01*
X162840Y61724D01*
X162740Y61224D01*
X162746Y61211D01*
X162740Y61204D01*
X162840Y60704D01*
X162847Y60698D01*
X162844Y60692D01*
X163044Y60292D01*
X163050Y60289D01*
X163049Y60284D01*
X163349Y59884D01*
X163354Y59883D01*
X163353Y59879D01*
X163753Y59479D01*
X163774Y59476D01*
X163780Y59465D01*
X164380Y59365D01*
X164385Y59368D01*
X164388Y59365D01*
X165488Y59365D01*
X165535Y59401D01*
X165535Y59402D01*
X165536Y59402D01*
X165636Y59802D01*
X165632Y59810D01*
X165637Y59814D01*
X165637Y62773D01*
X167239Y63064D01*
X167239Y58519D01*
X167142Y58033D01*
X166959Y57759D01*
X166385Y57663D01*
X164290Y57763D01*
G37*
%LPD*%
%LPC*%
G36*
X169892Y57663D02*
X169892Y57663D01*
X169300Y57762D01*
X169025Y57854D01*
X168839Y58320D01*
X168935Y58996D01*
X169118Y59270D01*
X169593Y59365D01*
X172688Y59365D01*
X172735Y59401D01*
X172730Y59408D01*
X172737Y59414D01*
X172737Y59914D01*
X172732Y59921D01*
X172736Y59926D01*
X172636Y60326D01*
X172589Y60363D01*
X172589Y60362D01*
X172588Y60363D01*
X171092Y60363D01*
X170498Y60462D01*
X170122Y60556D01*
X169937Y60926D01*
X169937Y61599D01*
X170121Y61874D01*
X170597Y62065D01*
X172588Y62065D01*
X172635Y62101D01*
X172635Y62102D01*
X172636Y62102D01*
X172736Y62502D01*
X172735Y62503D01*
X172735Y62504D01*
X172732Y62510D01*
X172737Y62514D01*
X172737Y63014D01*
X172701Y63061D01*
X172699Y63060D01*
X172698Y63062D01*
X172198Y63162D01*
X172191Y63159D01*
X172188Y63163D01*
X169208Y63163D01*
X168934Y63438D01*
X168838Y64014D01*
X168932Y64581D01*
X169300Y64765D01*
X173876Y64765D01*
X174244Y64581D01*
X174339Y64109D01*
X174339Y58420D01*
X174244Y58039D01*
X173964Y57760D01*
X173384Y57663D01*
X169892Y57663D01*
G37*
%LPD*%
%LPC*%
G36*
X60245Y73257D02*
X60245Y73257D01*
X59756Y73355D01*
X59366Y73550D01*
X58972Y73845D01*
X58682Y74136D01*
X58489Y74617D01*
X58489Y76603D01*
X58587Y77092D01*
X58773Y77464D01*
X59344Y77559D01*
X60928Y77559D01*
X61303Y77371D01*
X61491Y76996D01*
X61491Y76528D01*
X61218Y76255D01*
X60136Y76157D01*
X60092Y76117D01*
X60096Y76112D01*
X60091Y76108D01*
X60091Y75108D01*
X60120Y75070D01*
X60122Y75062D01*
X60622Y74862D01*
X60635Y74866D01*
X60640Y74859D01*
X61640Y74859D01*
X61653Y74868D01*
X61662Y74864D01*
X62062Y75064D01*
X62067Y75074D01*
X62075Y75073D01*
X62475Y75473D01*
X62476Y75478D01*
X62479Y75478D01*
X62779Y75878D01*
X62779Y75888D01*
X62786Y75890D01*
X62986Y76390D01*
X62984Y76396D01*
X62988Y76398D01*
X63088Y76898D01*
X63082Y76911D01*
X63088Y76918D01*
X62988Y77418D01*
X62983Y77422D01*
X62986Y77426D01*
X62786Y77926D01*
X62774Y77934D01*
X62775Y77943D01*
X62475Y78243D01*
X62470Y78244D01*
X62470Y78247D01*
X62070Y78547D01*
X62063Y78547D01*
X62062Y78552D01*
X61662Y78752D01*
X61653Y78750D01*
X61650Y78756D01*
X61150Y78856D01*
X61138Y78851D01*
X61132Y78857D01*
X60532Y78757D01*
X60526Y78750D01*
X60520Y78753D01*
X59636Y78360D01*
X59265Y78452D01*
X58882Y78836D01*
X58694Y79306D01*
X58879Y79676D01*
X59264Y79965D01*
X59758Y80162D01*
X60255Y80361D01*
X60646Y80459D01*
X61635Y80459D01*
X62126Y80361D01*
X62616Y80165D01*
X63010Y79869D01*
X63410Y79569D01*
X63470Y79569D01*
X63470Y79580D01*
X63481Y79580D01*
X63501Y79610D01*
X63502Y79576D01*
X63506Y79576D01*
X63505Y79573D01*
X63803Y79276D01*
X64099Y78880D01*
X64397Y78385D01*
X64593Y77992D01*
X64691Y77503D01*
X64691Y76413D01*
X64593Y75922D01*
X64395Y75428D01*
X64198Y75034D01*
X63901Y74638D01*
X63603Y74240D01*
X63211Y73849D01*
X62820Y73653D01*
X62322Y73454D01*
X62320Y73451D01*
X62318Y73452D01*
X61928Y73257D01*
X60245Y73257D01*
G37*
%LPD*%
%LPC*%
G36*
X116903Y8995D02*
X116903Y8995D01*
X116423Y9380D01*
X116238Y9656D01*
X116333Y10130D01*
X119028Y15620D01*
X119314Y16001D01*
X119781Y16095D01*
X120258Y15904D01*
X120545Y15617D01*
X123239Y10029D01*
X123333Y9657D01*
X123052Y9283D01*
X122572Y8995D01*
X122106Y8995D01*
X121826Y9276D01*
X121329Y10170D01*
X121324Y10172D01*
X121325Y10176D01*
X121025Y10576D01*
X120994Y10585D01*
X120986Y10595D01*
X118486Y10595D01*
X118453Y10570D01*
X118442Y10568D01*
X117749Y9183D01*
X117374Y8995D01*
X116903Y8995D01*
G37*
%LPD*%
%LPC*%
G36*
X159726Y32645D02*
X159726Y32645D01*
X159720Y32642D01*
X159718Y32648D01*
X159328Y32745D01*
X158947Y33031D01*
X158755Y33509D01*
X158755Y36996D01*
X158854Y37590D01*
X158946Y37958D01*
X159411Y38051D01*
X159894Y38051D01*
X160267Y37864D01*
X160457Y37391D01*
X160457Y35600D01*
X160465Y35589D01*
X160463Y35576D01*
X160476Y35574D01*
X160493Y35553D01*
X160514Y35569D01*
X160541Y35565D01*
X160741Y35765D01*
X160742Y35777D01*
X160750Y35778D01*
X160948Y36174D01*
X161245Y36570D01*
X161245Y36574D01*
X161248Y36575D01*
X161543Y37066D01*
X161934Y37359D01*
X162425Y37654D01*
X162818Y37752D01*
X162855Y37799D01*
X162854Y37799D01*
X162855Y37800D01*
X162855Y37827D01*
X162857Y37797D01*
X162895Y37752D01*
X162901Y37757D01*
X162906Y37751D01*
X163900Y37751D01*
X164287Y37654D01*
X164778Y37359D01*
X165174Y37063D01*
X165467Y36770D01*
X165760Y36281D01*
X165858Y35890D01*
X165957Y35296D01*
X165957Y34805D01*
X165859Y34318D01*
X165567Y33831D01*
X164877Y33141D01*
X164486Y32945D01*
X163992Y32747D01*
X163501Y32649D01*
X163021Y32649D01*
X162746Y32833D01*
X162557Y33305D01*
X162653Y33885D01*
X162836Y34251D01*
X163306Y34251D01*
X163312Y34255D01*
X163316Y34252D01*
X163816Y34352D01*
X163829Y34367D01*
X163841Y34365D01*
X164241Y34765D01*
X164244Y34785D01*
X164254Y34790D01*
X164354Y35290D01*
X164346Y35308D01*
X164352Y35318D01*
X164152Y35818D01*
X164136Y35828D01*
X164136Y35839D01*
X163736Y36139D01*
X163714Y36139D01*
X163706Y36149D01*
X163306Y36149D01*
X163295Y36141D01*
X163288Y36146D01*
X162788Y35946D01*
X162780Y35934D01*
X162771Y35935D01*
X162371Y35535D01*
X162370Y35530D01*
X162367Y35530D01*
X162067Y35130D01*
X162067Y35126D01*
X162064Y35126D01*
X161265Y33828D01*
X160967Y33430D01*
X160675Y33041D01*
X160188Y32846D01*
X160186Y32843D01*
X160184Y32844D01*
X159784Y32644D01*
X159770Y32616D01*
X159758Y32610D01*
X159754Y32594D01*
X159726Y32645D01*
G37*
%LPD*%
%LPC*%
G36*
X161815Y39749D02*
X161815Y39749D01*
X161324Y39946D01*
X161318Y39944D01*
X161316Y39948D01*
X160827Y40046D01*
X160436Y40339D01*
X160038Y40637D01*
X159643Y41032D01*
X159348Y41426D01*
X159151Y41820D01*
X158953Y42314D01*
X158854Y42810D01*
X158756Y43300D01*
X158854Y43790D01*
X158954Y44287D01*
X159151Y44878D01*
X159346Y45171D01*
X159638Y45561D01*
X160004Y45744D01*
X160478Y45460D01*
X160957Y45076D01*
X160957Y44814D01*
X160664Y44325D01*
X160665Y44317D01*
X160659Y44316D01*
X160559Y44016D01*
X160561Y44011D01*
X160558Y44010D01*
X160458Y43510D01*
X160461Y43503D01*
X160457Y43500D01*
X160457Y43000D01*
X160465Y42989D01*
X160460Y42982D01*
X160860Y41982D01*
X160876Y41972D01*
X160876Y41961D01*
X161276Y41661D01*
X161286Y41661D01*
X161288Y41654D01*
X161788Y41454D01*
X161794Y41456D01*
X161796Y41452D01*
X162296Y41352D01*
X162303Y41355D01*
X162306Y41351D01*
X162806Y41351D01*
X162817Y41359D01*
X162824Y41354D01*
X163324Y41554D01*
X163326Y41557D01*
X163328Y41556D01*
X163728Y41756D01*
X163737Y41773D01*
X163748Y41775D01*
X164048Y42275D01*
X164048Y42278D01*
X164050Y42278D01*
X164250Y42678D01*
X164248Y42687D01*
X164254Y42690D01*
X164354Y43190D01*
X164353Y43194D01*
X164351Y43197D01*
X164355Y43200D01*
X164355Y43700D01*
X164347Y43711D01*
X164352Y43718D01*
X163952Y44717D01*
X163861Y44991D01*
X164142Y45365D01*
X164623Y45751D01*
X164986Y45751D01*
X165369Y45368D01*
X165664Y44974D01*
X165859Y44585D01*
X165957Y43992D01*
X165958Y43991D01*
X165958Y43990D01*
X166056Y43500D01*
X165958Y43010D01*
X165961Y43003D01*
X165957Y43000D01*
X165957Y42609D01*
X165760Y42118D01*
X165562Y41622D01*
X165265Y41128D01*
X164969Y40732D01*
X164674Y40437D01*
X164282Y40143D01*
X163792Y39947D01*
X163296Y39848D01*
X162801Y39749D01*
X161815Y39749D01*
G37*
%LPD*%
%LPC*%
G36*
X122000Y73093D02*
X122000Y73093D01*
X121717Y73470D01*
X121717Y78554D01*
X121681Y78601D01*
X121680Y78601D01*
X121680Y78602D01*
X121280Y78702D01*
X121272Y78698D01*
X121268Y78703D01*
X119773Y78703D01*
X119308Y78796D01*
X119217Y79160D01*
X119217Y79734D01*
X119488Y80005D01*
X125263Y80005D01*
X125735Y79910D01*
X125924Y79532D01*
X125957Y79515D01*
X125964Y79505D01*
X125986Y79503D01*
X125968Y79503D01*
X125921Y79467D01*
X125922Y79465D01*
X125920Y79464D01*
X125823Y78978D01*
X125548Y78703D01*
X123468Y78703D01*
X123421Y78667D01*
X123421Y78666D01*
X123420Y78666D01*
X123320Y78266D01*
X123321Y78263D01*
X123321Y78262D01*
X123323Y78259D01*
X123324Y78258D01*
X123319Y78254D01*
X123319Y73759D01*
X123223Y73278D01*
X122944Y73000D01*
X122376Y72905D01*
X122000Y73093D01*
G37*
%LPD*%
%LPC*%
G36*
X52817Y14346D02*
X52817Y14346D01*
X52781Y14393D01*
X52774Y14388D01*
X52768Y14395D01*
X51268Y14395D01*
X51259Y14389D01*
X51250Y14382D01*
X51238Y14385D01*
X50838Y14085D01*
X50833Y14067D01*
X50821Y14057D01*
X50825Y14051D01*
X50819Y14046D01*
X50819Y13575D01*
X49483Y12812D01*
X49314Y13066D01*
X49216Y13456D01*
X49118Y14045D01*
X49215Y14530D01*
X49410Y14920D01*
X49705Y15314D01*
X50097Y15705D01*
X50484Y15899D01*
X50973Y15997D01*
X54148Y15997D01*
X54424Y15721D01*
X54519Y15340D01*
X54519Y10845D01*
X52817Y10797D01*
X52817Y14346D01*
G37*
%LPD*%
%LPC*%
G36*
X176593Y57663D02*
X176593Y57663D01*
X176121Y57758D01*
X175932Y58136D01*
X175904Y58150D01*
X175898Y58162D01*
X175882Y58165D01*
X175933Y58195D01*
X175930Y58201D01*
X175936Y58204D01*
X176034Y58695D01*
X176217Y58969D01*
X176792Y59065D01*
X178788Y59065D01*
X178806Y59079D01*
X178819Y59076D01*
X179319Y59476D01*
X179323Y59491D01*
X179333Y59499D01*
X179327Y59507D01*
X179337Y59514D01*
X179337Y64108D01*
X179432Y64485D01*
X179804Y64765D01*
X180376Y64765D01*
X180766Y64570D01*
X180824Y64581D01*
X180822Y64594D01*
X180834Y64598D01*
X180843Y64622D01*
X180847Y64611D01*
X180840Y64602D01*
X180939Y64208D01*
X180939Y58129D01*
X180756Y57855D01*
X180180Y57663D01*
X176593Y57663D01*
G37*
%LPD*%
%LPC*%
G36*
X114592Y73000D02*
X114592Y73000D01*
X114313Y73278D01*
X114217Y73759D01*
X114217Y79349D01*
X114312Y79821D01*
X114680Y80005D01*
X115159Y80005D01*
X115636Y79814D01*
X115827Y79527D01*
X115835Y79524D01*
X115834Y79518D01*
X117328Y78124D01*
X117516Y77748D01*
X117424Y77382D01*
X116946Y76999D01*
X116574Y76906D01*
X116190Y77098D01*
X116158Y77092D01*
X116146Y77098D01*
X115946Y76998D01*
X115928Y76961D01*
X115919Y76954D01*
X115919Y73959D01*
X115821Y73470D01*
X115632Y73093D01*
X115163Y72905D01*
X114592Y73000D01*
G37*
%LPD*%
%LPC*%
G36*
X50973Y8895D02*
X50973Y8895D01*
X50484Y8993D01*
X50094Y9188D01*
X49700Y9483D01*
X49310Y9874D01*
X49115Y10361D01*
X49016Y10756D01*
X48918Y11345D01*
X49015Y11830D01*
X49210Y12220D01*
X49502Y12609D01*
X50868Y13487D01*
X51141Y13305D01*
X51155Y13306D01*
X51155Y13305D01*
X51156Y13305D01*
X51160Y13297D01*
X51750Y13199D01*
X52019Y13020D01*
X52019Y12458D01*
X51835Y12090D01*
X50858Y11894D01*
X50837Y11871D01*
X50824Y11868D01*
X50624Y11468D01*
X50627Y11452D01*
X50619Y11446D01*
X50619Y11046D01*
X50632Y11028D01*
X50629Y11016D01*
X50929Y10616D01*
X50960Y10608D01*
X50968Y10597D01*
X52468Y10597D01*
X52477Y10604D01*
X52484Y10599D01*
X52777Y10697D01*
X54519Y10747D01*
X54519Y9652D01*
X54424Y9271D01*
X54144Y8992D01*
X53564Y8895D01*
X50973Y8895D01*
G37*
%LPD*%
%LPC*%
G36*
X59403Y11187D02*
X59403Y11187D01*
X59212Y11568D01*
X59192Y11578D01*
X59190Y11590D01*
X58819Y11775D01*
X58913Y13184D01*
X59256Y13098D01*
X59267Y13103D01*
X59277Y13098D01*
X59283Y13110D01*
X59311Y13122D01*
X59303Y13139D01*
X59310Y13144D01*
X59304Y13152D01*
X59312Y13168D01*
X59112Y13568D01*
X59102Y13573D01*
X59103Y13581D01*
X58703Y13981D01*
X58698Y13982D01*
X58698Y13985D01*
X58298Y14285D01*
X58282Y14285D01*
X58278Y14294D01*
X57778Y14394D01*
X57774Y14393D01*
X57773Y14395D01*
X56794Y14493D01*
X56515Y14866D01*
X56418Y15444D01*
X56512Y15817D01*
X56884Y16097D01*
X57463Y16097D01*
X58458Y15898D01*
X58947Y15800D01*
X59338Y15507D01*
X60133Y14911D01*
X60426Y14520D01*
X60623Y14126D01*
X60822Y13628D01*
X61021Y13132D01*
X61119Y12641D01*
X61119Y11055D01*
X60974Y10693D01*
X59403Y11187D01*
G37*
%LPD*%
%LPC*%
G36*
X135204Y73093D02*
X135204Y73093D01*
X135017Y73466D01*
X135017Y79539D01*
X135201Y79814D01*
X135677Y80005D01*
X136268Y80005D01*
X136300Y80029D01*
X136311Y80031D01*
X136949Y81227D01*
X136324Y79976D01*
X136335Y79918D01*
X136340Y79919D01*
X136341Y79913D01*
X136619Y79728D01*
X136619Y73274D01*
X136345Y73000D01*
X135674Y72905D01*
X135204Y73093D01*
G37*
%LPD*%
%LPC*%
G36*
X159318Y29549D02*
X159318Y29549D01*
X158950Y29733D01*
X158855Y30205D01*
X158855Y30785D01*
X159036Y31056D01*
X159511Y31151D01*
X165576Y31151D01*
X165759Y30785D01*
X165856Y30201D01*
X165762Y29733D01*
X165394Y29549D01*
X159318Y29549D01*
G37*
%LPD*%
%LPC*%
G36*
X58278Y8994D02*
X58278Y8994D01*
X57782Y9093D01*
X57292Y9289D01*
X56903Y9581D01*
X56610Y9972D01*
X56415Y10362D01*
X56317Y10851D01*
X56317Y11440D01*
X56415Y11831D01*
X56610Y12318D01*
X56997Y12705D01*
X57388Y12901D01*
X57882Y13099D01*
X58373Y13197D01*
X58815Y13197D01*
X58721Y11787D01*
X58258Y11694D01*
X58242Y11676D01*
X58229Y11676D01*
X57929Y11276D01*
X57929Y11255D01*
X57922Y11250D01*
X57927Y11244D01*
X57920Y11236D01*
X58020Y10736D01*
X58040Y10719D01*
X58041Y10705D01*
X58341Y10505D01*
X58354Y10506D01*
X58358Y10498D01*
X58858Y10398D01*
X58862Y10399D01*
X58873Y10399D01*
X58882Y10406D01*
X58890Y10402D01*
X59290Y10602D01*
X59299Y10621D01*
X59315Y10632D01*
X59314Y10633D01*
X59316Y10634D01*
X59403Y10985D01*
X60916Y10552D01*
X60724Y10168D01*
X60526Y9772D01*
X60236Y9385D01*
X59848Y9191D01*
X59355Y8994D01*
X58769Y8896D01*
X58278Y8994D01*
G37*
%LPD*%
G36*
X47287Y74895D02*
X47287Y74895D01*
X47282Y74902D01*
X47289Y74908D01*
X47289Y78408D01*
X47268Y78436D01*
X47267Y78449D01*
X46967Y78649D01*
X46952Y78648D01*
X46949Y78651D01*
X46945Y78651D01*
X46940Y78657D01*
X46440Y78657D01*
X46434Y78653D01*
X46430Y78656D01*
X45430Y78456D01*
X45420Y78445D01*
X45410Y78447D01*
X45010Y78147D01*
X45008Y78138D01*
X45001Y78138D01*
X44701Y77738D01*
X44701Y77731D01*
X44698Y77729D01*
X44699Y77728D01*
X44694Y77726D01*
X44494Y77226D01*
X44498Y77213D01*
X44491Y77208D01*
X44491Y76708D01*
X44495Y76702D01*
X44492Y76698D01*
X44592Y76198D01*
X44597Y76194D01*
X44594Y76190D01*
X44794Y75690D01*
X44806Y75682D01*
X44805Y75673D01*
X45505Y74973D01*
X45517Y74972D01*
X45518Y74964D01*
X45718Y74864D01*
X45734Y74867D01*
X45740Y74859D01*
X47240Y74859D01*
X47287Y74895D01*
G37*
G36*
X141107Y10613D02*
X141107Y10613D01*
X141121Y10611D01*
X141421Y10911D01*
X141422Y10923D01*
X141430Y10924D01*
X141630Y11324D01*
X141628Y11335D01*
X141635Y11338D01*
X141735Y11938D01*
X141734Y11939D01*
X141735Y11939D01*
X141835Y12639D01*
X141830Y12648D01*
X141835Y12653D01*
X141735Y13353D01*
X141734Y13354D01*
X141735Y13354D01*
X141635Y13954D01*
X141627Y13961D01*
X141630Y13968D01*
X141430Y14368D01*
X141414Y14376D01*
X141413Y14387D01*
X141113Y14587D01*
X141097Y14586D01*
X141093Y14586D01*
X141086Y14595D01*
X140686Y14595D01*
X140679Y14590D01*
X140674Y14594D01*
X140274Y14494D01*
X140258Y14474D01*
X140245Y14473D01*
X140045Y14173D01*
X140045Y14169D01*
X140042Y14168D01*
X139842Y13768D01*
X139843Y13764D01*
X139840Y13762D01*
X139844Y13757D01*
X139837Y13753D01*
X139737Y13053D01*
X139740Y13048D01*
X139737Y13046D01*
X139737Y12346D01*
X139740Y12342D01*
X139737Y12339D01*
X139837Y11639D01*
X139839Y11638D01*
X139838Y11636D01*
X139938Y11136D01*
X139953Y11123D01*
X139951Y11111D01*
X140251Y10811D01*
X140258Y10810D01*
X140259Y10805D01*
X140559Y10605D01*
X140579Y10606D01*
X140586Y10597D01*
X141086Y10597D01*
X141107Y10613D01*
G37*
%LPC*%
G36*
X69733Y14277D02*
X69733Y14277D01*
X69912Y14724D01*
X70207Y15216D01*
X70897Y15905D01*
X71284Y16099D01*
X71778Y16198D01*
X72268Y16296D01*
X72754Y16199D01*
X73248Y16001D01*
X73642Y15804D01*
X73743Y15728D01*
X72757Y14413D01*
X72495Y14587D01*
X72475Y14586D01*
X72468Y14595D01*
X72068Y14595D01*
X72059Y14588D01*
X72052Y14593D01*
X71752Y14493D01*
X71743Y14479D01*
X71733Y14481D01*
X71433Y14181D01*
X71432Y14169D01*
X71424Y14168D01*
X71243Y13806D01*
X69733Y14277D01*
G37*
%LPD*%
G36*
X127394Y10407D02*
X127394Y10407D01*
X127404Y10400D01*
X127904Y10600D01*
X127919Y10624D01*
X127926Y10630D01*
X127924Y10632D01*
X127934Y10636D01*
X128034Y11136D01*
X128024Y11157D01*
X128030Y11168D01*
X127830Y11568D01*
X127808Y11579D01*
X127804Y11592D01*
X127304Y11792D01*
X127285Y11786D01*
X127276Y11794D01*
X126776Y11694D01*
X126760Y11676D01*
X126747Y11676D01*
X126447Y11276D01*
X126447Y11252D01*
X126441Y11247D01*
X126444Y11243D01*
X126438Y11236D01*
X126538Y10736D01*
X126561Y10715D01*
X126564Y10702D01*
X126964Y10502D01*
X126972Y10503D01*
X126974Y10498D01*
X127374Y10398D01*
X127394Y10407D01*
G37*
G36*
X120390Y11900D02*
X120390Y11900D01*
X120395Y11898D01*
X120400Y11908D01*
X120433Y11933D01*
X120421Y11949D01*
X120430Y11968D01*
X120231Y12366D01*
X119832Y13364D01*
X119821Y13371D01*
X119819Y13382D01*
X119806Y13380D01*
X119781Y13395D01*
X119767Y13373D01*
X119742Y13368D01*
X119642Y13168D01*
X119642Y13166D01*
X119641Y13166D01*
X119241Y12266D01*
X119243Y12257D01*
X119240Y12255D01*
X119245Y12248D01*
X119247Y12241D01*
X119239Y12230D01*
X119339Y11930D01*
X119383Y11900D01*
X119386Y11897D01*
X120386Y11897D01*
X120390Y11900D01*
G37*
D10*
X124714Y55912D02*
X105664Y55912D01*
X110744Y50832D02*
X110894Y50834D01*
X111043Y50840D01*
X111192Y50850D01*
X111341Y50863D01*
X111490Y50881D01*
X111638Y50902D01*
X111785Y50928D01*
X111932Y50957D01*
X112078Y50990D01*
X112223Y51027D01*
X112367Y51067D01*
X112510Y51112D01*
X112652Y51160D01*
X112792Y51212D01*
X112931Y51267D01*
X113068Y51326D01*
X113204Y51389D01*
X113339Y51455D01*
X113471Y51525D01*
X113602Y51598D01*
X113730Y51674D01*
X113857Y51754D01*
X113981Y51837D01*
X114103Y51923D01*
X114223Y52013D01*
X114341Y52106D01*
X114456Y52201D01*
X114568Y52300D01*
X114678Y52401D01*
X114785Y52506D01*
X114890Y52613D01*
X114991Y52723D01*
X115090Y52835D01*
X115185Y52950D01*
X115278Y53068D01*
X115368Y53188D01*
X115454Y53310D01*
X115537Y53434D01*
X115617Y53561D01*
X115693Y53690D01*
X115766Y53820D01*
X115836Y53952D01*
X115902Y54087D01*
X115965Y54223D01*
X116024Y54360D01*
X116079Y54499D01*
X116131Y54639D01*
X116179Y54781D01*
X116224Y54924D01*
X116264Y55068D01*
X116301Y55213D01*
X116334Y55359D01*
X116363Y55506D01*
X116389Y55653D01*
X116410Y55801D01*
X116428Y55950D01*
X116441Y56099D01*
X116451Y56248D01*
X116457Y56397D01*
X116459Y56547D01*
X116457Y56697D01*
X116451Y56846D01*
X116441Y56995D01*
X116428Y57144D01*
X116410Y57293D01*
X116389Y57441D01*
X116363Y57588D01*
X116334Y57735D01*
X116301Y57881D01*
X116264Y58026D01*
X116224Y58170D01*
X116179Y58313D01*
X116131Y58455D01*
X116079Y58595D01*
X116024Y58734D01*
X115965Y58871D01*
X115902Y59007D01*
X115836Y59142D01*
X115766Y59274D01*
X115693Y59405D01*
X115617Y59533D01*
X115537Y59660D01*
X115454Y59784D01*
X115368Y59906D01*
X115278Y60026D01*
X115185Y60144D01*
X115090Y60259D01*
X114991Y60371D01*
X114890Y60481D01*
X114785Y60588D01*
X114678Y60693D01*
X114568Y60794D01*
X114456Y60893D01*
X114341Y60988D01*
X114223Y61081D01*
X114103Y61171D01*
X113981Y61257D01*
X113857Y61340D01*
X113730Y61420D01*
X113601Y61496D01*
X113471Y61569D01*
X113339Y61639D01*
X113204Y61705D01*
X113068Y61768D01*
X112931Y61827D01*
X112792Y61882D01*
X112652Y61934D01*
X112510Y61982D01*
X112367Y62027D01*
X112223Y62067D01*
X112078Y62104D01*
X111932Y62137D01*
X111785Y62166D01*
X111638Y62192D01*
X111490Y62213D01*
X111341Y62231D01*
X111192Y62244D01*
X111043Y62254D01*
X110894Y62260D01*
X110744Y62262D01*
X113284Y63532D01*
X110744Y62262D02*
X112014Y59722D01*
X122174Y53372D02*
X124714Y55912D01*
X122174Y58452D01*
X93377Y43117D02*
X93377Y25337D01*
X87027Y39307D02*
X87029Y39149D01*
X87035Y38990D01*
X87045Y38832D01*
X87059Y38675D01*
X87076Y38517D01*
X87098Y38361D01*
X87123Y38204D01*
X87153Y38049D01*
X87186Y37894D01*
X87223Y37740D01*
X87264Y37587D01*
X87309Y37435D01*
X87358Y37285D01*
X87410Y37135D01*
X87466Y36987D01*
X87526Y36840D01*
X87589Y36695D01*
X87656Y36552D01*
X87726Y36410D01*
X87800Y36270D01*
X87878Y36132D01*
X87959Y35996D01*
X88043Y35862D01*
X88130Y35730D01*
X88221Y35600D01*
X88315Y35473D01*
X88412Y35348D01*
X88513Y35225D01*
X88616Y35105D01*
X88722Y34988D01*
X88831Y34873D01*
X88943Y34761D01*
X89058Y34652D01*
X89175Y34546D01*
X89295Y34443D01*
X89418Y34342D01*
X89543Y34245D01*
X89670Y34151D01*
X89800Y34060D01*
X89932Y33973D01*
X90066Y33889D01*
X90202Y33808D01*
X90340Y33730D01*
X90480Y33656D01*
X90622Y33586D01*
X90765Y33519D01*
X90910Y33456D01*
X91057Y33396D01*
X91205Y33340D01*
X91355Y33288D01*
X91505Y33239D01*
X91657Y33194D01*
X91810Y33153D01*
X91964Y33116D01*
X92119Y33083D01*
X92274Y33053D01*
X92431Y33028D01*
X92587Y33006D01*
X92745Y32989D01*
X92902Y32975D01*
X93060Y32965D01*
X93219Y32959D01*
X93377Y32957D01*
X93535Y32959D01*
X93694Y32965D01*
X93852Y32975D01*
X94009Y32989D01*
X94167Y33006D01*
X94323Y33028D01*
X94480Y33053D01*
X94635Y33083D01*
X94790Y33116D01*
X94944Y33153D01*
X95097Y33194D01*
X95249Y33239D01*
X95399Y33288D01*
X95549Y33340D01*
X95697Y33396D01*
X95844Y33456D01*
X95989Y33519D01*
X96132Y33586D01*
X96274Y33656D01*
X96414Y33730D01*
X96552Y33808D01*
X96688Y33889D01*
X96822Y33973D01*
X96954Y34060D01*
X97084Y34151D01*
X97211Y34245D01*
X97336Y34342D01*
X97459Y34443D01*
X97579Y34546D01*
X97696Y34652D01*
X97811Y34761D01*
X97923Y34873D01*
X98032Y34988D01*
X98138Y35105D01*
X98241Y35225D01*
X98342Y35348D01*
X98439Y35473D01*
X98533Y35600D01*
X98624Y35730D01*
X98711Y35862D01*
X98795Y35996D01*
X98876Y36132D01*
X98954Y36270D01*
X99028Y36410D01*
X99098Y36552D01*
X99165Y36695D01*
X99228Y36840D01*
X99288Y36987D01*
X99344Y37135D01*
X99396Y37285D01*
X99445Y37435D01*
X99490Y37587D01*
X99531Y37740D01*
X99568Y37894D01*
X99601Y38049D01*
X99631Y38204D01*
X99656Y38361D01*
X99678Y38517D01*
X99695Y38675D01*
X99709Y38832D01*
X99719Y38990D01*
X99725Y39149D01*
X99727Y39307D01*
X100997Y36767D01*
X99727Y39307D02*
X97441Y38037D01*
X90837Y27877D02*
X93377Y25337D01*
X95917Y27877D01*
X96171Y28131D02*
X90583Y28131D01*
X97441Y38037D02*
X100997Y36767D01*
X112014Y59722D02*
X113284Y63532D01*
X122174Y58452D02*
X122174Y53372D01*
X90107Y65881D02*
X86773Y66358D01*
X90107Y65881D02*
X88837Y62802D01*
X86773Y66358D01*
X88805Y65088D02*
X88569Y64970D01*
X88337Y64847D01*
X88108Y64718D01*
X87881Y64584D01*
X87658Y64444D01*
X87439Y64299D01*
X87223Y64148D01*
X87011Y63992D01*
X86802Y63832D01*
X86598Y63666D01*
X86398Y63495D01*
X86202Y63320D01*
X86010Y63139D01*
X85823Y62954D01*
X85640Y62765D01*
X85462Y62571D01*
X85288Y62374D01*
X85120Y62171D01*
X84956Y61965D01*
X84797Y61755D01*
X84644Y61542D01*
X84496Y61324D01*
X84353Y61103D01*
X84215Y60879D01*
X84083Y60651D01*
X83957Y60420D01*
X83836Y60186D01*
X83721Y59950D01*
X83611Y59710D01*
X83508Y59469D01*
X83410Y59224D01*
X83318Y58977D01*
X83233Y58729D01*
X83153Y58478D01*
X83079Y58225D01*
X83012Y57971D01*
X82951Y57715D01*
X82896Y57457D01*
X82847Y57199D01*
X82805Y56939D01*
X82769Y56678D01*
X82739Y56417D01*
X82715Y56155D01*
X82698Y55892D01*
X82687Y55629D01*
X82683Y55366D01*
X82685Y55103D01*
X82694Y54840D01*
X82708Y54577D01*
X82729Y54315D01*
X82757Y54053D01*
X82791Y53792D01*
X82831Y53532D01*
X82877Y53273D01*
X82930Y53015D01*
X82989Y52759D01*
X83054Y52504D01*
X83125Y52250D01*
X83203Y51999D01*
X83286Y51749D01*
X83376Y51502D01*
X83471Y51256D01*
X83573Y51014D01*
X83680Y50773D01*
X83793Y50536D01*
X83912Y50301D01*
X84036Y50069D01*
X84166Y49840D01*
X84302Y49614D01*
X84443Y49392D01*
X84589Y49173D01*
X84741Y48958D01*
X92075Y55436D02*
X92077Y55507D01*
X92083Y55578D01*
X92093Y55649D01*
X92107Y55719D01*
X92125Y55788D01*
X92146Y55855D01*
X92172Y55922D01*
X92201Y55987D01*
X92233Y56050D01*
X92270Y56112D01*
X92309Y56171D01*
X92352Y56228D01*
X92398Y56282D01*
X92447Y56334D01*
X92499Y56383D01*
X92553Y56429D01*
X92610Y56472D01*
X92669Y56511D01*
X92731Y56548D01*
X92794Y56580D01*
X92859Y56609D01*
X92926Y56635D01*
X92993Y56656D01*
X93062Y56674D01*
X93132Y56688D01*
X93203Y56698D01*
X93274Y56704D01*
X93345Y56706D01*
X93416Y56704D01*
X93487Y56698D01*
X93558Y56688D01*
X93628Y56674D01*
X93697Y56656D01*
X93764Y56635D01*
X93831Y56609D01*
X93896Y56580D01*
X93959Y56548D01*
X94021Y56511D01*
X94080Y56472D01*
X94137Y56429D01*
X94191Y56383D01*
X94243Y56334D01*
X94292Y56282D01*
X94338Y56228D01*
X94381Y56171D01*
X94420Y56112D01*
X94457Y56050D01*
X94489Y55987D01*
X94518Y55922D01*
X94544Y55855D01*
X94565Y55788D01*
X94583Y55719D01*
X94597Y55649D01*
X94607Y55578D01*
X94613Y55507D01*
X94615Y55436D01*
X94613Y55365D01*
X94607Y55294D01*
X94597Y55223D01*
X94583Y55153D01*
X94565Y55084D01*
X94544Y55017D01*
X94518Y54950D01*
X94489Y54885D01*
X94457Y54822D01*
X94420Y54760D01*
X94381Y54701D01*
X94338Y54644D01*
X94292Y54590D01*
X94243Y54538D01*
X94191Y54489D01*
X94137Y54443D01*
X94080Y54400D01*
X94021Y54361D01*
X93959Y54324D01*
X93896Y54292D01*
X93831Y54263D01*
X93764Y54237D01*
X93697Y54216D01*
X93628Y54198D01*
X93558Y54184D01*
X93487Y54174D01*
X93416Y54168D01*
X93345Y54166D01*
X93274Y54168D01*
X93203Y54174D01*
X93132Y54184D01*
X93062Y54198D01*
X92993Y54216D01*
X92926Y54237D01*
X92859Y54263D01*
X92794Y54292D01*
X92731Y54324D01*
X92669Y54361D01*
X92610Y54400D01*
X92553Y54443D01*
X92499Y54489D01*
X92447Y54538D01*
X92398Y54590D01*
X92352Y54644D01*
X92309Y54701D01*
X92270Y54760D01*
X92233Y54822D01*
X92201Y54885D01*
X92172Y54950D01*
X92146Y55017D01*
X92125Y55084D01*
X92107Y55153D01*
X92093Y55223D01*
X92083Y55294D01*
X92077Y55365D01*
X92075Y55436D01*
X88011Y55436D02*
X88013Y55582D01*
X88019Y55727D01*
X88029Y55873D01*
X88043Y56018D01*
X88061Y56162D01*
X88082Y56306D01*
X88108Y56450D01*
X88138Y56592D01*
X88171Y56734D01*
X88209Y56875D01*
X88250Y57015D01*
X88295Y57153D01*
X88344Y57291D01*
X88396Y57427D01*
X88453Y57561D01*
X88512Y57694D01*
X88576Y57825D01*
X88643Y57954D01*
X88714Y58082D01*
X88788Y58207D01*
X88865Y58331D01*
X88946Y58452D01*
X89030Y58571D01*
X89117Y58688D01*
X89207Y58802D01*
X89301Y58914D01*
X89397Y59023D01*
X89497Y59130D01*
X89599Y59233D01*
X89704Y59334D01*
X89812Y59432D01*
X89923Y59527D01*
X90036Y59619D01*
X90151Y59708D01*
X90269Y59794D01*
X90389Y59876D01*
X90512Y59955D01*
X90636Y60031D01*
X90763Y60103D01*
X90891Y60172D01*
X91021Y60237D01*
X91153Y60299D01*
X91287Y60357D01*
X91422Y60411D01*
X91559Y60462D01*
X91697Y60509D01*
X91836Y60552D01*
X91976Y60591D01*
X92118Y60627D01*
X92260Y60658D01*
X92403Y60686D01*
X92547Y60710D01*
X92691Y60730D01*
X92836Y60746D01*
X92981Y60758D01*
X93126Y60766D01*
X93272Y60770D01*
X93418Y60770D01*
X93564Y60766D01*
X93709Y60758D01*
X93854Y60746D01*
X93999Y60730D01*
X94143Y60710D01*
X94287Y60686D01*
X94430Y60658D01*
X94572Y60627D01*
X94714Y60591D01*
X94854Y60552D01*
X94993Y60509D01*
X95131Y60462D01*
X95268Y60411D01*
X95403Y60357D01*
X95537Y60299D01*
X95669Y60237D01*
X95799Y60172D01*
X95927Y60103D01*
X96054Y60031D01*
X96178Y59955D01*
X96301Y59876D01*
X96421Y59794D01*
X96539Y59708D01*
X96654Y59619D01*
X96767Y59527D01*
X96878Y59432D01*
X96986Y59334D01*
X97091Y59233D01*
X97193Y59130D01*
X97293Y59023D01*
X97389Y58914D01*
X97483Y58802D01*
X97573Y58688D01*
X97660Y58571D01*
X97744Y58452D01*
X97825Y58331D01*
X97902Y58207D01*
X97976Y58082D01*
X98047Y57954D01*
X98114Y57825D01*
X98178Y57694D01*
X98237Y57561D01*
X98294Y57427D01*
X98346Y57291D01*
X98395Y57153D01*
X98440Y57015D01*
X98481Y56875D01*
X98519Y56734D01*
X98552Y56592D01*
X98582Y56450D01*
X98608Y56306D01*
X98629Y56162D01*
X98647Y56018D01*
X98661Y55873D01*
X98671Y55727D01*
X98677Y55582D01*
X98679Y55436D01*
X98677Y55290D01*
X98671Y55145D01*
X98661Y54999D01*
X98647Y54854D01*
X98629Y54710D01*
X98608Y54566D01*
X98582Y54422D01*
X98552Y54280D01*
X98519Y54138D01*
X98481Y53997D01*
X98440Y53857D01*
X98395Y53719D01*
X98346Y53581D01*
X98294Y53445D01*
X98237Y53311D01*
X98178Y53178D01*
X98114Y53047D01*
X98047Y52918D01*
X97976Y52790D01*
X97902Y52665D01*
X97825Y52541D01*
X97744Y52420D01*
X97660Y52301D01*
X97573Y52184D01*
X97483Y52070D01*
X97389Y51958D01*
X97293Y51849D01*
X97193Y51742D01*
X97091Y51639D01*
X96986Y51538D01*
X96878Y51440D01*
X96767Y51345D01*
X96654Y51253D01*
X96539Y51164D01*
X96421Y51078D01*
X96301Y50996D01*
X96178Y50917D01*
X96054Y50841D01*
X95927Y50769D01*
X95799Y50700D01*
X95669Y50635D01*
X95537Y50573D01*
X95403Y50515D01*
X95268Y50461D01*
X95131Y50410D01*
X94993Y50363D01*
X94854Y50320D01*
X94714Y50281D01*
X94572Y50245D01*
X94430Y50214D01*
X94287Y50186D01*
X94143Y50162D01*
X93999Y50142D01*
X93854Y50126D01*
X93709Y50114D01*
X93564Y50106D01*
X93418Y50102D01*
X93272Y50102D01*
X93126Y50106D01*
X92981Y50114D01*
X92836Y50126D01*
X92691Y50142D01*
X92547Y50162D01*
X92403Y50186D01*
X92260Y50214D01*
X92118Y50245D01*
X91976Y50281D01*
X91836Y50320D01*
X91697Y50363D01*
X91559Y50410D01*
X91422Y50461D01*
X91287Y50515D01*
X91153Y50573D01*
X91021Y50635D01*
X90891Y50700D01*
X90763Y50769D01*
X90636Y50841D01*
X90512Y50917D01*
X90389Y50996D01*
X90269Y51078D01*
X90151Y51164D01*
X90036Y51253D01*
X89923Y51345D01*
X89812Y51440D01*
X89704Y51538D01*
X89599Y51639D01*
X89497Y51742D01*
X89397Y51849D01*
X89301Y51958D01*
X89207Y52070D01*
X89117Y52184D01*
X89030Y52301D01*
X88946Y52420D01*
X88865Y52541D01*
X88788Y52665D01*
X88714Y52790D01*
X88643Y52918D01*
X88576Y53047D01*
X88512Y53178D01*
X88453Y53311D01*
X88396Y53445D01*
X88344Y53581D01*
X88295Y53719D01*
X88250Y53857D01*
X88209Y53997D01*
X88171Y54138D01*
X88138Y54280D01*
X88108Y54422D01*
X88082Y54566D01*
X88061Y54710D01*
X88043Y54854D01*
X88029Y54999D01*
X88019Y55145D01*
X88013Y55290D01*
X88011Y55436D01*
D11*
X82296Y1588D02*
X107696Y1588D01*
X82296Y21908D02*
X82163Y21906D01*
X82030Y21900D01*
X81898Y21891D01*
X81765Y21877D01*
X81633Y21860D01*
X81502Y21839D01*
X81371Y21814D01*
X81242Y21785D01*
X81113Y21752D01*
X80985Y21716D01*
X80858Y21676D01*
X80732Y21632D01*
X80608Y21585D01*
X80485Y21534D01*
X80364Y21480D01*
X80244Y21422D01*
X80126Y21360D01*
X80010Y21295D01*
X79896Y21227D01*
X79784Y21156D01*
X79674Y21081D01*
X79566Y21003D01*
X79460Y20922D01*
X79357Y20838D01*
X79257Y20751D01*
X79159Y20662D01*
X79063Y20569D01*
X78970Y20473D01*
X78881Y20375D01*
X78794Y20275D01*
X78710Y20172D01*
X78629Y20066D01*
X78551Y19958D01*
X78476Y19848D01*
X78405Y19736D01*
X78337Y19622D01*
X78272Y19506D01*
X78210Y19388D01*
X78152Y19268D01*
X78098Y19147D01*
X78047Y19024D01*
X78000Y18900D01*
X77956Y18774D01*
X77916Y18647D01*
X77880Y18519D01*
X77847Y18390D01*
X77818Y18261D01*
X77793Y18130D01*
X77772Y17999D01*
X77755Y17867D01*
X77741Y17734D01*
X77732Y17602D01*
X77726Y17469D01*
X77724Y17336D01*
X107696Y21908D02*
X107829Y21906D01*
X107962Y21900D01*
X108094Y21891D01*
X108227Y21877D01*
X108359Y21860D01*
X108490Y21839D01*
X108621Y21814D01*
X108750Y21785D01*
X108879Y21752D01*
X109007Y21716D01*
X109134Y21676D01*
X109260Y21632D01*
X109384Y21585D01*
X109507Y21534D01*
X109628Y21480D01*
X109748Y21422D01*
X109866Y21360D01*
X109982Y21295D01*
X110096Y21227D01*
X110208Y21156D01*
X110318Y21081D01*
X110426Y21003D01*
X110532Y20922D01*
X110635Y20838D01*
X110735Y20751D01*
X110833Y20662D01*
X110929Y20569D01*
X111022Y20473D01*
X111111Y20375D01*
X111198Y20275D01*
X111282Y20172D01*
X111363Y20066D01*
X111441Y19958D01*
X111516Y19848D01*
X111587Y19736D01*
X111655Y19622D01*
X111720Y19506D01*
X111782Y19388D01*
X111840Y19268D01*
X111894Y19147D01*
X111945Y19024D01*
X111992Y18900D01*
X112036Y18774D01*
X112076Y18647D01*
X112112Y18519D01*
X112145Y18390D01*
X112174Y18261D01*
X112199Y18130D01*
X112220Y17999D01*
X112237Y17867D01*
X112251Y17734D01*
X112260Y17602D01*
X112266Y17469D01*
X112268Y17336D01*
X112268Y6160D02*
X112266Y6027D01*
X112260Y5894D01*
X112251Y5762D01*
X112237Y5629D01*
X112220Y5497D01*
X112199Y5366D01*
X112174Y5235D01*
X112145Y5106D01*
X112112Y4977D01*
X112076Y4849D01*
X112036Y4722D01*
X111992Y4596D01*
X111945Y4472D01*
X111894Y4349D01*
X111840Y4228D01*
X111782Y4108D01*
X111720Y3990D01*
X111655Y3874D01*
X111587Y3760D01*
X111516Y3648D01*
X111441Y3538D01*
X111363Y3430D01*
X111282Y3324D01*
X111198Y3221D01*
X111111Y3121D01*
X111022Y3023D01*
X110929Y2927D01*
X110833Y2834D01*
X110735Y2745D01*
X110635Y2658D01*
X110532Y2574D01*
X110426Y2493D01*
X110318Y2415D01*
X110208Y2340D01*
X110096Y2269D01*
X109982Y2201D01*
X109866Y2136D01*
X109748Y2074D01*
X109628Y2016D01*
X109507Y1962D01*
X109384Y1911D01*
X109260Y1864D01*
X109134Y1820D01*
X109007Y1780D01*
X108879Y1744D01*
X108750Y1711D01*
X108621Y1682D01*
X108490Y1657D01*
X108359Y1636D01*
X108227Y1619D01*
X108094Y1605D01*
X107962Y1596D01*
X107829Y1590D01*
X107696Y1588D01*
X82296Y1588D02*
X82163Y1590D01*
X82030Y1596D01*
X81898Y1605D01*
X81765Y1619D01*
X81633Y1636D01*
X81502Y1657D01*
X81371Y1682D01*
X81242Y1711D01*
X81113Y1744D01*
X80985Y1780D01*
X80858Y1820D01*
X80732Y1864D01*
X80608Y1911D01*
X80485Y1962D01*
X80364Y2016D01*
X80244Y2074D01*
X80126Y2136D01*
X80010Y2201D01*
X79896Y2269D01*
X79784Y2340D01*
X79674Y2415D01*
X79566Y2493D01*
X79460Y2574D01*
X79357Y2658D01*
X79257Y2745D01*
X79159Y2834D01*
X79063Y2927D01*
X78970Y3023D01*
X78881Y3121D01*
X78794Y3221D01*
X78710Y3324D01*
X78629Y3430D01*
X78551Y3538D01*
X78476Y3648D01*
X78405Y3760D01*
X78337Y3874D01*
X78272Y3990D01*
X78210Y4108D01*
X78152Y4228D01*
X78098Y4349D01*
X78047Y4472D01*
X78000Y4596D01*
X77956Y4722D01*
X77916Y4849D01*
X77880Y4977D01*
X77847Y5106D01*
X77818Y5235D01*
X77793Y5366D01*
X77772Y5497D01*
X77755Y5629D01*
X77741Y5762D01*
X77732Y5894D01*
X77726Y6027D01*
X77724Y6160D01*
X77724Y17336D01*
X112268Y17336D02*
X112268Y6160D01*
X107696Y21908D02*
X82296Y21908D01*
D12*
X157036Y25400D02*
X157036Y50800D01*
X136716Y25400D02*
X136718Y25267D01*
X136724Y25134D01*
X136733Y25002D01*
X136747Y24869D01*
X136764Y24737D01*
X136785Y24606D01*
X136810Y24475D01*
X136839Y24346D01*
X136872Y24217D01*
X136908Y24089D01*
X136948Y23962D01*
X136992Y23836D01*
X137039Y23712D01*
X137090Y23589D01*
X137144Y23468D01*
X137202Y23348D01*
X137264Y23230D01*
X137329Y23114D01*
X137397Y23000D01*
X137468Y22888D01*
X137543Y22778D01*
X137621Y22670D01*
X137702Y22564D01*
X137786Y22461D01*
X137873Y22361D01*
X137962Y22263D01*
X138055Y22167D01*
X138151Y22074D01*
X138249Y21985D01*
X138349Y21898D01*
X138452Y21814D01*
X138558Y21733D01*
X138666Y21655D01*
X138776Y21580D01*
X138888Y21509D01*
X139002Y21441D01*
X139118Y21376D01*
X139236Y21314D01*
X139356Y21256D01*
X139477Y21202D01*
X139600Y21151D01*
X139724Y21104D01*
X139850Y21060D01*
X139977Y21020D01*
X140105Y20984D01*
X140234Y20951D01*
X140363Y20922D01*
X140494Y20897D01*
X140625Y20876D01*
X140757Y20859D01*
X140890Y20845D01*
X141022Y20836D01*
X141155Y20830D01*
X141288Y20828D01*
X136716Y50800D02*
X136718Y50933D01*
X136724Y51066D01*
X136733Y51198D01*
X136747Y51331D01*
X136764Y51463D01*
X136785Y51594D01*
X136810Y51725D01*
X136839Y51854D01*
X136872Y51983D01*
X136908Y52111D01*
X136948Y52238D01*
X136992Y52364D01*
X137039Y52488D01*
X137090Y52611D01*
X137144Y52732D01*
X137202Y52852D01*
X137264Y52970D01*
X137329Y53086D01*
X137397Y53200D01*
X137468Y53312D01*
X137543Y53422D01*
X137621Y53530D01*
X137702Y53636D01*
X137786Y53739D01*
X137873Y53839D01*
X137962Y53937D01*
X138055Y54033D01*
X138151Y54126D01*
X138249Y54215D01*
X138349Y54302D01*
X138452Y54386D01*
X138558Y54467D01*
X138666Y54545D01*
X138776Y54620D01*
X138888Y54691D01*
X139002Y54759D01*
X139118Y54824D01*
X139236Y54886D01*
X139356Y54944D01*
X139477Y54998D01*
X139600Y55049D01*
X139724Y55096D01*
X139850Y55140D01*
X139977Y55180D01*
X140105Y55216D01*
X140234Y55249D01*
X140363Y55278D01*
X140494Y55303D01*
X140625Y55324D01*
X140757Y55341D01*
X140890Y55355D01*
X141022Y55364D01*
X141155Y55370D01*
X141288Y55372D01*
X152464Y55372D02*
X152597Y55370D01*
X152730Y55364D01*
X152862Y55355D01*
X152995Y55341D01*
X153127Y55324D01*
X153258Y55303D01*
X153389Y55278D01*
X153518Y55249D01*
X153647Y55216D01*
X153775Y55180D01*
X153902Y55140D01*
X154028Y55096D01*
X154152Y55049D01*
X154275Y54998D01*
X154396Y54944D01*
X154516Y54886D01*
X154634Y54824D01*
X154750Y54759D01*
X154864Y54691D01*
X154976Y54620D01*
X155086Y54545D01*
X155194Y54467D01*
X155300Y54386D01*
X155403Y54302D01*
X155503Y54215D01*
X155601Y54126D01*
X155697Y54033D01*
X155790Y53937D01*
X155879Y53839D01*
X155966Y53739D01*
X156050Y53636D01*
X156131Y53530D01*
X156209Y53422D01*
X156284Y53312D01*
X156355Y53200D01*
X156423Y53086D01*
X156488Y52970D01*
X156550Y52852D01*
X156608Y52732D01*
X156662Y52611D01*
X156713Y52488D01*
X156760Y52364D01*
X156804Y52238D01*
X156844Y52111D01*
X156880Y51983D01*
X156913Y51854D01*
X156942Y51725D01*
X156967Y51594D01*
X156988Y51463D01*
X157005Y51331D01*
X157019Y51198D01*
X157028Y51066D01*
X157034Y50933D01*
X157036Y50800D01*
X157036Y25400D02*
X157034Y25267D01*
X157028Y25134D01*
X157019Y25002D01*
X157005Y24869D01*
X156988Y24737D01*
X156967Y24606D01*
X156942Y24475D01*
X156913Y24346D01*
X156880Y24217D01*
X156844Y24089D01*
X156804Y23962D01*
X156760Y23836D01*
X156713Y23712D01*
X156662Y23589D01*
X156608Y23468D01*
X156550Y23348D01*
X156488Y23230D01*
X156423Y23114D01*
X156355Y23000D01*
X156284Y22888D01*
X156209Y22778D01*
X156131Y22670D01*
X156050Y22564D01*
X155966Y22461D01*
X155879Y22361D01*
X155790Y22263D01*
X155697Y22167D01*
X155601Y22074D01*
X155503Y21985D01*
X155403Y21898D01*
X155300Y21814D01*
X155194Y21733D01*
X155086Y21655D01*
X154976Y21580D01*
X154864Y21509D01*
X154750Y21441D01*
X154634Y21376D01*
X154516Y21314D01*
X154396Y21256D01*
X154275Y21202D01*
X154152Y21151D01*
X154028Y21104D01*
X153902Y21060D01*
X153775Y21020D01*
X153647Y20984D01*
X153518Y20951D01*
X153389Y20922D01*
X153258Y20897D01*
X153127Y20876D01*
X152995Y20859D01*
X152862Y20845D01*
X152730Y20836D01*
X152597Y20830D01*
X152464Y20828D01*
X141288Y20828D01*
X141288Y55372D02*
X152464Y55372D01*
X136716Y50800D02*
X136716Y25400D01*
X162814Y87122D02*
X178054Y87122D01*
X182626Y71374D02*
X182624Y71241D01*
X182618Y71108D01*
X182609Y70976D01*
X182595Y70843D01*
X182578Y70711D01*
X182557Y70580D01*
X182532Y70449D01*
X182503Y70320D01*
X182470Y70191D01*
X182434Y70063D01*
X182394Y69936D01*
X182350Y69810D01*
X182303Y69686D01*
X182252Y69563D01*
X182198Y69442D01*
X182140Y69322D01*
X182078Y69204D01*
X182013Y69088D01*
X181945Y68974D01*
X181874Y68862D01*
X181799Y68752D01*
X181721Y68644D01*
X181640Y68538D01*
X181556Y68435D01*
X181469Y68335D01*
X181380Y68237D01*
X181287Y68141D01*
X181191Y68048D01*
X181093Y67959D01*
X180993Y67872D01*
X180890Y67788D01*
X180784Y67707D01*
X180676Y67629D01*
X180566Y67554D01*
X180454Y67483D01*
X180340Y67415D01*
X180224Y67350D01*
X180106Y67288D01*
X179986Y67230D01*
X179865Y67176D01*
X179742Y67125D01*
X179618Y67078D01*
X179492Y67034D01*
X179365Y66994D01*
X179237Y66958D01*
X179108Y66925D01*
X178979Y66896D01*
X178848Y66871D01*
X178717Y66850D01*
X178585Y66833D01*
X178452Y66819D01*
X178320Y66810D01*
X178187Y66804D01*
X178054Y66802D01*
X162814Y66802D02*
X162681Y66804D01*
X162548Y66810D01*
X162416Y66819D01*
X162283Y66833D01*
X162151Y66850D01*
X162020Y66871D01*
X161889Y66896D01*
X161760Y66925D01*
X161631Y66958D01*
X161503Y66994D01*
X161376Y67034D01*
X161250Y67078D01*
X161126Y67125D01*
X161003Y67176D01*
X160882Y67230D01*
X160762Y67288D01*
X160644Y67350D01*
X160528Y67415D01*
X160414Y67483D01*
X160302Y67554D01*
X160192Y67629D01*
X160084Y67707D01*
X159978Y67788D01*
X159875Y67872D01*
X159775Y67959D01*
X159677Y68048D01*
X159581Y68141D01*
X159488Y68237D01*
X159399Y68335D01*
X159312Y68435D01*
X159228Y68538D01*
X159147Y68644D01*
X159069Y68752D01*
X158994Y68862D01*
X158923Y68974D01*
X158855Y69088D01*
X158790Y69204D01*
X158728Y69322D01*
X158670Y69442D01*
X158616Y69563D01*
X158565Y69686D01*
X158518Y69810D01*
X158474Y69936D01*
X158434Y70063D01*
X158398Y70191D01*
X158365Y70320D01*
X158336Y70449D01*
X158311Y70580D01*
X158290Y70711D01*
X158273Y70843D01*
X158259Y70976D01*
X158250Y71108D01*
X158244Y71241D01*
X158242Y71374D01*
X158242Y82550D02*
X158244Y82683D01*
X158250Y82816D01*
X158259Y82948D01*
X158273Y83081D01*
X158290Y83213D01*
X158311Y83344D01*
X158336Y83475D01*
X158365Y83604D01*
X158398Y83733D01*
X158434Y83861D01*
X158474Y83988D01*
X158518Y84114D01*
X158565Y84238D01*
X158616Y84361D01*
X158670Y84482D01*
X158728Y84602D01*
X158790Y84720D01*
X158855Y84836D01*
X158923Y84950D01*
X158994Y85062D01*
X159069Y85172D01*
X159147Y85280D01*
X159228Y85386D01*
X159312Y85489D01*
X159399Y85589D01*
X159488Y85687D01*
X159581Y85783D01*
X159677Y85876D01*
X159775Y85965D01*
X159875Y86052D01*
X159978Y86136D01*
X160084Y86217D01*
X160192Y86295D01*
X160302Y86370D01*
X160414Y86441D01*
X160528Y86509D01*
X160644Y86574D01*
X160762Y86636D01*
X160882Y86694D01*
X161003Y86748D01*
X161126Y86799D01*
X161250Y86846D01*
X161376Y86890D01*
X161503Y86930D01*
X161631Y86966D01*
X161760Y86999D01*
X161889Y87028D01*
X162020Y87053D01*
X162151Y87074D01*
X162283Y87091D01*
X162416Y87105D01*
X162548Y87114D01*
X162681Y87120D01*
X162814Y87122D01*
X178054Y87122D02*
X178187Y87120D01*
X178320Y87114D01*
X178452Y87105D01*
X178585Y87091D01*
X178717Y87074D01*
X178848Y87053D01*
X178979Y87028D01*
X179108Y86999D01*
X179237Y86966D01*
X179365Y86930D01*
X179492Y86890D01*
X179618Y86846D01*
X179742Y86799D01*
X179865Y86748D01*
X179986Y86694D01*
X180106Y86636D01*
X180224Y86574D01*
X180340Y86509D01*
X180454Y86441D01*
X180566Y86370D01*
X180676Y86295D01*
X180784Y86217D01*
X180890Y86136D01*
X180993Y86052D01*
X181093Y85965D01*
X181191Y85876D01*
X181287Y85783D01*
X181380Y85687D01*
X181469Y85589D01*
X181556Y85489D01*
X181640Y85386D01*
X181721Y85280D01*
X181799Y85172D01*
X181874Y85062D01*
X181945Y84950D01*
X182013Y84836D01*
X182078Y84720D01*
X182140Y84602D01*
X182198Y84482D01*
X182252Y84361D01*
X182303Y84238D01*
X182350Y84114D01*
X182394Y83988D01*
X182434Y83861D01*
X182470Y83733D01*
X182503Y83604D01*
X182532Y83475D01*
X182557Y83344D01*
X182578Y83213D01*
X182595Y83081D01*
X182609Y82948D01*
X182618Y82816D01*
X182624Y82683D01*
X182626Y82550D01*
X182626Y71374D01*
X158242Y71374D02*
X158242Y82550D01*
X162814Y66802D02*
X178054Y66802D01*
M02*
