G04 EAGLE Gerber RS-274X export*
G75*
%MOMM*%
%FSLAX34Y34*%
%LPD*%
%INSoldermask Top*%
%IPPOS*%
%AMOC8*
5,1,8,0,0,1.08239X$1,22.5*%
G01*
%ADD10C,0.225369*%
%ADD11C,3.175000*%
%ADD12C,0.762000*%
%ADD13C,0.230578*%
%ADD14C,0.225588*%
%ADD15C,2.006600*%


D10*
X78534Y57500D02*
X73518Y57500D01*
X73518Y62516D01*
X78534Y62516D01*
X78534Y57500D01*
X78534Y59641D02*
X73518Y59641D01*
X73518Y61782D02*
X78534Y61782D01*
X83518Y57500D02*
X88534Y57500D01*
X83518Y57500D02*
X83518Y62516D01*
X88534Y62516D01*
X88534Y57500D01*
X88534Y59641D02*
X83518Y59641D01*
X83518Y61782D02*
X88534Y61782D01*
X102695Y62516D02*
X107711Y62516D01*
X107711Y57500D01*
X102695Y57500D01*
X102695Y62516D01*
X102695Y59641D02*
X107711Y59641D01*
X107711Y61782D02*
X102695Y61782D01*
X97711Y62516D02*
X92695Y62516D01*
X97711Y62516D02*
X97711Y57500D01*
X92695Y57500D01*
X92695Y62516D01*
X92695Y59641D02*
X97711Y59641D01*
X97711Y61782D02*
X92695Y61782D01*
D11*
X25400Y38100D03*
D10*
X125762Y40244D02*
X125762Y45260D01*
X125762Y40244D02*
X120746Y40244D01*
X120746Y45260D01*
X125762Y45260D01*
X125762Y42385D02*
X120746Y42385D01*
X120746Y44526D02*
X125762Y44526D01*
X125762Y50244D02*
X125762Y55260D01*
X125762Y50244D02*
X120746Y50244D01*
X120746Y55260D01*
X125762Y55260D01*
X125762Y52385D02*
X120746Y52385D01*
X120746Y54526D02*
X125762Y54526D01*
X120746Y36210D02*
X120746Y31194D01*
X120746Y36210D02*
X125762Y36210D01*
X125762Y31194D01*
X120746Y31194D01*
X120746Y33335D02*
X125762Y33335D01*
X125762Y35476D02*
X120746Y35476D01*
X120746Y26210D02*
X120746Y21194D01*
X120746Y26210D02*
X125762Y26210D01*
X125762Y21194D01*
X120746Y21194D01*
X120746Y23335D02*
X125762Y23335D01*
X125762Y25476D02*
X120746Y25476D01*
D12*
X151130Y74168D03*
X9652Y9398D03*
D10*
X164450Y78010D02*
X169466Y78010D01*
X164450Y78010D02*
X164450Y83026D01*
X169466Y83026D01*
X169466Y78010D01*
X169466Y80151D02*
X164450Y80151D01*
X164450Y82292D02*
X169466Y82292D01*
X174450Y78010D02*
X179466Y78010D01*
X174450Y78010D02*
X174450Y83026D01*
X179466Y83026D01*
X179466Y78010D01*
X179466Y80151D02*
X174450Y80151D01*
X174450Y82292D02*
X179466Y82292D01*
X137556Y83280D02*
X132540Y83280D01*
X137556Y83280D02*
X137556Y78264D01*
X132540Y78264D01*
X132540Y83280D01*
X132540Y80405D02*
X137556Y80405D01*
X137556Y82546D02*
X132540Y82546D01*
X127556Y83280D02*
X122540Y83280D01*
X127556Y83280D02*
X127556Y78264D01*
X122540Y78264D01*
X122540Y83280D01*
X122540Y80405D02*
X127556Y80405D01*
X127556Y82546D02*
X122540Y82546D01*
X83868Y5874D02*
X78852Y5874D01*
X78852Y10890D01*
X83868Y10890D01*
X83868Y5874D01*
X83868Y8015D02*
X78852Y8015D01*
X78852Y10156D02*
X83868Y10156D01*
X88852Y5874D02*
X93868Y5874D01*
X88852Y5874D02*
X88852Y10890D01*
X93868Y10890D01*
X93868Y5874D01*
X93868Y8015D02*
X88852Y8015D01*
X88852Y10156D02*
X93868Y10156D01*
D13*
X104485Y34122D02*
X108249Y34122D01*
X108249Y32158D01*
X104485Y32158D01*
X104485Y34122D01*
X104485Y39122D02*
X108249Y39122D01*
X108249Y37158D01*
X104485Y37158D01*
X104485Y39122D01*
X104485Y44122D02*
X108249Y44122D01*
X108249Y42158D01*
X104485Y42158D01*
X104485Y44122D01*
X104485Y49122D02*
X108249Y49122D01*
X108249Y47158D01*
X104485Y47158D01*
X104485Y49122D01*
X84999Y47158D02*
X81235Y47158D01*
X81235Y49122D01*
X84999Y49122D01*
X84999Y47158D01*
X84999Y42158D02*
X81235Y42158D01*
X81235Y44122D01*
X84999Y44122D01*
X84999Y42158D01*
X84999Y37158D02*
X81235Y37158D01*
X81235Y39122D01*
X84999Y39122D01*
X84999Y37158D01*
X84999Y32158D02*
X81235Y32158D01*
X81235Y34122D01*
X84999Y34122D01*
X84999Y32158D01*
X98760Y52522D02*
X100724Y52522D01*
X100724Y48758D01*
X98760Y48758D01*
X98760Y52522D01*
X98760Y50949D02*
X100724Y50949D01*
X95724Y52522D02*
X93760Y52522D01*
X95724Y52522D02*
X95724Y48758D01*
X93760Y48758D01*
X93760Y52522D01*
X93760Y50949D02*
X95724Y50949D01*
X90724Y52522D02*
X88760Y52522D01*
X90724Y52522D02*
X90724Y48758D01*
X88760Y48758D01*
X88760Y52522D01*
X88760Y50949D02*
X90724Y50949D01*
X90724Y28758D02*
X88760Y28758D01*
X88760Y32522D01*
X90724Y32522D01*
X90724Y28758D01*
X90724Y30949D02*
X88760Y30949D01*
X93760Y28758D02*
X95724Y28758D01*
X93760Y28758D02*
X93760Y32522D01*
X95724Y32522D01*
X95724Y28758D01*
X95724Y30949D02*
X93760Y30949D01*
X98760Y28758D02*
X100724Y28758D01*
X98760Y28758D02*
X98760Y32522D01*
X100724Y32522D01*
X100724Y28758D01*
X100724Y30949D02*
X98760Y30949D01*
D10*
X131524Y10890D02*
X136540Y10890D01*
X136540Y5874D01*
X131524Y5874D01*
X131524Y10890D01*
X131524Y8015D02*
X136540Y8015D01*
X136540Y10156D02*
X131524Y10156D01*
X126540Y10890D02*
X121524Y10890D01*
X126540Y10890D02*
X126540Y5874D01*
X121524Y5874D01*
X121524Y10890D01*
X121524Y8015D02*
X126540Y8015D01*
X126540Y10156D02*
X121524Y10156D01*
D14*
X186973Y5101D02*
X186973Y16115D01*
X186973Y5101D02*
X167959Y5101D01*
X167959Y16115D01*
X186973Y16115D01*
X186973Y7244D02*
X167959Y7244D01*
X167959Y9387D02*
X186973Y9387D01*
X186973Y11530D02*
X167959Y11530D01*
X167959Y13673D02*
X186973Y13673D01*
X186973Y15816D02*
X167959Y15816D01*
X186973Y61101D02*
X186973Y72115D01*
X186973Y61101D02*
X167959Y61101D01*
X167959Y72115D01*
X186973Y72115D01*
X186973Y63244D02*
X167959Y63244D01*
X167959Y65387D02*
X186973Y65387D01*
X186973Y67530D02*
X167959Y67530D01*
X167959Y69673D02*
X186973Y69673D01*
X186973Y71816D02*
X167959Y71816D01*
D10*
X146974Y26116D02*
X146974Y21100D01*
X134458Y21100D01*
X134458Y26116D01*
X146974Y26116D01*
X146974Y23241D02*
X134458Y23241D01*
X134458Y25382D02*
X146974Y25382D01*
X146974Y31100D02*
X146974Y36116D01*
X146974Y31100D02*
X134458Y31100D01*
X134458Y36116D01*
X146974Y36116D01*
X146974Y33241D02*
X134458Y33241D01*
X134458Y35382D02*
X146974Y35382D01*
X146974Y41100D02*
X146974Y46116D01*
X146974Y41100D02*
X134458Y41100D01*
X134458Y46116D01*
X146974Y46116D01*
X146974Y43241D02*
X134458Y43241D01*
X134458Y45382D02*
X146974Y45382D01*
X146974Y51100D02*
X146974Y56116D01*
X146974Y51100D02*
X134458Y51100D01*
X134458Y56116D01*
X146974Y56116D01*
X146974Y53241D02*
X134458Y53241D01*
X134458Y55382D02*
X146974Y55382D01*
D15*
X76200Y76200D03*
X101600Y76200D03*
M02*
