G04 EAGLE Gerber RS-274X export*
G75*
%MOMM*%
%FSLAX34Y34*%
%LPD*%
%INSolderpaste Top*%
%IPPOS*%
%AMOC8*
5,1,8,0,0,1.08239X$1,22.5*%
G01*
%ADD10C,0.102000*%
%ADD11C,0.096000*%


D10*
X78516Y57518D02*
X73536Y57518D01*
X73536Y62498D01*
X78516Y62498D01*
X78516Y57518D01*
X78516Y58487D02*
X73536Y58487D01*
X73536Y59456D02*
X78516Y59456D01*
X78516Y60425D02*
X73536Y60425D01*
X73536Y61394D02*
X78516Y61394D01*
X78516Y62363D02*
X73536Y62363D01*
X83536Y57518D02*
X88516Y57518D01*
X83536Y57518D02*
X83536Y62498D01*
X88516Y62498D01*
X88516Y57518D01*
X88516Y58487D02*
X83536Y58487D01*
X83536Y59456D02*
X88516Y59456D01*
X88516Y60425D02*
X83536Y60425D01*
X83536Y61394D02*
X88516Y61394D01*
X88516Y62363D02*
X83536Y62363D01*
X102713Y62498D02*
X107693Y62498D01*
X107693Y57518D01*
X102713Y57518D01*
X102713Y62498D01*
X102713Y58487D02*
X107693Y58487D01*
X107693Y59456D02*
X102713Y59456D01*
X102713Y60425D02*
X107693Y60425D01*
X107693Y61394D02*
X102713Y61394D01*
X102713Y62363D02*
X107693Y62363D01*
X97693Y62498D02*
X92713Y62498D01*
X97693Y62498D02*
X97693Y57518D01*
X92713Y57518D01*
X92713Y62498D01*
X92713Y58487D02*
X97693Y58487D01*
X97693Y59456D02*
X92713Y59456D01*
X92713Y60425D02*
X97693Y60425D01*
X97693Y61394D02*
X92713Y61394D01*
X92713Y62363D02*
X97693Y62363D01*
X125744Y45242D02*
X125744Y40262D01*
X120764Y40262D01*
X120764Y45242D01*
X125744Y45242D01*
X125744Y41231D02*
X120764Y41231D01*
X120764Y42200D02*
X125744Y42200D01*
X125744Y43169D02*
X120764Y43169D01*
X120764Y44138D02*
X125744Y44138D01*
X125744Y45107D02*
X120764Y45107D01*
X125744Y50262D02*
X125744Y55242D01*
X125744Y50262D02*
X120764Y50262D01*
X120764Y55242D01*
X125744Y55242D01*
X125744Y51231D02*
X120764Y51231D01*
X120764Y52200D02*
X125744Y52200D01*
X125744Y53169D02*
X120764Y53169D01*
X120764Y54138D02*
X125744Y54138D01*
X125744Y55107D02*
X120764Y55107D01*
X120764Y36192D02*
X120764Y31212D01*
X120764Y36192D02*
X125744Y36192D01*
X125744Y31212D01*
X120764Y31212D01*
X120764Y32181D02*
X125744Y32181D01*
X125744Y33150D02*
X120764Y33150D01*
X120764Y34119D02*
X125744Y34119D01*
X125744Y35088D02*
X120764Y35088D01*
X120764Y36057D02*
X125744Y36057D01*
X120764Y26192D02*
X120764Y21212D01*
X120764Y26192D02*
X125744Y26192D01*
X125744Y21212D01*
X120764Y21212D01*
X120764Y22181D02*
X125744Y22181D01*
X125744Y23150D02*
X120764Y23150D01*
X120764Y24119D02*
X125744Y24119D01*
X125744Y25088D02*
X120764Y25088D01*
X120764Y26057D02*
X125744Y26057D01*
X164468Y78028D02*
X169448Y78028D01*
X164468Y78028D02*
X164468Y83008D01*
X169448Y83008D01*
X169448Y78028D01*
X169448Y78997D02*
X164468Y78997D01*
X164468Y79966D02*
X169448Y79966D01*
X169448Y80935D02*
X164468Y80935D01*
X164468Y81904D02*
X169448Y81904D01*
X169448Y82873D02*
X164468Y82873D01*
X174468Y78028D02*
X179448Y78028D01*
X174468Y78028D02*
X174468Y83008D01*
X179448Y83008D01*
X179448Y78028D01*
X179448Y78997D02*
X174468Y78997D01*
X174468Y79966D02*
X179448Y79966D01*
X179448Y80935D02*
X174468Y80935D01*
X174468Y81904D02*
X179448Y81904D01*
X179448Y82873D02*
X174468Y82873D01*
X137538Y83262D02*
X132558Y83262D01*
X137538Y83262D02*
X137538Y78282D01*
X132558Y78282D01*
X132558Y83262D01*
X132558Y79251D02*
X137538Y79251D01*
X137538Y80220D02*
X132558Y80220D01*
X132558Y81189D02*
X137538Y81189D01*
X137538Y82158D02*
X132558Y82158D01*
X132558Y83127D02*
X137538Y83127D01*
X127538Y83262D02*
X122558Y83262D01*
X127538Y83262D02*
X127538Y78282D01*
X122558Y78282D01*
X122558Y83262D01*
X122558Y79251D02*
X127538Y79251D01*
X127538Y80220D02*
X122558Y80220D01*
X122558Y81189D02*
X127538Y81189D01*
X127538Y82158D02*
X122558Y82158D01*
X122558Y83127D02*
X127538Y83127D01*
X83850Y5892D02*
X78870Y5892D01*
X78870Y10872D01*
X83850Y10872D01*
X83850Y5892D01*
X83850Y6861D02*
X78870Y6861D01*
X78870Y7830D02*
X83850Y7830D01*
X83850Y8799D02*
X78870Y8799D01*
X78870Y9768D02*
X83850Y9768D01*
X83850Y10737D02*
X78870Y10737D01*
X88870Y5892D02*
X93850Y5892D01*
X88870Y5892D02*
X88870Y10872D01*
X93850Y10872D01*
X93850Y5892D01*
X93850Y6861D02*
X88870Y6861D01*
X88870Y7830D02*
X93850Y7830D01*
X93850Y8799D02*
X88870Y8799D01*
X88870Y9768D02*
X93850Y9768D01*
X93850Y10737D02*
X88870Y10737D01*
X104477Y34130D02*
X108257Y34130D01*
X108257Y32150D01*
X104477Y32150D01*
X104477Y34130D01*
X104477Y33119D02*
X108257Y33119D01*
X108257Y34088D02*
X104477Y34088D01*
X104477Y39130D02*
X108257Y39130D01*
X108257Y37150D01*
X104477Y37150D01*
X104477Y39130D01*
X104477Y38119D02*
X108257Y38119D01*
X108257Y39088D02*
X104477Y39088D01*
X104477Y44130D02*
X108257Y44130D01*
X108257Y42150D01*
X104477Y42150D01*
X104477Y44130D01*
X104477Y43119D02*
X108257Y43119D01*
X108257Y44088D02*
X104477Y44088D01*
X104477Y49130D02*
X108257Y49130D01*
X108257Y47150D01*
X104477Y47150D01*
X104477Y49130D01*
X104477Y48119D02*
X108257Y48119D01*
X108257Y49088D02*
X104477Y49088D01*
X85007Y47150D02*
X81227Y47150D01*
X81227Y49130D01*
X85007Y49130D01*
X85007Y47150D01*
X85007Y48119D02*
X81227Y48119D01*
X81227Y49088D02*
X85007Y49088D01*
X85007Y42150D02*
X81227Y42150D01*
X81227Y44130D01*
X85007Y44130D01*
X85007Y42150D01*
X85007Y43119D02*
X81227Y43119D01*
X81227Y44088D02*
X85007Y44088D01*
X85007Y37150D02*
X81227Y37150D01*
X81227Y39130D01*
X85007Y39130D01*
X85007Y37150D01*
X85007Y38119D02*
X81227Y38119D01*
X81227Y39088D02*
X85007Y39088D01*
X85007Y32150D02*
X81227Y32150D01*
X81227Y34130D01*
X85007Y34130D01*
X85007Y32150D01*
X85007Y33119D02*
X81227Y33119D01*
X81227Y34088D02*
X85007Y34088D01*
X98752Y52530D02*
X100732Y52530D01*
X100732Y48750D01*
X98752Y48750D01*
X98752Y52530D01*
X98752Y49719D02*
X100732Y49719D01*
X100732Y50688D02*
X98752Y50688D01*
X98752Y51657D02*
X100732Y51657D01*
X95732Y52530D02*
X93752Y52530D01*
X95732Y52530D02*
X95732Y48750D01*
X93752Y48750D01*
X93752Y52530D01*
X93752Y49719D02*
X95732Y49719D01*
X95732Y50688D02*
X93752Y50688D01*
X93752Y51657D02*
X95732Y51657D01*
X90732Y52530D02*
X88752Y52530D01*
X90732Y52530D02*
X90732Y48750D01*
X88752Y48750D01*
X88752Y52530D01*
X88752Y49719D02*
X90732Y49719D01*
X90732Y50688D02*
X88752Y50688D01*
X88752Y51657D02*
X90732Y51657D01*
X90732Y28750D02*
X88752Y28750D01*
X88752Y32530D01*
X90732Y32530D01*
X90732Y28750D01*
X90732Y29719D02*
X88752Y29719D01*
X88752Y30688D02*
X90732Y30688D01*
X90732Y31657D02*
X88752Y31657D01*
X93752Y28750D02*
X95732Y28750D01*
X93752Y28750D02*
X93752Y32530D01*
X95732Y32530D01*
X95732Y28750D01*
X95732Y29719D02*
X93752Y29719D01*
X93752Y30688D02*
X95732Y30688D01*
X95732Y31657D02*
X93752Y31657D01*
X98752Y28750D02*
X100732Y28750D01*
X98752Y28750D02*
X98752Y32530D01*
X100732Y32530D01*
X100732Y28750D01*
X100732Y29719D02*
X98752Y29719D01*
X98752Y30688D02*
X100732Y30688D01*
X100732Y31657D02*
X98752Y31657D01*
X131542Y10872D02*
X136522Y10872D01*
X136522Y5892D01*
X131542Y5892D01*
X131542Y10872D01*
X131542Y6861D02*
X136522Y6861D01*
X136522Y7830D02*
X131542Y7830D01*
X131542Y8799D02*
X136522Y8799D01*
X136522Y9768D02*
X131542Y9768D01*
X131542Y10737D02*
X136522Y10737D01*
X126522Y10872D02*
X121542Y10872D01*
X126522Y10872D02*
X126522Y5892D01*
X121542Y5892D01*
X121542Y10872D01*
X121542Y6861D02*
X126522Y6861D01*
X126522Y7830D02*
X121542Y7830D01*
X121542Y8799D02*
X126522Y8799D01*
X126522Y9768D02*
X121542Y9768D01*
X121542Y10737D02*
X126522Y10737D01*
D11*
X186986Y16128D02*
X186986Y5088D01*
X167946Y5088D01*
X167946Y16128D01*
X186986Y16128D01*
X186986Y6000D02*
X167946Y6000D01*
X167946Y6912D02*
X186986Y6912D01*
X186986Y7824D02*
X167946Y7824D01*
X167946Y8736D02*
X186986Y8736D01*
X186986Y9648D02*
X167946Y9648D01*
X167946Y10560D02*
X186986Y10560D01*
X186986Y11472D02*
X167946Y11472D01*
X167946Y12384D02*
X186986Y12384D01*
X186986Y13296D02*
X167946Y13296D01*
X167946Y14208D02*
X186986Y14208D01*
X186986Y15120D02*
X167946Y15120D01*
X167946Y16032D02*
X186986Y16032D01*
X186986Y61088D02*
X186986Y72128D01*
X186986Y61088D02*
X167946Y61088D01*
X167946Y72128D01*
X186986Y72128D01*
X186986Y62000D02*
X167946Y62000D01*
X167946Y62912D02*
X186986Y62912D01*
X186986Y63824D02*
X167946Y63824D01*
X167946Y64736D02*
X186986Y64736D01*
X186986Y65648D02*
X167946Y65648D01*
X167946Y66560D02*
X186986Y66560D01*
X186986Y67472D02*
X167946Y67472D01*
X167946Y68384D02*
X186986Y68384D01*
X186986Y69296D02*
X167946Y69296D01*
X167946Y70208D02*
X186986Y70208D01*
X186986Y71120D02*
X167946Y71120D01*
X167946Y72032D02*
X186986Y72032D01*
D10*
X146956Y26098D02*
X146956Y21118D01*
X134476Y21118D01*
X134476Y26098D01*
X146956Y26098D01*
X146956Y22087D02*
X134476Y22087D01*
X134476Y23056D02*
X146956Y23056D01*
X146956Y24025D02*
X134476Y24025D01*
X134476Y24994D02*
X146956Y24994D01*
X146956Y25963D02*
X134476Y25963D01*
X146956Y31118D02*
X146956Y36098D01*
X146956Y31118D02*
X134476Y31118D01*
X134476Y36098D01*
X146956Y36098D01*
X146956Y32087D02*
X134476Y32087D01*
X134476Y33056D02*
X146956Y33056D01*
X146956Y34025D02*
X134476Y34025D01*
X134476Y34994D02*
X146956Y34994D01*
X146956Y35963D02*
X134476Y35963D01*
X146956Y41118D02*
X146956Y46098D01*
X146956Y41118D02*
X134476Y41118D01*
X134476Y46098D01*
X146956Y46098D01*
X146956Y42087D02*
X134476Y42087D01*
X134476Y43056D02*
X146956Y43056D01*
X146956Y44025D02*
X134476Y44025D01*
X134476Y44994D02*
X146956Y44994D01*
X146956Y45963D02*
X134476Y45963D01*
X146956Y51118D02*
X146956Y56098D01*
X146956Y51118D02*
X134476Y51118D01*
X134476Y56098D01*
X146956Y56098D01*
X146956Y52087D02*
X134476Y52087D01*
X134476Y53056D02*
X146956Y53056D01*
X146956Y54025D02*
X134476Y54025D01*
X134476Y54994D02*
X146956Y54994D01*
X146956Y55963D02*
X134476Y55963D01*
M02*
