G04 EAGLE Gerber RS-274X export*
G75*
%MOMM*%
%FSLAX34Y34*%
%LPD*%
%INSilkscreen Top*%
%IPPOS*%
%AMOC8*
5,1,8,0,0,1.08239X$1,22.5*%
G01*
%ADD10C,0.152400*%
%ADD11C,0.560987*%
%ADD12C,0.203200*%

G36*
X39605Y69374D02*
X39605Y69374D01*
X39631Y69371D01*
X39689Y69393D01*
X39749Y69407D01*
X39769Y69424D01*
X39793Y69433D01*
X39835Y69478D01*
X39882Y69517D01*
X39893Y69541D01*
X39910Y69560D01*
X39928Y69619D01*
X39953Y69676D01*
X39952Y69701D01*
X39960Y69726D01*
X39949Y69787D01*
X39947Y69849D01*
X39934Y69871D01*
X39930Y69897D01*
X39882Y69968D01*
X39864Y70001D01*
X39856Y70007D01*
X39849Y70017D01*
X39349Y70517D01*
X39318Y70536D01*
X39276Y70574D01*
X38816Y70850D01*
X38349Y71317D01*
X38336Y71325D01*
X38323Y71340D01*
X37737Y71829D01*
X36549Y73017D01*
X36538Y73024D01*
X36527Y73037D01*
X35138Y74227D01*
X34182Y75184D01*
X33643Y76082D01*
X33560Y76579D01*
X33560Y78448D01*
X33554Y78474D01*
X33555Y78511D01*
X33355Y79711D01*
X33349Y79724D01*
X33349Y79735D01*
X33348Y79738D01*
X33347Y79748D01*
X33247Y80115D01*
X33247Y80116D01*
X33143Y80496D01*
X33047Y80848D01*
X33038Y80865D01*
X33036Y80875D01*
X33036Y80876D01*
X33035Y80877D01*
X33033Y80889D01*
X32633Y81889D01*
X32618Y81911D01*
X32606Y81944D01*
X32006Y82944D01*
X31986Y82964D01*
X31966Y82998D01*
X31266Y83798D01*
X31257Y83805D01*
X31249Y83817D01*
X30449Y84617D01*
X30431Y84628D01*
X30413Y84648D01*
X29513Y85348D01*
X29490Y85359D01*
X29465Y85380D01*
X27665Y86380D01*
X27629Y86391D01*
X27577Y86416D01*
X25677Y86916D01*
X25645Y86917D01*
X25602Y86928D01*
X23902Y87028D01*
X23866Y87021D01*
X23810Y87022D01*
X22210Y86722D01*
X22189Y86713D01*
X22160Y86709D01*
X20660Y86209D01*
X20629Y86190D01*
X20576Y86169D01*
X19476Y85469D01*
X19457Y85450D01*
X19427Y85432D01*
X18527Y84632D01*
X18505Y84600D01*
X18458Y84550D01*
X17958Y83750D01*
X17935Y83684D01*
X17907Y83620D01*
X17907Y83603D01*
X17902Y83586D01*
X17911Y83517D01*
X17913Y83447D01*
X17922Y83432D01*
X17924Y83414D01*
X17963Y83356D01*
X17996Y83295D01*
X18011Y83285D01*
X18021Y83270D01*
X18081Y83235D01*
X18138Y83195D01*
X18157Y83192D01*
X18171Y83184D01*
X18210Y83181D01*
X18280Y83168D01*
X19118Y83168D01*
X19334Y83096D01*
X19455Y83036D01*
X19648Y82843D01*
X19700Y82686D01*
X19700Y82495D01*
X19521Y81781D01*
X19351Y81439D01*
X19169Y81168D01*
X18892Y80798D01*
X18338Y80244D01*
X17824Y79901D01*
X17533Y79828D01*
X17042Y79828D01*
X16826Y79900D01*
X16671Y79978D01*
X16445Y80128D01*
X16205Y80449D01*
X16043Y80772D01*
X15953Y81223D01*
X15949Y81230D01*
X15949Y81240D01*
X15860Y81595D01*
X15860Y82058D01*
X15920Y82178D01*
X15924Y82193D01*
X15933Y82206D01*
X15959Y82340D01*
X15960Y82347D01*
X15960Y82348D01*
X15960Y82448D01*
X15954Y82473D01*
X15957Y82499D01*
X15935Y82557D01*
X15921Y82617D01*
X15904Y82637D01*
X15895Y82661D01*
X15850Y82703D01*
X15811Y82750D01*
X15787Y82761D01*
X15768Y82778D01*
X15709Y82796D01*
X15652Y82821D01*
X15627Y82820D01*
X15602Y82828D01*
X15541Y82817D01*
X15479Y82815D01*
X15457Y82802D01*
X15431Y82798D01*
X15360Y82750D01*
X15327Y82732D01*
X15321Y82724D01*
X15311Y82717D01*
X15211Y82617D01*
X15199Y82597D01*
X15176Y82576D01*
X14876Y82176D01*
X14864Y82150D01*
X14862Y82147D01*
X14861Y82146D01*
X14840Y82118D01*
X14140Y80718D01*
X14131Y80683D01*
X14109Y80631D01*
X13909Y79731D01*
X13909Y79712D01*
X13907Y79707D01*
X13907Y79688D01*
X13900Y79648D01*
X13900Y78648D01*
X13906Y78620D01*
X13906Y78580D01*
X14106Y77480D01*
X14121Y77445D01*
X14146Y77366D01*
X14746Y76266D01*
X14764Y76246D01*
X14780Y76215D01*
X15480Y75315D01*
X15504Y75295D01*
X15578Y75226D01*
X16378Y74726D01*
X16412Y74714D01*
X16460Y74687D01*
X17360Y74387D01*
X17397Y74384D01*
X17480Y74368D01*
X18280Y74368D01*
X18313Y74375D01*
X18363Y74377D01*
X19263Y74577D01*
X19298Y74594D01*
X19365Y74616D01*
X20265Y75116D01*
X20289Y75138D01*
X20330Y75162D01*
X21130Y75862D01*
X21131Y75863D01*
X21133Y75864D01*
X22033Y76664D01*
X22038Y76672D01*
X22049Y76679D01*
X22691Y77321D01*
X23349Y77568D01*
X23918Y77568D01*
X24395Y77409D01*
X24796Y77088D01*
X25127Y76592D01*
X25300Y75901D01*
X25300Y75186D01*
X25214Y74757D01*
X25056Y74362D01*
X24538Y73844D01*
X24312Y73693D01*
X24118Y73628D01*
X23842Y73628D01*
X23685Y73680D01*
X23212Y74153D01*
X23141Y74368D01*
X23128Y74388D01*
X23120Y74418D01*
X22920Y74818D01*
X22896Y74847D01*
X22849Y74917D01*
X22749Y75017D01*
X22728Y75030D01*
X22712Y75049D01*
X22655Y75075D01*
X22602Y75108D01*
X22577Y75111D01*
X22554Y75121D01*
X22491Y75119D01*
X22429Y75125D01*
X22406Y75116D01*
X22381Y75115D01*
X22326Y75085D01*
X22267Y75063D01*
X22250Y75045D01*
X22228Y75033D01*
X22174Y74963D01*
X22150Y74936D01*
X22147Y74927D01*
X22140Y74918D01*
X21940Y74518D01*
X21936Y74503D01*
X21927Y74490D01*
X21901Y74356D01*
X21900Y74350D01*
X21900Y74349D01*
X21900Y74348D01*
X21900Y73148D01*
X21906Y73122D01*
X21905Y73086D01*
X22005Y72486D01*
X22007Y72480D01*
X22007Y72473D01*
X22107Y71973D01*
X22119Y71947D01*
X22120Y71942D01*
X22121Y71929D01*
X22124Y71923D01*
X22127Y71907D01*
X22327Y71407D01*
X22349Y71376D01*
X22376Y71320D01*
X22676Y70920D01*
X22680Y70916D01*
X22683Y70910D01*
X23083Y70410D01*
X23106Y70393D01*
X23184Y70322D01*
X24184Y69722D01*
X24220Y69710D01*
X24276Y69682D01*
X24976Y69482D01*
X25001Y69481D01*
X25033Y69471D01*
X25833Y69371D01*
X25854Y69373D01*
X25880Y69368D01*
X39580Y69368D01*
X39605Y69374D01*
G37*
G36*
X118419Y58602D02*
X118419Y58602D01*
X118423Y58601D01*
X118906Y58648D01*
X118921Y58660D01*
X118941Y58663D01*
X118950Y58683D01*
X118959Y58690D01*
X118957Y58699D01*
X118962Y58711D01*
X118962Y61359D01*
X118956Y61368D01*
X118959Y61379D01*
X118939Y61395D01*
X118925Y61416D01*
X118914Y61415D01*
X118906Y61422D01*
X118863Y61407D01*
X118858Y61406D01*
X118858Y61405D01*
X118857Y61405D01*
X118525Y61096D01*
X118086Y60831D01*
X117593Y60693D01*
X117079Y60680D01*
X116568Y60754D01*
X116085Y60929D01*
X115654Y61207D01*
X115296Y61574D01*
X115023Y62011D01*
X114837Y62493D01*
X114731Y63001D01*
X114694Y63520D01*
X114734Y64039D01*
X114848Y64546D01*
X115045Y65023D01*
X115331Y65451D01*
X115703Y65806D01*
X116146Y66067D01*
X116637Y66223D01*
X117152Y66275D01*
X117665Y66234D01*
X118152Y66074D01*
X118865Y65615D01*
X118871Y65615D01*
X118873Y65611D01*
X118903Y65615D01*
X118933Y65615D01*
X118936Y65620D01*
X118941Y65621D01*
X118962Y65668D01*
X118962Y66145D01*
X119352Y66218D01*
X120389Y66218D01*
X120604Y66097D01*
X120615Y66097D01*
X120629Y66089D01*
X120691Y66083D01*
X120691Y66077D01*
X120681Y66055D01*
X120681Y58674D01*
X120694Y58655D01*
X120697Y58633D01*
X120713Y58625D01*
X120718Y58617D01*
X120728Y58618D01*
X120744Y58611D01*
X137685Y58602D01*
X137688Y58604D01*
X137692Y58603D01*
X138743Y58727D01*
X138747Y58730D01*
X138754Y58729D01*
X139260Y58886D01*
X139261Y58888D01*
X139264Y58887D01*
X139755Y59079D01*
X139757Y59082D01*
X139762Y59083D01*
X140228Y59335D01*
X140229Y59338D01*
X140234Y59339D01*
X140666Y59642D01*
X140667Y59644D01*
X140670Y59645D01*
X141078Y59982D01*
X141080Y59986D01*
X141085Y59989D01*
X141435Y60385D01*
X141435Y60386D01*
X141437Y60387D01*
X141768Y60800D01*
X141769Y60805D01*
X141774Y60809D01*
X142027Y61275D01*
X142027Y61276D01*
X142029Y61278D01*
X142253Y61755D01*
X142253Y61759D01*
X142256Y61763D01*
X142413Y62269D01*
X142413Y62272D01*
X142415Y62275D01*
X142521Y62791D01*
X142520Y62794D01*
X142522Y62798D01*
X142575Y63325D01*
X142574Y63328D01*
X142576Y63333D01*
X142562Y63860D01*
X142561Y63862D01*
X142562Y63864D01*
X142508Y64392D01*
X142506Y64395D01*
X142507Y64401D01*
X142374Y64912D01*
X142373Y64913D01*
X142373Y64915D01*
X142216Y65420D01*
X142212Y65424D01*
X142211Y65431D01*
X141962Y65898D01*
X141961Y65899D01*
X141960Y65901D01*
X141692Y66355D01*
X141688Y66357D01*
X141688Y66360D01*
X141687Y66361D01*
X141686Y66363D01*
X141349Y66772D01*
X141347Y66773D01*
X141345Y66776D01*
X140978Y67154D01*
X140975Y67154D01*
X140973Y67158D01*
X140564Y67496D01*
X140560Y67496D01*
X140557Y67500D01*
X140111Y67781D01*
X140109Y67781D01*
X140107Y67783D01*
X139642Y68036D01*
X139636Y68035D01*
X139631Y68040D01*
X138621Y68355D01*
X138616Y68354D01*
X138609Y68358D01*
X138082Y68411D01*
X137676Y68452D01*
X137673Y68450D01*
X137670Y68452D01*
X117540Y68452D01*
X117538Y68451D01*
X117535Y68452D01*
X116480Y68360D01*
X116476Y68357D01*
X116467Y68358D01*
X115455Y68051D01*
X115452Y68047D01*
X115444Y68047D01*
X114978Y67794D01*
X114977Y67792D01*
X114975Y67792D01*
X114526Y67515D01*
X114524Y67511D01*
X114519Y67510D01*
X114110Y67173D01*
X114109Y67170D01*
X114106Y67169D01*
X113735Y66794D01*
X113734Y66791D01*
X113731Y66790D01*
X113394Y66381D01*
X113393Y66377D01*
X113388Y66374D01*
X113116Y65921D01*
X113116Y65920D01*
X113115Y65919D01*
X112862Y65453D01*
X112862Y65447D01*
X112857Y65441D01*
X112561Y64426D01*
X112563Y64421D01*
X112559Y64414D01*
X112506Y63887D01*
X112507Y63885D01*
X112506Y63883D01*
X112487Y63356D01*
X112489Y63353D01*
X112488Y63348D01*
X112541Y62821D01*
X112542Y62818D01*
X112542Y62815D01*
X112643Y62298D01*
X112645Y62295D01*
X112645Y62291D01*
X112802Y61785D01*
X112805Y61783D01*
X112805Y61778D01*
X113025Y61298D01*
X113027Y61297D01*
X113027Y61295D01*
X113280Y60829D01*
X113284Y60827D01*
X113286Y60820D01*
X113614Y60405D01*
X113615Y60405D01*
X113615Y60403D01*
X113636Y60379D01*
X113691Y60316D01*
X113745Y60254D01*
X113799Y60191D01*
X113854Y60128D01*
X113908Y60065D01*
X113962Y60004D01*
X113963Y60003D01*
X113967Y60001D01*
X113969Y59996D01*
X114378Y59659D01*
X114380Y59659D01*
X114381Y59657D01*
X114811Y59350D01*
X114814Y59350D01*
X114817Y59346D01*
X115283Y59094D01*
X115286Y59094D01*
X115289Y59090D01*
X115779Y58894D01*
X115781Y58895D01*
X115784Y58893D01*
X116289Y58736D01*
X116294Y58737D01*
X116299Y58733D01*
X116822Y58658D01*
X116823Y58659D01*
X116824Y58658D01*
X117351Y58605D01*
X117354Y58606D01*
X117357Y58605D01*
X118417Y58601D01*
X118419Y58602D01*
G37*
G36*
X149556Y77580D02*
X149556Y77580D01*
X149566Y77596D01*
X149577Y77596D01*
X149877Y77996D01*
X149877Y78003D01*
X149879Y78004D01*
X149877Y78005D01*
X149877Y78007D01*
X149884Y78010D01*
X150484Y79709D01*
X151034Y81174D01*
X151891Y78411D01*
X151893Y78410D01*
X151892Y78408D01*
X152092Y77908D01*
X152104Y77900D01*
X152103Y77891D01*
X152503Y77491D01*
X152530Y77488D01*
X152538Y77477D01*
X153038Y77477D01*
X153051Y77486D01*
X153060Y77482D01*
X153460Y77682D01*
X153467Y77696D01*
X153477Y77696D01*
X153777Y78096D01*
X153777Y78102D01*
X153778Y78102D01*
X153777Y78102D01*
X153777Y78107D01*
X153784Y78109D01*
X155684Y83409D01*
X155683Y83415D01*
X155686Y83416D01*
X155786Y83916D01*
X155776Y83937D01*
X155782Y83948D01*
X155582Y84348D01*
X155565Y84357D01*
X155563Y84368D01*
X155063Y84668D01*
X155051Y84667D01*
X155048Y84674D01*
X154548Y84774D01*
X154527Y84764D01*
X154523Y84764D01*
X154520Y84762D01*
X154508Y84765D01*
X154108Y84465D01*
X154103Y84446D01*
X154092Y84442D01*
X152895Y81053D01*
X152859Y81017D01*
X151885Y83842D01*
X151883Y83843D01*
X151884Y83844D01*
X151684Y84344D01*
X151668Y84354D01*
X151668Y84365D01*
X151268Y84665D01*
X151251Y84665D01*
X151251Y84666D01*
X151238Y84666D01*
X151228Y84674D01*
X150728Y84574D01*
X150722Y84567D01*
X150716Y84570D01*
X150316Y84370D01*
X150305Y84348D01*
X150292Y84344D01*
X150092Y83844D01*
X150093Y83843D01*
X150092Y83842D01*
X150091Y83842D01*
X149117Y81017D01*
X148981Y81152D01*
X148085Y84041D01*
X148083Y84042D01*
X148084Y84044D01*
X147884Y84544D01*
X147860Y84559D01*
X147856Y84572D01*
X147356Y84772D01*
X147331Y84765D01*
X147320Y84772D01*
X146820Y84572D01*
X146817Y84567D01*
X146813Y84568D01*
X146313Y84268D01*
X146304Y84247D01*
X146302Y84245D01*
X146291Y84242D01*
X146191Y83942D01*
X146192Y83941D01*
X146191Y83940D01*
X146192Y83938D01*
X146198Y83921D01*
X146191Y83910D01*
X146391Y83310D01*
X148191Y78010D01*
X148201Y78004D01*
X148199Y77996D01*
X148499Y77596D01*
X148517Y77591D01*
X148520Y77580D01*
X149020Y77380D01*
X149045Y77387D01*
X149056Y77380D01*
X149556Y77580D01*
G37*
G36*
X55284Y47327D02*
X55284Y47327D01*
X55288Y47324D01*
X55788Y47424D01*
X55801Y47439D01*
X55813Y47437D01*
X56113Y47737D01*
X56114Y47749D01*
X56119Y47753D01*
X56116Y47757D01*
X56126Y47762D01*
X56226Y48262D01*
X56222Y48270D01*
X56227Y48274D01*
X56127Y50373D01*
X56127Y50872D01*
X56118Y50885D01*
X56122Y50894D01*
X55922Y51294D01*
X55874Y51318D01*
X55896Y51326D01*
X55927Y51377D01*
X55917Y51383D01*
X55922Y51394D01*
X55722Y51794D01*
X55716Y51797D01*
X55717Y51802D01*
X55117Y52602D01*
X55108Y52604D01*
X55108Y52611D01*
X54708Y52911D01*
X54704Y52911D01*
X54703Y52914D01*
X54203Y53214D01*
X54200Y53214D01*
X54200Y53216D01*
X53800Y53416D01*
X53791Y53414D01*
X53788Y53420D01*
X52788Y53620D01*
X52781Y53617D01*
X52778Y53621D01*
X52278Y53621D01*
X52272Y53617D01*
X52268Y53620D01*
X51268Y53420D01*
X51264Y53415D01*
X51260Y53418D01*
X50760Y53218D01*
X50755Y53210D01*
X50748Y53211D01*
X49948Y52611D01*
X49946Y52602D01*
X49939Y52602D01*
X49339Y51802D01*
X49339Y51792D01*
X49332Y51790D01*
X49132Y51290D01*
X49134Y51284D01*
X49130Y51282D01*
X48930Y50282D01*
X48933Y50275D01*
X48929Y50272D01*
X48929Y47872D01*
X48938Y47859D01*
X48934Y47850D01*
X49134Y47450D01*
X49161Y47437D01*
X49166Y47424D01*
X49566Y47324D01*
X49574Y47328D01*
X49578Y47323D01*
X55278Y47323D01*
X55284Y47327D01*
G37*
G36*
X64936Y35681D02*
X64936Y35681D01*
X64940Y35678D01*
X65440Y35778D01*
X65449Y35788D01*
X65457Y35785D01*
X65757Y35985D01*
X65763Y36003D01*
X65771Y36008D01*
X65768Y36012D01*
X65779Y36018D01*
X65879Y36618D01*
X65875Y36625D01*
X65879Y36628D01*
X65779Y38727D01*
X65779Y39226D01*
X65770Y39239D01*
X65774Y39248D01*
X65575Y39646D01*
X65376Y40144D01*
X65368Y40149D01*
X65369Y40156D01*
X64769Y40956D01*
X64760Y40958D01*
X64760Y40965D01*
X64360Y41265D01*
X64356Y41265D01*
X64355Y41268D01*
X63855Y41568D01*
X63852Y41568D01*
X63852Y41570D01*
X63452Y41770D01*
X63443Y41768D01*
X63440Y41774D01*
X62440Y41974D01*
X62433Y41971D01*
X62430Y41975D01*
X61930Y41975D01*
X61924Y41971D01*
X61920Y41974D01*
X60920Y41774D01*
X60916Y41769D01*
X60912Y41772D01*
X60412Y41572D01*
X60407Y41564D01*
X60400Y41565D01*
X59600Y40965D01*
X59598Y40956D01*
X59591Y40956D01*
X59291Y40556D01*
X59291Y40552D01*
X59288Y40551D01*
X58988Y40051D01*
X58988Y40048D01*
X58986Y40048D01*
X58786Y39648D01*
X58788Y39639D01*
X58782Y39636D01*
X58582Y38636D01*
X58585Y38629D01*
X58581Y38626D01*
X58581Y36226D01*
X58590Y36213D01*
X58586Y36204D01*
X58786Y35804D01*
X58813Y35791D01*
X58818Y35778D01*
X59218Y35678D01*
X59226Y35682D01*
X59230Y35677D01*
X64930Y35677D01*
X64936Y35681D01*
G37*
G36*
X55799Y17339D02*
X55799Y17339D01*
X55813Y17337D01*
X56113Y17637D01*
X56115Y17649D01*
X56121Y17654D01*
X56117Y17659D01*
X56127Y17664D01*
X56227Y18264D01*
X56218Y18281D01*
X56224Y18290D01*
X56024Y18790D01*
X56002Y18803D01*
X56000Y18816D01*
X55600Y19016D01*
X55584Y19013D01*
X55578Y19021D01*
X52197Y19021D01*
X52211Y19035D01*
X54008Y20433D01*
X54011Y20442D01*
X54017Y20442D01*
X54317Y20842D01*
X54317Y20851D01*
X54323Y20855D01*
X54317Y20863D01*
X54317Y20864D01*
X54327Y20872D01*
X54327Y21372D01*
X54314Y21390D01*
X54317Y21402D01*
X54017Y21802D01*
X54008Y21804D01*
X54008Y21811D01*
X52126Y23223D01*
X55578Y23223D01*
X55591Y23232D01*
X55600Y23228D01*
X56000Y23428D01*
X56014Y23456D01*
X56015Y23457D01*
X56026Y23462D01*
X56126Y23962D01*
X56123Y23969D01*
X56127Y23972D01*
X56127Y24472D01*
X56118Y24485D01*
X56122Y24494D01*
X55922Y24894D01*
X55894Y24908D01*
X55888Y24920D01*
X55388Y25020D01*
X55381Y25017D01*
X55378Y25021D01*
X49678Y25021D01*
X49671Y25016D01*
X49666Y25020D01*
X49266Y24920D01*
X49254Y24905D01*
X49243Y24907D01*
X48943Y24607D01*
X48940Y24583D01*
X48931Y24576D01*
X48932Y24574D01*
X48929Y24572D01*
X48929Y23972D01*
X48937Y23961D01*
X48932Y23954D01*
X49132Y23454D01*
X49147Y23445D01*
X49147Y23434D01*
X50247Y22534D01*
X51739Y21340D01*
X51916Y20987D01*
X49148Y18911D01*
X49143Y18893D01*
X49132Y18890D01*
X48932Y18390D01*
X48936Y18377D01*
X48929Y18372D01*
X48929Y17772D01*
X48941Y17756D01*
X48937Y17745D01*
X49137Y17445D01*
X49162Y17436D01*
X49168Y17424D01*
X49668Y17324D01*
X49675Y17327D01*
X49678Y17323D01*
X55778Y17323D01*
X55799Y17339D01*
G37*
G36*
X162350Y77478D02*
X162350Y77478D01*
X162358Y77488D01*
X162365Y77485D01*
X162965Y77885D01*
X162970Y77898D01*
X162979Y77899D01*
X163179Y78199D01*
X163177Y78233D01*
X163184Y78244D01*
X162984Y78743D01*
X162885Y79042D01*
X162883Y79043D01*
X162884Y79044D01*
X162484Y80043D01*
X162393Y80317D01*
X162677Y80696D01*
X162677Y80700D01*
X162680Y80701D01*
X162980Y81201D01*
X162980Y81204D01*
X162981Y81205D01*
X162980Y81206D01*
X162979Y81211D01*
X162986Y81214D01*
X163086Y81614D01*
X163082Y81622D01*
X163087Y81626D01*
X163087Y82226D01*
X163083Y82232D01*
X163086Y82236D01*
X162886Y83236D01*
X162875Y83246D01*
X162877Y83256D01*
X162577Y83656D01*
X162572Y83657D01*
X162573Y83661D01*
X162173Y84061D01*
X162168Y84062D01*
X162168Y84065D01*
X161768Y84365D01*
X161758Y84365D01*
X161756Y84372D01*
X161256Y84572D01*
X161251Y84570D01*
X161250Y84574D01*
X160850Y84674D01*
X160848Y84673D01*
X160848Y84674D01*
X160348Y84774D01*
X160341Y84771D01*
X160338Y84775D01*
X158238Y84775D01*
X158227Y84767D01*
X158220Y84772D01*
X157720Y84572D01*
X157707Y84550D01*
X157694Y84548D01*
X157494Y84148D01*
X157495Y84141D01*
X157491Y84137D01*
X157495Y84131D01*
X157489Y84126D01*
X157489Y78026D01*
X157498Y78013D01*
X157494Y78004D01*
X157694Y77604D01*
X157722Y77590D01*
X157728Y77578D01*
X158228Y77478D01*
X158240Y77483D01*
X158246Y77477D01*
X158846Y77577D01*
X158856Y77588D01*
X158865Y77585D01*
X159165Y77785D01*
X159172Y77803D01*
X159176Y77807D01*
X159174Y77810D01*
X159186Y77816D01*
X159286Y78316D01*
X159283Y78323D01*
X159287Y78326D01*
X159287Y79296D01*
X159650Y79477D01*
X160612Y79477D01*
X160994Y78903D01*
X161493Y77707D01*
X161508Y77698D01*
X161508Y77687D01*
X161908Y77387D01*
X161939Y77387D01*
X161950Y77378D01*
X162350Y77478D01*
G37*
G36*
X52984Y40227D02*
X52984Y40227D01*
X52988Y40224D01*
X54488Y40524D01*
X54496Y40533D01*
X54503Y40530D01*
X55001Y40829D01*
X55400Y41028D01*
X55407Y41042D01*
X55417Y41042D01*
X55717Y41442D01*
X55717Y41452D01*
X55724Y41454D01*
X55923Y41952D01*
X56122Y42350D01*
X56120Y42359D01*
X56126Y42362D01*
X56226Y42862D01*
X56223Y42869D01*
X56224Y42869D01*
X56222Y42871D01*
X56221Y42874D01*
X56227Y42880D01*
X56127Y43480D01*
X56126Y43481D01*
X56126Y43482D01*
X56026Y43982D01*
X56019Y43988D01*
X56022Y43994D01*
X55822Y44394D01*
X55812Y44399D01*
X55813Y44407D01*
X55113Y45107D01*
X55101Y45108D01*
X55100Y45116D01*
X54700Y45316D01*
X54697Y45315D01*
X54696Y45318D01*
X54196Y45518D01*
X54191Y45516D01*
X54190Y45520D01*
X53790Y45620D01*
X53787Y45619D01*
X53786Y45621D01*
X53186Y45721D01*
X53181Y45718D01*
X53178Y45721D01*
X51578Y45721D01*
X51572Y45717D01*
X51568Y45720D01*
X50568Y45520D01*
X50564Y45515D01*
X50560Y45518D01*
X50060Y45318D01*
X50055Y45310D01*
X50048Y45311D01*
X49248Y44711D01*
X49245Y44698D01*
X49236Y44697D01*
X48936Y44197D01*
X48936Y44194D01*
X48934Y44194D01*
X48734Y43794D01*
X48735Y43786D01*
X48730Y43782D01*
X48630Y43282D01*
X48635Y43270D01*
X48629Y43264D01*
X48729Y42664D01*
X48730Y42663D01*
X48730Y42662D01*
X48830Y42162D01*
X48837Y42156D01*
X48834Y42150D01*
X49033Y41752D01*
X49232Y41254D01*
X49250Y41243D01*
X49251Y41231D01*
X49551Y41031D01*
X49555Y41031D01*
X49556Y41028D01*
X50356Y40628D01*
X50359Y40629D01*
X50360Y40626D01*
X50860Y40426D01*
X50866Y40428D01*
X50868Y40424D01*
X51868Y40224D01*
X51875Y40227D01*
X51878Y40223D01*
X52978Y40223D01*
X52984Y40227D01*
G37*
G36*
X140845Y77477D02*
X140845Y77477D01*
X140860Y77493D01*
X140873Y77491D01*
X141173Y77791D01*
X141174Y77803D01*
X141179Y77807D01*
X141177Y77810D01*
X141186Y77814D01*
X141286Y78214D01*
X141282Y78222D01*
X141287Y78226D01*
X141287Y79291D01*
X141546Y79377D01*
X142538Y79377D01*
X142544Y79381D01*
X142548Y79378D01*
X143048Y79478D01*
X143054Y79485D01*
X143060Y79482D01*
X143460Y79682D01*
X143482Y79726D01*
X143495Y79703D01*
X143549Y79678D01*
X143552Y79686D01*
X143560Y79682D01*
X143960Y79882D01*
X143965Y79892D01*
X143973Y79891D01*
X144373Y80291D01*
X144374Y80296D01*
X144377Y80296D01*
X144677Y80696D01*
X144677Y80703D01*
X144682Y80704D01*
X144882Y81104D01*
X144882Y81106D01*
X144881Y81108D01*
X144880Y81113D01*
X144886Y81116D01*
X145086Y82116D01*
X145083Y82123D01*
X145087Y82126D01*
X145087Y82626D01*
X145078Y82639D01*
X145082Y82648D01*
X144782Y83248D01*
X144776Y83251D01*
X144777Y83256D01*
X144477Y83656D01*
X144472Y83657D01*
X144473Y83661D01*
X144073Y84061D01*
X144068Y84062D01*
X144068Y84065D01*
X143668Y84365D01*
X143658Y84365D01*
X143656Y84372D01*
X143156Y84572D01*
X143150Y84570D01*
X143148Y84574D01*
X142648Y84674D01*
X142641Y84671D01*
X142638Y84675D01*
X140038Y84675D01*
X140025Y84666D01*
X140016Y84670D01*
X139616Y84470D01*
X139606Y84450D01*
X139594Y84448D01*
X139394Y84048D01*
X139395Y84042D01*
X139391Y84039D01*
X139396Y84032D01*
X139389Y84026D01*
X139389Y78526D01*
X139392Y78521D01*
X139389Y78518D01*
X139489Y77918D01*
X139494Y77914D01*
X139491Y77910D01*
X139591Y77610D01*
X139616Y77593D01*
X139620Y77580D01*
X140120Y77380D01*
X140137Y77385D01*
X140145Y77377D01*
X140845Y77477D01*
G37*
G36*
X55385Y55028D02*
X55385Y55028D01*
X55390Y55024D01*
X55790Y55124D01*
X55802Y55139D01*
X55813Y55137D01*
X56113Y55437D01*
X56114Y55449D01*
X56119Y55453D01*
X56116Y55458D01*
X56117Y55464D01*
X56127Y55472D01*
X56127Y56172D01*
X56123Y56178D01*
X56126Y56182D01*
X56026Y56682D01*
X56003Y56703D01*
X56000Y56716D01*
X55600Y56916D01*
X55584Y56913D01*
X55578Y56921D01*
X53498Y56921D01*
X53327Y57092D01*
X53327Y59157D01*
X53504Y59423D01*
X55578Y59423D01*
X55585Y59428D01*
X55590Y59424D01*
X55990Y59524D01*
X56011Y59550D01*
X56024Y59554D01*
X56224Y60054D01*
X56219Y60071D01*
X56227Y60079D01*
X56127Y60779D01*
X56111Y60794D01*
X56113Y60807D01*
X55813Y61107D01*
X55793Y61110D01*
X55788Y61120D01*
X55288Y61220D01*
X55281Y61217D01*
X55278Y61221D01*
X49678Y61221D01*
X49672Y61217D01*
X49668Y61220D01*
X49168Y61120D01*
X49145Y61094D01*
X49132Y61090D01*
X48932Y60590D01*
X48936Y60577D01*
X48929Y60572D01*
X48929Y60072D01*
X48933Y60066D01*
X48930Y60062D01*
X49030Y59562D01*
X49065Y59531D01*
X49068Y59524D01*
X49568Y59424D01*
X49575Y59427D01*
X49578Y59423D01*
X51652Y59423D01*
X51829Y59157D01*
X51829Y57098D01*
X51563Y56921D01*
X49578Y56921D01*
X49565Y56912D01*
X49556Y56916D01*
X49156Y56716D01*
X49145Y56694D01*
X49132Y56690D01*
X48932Y56190D01*
X48936Y56177D01*
X48929Y56172D01*
X48929Y55572D01*
X48942Y55554D01*
X48939Y55542D01*
X49239Y55142D01*
X49261Y55136D01*
X49266Y55124D01*
X49666Y55024D01*
X49674Y55028D01*
X49678Y55023D01*
X55378Y55023D01*
X55385Y55028D01*
G37*
G36*
X49691Y70035D02*
X49691Y70035D01*
X49703Y70030D01*
X50203Y70330D01*
X50206Y70336D01*
X50211Y70335D01*
X52109Y72034D01*
X52475Y72308D01*
X54345Y70636D01*
X54743Y70237D01*
X54755Y70236D01*
X54756Y70228D01*
X55156Y70028D01*
X55188Y70034D01*
X55200Y70028D01*
X55600Y70228D01*
X55607Y70241D01*
X55616Y70241D01*
X56016Y70741D01*
X56017Y70748D01*
X56017Y70749D01*
X56022Y70750D01*
X56222Y71150D01*
X56214Y71191D01*
X56217Y71202D01*
X55917Y71602D01*
X55912Y71603D01*
X55913Y71607D01*
X55513Y72007D01*
X55510Y72007D01*
X55510Y72009D01*
X54010Y73309D01*
X54008Y73309D01*
X54008Y73311D01*
X53656Y73575D01*
X56010Y75635D01*
X56012Y75644D01*
X56019Y75645D01*
X56219Y75945D01*
X56218Y75966D01*
X56221Y75969D01*
X56217Y75974D01*
X56217Y75979D01*
X56224Y75990D01*
X56024Y76490D01*
X56012Y76498D01*
X56013Y76507D01*
X55613Y76907D01*
X55594Y76909D01*
X55590Y76920D01*
X55190Y77020D01*
X55182Y77016D01*
X55166Y77016D01*
X55164Y77015D01*
X55160Y77018D01*
X54660Y76818D01*
X54654Y76808D01*
X54646Y76809D01*
X52379Y74838D01*
X50211Y76808D01*
X50199Y76810D01*
X50196Y76818D01*
X49696Y77018D01*
X49691Y77016D01*
X49670Y77016D01*
X49666Y77020D01*
X49266Y76920D01*
X49252Y76902D01*
X49240Y76903D01*
X48840Y76403D01*
X48839Y76395D01*
X48834Y76394D01*
X48634Y75994D01*
X48640Y75962D01*
X48634Y75950D01*
X48834Y75550D01*
X48848Y75543D01*
X48848Y75533D01*
X49247Y75234D01*
X50845Y73836D01*
X51106Y73574D01*
X49245Y71909D01*
X49245Y71907D01*
X49243Y71907D01*
X48843Y71507D01*
X48842Y71495D01*
X48834Y71494D01*
X48634Y71094D01*
X48638Y71071D01*
X48638Y71070D01*
X48640Y71062D01*
X48634Y71050D01*
X48834Y70650D01*
X48844Y70645D01*
X48843Y70637D01*
X49343Y70137D01*
X49359Y70135D01*
X49362Y70125D01*
X49662Y70025D01*
X49691Y70035D01*
G37*
%LPC*%
G36*
X123283Y60737D02*
X123283Y60737D01*
X123011Y61036D01*
X121225Y66014D01*
X121219Y66019D01*
X121219Y66027D01*
X121193Y66044D01*
X121207Y66041D01*
X121227Y66062D01*
X121238Y66068D01*
X121238Y66073D01*
X121243Y66079D01*
X121290Y66218D01*
X122794Y66218D01*
X122979Y65823D01*
X123878Y62780D01*
X123887Y62772D01*
X123887Y62771D01*
X123888Y62764D01*
X123892Y62762D01*
X123900Y62747D01*
X124049Y62636D01*
X124081Y62634D01*
X124113Y62629D01*
X124115Y62631D01*
X124117Y62631D01*
X124120Y62638D01*
X124147Y62669D01*
X125166Y66188D01*
X125625Y66218D01*
X126656Y66218D01*
X126924Y65938D01*
X127812Y62903D01*
X127814Y62900D01*
X127814Y62896D01*
X127963Y62539D01*
X127975Y62531D01*
X127980Y62516D01*
X128001Y62513D01*
X128019Y62501D01*
X128032Y62509D01*
X128047Y62506D01*
X128067Y62530D01*
X128077Y62536D01*
X128077Y62541D01*
X128081Y62546D01*
X129122Y66073D01*
X129492Y66218D01*
X130527Y66218D01*
X130731Y66132D01*
X130740Y66134D01*
X130747Y66131D01*
X130755Y66131D01*
X130764Y66128D01*
X130772Y66129D01*
X130768Y66126D01*
X128993Y61195D01*
X128712Y60737D01*
X127194Y60737D01*
X126980Y61098D01*
X126046Y64128D01*
X126033Y64139D01*
X126029Y64155D01*
X126009Y64159D01*
X125994Y64172D01*
X125978Y64164D01*
X125962Y64168D01*
X125943Y64148D01*
X125932Y64142D01*
X125931Y64135D01*
X125926Y64130D01*
X125769Y63676D01*
X125769Y63675D01*
X125768Y63674D01*
X124982Y61149D01*
X124803Y60737D01*
X123283Y60737D01*
G37*
%LPD*%
G36*
X54289Y26331D02*
X54289Y26331D01*
X54296Y26326D01*
X54796Y26526D01*
X54801Y26534D01*
X54808Y26533D01*
X55608Y27133D01*
X55612Y27148D01*
X55622Y27150D01*
X55822Y27550D01*
X55821Y27553D01*
X55824Y27554D01*
X56024Y28054D01*
X56022Y28060D01*
X56026Y28062D01*
X56126Y28562D01*
X56126Y28563D01*
X56127Y28564D01*
X56227Y29164D01*
X56221Y29175D01*
X56226Y29182D01*
X56026Y30182D01*
X56019Y30188D01*
X56022Y30194D01*
X55822Y30594D01*
X55816Y30597D01*
X55817Y30602D01*
X55517Y31002D01*
X55512Y31003D01*
X55513Y31007D01*
X55113Y31407D01*
X55101Y31408D01*
X55100Y31416D01*
X54300Y31816D01*
X54284Y31813D01*
X54278Y31821D01*
X53678Y31821D01*
X53672Y31817D01*
X53668Y31820D01*
X53168Y31720D01*
X53162Y31713D01*
X53156Y31716D01*
X52756Y31516D01*
X52751Y31506D01*
X52743Y31507D01*
X52358Y31121D01*
X52103Y31121D01*
X51817Y31502D01*
X51795Y31508D01*
X51790Y31520D01*
X51390Y31620D01*
X51387Y31619D01*
X51386Y31621D01*
X50786Y31721D01*
X50773Y31714D01*
X50766Y31720D01*
X50366Y31620D01*
X50363Y31616D01*
X50360Y31618D01*
X49860Y31418D01*
X49852Y31406D01*
X49843Y31407D01*
X48743Y30307D01*
X48740Y30283D01*
X48731Y30276D01*
X48732Y30274D01*
X48729Y30272D01*
X48729Y28772D01*
X48733Y28766D01*
X48730Y28762D01*
X48830Y28262D01*
X48835Y28258D01*
X48832Y28254D01*
X49032Y27754D01*
X49040Y27749D01*
X49039Y27742D01*
X49339Y27342D01*
X49344Y27341D01*
X49343Y27337D01*
X49743Y26937D01*
X49755Y26936D01*
X49756Y26928D01*
X50156Y26728D01*
X50164Y26729D01*
X50166Y26724D01*
X50566Y26624D01*
X50586Y26633D01*
X50596Y26626D01*
X51096Y26826D01*
X51108Y26845D01*
X51120Y26847D01*
X51420Y27347D01*
X51418Y27365D01*
X51427Y27372D01*
X51427Y27872D01*
X51411Y27893D01*
X51413Y27907D01*
X51113Y28207D01*
X51108Y28208D01*
X51108Y28211D01*
X50719Y28503D01*
X50527Y28981D01*
X50527Y29456D01*
X50803Y29823D01*
X51148Y29823D01*
X51330Y29457D01*
X51429Y28765D01*
X51434Y28760D01*
X51431Y28756D01*
X51531Y28456D01*
X51556Y28439D01*
X51560Y28426D01*
X52060Y28226D01*
X52077Y28231D01*
X52085Y28223D01*
X52785Y28323D01*
X52800Y28339D01*
X52813Y28337D01*
X53113Y28637D01*
X53115Y28656D01*
X53126Y28660D01*
X53226Y29060D01*
X53223Y29066D01*
X53225Y29067D01*
X53224Y29069D01*
X53227Y29072D01*
X53227Y29556D01*
X53506Y29927D01*
X53962Y30019D01*
X54333Y29648D01*
X54428Y29172D01*
X54331Y28688D01*
X54140Y28307D01*
X53653Y28014D01*
X53652Y28013D01*
X53651Y28013D01*
X53351Y27813D01*
X53339Y27780D01*
X53329Y27772D01*
X53329Y27072D01*
X53333Y27066D01*
X53330Y27062D01*
X53430Y26562D01*
X53450Y26545D01*
X53451Y26531D01*
X53751Y26331D01*
X53771Y26332D01*
X53778Y26323D01*
X54278Y26323D01*
X54289Y26331D01*
G37*
G36*
X54289Y33331D02*
X54289Y33331D01*
X54296Y33326D01*
X54796Y33526D01*
X54801Y33534D01*
X54808Y33533D01*
X55608Y34133D01*
X55612Y34148D01*
X55622Y34150D01*
X55822Y34550D01*
X55821Y34553D01*
X55824Y34554D01*
X56024Y35054D01*
X56022Y35060D01*
X56026Y35062D01*
X56226Y36062D01*
X56220Y36075D01*
X56226Y36082D01*
X56026Y37082D01*
X56021Y37086D01*
X56024Y37090D01*
X55824Y37590D01*
X55816Y37595D01*
X55817Y37602D01*
X55517Y38002D01*
X55508Y38004D01*
X55508Y38011D01*
X54708Y38611D01*
X54694Y38611D01*
X54690Y38620D01*
X54290Y38720D01*
X54287Y38719D01*
X54286Y38721D01*
X53686Y38821D01*
X53675Y38815D01*
X53668Y38820D01*
X53168Y38720D01*
X53158Y38709D01*
X53148Y38711D01*
X52362Y38121D01*
X52098Y38121D01*
X51813Y38407D01*
X51801Y38408D01*
X51800Y38416D01*
X51400Y38616D01*
X51384Y38613D01*
X51378Y38621D01*
X50778Y38621D01*
X50771Y38616D01*
X50766Y38620D01*
X50366Y38520D01*
X50363Y38516D01*
X50360Y38518D01*
X49860Y38318D01*
X49855Y38310D01*
X49848Y38311D01*
X49448Y38011D01*
X49447Y38006D01*
X49443Y38007D01*
X48743Y37307D01*
X48740Y37283D01*
X48731Y37276D01*
X48732Y37274D01*
X48729Y37272D01*
X48729Y35672D01*
X48733Y35666D01*
X48730Y35662D01*
X48830Y35162D01*
X48835Y35158D01*
X48832Y35154D01*
X49032Y34654D01*
X49044Y34646D01*
X49043Y34637D01*
X49743Y33937D01*
X49748Y33936D01*
X49748Y33933D01*
X50148Y33633D01*
X50170Y33633D01*
X50178Y33623D01*
X50578Y33623D01*
X50589Y33631D01*
X50596Y33626D01*
X51096Y33826D01*
X51108Y33845D01*
X51120Y33847D01*
X51420Y34347D01*
X51418Y34365D01*
X51427Y34372D01*
X51427Y34772D01*
X51414Y34790D01*
X51417Y34802D01*
X51117Y35202D01*
X51108Y35204D01*
X51108Y35211D01*
X50717Y35504D01*
X50527Y35884D01*
X50527Y36456D01*
X50798Y36816D01*
X51144Y36730D01*
X51331Y36357D01*
X51429Y35764D01*
X51432Y35762D01*
X51430Y35760D01*
X51530Y35360D01*
X51564Y35333D01*
X51568Y35324D01*
X52068Y35224D01*
X52075Y35227D01*
X52078Y35223D01*
X52778Y35223D01*
X52799Y35239D01*
X52813Y35237D01*
X53113Y35537D01*
X53115Y35556D01*
X53126Y35560D01*
X53226Y35960D01*
X53223Y35967D01*
X53225Y35969D01*
X53225Y35970D01*
X53227Y35972D01*
X53227Y36556D01*
X53503Y36923D01*
X53962Y36923D01*
X54333Y36644D01*
X54428Y36172D01*
X54331Y35686D01*
X54140Y35210D01*
X53660Y35018D01*
X53652Y35006D01*
X53643Y35007D01*
X53343Y34707D01*
X53340Y34680D01*
X53329Y34672D01*
X53329Y34072D01*
X53333Y34066D01*
X53330Y34062D01*
X53430Y33562D01*
X53450Y33545D01*
X53451Y33531D01*
X53751Y33331D01*
X53771Y33332D01*
X53778Y33323D01*
X54278Y33323D01*
X54289Y33331D01*
G37*
G36*
X63436Y29081D02*
X63436Y29081D01*
X63440Y29078D01*
X63940Y29178D01*
X63944Y29183D01*
X63948Y29180D01*
X64448Y29380D01*
X64450Y29383D01*
X64452Y29382D01*
X64852Y29582D01*
X64855Y29588D01*
X64860Y29587D01*
X65260Y29887D01*
X65264Y29902D01*
X65274Y29904D01*
X65674Y30704D01*
X65672Y30713D01*
X65678Y30716D01*
X65778Y31216D01*
X65778Y31217D01*
X65779Y31218D01*
X65879Y31818D01*
X65873Y31829D01*
X65878Y31836D01*
X65778Y32336D01*
X65773Y32340D01*
X65776Y32344D01*
X65576Y32844D01*
X65568Y32849D01*
X65569Y32856D01*
X65269Y33256D01*
X65264Y33257D01*
X65265Y33261D01*
X64965Y33561D01*
X64956Y33562D01*
X64955Y33568D01*
X64455Y33868D01*
X64452Y33868D01*
X64452Y33870D01*
X64052Y34070D01*
X64036Y34067D01*
X64030Y34075D01*
X63330Y34075D01*
X63323Y34070D01*
X63318Y34074D01*
X62918Y33974D01*
X62915Y33970D01*
X62912Y33972D01*
X62412Y33772D01*
X62407Y33764D01*
X62400Y33765D01*
X62000Y33465D01*
X61997Y33452D01*
X61988Y33451D01*
X61688Y32951D01*
X61688Y32948D01*
X61686Y32948D01*
X61486Y32548D01*
X61487Y32541D01*
X61482Y32538D01*
X61483Y32536D01*
X61482Y32536D01*
X61382Y32036D01*
X61385Y32029D01*
X61381Y32026D01*
X61381Y31526D01*
X61385Y31520D01*
X61382Y31516D01*
X61465Y31100D01*
X61253Y31170D01*
X60865Y31461D01*
X60573Y31850D01*
X60377Y32340D01*
X60279Y32831D01*
X60279Y33426D01*
X60263Y33447D01*
X60265Y33461D01*
X59965Y33761D01*
X59945Y33764D01*
X59940Y33774D01*
X59440Y33874D01*
X59433Y33871D01*
X59430Y33875D01*
X58930Y33875D01*
X58909Y33859D01*
X58895Y33861D01*
X58595Y33561D01*
X58592Y33541D01*
X58582Y33536D01*
X58482Y33036D01*
X58484Y33031D01*
X58483Y33030D01*
X58484Y33028D01*
X58481Y33026D01*
X58481Y32426D01*
X58485Y32420D01*
X58482Y32416D01*
X58582Y31916D01*
X58587Y31912D01*
X58584Y31908D01*
X58784Y31408D01*
X58787Y31406D01*
X58786Y31404D01*
X58986Y31004D01*
X58992Y31001D01*
X58991Y30996D01*
X59591Y30196D01*
X59600Y30194D01*
X59600Y30187D01*
X60000Y29887D01*
X60007Y29887D01*
X60008Y29882D01*
X60404Y29684D01*
X60800Y29387D01*
X60816Y29387D01*
X60820Y29378D01*
X62320Y29078D01*
X62327Y29081D01*
X62330Y29077D01*
X63430Y29077D01*
X63436Y29081D01*
G37*
G36*
X54588Y10434D02*
X54588Y10434D01*
X54600Y10428D01*
X55000Y10628D01*
X55003Y10634D01*
X55008Y10633D01*
X55408Y10933D01*
X55411Y10946D01*
X55420Y10947D01*
X55719Y11444D01*
X56017Y11842D01*
X56017Y11858D01*
X56026Y11862D01*
X56226Y12862D01*
X56222Y12871D01*
X56223Y12872D01*
X56220Y12875D01*
X56226Y12882D01*
X55926Y14382D01*
X55915Y14392D01*
X55917Y14402D01*
X55317Y15202D01*
X55304Y15205D01*
X55303Y15214D01*
X54803Y15514D01*
X54793Y15513D01*
X54790Y15520D01*
X54390Y15620D01*
X54388Y15619D01*
X54388Y15620D01*
X53888Y15720D01*
X53876Y15715D01*
X53870Y15721D01*
X53270Y15621D01*
X53269Y15620D01*
X53268Y15620D01*
X52768Y15520D01*
X52758Y15509D01*
X52748Y15511D01*
X52348Y15211D01*
X52346Y15202D01*
X52339Y15202D01*
X52039Y14802D01*
X52039Y14795D01*
X52034Y14794D01*
X51834Y14394D01*
X51836Y14385D01*
X51830Y14382D01*
X51730Y13884D01*
X51431Y12888D01*
X51242Y12415D01*
X50794Y12325D01*
X50524Y12596D01*
X50428Y13170D01*
X50524Y13553D01*
X50820Y14047D01*
X50820Y14052D01*
X50823Y14054D01*
X50820Y14058D01*
X50826Y14060D01*
X50926Y14460D01*
X50914Y14488D01*
X50917Y14502D01*
X50617Y14902D01*
X50604Y14905D01*
X50603Y14914D01*
X50103Y15214D01*
X50085Y15212D01*
X50078Y15221D01*
X49778Y15221D01*
X49757Y15205D01*
X49743Y15207D01*
X49043Y14507D01*
X49041Y14493D01*
X49032Y14490D01*
X48832Y13990D01*
X48834Y13985D01*
X48830Y13982D01*
X48730Y13482D01*
X48733Y13475D01*
X48729Y13472D01*
X48729Y12372D01*
X48737Y12361D01*
X48732Y12354D01*
X48932Y11854D01*
X48935Y11852D01*
X48934Y11850D01*
X49134Y11450D01*
X49140Y11447D01*
X49139Y11442D01*
X49439Y11042D01*
X49448Y11040D01*
X49448Y11033D01*
X49848Y10733D01*
X49864Y10733D01*
X49868Y10724D01*
X50868Y10524D01*
X50875Y10527D01*
X50878Y10523D01*
X51378Y10523D01*
X51389Y10531D01*
X51396Y10526D01*
X51896Y10726D01*
X51901Y10734D01*
X51908Y10733D01*
X52308Y11033D01*
X52310Y11042D01*
X52317Y11042D01*
X52917Y11842D01*
X52917Y11858D01*
X52926Y11862D01*
X53025Y12358D01*
X53224Y12854D01*
X53222Y12860D01*
X53226Y12862D01*
X53325Y13356D01*
X53511Y13728D01*
X53968Y13820D01*
X54238Y13640D01*
X54429Y13163D01*
X54429Y12688D01*
X54139Y12302D01*
X53740Y11803D01*
X53739Y11795D01*
X53734Y11794D01*
X53534Y11394D01*
X53538Y11372D01*
X53537Y11372D01*
X53538Y11371D01*
X53540Y11362D01*
X53534Y11350D01*
X53734Y10950D01*
X53744Y10945D01*
X53743Y10937D01*
X54143Y10537D01*
X54162Y10535D01*
X54166Y10524D01*
X54566Y10424D01*
X54588Y10434D01*
G37*
G36*
X65451Y50293D02*
X65451Y50293D01*
X65465Y50291D01*
X65765Y50591D01*
X65767Y50603D01*
X65773Y50608D01*
X65769Y50613D01*
X65779Y50618D01*
X65879Y51218D01*
X65871Y51233D01*
X65877Y51242D01*
X65677Y51842D01*
X65658Y51854D01*
X65657Y51867D01*
X65357Y52067D01*
X65337Y52066D01*
X65330Y52075D01*
X63356Y52075D01*
X63179Y52341D01*
X63179Y53926D01*
X63175Y53932D01*
X63178Y53936D01*
X63078Y54436D01*
X63063Y54449D01*
X63065Y54461D01*
X62765Y54761D01*
X62744Y54764D01*
X62738Y54775D01*
X62138Y54875D01*
X62121Y54866D01*
X62112Y54872D01*
X61612Y54672D01*
X61604Y54660D01*
X61595Y54661D01*
X61295Y54361D01*
X61292Y54335D01*
X61283Y54329D01*
X61283Y54328D01*
X61281Y54326D01*
X61281Y52341D01*
X61104Y52075D01*
X60650Y52075D01*
X60379Y52346D01*
X60379Y55326D01*
X60371Y55337D01*
X60376Y55344D01*
X60176Y55844D01*
X60145Y55863D01*
X60140Y55874D01*
X59640Y55974D01*
X59628Y55969D01*
X59622Y55975D01*
X59022Y55875D01*
X59007Y55859D01*
X58995Y55861D01*
X58695Y55561D01*
X58692Y55541D01*
X58682Y55536D01*
X58582Y55036D01*
X58585Y55029D01*
X58581Y55026D01*
X58581Y50926D01*
X58590Y50913D01*
X58586Y50904D01*
X58786Y50504D01*
X58806Y50494D01*
X58808Y50482D01*
X59208Y50282D01*
X59224Y50285D01*
X59230Y50277D01*
X65430Y50277D01*
X65451Y50293D01*
G37*
G36*
X53189Y62531D02*
X53189Y62531D01*
X53196Y62526D01*
X53693Y62725D01*
X54090Y62824D01*
X54097Y62833D01*
X54103Y62830D01*
X54603Y63130D01*
X54605Y63133D01*
X54608Y63133D01*
X55008Y63433D01*
X55010Y63442D01*
X55017Y63442D01*
X55617Y64242D01*
X55617Y64252D01*
X55624Y64254D01*
X55823Y64752D01*
X56022Y65150D01*
X56020Y65159D01*
X56026Y65162D01*
X56226Y66162D01*
X56220Y66175D01*
X56226Y66182D01*
X56026Y67182D01*
X56023Y67185D01*
X56025Y67188D01*
X55825Y67788D01*
X55817Y67793D01*
X55819Y67799D01*
X55619Y68099D01*
X55617Y68100D01*
X55617Y68102D01*
X55317Y68502D01*
X55293Y68508D01*
X55288Y68520D01*
X54788Y68620D01*
X54770Y68612D01*
X54760Y68618D01*
X54260Y68418D01*
X54252Y68406D01*
X54243Y68407D01*
X53843Y68007D01*
X53840Y67980D01*
X53829Y67972D01*
X53829Y67672D01*
X53840Y67657D01*
X53836Y67647D01*
X54134Y67150D01*
X54329Y66663D01*
X54329Y65684D01*
X54135Y65295D01*
X53841Y64806D01*
X53454Y64515D01*
X52969Y64321D01*
X51987Y64321D01*
X51502Y64515D01*
X51113Y64807D01*
X50821Y65196D01*
X50627Y65681D01*
X50627Y66663D01*
X50821Y67148D01*
X51117Y67542D01*
X51117Y67564D01*
X51127Y67572D01*
X51127Y67972D01*
X51111Y67993D01*
X51113Y68007D01*
X50713Y68407D01*
X50704Y68408D01*
X50703Y68414D01*
X50203Y68714D01*
X50177Y68711D01*
X50166Y68720D01*
X49766Y68620D01*
X49754Y68605D01*
X49743Y68607D01*
X49443Y68307D01*
X49442Y68298D01*
X49436Y68297D01*
X49136Y67797D01*
X49136Y67794D01*
X49134Y67794D01*
X48934Y67394D01*
X48936Y67384D01*
X48929Y67380D01*
X48829Y66780D01*
X48730Y66282D01*
X48736Y66268D01*
X48730Y66260D01*
X48829Y65866D01*
X48829Y65372D01*
X48837Y65361D01*
X48832Y65354D01*
X49232Y64354D01*
X49240Y64349D01*
X49239Y64342D01*
X49839Y63542D01*
X49848Y63540D01*
X49848Y63533D01*
X50648Y62933D01*
X50658Y62933D01*
X50660Y62926D01*
X51158Y62727D01*
X51556Y62528D01*
X51572Y62531D01*
X51578Y62523D01*
X53178Y62523D01*
X53189Y62531D01*
G37*
G36*
X63536Y43281D02*
X63536Y43281D01*
X63540Y43278D01*
X64040Y43378D01*
X64048Y43387D01*
X64055Y43384D01*
X64555Y43684D01*
X64557Y43687D01*
X64560Y43687D01*
X64960Y43987D01*
X64962Y43996D01*
X64969Y43996D01*
X65569Y44796D01*
X65569Y44806D01*
X65576Y44808D01*
X65776Y45308D01*
X65772Y45321D01*
X65779Y45326D01*
X65779Y46326D01*
X65775Y46332D01*
X65778Y46336D01*
X65678Y46836D01*
X65671Y46842D01*
X65674Y46848D01*
X65274Y47648D01*
X65264Y47653D01*
X65265Y47661D01*
X64865Y48061D01*
X64860Y48062D01*
X64860Y48065D01*
X64460Y48365D01*
X64450Y48365D01*
X64448Y48372D01*
X63948Y48572D01*
X63942Y48570D01*
X63940Y48574D01*
X63440Y48674D01*
X63433Y48671D01*
X63430Y48675D01*
X62930Y48675D01*
X62925Y48672D01*
X62922Y48675D01*
X62322Y48575D01*
X62320Y48572D01*
X62318Y48574D01*
X61918Y48474D01*
X61909Y48463D01*
X61900Y48465D01*
X61500Y48165D01*
X61499Y48160D01*
X61495Y48161D01*
X61095Y47761D01*
X61094Y47756D01*
X61091Y47756D01*
X60791Y47356D01*
X60791Y47349D01*
X60786Y47348D01*
X60586Y46948D01*
X60588Y46939D01*
X60586Y46938D01*
X60582Y46936D01*
X60382Y45936D01*
X60388Y45923D01*
X60382Y45916D01*
X60582Y44916D01*
X60591Y44908D01*
X60588Y44901D01*
X60888Y44401D01*
X60891Y44399D01*
X60891Y44396D01*
X61191Y43996D01*
X61196Y43995D01*
X61195Y43991D01*
X61895Y43291D01*
X61922Y43288D01*
X61930Y43277D01*
X63530Y43277D01*
X63536Y43281D01*
G37*
G36*
X55485Y7328D02*
X55485Y7328D01*
X55490Y7324D01*
X55890Y7424D01*
X55909Y7447D01*
X55922Y7450D01*
X56122Y7850D01*
X56119Y7866D01*
X56127Y7872D01*
X56127Y8472D01*
X56123Y8478D01*
X56126Y8482D01*
X56026Y8982D01*
X55994Y9010D01*
X55990Y9020D01*
X55590Y9120D01*
X55582Y9116D01*
X55578Y9121D01*
X49378Y9121D01*
X49362Y9109D01*
X49351Y9113D01*
X49051Y8913D01*
X49041Y8886D01*
X49029Y8880D01*
X48929Y8280D01*
X48934Y8272D01*
X48933Y8272D01*
X48935Y8269D01*
X48929Y8264D01*
X49029Y7664D01*
X49045Y7649D01*
X49043Y7637D01*
X49343Y7337D01*
X49370Y7334D01*
X49378Y7323D01*
X55478Y7323D01*
X55485Y7328D01*
G37*
%LPC*%
G36*
X137986Y60744D02*
X137986Y60744D01*
X137472Y60832D01*
X137000Y61017D01*
X136563Y61294D01*
X136201Y61645D01*
X135919Y62078D01*
X135726Y62546D01*
X135635Y63058D01*
X135586Y63569D01*
X135766Y64592D01*
X136036Y65027D01*
X136374Y65454D01*
X136376Y65484D01*
X136384Y65512D01*
X136380Y65517D01*
X136380Y65520D01*
X136411Y65526D01*
X137175Y66036D01*
X137673Y66152D01*
X138189Y66242D01*
X138653Y66263D01*
X138699Y65845D01*
X138699Y64852D01*
X138333Y64851D01*
X138324Y64846D01*
X138309Y64846D01*
X137831Y64649D01*
X137825Y64639D01*
X137806Y64630D01*
X137481Y64226D01*
X137480Y64216D01*
X137473Y64211D01*
X137473Y64208D01*
X137470Y64204D01*
X137329Y63701D01*
X137331Y63693D01*
X137326Y63682D01*
X137338Y63158D01*
X137342Y63152D01*
X137341Y63140D01*
X137506Y62645D01*
X137514Y62639D01*
X137514Y62638D01*
X137515Y62638D01*
X137520Y62622D01*
X137620Y62513D01*
X137678Y62450D01*
X137850Y62262D01*
X137870Y62240D01*
X137881Y62237D01*
X137896Y62223D01*
X138386Y62060D01*
X138699Y61918D01*
X138699Y60923D01*
X138477Y60681D01*
X137986Y60744D01*
G37*
%LPD*%
%LPC*%
G36*
X131398Y60737D02*
X131398Y60737D01*
X131366Y60775D01*
X131314Y60838D01*
X131191Y60986D01*
X131191Y66155D01*
X131176Y66178D01*
X131172Y66190D01*
X131259Y66203D01*
X131638Y66218D01*
X132671Y66218D01*
X132830Y66060D01*
X132834Y66059D01*
X132836Y66055D01*
X132887Y66043D01*
X132912Y66049D01*
X132909Y66042D01*
X132901Y66033D01*
X132903Y66028D01*
X132900Y66022D01*
X132900Y60737D01*
X131398Y60737D01*
G37*
%LPD*%
%LPC*%
G36*
X133648Y60737D02*
X133648Y60737D01*
X133398Y60943D01*
X133408Y66115D01*
X133392Y66140D01*
X133388Y66150D01*
X133470Y66167D01*
X133799Y66218D01*
X134835Y66218D01*
X135031Y66085D01*
X135036Y66085D01*
X135042Y66079D01*
X135117Y66047D01*
X135117Y66046D01*
X135097Y66002D01*
X135107Y60821D01*
X134679Y60737D01*
X133648Y60737D01*
G37*
%LPD*%
%LPC*%
G36*
X60650Y37475D02*
X60650Y37475D01*
X60379Y37746D01*
X60379Y38221D01*
X60478Y38716D01*
X60576Y39205D01*
X60865Y39591D01*
X61254Y39883D01*
X61744Y40079D01*
X62230Y40176D01*
X62714Y40079D01*
X63104Y39884D01*
X63498Y39589D01*
X63981Y39106D01*
X63981Y37564D01*
X63624Y37475D01*
X60650Y37475D01*
G37*
%LPD*%
%LPC*%
G36*
X50993Y49221D02*
X50993Y49221D01*
X50727Y49398D01*
X50727Y49867D01*
X50826Y50362D01*
X50924Y50851D01*
X51213Y51237D01*
X51602Y51529D01*
X52092Y51725D01*
X52578Y51822D01*
X53062Y51725D01*
X53452Y51530D01*
X53846Y51235D01*
X54329Y50752D01*
X54329Y49310D01*
X53972Y49221D01*
X50993Y49221D01*
G37*
%LPD*%
%LPC*%
G36*
X51586Y42121D02*
X51586Y42121D01*
X51099Y42218D01*
X50714Y42506D01*
X50527Y42787D01*
X50527Y43164D01*
X50621Y43445D01*
X50902Y43727D01*
X51386Y43823D01*
X52081Y43923D01*
X52775Y43923D01*
X53470Y43823D01*
X53954Y43727D01*
X54234Y43447D01*
X54329Y43066D01*
X54329Y42978D01*
X54234Y42597D01*
X54049Y42413D01*
X53663Y42220D01*
X52971Y42121D01*
X52278Y42022D01*
X51586Y42121D01*
G37*
%LPD*%
G36*
X118149Y62083D02*
X118149Y62083D01*
X118157Y62090D01*
X118175Y62093D01*
X118595Y62384D01*
X118600Y62394D01*
X118614Y62405D01*
X118867Y62853D01*
X118867Y62854D01*
X118868Y62855D01*
X118866Y62863D01*
X118874Y62875D01*
X118953Y63384D01*
X118950Y63391D01*
X118953Y63401D01*
X118893Y63910D01*
X118888Y63917D01*
X118888Y63929D01*
X118678Y64393D01*
X118670Y64399D01*
X118663Y64414D01*
X118286Y64754D01*
X118275Y64756D01*
X118260Y64768D01*
X117768Y64900D01*
X117758Y64897D01*
X117742Y64901D01*
X117237Y64820D01*
X117229Y64813D01*
X117211Y64809D01*
X116790Y64519D01*
X116786Y64509D01*
X116772Y64498D01*
X116518Y64051D01*
X116518Y64042D01*
X116515Y64038D01*
X116514Y64036D01*
X116514Y64035D01*
X116510Y64029D01*
X116432Y63520D01*
X116435Y63513D01*
X116431Y63503D01*
X116492Y62994D01*
X116497Y62987D01*
X116497Y62975D01*
X116708Y62511D01*
X116717Y62506D01*
X116723Y62490D01*
X117101Y62151D01*
X117112Y62150D01*
X117127Y62138D01*
X117619Y62005D01*
X117628Y62008D01*
X117645Y62003D01*
X118149Y62083D01*
G37*
%LPC*%
G36*
X159287Y81275D02*
X159287Y81275D01*
X159287Y82700D01*
X159553Y82877D01*
X160529Y82877D01*
X161002Y82687D01*
X161189Y82314D01*
X161189Y81838D01*
X161002Y81465D01*
X160529Y81275D01*
X159287Y81275D01*
G37*
%LPD*%
%LPC*%
G36*
X141287Y81275D02*
X141287Y81275D01*
X141287Y82706D01*
X141458Y82877D01*
X142526Y82877D01*
X142906Y82687D01*
X143189Y82310D01*
X143189Y81838D01*
X143000Y81460D01*
X142723Y81275D01*
X141287Y81275D01*
G37*
%LPD*%
%LPC*%
G36*
X62745Y45173D02*
X62745Y45173D01*
X62369Y45362D01*
X62181Y45831D01*
X62277Y46310D01*
X62466Y46687D01*
X62935Y46875D01*
X63409Y46780D01*
X63789Y46495D01*
X63981Y46017D01*
X63981Y45642D01*
X63698Y45265D01*
X63322Y45077D01*
X62745Y45173D01*
G37*
%LPD*%
%LPC*%
G36*
X63261Y30970D02*
X63261Y30970D01*
X62982Y31435D01*
X63076Y31905D01*
X63355Y32277D01*
X63810Y32277D01*
X64085Y32002D01*
X64180Y31526D01*
X64086Y31059D01*
X63723Y30878D01*
X63261Y30970D01*
G37*
%LPD*%
D10*
X184658Y84328D02*
X184658Y76708D01*
D11*
X113392Y24450D03*
D12*
X186716Y23608D02*
X186716Y53608D01*
X160716Y8608D02*
X144216Y8608D01*
X144216Y61108D02*
X144216Y68608D01*
X160716Y68608D01*
X144216Y16108D02*
X144216Y8608D01*
X136700Y13608D02*
X136702Y13671D01*
X136708Y13734D01*
X136718Y13797D01*
X136731Y13858D01*
X136749Y13919D01*
X136770Y13978D01*
X136795Y14037D01*
X136823Y14093D01*
X136855Y14148D01*
X136890Y14200D01*
X136929Y14250D01*
X136970Y14298D01*
X137015Y14343D01*
X137062Y14385D01*
X137111Y14424D01*
X137163Y14460D01*
X137217Y14493D01*
X137273Y14522D01*
X137331Y14548D01*
X137390Y14570D01*
X137450Y14589D01*
X137512Y14603D01*
X137574Y14614D01*
X137637Y14621D01*
X137700Y14624D01*
X137763Y14623D01*
X137826Y14618D01*
X137889Y14609D01*
X137951Y14596D01*
X138012Y14580D01*
X138072Y14560D01*
X138130Y14536D01*
X138187Y14508D01*
X138242Y14477D01*
X138295Y14443D01*
X138346Y14405D01*
X138394Y14364D01*
X138440Y14321D01*
X138483Y14274D01*
X138523Y14225D01*
X138560Y14174D01*
X138593Y14121D01*
X138623Y14065D01*
X138650Y14008D01*
X138673Y13949D01*
X138692Y13889D01*
X138708Y13827D01*
X138720Y13765D01*
X138728Y13703D01*
X138732Y13640D01*
X138732Y13576D01*
X138728Y13513D01*
X138720Y13451D01*
X138708Y13389D01*
X138692Y13327D01*
X138673Y13267D01*
X138650Y13208D01*
X138623Y13151D01*
X138593Y13095D01*
X138560Y13042D01*
X138523Y12991D01*
X138483Y12942D01*
X138440Y12895D01*
X138394Y12852D01*
X138346Y12811D01*
X138295Y12773D01*
X138242Y12739D01*
X138187Y12708D01*
X138130Y12680D01*
X138072Y12656D01*
X138012Y12636D01*
X137951Y12620D01*
X137889Y12607D01*
X137826Y12598D01*
X137763Y12593D01*
X137700Y12592D01*
X137637Y12595D01*
X137574Y12602D01*
X137512Y12613D01*
X137450Y12627D01*
X137390Y12646D01*
X137331Y12668D01*
X137273Y12694D01*
X137217Y12723D01*
X137163Y12756D01*
X137111Y12792D01*
X137062Y12831D01*
X137015Y12873D01*
X136970Y12918D01*
X136929Y12966D01*
X136890Y13016D01*
X136855Y13068D01*
X136823Y13123D01*
X136795Y13179D01*
X136770Y13238D01*
X136749Y13297D01*
X136731Y13358D01*
X136718Y13419D01*
X136708Y13482D01*
X136702Y13545D01*
X136700Y13608D01*
M02*
