G04 EAGLE Gerber RS-274X export*
G75*
%MOMM*%
%FSLAX34Y34*%
%LPD*%
%INBottom Copper*%
%IPPOS*%
%AMOC8*
5,1,8,0,0,1.08239X$1,22.5*%
G01*
%ADD10C,0.177800*%
%ADD11C,0.099059*%
%ADD12C,0.635000*%
%ADD13C,1.879600*%
%ADD14C,0.554000*%
%ADD15C,0.152400*%
%ADD16C,0.279400*%

G36*
X69783Y3066D02*
X69783Y3066D01*
X69921Y3079D01*
X69940Y3086D01*
X69960Y3089D01*
X70090Y3140D01*
X70221Y3187D01*
X70237Y3198D01*
X70256Y3206D01*
X70369Y3287D01*
X70484Y3365D01*
X70497Y3381D01*
X70514Y3392D01*
X70602Y3500D01*
X70694Y3604D01*
X70703Y3622D01*
X70716Y3637D01*
X70776Y3763D01*
X70839Y3887D01*
X70843Y3907D01*
X70852Y3925D01*
X70878Y4062D01*
X70908Y4197D01*
X70908Y4218D01*
X70912Y4237D01*
X70903Y4376D01*
X70899Y4515D01*
X70893Y4535D01*
X70892Y4555D01*
X70849Y4687D01*
X70810Y4821D01*
X70800Y4838D01*
X70794Y4857D01*
X70720Y4975D01*
X70649Y5095D01*
X70630Y5116D01*
X70624Y5126D01*
X70609Y5140D01*
X70542Y5216D01*
X70096Y5662D01*
X69365Y7427D01*
X69365Y9337D01*
X70096Y11103D01*
X71447Y12454D01*
X73213Y13185D01*
X75123Y13185D01*
X76888Y12454D01*
X77080Y12262D01*
X77175Y12189D01*
X77187Y12177D01*
X77195Y12172D01*
X77297Y12088D01*
X77316Y12079D01*
X77332Y12067D01*
X77459Y12011D01*
X77585Y11952D01*
X77605Y11948D01*
X77624Y11940D01*
X77761Y11919D01*
X77898Y11892D01*
X77918Y11894D01*
X77938Y11890D01*
X78076Y11903D01*
X78215Y11912D01*
X78234Y11918D01*
X78254Y11920D01*
X78386Y11967D01*
X78517Y12010D01*
X78534Y12021D01*
X78554Y12028D01*
X78669Y12106D01*
X78786Y12180D01*
X78800Y12195D01*
X78817Y12206D01*
X78909Y12311D01*
X79004Y12412D01*
X79014Y12430D01*
X79027Y12445D01*
X79091Y12569D01*
X79158Y12690D01*
X79163Y12710D01*
X79172Y12728D01*
X79202Y12864D01*
X79237Y12998D01*
X79239Y13026D01*
X79242Y13038D01*
X79241Y13059D01*
X79247Y13159D01*
X79247Y18649D01*
X80728Y20130D01*
X88436Y20130D01*
X88892Y19675D01*
X88986Y19602D01*
X89075Y19523D01*
X89111Y19504D01*
X89143Y19480D01*
X89252Y19432D01*
X89358Y19378D01*
X89397Y19369D01*
X89435Y19353D01*
X89552Y19335D01*
X89668Y19309D01*
X89709Y19310D01*
X89749Y19303D01*
X89867Y19315D01*
X89986Y19318D01*
X90025Y19329D01*
X90065Y19333D01*
X90177Y19374D01*
X90292Y19407D01*
X90327Y19427D01*
X90365Y19441D01*
X90463Y19508D01*
X90566Y19568D01*
X90611Y19608D01*
X90628Y19619D01*
X90641Y19635D01*
X90687Y19675D01*
X91164Y20152D01*
X91169Y20153D01*
X91207Y20165D01*
X91248Y20170D01*
X91358Y20214D01*
X91471Y20251D01*
X91506Y20272D01*
X91543Y20287D01*
X91639Y20357D01*
X91740Y20421D01*
X91768Y20450D01*
X91801Y20474D01*
X91877Y20566D01*
X91958Y20652D01*
X91978Y20688D01*
X92003Y20719D01*
X92054Y20827D01*
X92112Y20931D01*
X92122Y20970D01*
X92139Y21007D01*
X92161Y21123D01*
X92191Y21239D01*
X92195Y21299D01*
X92199Y21319D01*
X92197Y21339D01*
X92201Y21399D01*
X92201Y25288D01*
X97156Y30242D01*
X106989Y30242D01*
X107018Y30246D01*
X107047Y30244D01*
X107175Y30266D01*
X107304Y30282D01*
X107332Y30293D01*
X107361Y30298D01*
X107479Y30351D01*
X107600Y30399D01*
X107624Y30416D01*
X107651Y30429D01*
X107752Y30510D01*
X107857Y30586D01*
X107876Y30609D01*
X107899Y30627D01*
X107977Y30731D01*
X108060Y30831D01*
X108073Y30858D01*
X108090Y30881D01*
X108161Y31026D01*
X108332Y31438D01*
X109683Y32789D01*
X111448Y33520D01*
X113359Y33520D01*
X115124Y32789D01*
X116475Y31438D01*
X116615Y31101D01*
X116639Y31058D01*
X116656Y31011D01*
X116718Y30920D01*
X116772Y30825D01*
X116807Y30789D01*
X116835Y30748D01*
X116917Y30675D01*
X116994Y30596D01*
X117036Y30570D01*
X117073Y30537D01*
X117171Y30487D01*
X117265Y30430D01*
X117312Y30415D01*
X117356Y30393D01*
X117464Y30369D01*
X117569Y30336D01*
X117618Y30334D01*
X117667Y30323D01*
X117776Y30326D01*
X117886Y30321D01*
X117935Y30331D01*
X117985Y30333D01*
X118090Y30363D01*
X118198Y30386D01*
X118242Y30407D01*
X118290Y30421D01*
X118385Y30477D01*
X118483Y30525D01*
X118521Y30558D01*
X118564Y30583D01*
X118685Y30689D01*
X119706Y31710D01*
X125230Y31710D01*
X125329Y31723D01*
X125428Y31726D01*
X125486Y31742D01*
X125546Y31750D01*
X125638Y31786D01*
X125733Y31814D01*
X125785Y31845D01*
X125842Y31867D01*
X125922Y31925D01*
X126007Y31976D01*
X126082Y32042D01*
X126099Y32054D01*
X126107Y32063D01*
X126128Y32082D01*
X127033Y32987D01*
X128798Y33718D01*
X130709Y33718D01*
X132474Y32987D01*
X133825Y31636D01*
X133979Y31264D01*
X133994Y31239D01*
X134003Y31211D01*
X134072Y31101D01*
X134137Y30988D01*
X134157Y30967D01*
X134173Y30942D01*
X134268Y30853D01*
X134358Y30760D01*
X134383Y30744D01*
X134405Y30724D01*
X134518Y30661D01*
X134629Y30593D01*
X134657Y30585D01*
X134683Y30570D01*
X134809Y30538D01*
X134933Y30500D01*
X134962Y30498D01*
X134991Y30491D01*
X135152Y30481D01*
X137224Y30481D01*
X137342Y30496D01*
X137460Y30503D01*
X137499Y30516D01*
X137539Y30521D01*
X137650Y30564D01*
X137763Y30601D01*
X137797Y30623D01*
X137835Y30638D01*
X137931Y30707D01*
X138032Y30771D01*
X138059Y30801D01*
X138092Y30824D01*
X138168Y30916D01*
X138250Y31003D01*
X138269Y31038D01*
X138295Y31069D01*
X138346Y31177D01*
X138403Y31281D01*
X138413Y31321D01*
X138430Y31357D01*
X138453Y31474D01*
X138462Y31509D01*
X138948Y31996D01*
X139021Y32090D01*
X139100Y32179D01*
X139119Y32215D01*
X139143Y32247D01*
X139191Y32356D01*
X139245Y32462D01*
X139254Y32501D01*
X139270Y32539D01*
X139288Y32656D01*
X139314Y32772D01*
X139313Y32813D01*
X139320Y32853D01*
X139308Y32971D01*
X139305Y33090D01*
X139294Y33129D01*
X139290Y33169D01*
X139249Y33281D01*
X139216Y33396D01*
X139196Y33431D01*
X139182Y33469D01*
X139115Y33567D01*
X139055Y33670D01*
X139015Y33715D01*
X139004Y33732D01*
X138988Y33745D01*
X138948Y33791D01*
X138493Y34246D01*
X138493Y41954D01*
X138948Y42410D01*
X139021Y42504D01*
X139100Y42593D01*
X139119Y42629D01*
X139143Y42661D01*
X139191Y42770D01*
X139245Y42876D01*
X139254Y42915D01*
X139270Y42953D01*
X139288Y43070D01*
X139314Y43186D01*
X139313Y43227D01*
X139320Y43267D01*
X139308Y43385D01*
X139305Y43504D01*
X139294Y43543D01*
X139290Y43583D01*
X139249Y43695D01*
X139216Y43810D01*
X139196Y43845D01*
X139182Y43883D01*
X139115Y43981D01*
X139055Y44084D01*
X139015Y44129D01*
X139004Y44146D01*
X138988Y44159D01*
X138948Y44205D01*
X138471Y44682D01*
X138470Y44687D01*
X138458Y44725D01*
X138453Y44766D01*
X138409Y44876D01*
X138372Y44989D01*
X138351Y45024D01*
X138336Y45061D01*
X138266Y45157D01*
X138202Y45258D01*
X138173Y45286D01*
X138149Y45319D01*
X138057Y45395D01*
X137971Y45476D01*
X137935Y45496D01*
X137904Y45521D01*
X137796Y45572D01*
X137692Y45630D01*
X137653Y45640D01*
X137616Y45657D01*
X137500Y45679D01*
X137384Y45709D01*
X137324Y45713D01*
X137304Y45717D01*
X137284Y45715D01*
X137224Y45719D01*
X133462Y45719D01*
X124158Y55024D01*
X124080Y55084D01*
X124008Y55152D01*
X123955Y55181D01*
X123907Y55218D01*
X123816Y55258D01*
X123729Y55306D01*
X123671Y55321D01*
X123615Y55345D01*
X123517Y55360D01*
X123421Y55385D01*
X123321Y55391D01*
X123301Y55395D01*
X123289Y55393D01*
X123261Y55395D01*
X121981Y55395D01*
X120215Y56126D01*
X118864Y57477D01*
X118133Y59243D01*
X118133Y61153D01*
X118864Y62919D01*
X120215Y64270D01*
X121981Y65001D01*
X123891Y65001D01*
X125657Y64270D01*
X127008Y62919D01*
X127739Y61153D01*
X127739Y59873D01*
X127751Y59775D01*
X127754Y59676D01*
X127771Y59618D01*
X127779Y59558D01*
X127815Y59466D01*
X127843Y59371D01*
X127873Y59318D01*
X127896Y59262D01*
X127954Y59182D01*
X128004Y59097D01*
X128070Y59021D01*
X128082Y59005D01*
X128092Y58997D01*
X128110Y58976D01*
X135406Y51680D01*
X135484Y51620D01*
X135556Y51552D01*
X135609Y51523D01*
X135657Y51486D01*
X135748Y51446D01*
X135835Y51398D01*
X135893Y51383D01*
X135949Y51359D01*
X136047Y51344D01*
X136143Y51319D01*
X136243Y51313D01*
X136263Y51309D01*
X136275Y51311D01*
X136303Y51309D01*
X137224Y51309D01*
X137342Y51324D01*
X137460Y51331D01*
X137499Y51344D01*
X137539Y51349D01*
X137650Y51392D01*
X137763Y51429D01*
X137797Y51451D01*
X137835Y51466D01*
X137931Y51535D01*
X138032Y51599D01*
X138059Y51629D01*
X138092Y51652D01*
X138168Y51744D01*
X138250Y51831D01*
X138269Y51866D01*
X138295Y51897D01*
X138346Y52005D01*
X138403Y52109D01*
X138413Y52149D01*
X138430Y52185D01*
X138453Y52302D01*
X138462Y52337D01*
X139974Y53849D01*
X153777Y53849D01*
X155258Y52368D01*
X155258Y44426D01*
X155273Y44308D01*
X155281Y44189D01*
X155293Y44151D01*
X155298Y44110D01*
X155342Y44000D01*
X155379Y43887D01*
X155400Y43852D01*
X155415Y43815D01*
X155485Y43719D01*
X155549Y43618D01*
X155578Y43590D01*
X155602Y43557D01*
X155694Y43481D01*
X155780Y43400D01*
X155816Y43380D01*
X155847Y43355D01*
X155955Y43304D01*
X156059Y43246D01*
X156098Y43236D01*
X156135Y43219D01*
X156251Y43197D01*
X156367Y43167D01*
X156427Y43163D01*
X156447Y43159D01*
X156467Y43161D01*
X156527Y43157D01*
X158435Y43157D01*
X160201Y42426D01*
X161552Y41075D01*
X162283Y39309D01*
X162283Y37399D01*
X161552Y35633D01*
X160201Y34282D01*
X158435Y33551D01*
X156311Y33551D01*
X156173Y33534D01*
X156035Y33521D01*
X156016Y33514D01*
X155996Y33511D01*
X155867Y33460D01*
X155735Y33413D01*
X155719Y33402D01*
X155700Y33394D01*
X155588Y33313D01*
X155472Y33235D01*
X155459Y33219D01*
X155442Y33208D01*
X155354Y33100D01*
X155262Y32996D01*
X155253Y32978D01*
X155240Y32963D01*
X155180Y32837D01*
X155117Y32713D01*
X155113Y32693D01*
X155104Y32675D01*
X155078Y32538D01*
X155048Y32403D01*
X155048Y32382D01*
X155044Y32363D01*
X155053Y32224D01*
X155057Y32085D01*
X155063Y32065D01*
X155064Y32045D01*
X155107Y31913D01*
X155146Y31779D01*
X155156Y31762D01*
X155162Y31743D01*
X155237Y31625D01*
X155258Y31588D01*
X155258Y23832D01*
X153777Y22351D01*
X139974Y22351D01*
X138471Y23854D01*
X138470Y23859D01*
X138458Y23897D01*
X138453Y23938D01*
X138409Y24048D01*
X138372Y24161D01*
X138351Y24196D01*
X138336Y24233D01*
X138266Y24329D01*
X138202Y24430D01*
X138173Y24458D01*
X138149Y24491D01*
X138057Y24567D01*
X137971Y24648D01*
X137935Y24668D01*
X137904Y24693D01*
X137796Y24744D01*
X137692Y24802D01*
X137653Y24812D01*
X137616Y24829D01*
X137500Y24851D01*
X137384Y24881D01*
X137324Y24885D01*
X137304Y24889D01*
X137284Y24887D01*
X137224Y24891D01*
X136998Y24891D01*
X136900Y24879D01*
X136801Y24876D01*
X136743Y24859D01*
X136683Y24851D01*
X136591Y24815D01*
X136496Y24787D01*
X136444Y24757D01*
X136387Y24734D01*
X136307Y24676D01*
X136222Y24626D01*
X136146Y24560D01*
X136130Y24548D01*
X136122Y24538D01*
X136101Y24520D01*
X128110Y16529D01*
X128050Y16451D01*
X127982Y16379D01*
X127953Y16326D01*
X127916Y16278D01*
X127876Y16187D01*
X127828Y16100D01*
X127813Y16042D01*
X127789Y15986D01*
X127774Y15888D01*
X127749Y15792D01*
X127743Y15692D01*
X127739Y15672D01*
X127741Y15660D01*
X127739Y15632D01*
X127739Y15555D01*
X127008Y13789D01*
X125657Y12438D01*
X123891Y11707D01*
X121981Y11707D01*
X121757Y11800D01*
X121709Y11813D01*
X121664Y11834D01*
X121557Y11855D01*
X121451Y11884D01*
X121401Y11885D01*
X121352Y11894D01*
X121243Y11887D01*
X121133Y11889D01*
X121084Y11877D01*
X121035Y11874D01*
X120930Y11840D01*
X120823Y11815D01*
X120779Y11791D01*
X120732Y11776D01*
X120639Y11717D01*
X120542Y11666D01*
X120505Y11633D01*
X120463Y11606D01*
X120388Y11526D01*
X120307Y11452D01*
X120280Y11411D01*
X120246Y11374D01*
X120192Y11278D01*
X120132Y11186D01*
X120116Y11139D01*
X120092Y11096D01*
X120065Y10990D01*
X120029Y10886D01*
X120025Y10836D01*
X120013Y10788D01*
X120002Y10627D01*
X120002Y8834D01*
X119271Y7069D01*
X117920Y5718D01*
X117371Y5491D01*
X117310Y5456D01*
X117246Y5430D01*
X117173Y5378D01*
X117095Y5333D01*
X117045Y5285D01*
X116988Y5244D01*
X116931Y5174D01*
X116866Y5112D01*
X116830Y5052D01*
X116785Y4999D01*
X116747Y4917D01*
X116700Y4841D01*
X116680Y4774D01*
X116650Y4711D01*
X116633Y4623D01*
X116607Y4537D01*
X116603Y4467D01*
X116590Y4398D01*
X116596Y4309D01*
X116591Y4219D01*
X116606Y4151D01*
X116610Y4081D01*
X116637Y3996D01*
X116656Y3908D01*
X116686Y3845D01*
X116708Y3779D01*
X116756Y3703D01*
X116795Y3622D01*
X116841Y3569D01*
X116878Y3510D01*
X116944Y3448D01*
X117002Y3380D01*
X117059Y3340D01*
X117110Y3292D01*
X117188Y3249D01*
X117262Y3197D01*
X117327Y3172D01*
X117388Y3138D01*
X117475Y3116D01*
X117559Y3084D01*
X117628Y3076D01*
X117696Y3059D01*
X117857Y3049D01*
X186182Y3049D01*
X186300Y3064D01*
X186419Y3071D01*
X186457Y3084D01*
X186498Y3089D01*
X186608Y3132D01*
X186721Y3169D01*
X186756Y3191D01*
X186793Y3206D01*
X186889Y3275D01*
X186990Y3339D01*
X187018Y3369D01*
X187051Y3392D01*
X187127Y3484D01*
X187208Y3571D01*
X187228Y3606D01*
X187253Y3637D01*
X187304Y3745D01*
X187362Y3849D01*
X187372Y3889D01*
X187389Y3925D01*
X187411Y4042D01*
X187441Y4157D01*
X187445Y4217D01*
X187449Y4237D01*
X187447Y4258D01*
X187451Y4318D01*
X187451Y24080D01*
X187434Y24220D01*
X187420Y24359D01*
X187414Y24377D01*
X187411Y24396D01*
X187360Y24526D01*
X187312Y24658D01*
X187301Y24674D01*
X187294Y24692D01*
X187212Y24805D01*
X187133Y24921D01*
X187119Y24933D01*
X187108Y24949D01*
X186999Y25038D01*
X186895Y25131D01*
X186878Y25139D01*
X186863Y25152D01*
X186736Y25211D01*
X186611Y25275D01*
X186592Y25279D01*
X186575Y25287D01*
X186438Y25313D01*
X186301Y25344D01*
X186281Y25343D01*
X186263Y25347D01*
X186138Y25339D01*
X183226Y25339D01*
X181479Y27086D01*
X181401Y27147D01*
X181328Y27215D01*
X181275Y27244D01*
X181228Y27281D01*
X181137Y27320D01*
X181050Y27368D01*
X180991Y27383D01*
X180936Y27407D01*
X180838Y27423D01*
X180742Y27448D01*
X180642Y27454D01*
X180622Y27457D01*
X180609Y27456D01*
X180581Y27458D01*
X176870Y27458D01*
X175159Y29169D01*
X175159Y31590D01*
X176263Y32694D01*
X176336Y32788D01*
X176415Y32878D01*
X176434Y32914D01*
X176458Y32946D01*
X176505Y33055D01*
X176560Y33161D01*
X176569Y33200D01*
X176585Y33238D01*
X176603Y33355D01*
X176629Y33471D01*
X176628Y33512D01*
X176634Y33552D01*
X176623Y33671D01*
X176620Y33789D01*
X176608Y33828D01*
X176605Y33868D01*
X176564Y33980D01*
X176531Y34095D01*
X176511Y34130D01*
X176497Y34168D01*
X176430Y34266D01*
X176370Y34369D01*
X176330Y34414D01*
X176318Y34431D01*
X176303Y34444D01*
X176263Y34489D01*
X175846Y34906D01*
X175846Y34907D01*
X175159Y35594D01*
X175159Y36822D01*
X175159Y40133D01*
X176726Y41701D01*
X176772Y41760D01*
X176825Y41812D01*
X176869Y41885D01*
X176921Y41952D01*
X176951Y42020D01*
X176989Y42084D01*
X177014Y42166D01*
X177047Y42244D01*
X177059Y42317D01*
X177081Y42389D01*
X177084Y42474D01*
X177097Y42558D01*
X177090Y42632D01*
X177093Y42707D01*
X177075Y42790D01*
X177068Y42875D01*
X177042Y42945D01*
X177035Y42978D01*
X177691Y44946D01*
X177693Y44955D01*
X177697Y44963D01*
X177724Y45110D01*
X177753Y45258D01*
X177753Y45267D01*
X177755Y45276D01*
X177744Y45426D01*
X177736Y45576D01*
X177733Y45584D01*
X177733Y45594D01*
X177691Y45749D01*
X177044Y47690D01*
X178127Y49855D01*
X180423Y50621D01*
X185476Y48094D01*
X185485Y48091D01*
X185493Y48086D01*
X185642Y48025D01*
X185781Y47979D01*
X185785Y47978D01*
X185789Y47976D01*
X185939Y47948D01*
X186093Y47917D01*
X186097Y47918D01*
X186102Y47917D01*
X186254Y47926D01*
X186410Y47935D01*
X186414Y47936D01*
X186419Y47936D01*
X186565Y47984D01*
X186713Y48031D01*
X186717Y48033D01*
X186721Y48034D01*
X186852Y48117D01*
X186983Y48199D01*
X186986Y48202D01*
X186990Y48205D01*
X187096Y48317D01*
X187203Y48429D01*
X187205Y48433D01*
X187208Y48436D01*
X187282Y48570D01*
X187358Y48706D01*
X187359Y48711D01*
X187362Y48715D01*
X187400Y48862D01*
X187440Y49014D01*
X187440Y49018D01*
X187441Y49023D01*
X187451Y49183D01*
X187451Y74726D01*
X187445Y74775D01*
X187447Y74825D01*
X187425Y74932D01*
X187411Y75041D01*
X187393Y75088D01*
X187383Y75136D01*
X187335Y75235D01*
X187294Y75337D01*
X187265Y75377D01*
X187243Y75422D01*
X187172Y75506D01*
X187108Y75594D01*
X187069Y75626D01*
X187037Y75664D01*
X186947Y75727D01*
X186863Y75797D01*
X186818Y75818D01*
X186777Y75847D01*
X186674Y75886D01*
X186575Y75933D01*
X186526Y75942D01*
X186479Y75960D01*
X186370Y75972D01*
X186263Y75992D01*
X186213Y75989D01*
X186163Y75995D01*
X186054Y75980D01*
X185945Y75973D01*
X185934Y75969D01*
X183957Y75969D01*
X182731Y76477D01*
X182683Y76490D01*
X182638Y76511D01*
X182530Y76532D01*
X182424Y76561D01*
X182374Y76562D01*
X182325Y76571D01*
X182216Y76564D01*
X182106Y76566D01*
X182058Y76554D01*
X182008Y76551D01*
X181904Y76518D01*
X181797Y76492D01*
X181753Y76469D01*
X181706Y76453D01*
X181613Y76395D01*
X181516Y76343D01*
X181479Y76310D01*
X181437Y76283D01*
X181362Y76203D01*
X181280Y76129D01*
X181253Y76088D01*
X181219Y76052D01*
X181166Y75955D01*
X181106Y75864D01*
X181089Y75817D01*
X181065Y75773D01*
X181038Y75667D01*
X181002Y75563D01*
X180998Y75513D01*
X180986Y75465D01*
X180976Y75304D01*
X180976Y70060D01*
X179495Y68579D01*
X171787Y68579D01*
X171691Y68676D01*
X171597Y68749D01*
X171507Y68828D01*
X171471Y68846D01*
X171439Y68871D01*
X171330Y68918D01*
X171224Y68972D01*
X171185Y68981D01*
X171148Y68997D01*
X171030Y69016D01*
X170914Y69042D01*
X170873Y69041D01*
X170834Y69047D01*
X170715Y69036D01*
X170596Y69032D01*
X170557Y69021D01*
X170517Y69017D01*
X170405Y68977D01*
X170290Y68944D01*
X170256Y68923D01*
X170218Y68909D01*
X170119Y68843D01*
X170016Y68782D01*
X169971Y68742D01*
X169955Y68731D01*
X169941Y68716D01*
X169899Y68678D01*
X169206Y68278D01*
X168433Y68071D01*
X166877Y68071D01*
X166877Y75629D01*
X177419Y75629D01*
X177438Y75641D01*
X177460Y75645D01*
X177467Y75660D01*
X177476Y75666D01*
X177475Y75676D01*
X177482Y75692D01*
X177482Y78232D01*
X177470Y78251D01*
X177466Y78273D01*
X177451Y78280D01*
X177445Y78289D01*
X177435Y78288D01*
X177419Y78295D01*
X165672Y78295D01*
X165593Y78369D01*
X165558Y78389D01*
X165526Y78414D01*
X165419Y78465D01*
X165314Y78523D01*
X165275Y78533D01*
X165239Y78550D01*
X165122Y78572D01*
X165006Y78602D01*
X164946Y78606D01*
X164926Y78610D01*
X164906Y78608D01*
X164846Y78612D01*
X159384Y78612D01*
X159384Y83216D01*
X159603Y84031D01*
X159619Y84069D01*
X159675Y84189D01*
X159680Y84216D01*
X159691Y84240D01*
X159710Y84372D01*
X159735Y84502D01*
X159733Y84528D01*
X159737Y84555D01*
X159723Y84687D01*
X159715Y84819D01*
X159707Y84845D01*
X159704Y84871D01*
X159658Y84996D01*
X159617Y85121D01*
X159603Y85144D01*
X159593Y85170D01*
X159518Y85278D01*
X159447Y85390D01*
X159427Y85409D01*
X159412Y85431D01*
X159312Y85517D01*
X159215Y85608D01*
X159192Y85621D01*
X159171Y85639D01*
X159053Y85698D01*
X158937Y85762D01*
X158911Y85768D01*
X158887Y85780D01*
X158757Y85808D01*
X158629Y85841D01*
X158591Y85843D01*
X158576Y85847D01*
X158554Y85846D01*
X158468Y85851D01*
X111178Y85851D01*
X111040Y85834D01*
X110902Y85821D01*
X110883Y85814D01*
X110863Y85811D01*
X110734Y85760D01*
X110603Y85713D01*
X110586Y85702D01*
X110567Y85694D01*
X110455Y85613D01*
X110340Y85535D01*
X110326Y85519D01*
X110310Y85508D01*
X110221Y85400D01*
X110129Y85296D01*
X110120Y85278D01*
X110107Y85263D01*
X110048Y85137D01*
X109985Y85013D01*
X109980Y84993D01*
X109972Y84975D01*
X109945Y84838D01*
X109915Y84703D01*
X109916Y84682D01*
X109912Y84663D01*
X109920Y84524D01*
X109925Y84385D01*
X109930Y84365D01*
X109932Y84345D01*
X109974Y84213D01*
X110013Y84079D01*
X110023Y84062D01*
X110030Y84043D01*
X110104Y83925D01*
X110175Y83805D01*
X110193Y83784D01*
X110200Y83774D01*
X110215Y83760D01*
X110281Y83685D01*
X111291Y82675D01*
X111352Y82526D01*
X111377Y82483D01*
X111394Y82436D01*
X111455Y82345D01*
X111510Y82250D01*
X111544Y82214D01*
X111572Y82173D01*
X111655Y82100D01*
X111731Y82021D01*
X111773Y81995D01*
X111811Y81963D01*
X111909Y81913D01*
X112002Y81855D01*
X112050Y81841D01*
X112094Y81818D01*
X112201Y81794D01*
X112306Y81762D01*
X112356Y81759D01*
X112404Y81748D01*
X112514Y81752D01*
X112624Y81746D01*
X112672Y81757D01*
X112722Y81758D01*
X112827Y81789D01*
X112935Y81811D01*
X112980Y81833D01*
X113028Y81846D01*
X113122Y81902D01*
X113221Y81950D01*
X113259Y81983D01*
X113301Y82008D01*
X113422Y82114D01*
X113705Y82397D01*
X115470Y83128D01*
X117381Y83128D01*
X119146Y82397D01*
X120497Y81046D01*
X121228Y79281D01*
X121228Y77370D01*
X120497Y75605D01*
X120260Y75368D01*
X120200Y75290D01*
X120132Y75218D01*
X120103Y75165D01*
X120066Y75117D01*
X120026Y75026D01*
X119978Y74940D01*
X119963Y74881D01*
X119939Y74825D01*
X119924Y74727D01*
X119899Y74632D01*
X119893Y74532D01*
X119889Y74511D01*
X119891Y74499D01*
X119889Y74471D01*
X119889Y70798D01*
X117212Y68122D01*
X117152Y68043D01*
X117084Y67971D01*
X117055Y67918D01*
X117018Y67870D01*
X116978Y67779D01*
X116930Y67693D01*
X116915Y67634D01*
X116891Y67578D01*
X116876Y67481D01*
X116851Y67385D01*
X116845Y67285D01*
X116841Y67264D01*
X116843Y67252D01*
X116841Y67224D01*
X116841Y65408D01*
X116110Y63643D01*
X114759Y62292D01*
X113490Y61767D01*
X113482Y61762D01*
X113473Y61759D01*
X113344Y61684D01*
X113213Y61609D01*
X113207Y61603D01*
X113199Y61598D01*
X113078Y61491D01*
X98957Y47370D01*
X78564Y47370D01*
X78466Y47358D01*
X78367Y47355D01*
X78309Y47338D01*
X78249Y47330D01*
X78156Y47294D01*
X78061Y47266D01*
X78009Y47236D01*
X77953Y47213D01*
X77873Y47155D01*
X77787Y47105D01*
X77712Y47039D01*
X77696Y47027D01*
X77688Y47017D01*
X77667Y46999D01*
X77397Y46728D01*
X75631Y45997D01*
X73721Y45997D01*
X71955Y46728D01*
X70604Y48079D01*
X69873Y49845D01*
X69873Y51755D01*
X70604Y53521D01*
X71955Y54872D01*
X73721Y55603D01*
X75631Y55603D01*
X77397Y54872D01*
X77667Y54601D01*
X77745Y54541D01*
X77817Y54473D01*
X77870Y54444D01*
X77918Y54407D01*
X78009Y54367D01*
X78095Y54319D01*
X78154Y54304D01*
X78210Y54280D01*
X78308Y54265D01*
X78403Y54240D01*
X78503Y54234D01*
X78524Y54230D01*
X78536Y54232D01*
X78564Y54230D01*
X95590Y54230D01*
X95688Y54242D01*
X95787Y54245D01*
X95845Y54262D01*
X95905Y54270D01*
X95997Y54306D01*
X96092Y54334D01*
X96145Y54364D01*
X96201Y54387D01*
X96281Y54445D01*
X96366Y54495D01*
X96442Y54561D01*
X96458Y54573D01*
X96466Y54583D01*
X96487Y54601D01*
X104488Y62603D01*
X104573Y62712D01*
X104662Y62819D01*
X104671Y62838D01*
X104683Y62854D01*
X104739Y62982D01*
X104798Y63107D01*
X104801Y63127D01*
X104809Y63146D01*
X104831Y63284D01*
X104857Y63420D01*
X104856Y63440D01*
X104859Y63460D01*
X104846Y63599D01*
X104838Y63737D01*
X104831Y63756D01*
X104829Y63776D01*
X104782Y63908D01*
X104740Y64039D01*
X104729Y64057D01*
X104722Y64076D01*
X104644Y64191D01*
X104569Y64308D01*
X104555Y64322D01*
X104543Y64339D01*
X104439Y64431D01*
X104338Y64526D01*
X104320Y64536D01*
X104305Y64549D01*
X104181Y64613D01*
X104059Y64680D01*
X104040Y64685D01*
X104022Y64694D01*
X103886Y64724D01*
X103751Y64759D01*
X103723Y64761D01*
X103711Y64764D01*
X103691Y64763D01*
X103591Y64769D01*
X99326Y64769D01*
X95125Y66509D01*
X91909Y69725D01*
X90270Y73684D01*
X90206Y73796D01*
X90147Y73911D01*
X90127Y73934D01*
X90112Y73960D01*
X90022Y74053D01*
X89937Y74150D01*
X89912Y74167D01*
X89891Y74188D01*
X89780Y74256D01*
X89674Y74329D01*
X89645Y74339D01*
X89620Y74355D01*
X89496Y74393D01*
X89375Y74436D01*
X89345Y74439D01*
X89316Y74448D01*
X89187Y74454D01*
X89058Y74467D01*
X89028Y74462D01*
X88998Y74463D01*
X88872Y74437D01*
X88744Y74417D01*
X88716Y74405D01*
X88687Y74399D01*
X88570Y74342D01*
X88452Y74291D01*
X88428Y74273D01*
X88401Y74259D01*
X88303Y74175D01*
X88200Y74096D01*
X88182Y74073D01*
X88159Y74053D01*
X88085Y73947D01*
X88005Y73845D01*
X87993Y73818D01*
X87976Y73793D01*
X87930Y73672D01*
X87879Y73553D01*
X87869Y73512D01*
X87863Y73496D01*
X87861Y73474D01*
X87846Y73409D01*
X87264Y71617D01*
X86411Y69943D01*
X85306Y68422D01*
X83978Y67094D01*
X82457Y65989D01*
X80783Y65136D01*
X78996Y64555D01*
X78739Y64515D01*
X78739Y74930D01*
X78724Y75048D01*
X78717Y75167D01*
X78704Y75205D01*
X78699Y75245D01*
X78656Y75356D01*
X78619Y75469D01*
X78597Y75503D01*
X78582Y75541D01*
X78512Y75637D01*
X78449Y75738D01*
X78419Y75766D01*
X78395Y75798D01*
X78304Y75874D01*
X78217Y75956D01*
X78182Y75975D01*
X78151Y76001D01*
X78043Y76052D01*
X77939Y76109D01*
X77899Y76120D01*
X77863Y76137D01*
X77746Y76159D01*
X77631Y76189D01*
X77570Y76193D01*
X77550Y76197D01*
X77530Y76195D01*
X77470Y76199D01*
X76199Y76199D01*
X76199Y77470D01*
X76184Y77588D01*
X76177Y77707D01*
X76164Y77745D01*
X76159Y77785D01*
X76115Y77896D01*
X76079Y78009D01*
X76057Y78044D01*
X76042Y78081D01*
X75972Y78177D01*
X75909Y78278D01*
X75879Y78306D01*
X75855Y78339D01*
X75764Y78414D01*
X75677Y78496D01*
X75642Y78516D01*
X75610Y78541D01*
X75503Y78592D01*
X75398Y78650D01*
X75359Y78660D01*
X75323Y78677D01*
X75206Y78699D01*
X75091Y78729D01*
X75030Y78733D01*
X75010Y78737D01*
X74990Y78735D01*
X74930Y78739D01*
X64515Y78739D01*
X64555Y78996D01*
X65136Y80783D01*
X65989Y82457D01*
X66991Y83836D01*
X67010Y83871D01*
X67035Y83901D01*
X67086Y84010D01*
X67144Y84115D01*
X67154Y84153D01*
X67171Y84189D01*
X67193Y84306D01*
X67223Y84423D01*
X67223Y84463D01*
X67231Y84502D01*
X67223Y84621D01*
X67223Y84741D01*
X67213Y84779D01*
X67211Y84819D01*
X67174Y84933D01*
X67144Y85049D01*
X67125Y85084D01*
X67113Y85121D01*
X67049Y85223D01*
X66991Y85327D01*
X66964Y85356D01*
X66943Y85390D01*
X66855Y85472D01*
X66774Y85559D01*
X66740Y85581D01*
X66711Y85608D01*
X66606Y85666D01*
X66505Y85730D01*
X66467Y85742D01*
X66433Y85762D01*
X66317Y85791D01*
X66203Y85829D01*
X66163Y85831D01*
X66125Y85841D01*
X65964Y85851D01*
X4318Y85851D01*
X4200Y85836D01*
X4081Y85829D01*
X4043Y85816D01*
X4002Y85811D01*
X3892Y85768D01*
X3779Y85731D01*
X3744Y85709D01*
X3707Y85694D01*
X3611Y85625D01*
X3510Y85561D01*
X3482Y85531D01*
X3449Y85508D01*
X3373Y85416D01*
X3292Y85329D01*
X3272Y85294D01*
X3247Y85263D01*
X3196Y85155D01*
X3138Y85051D01*
X3128Y85011D01*
X3111Y84975D01*
X3089Y84858D01*
X3059Y84743D01*
X3055Y84683D01*
X3051Y84663D01*
X3053Y84642D01*
X3049Y84582D01*
X3049Y47305D01*
X3067Y47160D01*
X3082Y47015D01*
X3087Y47003D01*
X3089Y46989D01*
X3142Y46854D01*
X3193Y46717D01*
X3201Y46706D01*
X3206Y46694D01*
X3291Y46576D01*
X3374Y46456D01*
X3385Y46447D01*
X3392Y46436D01*
X3504Y46343D01*
X3615Y46248D01*
X3627Y46242D01*
X3637Y46233D01*
X3769Y46172D01*
X3900Y46106D01*
X3913Y46104D01*
X3925Y46098D01*
X4067Y46071D01*
X4211Y46040D01*
X4224Y46041D01*
X4237Y46038D01*
X4382Y46047D01*
X4528Y46053D01*
X4541Y46057D01*
X4555Y46058D01*
X4693Y46103D01*
X4833Y46145D01*
X4845Y46152D01*
X4857Y46156D01*
X4980Y46234D01*
X5105Y46309D01*
X5115Y46319D01*
X5126Y46326D01*
X5226Y46432D01*
X5328Y46536D01*
X5338Y46551D01*
X5344Y46558D01*
X5352Y46573D01*
X5417Y46670D01*
X8605Y52192D01*
X14438Y57087D01*
X21593Y59691D01*
X29207Y59691D01*
X36362Y57087D01*
X42195Y52192D01*
X46002Y45598D01*
X47324Y38100D01*
X46002Y30602D01*
X42195Y24008D01*
X36362Y19113D01*
X29207Y16509D01*
X21593Y16509D01*
X14438Y19113D01*
X8605Y24008D01*
X5417Y29530D01*
X5329Y29646D01*
X5244Y29764D01*
X5233Y29772D01*
X5225Y29783D01*
X5111Y29873D01*
X4999Y29967D01*
X4986Y29972D01*
X4976Y29981D01*
X4842Y30040D01*
X4711Y30102D01*
X4698Y30105D01*
X4685Y30110D01*
X4541Y30135D01*
X4398Y30162D01*
X4385Y30161D01*
X4372Y30163D01*
X4226Y30151D01*
X4081Y30142D01*
X4068Y30138D01*
X4055Y30137D01*
X3917Y30089D01*
X3779Y30044D01*
X3767Y30037D01*
X3754Y30032D01*
X3633Y29952D01*
X3510Y29874D01*
X3501Y29864D01*
X3489Y29857D01*
X3392Y29749D01*
X3292Y29642D01*
X3285Y29630D01*
X3276Y29620D01*
X3209Y29492D01*
X3138Y29364D01*
X3135Y29351D01*
X3129Y29339D01*
X3095Y29197D01*
X3059Y29056D01*
X3058Y29038D01*
X3056Y29029D01*
X3056Y29012D01*
X3049Y28895D01*
X3049Y13224D01*
X3066Y13086D01*
X3079Y12947D01*
X3086Y12928D01*
X3089Y12908D01*
X3140Y12779D01*
X3187Y12648D01*
X3198Y12631D01*
X3206Y12613D01*
X3287Y12500D01*
X3365Y12385D01*
X3381Y12372D01*
X3392Y12355D01*
X3500Y12266D01*
X3604Y12175D01*
X3622Y12165D01*
X3637Y12152D01*
X3763Y12093D01*
X3887Y12030D01*
X3907Y12026D01*
X3925Y12017D01*
X4062Y11991D01*
X4197Y11960D01*
X4218Y11961D01*
X4237Y11957D01*
X4376Y11966D01*
X4515Y11970D01*
X4535Y11976D01*
X4555Y11977D01*
X4687Y12020D01*
X4821Y12058D01*
X4838Y12069D01*
X4857Y12075D01*
X4975Y12149D01*
X5095Y12220D01*
X5116Y12238D01*
X5126Y12245D01*
X5140Y12260D01*
X5215Y12326D01*
X6702Y13813D01*
X8616Y14606D01*
X10688Y14606D01*
X12602Y13813D01*
X14067Y12348D01*
X14860Y10434D01*
X14860Y8362D01*
X14067Y6448D01*
X12834Y5215D01*
X12749Y5106D01*
X12660Y4999D01*
X12652Y4980D01*
X12639Y4964D01*
X12584Y4837D01*
X12525Y4711D01*
X12521Y4691D01*
X12513Y4672D01*
X12491Y4534D01*
X12465Y4398D01*
X12466Y4378D01*
X12463Y4358D01*
X12476Y4219D01*
X12485Y4081D01*
X12491Y4062D01*
X12493Y4042D01*
X12540Y3910D01*
X12583Y3779D01*
X12594Y3761D01*
X12601Y3742D01*
X12679Y3627D01*
X12753Y3510D01*
X12768Y3496D01*
X12779Y3479D01*
X12883Y3387D01*
X12985Y3292D01*
X13002Y3282D01*
X13018Y3269D01*
X13142Y3205D01*
X13263Y3138D01*
X13283Y3133D01*
X13301Y3124D01*
X13437Y3094D01*
X13571Y3059D01*
X13599Y3057D01*
X13611Y3054D01*
X13632Y3055D01*
X13732Y3049D01*
X69645Y3049D01*
X69783Y3066D01*
G37*
%LPC*%
G36*
X150094Y68960D02*
X150094Y68960D01*
X148180Y69753D01*
X146715Y71218D01*
X145922Y73132D01*
X145922Y75204D01*
X146715Y77118D01*
X148180Y78583D01*
X150094Y79376D01*
X152166Y79376D01*
X154080Y78583D01*
X155545Y77118D01*
X156338Y75204D01*
X156338Y73132D01*
X155545Y71218D01*
X154080Y69753D01*
X152166Y68960D01*
X150094Y68960D01*
G37*
%LPD*%
G36*
X148164Y25730D02*
X148164Y25730D01*
X148187Y25734D01*
X148194Y25749D01*
X148203Y25755D01*
X148201Y25765D01*
X148208Y25781D01*
X148208Y50419D01*
X148196Y50438D01*
X148193Y50460D01*
X148177Y50467D01*
X148171Y50476D01*
X148161Y50475D01*
X148146Y50482D01*
X145606Y50482D01*
X145587Y50470D01*
X145564Y50466D01*
X145557Y50451D01*
X145548Y50445D01*
X145550Y50435D01*
X145543Y50419D01*
X145543Y25781D01*
X145555Y25762D01*
X145558Y25740D01*
X145574Y25733D01*
X145580Y25724D01*
X145590Y25725D01*
X145606Y25718D01*
X148146Y25718D01*
X148164Y25730D01*
G37*
%LPC*%
G36*
X73404Y64555D02*
X73404Y64555D01*
X71617Y65136D01*
X69943Y65989D01*
X68422Y67094D01*
X67094Y68422D01*
X65989Y69943D01*
X65136Y71617D01*
X64555Y73404D01*
X64515Y73661D01*
X73661Y73661D01*
X73661Y64515D01*
X73404Y64555D01*
G37*
%LPD*%
G36*
X96920Y10427D02*
X96920Y10427D01*
X96942Y10430D01*
X96949Y10446D01*
X96958Y10452D01*
X96957Y10462D01*
X96964Y10478D01*
X96964Y13018D01*
X96952Y13036D01*
X96948Y13059D01*
X96933Y13066D01*
X96927Y13075D01*
X96917Y13073D01*
X96901Y13080D01*
X82677Y13080D01*
X82658Y13068D01*
X82636Y13065D01*
X82629Y13049D01*
X82620Y13043D01*
X82621Y13033D01*
X82614Y13018D01*
X82614Y10478D01*
X82626Y10459D01*
X82630Y10436D01*
X82645Y10429D01*
X82651Y10420D01*
X82661Y10422D01*
X82677Y10415D01*
X96901Y10415D01*
X96920Y10427D01*
G37*
%LPC*%
G36*
X162021Y68071D02*
X162021Y68071D01*
X161248Y68278D01*
X160556Y68678D01*
X159991Y69243D01*
X159591Y69935D01*
X159384Y70708D01*
X159384Y75312D01*
X163577Y75312D01*
X163577Y68071D01*
X162021Y68071D01*
G37*
%LPD*%
D10*
X180199Y47466D02*
X184436Y45348D01*
X180199Y43229D01*
X179140Y39982D02*
X183377Y39982D01*
X179140Y39982D02*
X178080Y38923D01*
X178080Y36804D01*
X179140Y35745D01*
X183377Y35745D01*
X184436Y36804D01*
X184436Y38923D01*
X183377Y39982D01*
X179140Y35745D01*
X180199Y32498D02*
X178080Y30379D01*
X184436Y30379D01*
X184436Y28261D02*
X184436Y32498D01*
D11*
X108217Y17603D02*
X102603Y17603D01*
X108217Y17603D02*
X108217Y5893D01*
X102603Y5893D01*
X102603Y17603D01*
X102603Y6834D02*
X108217Y6834D01*
X108217Y7775D02*
X102603Y7775D01*
X102603Y8716D02*
X108217Y8716D01*
X108217Y9657D02*
X102603Y9657D01*
X102603Y10598D02*
X108217Y10598D01*
X108217Y11539D02*
X102603Y11539D01*
X102603Y12480D02*
X108217Y12480D01*
X108217Y13421D02*
X102603Y13421D01*
X102603Y14362D02*
X108217Y14362D01*
X108217Y15303D02*
X102603Y15303D01*
X102603Y16244D02*
X108217Y16244D01*
X108217Y17185D02*
X102603Y17185D01*
X97803Y17603D02*
X92189Y17603D01*
X97803Y17603D02*
X97803Y5893D01*
X92189Y5893D01*
X92189Y17603D01*
X92189Y6834D02*
X97803Y6834D01*
X97803Y7775D02*
X92189Y7775D01*
X92189Y8716D02*
X97803Y8716D01*
X97803Y9657D02*
X92189Y9657D01*
X92189Y10598D02*
X97803Y10598D01*
X97803Y11539D02*
X92189Y11539D01*
X92189Y12480D02*
X97803Y12480D01*
X97803Y13421D02*
X92189Y13421D01*
X92189Y14362D02*
X97803Y14362D01*
X97803Y15303D02*
X92189Y15303D01*
X92189Y16244D02*
X97803Y16244D01*
X97803Y17185D02*
X92189Y17185D01*
X87389Y17603D02*
X81775Y17603D01*
X87389Y17603D02*
X87389Y5893D01*
X81775Y5893D01*
X81775Y17603D01*
X81775Y6834D02*
X87389Y6834D01*
X87389Y7775D02*
X81775Y7775D01*
X81775Y8716D02*
X87389Y8716D01*
X87389Y9657D02*
X81775Y9657D01*
X81775Y10598D02*
X87389Y10598D01*
X87389Y11539D02*
X81775Y11539D01*
X81775Y12480D02*
X87389Y12480D01*
X87389Y13421D02*
X81775Y13421D01*
X81775Y14362D02*
X87389Y14362D01*
X87389Y15303D02*
X81775Y15303D01*
X81775Y16244D02*
X87389Y16244D01*
X87389Y17185D02*
X81775Y17185D01*
X141021Y45707D02*
X141021Y51321D01*
X152731Y51321D01*
X152731Y45707D01*
X141021Y45707D01*
X141021Y46648D02*
X152731Y46648D01*
X152731Y47589D02*
X141021Y47589D01*
X141021Y48530D02*
X152731Y48530D01*
X152731Y49471D02*
X141021Y49471D01*
X141021Y50412D02*
X152731Y50412D01*
X141021Y40907D02*
X141021Y35293D01*
X141021Y40907D02*
X152731Y40907D01*
X152731Y35293D01*
X141021Y35293D01*
X141021Y36234D02*
X152731Y36234D01*
X152731Y37175D02*
X141021Y37175D01*
X141021Y38116D02*
X152731Y38116D01*
X152731Y39057D02*
X141021Y39057D01*
X141021Y39998D02*
X152731Y39998D01*
X141021Y30493D02*
X141021Y24879D01*
X141021Y30493D02*
X152731Y30493D01*
X152731Y24879D01*
X141021Y24879D01*
X141021Y25820D02*
X152731Y25820D01*
X152731Y26761D02*
X141021Y26761D01*
X141021Y27702D02*
X152731Y27702D01*
X152731Y28643D02*
X141021Y28643D01*
X141021Y29584D02*
X152731Y29584D01*
D12*
X151130Y74168D03*
X9652Y9398D03*
D11*
X162420Y71107D02*
X168034Y71107D01*
X162420Y71107D02*
X162420Y82817D01*
X168034Y82817D01*
X168034Y71107D01*
X168034Y72048D02*
X162420Y72048D01*
X162420Y72989D02*
X168034Y72989D01*
X168034Y73930D02*
X162420Y73930D01*
X162420Y74871D02*
X168034Y74871D01*
X168034Y75812D02*
X162420Y75812D01*
X162420Y76753D02*
X168034Y76753D01*
X168034Y77694D02*
X162420Y77694D01*
X162420Y78635D02*
X168034Y78635D01*
X168034Y79576D02*
X162420Y79576D01*
X162420Y80517D02*
X168034Y80517D01*
X168034Y81458D02*
X162420Y81458D01*
X162420Y82399D02*
X168034Y82399D01*
X172834Y71107D02*
X178448Y71107D01*
X172834Y71107D02*
X172834Y82817D01*
X178448Y82817D01*
X178448Y71107D01*
X178448Y72048D02*
X172834Y72048D01*
X172834Y72989D02*
X178448Y72989D01*
X178448Y73930D02*
X172834Y73930D01*
X172834Y74871D02*
X178448Y74871D01*
X178448Y75812D02*
X172834Y75812D01*
X172834Y76753D02*
X178448Y76753D01*
X178448Y77694D02*
X172834Y77694D01*
X172834Y78635D02*
X178448Y78635D01*
X178448Y79576D02*
X172834Y79576D01*
X172834Y80517D02*
X178448Y80517D01*
X178448Y81458D02*
X172834Y81458D01*
X172834Y82399D02*
X178448Y82399D01*
D13*
X76200Y76200D03*
X101600Y76200D03*
D14*
X152654Y18796D03*
X154686Y67564D03*
X122174Y69088D03*
X131064Y16256D03*
X105410Y22646D03*
X129753Y28915D03*
D15*
X120863Y28915D01*
X114594Y22646D01*
X105410Y22646D01*
D14*
X112404Y28718D03*
D15*
X111134Y27448D01*
X98314Y27448D01*
X94996Y24130D02*
X94996Y11748D01*
X94996Y24130D02*
X98314Y27448D01*
D14*
X157480Y38354D03*
D16*
X147130Y38354D01*
X146876Y38100D01*
D14*
X116426Y78326D03*
X112038Y66364D03*
D16*
X116459Y78292D02*
X116426Y78326D01*
X116459Y78292D02*
X116459Y72219D01*
X112038Y67798D01*
X112038Y66364D01*
X112038Y65302D01*
X97536Y50800D02*
X74676Y50800D01*
D14*
X74676Y50800D03*
D16*
X97536Y50800D02*
X112038Y65302D01*
D14*
X122936Y60198D03*
D15*
X134620Y48514D01*
X146876Y48514D01*
D14*
X122936Y16510D03*
D15*
X124139Y16510D01*
X135315Y27686D01*
X146876Y27686D01*
D14*
X184912Y80772D03*
D15*
X178054Y80772D01*
X175641Y78359D02*
X175641Y76962D01*
X175641Y78359D02*
X178054Y80772D01*
D14*
X74168Y8382D03*
D15*
X81217Y8382D01*
X84582Y11748D01*
D14*
X115200Y9790D03*
D15*
X115126Y9716D01*
X107442Y9716D01*
X105410Y11748D01*
M02*
