G04 EAGLE Gerber RS-274X export*
G75*
%MOMM*%
%FSLAX34Y34*%
%LPD*%
%INSoldermask Bottom*%
%IPPOS*%
%AMOC8*
5,1,8,0,0,1.08239X$1,22.5*%
G01*
%ADD10C,0.228344*%
%ADD11C,3.175000*%
%ADD12C,0.762000*%
%ADD13C,2.006600*%

G36*
X148210Y40652D02*
X148210Y40652D01*
X148276Y40654D01*
X148320Y40672D01*
X148366Y40680D01*
X148423Y40714D01*
X148484Y40739D01*
X148519Y40770D01*
X148560Y40795D01*
X148601Y40846D01*
X148650Y40890D01*
X148671Y40932D01*
X148701Y40969D01*
X148722Y41031D01*
X148752Y41090D01*
X148760Y41144D01*
X148773Y41181D01*
X148772Y41221D01*
X148780Y41275D01*
X148780Y45085D01*
X148768Y45150D01*
X148766Y45216D01*
X148748Y45259D01*
X148740Y45306D01*
X148707Y45363D01*
X148682Y45423D01*
X148650Y45458D01*
X148626Y45499D01*
X148575Y45541D01*
X148530Y45589D01*
X148488Y45611D01*
X148452Y45640D01*
X148390Y45661D01*
X148331Y45692D01*
X148276Y45700D01*
X148239Y45712D01*
X148200Y45711D01*
X148146Y45719D01*
X145606Y45719D01*
X145541Y45708D01*
X145475Y45706D01*
X145431Y45688D01*
X145385Y45680D01*
X145328Y45646D01*
X145267Y45621D01*
X145232Y45590D01*
X145191Y45565D01*
X145150Y45514D01*
X145101Y45470D01*
X145080Y45428D01*
X145050Y45391D01*
X145029Y45329D01*
X144999Y45270D01*
X144991Y45216D01*
X144978Y45179D01*
X144978Y45175D01*
X144978Y45174D01*
X144979Y45139D01*
X144971Y45085D01*
X144971Y41275D01*
X144983Y41210D01*
X144985Y41144D01*
X145003Y41101D01*
X145011Y41054D01*
X145044Y40997D01*
X145069Y40937D01*
X145101Y40902D01*
X145125Y40861D01*
X145176Y40820D01*
X145221Y40771D01*
X145263Y40749D01*
X145299Y40720D01*
X145362Y40699D01*
X145420Y40668D01*
X145475Y40660D01*
X145512Y40648D01*
X145551Y40649D01*
X145606Y40641D01*
X148146Y40641D01*
X148210Y40652D01*
G37*
G36*
X148210Y30492D02*
X148210Y30492D01*
X148276Y30494D01*
X148320Y30512D01*
X148366Y30520D01*
X148423Y30554D01*
X148484Y30579D01*
X148519Y30610D01*
X148560Y30635D01*
X148601Y30686D01*
X148650Y30730D01*
X148671Y30772D01*
X148701Y30809D01*
X148722Y30871D01*
X148752Y30930D01*
X148760Y30984D01*
X148773Y31021D01*
X148772Y31061D01*
X148780Y31115D01*
X148780Y34925D01*
X148768Y34990D01*
X148766Y35056D01*
X148748Y35099D01*
X148740Y35146D01*
X148707Y35203D01*
X148682Y35263D01*
X148650Y35298D01*
X148626Y35339D01*
X148575Y35381D01*
X148530Y35429D01*
X148488Y35451D01*
X148452Y35480D01*
X148390Y35501D01*
X148331Y35532D01*
X148276Y35540D01*
X148239Y35552D01*
X148200Y35551D01*
X148146Y35559D01*
X145606Y35559D01*
X145541Y35548D01*
X145475Y35546D01*
X145431Y35528D01*
X145385Y35520D01*
X145328Y35486D01*
X145267Y35461D01*
X145232Y35430D01*
X145191Y35405D01*
X145150Y35354D01*
X145101Y35310D01*
X145080Y35268D01*
X145050Y35231D01*
X145029Y35169D01*
X144999Y35110D01*
X144991Y35056D01*
X144978Y35019D01*
X144978Y35015D01*
X144978Y35014D01*
X144979Y34979D01*
X144971Y34925D01*
X144971Y31115D01*
X144983Y31050D01*
X144985Y30984D01*
X145003Y30941D01*
X145011Y30894D01*
X145044Y30837D01*
X145069Y30777D01*
X145101Y30742D01*
X145125Y30701D01*
X145176Y30660D01*
X145221Y30611D01*
X145263Y30589D01*
X145299Y30560D01*
X145362Y30539D01*
X145420Y30508D01*
X145475Y30500D01*
X145512Y30488D01*
X145551Y30489D01*
X145606Y30481D01*
X148146Y30481D01*
X148210Y30492D01*
G37*
G36*
X172404Y75069D02*
X172404Y75069D01*
X172470Y75071D01*
X172513Y75089D01*
X172560Y75097D01*
X172617Y75131D01*
X172677Y75156D01*
X172712Y75187D01*
X172753Y75212D01*
X172795Y75263D01*
X172843Y75307D01*
X172865Y75349D01*
X172894Y75386D01*
X172915Y75448D01*
X172946Y75507D01*
X172954Y75561D01*
X172966Y75598D01*
X172965Y75638D01*
X172973Y75692D01*
X172973Y78232D01*
X172962Y78297D01*
X172960Y78363D01*
X172942Y78406D01*
X172934Y78453D01*
X172900Y78510D01*
X172875Y78570D01*
X172844Y78605D01*
X172819Y78646D01*
X172768Y78688D01*
X172724Y78736D01*
X172682Y78758D01*
X172645Y78787D01*
X172583Y78808D01*
X172524Y78839D01*
X172470Y78847D01*
X172433Y78859D01*
X172393Y78858D01*
X172339Y78866D01*
X168529Y78866D01*
X168464Y78855D01*
X168398Y78853D01*
X168355Y78835D01*
X168308Y78827D01*
X168251Y78793D01*
X168191Y78768D01*
X168156Y78737D01*
X168115Y78712D01*
X168074Y78661D01*
X168025Y78617D01*
X168003Y78575D01*
X167974Y78538D01*
X167953Y78476D01*
X167922Y78417D01*
X167914Y78363D01*
X167902Y78326D01*
X167902Y78323D01*
X167903Y78286D01*
X167895Y78232D01*
X167895Y75692D01*
X167906Y75627D01*
X167908Y75561D01*
X167926Y75518D01*
X167934Y75471D01*
X167968Y75414D01*
X167993Y75354D01*
X168024Y75319D01*
X168049Y75278D01*
X168100Y75237D01*
X168144Y75188D01*
X168186Y75166D01*
X168223Y75137D01*
X168285Y75116D01*
X168344Y75085D01*
X168398Y75077D01*
X168435Y75065D01*
X168475Y75066D01*
X168529Y75058D01*
X172339Y75058D01*
X172404Y75069D01*
G37*
G36*
X91886Y9855D02*
X91886Y9855D01*
X91952Y9857D01*
X91995Y9875D01*
X92042Y9883D01*
X92099Y9916D01*
X92159Y9941D01*
X92194Y9973D01*
X92235Y9997D01*
X92277Y10048D01*
X92325Y10093D01*
X92347Y10135D01*
X92376Y10171D01*
X92397Y10234D01*
X92428Y10292D01*
X92436Y10347D01*
X92448Y10384D01*
X92447Y10423D01*
X92455Y10478D01*
X92455Y13018D01*
X92444Y13082D01*
X92442Y13148D01*
X92424Y13192D01*
X92416Y13238D01*
X92382Y13295D01*
X92357Y13356D01*
X92326Y13391D01*
X92301Y13432D01*
X92250Y13473D01*
X92206Y13522D01*
X92164Y13543D01*
X92127Y13573D01*
X92065Y13594D01*
X92006Y13624D01*
X91952Y13632D01*
X91915Y13645D01*
X91875Y13644D01*
X91821Y13652D01*
X88011Y13652D01*
X87946Y13640D01*
X87880Y13638D01*
X87837Y13620D01*
X87790Y13612D01*
X87733Y13579D01*
X87673Y13554D01*
X87638Y13522D01*
X87597Y13498D01*
X87556Y13447D01*
X87507Y13402D01*
X87485Y13360D01*
X87456Y13324D01*
X87435Y13262D01*
X87404Y13203D01*
X87396Y13148D01*
X87384Y13111D01*
X87384Y13108D01*
X87385Y13071D01*
X87377Y13018D01*
X87377Y10478D01*
X87388Y10413D01*
X87390Y10347D01*
X87408Y10303D01*
X87416Y10257D01*
X87450Y10200D01*
X87475Y10139D01*
X87506Y10104D01*
X87531Y10063D01*
X87582Y10022D01*
X87626Y9973D01*
X87668Y9952D01*
X87705Y9922D01*
X87767Y9901D01*
X87826Y9871D01*
X87880Y9863D01*
X87917Y9850D01*
X87957Y9851D01*
X88011Y9843D01*
X91821Y9843D01*
X91886Y9855D01*
G37*
D10*
X102614Y17592D02*
X108206Y17592D01*
X108206Y5904D01*
X102614Y5904D01*
X102614Y17592D01*
X102614Y8073D02*
X108206Y8073D01*
X108206Y10242D02*
X102614Y10242D01*
X102614Y12411D02*
X108206Y12411D01*
X108206Y14580D02*
X102614Y14580D01*
X102614Y16749D02*
X108206Y16749D01*
X97792Y17592D02*
X92200Y17592D01*
X97792Y17592D02*
X97792Y5904D01*
X92200Y5904D01*
X92200Y17592D01*
X92200Y8073D02*
X97792Y8073D01*
X97792Y10242D02*
X92200Y10242D01*
X92200Y12411D02*
X97792Y12411D01*
X97792Y14580D02*
X92200Y14580D01*
X92200Y16749D02*
X97792Y16749D01*
X87378Y17592D02*
X81786Y17592D01*
X87378Y17592D02*
X87378Y5904D01*
X81786Y5904D01*
X81786Y17592D01*
X81786Y8073D02*
X87378Y8073D01*
X87378Y10242D02*
X81786Y10242D01*
X81786Y12411D02*
X87378Y12411D01*
X87378Y14580D02*
X81786Y14580D01*
X81786Y16749D02*
X87378Y16749D01*
D11*
X25400Y38100D03*
D10*
X141032Y45718D02*
X141032Y51310D01*
X152720Y51310D01*
X152720Y45718D01*
X141032Y45718D01*
X141032Y47887D02*
X152720Y47887D01*
X152720Y50056D02*
X141032Y50056D01*
X141032Y40896D02*
X141032Y35304D01*
X141032Y40896D02*
X152720Y40896D01*
X152720Y35304D01*
X141032Y35304D01*
X141032Y37473D02*
X152720Y37473D01*
X152720Y39642D02*
X141032Y39642D01*
X141032Y30482D02*
X141032Y24890D01*
X141032Y30482D02*
X152720Y30482D01*
X152720Y24890D01*
X141032Y24890D01*
X141032Y27059D02*
X152720Y27059D01*
X152720Y29228D02*
X141032Y29228D01*
D12*
X151130Y74168D03*
X9652Y9398D03*
D10*
X162431Y71118D02*
X168023Y71118D01*
X162431Y71118D02*
X162431Y82806D01*
X168023Y82806D01*
X168023Y71118D01*
X168023Y73287D02*
X162431Y73287D01*
X162431Y75456D02*
X168023Y75456D01*
X168023Y77625D02*
X162431Y77625D01*
X162431Y79794D02*
X168023Y79794D01*
X168023Y81963D02*
X162431Y81963D01*
X172845Y71118D02*
X178437Y71118D01*
X172845Y71118D02*
X172845Y82806D01*
X178437Y82806D01*
X178437Y71118D01*
X178437Y73287D02*
X172845Y73287D01*
X172845Y75456D02*
X178437Y75456D01*
X178437Y77625D02*
X172845Y77625D01*
X172845Y79794D02*
X178437Y79794D01*
X178437Y81963D02*
X172845Y81963D01*
D13*
X76200Y76200D03*
X101600Y76200D03*
M02*
